  0
SECTION
  2
HEADER
  9
$ACADVER
  1
AC1014
  9
$ACADMAINTVER
 70
     9
  9
$DWGCODEPAGE
  3
ASCII
  9
$INSBASE
 10
0.0
 20
0.0
 30
0.0
  9
$EXTMIN
 10
1.000000000000000E+20
 20
1.000000000000000E+20
 30
1.000000000000000E+20
  9
$EXTMAX
 10
-1.000000000000000E+20
 20
-1.000000000000000E+20
 30
-1.000000000000000E+20
  9
$LIMMIN
 10
0.0
 20
0.0
  9
$LIMMAX
 10
12.0
 20
9.0
  9
$ORTHOMODE
 70
     0
  9
$REGENMODE
 70
     1
  9
$FILLMODE
 70
     1
  9
$QTEXTMODE
 70
     0
  9
$MIRRTEXT
 70
     1
  9
$DRAGMODE
 70
     2
  9
$LTSCALE
 40
1.0
  9
$OSMODE
 70
    37
  9
$ATTMODE
 70
     1
  9
$TEXTSIZE
 40
0.2
  9
$TRACEWID
 40
0.05
  9
$TEXTSTYLE
  7
STANDARD
  9
$CLAYER
  8
0
  9
$CELTYPE
  6
BYLAYER
  9
$CECOLOR
 62
   256
  9
$CELTSCALE
 40
1.0
  9
$DELOBJ
 70
     1
  9
$DISPSILH
 70
     0
  9
$DIMSCALE
 40
1.0
  9
$DIMASZ
 40
0.18
  9
$DIMEXO
 40
0.0625
  9
$DIMDLI
 40
0.38
  9
$DIMRND
 40
0.0
  9
$DIMDLE
 40
0.0
  9
$DIMEXE
 40
0.18
  9
$DIMTP
 40
0.0
  9
$DIMTM
 40
0.0
  9
$DIMTXT
 40
0.18
  9
$DIMCEN
 40
0.09
  9
$DIMTSZ
 40
0.0
  9
$DIMTOL
 70
     0
  9
$DIMLIM
 70
     0
  9
$DIMTIH
 70
     1
  9
$DIMTOH
 70
     1
  9
$DIMSE1
 70
     0
  9
$DIMSE2
 70
     0
  9
$DIMTAD
 70
     0
  9
$DIMZIN
 70
     0
  9
$DIMBLK
  1

  9
$DIMASO
 70
     1
  9
$DIMSHO
 70
     1
  9
$DIMPOST
  1

  9
$DIMAPOST
  1

  9
$DIMALT
 70
     0
  9
$DIMALTD
 70
     2
  9
$DIMALTF
 40
25.4
  9
$DIMLFAC
 40
1.0
  9
$DIMTOFL
 70
     0
  9
$DIMTVP
 40
0.0
  9
$DIMTIX
 70
     0
  9
$DIMSOXD
 70
     0
  9
$DIMSAH
 70
     0
  9
$DIMBLK1
  1

  9
$DIMBLK2
  1

  9
$DIMSTYLE
  2
STANDARD
  9
$DIMCLRD
 70
     0
  9
$DIMCLRE
 70
     0
  9
$DIMCLRT
 70
     0
  9
$DIMTFAC
 40
1.0
  9
$DIMGAP
 40
0.09
  9
$DIMJUST
 70
     0
  9
$DIMSD1
 70
     0
  9
$DIMSD2
 70
     0
  9
$DIMTOLJ
 70
     1
  9
$DIMTZIN
 70
     0
  9
$DIMALTZ
 70
     0
  9
$DIMALTTZ
 70
     0
  9
$DIMFIT
 70
     3
  9
$DIMUPT
 70
     0
  9
$DIMUNIT
 70
     2
  9
$DIMDEC
 70
     4
  9
$DIMTDEC
 70
     4
  9
$DIMALTU
 70
     2
  9
$DIMALTTD
 70
     2
  9
$DIMTXSTY
  7
STANDARD
  9
$DIMAUNIT
 70
     0
  9
$LUNITS
 70
     2
  9
$LUPREC
 70
     4
  9
$SKETCHINC
 40
0.1
  9
$FILLETRAD
 40
0.5
  9
$AUNITS
 70
     0
  9
$AUPREC
 70
     0
  9
$MENU
  1
.
  9
$ELEVATION
 40
0.0
  9
$PELEVATION
 40
0.0
  9
$THICKNESS
 40
0.0
  9
$LIMCHECK
 70
     0
  9
$CHAMFERA
 40
0.5
  9
$CHAMFERB
 40
0.5
  9
$CHAMFERC
 40
1.0
  9
$CHAMFERD
 40
0.0
  9
$SKPOLY
 70
     0
  9
$TDCREATE
 40
2456344.895274826
  9
$TDUPDATE
 40
2456344.895274838
  9
$TDINDWG
 40
0.0000000116
  9
$TDUSRTIMER
 40
0.0000000116
  9
$USRTIMER
 70
     1
  9
$ANGBASE
 50
0.0
  9
$ANGDIR
 70
     0
  9
$PDMODE
 70
     0
  9
$PDSIZE
 40
0.0
  9
$PLINEWID
 40
0.0
  9
$COORDS
 70
     1
  9
$SPLFRAME
 70
     0
  9
$SPLINETYPE
 70
     6
  9
$SPLINESEGS
 70
     8
  9
$ATTDIA
 70
     0
  9
$ATTREQ
 70
     1
  9
$HANDLING
 70
     1
  9
$HANDSEED
  5
124
  9
$SURFTAB1
 70
     6
  9
$SURFTAB2
 70
     6
  9
$SURFTYPE
 70
     6
  9
$SURFU
 70
     6
  9
$SURFV
 70
     6
  9
$UCSNAME
  2

  9
$UCSORG
 10
0.0
 20
0.0
 30
0.0
  9
$UCSXDIR
 10
1.0
 20
0.0
 30
0.0
  9
$UCSYDIR
 10
0.0
 20
1.0
 30
0.0
  9
$PUCSNAME
  2

  9
$PUCSORG
 10
0.0
 20
0.0
 30
0.0
  9
$PUCSXDIR
 10
1.0
 20
0.0
 30
0.0
  9
$PUCSYDIR
 10
0.0
 20
1.0
 30
0.0
  9
$USERI1
 70
     0
  9
$USERI2
 70
     0
  9
$USERI3
 70
     0
  9
$USERI4
 70
     0
  9
$USERI5
 70
     0
  9
$USERR1
 40
0.0
  9
$USERR2
 40
0.0
  9
$USERR3
 40
0.0
  9
$USERR4
 40
0.0
  9
$USERR5
 40
0.0
  9
$WORLDVIEW
 70
     1
  9
$SHADEDGE
 70
     3
  9
$SHADEDIF
 70
    70
  9
$TILEMODE
 70
     1
  9
$MAXACTVP
 70
    64
  9
$PINSBASE
 10
0.0
 20
0.0
 30
0.0
  9
$PLIMCHECK
 70
     0
  9
$PEXTMIN
 10
1.000000000000000E+20
 20
1.000000000000000E+20
 30
1.000000000000000E+20
  9
$PEXTMAX
 10
-1.000000000000000E+20
 20
-1.000000000000000E+20
 30
-1.000000000000000E+20
  9
$PLIMMIN
 10
0.0
 20
0.0
  9
$PLIMMAX
 10
12.0
 20
9.0
  9
$UNITMODE
 70
     0
  9
$VISRETAIN
 70
     1
  9
$PLINEGEN
 70
     0
  9
$PSLTSCALE
 70
     1
  9
$TREEDEPTH
 70
  3020
  9
$PICKSTYLE
 70
     1
  9
$CMLSTYLE
  2
STANDARD
  9
$CMLJUST
 70
     0
  9
$CMLSCALE
 40
1.0
  9
$PROXYGRAPHICS
 70
     1
  9
$MEASUREMENT
 70
     0
  0
ENDSEC
  0
SECTION
  2
CLASSES
  0
CLASS
  1
ACDBDICTIONARYWDFLT
  2
AcDbDictionaryWithDefault
  3
ObjectDBX Classes
 90
        0
280
     0
281
     0
  0
CLASS
  1
VISUALSTYLE
  2
AcDbVisualStyle
  3
ObjectDBX Classes
 90
     4095
280
     0
281
     0
  0
CLASS
  1
XRECORD
  2
AcDbXrecord
  3
AutoCAD 2000
 90
        0
280
     0
281
     0
  0
CLASS
  1
LWPOLYLINE
  2
AcDbPolyline
  3
AutoCAD 2000
 90
        0
280
     0
281
     1
  0
CLASS
  1
HATCH
  2
AcDbHatch
  3
AutoCAD 2000
 90
        0
280
     0
281
     1
  0
CLASS
  1
ACDBPLACEHOLDER
  2
AcDbPlaceHolder
  3
ObjectDBX Classes
 90
        0
280
     0
281
     0
  0
CLASS
  1
LAYOUT
  2
AcDbLayout
  3
ObjectDBX Classes
 90
        0
280
     0
281
     0
  0
ENDSEC
  0
SECTION
  2
TABLES
  0
TABLE
  2
VPORT
  5
8
330
0
100
AcDbSymbolTable
 70
     1
  0
VPORT
  5
29
330
8
100
AcDbSymbolTableRecord
100
AcDbViewportTableRecord
  2
*ACTIVE
 70
     0
 10
0.0
 20
0.0
 11
1.0
 21
1.0
 12
0.0
 22
0.0
 13
0.0
 23
0.0
 14
0.5
 24
0.5
 15
0.5
 25
0.5
 16
0.0
 26
0.0
 36
1.0
 17
101.3864709386061
 27
135.5391030523835
 37
0.0
 40
450.0000471840589
 41
1.333335374872531
 42
50.0
 43
0.0
 44
0.0
 50
0.0
 51
0.0
 71
     0
 72
   100
 73
     1
 74
     3
 75
     0
 76
     0
 77
     0
 78
     0
  0
ENDTAB
  0
TABLE
  2
LTYPE
  5
5
330
0
100
AcDbSymbolTable
 70
     1
  0
LTYPE
  5
14
330
5
100
AcDbSymbolTableRecord
100
AcDbLinetypeTableRecord
  2
BYBLOCK
 70
     0
  3

 72
    65
 73
     0
 40
0.0
  0
LTYPE
  5
15
330
5
100
AcDbSymbolTableRecord
100
AcDbLinetypeTableRecord
  2
BYLAYER
 70
     0
  3

 72
    65
 73
     0
 40
0.0
  0
LTYPE
  5
16
330
5
100
AcDbSymbolTableRecord
100
AcDbLinetypeTableRecord
  2
CONTINUOUS
 70
     0
  3
Solid line
 72
    65
 73
     0
 40
0.0
  0
ENDTAB
  0
TABLE
  2
LAYER
  5
2
330
0
100
AcDbSymbolTable
 70
    10
  0
LAYER
  5
10
330
2
100
AcDbSymbolTableRecord
100
AcDbLayerTableRecord
  2
0
 70
     0
 62
     7
  6
CONTINUOUS
  0
LAYER
  5
3B
330
2
100
AcDbSymbolTableRecord
100
AcDbLayerTableRecord
  2
2D
 70
     1
 62
     7
  6
CONTINUOUS
  0
LAYER
  5
3C
330
2
100
AcDbSymbolTableRecord
100
AcDbLayerTableRecord
  2
2DBLACK
 70
     1
 62
     7
  6
CONTINUOUS
  0
LAYER
  5
3D
330
2
100
AcDbSymbolTableRecord
100
AcDbLayerTableRecord
  2
Z_FOR_DREMEL
 70
     1
 62
     7
  6
CONTINUOUS
  0
LAYER
  5
3E
330
2
100
AcDbSymbolTableRecord
100
AcDbLayerTableRecord
  2
F_BASE
 70
     0
 62
     7
  6
CONTINUOUS
  0
LAYER
  5
FE
330
2
100
AcDbSymbolTableRecord
100
AcDbLayerTableRecord
  2
E_-_EMBASE
 70
     1
 62
     7
  6
CONTINUOUS
  0
LAYER
  5
FF
330
2
100
AcDbSymbolTableRecord
100
AcDbLayerTableRecord
  2
D_CHARIOT_Y_AXIS
 70
     1
 62
     7
  6
CONTINUOUS
  0
LAYER
  5
100
330
2
100
AcDbSymbolTableRecord
100
AcDbLayerTableRecord
  2
C_CHARIOT_Y_AXIS
 70
     1
 62
     7
  6
CONTINUOUS
  0
LAYER
  5
101
330
2
100
AcDbSymbolTableRecord
100
AcDbLayerTableRecord
  2
$DDT_AUDIT_GENERATED__101_
 70
     1
 62
     7
  6
CONTINUOUS
  0
LAYER
  5
102
330
2
100
AcDbSymbolTableRecord
100
AcDbLayerTableRecord
  2
$DDT_AUDIT_GENERATED__102_
 70
     1
 62
     7
  6
CONTINUOUS
  0
ENDTAB
  0
TABLE
  2
STYLE
  5
3
330
0
100
AcDbSymbolTable
 70
     1
  0
STYLE
  5
11
330
3
100
AcDbSymbolTableRecord
100
AcDbTextStyleTableRecord
  2
STANDARD
 70
     0
 40
0.0
 41
1.0
 50
0.0
 71
     0
 42
0.2
  3
txt
  4

  0
ENDTAB
  0
TABLE
  2
VIEW
  5
6
330
0
100
AcDbSymbolTable
 70
     0
  0
ENDTAB
  0
TABLE
  2
UCS
  5
7
330
0
100
AcDbSymbolTable
 70
     0
  0
ENDTAB
  0
TABLE
  2
APPID
  5
9
330
0
100
AcDbSymbolTable
 70
     1
  0
APPID
  5
12
330
9
100
AcDbSymbolTableRecord
100
AcDbRegAppTableRecord
  2
ACAD
 70
     0
  0
ENDTAB
  0
TABLE
  2
DIMSTYLE
  5
A
330
0
100
AcDbSymbolTable
 70
     1
  0
DIMSTYLE
105
27
330
A
100
AcDbSymbolTableRecord
100
AcDbDimStyleTableRecord
  2
STANDARD
 70
     0
  3

  4

  5

  6

  7

 40
1.0
 41
0.18
 42
0.0625
 43
0.38
 44
0.18
 45
0.0
 46
0.0
 47
0.0
 48
0.0
140
0.18
141
0.09
142
0.0
143
25.4
144
1.0
145
0.0
146
1.0
147
0.09
 71
     0
 72
     0
 73
     1
 74
     1
 75
     0
 76
     0
 77
     0
 78
     0
170
     0
171
     2
172
     0
173
     0
174
     0
175
     0
176
     0
177
     0
178
     0
270
     2
271
     4
272
     4
273
     2
274
     2
340
11
275
     0
280
     0
281
     0
282
     0
283
     1
284
     0
285
     0
286
     0
287
     3
288
     0
  0
ENDTAB
  0
TABLE
  2
BLOCK_RECORD
  5
1
330
0
100
AcDbSymbolTable
 70
     3
  0
BLOCK_RECORD
  5
1F
330
1
100
AcDbSymbolTableRecord
100
AcDbBlockTableRecord
  2
*MODEL_SPACE
  0
BLOCK_RECORD
  5
1B
330
1
100
AcDbSymbolTableRecord
100
AcDbBlockTableRecord
  2
*PAPER_SPACE
  0
BLOCK_RECORD
  5
3F
330
1
100
AcDbSymbolTableRecord
100
AcDbBlockTableRecord
  2
BLOCK_2
  0
BLOCK_RECORD
  5
D9
330
1
100
AcDbSymbolTableRecord
100
AcDbBlockTableRecord
  2
BLOCK_3
  0
ENDTAB
  0
ENDSEC
  0
SECTION
  2
BLOCKS
  0
BLOCK
  5
20
330
1F
100
AcDbEntity
  8
0
100
AcDbBlockBegin
  2
*MODEL_SPACE
 70
     0
 71
     0
 10
0.0
 20
0.0
 30
0.0
  3
*MODEL_SPACE
  1

  0
ENDBLK
  5
21
330
1F
100
AcDbEntity
  8
0
100
AcDbBlockEnd
  0
BLOCK
  5
1C
330
1B
100
AcDbEntity
 67
     1
  8
0
100
AcDbBlockBegin
  2
*PAPER_SPACE
 70
     0
 71
     0
 10
0.0
 20
0.0
 30
0.0
  3
*PAPER_SPACE
  1

  0
ENDBLK
  5
1D
330
1B
100
AcDbEntity
 67
     1
  8
0
100
AcDbBlockEnd
  0
BLOCK
  5
41
330
3F
100
AcDbEntity
  8
0
100
AcDbBlockBegin
  2
BLOCK_2
 70
     0
 71
     0
 10
0.0
 20
0.0
 30
0.0
  3
BLOCK_2
  1

  0
POLYLINE
  5
43
330
3F
100
AcDbEntity
  8
F_BASE
 62
     1
100
AcDb2dPolyline
 66
     1
 10
0.0
 20
0.0
 30
0.0
  0
VERTEX
  5
44
330
43
100
AcDbEntity
  8
F_BASE
 62
     1
100
AcDbVertex
100
AcDb2dVertex
 10
-118.1387755513585
 20
-43.35276567641409
 30
0.0
  0
VERTEX
  5
45
330
43
100
AcDbEntity
  8
F_BASE
 62
     1
100
AcDbVertex
100
AcDb2dVertex
 10
-92.13879502690956
 20
-43.35276567641409
 30
0.0
  0
SEQEND
  5
46
330
43
100
AcDbEntity
  8
F_BASE
  0
POLYLINE
  5
47
330
3F
100
AcDbEntity
  8
F_BASE
 62
     1
100
AcDb2dPolyline
 66
     1
 10
0.0
 20
0.0
 30
0.0
  0
VERTEX
  5
48
330
47
100
AcDbEntity
  8
F_BASE
 62
     1
100
AcDbVertex
100
AcDb2dVertex
 10
-118.1387755513585
 20
-48.35298056231969
 30
0.0
  0
VERTEX
  5
49
330
47
100
AcDbEntity
  8
F_BASE
 62
     1
100
AcDbVertex
100
AcDb2dVertex
 10
-118.1387755513585
 20
-43.35276567641409
 30
0.0
  0
SEQEND
  5
4A
330
47
100
AcDbEntity
  8
F_BASE
  0
POLYLINE
  5
4B
330
3F
100
AcDbEntity
  8
F_BASE
 62
     1
100
AcDb2dPolyline
 66
     1
 10
0.0
 20
0.0
 30
0.0
  0
VERTEX
  5
4C
330
4B
100
AcDbEntity
  8
F_BASE
 62
     1
100
AcDbVertex
100
AcDb2dVertex
 10
-92.13879502690956
 20
-43.35276567641409
 30
0.0
  0
VERTEX
  5
4D
330
4B
100
AcDbEntity
  8
F_BASE
 62
     1
100
AcDbVertex
100
AcDb2dVertex
 10
-92.13879502690956
 20
-48.35298056231969
 30
0.0
  0
SEQEND
  5
4E
330
4B
100
AcDbEntity
  8
F_BASE
  0
POLYLINE
  5
4F
330
3F
100
AcDbEntity
  8
F_BASE
 62
     1
100
AcDb2dPolyline
 66
     1
 10
0.0
 20
0.0
 30
0.0
  0
VERTEX
  5
50
330
4F
100
AcDbEntity
  8
F_BASE
 62
     1
100
AcDbVertex
100
AcDb2dVertex
 10
-92.13879502690956
 20
-48.35298056231969
 30
0.0
  0
VERTEX
  5
51
330
4F
100
AcDbEntity
  8
F_BASE
 62
     1
100
AcDbVertex
100
AcDb2dVertex
 10
-92.13879502690956
 20
-52.14293260585334
 30
0.0
  0
SEQEND
  5
52
330
4F
100
AcDbEntity
  8
F_BASE
  0
POLYLINE
  5
53
330
3F
100
AcDbEntity
  8
F_BASE
 62
     1
100
AcDb2dPolyline
 66
     1
 10
0.0
 20
0.0
 30
0.0
  0
VERTEX
  5
54
330
53
100
AcDbEntity
  8
F_BASE
 62
     1
100
AcDbVertex
100
AcDb2dVertex
 10
126.3813441921698
 20
-27.38129247050371
 30
0.0
  0
VERTEX
  5
55
330
53
100
AcDbEntity
  8
F_BASE
 62
     1
100
AcDbVertex
100
AcDb2dVertex
 10
46.35930248978725
 20
-27.38129247050371
 30
0.0
  0
SEQEND
  5
56
330
53
100
AcDbEntity
  8
F_BASE
  0
SPLINE
  5
57
330
3F
100
AcDbEntity
  8
F_BASE
 62
     1
100
AcDbSpline
210
0.0
220
0.0
230
1.0
 70
    11
 71
     3
 72
    17
 73
    13
 74
     0
 42
0.0000000001
 43
0.0000000001
 40
0.0
 40
0.0
 40
0.0
 40
0.0
 40
1.0
 40
1.0
 40
1.0
 40
2.0
 40
2.0
 40
2.0
 40
3.0
 40
3.0
 40
3.0
 40
4.0
 40
4.0
 40
4.0
 40
4.0
 10
-56.25792962285067
 20
210.6446457443789
 30
0.0
 10
-58.46709856014361
 20
210.6446457443789
 30
0.0
 10
-60.25803262962
 20
208.8538839297904
 30
0.0
 10
-60.25803262962
 20
206.6447149924975
 30
0.0
 10
-60.25803262962
 20
204.4355460552046
 30
0.0
 10
-58.46709856014361
 20
202.6446119857282
 30
0.0
 10
-56.25792962285067
 20
202.6446119857282
 30
0.0
 10
-54.04893294044565
 20
202.6446119857282
 30
0.0
 10
-52.25799887096926
 20
204.4355460552046
 30
0.0
 10
-52.25799887096926
 20
206.6447149924975
 30
0.0
 10
-52.25799887096926
 20
208.8538839297904
 30
0.0
 10
-54.04893294044565
 20
210.6446457443789
 30
0.0
 10
-56.25792962285067
 20
210.6446457443789
 30
0.0
  0
SPLINE
  5
58
330
3F
100
AcDbEntity
  8
F_BASE
 62
     1
100
AcDbSpline
210
0.0
220
0.0
230
1.0
 70
    11
 71
     3
 72
    17
 73
    13
 74
     0
 42
0.0000000001
 43
0.0000000001
 40
0.0
 40
0.0
 40
0.0
 40
0.0
 40
1.0
 40
1.0
 40
1.0
 40
2.0
 40
2.0
 40
2.0
 40
3.0
 40
3.0
 40
3.0
 40
4.0
 40
4.0
 40
4.0
 40
4.0
 10
-56.25792962285067
 20
258.6446760413954
 30
0.0
 10
-58.46709856014361
 20
258.6446760413954
 30
0.0
 10
-60.25803262962
 20
256.8539142268069
 30
0.0
 10
-60.25803262962
 20
254.644745289514
 30
0.0
 10
-60.25803262962
 20
252.4355763522211
 30
0.0
 10
-58.46709856014361
 20
250.6446422827447
 30
0.0
 10
-56.25792962285067
 20
250.6446422827447
 30
0.0
 10
-54.04893294044565
 20
250.6446422827447
 30
0.0
 10
-52.25799887096926
 20
252.4355763522211
 30
0.0
 10
-52.25799887096926
 20
254.644745289514
 30
0.0
 10
-52.25799887096926
 20
256.8539142268069
 30
0.0
 10
-54.04893294044565
 20
258.6446760413954
 30
0.0
 10
-56.25792962285067
 20
258.6446760413954
 30
0.0
  0
SPLINE
  5
59
330
3F
100
AcDbEntity
  8
F_BASE
 62
     1
100
AcDbSpline
210
0.0
220
0.0
230
1.0
 70
    11
 71
     3
 72
    17
 73
    13
 74
     0
 42
0.0000000001
 43
0.0000000001
 40
0.0
 40
0.0
 40
0.0
 40
0.0
 40
1.0
 40
1.0
 40
1.0
 40
2.0
 40
2.0
 40
2.0
 40
3.0
 40
3.0
 40
3.0
 40
4.0
 40
4.0
 40
4.0
 40
4.0
 10
330.5106210566915
 20
232.8574303035006
 30
0.0
 10
324.9881293506789
 20
232.8574303035006
 30
0.0
 10
320.5108803044319
 20
228.3801812572536
 30
0.0
 10
320.5108803044319
 20
222.8573450414652
 30
0.0
 10
320.5108803044319
 20
217.3345088256768
 30
0.0
 10
324.9881293506789
 20
212.8574320343177
 30
0.0
 10
330.5106210566915
 20
212.8574320343177
 30
0.0
 10
336.0338017822557
 20
212.8574320343177
 30
0.0
 10
340.5107063187269
 20
217.3345088256768
 30
0.0
 10
340.5107063187269
 20
222.8573450414652
 30
0.0
 10
340.5107063187269
 20
228.3801812572536
 30
0.0
 10
336.0338017822557
 20
232.8574303035006
 30
0.0
 10
330.5106210566915
 20
232.8574303035006
 30
0.0
  0
POLYLINE
  5
5A
330
3F
100
AcDbEntity
  8
F_BASE
 62
     1
100
AcDb2dPolyline
 66
     1
 10
0.0
 20
0.0
 30
0.0
  0
VERTEX
  5
5B
330
5A
100
AcDbEntity
  8
F_BASE
 62
     1
100
AcDbVertex
100
AcDb2dVertex
 10
46.51071453624967
 20
229.8574391758675
 30
0.0
  0
VERTEX
  5
5C
330
5A
100
AcDbEntity
  8
F_BASE
 62
     1
100
AcDbVertex
100
AcDb2dVertex
 10
46.51071453624967
 20
-0.1426270471796139
 30
0.0
  0
SEQEND
  5
5D
330
5A
100
AcDbEntity
  8
F_BASE
  0
POLYLINE
  5
5E
330
3F
100
AcDbEntity
  8
F_BASE
 62
     1
100
AcDb2dPolyline
 66
     1
 10
0.0
 20
0.0
 30
0.0
  0
VERTEX
  5
5F
330
5E
100
AcDbEntity
  8
F_BASE
 62
     1
100
AcDbVertex
100
AcDb2dVertex
 10
258.5104894837228
 20
229.8574391758675
 30
0.0
  0
VERTEX
  5
60
330
5E
100
AcDbEntity
  8
F_BASE
 62
     1
100
AcDbVertex
100
AcDb2dVertex
 10
46.51071453624967
 20
229.8574391758675
 30
0.0
  0
SEQEND
  5
61
330
5E
100
AcDbEntity
  8
F_BASE
  0
POLYLINE
  5
62
330
3F
100
AcDbEntity
  8
F_BASE
 62
     1
100
AcDb2dPolyline
 66
     1
 10
0.0
 20
0.0
 30
0.0
  0
VERTEX
  5
63
330
62
100
AcDbEntity
  8
F_BASE
 62
     1
100
AcDbVertex
100
AcDb2dVertex
 10
46.51071453624967
 20
-0.1426270471796139
 30
0.0
  0
VERTEX
  5
64
330
62
100
AcDbEntity
  8
F_BASE
 62
     1
100
AcDbVertex
100
AcDb2dVertex
 10
258.5104894837228
 20
-0.1426270471796139
 30
0.0
  0
SEQEND
  5
65
330
62
100
AcDbEntity
  8
F_BASE
  0
SPLINE
  5
66
330
3F
100
AcDbEntity
  8
F_BASE
 62
     1
100
AcDbSpline
210
0.0
220
0.0
230
1.0
 70
    11
 71
     3
 72
    17
 73
    13
 74
     0
 42
0.0000000001
 43
0.0000000001
 40
0.0
 40
0.0
 40
0.0
 40
0.0
 40
1.0
 40
1.0
 40
1.0
 40
2.0
 40
2.0
 40
2.0
 40
3.0
 40
3.0
 40
3.0
 40
4.0
 40
4.0
 40
4.0
 40
4.0
 10
330.5106210566915
 20
47.857230994949
 30
0.0
 10
324.9881293506789
 20
47.857230994949
 30
0.0
 10
320.5108803044319
 20
43.37998194870199
 30
0.0
 10
320.5108803044319
 20
37.85714573291361
 30
0.0
 10
320.5108803044319
 20
32.33430951712522
 30
0.0
 10
324.9881293506789
 20
27.85706047087821
 30
0.0
 10
330.5106210566915
 20
27.85706047087821
 30
0.0
 10
336.0338017822557
 20
27.85706047087821
 30
0.0
 10
340.5107063187269
 20
32.33430951712522
 30
0.0
 10
340.5107063187269
 20
37.85714573291361
 30
0.0
 10
340.5107063187269
 20
43.37998194870199
 30
0.0
 10
336.0338017822557
 20
47.857230994949
 30
0.0
 10
330.5106210566915
 20
47.857230994949
 30
0.0
  0
SPLINE
  5
67
330
3F
100
AcDbEntity
  8
F_BASE
 62
     1
100
AcDbSpline
210
0.0
220
0.0
230
1.0
 70
    11
 71
     3
 72
    17
 73
    13
 74
     0
 42
0.0000000001
 43
0.0000000001
 40
0.0
 40
0.0
 40
0.0
 40
0.0
 40
1.0
 40
1.0
 40
1.0
 40
2.0
 40
2.0
 40
2.0
 40
3.0
 40
3.0
 40
3.0
 40
4.0
 40
4.0
 40
4.0
 40
4.0
 10
-152.3411893277385
 20
203.6276706309625
 30
0.0
 10
-157.8640255435269
 20
203.6276706309625
 30
0.0
 10
-162.341102334886
 20
199.1505938396034
 30
0.0
 10
-162.341102334886
 20
193.6277576238151
 30
0.0
 10
-162.341102334886
 20
188.1049214080267
 30
0.0
 10
-157.8640255435269
 20
183.6276723617796
 30
0.0
 10
-152.3411893277385
 20
183.6276723617796
 30
0.0
 10
-146.8181808570622
 20
183.6276723617796
 30
0.0
 10
-142.3411040657031
 20
188.1049214080267
 30
0.0
 10
-142.3411040657031
 20
193.6277576238151
 30
0.0
 10
-142.3411040657031
 20
199.1505938396034
 30
0.0
 10
-146.8181808570622
 20
203.6276706309625
 30
0.0
 10
-152.3411893277385
 20
203.6276706309625
 30
0.0
  0
SPLINE
  5
68
330
3F
100
AcDbEntity
  8
F_BASE
 62
     1
100
AcDbSpline
210
0.0
220
0.0
230
1.0
 70
    11
 71
     3
 72
    17
 73
    13
 74
     0
 42
0.0000000001
 43
0.0000000001
 40
0.0
 40
0.0
 40
0.0
 40
0.0
 40
1.0
 40
1.0
 40
1.0
 40
2.0
 40
2.0
 40
2.0
 40
3.0
 40
3.0
 40
3.0
 40
4.0
 40
4.0
 40
4.0
 40
4.0
 10
330.5106210566915
 20
-22.14267681974716
 30
0.0
 10
324.9881293506789
 20
-22.14267681974716
 30
0.0
 10
320.5108803044319
 20
-26.61992586599417
 30
0.0
 10
320.5108803044319
 20
-32.14276208178255
 30
0.0
 10
320.5108803044319
 20
-37.66559829757094
 30
0.0
 10
324.9881293506789
 20
-42.14284734381795
 30
0.0
 10
330.5106210566915
 20
-42.14284734381795
 30
0.0
 10
336.0338017822557
 20
-42.14284734381795
 30
0.0
 10
340.5107063187269
 20
-37.66559829757094
 30
0.0
 10
340.5107063187269
 20
-32.14276208178255
 30
0.0
 10
340.5107063187269
 20
-26.61992586599417
 30
0.0
 10
336.0338017822557
 20
-22.14267681974716
 30
0.0
 10
330.5106210566915
 20
-22.14267681974716
 30
0.0
  0
POLYLINE
  5
69
330
3F
100
AcDbEntity
  8
F_BASE
 62
     1
100
AcDb2dPolyline
 66
     1
 10
0.0
 20
0.0
 30
0.0
  0
VERTEX
  5
6A
330
69
100
AcDbEntity
  8
F_BASE
 62
     1
100
AcDbVertex
100
AcDb2dVertex
 10
126.4950324181825
 20
322.8573363873796
 30
0.0
  0
VERTEX
  5
6B
330
69
100
AcDbEntity
  8
F_BASE
 62
     1
100
AcDbVertex
100
AcDb2dVertex
 10
126.5108798678691
 20
277.0936912999439
 30
0.0
  0
SEQEND
  5
6C
330
69
100
AcDbEntity
  8
F_BASE
  0
POLYLINE
  5
6D
330
3F
100
AcDbEntity
  8
F_BASE
 62
     1
100
AcDb2dPolyline
 66
     1
 10
0.0
 20
0.0
 30
0.0
  0
VERTEX
  5
6E
330
6D
100
AcDbEntity
  8
F_BASE
 62
     1
100
AcDbVertex
100
AcDb2dVertex
 10
46.51071453624967
 20
277.0936912999439
 30
0.0
  0
VERTEX
  5
6F
330
6D
100
AcDbEntity
  8
F_BASE
 62
     1
100
AcDbVertex
100
AcDb2dVertex
 10
46.51071453624967
 20
322.8573363873796
 30
0.0
  0
SEQEND
  5
70
330
6D
100
AcDbEntity
  8
F_BASE
  0
POLYLINE
  5
71
330
3F
100
AcDbEntity
  8
F_BASE
 62
     1
100
AcDb2dPolyline
 66
     1
 10
0.0
 20
0.0
 30
0.0
  0
VERTEX
  5
72
330
71
100
AcDbEntity
  8
F_BASE
 62
     1
100
AcDbVertex
100
AcDb2dVertex
 10
258.5104894837228
 20
-0.1426270471796139
 30
0.0
  0
VERTEX
  5
73
330
71
100
AcDbEntity
  8
F_BASE
 62
     1
100
AcDbVertex
100
AcDb2dVertex
 10
258.5104894837228
 20
229.8574391758675
 30
0.0
  0
SEQEND
  5
74
330
71
100
AcDbEntity
  8
F_BASE
  0
POLYLINE
  5
75
330
3F
100
AcDbEntity
  8
F_BASE
 62
     1
100
AcDb2dPolyline
 66
     1
 10
0.0
 20
0.0
 30
0.0
  0
VERTEX
  5
76
330
75
100
AcDbEntity
  8
F_BASE
 62
     1
100
AcDbVertex
100
AcDb2dVertex
 10
126.5108798678691
 20
277.1171179646981
 30
0.0
  0
VERTEX
  5
77
330
75
100
AcDbEntity
  8
F_BASE
 62
     1
100
AcDbVertex
100
AcDb2dVertex
 10
46.51071453624967
 20
277.0936912999439
 30
0.0
  0
SEQEND
  5
78
330
75
100
AcDbEntity
  8
F_BASE
  0
SPLINE
  5
79
330
3F
100
AcDbEntity
  8
F_BASE
 62
     1
100
AcDbSpline
210
0.0
220
0.0
230
1.0
 70
    11
 71
     3
 72
    17
 73
    13
 74
     0
 42
0.0000000001
 43
0.0000000001
 40
0.0
 40
0.0
 40
0.0
 40
0.0
 40
1.0
 40
1.0
 40
1.0
 40
2.0
 40
2.0
 40
2.0
 40
3.0
 40
3.0
 40
3.0
 40
4.0
 40
4.0
 40
4.0
 40
4.0
 10
-155.3768372171664
 20
106.7446314815639
 30
0.0
 10
-157.5860061544593
 20
106.7446314815639
 30
0.0
 10
-159.3767679690478
 20
104.9535251571996
 30
0.0
 10
-159.3767679690478
 20
102.7445284747946
 30
0.0
 10
-159.3767679690478
 20
100.5355317923896
 30
0.0
 10
-157.5860061544593
 20
98.7447699778011
 30
0.0
 10
-155.3768372171664
 20
98.7447699778011
 30
0.0
 10
-153.1676682798735
 20
98.7447699778011
 30
0.0
 10
-151.376906465285
 20
100.5355317923896
 30
0.0
 10
-151.376906465285
 20
102.7445284747946
 30
0.0
 10
-151.376906465285
 20
104.9535251571996
 30
0.0
 10
-153.1676682798735
 20
106.7446314815639
 30
0.0
 10
-155.3768372171664
 20
106.7446314815639
 30
0.0
  0
SPLINE
  5
7A
330
3F
100
AcDbEntity
  8
F_BASE
 62
     1
100
AcDbSpline
210
0.0
220
0.0
230
1.0
 70
    11
 71
     3
 72
    17
 73
    13
 74
     0
 42
0.0000000001
 43
0.0000000001
 40
0.0
 40
0.0
 40
0.0
 40
0.0
 40
1.0
 40
1.0
 40
1.0
 40
2.0
 40
2.0
 40
2.0
 40
3.0
 40
3.0
 40
3.0
 40
4.0
 40
4.0
 40
4.0
 40
4.0
 10
-61.37682812651806
 20
106.7446314815639
 30
0.0
 10
-63.58599706381099
 20
106.7446314815639
 30
0.0
 10
-65.37675887839947
 20
104.9535251571996
 30
0.0
 10
-65.37675887839947
 20
102.7445284747946
 30
0.0
 10
-65.37675887839947
 20
100.5355317923896
 30
0.0
 10
-63.58599706381099
 20
98.7447699778011
 30
0.0
 10
-61.37682812651806
 20
98.7447699778011
 30
0.0
 10
-59.16765918922512
 20
98.7447699778011
 30
0.0
 10
-57.37689737463663
 20
100.5355317923896
 30
0.0
 10
-57.37689737463663
 20
102.7445284747946
 30
0.0
 10
-57.37689737463663
 20
104.9535251571996
 30
0.0
 10
-59.16765918922512
 20
106.7446314815639
 30
0.0
 10
-61.37682812651806
 20
106.7446314815639
 30
0.0
  0
SPLINE
  5
7B
330
3F
100
AcDbEntity
  8
F_BASE
 62
     1
100
AcDbSpline
210
0.0
220
0.0
230
1.0
 70
    11
 71
     3
 72
    17
 73
    13
 74
     0
 42
0.0000000001
 43
0.0000000001
 40
0.0
 40
0.0
 40
0.0
 40
0.0
 40
1.0
 40
1.0
 40
1.0
 40
2.0
 40
2.0
 40
2.0
 40
3.0
 40
3.0
 40
3.0
 40
4.0
 40
4.0
 40
4.0
 40
4.0
 10
-61.37682812651806
 20
184.7445730549108
 30
0.0
 10
-63.58599706381099
 20
184.7445730549108
 30
0.0
 10
-65.37675887839947
 20
182.9538112403224
 30
0.0
 10
-65.37675887839947
 20
180.7446423030294
 30
0.0
 10
-65.37675887839947
 20
178.5354733657365
 30
0.0
 10
-63.58599706381099
 20
176.7445392962601
 30
0.0
 10
-61.37682812651806
 20
176.7445392962601
 30
0.0
 10
-59.16765918922512
 20
176.7445392962601
 30
0.0
 10
-57.37689737463663
 20
178.5354733657365
 30
0.0
 10
-57.37689737463663
 20
180.7446423030294
 30
0.0
 10
-57.37689737463663
 20
182.9538112403224
 30
0.0
 10
-59.16765918922512
 20
184.7445730549108
 30
0.0
 10
-61.37682812651806
 20
184.7445730549108
 30
0.0
  0
SPLINE
  5
7C
330
3F
100
AcDbEntity
  8
F_BASE
 62
     1
100
AcDbSpline
210
0.0
220
0.0
230
1.0
 70
    11
 71
     3
 72
    17
 73
    13
 74
     0
 42
0.0000000001
 43
0.0000000001
 40
0.0
 40
0.0
 40
0.0
 40
0.0
 40
1.0
 40
1.0
 40
1.0
 40
2.0
 40
2.0
 40
2.0
 40
3.0
 40
3.0
 40
3.0
 40
4.0
 40
4.0
 40
4.0
 40
4.0
 10
-58.37666474399712
 20
-7.255375878267316
 30
0.0
 10
-63.8996732146734
 20
-7.255375878267316
 30
0.0
 10
-68.37675000603251
 20
-11.73262492451433
 30
0.0
 10
-68.37675000603251
 20
-17.25546114030271
 30
0.0
 10
-68.37675000603251
 20
-22.77829735609109
 30
0.0
 10
-63.8996732146734
 20
-27.2555464023381
 30
0.0
 10
-58.37666474399712
 20
-27.2555464023381
 30
0.0
 10
-52.85382852820874
 20
-27.2555464023381
 30
0.0
 10
-48.37675173684962
 20
-22.77829735609109
 30
0.0
 10
-48.37675173684962
 20
-17.25546114030271
 30
0.0
 10
-48.37675173684962
 20
-11.73262492451433
 30
0.0
 10
-52.85382852820874
 20
-7.255375878267316
 30
0.0
 10
-58.37666474399712
 20
-7.255375878267316
 30
0.0
  0
SPLINE
  5
7D
330
3F
100
AcDbEntity
  8
F_BASE
 62
     1
100
AcDbSpline
210
0.0
220
0.0
230
1.0
 70
    11
 71
     3
 72
    17
 73
    13
 74
     0
 42
0.0000000001
 43
0.0000000001
 40
0.0
 40
0.0
 40
0.0
 40
0.0
 40
1.0
 40
1.0
 40
1.0
 40
2.0
 40
2.0
 40
2.0
 40
3.0
 40
3.0
 40
3.0
 40
4.0
 40
4.0
 40
4.0
 40
4.0
 10
-160.2580239755344
 20
258.6446760413954
 30
0.0
 10
-162.4671929128274
 20
258.6446760413954
 30
0.0
 10
-164.2579547274159
 20
256.8539142268069
 30
0.0
 10
-164.2579547274159
 20
254.644745289514
 30
0.0
 10
-164.2579547274159
 20
252.4355763522211
 30
0.0
 10
-162.4671929128274
 20
250.6446422827447
 30
0.0
 10
-160.2580239755344
 20
250.6446422827447
 30
0.0
 10
-158.0488550382415
 20
250.6446422827447
 30
0.0
 10
-156.258093223653
 20
252.4355763522211
 30
0.0
 10
-156.258093223653
 20
254.644745289514
 30
0.0
 10
-156.258093223653
 20
256.8539142268069
 30
0.0
 10
-158.0488550382415
 20
258.6446760413954
 30
0.0
 10
-160.2580239755344
 20
258.6446760413954
 30
0.0
  0
SPLINE
  5
7E
330
3F
100
AcDbEntity
  8
F_BASE
 62
     1
100
AcDbSpline
210
0.0
220
0.0
230
1.0
 70
    11
 71
     3
 72
    17
 73
    13
 74
     0
 42
0.0000000001
 43
0.0000000001
 40
0.0
 40
0.0
 40
0.0
 40
0.0
 40
1.0
 40
1.0
 40
1.0
 40
2.0
 40
2.0
 40
2.0
 40
3.0
 40
3.0
 40
3.0
 40
4.0
 40
4.0
 40
4.0
 40
4.0
 10
-155.3768372171664
 20
184.7445730549108
 30
0.0
 10
-157.5860061544593
 20
184.7445730549108
 30
0.0
 10
-159.3767679690478
 20
182.9538112403224
 30
0.0
 10
-159.3767679690478
 20
180.7446423030294
 30
0.0
 10
-159.3767679690478
 20
178.5354733657365
 30
0.0
 10
-157.5860061544593
 20
176.7445392962601
 30
0.0
 10
-155.3768372171664
 20
176.7445392962601
 30
0.0
 10
-153.1676682798735
 20
176.7445392962601
 30
0.0
 10
-151.376906465285
 20
178.5354733657365
 30
0.0
 10
-151.376906465285
 20
180.7446423030294
 30
0.0
 10
-151.376906465285
 20
182.9538112403224
 30
0.0
 10
-153.1676682798735
 20
184.7445730549108
 30
0.0
 10
-155.3768372171664
 20
184.7445730549108
 30
0.0
  0
SPLINE
  5
7F
330
3F
100
AcDbEntity
  8
F_BASE
 62
     1
100
AcDbSpline
210
0.0
220
0.0
230
1.0
 70
    11
 71
     3
 72
    17
 73
    13
 74
     0
 42
0.0000000001
 43
0.0000000001
 40
0.0
 40
0.0
 40
0.0
 40
0.0
 40
1.0
 40
1.0
 40
1.0
 40
2.0
 40
2.0
 40
2.0
 40
3.0
 40
3.0
 40
3.0
 40
4.0
 40
4.0
 40
4.0
 40
4.0
 10
-62.34111098897153
 20
203.6276706309625
 30
0.0
 10
-67.86394720475991
 20
203.6276706309625
 30
0.0
 10
-72.34102399611902
 20
199.1505938396034
 30
0.0
 10
-72.34102399611902
 20
193.6277576238151
 30
0.0
 10
-72.34102399611902
 20
188.1049214080267
 30
0.0
 10
-67.86394720475991
 20
183.6276723617796
 30
0.0
 10
-62.34111098897153
 20
183.6276723617796
 30
0.0
 10
-56.81810251829525
 20
183.6276723617796
 30
0.0
 10
-52.34119798182404
 20
188.1049214080267
 30
0.0
 10
-52.34119798182404
 20
193.6277576238151
 30
0.0
 10
-52.34119798182404
 20
199.1505938396034
 30
0.0
 10
-56.81810251829525
 20
203.6276706309625
 30
0.0
 10
-62.34111098897153
 20
203.6276706309625
 30
0.0
  0
SPLINE
  5
80
330
3F
100
AcDbEntity
  8
F_BASE
 62
     1
100
AcDbSpline
210
0.0
220
0.0
230
1.0
 70
    11
 71
     3
 72
    17
 73
    13
 74
     0
 42
0.0000000001
 43
0.0000000001
 40
0.0
 40
0.0
 40
0.0
 40
0.0
 40
1.0
 40
1.0
 40
1.0
 40
2.0
 40
2.0
 40
2.0
 40
3.0
 40
3.0
 40
3.0
 40
4.0
 40
4.0
 40
4.0
 40
4.0
 10
-160.2580239755344
 20
210.6446457443789
 30
0.0
 10
-162.4671929128274
 20
210.6446457443789
 30
0.0
 10
-164.2579547274159
 20
208.8538839297904
 30
0.0
 10
-164.2579547274159
 20
206.6447149924975
 30
0.0
 10
-164.2579547274159
 20
204.4355460552046
 30
0.0
 10
-162.4671929128274
 20
202.6446119857282
 30
0.0
 10
-160.2580239755344
 20
202.6446119857282
 30
0.0
 10
-158.0488550382415
 20
202.6446119857282
 30
0.0
 10
-156.258093223653
 20
204.4355460552046
 30
0.0
 10
-156.258093223653
 20
206.6447149924975
 30
0.0
 10
-156.258093223653
 20
208.8538839297904
 30
0.0
 10
-158.0488550382415
 20
210.6446457443789
 30
0.0
 10
-160.2580239755344
 20
210.6446457443789
 30
0.0
  0
POLYLINE
  5
81
330
3F
100
AcDbEntity
  8
F_BASE
 62
     1
100
AcDb2dPolyline
 66
     1
 10
0.0
 20
0.0
 30
0.0
  0
VERTEX
  5
82
330
81
100
AcDbEntity
  8
F_BASE
 62
     1
100
AcDbVertex
100
AcDb2dVertex
 10
-118.1387755513585
 20
83.64731807308559
 30
0.0
  0
VERTEX
  5
83
330
81
100
AcDbEntity
  8
F_BASE
 62
     1
100
AcDbVertex
100
AcDb2dVertex
 10
-118.1387755513585
 20
88.64718844921539
 30
0.0
  0
VERTEX
  5
84
330
81
100
AcDbEntity
  8
F_BASE
 62
     1
100
AcDbVertex
100
AcDb2dVertex
 10
-92.13879502690956
 20
88.64718844921539
 30
0.0
  0
VERTEX
  5
85
330
81
100
AcDbEntity
  8
F_BASE
 62
     1
100
AcDbVertex
100
AcDb2dVertex
 10
-92.13879502690956
 20
83.64731807308559
 30
0.0
  0
VERTEX
  5
86
330
81
100
AcDbEntity
  8
F_BASE
 62
     1
100
AcDbVertex
100
AcDb2dVertex
 10
-118.1387755513585
 20
83.64731807308559
 30
0.0
  0
SEQEND
  5
87
330
81
100
AcDbEntity
  8
F_BASE
  0
POLYLINE
  5
88
330
3F
100
AcDbEntity
  8
F_BASE
 62
     1
100
AcDb2dPolyline
 66
     1
 10
0.0
 20
0.0
 30
0.0
  0
VERTEX
  5
89
330
88
100
AcDbEntity
  8
F_BASE
 62
     1
100
AcDbVertex
100
AcDb2dVertex
 10
-118.1387755513585
 20
-48.35298056231969
 30
0.0
  0
VERTEX
  5
8A
330
88
100
AcDbEntity
  8
F_BASE
 62
     1
100
AcDbVertex
100
AcDb2dVertex
 10
-118.1387755513585
 20
-52.14293260585334
 30
0.0
  0
SEQEND
  5
8B
330
88
100
AcDbEntity
  8
F_BASE
  0
POLYLINE
  5
8C
330
3F
100
AcDbEntity
  8
F_BASE
 62
     1
100
AcDb2dPolyline
 66
     1
 10
0.0
 20
0.0
 30
0.0
  0
VERTEX
  5
8D
330
8C
100
AcDbEntity
  8
F_BASE
 62
     1
100
AcDbVertex
100
AcDb2dVertex
 10
126.4760843805137
 20
-52.14293260585334
 30
0.0
  0
VERTEX
  5
8E
330
8C
100
AcDbEntity
  8
F_BASE
 62
     1
100
AcDbVertex
100
AcDb2dVertex
 10
126.3813441921698
 20
-27.38129247050371
 30
0.0
  0
SEQEND
  5
8F
330
8C
100
AcDbEntity
  8
F_BASE
  0
POLYLINE
  5
90
330
3F
100
AcDbEntity
  8
F_BASE
 62
     1
100
AcDb2dPolyline
 66
     1
 10
0.0
 20
0.0
 30
0.0
  0
VERTEX
  5
91
330
90
100
AcDbEntity
  8
F_BASE
 62
     1
100
AcDbVertex
100
AcDb2dVertex
 10
46.35930248978725
 20
-27.38129247050371
 30
0.0
  0
VERTEX
  5
92
330
90
100
AcDbEntity
  8
F_BASE
 62
     1
100
AcDbVertex
100
AcDb2dVertex
 10
46.51071453624967
 20
-52.14293260585334
 30
0.0
  0
SEQEND
  5
93
330
90
100
AcDbEntity
  8
F_BASE
  0
SPLINE
  5
94
330
3F
100
AcDbEntity
  8
F_BASE
 62
     1
100
AcDbSpline
210
0.0
220
0.0
230
1.0
 70
    11
 71
     3
 72
    17
 73
    13
 74
     0
 42
0.0000000001
 43
0.0000000001
 40
0.0
 40
0.0
 40
0.0
 40
0.0
 40
1.0
 40
1.0
 40
1.0
 40
2.0
 40
2.0
 40
2.0
 40
3.0
 40
3.0
 40
3.0
 40
4.0
 40
4.0
 40
4.0
 40
4.0
 10
-95.34118564782285
 20
319.6616637070944
 30
0.0
 10
-100.8640218636112
 20
319.6616637070944
 30
0.0
 10
-105.3410986549703
 20
315.1844146608474
 30
0.0
 10
-105.3410986549703
 20
309.661578445059
 30
0.0
 10
-105.3410986549703
 20
304.1387422292706
 30
0.0
 10
-100.8640218636112
 20
299.6616654379115
 30
0.0
 10
-95.34118564782285
 20
299.6616654379115
 30
0.0
 10
-89.81834943203447
 20
299.6616654379115
 30
0.0
 10
-85.34110038578746
 20
304.1387422292706
 30
0.0
 10
-85.34110038578746
 20
309.661578445059
 30
0.0
 10
-85.34110038578746
 20
315.1844146608474
 30
0.0
 10
-89.81834943203447
 20
319.6616637070944
 30
0.0
 10
-95.34118564782285
 20
319.6616637070944
 30
0.0
  0
POLYLINE
  5
95
330
3F
100
AcDbEntity
  8
F_BASE
 62
     1
100
AcDb2dPolyline
 66
     1
 10
0.0
 20
0.0
 30
0.0
  0
VERTEX
  5
96
330
95
100
AcDbEntity
  8
F_BASE
 62
     1
100
AcDbVertex
100
AcDb2dVertex
 10
-169.3356843128756
 20
322.8573363873796
 30
0.0
  0
VERTEX
  5
97
330
95
100
AcDbEntity
  8
F_BASE
 62
     1
100
AcDbVertex
100
AcDb2dVertex
 10
356.6961200954067
 20
322.8573363873796
 30
0.0
  0
SEQEND
  5
98
330
95
100
AcDbEntity
  8
F_BASE
  0
POLYLINE
  5
99
330
3F
100
AcDbEntity
  8
F_BASE
 62
     1
100
AcDb2dPolyline
 66
     1
 10
0.0
 20
0.0
 30
0.0
  0
VERTEX
  5
9A
330
99
100
AcDbEntity
  8
F_BASE
 62
     1
100
AcDbVertex
100
AcDb2dVertex
 10
-169.3356843128756
 20
-52.14293260585334
 30
0.0
  0
VERTEX
  5
9B
330
99
100
AcDbEntity
  8
F_BASE
 62
     1
100
AcDbVertex
100
AcDb2dVertex
 10
356.6961200954067
 20
-52.14293260585334
 30
0.0
  0
SEQEND
  5
9C
330
99
100
AcDbEntity
  8
F_BASE
  0
POLYLINE
  5
9D
330
3F
100
AcDbEntity
  8
F_BASE
 62
     1
100
AcDb2dPolyline
 66
     1
 10
0.0
 20
0.0
 30
0.0
  0
VERTEX
  5
9E
330
9D
100
AcDbEntity
  8
F_BASE
 62
     1
100
AcDbVertex
100
AcDb2dVertex
 10
356.6961200954067
 20
322.8573363873796
 30
0.0
  0
VERTEX
  5
9F
330
9D
100
AcDbEntity
  8
F_BASE
 62
     1
100
AcDbVertex
100
AcDb2dVertex
 10
356.6961200954067
 20
-52.14293260585334
 30
0.0
  0
SEQEND
  5
A0
330
9D
100
AcDbEntity
  8
F_BASE
  0
POLYLINE
  5
A1
330
3F
100
AcDbEntity
  8
F_BASE
 62
     1
100
AcDb2dPolyline
 66
     1
 10
0.0
 20
0.0
 30
0.0
  0
VERTEX
  5
A2
330
A1
100
AcDbEntity
  8
F_BASE
 62
     1
100
AcDbVertex
100
AcDb2dVertex
 10
-169.3356843128756
 20
-51.77913028261258
 30
0.0
  0
VERTEX
  5
A3
330
A1
100
AcDbEntity
  8
F_BASE
 62
     1
100
AcDbVertex
100
AcDb2dVertex
 10
-169.3356843128756
 20
323.2211387106204
 30
0.0
  0
SEQEND
  5
A4
330
A1
100
AcDbEntity
  8
F_BASE
  0
POLYLINE
  5
A5
330
3F
100
AcDbEntity
  8
F_BASE
 62
     3
100
AcDb2dPolyline
 66
     1
 10
0.0
 20
0.0
 30
0.0
  0
VERTEX
  5
A6
330
A5
100
AcDbEntity
  8
F_BASE
 62
     3
100
AcDbVertex
100
AcDb2dVertex
 10
46.51071453624967
 20
117.3572551249649
 30
0.0
  0
VERTEX
  5
A7
330
A5
100
AcDbEntity
  8
F_BASE
 62
     3
100
AcDbVertex
100
AcDb2dVertex
 10
-41.34031182110077
 20
117.3572551249649
 30
0.0
  0
SEQEND
  5
A8
330
A5
100
AcDbEntity
  8
F_BASE
  0
POLYLINE
  5
A9
330
3F
100
AcDbEntity
  8
F_BASE
 62
     3
100
AcDb2dPolyline
 66
     1
 10
0.0
 20
0.0
 30
0.0
  0
VERTEX
  5
AA
330
A9
100
AcDbEntity
  8
F_BASE
 62
     3
100
AcDbVertex
100
AcDb2dVertex
 10
258.5104894837228
 20
117.3572551249649
 30
0.0
  0
VERTEX
  5
AB
330
A9
100
AcDbEntity
  8
F_BASE
 62
     3
100
AcDbVertex
100
AcDb2dVertex
 10
298.6961767912427
 20
117.3572551249649
 30
0.0
  0
SEQEND
  5
AC
330
A9
100
AcDbEntity
  8
F_BASE
  0
POLYLINE
  5
AD
330
3F
100
AcDbEntity
  8
F_BASE
 62
     3
100
AcDb2dPolyline
 66
     1
 10
0.0
 20
0.0
 30
0.0
  0
VERTEX
  5
AE
330
AD
100
AcDbEntity
  8
F_BASE
 62
     3
100
AcDbVertex
100
AcDb2dVertex
 10
298.6961767912427
 20
-52.14293260585334
 30
0.0
  0
VERTEX
  5
AF
330
AD
100
AcDbEntity
  8
F_BASE
 62
     3
100
AcDbVertex
100
AcDb2dVertex
 10
298.6961767912427
 20
322.8573363873796
 30
0.0
  0
SEQEND
  5
B0
330
AD
100
AcDbEntity
  8
F_BASE
  0
POLYLINE
  5
B1
330
3F
100
AcDbEntity
  8
F_BASE
 62
     3
100
AcDb2dPolyline
 66
     1
 10
0.0
 20
0.0
 30
0.0
  0
VERTEX
  5
B2
330
B1
100
AcDbEntity
  8
F_BASE
 62
     3
100
AcDbVertex
100
AcDb2dVertex
 10
-41.34031182110077
 20
-52.14293260585334
 30
0.0
  0
VERTEX
  5
B3
330
B1
100
AcDbEntity
  8
F_BASE
 62
     3
100
AcDbVertex
100
AcDb2dVertex
 10
-41.34031182110077
 20
322.8573363873796
 30
0.0
  0
SEQEND
  5
B4
330
B1
100
AcDbEntity
  8
F_BASE
  0
POLYLINE
  5
B5
330
3F
100
AcDbEntity
  8
F_BASE
 62
     3
100
AcDb2dPolyline
 66
     1
 10
0.0
 20
0.0
 30
0.0
  0
VERTEX
  5
B6
330
B5
100
AcDbEntity
  8
F_BASE
 62
     3
100
AcDbVertex
100
AcDb2dVertex
 10
-43.33967430493384
 20
-52.14293260585334
 30
0.0
  0
VERTEX
  5
B7
330
B5
100
AcDbEntity
  8
F_BASE
 62
     3
100
AcDbVertex
100
AcDb2dVertex
 10
-43.33967430493384
 20
322.8573363873796
 30
0.0
  0
SEQEND
  5
B8
330
B5
100
AcDbEntity
  8
F_BASE
  0
POLYLINE
  5
B9
330
3F
100
AcDbEntity
  8
F_BASE
 62
     3
100
AcDb2dPolyline
 66
     1
 10
0.0
 20
0.0
 30
0.0
  0
VERTEX
  5
BA
330
B9
100
AcDbEntity
  8
F_BASE
 62
     3
100
AcDbVertex
100
AcDb2dVertex
 10
300.6964005495153
 20
-52.14293260585334
 30
0.0
  0
VERTEX
  5
BB
330
B9
100
AcDbEntity
  8
F_BASE
 62
     3
100
AcDbVertex
100
AcDb2dVertex
 10
300.6964005495153
 20
322.8573363873796
 30
0.0
  0
SEQEND
  5
BC
330
B9
100
AcDbEntity
  8
F_BASE
  0
POLYLINE
  5
BD
330
3F
100
AcDbEntity
  8
F_BASE
 62
     3
100
AcDb2dPolyline
 66
     1
 10
0.0
 20
0.0
 30
0.0
  0
VERTEX
  5
BE
330
BD
100
AcDbEntity
  8
F_BASE
 62
     3
100
AcDbVertex
100
AcDb2dVertex
 10
146.5107058821641
 20
4.857243328950185
 30
0.0
  0
VERTEX
  5
BF
330
BD
100
AcDbEntity
  8
F_BASE
 62
     3
100
AcDbVertex
100
AcDb2dVertex
 10
146.5107058821641
 20
-52.14293260585334
 30
0.0
  0
SEQEND
  5
C0
330
BD
100
AcDbEntity
  8
F_BASE
  0
POLYLINE
  5
C1
330
3F
100
AcDbEntity
  8
F_BASE
 62
     3
100
AcDb2dPolyline
 66
     1
 10
0.0
 20
0.0
 30
0.0
  0
VERTEX
  5
C2
330
C1
100
AcDbEntity
  8
F_BASE
 62
     3
100
AcDbVertex
100
AcDb2dVertex
 10
146.5107058821641
 20
229.8574391758675
 30
0.0
  0
VERTEX
  5
C3
330
C1
100
AcDbEntity
  8
F_BASE
 62
     3
100
AcDbVertex
100
AcDb2dVertex
 10
146.5107058821641
 20
322.8573363873796
 30
0.0
  0
SEQEND
  5
C4
330
C1
100
AcDbEntity
  8
F_BASE
  0
SPLINE
  5
C5
330
3F
100
AcDbEntity
  8
F_BASE
 62
     1
100
AcDbSpline
210
0.0
220
0.0
230
1.0
 70
     8
 71
     3
 72
     8
 73
     4
 74
     0
 42
0.0000000001
 43
0.0000000001
 40
0.0
 40
0.0
 40
0.0
 40
0.0
 40
1.0
 40
1.0
 40
1.0
 40
1.0
 10
-104.2581321747551
 20
202.6446119857282
 30
0.0
 10
-102.0487909825743
 20
202.6446119857282
 30
0.0
 10
-100.2580291679858
 20
204.4355460552046
 30
0.0
 10
-100.2580291679858
 20
206.6447149924975
 30
0.0
  0
SPLINE
  5
C6
330
3F
100
AcDbEntity
  8
F_BASE
 62
     1
100
AcDbSpline
210
0.0
220
0.0
230
1.0
 70
     8
 71
     3
 72
     8
 73
     4
 74
     0
 42
0.0000000001
 43
0.0000000001
 40
0.0
 40
0.0
 40
0.0
 40
0.0
 40
1.0
 40
1.0
 40
1.0
 40
1.0
 10
-100.2580291679858
 20
254.644745289514
 30
0.0
 10
-100.2580291679858
 20
256.8539142268069
 30
0.0
 10
-102.0487909825743
 20
258.6446760413954
 30
0.0
 10
-104.2581321747551
 20
258.6446760413954
 30
0.0
  0
SPLINE
  5
C7
330
3F
100
AcDbEntity
  8
F_BASE
 62
     1
100
AcDbSpline
210
0.0
220
0.0
230
1.0
 70
     8
 71
     3
 72
     8
 73
     4
 74
     0
 42
0.0000000001
 43
0.0000000001
 40
0.0
 40
0.0
 40
0.0
 40
0.0
 40
1.0
 40
1.0
 40
1.0
 40
1.0
 10
-116.2580966852872
 20
206.6447149924975
 30
0.0
 10
-116.2580966852872
 20
204.4355460552046
 30
0.0
 10
-114.4671626158109
 20
202.6446119857282
 30
0.0
 10
-112.2579936785179
 20
202.6446119857282
 30
0.0
  0
SPLINE
  5
C8
330
3F
100
AcDbEntity
  8
F_BASE
 62
     1
100
AcDbSpline
210
0.0
220
0.0
230
1.0
 70
     8
 71
     3
 72
     8
 73
     4
 74
     0
 42
0.0000000001
 43
0.0000000001
 40
0.0
 40
0.0
 40
0.0
 40
0.0
 40
1.0
 40
1.0
 40
1.0
 40
1.0
 10
-112.2579936785179
 20
258.6446760413954
 30
0.0
 10
-114.4671626158109
 20
258.6446760413954
 30
0.0
 10
-116.2580966852872
 20
256.8539142268069
 30
0.0
 10
-116.2580966852872
 20
254.644745289514
 30
0.0
  0
POLYLINE
  5
C9
330
3F
100
AcDbEntity
  8
F_BASE
 62
     1
100
AcDb2dPolyline
 66
     1
 10
0.0
 20
0.0
 30
0.0
  0
VERTEX
  5
CA
330
C9
100
AcDbEntity
  8
F_BASE
 62
     1
100
AcDbVertex
100
AcDb2dVertex
 10
-112.2579936785179
 20
258.6446760413954
 30
0.0
  0
VERTEX
  5
CB
330
C9
100
AcDbEntity
  8
F_BASE
 62
     1
100
AcDbVertex
100
AcDb2dVertex
 10
-104.2581321747551
 20
258.6446760413954
 30
0.0
  0
SEQEND
  5
CC
330
C9
100
AcDbEntity
  8
F_BASE
  0
POLYLINE
  5
CD
330
3F
100
AcDbEntity
  8
F_BASE
 62
     1
100
AcDb2dPolyline
 66
     1
 10
0.0
 20
0.0
 30
0.0
  0
VERTEX
  5
CE
330
CD
100
AcDbEntity
  8
F_BASE
 62
     1
100
AcDbVertex
100
AcDb2dVertex
 10
-100.2580291679858
 20
206.6447149924975
 30
0.0
  0
VERTEX
  5
CF
330
CD
100
AcDbEntity
  8
F_BASE
 62
     1
100
AcDbVertex
100
AcDb2dVertex
 10
-100.2580291679858
 20
254.644745289514
 30
0.0
  0
SEQEND
  5
D0
330
CD
100
AcDbEntity
  8
F_BASE
  0
POLYLINE
  5
D1
330
3F
100
AcDbEntity
  8
F_BASE
 62
     1
100
AcDb2dPolyline
 66
     1
 10
0.0
 20
0.0
 30
0.0
  0
VERTEX
  5
D2
330
D1
100
AcDbEntity
  8
F_BASE
 62
     1
100
AcDbVertex
100
AcDb2dVertex
 10
-116.2580966852872
 20
206.6447149924975
 30
0.0
  0
VERTEX
  5
D3
330
D1
100
AcDbEntity
  8
F_BASE
 62
     1
100
AcDbVertex
100
AcDb2dVertex
 10
-116.2580966852872
 20
254.644745289514
 30
0.0
  0
SEQEND
  5
D4
330
D1
100
AcDbEntity
  8
F_BASE
  0
POLYLINE
  5
D5
330
3F
100
AcDbEntity
  8
F_BASE
 62
     1
100
AcDb2dPolyline
 66
     1
 10
0.0
 20
0.0
 30
0.0
  0
VERTEX
  5
D6
330
D5
100
AcDbEntity
  8
F_BASE
 62
     1
100
AcDbVertex
100
AcDb2dVertex
 10
-112.2579936785179
 20
202.6446119857282
 30
0.0
  0
VERTEX
  5
D7
330
D5
100
AcDbEntity
  8
F_BASE
 62
     1
100
AcDbVertex
100
AcDb2dVertex
 10
-104.2581321747551
 20
202.6446119857282
 30
0.0
  0
SEQEND
  5
D8
330
D5
100
AcDbEntity
  8
F_BASE
  0
INSERT
  5
DA
330
3F
100
AcDbEntity
  8
F_BASE
100
AcDbBlockReference
  2
BLOCK_3
 10
0.0
 20
0.0
 30
0.0
  0
ENDBLK
  5
42
330
3F
100
AcDbEntity
  8
0
100
AcDbBlockEnd
  0
BLOCK
  5
DB
330
D9
100
AcDbEntity
  8
0
100
AcDbBlockBegin
  2
BLOCK_3
 70
     0
 71
     0
 10
0.0
 20
0.0
 30
0.0
  3
BLOCK_3
  1

  0
POLYLINE
  5
DD
330
D9
100
AcDbEntity
  8
F_BASE
 62
     7
100
AcDb2dPolyline
 66
     1
 10
0.0
 20
0.0
 30
0.0
  0
VERTEX
  5
DE
330
DD
100
AcDbEntity
  8
F_BASE
 62
     7
100
AcDbVertex
100
AcDb2dVertex
 10
-36.26430478452002
 20
260.1782613083521
 30
0.0
  0
VERTEX
  5
DF
330
DD
100
AcDbEntity
  8
F_BASE
 62
     7
100
AcDbVertex
100
AcDb2dVertex
 10
-34.7283079491328
 20
260.1782613083521
 30
0.0
  0
VERTEX
  5
E0
330
DD
100
AcDbEntity
  8
F_BASE
 62
     7
100
AcDbVertex
100
AcDb2dVertex
 10
-34.7283079491328
 20
259.8694082943508
 30
0.0
  0
VERTEX
  5
E1
330
DD
100
AcDbEntity
  8
F_BASE
 62
     7
100
AcDbVertex
100
AcDb2dVertex
 10
-35.89206197177226
 20
259.8694082943508
 30
0.0
  0
VERTEX
  5
E2
330
DD
100
AcDbEntity
  8
F_BASE
 62
     7
100
AcDbVertex
100
AcDb2dVertex
 10
-35.89206197177226
 20
258.9216619011356
 30
0.0
  0
VERTEX
  5
E3
330
DD
100
AcDbEntity
  8
F_BASE
 62
     7
100
AcDbVertex
100
AcDb2dVertex
 10
-34.81719147128821
 20
258.9216619011356
 30
0.0
  0
VERTEX
  5
E4
330
DD
100
AcDbEntity
  8
F_BASE
 62
     7
100
AcDbVertex
100
AcDb2dVertex
 10
-34.81719147128821
 20
258.6169430044438
 30
0.0
  0
VERTEX
  5
E5
330
DD
100
AcDbEntity
  8
F_BASE
 62
     7
100
AcDbVertex
100
AcDb2dVertex
 10
-35.89206197177226
 20
258.6169430044438
 30
0.0
  0
VERTEX
  5
E6
330
DD
100
AcDbEntity
  8
F_BASE
 62
     7
100
AcDbVertex
100
AcDb2dVertex
 10
-35.89206197177226
 20
257.3265816391993
 30
0.0
  0
VERTEX
  5
E7
330
DD
100
AcDbEntity
  8
F_BASE
 62
     7
100
AcDbVertex
100
AcDb2dVertex
 10
-36.26430478452002
 20
257.3265816391993
 30
0.0
  0
VERTEX
  5
E8
330
DD
100
AcDbEntity
  8
F_BASE
 62
     7
100
AcDbVertex
100
AcDb2dVertex
 10
-36.26430478452002
 20
260.1782613083521
 30
0.0
  0
SEQEND
  5
E9
330
DD
100
AcDbEntity
  8
F_BASE
  0
POLYLINE
  5
EA
330
D9
100
AcDbEntity
  8
F_BASE
 62
     7
100
AcDb2dPolyline
 66
     1
 10
0.0
 20
0.0
 30
0.0
  0
VERTEX
  5
EB
330
EA
100
AcDbEntity
  8
F_BASE
 62
     7
100
AcDbVertex
100
AcDb2dVertex
 10
-32.45040931156854
 20
258.6043683976272
 30
0.0
  0
VERTEX
  5
EC
330
EA
100
AcDbEntity
  8
F_BASE
 62
     7
100
AcDbVertex
100
AcDb2dVertex
 10
-32.45040931156854
 20
258.3335837138515
 30
0.0
  0
VERTEX
  5
ED
330
EA
100
AcDbEntity
  8
F_BASE
 62
     7
100
AcDbVertex
100
AcDb2dVertex
 10
-33.49565197133411
 20
258.3335837138515
 30
0.0
  0
VERTEX
  5
EE
330
EA
100
AcDbEntity
  8
F_BASE
 62
     7
100
AcDbVertex
100
AcDb2dVertex
 10
-33.49565197133411
 20
258.6043683976272
 30
0.0
  0
VERTEX
  5
EF
330
EA
100
AcDbEntity
  8
F_BASE
 62
     7
100
AcDbVertex
100
AcDb2dVertex
 10
-32.45040931156854
 20
258.6043683976272
 30
0.0
  0
SEQEND
  5
F0
330
EA
100
AcDbEntity
  8
F_BASE
  0
SPLINE
  5
F1
330
D9
100
AcDbEntity
  8
F_BASE
 62
     7
100
AcDbSpline
210
0.0
220
0.0
230
1.0
 70
    11
 71
     3
 72
    35
 73
    31
 74
     0
 42
0.0000000001
 43
0.0000000001
 40
0.0
 40
0.0
 40
0.0
 40
0.0
 40
1.0
 40
1.0
 40
1.0
 40
2.0
 40
2.0
 40
2.0
 40
3.0
 40
3.0
 40
3.0
 40
4.0
 40
4.0
 40
4.0
 40
5.0
 40
5.0
 40
5.0
 40
6.0
 40
6.0
 40
6.0
 40
7.0
 40
7.0
 40
7.0
 40
8.0
 40
8.0
 40
8.0
 40
9.0
 40
9.0
 40
9.0
 40
10.0
 40
10.0
 40
10.0
 40
10.0
 10
-29.6569517945253
 20
257.3984119274528
 30
0.0
 10
-29.75427580618771
 20
257.3519031077203
 30
0.0
 10
-29.96993892583612
 20
257.2800728194668
 30
0.0
 10
-30.24502998180936
 20
257.2800728194668
 30
0.0
 10
-30.86273600981189
 20
257.2800728194668
 30
0.0
 10
-31.26460666327812
 20
257.698824451947
 30
0.0
 10
-31.26460666327812
 20
258.3251432243445
 30
0.0
 10
-31.26460666327812
 20
258.9555961140514
 30
0.0
 10
-30.83310816909342
 20
259.4167224489547
 30
0.0
 10
-30.16458694916095
 20
259.4167224489547
 30
0.0
 10
-29.9446174573151
 20
259.4167224489547
 30
0.0
 10
-29.74996943399026
 20
259.3617731397151
 30
0.0
 10
-29.64851130501829
 20
259.3066515755878
 30
0.0
 10
-29.64851130501829
 20
259.3066515755878
 30
0.0
 10
-29.73308845497625
 20
259.0231200301075
 30
0.0
 10
-29.73308845497625
 20
259.0231200301075
 30
0.0
 10
-29.82197197713166
 20
259.0698011047279
 30
0.0
 10
-29.96167069121701
 20
259.1206162966578
 30
0.0
 10
-30.16458694916095
 20
259.1206162966578
 30
0.0
 10
-30.63432602845903
 20
259.1206162966578
 30
0.0
 10
-30.88805747833291
 20
258.7693885802336
 30
0.0
 10
-30.88805747833291
 20
258.3461583206681
 30
0.0
 10
-30.88805747833291
 20
257.8724573789483
 30
0.0
 10
-30.58351083652909
 20
257.5804853439611
 30
0.0
 10
-30.17733381086541
 20
257.5804853439611
 30
0.0
 10
-29.96580480852656
 20
257.5804853439611
 30
0.0
 10
-29.82627834932912
 20
257.631300535891
 30
0.0
 10
-29.72051384815969
 20
257.6778093556235
 30
0.0
 10
-29.72051384815969
 20
257.6778093556235
 30
0.0
 10
-29.6569517945253
 20
257.3984119274528
 30
0.0
 10
-29.6569517945253
 20
257.3984119274528
 30
0.0
  0
SPLINE
  5
F2
330
D9
100
AcDbEntity
  8
F_BASE
 62
     7
100
AcDbSpline
210
0.0
220
0.0
230
1.0
 70
    11
 71
     3
 72
    47
 73
    43
 74
     0
 42
0.0000000001
 43
0.0000000001
 40
0.0
 40
0.0
 40
0.0
 40
0.0
 40
1.0
 40
1.0
 40
1.0
 40
2.0
 40
2.0
 40
2.0
 40
3.0
 40
3.0
 40
3.0
 40
4.0
 40
4.0
 40
4.0
 40
5.0
 40
5.0
 40
5.0
 40
6.0
 40
6.0
 40
6.0
 40
7.0
 40
7.0
 40
7.0
 40
8.0
 40
8.0
 40
8.0
 40
9.0
 40
9.0
 40
9.0
 40
10.0
 40
10.0
 40
10.0
 40
11.0
 40
11.0
 40
11.0
 40
12.0
 40
12.0
 40
12.0
 40
13.0
 40
13.0
 40
13.0
 40
14.0
 40
14.0
 40
14.0
 40
14.0
 10
-27.78161282997885
 20
257.8173358148209
 30
0.0
 10
-27.78161282997885
 20
257.6395687705101
 30
0.0
 10
-27.77300008558395
 20
257.4662803532846
 30
0.0
 10
-27.75198498926038
 20
257.3265816391993
 30
0.0
 10
-27.75198498926038
 20
257.3265816391993
 30
0.0
 10
-28.08615947178266
 20
257.3265816391993
 30
0.0
 10
-28.08615947178266
 20
257.3265816391993
 30
0.0
 10
-28.08615947178266
 20
257.3265816391993
 30
0.0
 10
-28.11578731250114
 20
257.5847917161585
 30
0.0
 10
-28.11578731250114
 20
257.5847917161585
 30
0.0
 10
-28.11578731250114
 20
257.5847917161585
 30
0.0
 10
-28.12853417420559
 20
257.5847917161585
 30
0.0
 10
-28.12853417420559
 20
257.5847917161585
 30
0.0
 10
-28.24273916488202
 20
257.4239056508617
 30
0.0
 10
-28.46270865672788
 20
257.2800728194668
 30
0.0
 10
-28.75468069171513
 20
257.2800728194668
 30
0.0
 10
-29.16929820688582
 20
257.2800728194668
 30
0.0
 10
-29.38082720922467
 20
257.572044854454
 30
0.0
 10
-29.38082720922467
 20
257.8681510067508
 30
0.0
 10
-29.38082720922467
 20
258.3632115545699
 30
0.0
 10
-28.94088822553296
 20
258.6339962383457
 30
0.0
 10
-28.14954927052916
 20
258.6296898661483
 30
0.0
 10
-28.14954927052916
 20
258.6296898661483
 30
0.0
 10
-28.14954927052916
 20
258.6720645685712
 30
0.0
 10
-28.14954927052916
 20
258.6720645685712
 30
0.0
 10
-28.14954927052916
 20
258.8370847511776
 30
0.0
 10
-28.19623034514954
 20
259.1459377651789
 30
0.0
 10
-28.61498197762979
 20
259.1416313929814
 30
0.0
 10
-28.80963000095462
 20
259.1416313929814
 30
0.0
 10
-29.00858439647691
 20
259.0866820837419
 30
0.0
 10
-29.15241722787181
 20
258.9893580720795
 30
0.0
 10
-29.15241722787181
 20
258.9893580720795
 30
0.0
 10
-29.23699437782977
 20
259.2389554046438
 30
0.0
 10
-29.23699437782977
 20
259.2389554046438
 30
0.0
 10
-29.06766782302595
 20
259.3448921607011
 30
0.0
 10
-28.81824274534953
 20
259.4167224489547
 30
0.0
 10
-28.5600326683903
 20
259.4167224489547
 30
0.0
 10
-27.93388615088076
 20
259.4167224489547
 30
0.0
 10
-27.78161282997885
 20
258.9893580720795
 30
0.0
 10
-27.78161282997885
 20
258.5831810464158
 30
0.0
 10
-27.78161282997885
 20
258.5831810464158
 30
0.0
 10
-27.78161282997885
 20
257.8173358148209
 30
0.0
 10
-27.78161282997885
 20
257.8173358148209
 30
0.0
  0
SPLINE
  5
F3
330
D9
100
AcDbEntity
  8
F_BASE
 62
     7
100
AcDbSpline
210
0.0
220
0.0
230
1.0
 70
    11
 71
     3
 72
    20
 73
    16
 74
     0
 42
0.0000000001
 43
0.0000000001
 40
0.0
 40
0.0
 40
0.0
 40
0.0
 40
1.0
 40
1.0
 40
1.0
 40
2.0
 40
2.0
 40
2.0
 40
3.0
 40
3.0
 40
3.0
 40
4.0
 40
4.0
 40
4.0
 40
5.0
 40
5.0
 40
5.0
 40
5.0
 10
-28.14128103591005
 20
258.3716520440769
 30
0.0
 10
-28.54745806157374
 20
258.3800925335839
 30
0.0
 10
-29.00858439647691
 20
258.3082622453305
 30
0.0
 10
-29.00858439647691
 20
257.9103534542859
 30
0.0
 10
-29.00858439647691
 20
257.665062493919
 30
0.0
 10
-28.84787058606799
 20
257.55516387544
 30
0.0
 10
-28.66149079736227
 20
257.55516387544
 30
0.0
 10
-28.39070611358648
 20
257.55516387544
 30
0.0
 10
-28.21741769636101
 20
257.724318175356
 30
0.0
 10
-28.15816201492406
 20
257.8977788474693
 30
0.0
 10
-28.14541515321961
 20
257.9399812950044
 30
0.0
 10
-28.14128103591005
 20
257.9823559974273
 30
0.0
 10
-28.14128103591005
 20
258.0161179554553
 30
0.0
 10
-28.14128103591005
 20
258.0161179554553
 30
0.0
 10
-28.14128103591005
 20
258.3716520440769
 30
0.0
 10
-28.14128103591005
 20
258.3716520440769
 30
0.0
  0
SPLINE
  5
F4
330
D9
100
AcDbEntity
  8
F_BASE
 62
     7
100
AcDbSpline
210
0.0
220
0.0
230
1.0
 70
    11
 71
     3
 72
    41
 73
    37
 74
     0
 42
0.0000000001
 43
0.0000000001
 40
0.0
 40
0.0
 40
0.0
 40
0.0
 40
1.0
 40
1.0
 40
1.0
 40
2.0
 40
2.0
 40
2.0
 40
3.0
 40
3.0
 40
3.0
 40
4.0
 40
4.0
 40
4.0
 40
5.0
 40
5.0
 40
5.0
 40
6.0
 40
6.0
 40
6.0
 40
7.0
 40
7.0
 40
7.0
 40
8.0
 40
8.0
 40
8.0
 40
9.0
 40
9.0
 40
9.0
 40
10.0
 40
10.0
 40
10.0
 40
11.0
 40
11.0
 40
11.0
 40
12.0
 40
12.0
 40
12.0
 40
12.0
 10
-27.17975425166295
 20
258.7058265265993
 30
0.0
 10
-27.17975425166295
 20
258.968170720868
 30
0.0
 10
-27.18802248628205
 20
259.1798719780948
 30
0.0
 10
-27.19663523067696
 20
259.3743477465317
 30
0.0
 10
-27.19663523067696
 20
259.3743477465317
 30
0.0
 10
-26.86659486546423
 20
259.3743477465317
 30
0.0
 10
-26.86659486546423
 20
259.3743477465317
 30
0.0
 10
-26.86659486546423
 20
259.3743477465317
 30
0.0
 10
-26.84540751425276
 20
259.0231200301075
 30
0.0
 10
-26.84540751425276
 20
259.0231200301075
 30
0.0
 10
-26.84540751425276
 20
259.0231200301075
 30
0.0
 10
-26.83696702474576
 20
259.0231200301075
 30
0.0
 10
-26.83696702474576
 20
259.0231200301075
 30
0.0
 10
-26.6888278211534
 20
259.2728896175597
 30
0.0
 10
-26.44353686078653
 20
259.4167224489547
 30
0.0
 10
-26.10919012337635
 20
259.4167224489547
 30
0.0
 10
-25.6099954582477
 20
259.4167224489547
 30
0.0
 10
-25.23758039061204
 20
258.9977985615865
 30
0.0
 10
-25.23758039061204
 20
258.3800925335839
 30
0.0
 10
-25.23758039061204
 20
257.6438751427075
 30
0.0
 10
-25.69043849089611
 20
257.2800728194668
 30
0.0
 10
-26.17275217701074
 20
257.2800728194668
 30
0.0
 10
-26.44353686078653
 20
257.2800728194668
 30
0.0
 10
-26.6803873316464
 20
257.3984119274528
 30
0.0
 10
-26.80320506671773
 20
257.6016726951725
 30
0.0
 10
-26.80320506671773
 20
257.6016726951725
 30
0.0
 10
-26.81147330133684
 20
257.6016726951725
 30
0.0
 10
-26.81147330133684
 20
257.6016726951725
 30
0.0
 10
-26.81147330133684
 20
257.6016726951725
 30
0.0
 10
-26.81147330133684
 20
256.4889061193509
 30
0.0
 10
-26.81147330133684
 20
256.4889061193509
 30
0.0
 10
-26.81147330133684
 20
256.4889061193509
 30
0.0
 10
-27.17975425166295
 20
256.4889061193509
 30
0.0
 10
-27.17975425166295
 20
256.4889061193509
 30
0.0
 10
-27.17975425166295
 20
256.4889061193509
 30
0.0
 10
-27.17975425166295
 20
258.7058265265993
 30
0.0
 10
-27.17975425166295
 20
258.7058265265993
 30
0.0
  0
SPLINE
  5
F5
330
D9
100
AcDbEntity
  8
F_BASE
 62
     7
100
AcDbSpline
210
0.0
220
0.0
230
1.0
 70
    11
 71
     3
 72
    26
 73
    22
 74
     0
 42
0.0000000001
 43
0.0000000001
 40
0.0
 40
0.0
 40
0.0
 40
0.0
 40
1.0
 40
1.0
 40
1.0
 40
2.0
 40
2.0
 40
2.0
 40
3.0
 40
3.0
 40
3.0
 40
4.0
 40
4.0
 40
4.0
 40
5.0
 40
5.0
 40
5.0
 40
6.0
 40
6.0
 40
6.0
 40
7.0
 40
7.0
 40
7.0
 40
7.0
 10
-26.81147330133684
 20
258.1601230417381
 30
0.0
 10
-26.81147330133684
 20
258.1050014776107
 30
0.0
 10
-26.80733918402728
 20
258.0543585405687
 30
0.0
 10
-26.79459232232283
 20
258.0078497208362
 30
0.0
 10
-26.72689615137888
 20
257.7496396438769
 30
0.0
 10
-26.50279254222347
 20
257.572044854454
 30
0.0
 10
-26.23614197575724
 20
257.572044854454
 30
0.0
 10
-25.84271181179802
 20
257.572044854454
 30
0.0
 10
-25.61430183044515
 20
257.8934724752719
 30
0.0
 10
-25.61430183044515
 20
258.3632115545699
 30
0.0
 10
-25.61430183044515
 20
258.7693885802336
 30
0.0
 10
-25.82996495009355
 20
259.1206162966578
 30
0.0
 10
-26.22339511405278
 20
259.1206162966578
 30
0.0
 10
-26.47729881881456
 20
259.1206162966578
 30
0.0
 10
-26.71845566187188
 20
258.942849252347
 30
0.0
 10
-26.78615183281582
 20
258.6636240790642
 30
0.0
 10
-26.79889869452028
 20
258.6169430044438
 30
0.0
 10
-26.81147330133684
 20
258.5619936952044
 30
0.0
 10
-26.81147330133684
 20
258.5154848754718
 30
0.0
 10
-26.81147330133684
 20
258.5154848754718
 30
0.0
 10
-26.81147330133684
 20
258.1601230417381
 30
0.0
 10
-26.81147330133684
 20
258.1601230417381
 30
0.0
  0
SPLINE
  5
F6
330
D9
100
AcDbEntity
  8
F_BASE
 62
     7
100
AcDbSpline
210
0.0
220
0.0
230
1.0
 70
    11
 71
     3
 72
    17
 73
    13
 74
     0
 42
0.0000000001
 43
0.0000000001
 40
0.0
 40
0.0
 40
0.0
 40
0.0
 40
1.0
 40
1.0
 40
1.0
 40
2.0
 40
2.0
 40
2.0
 40
3.0
 40
3.0
 40
3.0
 40
4.0
 40
4.0
 40
4.0
 40
4.0
 10
-22.91782381528854
 20
258.3675179267674
 30
0.0
 10
-22.91782381528854
 20
257.6099409297916
 30
0.0
 10
-23.44664632113566
 20
257.2800728194668
 30
0.0
 10
-23.9374004967573
 20
257.2800728194668
 30
0.0
 10
-24.48741035381589
 20
257.2800728194668
 30
0.0
 10
-24.91908110288848
 20
257.6862498451305
 30
0.0
 10
-24.91908110288848
 20
258.3335837138515
 30
0.0
 10
-24.91908110288848
 20
259.0148517954884
 30
0.0
 10
-24.46639525749232
 20
259.4167224489547
 30
0.0
 10
-23.90346628384138
 20
259.4167224489547
 30
0.0
 10
-23.31538809655732
 20
259.4167224489547
 30
0.0
 10
-22.91782381528854
 20
258.9893580720795
 30
0.0
 10
-22.91782381528854
 20
258.3675179267674
 30
0.0
  0
SPLINE
  5
F7
330
D9
100
AcDbEntity
  8
F_BASE
 62
     7
100
AcDbSpline
210
0.0
220
0.0
230
1.0
 70
    11
 71
     3
 72
    17
 73
    13
 74
     0
 42
0.0000000001
 43
0.0000000001
 40
0.0
 40
0.0
 40
0.0
 40
0.0
 40
1.0
 40
1.0
 40
1.0
 40
2.0
 40
2.0
 40
2.0
 40
3.0
 40
3.0
 40
3.0
 40
4.0
 40
4.0
 40
4.0
 40
4.0
 10
-24.53822554574582
 20
258.3461583206681
 30
0.0
 10
-24.53822554574582
 20
257.8977788474693
 30
0.0
 10
-24.28432184098405
 20
257.5592979927496
 30
0.0
 10
-23.92051951774329
 20
257.5592979927496
 30
0.0
 10
-23.56515768400954
 20
257.5592979927496
 30
0.0
 10
-23.29850711754331
 20
257.8934724752719
 30
0.0
 10
-23.29850711754331
 20
258.3547710650629
 30
0.0
 10
-23.29850711754331
 20
258.7016924092897
 30
0.0
 10
-23.47196778965668
 20
259.1374972756718
 30
0.0
 10
-23.91207902823628
 20
259.1374972756718
 30
0.0
 10
-24.34788389461844
 20
259.1374972756718
 30
0.0
 10
-24.53822554574582
 20
258.7313202500081
 30
0.0
 10
-24.53822554574582
 20
258.3461583206681
 30
0.0
  0
SPLINE
  5
F8
330
D9
100
AcDbEntity
  8
F_BASE
 62
     7
100
AcDbSpline
210
0.0
220
0.0
230
1.0
 70
    11
 71
     3
 72
    56
 73
    52
 74
     0
 42
0.0000000001
 43
0.0000000001
 40
0.0
 40
0.0
 40
0.0
 40
0.0
 40
1.0
 40
1.0
 40
1.0
 40
2.0
 40
2.0
 40
2.0
 40
3.0
 40
3.0
 40
3.0
 40
4.0
 40
4.0
 40
4.0
 40
5.0
 40
5.0
 40
5.0
 40
6.0
 40
6.0
 40
6.0
 40
7.0
 40
7.0
 40
7.0
 40
8.0
 40
8.0
 40
8.0
 40
9.0
 40
9.0
 40
9.0
 40
10.0
 40
10.0
 40
10.0
 40
11.0
 40
11.0
 40
11.0
 40
12.0
 40
12.0
 40
12.0
 40
13.0
 40
13.0
 40
13.0
 40
14.0
 40
14.0
 40
14.0
 40
15.0
 40
15.0
 40
15.0
 40
16.0
 40
16.0
 40
16.0
 40
17.0
 40
17.0
 40
17.0
 40
17.0
 10
-21.99832722368857
 20
259.8651019221534
 30
0.0
 10
-21.99832722368857
 20
259.8651019221534
 30
0.0
 10
-21.99832722368857
 20
259.3743477465317
 30
0.0
 10
-21.99832722368857
 20
259.3743477465317
 30
0.0
 10
-21.99832722368857
 20
259.3743477465317
 30
0.0
 10
-21.46537060053189
 20
259.3743477465317
 30
0.0
 10
-21.46537060053189
 20
259.3743477465317
 30
0.0
 10
-21.46537060053189
 20
259.3743477465317
 30
0.0
 10
-21.46537060053189
 20
259.0909884559393
 30
0.0
 10
-21.46537060053189
 20
259.0909884559393
 30
0.0
 10
-21.46537060053189
 20
259.0909884559393
 30
0.0
 10
-21.99832722368857
 20
259.0909884559393
 30
0.0
 10
-21.99832722368857
 20
259.0909884559393
 30
0.0
 10
-21.99832722368857
 20
259.0909884559393
 30
0.0
 10
-21.99832722368857
 20
257.9866623696248
 30
0.0
 10
-21.99832722368857
 20
257.9866623696248
 30
0.0
 10
-21.99832722368857
 20
257.732758664863
 30
0.0
 10
-21.92649693543506
 20
257.5889258334681
 30
0.0
 10
-21.71910205040577
 20
257.5889258334681
 30
0.0
 10
-21.6176439214338
 20
257.5889258334681
 30
0.0
 10
-21.55838823999686
 20
257.5973663229751
 30
0.0
 10
-21.50326667586947
 20
257.6142473019891
 30
0.0
 10
-21.50326667586947
 20
257.6142473019891
 30
0.0
 10
-21.48638569685546
 20
257.3308880113967
 30
0.0
 10
-21.48638569685546
 20
257.3308880113967
 30
0.0
 10
-21.55838823999686
 20
257.3053942879878
 30
0.0
 10
-21.67259323067329
 20
257.2800728194668
 30
0.0
 10
-21.81642606206819
 20
257.2800728194668
 30
0.0
 10
-21.98988673418156
 20
257.2800728194668
 30
0.0
 10
-22.1295854482669
 20
257.3391562460158
 30
0.0
 10
-22.21846897042232
 20
257.4366525125661
 30
0.0
 10
-22.31992709939429
 20
257.5508575032426
 30
0.0
 10
-22.36212954692932
 20
257.732758664863
 30
0.0
 10
-22.36212954692932
 20
257.9739155079203
 30
0.0
 10
-22.36212954692932
 20
257.9739155079203
 30
0.0
 10
-22.36212954692932
 20
259.0909884559393
 30
0.0
 10
-22.36212954692932
 20
259.0909884559393
 30
0.0
 10
-22.36212954692932
 20
259.0909884559393
 30
0.0
 10
-22.67959530532549
 20
259.0909884559393
 30
0.0
 10
-22.67959530532549
 20
259.0909884559393
 30
0.0
 10
-22.67959530532549
 20
259.0909884559393
 30
0.0
 10
-22.67959530532549
 20
259.3743477465317
 30
0.0
 10
-22.67959530532549
 20
259.3743477465317
 30
0.0
 10
-22.67959530532549
 20
259.3743477465317
 30
0.0
 10
-22.36212954692932
 20
259.3743477465317
 30
0.0
 10
-22.36212954692932
 20
259.3743477465317
 30
0.0
 10
-22.36212954692932
 20
259.3743477465317
 30
0.0
 10
-22.36212954692932
 20
259.7552033036744
 30
0.0
 10
-22.36212954692932
 20
259.7552033036744
 30
0.0
 10
-22.36212954692932
 20
259.7552033036744
 30
0.0
 10
-21.99832722368857
 20
259.8651019221534
 30
0.0
 10
-21.99832722368857
 20
259.8651019221534
 30
0.0
  0
SPLINE
  5
F9
330
D9
100
AcDbEntity
  8
F_BASE
 62
     7
100
AcDbSpline
210
0.0
220
0.0
230
1.0
 70
    11
 71
     3
 72
    41
 73
    37
 74
     0
 42
0.0000000001
 43
0.0000000001
 40
0.0
 40
0.0
 40
0.0
 40
0.0
 40
1.0
 40
1.0
 40
1.0
 40
2.0
 40
2.0
 40
2.0
 40
3.0
 40
3.0
 40
3.0
 40
4.0
 40
4.0
 40
4.0
 40
5.0
 40
5.0
 40
5.0
 40
6.0
 40
6.0
 40
6.0
 40
7.0
 40
7.0
 40
7.0
 40
8.0
 40
8.0
 40
8.0
 40
9.0
 40
9.0
 40
9.0
 40
10.0
 40
10.0
 40
10.0
 40
11.0
 40
11.0
 40
11.0
 40
12.0
 40
12.0
 40
12.0
 40
12.0
 10
-20.14830972766314
 20
260.330534629254
 30
0.0
 10
-20.14830972766314
 20
260.330534629254
 30
0.0
 10
-19.78020103222493
 20
260.330534629254
 30
0.0
 10
-19.78020103222493
 20
260.330534629254
 30
0.0
 10
-19.78020103222493
 20
260.330534629254
 30
0.0
 10
-19.78020103222493
 20
259.0444796362069
 30
0.0
 10
-19.78020103222493
 20
259.0444796362069
 30
0.0
 10
-19.78020103222493
 20
259.0444796362069
 30
0.0
 10
-19.77176054271793
 20
259.0444796362069
 30
0.0
 10
-19.77176054271793
 20
259.0444796362069
 30
0.0
 10
-19.64050231813959
 20
259.2728896175597
 30
0.0
 10
-19.40365184727972
 20
259.4167224489547
 30
0.0
 10
-19.07361148206699
 20
259.4167224489547
 30
0.0
 10
-18.56166995523388
 20
259.4167224489547
 30
0.0
 10
-18.20630812150014
 20
258.993492189389
 30
0.0
 10
-18.20630812150014
 20
258.3757861613865
 30
0.0
 10
-18.20630812150014
 20
257.6438751427075
 30
0.0
 10
-18.67174082860076
 20
257.2800728194668
 30
0.0
 10
-19.12856079130648
 20
257.2800728194668
 30
0.0
 10
-19.42483919849118
 20
257.2800728194668
 30
0.0
 10
-19.66168966935105
 20
257.3942778101433
 30
0.0
 10
-19.81826936245041
 20
257.6609283766094
 30
0.0
 10
-19.81826936245041
 20
257.6609283766094
 30
0.0
 10
-19.82670985195741
 20
257.6609283766094
 30
0.0
 10
-19.82670985195741
 20
257.6609283766094
 30
0.0
 10
-19.82670985195741
 20
257.6609283766094
 30
0.0
 10
-19.84789720316888
 20
257.3265816391993
 30
0.0
 10
-19.84789720316888
 20
257.3265816391993
 30
0.0
 10
-19.84789720316888
 20
257.3265816391993
 30
0.0
 10
-20.16519070667715
 20
257.3265816391993
 30
0.0
 10
-20.16519070667715
 20
257.3265816391993
 30
0.0
 10
-20.15675021717015
 20
257.4662803532846
 30
0.0
 10
-20.14830972766314
 20
257.673502983426
 30
0.0
 10
-20.14830972766314
 20
257.8555763999343
 30
0.0
 10
-20.14830972766314
 20
257.8555763999343
 30
0.0
 10
-20.14830972766314
 20
260.330534629254
 30
0.0
 10
-20.14830972766314
 20
260.330534629254
 30
0.0
  0
SPLINE
  5
FA
330
D9
100
AcDbEntity
  8
F_BASE
 62
     7
100
AcDbSpline
210
0.0
220
0.0
230
1.0
 70
    11
 71
     3
 72
    26
 73
    22
 74
     0
 42
0.0000000001
 43
0.0000000001
 40
0.0
 40
0.0
 40
0.0
 40
0.0
 40
1.0
 40
1.0
 40
1.0
 40
2.0
 40
2.0
 40
2.0
 40
3.0
 40
3.0
 40
3.0
 40
4.0
 40
4.0
 40
4.0
 40
5.0
 40
5.0
 40
5.0
 40
6.0
 40
6.0
 40
6.0
 40
7.0
 40
7.0
 40
7.0
 40
7.0
 10
-19.78020103222493
 20
258.1473761800336
 30
0.0
 10
-19.78020103222493
 20
258.1008673603012
 30
0.0
 10
-19.77589466002748
 20
258.0543585405687
 30
0.0
 10
-19.76332005321092
 20
258.0119838381457
 30
0.0
 10
-19.69562388226697
 20
257.7539460160745
 30
0.0
 10
-19.47548213553322
 20
257.5761789717636
 30
0.0
 10
-19.20469745175743
 20
257.5761789717636
 30
0.0
 10
-18.81126728779821
 20
257.5761789717636
 30
0.0
 10
-18.58285730644535
 20
257.8934724752719
 30
0.0
 10
-18.58285730644535
 20
258.3632115545699
 30
0.0
 10
-18.58285730644535
 20
258.7736949524311
 30
0.0
 10
-18.79438630878419
 20
259.1247504139674
 30
0.0
 10
-19.19642921713832
 20
259.1247504139674
 30
0.0
 10
-19.44585429481475
 20
259.1247504139674
 30
0.0
 10
-19.68287702056251
 20
258.9469833696566
 30
0.0
 10
-19.75901368101347
 20
258.6679304512617
 30
0.0
 10
-19.77176054271793
 20
258.6212493766413
 30
0.0
 10
-19.78020103222493
 20
258.5704341847114
 30
0.0
 10
-19.78020103222493
 20
258.5111785032744
 30
0.0
 10
-19.78020103222493
 20
258.5111785032744
 30
0.0
 10
-19.78020103222493
 20
258.1473761800336
 30
0.0
 10
-19.78020103222493
 20
258.1473761800336
 30
0.0
  0
SPLINE
  5
FB
330
D9
100
AcDbEntity
  8
F_BASE
 62
     7
100
AcDbSpline
210
0.0
220
0.0
230
1.0
 70
    11
 71
     3
 72
    47
 73
    43
 74
     0
 42
0.0000000001
 43
0.0000000001
 40
0.0
 40
0.0
 40
0.0
 40
0.0
 40
1.0
 40
1.0
 40
1.0
 40
2.0
 40
2.0
 40
2.0
 40
3.0
 40
3.0
 40
3.0
 40
4.0
 40
4.0
 40
4.0
 40
5.0
 40
5.0
 40
5.0
 40
6.0
 40
6.0
 40
6.0
 40
7.0
 40
7.0
 40
7.0
 40
8.0
 40
8.0
 40
8.0
 40
9.0
 40
9.0
 40
9.0
 40
10.0
 40
10.0
 40
10.0
 40
11.0
 40
11.0
 40
11.0
 40
12.0
 40
12.0
 40
12.0
 40
13.0
 40
13.0
 40
13.0
 40
14.0
 40
14.0
 40
14.0
 40
14.0
 10
-16.30099680645942
 20
257.8173358148209
 30
0.0
 10
-16.30099680645942
 20
257.6395687705101
 30
0.0
 10
-16.29255631695242
 20
257.4662803532846
 30
0.0
 10
-16.27136896574095
 20
257.3265816391993
 30
0.0
 10
-16.27136896574095
 20
257.3265816391993
 30
0.0
 10
-16.60571570315113
 20
257.3265816391993
 30
0.0
 10
-16.60571570315113
 20
257.3265816391993
 30
0.0
 10
-16.60571570315113
 20
257.3265816391993
 30
0.0
 10
-16.63534354386961
 20
257.5847917161585
 30
0.0
 10
-16.63534354386961
 20
257.5847917161585
 30
0.0
 10
-16.63534354386961
 20
257.5847917161585
 30
0.0
 10
-16.64809040557406
 20
257.5847917161585
 30
0.0
 10
-16.64809040557406
 20
257.5847917161585
 30
0.0
 10
-16.76212314136259
 20
257.4239056508617
 30
0.0
 10
-16.98226488809635
 20
257.2800728194668
 30
0.0
 10
-17.2740646681957
 20
257.2800728194668
 30
0.0
 10
-17.68885443825429
 20
257.2800728194668
 30
0.0
 10
-17.90038344059314
 20
257.572044854454
 30
0.0
 10
-17.90038344059314
 20
257.8681510067508
 30
0.0
 10
-17.90038344059314
 20
258.3632115545699
 30
0.0
 10
-17.46044445690143
 20
258.6339962383457
 30
0.0
 10
-16.66910550189763
 20
258.6296898661483
 30
0.0
 10
-16.66910550189763
 20
258.6296898661483
 30
0.0
 10
-16.66910550189763
 20
258.6720645685712
 30
0.0
 10
-16.66910550189763
 20
258.6720645685712
 30
0.0
 10
-16.66910550189763
 20
258.8370847511776
 30
0.0
 10
-16.71561432163011
 20
259.1459377651789
 30
0.0
 10
-17.13453820899825
 20
259.1416313929814
 30
0.0
 10
-17.32918623232309
 20
259.1416313929814
 30
0.0
 10
-17.52796837295748
 20
259.0866820837419
 30
0.0
 10
-17.67197345924028
 20
258.9893580720795
 30
0.0
 10
-17.67197345924028
 20
258.9893580720795
 30
0.0
 10
-17.75637835431034
 20
259.2389554046438
 30
0.0
 10
-17.75637835431034
 20
259.2389554046438
 30
0.0
 10
-17.58722405439442
 20
259.3448921607011
 30
0.0
 10
-17.33762672183009
 20
259.4167224489547
 30
0.0
 10
-17.07941664487087
 20
259.4167224489547
 30
0.0
 10
-16.45327012736133
 20
259.4167224489547
 30
0.0
 10
-16.30099680645942
 20
258.9893580720795
 30
0.0
 10
-16.30099680645942
 20
258.5831810464158
 30
0.0
 10
-16.30099680645942
 20
258.5831810464158
 30
0.0
 10
-16.30099680645942
 20
257.8173358148209
 30
0.0
 10
-16.30099680645942
 20
257.8173358148209
 30
0.0
  0
SPLINE
  5
FC
330
D9
100
AcDbEntity
  8
F_BASE
 62
     7
100
AcDbSpline
210
0.0
220
0.0
230
1.0
 70
    11
 71
     3
 72
    20
 73
    16
 74
     0
 42
0.0000000001
 43
0.0000000001
 40
0.0
 40
0.0
 40
0.0
 40
0.0
 40
1.0
 40
1.0
 40
1.0
 40
2.0
 40
2.0
 40
2.0
 40
3.0
 40
3.0
 40
3.0
 40
4.0
 40
4.0
 40
4.0
 40
5.0
 40
5.0
 40
5.0
 40
5.0
 10
-16.66066501239062
 20
258.3716520440769
 30
0.0
 10
-17.06684203805431
 20
258.3800925335839
 30
0.0
 10
-17.52796837295748
 20
258.3082622453305
 30
0.0
 10
-17.52796837295748
 20
257.9103534542859
 30
0.0
 10
-17.52796837295748
 20
257.665062493919
 30
0.0
 10
-17.36725456254857
 20
257.55516387544
 30
0.0
 10
-17.18104702873074
 20
257.55516387544
 30
0.0
 10
-16.91026234495495
 20
257.55516387544
 30
0.0
 10
-16.73680167284158
 20
257.724318175356
 30
0.0
 10
-16.67754599140464
 20
257.8977788474693
 30
0.0
 10
-16.66497138458807
 20
257.9399812950044
 30
0.0
 10
-16.66066501239062
 20
257.9823559974273
 30
0.0
 10
-16.66066501239062
 20
258.0161179554553
 30
0.0
 10
-16.66066501239062
 20
258.0161179554553
 30
0.0
 10
-16.66066501239062
 20
258.3716520440769
 30
0.0
 10
-16.66066501239062
 20
258.3716520440769
 30
0.0
  0
SPLINE
  5
FD
330
D9
100
AcDbEntity
  8
F_BASE
 62
     7
100
AcDbSpline
210
0.0
220
0.0
230
1.0
 70
    11
 71
     3
 72
    47
 73
    43
 74
     0
 42
0.0000000001
 43
0.0000000001
 40
0.0
 40
0.0
 40
0.0
 40
0.0
 40
1.0
 40
1.0
 40
1.0
 40
2.0
 40
2.0
 40
2.0
 40
3.0
 40
3.0
 40
3.0
 40
4.0
 40
4.0
 40
4.0
 40
5.0
 40
5.0
 40
5.0
 40
6.0
 40
6.0
 40
6.0
 40
7.0
 40
7.0
 40
7.0
 40
8.0
 40
8.0
 40
8.0
 40
9.0
 40
9.0
 40
9.0
 40
10.0
 40
10.0
 40
10.0
 40
11.0
 40
11.0
 40
11.0
 40
12.0
 40
12.0
 40
12.0
 40
13.0
 40
13.0
 40
13.0
 40
14.0
 40
14.0
 40
14.0
 40
14.0
 10
-15.74995342007345
 20
257.7031308241445
 30
0.0
 10
-15.63557617450912
 20
257.6354346532005
 30
0.0
 10
-15.44110040607219
 20
257.5592979927496
 30
0.0
 10
-15.25489287225436
 20
257.5592979927496
 30
0.0
 10
-14.98824230578812
 20
257.5592979927496
 30
0.0
 10
-14.86146270829513
 20
257.6905562173279
 30
0.0
 10
-14.86146270829513
 20
257.8638446345534
 30
0.0
 10
-14.86146270829513
 20
258.0416116788642
 30
0.0
 10
-14.96722720946456
 20
258.1346293183292
 30
0.0
 10
-15.23801189324034
 20
258.236259702189
 30
0.0
 10
-15.6102547059881
 20
258.3716520440769
 30
0.0
 10
-15.78371537810148
 20
258.5704341847114
 30
0.0
 10
-15.78371537810148
 20
258.8158973999661
 30
0.0
 10
-15.78371537810148
 20
259.1459377651789
 30
0.0
 10
-15.51293069432569
 20
259.4167224489547
 30
0.0
 10
-15.07712582794353
 20
259.4167224489547
 30
0.0
 10
-14.86990319780214
 20
259.4167224489547
 30
0.0
 10
-14.68782978129386
 20
259.3617731397151
 30
0.0
 10
-14.57793116281488
 20
259.2897705965738
 30
0.0
 10
-14.57793116281488
 20
259.2897705965738
 30
0.0
 10
-14.6668146849703
 20
259.018985912798
 30
0.0
 10
-14.6668146849703
 20
259.018985912798
 30
0.0
 10
-14.7470854627308
 20
259.0698011047279
 30
0.0
 10
-14.89522466632316
 20
259.1416313929814
 30
0.0
 10
-15.08556631745054
 20
259.1416313929814
 30
0.0
 10
-15.30570806418429
 20
259.1416313929814
 30
0.0
 10
-15.42404717217028
 20
259.0148517954884
 30
0.0
 10
-15.42404717217028
 20
258.8624062196986
 30
0.0
 10
-15.42404717217028
 20
258.6930796648948
 30
0.0
 10
-15.30570806418429
 20
258.6169430044438
 30
0.0
 10
-15.03905749771806
 20
258.5111785032744
 30
0.0
 10
-14.68782978129386
 20
258.3800925335839
 30
0.0
 10
-14.50179450236393
 20
258.202497744161
 30
0.0
 10
-14.50179450236393
 20
257.8977788474693
 30
0.0
 10
-14.50179450236393
 20
257.5338042693407
 30
0.0
 10
-14.78515379295628
 20
257.2800728194668
 30
0.0
 10
-15.26333336176136
 20
257.2800728194668
 30
0.0
 10
-15.48760922580467
 20
257.2800728194668
 30
0.0
 10
-15.69483185594606
 20
257.3391562460158
 30
0.0
 10
-15.83883694222886
 20
257.4239056508617
 30
0.0
 10
-15.83883694222886
 20
257.4239056508617
 30
0.0
 10
-15.74995342007345
 20
257.7031308241445
 30
0.0
 10
-15.74995342007345
 20
257.7031308241445
 30
0.0
  0
ENDBLK
  5
DC
330
D9
100
AcDbEntity
  8
0
100
AcDbBlockEnd
  0
ENDSEC
  0
SECTION
  2
ENTITIES
  0
INSERT
  5
40
330
1F
100
AcDbEntity
  8
F_BASE
100
AcDbBlockReference
  2
BLOCK_2
 10
0.0
 20
0.0
 30
0.0
  0
ENDSEC
  0
SECTION
  2
OBJECTS
  0
DICTIONARY
  5
C
330
0
100
AcDbDictionary
  3
ACAD_GROUP
350
D
  3
ACAD_LAYOUT
350
1A
  3
ACAD_MLINESTYLE
350
17
  3
ACAD_PLOTSETTINGS
350
19
  3
ACAD_TABLESTYLE
350
123
  3
ACAD_VISUALSTYLE
350
2A
  3
ACDBHEADERROUNDTRIPXREC
350
103
  0
DICTIONARY
  5
D
102
{ACAD_REACTORS
330
C
102
}
330
C
100
AcDbDictionary
  0
DICTIONARY
  5
1A
102
{ACAD_REACTORS
330
C
102
}
330
C
100
AcDbDictionary
  0
DICTIONARY
  5
17
102
{ACAD_REACTORS
330
C
102
}
330
C
100
AcDbDictionary
  3
STANDARD
350
18
  0
DICTIONARY
  5
19
102
{ACAD_REACTORS
330
C
102
}
330
C
100
AcDbDictionary
  0
DICTIONARY
  5
123
102
{ACAD_REACTORS
330
C
102
}
330
C
100
AcDbDictionary
  0
DICTIONARY
  5
2A
102
{ACAD_REACTORS
330
C
102
}
330
C
100
AcDbDictionary
  3
2DWIREFRAME
350
2F
  3
3D_HIDDEN
350
31
  3
3DWIREFRAME
350
30
  3
BASIC
350
32
  3
BRIGHTEN
350
36
  3
COLORCHANGE
350
3A
  3
CONCEPTUAL
350
34
  3
DIM
350
35
  3
FACEPATTERN
350
39
  3
FLAT
350
2B
  3
FLATWITHEDGES
350
2C
  3
GOURAUD
350
2D
  3
GOURAUDWITHEDGES
350
2E
  3
LINEPATTERN
350
38
  3
REALISTIC
350
33
  3
THICKEN
350
37
  0
DICTIONARY
  5
103
102
{ACAD_REACTORS
330
C
102
}
330
C
100
AcDbDictionary
  3
CEPSNTYPE
350
10C
  3
DIMSTYLEDATA
350
122
  3
FINGERPRINTGUID
350
10D
  3
HYPERLINKBASE
350
106
  3
INSUNITS
350
10B
  3
LAYOUTDICT
350
108
  3
LWETCUNION
350
10A
  3
PLOTSETDICT
350
109
  3
PSVPSCALE
350
10F
  3
PUCSBASE
350
112
  3
PUCSORGBACK
350
118
  3
PUCSORGBOTTOM
350
114
  3
PUCSORGFRONT
350
117
  3
PUCSORGLEFT
350
115
  3
PUCSORGRIGHT
350
116
  3
PUCSORGTOP
350
113
  3
PUCSORTHOREF
350
110
  3
PUCSORTHOVIEW
350
111
  3
STYLESHEET
350
107
  3
TSTACKALIGN
350
104
  3
TSTACKSIZE
350
105
  3
UCSBASE
350
11B
  3
UCSORGBACK
350
121
  3
UCSORGBOTTOM
350
11D
  3
UCSORGFRONT
350
120
  3
UCSORGLEFT
350
11E
  3
UCSORGRIGHT
350
11F
  3
UCSORGTOP
350
11C
  3
UCSORTHOREF
350
119
  3
UCSORTHOVIEW
350
11A
  3
VERSIONGUID
350
10E
  0
MLINESTYLE
  5
18
102
{ACAD_REACTORS
330
17
102
}
330
17
100
AcDbMlineStyle
  2
Standard
 70
     0
  3

 62
   256
 51
90.0
 52
90.0
 71
     2
 49
0.5
 62
   256
  6
BYLAYER
 49
-0.5
 62
   256
  6
BYLAYER
  0
VISUALSTYLE
  5
2F
102
{ACAD_REACTORS
330
2A
102
}
330
2A
100
AcDbVisualStyle
  2
2dWireframe
 70
     4
 71
     0
 72
     2
 73
     0
 90
        0
 40
-0.6
 41
-30.0
 62
     5
 63
     7
 74
     1
 91
        4
 64
     7
 65
   257
 75
     1
175
     1
 42
1.0
 92
        0
 66
   257
 43
1.0
 76
     1
 77
     6
 78
     2
 67
     7
 79
     5
170
     0
171
     0
290
     0
174
     0
 93
        1
 44
0.0
173
     0
291
     0
 45
0.0
1001
ACAD
1000
AcDbSavedByObjectVersion
1070
     0
  0
VISUALSTYLE
  5
31
102
{ACAD_REACTORS
330
2A
102
}
330
2A
100
AcDbVisualStyle
  2
3D Hidden
 70
     6
 71
     1
 72
     2
 73
     2
 90
        0
 40
-0.6
 41
-30.0
 62
     5
 63
     7
 74
     2
 91
        2
 64
     7
 65
   257
 75
     2
175
     1
 42
40.0
 92
        0
 66
   257
 43
1.0
 76
     1
 77
     6
 78
     2
 67
     7
 79
     3
170
     0
171
     0
290
     0
174
     0
 93
        1
 44
0.0
173
     0
291
     0
 45
0.0
1001
ACAD
1000
AcDbSavedByObjectVersion
1070
     0
  0
VISUALSTYLE
  5
30
102
{ACAD_REACTORS
330
2A
102
}
330
2A
100
AcDbVisualStyle
  2
3dWireframe
 70
     5
 71
     0
 72
     2
 73
     0
 90
        0
 40
-0.6
 41
-30.0
 62
     5
 63
     7
 74
     1
 91
        4
 64
     7
 65
   257
 75
     1
175
     1
 42
1.0
 92
        0
 66
   257
 43
1.0
 76
     1
 77
     6
 78
     2
 67
     7
 79
     5
170
     0
171
     0
290
     0
174
     0
 93
        1
 44
0.0
173
     0
291
     0
 45
0.0
1001
ACAD
1000
AcDbSavedByObjectVersion
1070
     0
  0
VISUALSTYLE
  5
32
102
{ACAD_REACTORS
330
2A
102
}
330
2A
100
AcDbVisualStyle
  2
Basic
 70
     7
 71
     1
 72
     0
 73
     1
 90
        0
 40
-0.6
 41
-30.0
 62
     5
 63
     7
 74
     0
 91
        4
 64
     7
 65
   257
 75
     1
175
     1
 42
1.0
 92
        8
 66
     7
 43
1.0
 76
     1
 77
     6
 78
     2
 67
     7
 79
     5
170
     0
171
     0
290
     0
174
     0
 93
        1
 44
0.0
173
     0
291
     1
 45
0.0
1001
ACAD
1000
AcDbSavedByObjectVersion
1070
     0
  0
VISUALSTYLE
  5
36
102
{ACAD_REACTORS
330
2A
102
}
330
2A
100
AcDbVisualStyle
  2
Brighten
 70
    12
 71
     2
 72
     2
 73
     0
 90
        0
 40
-0.6
 41
-30.0
 62
     5
 63
     7
 74
     1
 91
        4
 64
     7
 65
   257
 75
     1
175
     1
 42
1.0
 92
        8
 66
     7
 43
1.0
 76
     1
 77
     6
 78
     2
 67
     7
 79
     5
170
     0
171
     0
290
     0
174
     0
 93
        1
 44
50.0
173
     0
291
     1
 45
0.0
1001
ACAD
1000
AcDbSavedByObjectVersion
1070
     0
  0
VISUALSTYLE
  5
3A
102
{ACAD_REACTORS
330
2A
102
}
330
2A
100
AcDbVisualStyle
  2
ColorChange
 70
    16
 71
     2
 72
     2
 73
     3
 90
        0
 40
-0.6
 41
-30.0
 62
     5
 63
     8
 74
     1
 91
        4
 64
     7
 65
   257
 75
     1
175
     1
 42
1.0
 92
        8
 66
     8
 43
1.0
 76
     1
 77
     6
 78
     2
 67
     7
 79
     5
170
     0
171
     0
290
     0
174
     0
 93
        1
 44
0.0
173
     0
291
     1
 45
0.0
1001
ACAD
1000
AcDbSavedByObjectVersion
1070
     0
  0
VISUALSTYLE
  5
34
102
{ACAD_REACTORS
330
2A
102
}
330
2A
100
AcDbVisualStyle
  2
Conceptual
 70
     9
 71
     3
 72
     2
 73
     0
 90
        0
 40
-0.6
 41
-30.0
 62
     5
 63
     7
 74
     2
 91
        2
 64
     7
 65
   257
 75
     1
175
     1
 42
40.0
 92
        8
 66
     7
 43
1.0
 76
     1
 77
     6
 78
     2
 67
     7
 79
     3
170
     0
171
     0
290
     0
174
     0
 93
        1
 44
0.0
173
     0
291
     0
 45
0.0
1001
ACAD
1000
AcDbSavedByObjectVersion
1070
     0
  0
VISUALSTYLE
  5
35
102
{ACAD_REACTORS
330
2A
102
}
330
2A
100
AcDbVisualStyle
  2
Dim
 70
    11
 71
     2
 72
     2
 73
     0
 90
        0
 40
-0.6
 41
-30.0
 62
     5
 63
     7
 74
     1
 91
        4
 64
     7
 65
   257
 75
     1
175
     1
 42
1.0
 92
        8
 66
     7
 43
1.0
 76
     1
 77
     6
 78
     2
 67
     7
 79
     5
170
     0
171
     0
290
     0
174
     0
 93
        1
 44
-50.0
173
     0
291
     1
 45
0.0
1001
ACAD
1000
AcDbSavedByObjectVersion
1070
     0
  0
VISUALSTYLE
  5
39
102
{ACAD_REACTORS
330
2A
102
}
330
2A
100
AcDbVisualStyle
  2
Facepattern
 70
    15
 71
     2
 72
     2
 73
     0
 90
        0
 40
-0.6
 41
-30.0
 62
     5
 63
     7
 74
     1
 91
        4
 64
     7
 65
   257
 75
     1
175
     1
 42
1.0
 92
        8
 66
     7
 43
1.0
 76
     1
 77
     6
 78
     2
 67
     7
 79
     5
170
     0
171
     0
290
     0
174
     0
 93
        1
 44
0.0
173
     0
291
     1
 45
0.0
1001
ACAD
1000
AcDbSavedByObjectVersion
1070
     0
  0
VISUALSTYLE
  5
2B
102
{ACAD_REACTORS
330
2A
102
}
330
2A
100
AcDbVisualStyle
  2
Flat
 70
     0
 71
     2
 72
     1
 73
     1
 90
        2
 40
-0.6
 41
30.0
 62
     5
 63
     7
 74
     0
 91
        4
 64
     7
 65
   257
 75
     1
175
     1
 42
1.0
 92
        8
 66
     7
 43
1.0
 76
     1
 77
     6
 78
     2
 67
     7
 79
     5
170
     0
171
     0
290
     0
174
     0
 93
       13
 44
0.0
173
     0
291
     1
 45
0.0
1001
ACAD
1000
AcDbSavedByObjectVersion
1070
     0
  0
VISUALSTYLE
  5
2C
102
{ACAD_REACTORS
330
2A
102
}
330
2A
100
AcDbVisualStyle
  2
FlatWithEdges
 70
     1
 71
     2
 72
     1
 73
     1
 90
        2
 40
-0.6
 41
30.0
 62
     5
 63
     7
 74
     1
 91
        4
 64
     7
 65
   257
 75
     1
175
     1
 42
1.0
 92
        0
 66
   257
 43
1.0
 76
     1
 77
     6
 78
     2
 67
     7
 79
     5
170
     0
171
     0
290
     0
174
     0
 93
       13
 44
0.0
173
     0
291
     1
 45
0.0
1001
ACAD
1000
AcDbSavedByObjectVersion
1070
     0
  0
VISUALSTYLE
  5
2D
102
{ACAD_REACTORS
330
2A
102
}
330
2A
100
AcDbVisualStyle
  2
Gouraud
 70
     2
 71
     2
 72
     2
 73
     1
 90
        2
 40
-0.6
 41
30.0
 62
     5
 63
     7
 74
     0
 91
        4
 64
     7
 65
   257
 75
     1
175
     1
 42
1.0
 92
        0
 66
     7
 43
1.0
 76
     1
 77
     6
 78
     2
 67
     7
 79
     5
170
     0
171
     0
290
     0
174
     0
 93
       13
 44
0.0
173
     0
291
     1
 45
0.0
1001
ACAD
1000
AcDbSavedByObjectVersion
1070
     0
  0
VISUALSTYLE
  5
2E
102
{ACAD_REACTORS
330
2A
102
}
330
2A
100
AcDbVisualStyle
  2
GouraudWithEdges
 70
     3
 71
     2
 72
     2
 73
     1
 90
        2
 40
-0.6
 41
30.0
 62
     5
 63
     7
 74
     1
 91
        4
 64
     7
 65
   257
 75
     1
175
     1
 42
1.0
 92
        0
 66
   257
 43
1.0
 76
     1
 77
     6
 78
     2
 67
     7
 79
     5
170
     0
171
     0
290
     0
174
     0
 93
       13
 44
0.0
173
     0
291
     1
 45
0.0
1001
ACAD
1000
AcDbSavedByObjectVersion
1070
     0
  0
VISUALSTYLE
  5
38
102
{ACAD_REACTORS
330
2A
102
}
330
2A
100
AcDbVisualStyle
  2
Linepattern
 70
    14
 71
     2
 72
     2
 73
     0
 90
        0
 40
-0.6
 41
-30.0
 62
     5
 63
     7
 74
     1
 91
        4
 64
     7
 65
   257
 75
     7
175
     7
 42
1.0
 92
        8
 66
     7
 43
1.0
 76
     1
 77
     6
 78
     2
 67
     7
 79
     5
170
     0
171
     0
290
     0
174
     0
 93
        1
 44
0.0
173
     0
291
     1
 45
0.0
1001
ACAD
1000
AcDbSavedByObjectVersion
1070
     0
  0
VISUALSTYLE
  5
33
102
{ACAD_REACTORS
330
2A
102
}
330
2A
100
AcDbVisualStyle
  2
Realistic
 70
     8
 71
     2
 72
     2
 73
     0
 90
        0
 40
-0.6
 41
-30.0
 62
     5
 63
     7
 74
     1
 91
        0
 64
     7
 65
   257
 75
     1
175
     1
 42
1.0
 92
        8
 66
     8
 43
1.0
 76
     1
 77
     6
 78
     2
 67
     7
 79
     5
170
     0
171
     0
290
     0
174
     0
 93
       13
 44
0.0
173
     0
291
     0
 45
0.0
1001
ACAD
1000
AcDbSavedByObjectVersion
1070
     0
  0
VISUALSTYLE
  5
37
102
{ACAD_REACTORS
330
2A
102
}
330
2A
100
AcDbVisualStyle
  2
Thicken
 70
    13
 71
     2
 72
     2
 73
     0
 90
        0
 40
-0.6
 41
-30.0
 62
     5
 63
     7
 74
     1
 91
        4
 64
     7
 65
   257
 75
     1
175
     1
 42
1.0
 92
       12
 66
     7
 43
1.0
 76
     1
 77
     6
 78
     2
 67
     7
 79
     5
170
     0
171
     0
290
     0
174
     0
 93
        1
 44
0.0
173
     0
291
     1
 45
0.0
1001
ACAD
1000
AcDbSavedByObjectVersion
1070
     0
  0
XRECORD
  5
10C
102
{ACAD_REACTORS
330
103
102
}
330
103
100
AcDbXrecord
 90
        0
  0
XRECORD
  5
122
102
{ACAD_REACTORS
330
103
102
}
330
103
100
AcDbXrecord
1000
DSTYLE
1002
{
1070
   340
340
11
1002
}
  0
XRECORD
  5
10D
102
{ACAD_REACTORS
330
103
102
}
330
103
100
AcDbXrecord
  1
{EE6A7564-DA62-448B-AD45-424E4128CB22}
  0
XRECORD
  5
106
102
{ACAD_REACTORS
330
103
102
}
330
103
100
AcDbXrecord
  1

  0
XRECORD
  5
10B
102
{ACAD_REACTORS
330
103
102
}
330
103
100
AcDbXrecord
 90
        1
  0
XRECORD
  5
108
102
{ACAD_REACTORS
330
103
102
}
330
103
100
AcDbXrecord
340
1A
  0
XRECORD
  5
10A
102
{ACAD_REACTORS
330
103
102
}
330
103
100
AcDbXrecord
 90
    10269
  0
XRECORD
  5
109
102
{ACAD_REACTORS
330
103
102
}
330
103
100
AcDbXrecord
340
19
  0
XRECORD
  5
10F
102
{ACAD_REACTORS
330
103
102
}
330
103
100
AcDbXrecord
 40
0.0
  0
XRECORD
  5
112
102
{ACAD_REACTORS
330
103
102
}
330
103
100
AcDbXrecord
340
0
  0
XRECORD
  5
118
102
{ACAD_REACTORS
330
103
102
}
330
103
100
AcDbXrecord
 10
0.0
 20
0.0
 30
0.0
  0
XRECORD
  5
114
102
{ACAD_REACTORS
330
103
102
}
330
103
100
AcDbXrecord
 10
0.0
 20
0.0
 30
0.0
  0
XRECORD
  5
117
102
{ACAD_REACTORS
330
103
102
}
330
103
100
AcDbXrecord
 10
0.0
 20
0.0
 30
0.0
  0
XRECORD
  5
115
102
{ACAD_REACTORS
330
103
102
}
330
103
100
AcDbXrecord
 10
0.0
 20
0.0
 30
0.0
  0
XRECORD
  5
116
102
{ACAD_REACTORS
330
103
102
}
330
103
100
AcDbXrecord
 10
0.0
 20
0.0
 30
0.0
  0
XRECORD
  5
113
102
{ACAD_REACTORS
330
103
102
}
330
103
100
AcDbXrecord
 10
0.0
 20
0.0
 30
0.0
  0
XRECORD
  5
110
102
{ACAD_REACTORS
330
103
102
}
330
103
100
AcDbXrecord
340
0
  0
XRECORD
  5
111
102
{ACAD_REACTORS
330
103
102
}
330
103
100
AcDbXrecord
 70
     0
  0
XRECORD
  5
107
102
{ACAD_REACTORS
330
103
102
}
330
103
100
AcDbXrecord
  1

  0
XRECORD
  5
104
102
{ACAD_REACTORS
330
103
102
}
330
103
100
AcDbXrecord
 90
        1
  0
XRECORD
  5
105
102
{ACAD_REACTORS
330
103
102
}
330
103
100
AcDbXrecord
 90
       70
  0
XRECORD
  5
11B
102
{ACAD_REACTORS
330
103
102
}
330
103
100
AcDbXrecord
340
0
  0
XRECORD
  5
121
102
{ACAD_REACTORS
330
103
102
}
330
103
100
AcDbXrecord
 10
0.0
 20
0.0
 30
0.0
  0
XRECORD
  5
11D
102
{ACAD_REACTORS
330
103
102
}
330
103
100
AcDbXrecord
 10
0.0
 20
0.0
 30
0.0
  0
XRECORD
  5
120
102
{ACAD_REACTORS
330
103
102
}
330
103
100
AcDbXrecord
 10
0.0
 20
0.0
 30
0.0
  0
XRECORD
  5
11E
102
{ACAD_REACTORS
330
103
102
}
330
103
100
AcDbXrecord
 10
0.0
 20
0.0
 30
0.0
  0
XRECORD
  5
11F
102
{ACAD_REACTORS
330
103
102
}
330
103
100
AcDbXrecord
 10
0.0
 20
0.0
 30
0.0
  0
XRECORD
  5
11C
102
{ACAD_REACTORS
330
103
102
}
330
103
100
AcDbXrecord
 10
0.0
 20
0.0
 30
0.0
  0
XRECORD
  5
119
102
{ACAD_REACTORS
330
103
102
}
330
103
100
AcDbXrecord
340
0
  0
XRECORD
  5
11A
102
{ACAD_REACTORS
330
103
102
}
330
103
100
AcDbXrecord
 70
     0
  0
XRECORD
  5
10E
102
{ACAD_REACTORS
330
103
102
}
330
103
100
AcDbXrecord
  1
{FAEB1C32-E019-11D5-929B-00C0DF256EC4}
  0
ENDSEC
  0
EOF
