 0
SECTION
 2
ENTITIES
  0
LINE
 8
F Base plate
10
1466.00762859265
20
211.51912377153
30
0.0
11
1466.48175531843
21
211.425416652361
31
0.0
  0
LINE
 8
F Base plate
10
1462.72454469329
20
151.384869491447
30
0.0
11
1462.96264304266
21
151.896830363822
31
0.0
  0
LINE
 8
F Base plate
10
1462.39829233467
20
150.930803977244
30
0.0
11
1462.72454469329
21
151.384869491447
31
0.0
  0
LINE
 8
F Base plate
10
1459.54732322112
20
155.841609195948
30
0.0
11
1458.99916164458
21
155.676859879683
31
0.0
  0
LINE
 8
F Base plate
10
1458.99916164458
20
155.676859879683
30
0.0
11
1458.50064306683
21
155.4157124775
31
0.0
  0
LINE
 8
F Base plate
10
1457.69654749107
20
154.648191824222
30
0.0
11
1457.41297678477
21
154.163802777551
31
0.0
  0
LINE
 8
F Base plate
10
1458.06277063371
20
155.069159091609
30
0.0
11
1457.69654749107
21
154.648191824222
31
0.0
  0
LINE
 8
F Base plate
10
1458.50064306683
20
155.4157124775
30
0.0
11
1458.06277063371
21
155.069159091609
31
0.0
  0
LINE
 8
F Base plate
10
1461.99488359082
20
150.545636967063
30
0.0
11
1462.39829233467
21
150.930803977244
31
0.0
  0
LINE
 8
F Base plate
10
1457.41297678477
20
154.163802777551
30
0.0
11
1457.22306166065
21
153.626984053805
31
0.0
  0
LINE
 8
F Base plate
10
1457.22306166065
20
153.626984053805
30
0.0
11
1457.13780526457
21
153.048727755197
31
0.0
  0
LINE
 8
F Base plate
10
1457.13780526457
20
153.048727755197
30
0.0
11
1457.16666342499
21
152.455683448518
31
0.0
  0
LINE
 8
F Base plate
10
1457.16666342499
20
152.455683448518
30
0.0
11
1457.30562457832
21
151.896830363822
31
0.0
  0
LINE
 8
F Base plate
10
1457.30562457832
20
151.896830363822
30
0.0
11
1457.54374288676
21
151.384869491447
31
0.0
  0
LINE
 8
F Base plate
10
1457.54374288676
20
151.384869491447
30
0.0
11
1457.87001520446
21
150.930803977244
31
0.0
  0
LINE
 8
F Base plate
10
1457.87001520446
20
150.930803977244
30
0.0
11
1458.27343838557
21
150.545636967063
31
0.0
  0
LINE
 8
F Base plate
10
1458.27343838557
20
150.545636967063
30
0.0
11
1458.74300928424
21
150.240371606755
31
0.0
  0
LINE
 8
F Base plate
10
1458.74300928424
20
150.240371606755
30
0.0
11
1459.26772475462
21
150.026011042169
31
0.0
  0
LINE
 8
F Base plate
10
1459.26772475462
20
150.026011042169
30
0.0
11
1459.83658165086
21
149.913558419156
31
0.0
  0
LINE
 8
F Base plate
10
1459.83658165086
20
149.913558419156
30
0.0
11
1460.43169528819
21
149.913558419156
31
0.0
  0
LINE
 8
F Base plate
10
1460.43169528819
20
149.913558419156
30
0.0
11
1461.00058744355
21
150.026011042169
31
0.0
  0
LINE
 8
F Base plate
10
1461.00058744355
20
150.026011042169
30
0.0
11
1461.52531608577
21
150.240371606755
31
0.0
  0
LINE
 8
F Base plate
10
1461.52531608577
20
150.240371606755
30
0.0
11
1461.99488359082
21
150.545636967063
31
0.0
  0
LINE
 8
F Base plate
10
1460.1341246506
20
155.898968324083
30
0.0
11
1459.54732322112
21
155.841609195948
31
0.0
  0
LINE
 8
F Base plate
10
1462.96264304266
20
151.896830363822
30
0.0
11
1463.10158975873
21
152.455683448518
31
0.0
  0
LINE
 8
F Base plate
10
1463.10158975873
20
152.455683448518
30
0.0
11
1463.13044449677
21
153.048727755197
31
0.0
  0
LINE
 8
F Base plate
10
1463.13044449677
20
153.048727755197
30
0.0
11
1463.04519770636
21
153.626984053805
31
0.0
  0
LINE
 8
F Base plate
10
1463.04519770636
20
153.626984053805
30
0.0
11
1462.85530047063
21
154.163802777551
31
0.0
  0
LINE
 8
F Base plate
10
1462.85530047063
20
154.163802777551
30
0.0
11
1462.57175041364
21
154.648191824222
31
0.0
  0
LINE
 8
F Base plate
10
1462.57175041364
20
154.648191824222
30
0.0
11
1462.2055451594
21
155.069159091609
31
0.0
  0
LINE
 8
F Base plate
10
1462.2055451594
20
155.069159091609
30
0.0
11
1461.76768233194
21
155.4157124775
31
0.0
  0
LINE
 8
F Base plate
10
1461.76768233194
20
155.4157124775
30
0.0
11
1461.2691595553
21
155.676859879683
31
0.0
  0
LINE
 8
F Base plate
10
1461.2691595553
20
155.676859879683
30
0.0
11
1460.72097445351
21
155.841609195948
31
0.0
  0
LINE
 8
F Base plate
10
1460.72097445351
20
155.841609195948
30
0.0
11
1460.1341246506
21
155.898968324083
31
0.0
  0
LINE
 8
F Base plate
10
1367.6108567139
20
143.013269179979
30
0.0
11
1367.02395853754
21
142.955896707447
31
0.0
  0
LINE
 8
F Base plate
10
1367.02395853754
20
142.955896707447
30
0.0
11
1366.4757499105
21
142.791114720416
31
0.0
  0
LINE
 8
F Base plate
10
1366.4757499105
20
142.791114720416
30
0.0
11
1365.97722293498
21
142.529926364737
31
0.0
  0
LINE
 8
F Base plate
10
1365.97722293498
20
142.529926364737
30
0.0
11
1365.53936971319
21
142.183334786261
31
0.0
  0
LINE
 8
F Base plate
10
1365.53936971319
20
142.183334786261
30
0.0
11
1365.17318234734
21
141.762343130838
31
0.0
  0
LINE
 8
F Base plate
10
1365.17318234734
20
141.762343130838
30
0.0
11
1364.88965293965
21
141.277954544317
31
0.0
  0
LINE
 8
F Base plate
10
1364.88965293965
20
141.277954544317
30
0.0
11
1364.69977359232
21
140.741172172551
31
0.0
  0
LINE
 8
F Base plate
10
1364.69977359232
20
140.741172172551
30
0.0
11
1364.61453640757
21
140.162999161388
31
0.0
  0
LINE
 8
F Base plate
10
1364.61453640757
20
140.162999161388
30
0.0
11
1364.64338772324
21
139.569984304414
31
0.0
  0
LINE
 8
F Base plate
10
1364.64338772324
20
139.569984304414
30
0.0
11
1364.78232000205
21
139.011131219718
31
0.0
  0
LINE
 8
F Base plate
10
1364.78232000205
20
139.011131219718
30
0.0
11
1365.02039839234
21
138.499170347343
31
0.0
  0
LINE
 8
F Base plate
10
1365.02039839234
20
138.499170347343
30
0.0
11
1365.34663079188
21
138.04510483314
31
0.0
  0
LINE
 8
F Base plate
10
1365.34663079188
20
138.04510483314
30
0.0
11
1365.75002509848
21
137.659937822959
31
0.0
  0
LINE
 8
F Base plate
10
1365.75002509848
20
137.659937822959
30
0.0
11
1366.21958920991
21
137.35467246265
31
0.0
  0
LINE
 8
F Base plate
10
1366.21958920991
20
137.35467246265
30
0.0
11
1366.74433102397
21
137.140311898064
31
0.0
  0
LINE
 8
F Base plate
10
1366.74433102397
20
137.140311898064
30
0.0
11
1367.31325843845
21
137.027859275051
31
0.0
  0
LINE
 8
F Base plate
10
1367.31325843845
20
137.027859275051
30
0.0
11
1367.90839971364
21
137.027859275051
31
0.0
  0
LINE
 8
F Base plate
10
1367.90839971364
20
137.027859275051
30
0.0
11
1368.47725660987
21
137.140311898064
31
0.0
  0
LINE
 8
F Base plate
10
1368.47725660987
20
137.140311898064
30
0.0
11
1369.00197208025
21
137.35467246265
31
0.0
  0
LINE
 8
F Base plate
10
1369.00197208025
20
137.35467246265
30
0.0
11
1369.47154297892
21
137.659937822959
31
0.0
  0
LINE
 8
F Base plate
10
1369.47154297892
20
137.659937822959
30
0.0
11
1369.87496616003
21
138.04510483314
31
0.0
  0
LINE
 8
F Base plate
10
1369.87496616003
20
138.04510483314
30
0.0
11
1370.20123847773
21
138.499170347343
31
0.0
  0
LINE
 8
F Base plate
10
1370.20123847773
20
138.499170347343
30
0.0
11
1370.43935678617
21
139.011131219718
31
0.0
  0
LINE
 8
F Base plate
10
1370.43935678617
20
139.011131219718
30
0.0
11
1370.5783179395
21
139.569984304414
31
0.0
  0
LINE
 8
F Base plate
10
1370.5783179395
20
139.569984304414
30
0.0
11
1370.60717609992
21
140.162999161388
31
0.0
  0
LINE
 8
F Base plate
10
1370.60717609992
20
140.162999161388
30
0.0
11
1370.52191970384
21
140.741172172551
31
0.0
  0
LINE
 8
F Base plate
10
1370.52191970384
20
140.741172172551
30
0.0
11
1370.33200457972
21
141.277954544317
31
0.0
  0
LINE
 8
F Base plate
10
1370.33200457972
20
141.277954544317
30
0.0
11
1370.04843387342
21
141.762343130838
31
0.0
  0
LINE
 8
F Base plate
10
1370.04843387342
20
141.762343130838
30
0.0
11
1369.68221073079
21
142.183334786261
31
0.0
  0
LINE
 8
F Base plate
10
1369.68221073079
20
142.183334786261
30
0.0
11
1369.24433829767
21
142.529926364737
31
0.0
  0
LINE
 8
F Base plate
10
1369.24433829767
20
142.529926364737
30
0.0
11
1368.74581971991
21
142.791114720416
31
0.0
  0
LINE
 8
F Base plate
10
1368.74581971991
20
142.791114720416
30
0.0
11
1368.19765814337
21
142.955896707447
31
0.0
  0
LINE
 8
F Base plate
10
1368.19765814337
20
142.955896707447
30
0.0
11
1367.6108567139
21
143.013269179979
31
0.0
  0
LINE
 8
F Base plate
10
1362.72966995553
20
216.41865612842
30
0.0
11
1362.24061573822
21
216.370847754198
31
0.0
  0
LINE
 8
F Base plate
10
1362.24061573822
20
216.370847754198
30
0.0
11
1361.78377857735
21
216.233533445217
31
0.0
  0
LINE
 8
F Base plate
10
1361.78377857735
20
216.233533445217
30
0.0
11
1361.36832469344
21
216.015879422009
31
0.0
  0
LINE
 8
F Base plate
10
1361.36832469344
20
216.015879422009
30
0.0
11
1361.00342030704
21
215.727051905105
31
0.0
  0
LINE
 8
F Base plate
10
1361.00342030704
20
215.727051905105
30
0.0
11
1360.69823163867
21
215.376217115036
31
0.0
  0
LINE
 8
F Base plate
10
1360.69823163867
20
215.376217115036
30
0.0
11
1360.46192490886
21
214.972541272334
31
0.0
  0
LINE
 8
F Base plate
10
1360.46192490886
20
214.972541272334
30
0.0
11
1360.30366633815
21
214.525190597528
31
0.0
  0
LINE
 8
F Base plate
10
1360.30366633815
20
214.525190597528
30
0.0
11
1360.23262214706
21
214.043331311151
31
0.0
  0
LINE
 8
F Base plate
10
1360.23262214706
20
214.043331311151
30
0.0
11
1360.25666955637
21
213.549103752826
31
0.0
  0
LINE
 8
F Base plate
10
1360.25666955637
20
213.549103752826
30
0.0
11
1360.37246671484
21
213.083384898515
31
0.0
  0
LINE
 8
F Base plate
10
1360.37246671484
20
213.083384898515
30
0.0
11
1360.57089514266
21
212.656775251804
31
0.0
  0
LINE
 8
F Base plate
10
1360.57089514266
20
212.656775251804
30
0.0
11
1360.84278861932
21
212.278433670796
31
0.0
  0
LINE
 8
F Base plate
10
1360.84278861932
20
212.278433670796
30
0.0
11
1361.17898092427
21
211.957519013598
31
0.0
  0
LINE
 8
F Base plate
10
1361.17898092427
20
211.957519013598
30
0.0
11
1361.57030583699
21
211.703190138314
31
0.0
  0
LINE
 8
F Base plate
10
1361.57030583699
20
211.703190138314
30
0.0
11
1362.00759713694
21
211.524605903048
31
0.0
  0
LINE
 8
F Base plate
10
1362.00759713694
20
211.524605903048
30
0.0
11
1362.4816886036
21
211.430925165907
31
0.0
  0
LINE
 8
F Base plate
10
1362.4816886036
20
211.430925165907
30
0.0
11
1362.97759421031
21
211.430925165907
31
0.0
  0
LINE
 8
F Base plate
10
1362.97759421031
20
211.430925165907
30
0.0
11
1363.45160196772
21
211.524605903048
31
0.0
  0
LINE
 8
F Base plate
10
1363.45160196772
20
211.524605903048
30
0.0
11
1363.88884406979
21
211.703190138314
31
0.0
  0
LINE
 8
F Base plate
10
1363.88884406979
20
211.703190138314
30
0.0
11
1364.28014693358
21
211.957519013598
31
0.0
  0
LINE
 8
F Base plate
10
1364.28014693358
20
211.957519013598
30
0.0
11
1364.61633697612
21
212.278433670796
31
0.0
  0
LINE
 8
F Base plate
10
1364.61633697612
20
212.278433670796
30
0.0
11
1364.88824061446
21
212.656775251804
31
0.0
  0
LINE
 8
F Base plate
10
1364.88824061446
20
212.656775251804
30
0.0
11
1365.08668426563
21
213.083384898515
31
0.0
  0
LINE
 8
F Base plate
10
1365.08668426563
20
213.083384898515
30
0.0
11
1365.20249434669
21
213.549103752826
31
0.0
  0
LINE
 8
F Base plate
10
1365.20249434669
20
213.549103752826
30
0.0
11
1365.22654505375
21
214.043331311151
31
0.0
  0
LINE
 8
F Base plate
10
1365.22654505375
20
214.043331311151
30
0.0
11
1365.15549185136
21
214.525190597528
31
0.0
  0
LINE
 8
F Base plate
10
1365.15549185136
20
214.525190597528
30
0.0
11
1364.99721828737
21
214.972541272334
31
0.0
  0
LINE
 8
F Base plate
10
1364.99721828737
20
214.972541272334
30
0.0
11
1364.76089794475
21
215.376217115036
31
0.0
  0
LINE
 8
F Base plate
10
1364.76089794475
20
215.376217115036
30
0.0
11
1364.45570440644
21
215.727051905105
31
0.0
  0
LINE
 8
F Base plate
10
1364.45570440644
20
215.727051905105
30
0.0
11
1364.09081125541
21
216.015879422009
31
0.0
  0
LINE
 8
F Base plate
10
1364.09081125541
20
216.015879422009
30
0.0
11
1363.67539207461
21
216.233533445217
31
0.0
  0
LINE
 8
F Base plate
10
1363.67539207461
20
216.233533445217
30
0.0
11
1363.21862044699
21
216.370847754198
31
0.0
  0
LINE
 8
F Base plate
10
1363.21862044699
20
216.370847754198
30
0.0
11
1362.72966995553
21
216.41865612842
31
0.0
  0
LINE
 8
F Base plate
10
1370.13404631183
20
155.898968324083
30
0.0
11
1369.54719650892
21
155.841609195948
31
0.0
  0
LINE
 8
F Base plate
10
1369.54719650892
20
155.841609195948
30
0.0
11
1368.99901140712
21
155.676859879683
31
0.0
  0
LINE
 8
F Base plate
10
1368.99901140712
20
155.676859879683
30
0.0
11
1368.50048863049
21
155.4157124775
31
0.0
  0
LINE
 8
F Base plate
10
1368.50048863049
20
155.4157124775
30
0.0
11
1368.06262580303
21
155.069159091609
31
0.0
  0
LINE
 8
F Base plate
10
1368.06262580303
20
155.069159091609
30
0.0
11
1367.69642054879
21
154.648191824222
31
0.0
  0
LINE
 8
F Base plate
10
1367.69642054879
20
154.648191824222
30
0.0
11
1367.41287049179
21
154.163802777551
31
0.0
  0
LINE
 8
F Base plate
10
1367.41287049179
20
154.163802777551
30
0.0
11
1367.22297325607
21
153.626984053805
31
0.0
  0
LINE
 8
F Base plate
10
1367.22297325607
20
153.626984053805
30
0.0
11
1367.13772646565
21
153.048727755197
31
0.0
  0
LINE
 8
F Base plate
10
1367.13772646565
20
153.048727755197
30
0.0
11
1367.1665812037
21
152.455683448518
31
0.0
  0
LINE
 8
F Base plate
10
1367.1665812037
20
152.455683448518
30
0.0
11
1367.30552791977
21
151.896830363822
31
0.0
  0
LINE
 8
F Base plate
10
1367.30552791977
20
151.896830363822
30
0.0
11
1367.54362626913
21
151.384869491447
31
0.0
  0
LINE
 8
F Base plate
10
1367.54362626913
20
151.384869491447
30
0.0
11
1367.86987862776
21
150.930803977244
31
0.0
  0
LINE
 8
F Base plate
10
1367.86987862776
20
150.930803977244
30
0.0
11
1368.27328737161
21
150.545636967063
31
0.0
  0
LINE
 8
F Base plate
10
1368.27328737161
20
150.545636967063
30
0.0
11
1368.74285487666
21
150.240371606755
31
0.0
  0
LINE
 8
F Base plate
10
1368.74285487666
20
150.240371606755
30
0.0
11
1369.26758351888
21
150.026011042169
31
0.0
  0
LINE
 8
F Base plate
10
1369.26758351888
20
150.026011042169
30
0.0
11
1369.83647567423
21
149.913558419156
31
0.0
  0
LINE
 8
F Base plate
10
1369.83647567423
20
149.913558419156
30
0.0
11
1370.43158931157
21
149.913558419156
31
0.0
  0
LINE
 8
F Base plate
10
1370.43158931157
20
149.913558419156
30
0.0
11
1371.0004462078
21
150.026011042169
31
0.0
  0
LINE
 8
F Base plate
10
1371.0004462078
20
150.026011042169
30
0.0
11
1371.52516167818
21
150.240371606755
31
0.0
  0
LINE
 8
F Base plate
10
1371.52516167818
20
150.240371606755
30
0.0
11
1371.99473257685
21
150.545636967063
31
0.0
  0
LINE
 8
F Base plate
10
1371.99473257685
20
150.545636967063
30
0.0
11
1372.39815575796
21
150.930803977244
31
0.0
  0
LINE
 8
F Base plate
10
1372.39815575796
20
150.930803977244
30
0.0
11
1372.72442807566
21
151.384869491447
31
0.0
  0
LINE
 8
F Base plate
10
1372.72442807566
20
151.384869491447
30
0.0
11
1372.9625463841
21
151.896830363822
31
0.0
  0
LINE
 8
F Base plate
10
1372.9625463841
20
151.896830363822
30
0.0
11
1373.10150753743
21
152.455683448518
31
0.0
  0
LINE
 8
F Base plate
10
1373.10150753743
20
152.455683448518
30
0.0
11
1373.13036569785
21
153.048727755197
31
0.0
  0
LINE
 8
F Base plate
10
1373.13036569785
20
153.048727755197
30
0.0
11
1373.04510930177
21
153.626984053805
31
0.0
  0
LINE
 8
F Base plate
10
1373.04510930177
20
153.626984053805
30
0.0
11
1372.85519417766
21
154.163802777551
31
0.0
  0
LINE
 8
F Base plate
10
1372.85519417766
20
154.163802777551
30
0.0
11
1372.57162347135
21
154.648191824222
31
0.0
  0
LINE
 8
F Base plate
10
1372.57162347135
20
154.648191824222
30
0.0
11
1372.20540032872
21
155.069159091609
31
0.0
  0
LINE
 8
F Base plate
10
1372.20540032872
20
155.069159091609
30
0.0
11
1371.7675278956
21
155.4157124775
31
0.0
  0
LINE
 8
F Base plate
10
1371.7675278956
20
155.4157124775
30
0.0
11
1371.26900931784
21
155.676859879683
31
0.0
  0
LINE
 8
F Base plate
10
1371.26900931784
20
155.676859879683
30
0.0
11
1370.7208477413
21
155.841609195948
31
0.0
  0
LINE
 8
F Base plate
10
1370.7208477413
20
155.841609195948
30
0.0
11
1370.13404631183
21
155.898968324083
31
0.0
  0
LINE
 8
F Base plate
10
1569.49823621243
20
188.944346018452
30
0.0
11
1569.49823621243
21
94.6260960224117
31
0.0
  0
LINE
 8
F Base plate
10
1649.47497487929
20
297.944483002153
30
0.0
11
1649.49874605382
21
236.180598142528
31
0.0
  0
LINE
 8
F Base plate
10
1649.49874605382
20
236.180598142528
30
0.0
11
1569.49892523198
21
236.180598142528
31
0.0
  0
LINE
 8
F Base plate
10
1569.49892523198
20
236.180598142528
30
0.0
11
1569.49892523198
21
297.944483002153
31
0.0
  0
LINE
 8
F Base plate
10
1410.21741421594
20
168.416042008085
30
0.0
11
1409.72831162519
21
168.368233633863
31
0.0
  0
LINE
 8
F Base plate
10
1409.72831162519
20
168.368233633863
30
0.0
11
1409.27145093906
21
168.230919324882
31
0.0
  0
LINE
 8
F Base plate
10
1409.27145093906
20
168.230919324882
30
0.0
11
1408.85599285627
21
168.013265301674
31
0.0
  0
LINE
 8
F Base plate
10
1408.85599285627
20
168.013265301674
30
0.0
11
1408.49109807554
21
167.72443778477
31
0.0
  0
LINE
 8
F Base plate
10
1408.49109807554
20
167.72443778477
30
0.0
11
1408.18592729556
21
167.373602994701
31
0.0
  0
LINE
 8
F Base plate
10
1408.18592729556
20
167.373602994701
30
0.0
11
1407.94964121506
21
166.969927151999
31
0.0
  0
LINE
 8
F Base plate
10
1407.94964121506
20
166.969927151999
30
0.0
11
1407.79140053274
21
166.522576477193
31
0.0
  0
LINE
 8
F Base plate
10
1407.79140053274
20
166.522576477193
30
0.0
11
1407.72036594732
21
166.040717190816
31
0.0
  0
LINE
 8
F Base plate
10
1407.72036594732
20
166.040717190816
30
0.0
11
1407.74440993425
21
165.546481608597
31
0.0
  0
LINE
 8
F Base plate
10
1407.74440993425
20
165.546481608597
30
0.0
11
1407.86019265546
21
165.08073085044
31
0.0
  0
LINE
 8
F Base plate
10
1407.86019265546
20
165.08073085044
30
0.0
11
1408.05860112421
21
164.654071814119
31
0.0
  0
LINE
 8
F Base plate
10
1408.05860112421
20
164.654071814119
30
0.0
11
1408.33047464178
21
164.275670720167
31
0.0
  0
LINE
 8
F Base plate
10
1408.33047464178
20
164.275670720167
30
0.0
11
1408.66665250948
21
163.954693789114
31
0.0
  0
LINE
 8
F Base plate
10
1408.66665250948
20
163.954693789114
30
0.0
11
1409.05797402858
21
163.700307241492
31
0.0
  0
LINE
 8
F Base plate
10
1409.05797402858
20
163.700307241492
30
0.0
11
1409.49527850037
21
163.521677297831
31
0.0
  0
LINE
 8
F Base plate
10
1409.49527850037
20
163.521677297831
30
0.0
11
1409.96940522615
21
163.427970178663
31
0.0
  0
LINE
 8
F Base plate
10
1409.96940522615
20
163.427970178663
30
0.0
11
1410.46533482785
21
163.427970178663
31
0.0
  0
LINE
 8
F Base plate
10
1410.46533482785
20
163.427970178663
30
0.0
11
1410.93931620323
21
163.521677297831
31
0.0
  0
LINE
 8
F Base plate
10
1410.93931620323
20
163.521677297831
30
0.0
11
1411.37651259691
21
163.700307241492
31
0.0
  0
LINE
 8
F Base plate
10
1411.37651259691
20
163.700307241492
30
0.0
11
1411.76775778836
21
163.954693789114
31
0.0
  0
LINE
 8
F Base plate
10
1411.76775778836
20
163.954693789114
30
0.0
11
1412.10388555704
21
164.275670720167
31
0.0
  0
LINE
 8
F Base plate
10
1412.10388555704
20
164.275670720167
30
0.0
11
1412.37572968244
21
164.654071814119
31
0.0
  0
LINE
 8
F Base plate
10
1412.37572968244
20
164.654071814119
30
0.0
11
1412.574123944
21
165.08073085044
31
0.0
  0
LINE
 8
F Base plate
10
1412.574123944
20
165.08073085044
30
0.0
11
1412.68990212122
21
165.546481608597
31
0.0
  0
LINE
 8
F Base plate
10
1412.68990212122
20
165.546481608597
30
0.0
11
1412.71394573427
21
166.040717190816
31
0.0
  0
LINE
 8
F Base plate
10
1412.71394573427
20
166.040717190816
30
0.0
11
1412.64291293194
21
166.522576477193
31
0.0
  0
LINE
 8
F Base plate
10
1412.64291293194
20
166.522576477193
30
0.0
11
1412.48468093498
21
166.969927151999
31
0.0
  0
LINE
 8
F Base plate
10
1412.48468093498
20
166.969927151999
30
0.0
11
1412.24841596394
21
167.373602994701
31
0.0
  0
LINE
 8
F Base plate
10
1412.24841596394
20
167.373602994701
30
0.0
11
1411.94328423933
21
167.72443778477
31
0.0
  0
LINE
 8
F Base plate
10
1411.94328423933
20
167.72443778477
30
0.0
11
1411.5784519817
21
168.013265301674
31
0.0
  0
LINE
 8
F Base plate
10
1411.5784519817
20
168.013265301674
30
0.0
11
1411.16308541157
21
168.230919324882
31
0.0
  0
LINE
 8
F Base plate
10
1411.16308541157
20
168.230919324882
30
0.0
11
1410.70635074947
21
168.368233633863
31
0.0
  0
LINE
 8
F Base plate
10
1410.70635074947
20
168.368233633863
30
0.0
11
1410.21741421594
21
168.416042008085
31
0.0
  0
LINE
 8
F Base plate
10
1362.72966995553
20
168.413285929879
30
0.0
11
1362.24061573822
21
168.365477555656
31
0.0
  0
LINE
 8
F Base plate
10
1362.24061573822
20
168.365477555656
30
0.0
11
1361.78377857735
21
168.228163246675
31
0.0
  0
LINE
 8
F Base plate
10
1361.78377857735
20
168.228163246675
30
0.0
11
1361.36832469344
21
168.010509223468
31
0.0
  0
LINE
 8
F Base plate
10
1361.36832469344
20
168.010509223468
30
0.0
11
1361.00342030704
21
167.721681706564
31
0.0
  0
LINE
 8
F Base plate
10
1361.00342030704
20
167.721681706564
30
0.0
11
1360.69823163867
21
167.370846916495
31
0.0
  0
LINE
 8
F Base plate
10
1360.69823163867
20
167.370846916495
30
0.0
11
1360.46192490886
21
166.967171073792
31
0.0
  0
LINE
 8
F Base plate
10
1360.46192490886
20
166.967171073792
30
0.0
11
1360.30366633815
21
166.519820398987
31
0.0
  0
LINE
 8
F Base plate
10
1360.30366633815
20
166.519820398987
30
0.0
11
1360.23262214706
21
166.03796111261
31
0.0
  0
LINE
 8
F Base plate
10
1360.23262214706
20
166.03796111261
30
0.0
11
1360.25666955637
21
165.543811204873
31
0.0
  0
LINE
 8
F Base plate
10
1360.25666955637
20
165.543811204873
30
0.0
11
1360.37246671484
21
165.078150789819
31
0.0
  0
LINE
 8
F Base plate
10
1360.37246671484
20
165.078150789819
30
0.0
11
1360.57089514266
21
164.651558168718
31
0.0
  0
LINE
 8
F Base plate
10
1360.57089514266
20
164.651558168718
30
0.0
11
1360.84278861932
21
164.273203243313
31
0.0
  0
LINE
 8
F Base plate
10
1360.84278861932
20
164.273203243313
30
0.0
11
1361.17898092427
21
163.952255915349
31
0.0
  0
LINE
 8
F Base plate
10
1361.17898092427
20
163.952255915349
30
0.0
11
1361.57030583699
21
163.697886086569
31
0.0
  0
LINE
 8
F Base plate
10
1361.57030583699
20
163.697886086569
30
0.0
11
1362.00759713694
21
163.519263658719
31
0.0
  0
LINE
 8
F Base plate
10
1362.00759713694
20
163.519263658719
30
0.0
11
1362.4816886036
21
163.425558533541
31
0.0
  0
LINE
 8
F Base plate
10
1362.4816886036
20
163.425558533541
30
0.0
11
1362.97759421031
21
163.425558533541
31
0.0
  0
LINE
 8
F Base plate
10
1362.97759421031
20
163.425558533541
30
0.0
11
1363.45160196772
21
163.519263658719
31
0.0
  0
LINE
 8
F Base plate
10
1363.45160196772
20
163.519263658719
30
0.0
11
1363.88884406979
21
163.697886086569
31
0.0
  0
LINE
 8
F Base plate
10
1363.88884406979
20
163.697886086569
30
0.0
11
1364.28014693358
21
163.952255915349
31
0.0
  0
LINE
 8
F Base plate
10
1364.28014693358
20
163.952255915349
30
0.0
11
1364.61633697612
21
164.273203243313
31
0.0
  0
LINE
 8
F Base plate
10
1364.61633697612
20
164.273203243313
30
0.0
11
1364.88824061446
21
164.651558168718
31
0.0
  0
LINE
 8
F Base plate
10
1364.88824061446
20
164.651558168718
30
0.0
11
1365.08668426563
21
165.078150789819
31
0.0
  0
LINE
 8
F Base plate
10
1365.08668426563
20
165.078150789819
30
0.0
11
1365.20249434669
21
165.543811204873
31
0.0
  0
LINE
 8
F Base plate
10
1365.20249434669
20
165.543811204873
30
0.0
11
1365.22654505375
21
166.03796111261
31
0.0
  0
LINE
 8
F Base plate
10
1365.22654505375
20
166.03796111261
30
0.0
11
1365.15549185136
21
166.519820398987
31
0.0
  0
LINE
 8
F Base plate
10
1365.15549185136
20
166.519820398987
30
0.0
11
1364.99721828737
21
166.967171073792
31
0.0
  0
LINE
 8
F Base plate
10
1364.99721828737
20
166.967171073792
30
0.0
11
1364.76089794475
21
167.370846916495
31
0.0
  0
LINE
 8
F Base plate
10
1364.76089794475
20
167.370846916495
30
0.0
11
1364.45570440644
21
167.721681706564
31
0.0
  0
LINE
 8
F Base plate
10
1364.45570440644
20
167.721681706564
30
0.0
11
1364.09081125541
21
168.010509223468
31
0.0
  0
LINE
 8
F Base plate
10
1364.09081125541
20
168.010509223468
30
0.0
11
1363.67539207461
21
168.228163246675
31
0.0
  0
LINE
 8
F Base plate
10
1363.67539207461
20
168.228163246675
30
0.0
11
1363.21862044699
21
168.365477555656
31
0.0
  0
LINE
 8
F Base plate
10
1363.21862044699
20
168.365477555656
30
0.0
11
1362.72966995553
21
168.413285929879
31
0.0
  0
LINE
 8
F Base plate
10
1461.61069354966
20
143.013269179979
30
0.0
11
1461.02384374675
21
142.955896707447
31
0.0
  0
LINE
 8
F Base plate
10
1461.02384374675
20
142.955896707447
30
0.0
11
1460.47565864495
21
142.791114720416
31
0.0
  0
LINE
 8
F Base plate
10
1460.47565864495
20
142.791114720416
30
0.0
11
1459.97713586832
21
142.529926364737
31
0.0
  0
LINE
 8
F Base plate
10
1459.97713586832
20
142.529926364737
30
0.0
11
1459.53927304086
21
142.183334786261
31
0.0
  0
LINE
 8
F Base plate
10
1459.53927304086
20
142.183334786261
30
0.0
11
1459.17306778662
21
141.762343130838
31
0.0
  0
LINE
 8
F Base plate
10
1459.17306778662
20
141.762343130838
30
0.0
11
1458.88951772962
21
141.277954544317
31
0.0
  0
LINE
 8
F Base plate
10
1458.88951772962
20
141.277954544317
30
0.0
11
1458.6996204939
21
140.741172172551
31
0.0
  0
LINE
 8
F Base plate
10
1458.6996204939
20
140.741172172551
30
0.0
11
1458.61437370348
21
140.162999161388
31
0.0
  0
LINE
 8
F Base plate
10
1458.61437370348
20
140.162999161388
30
0.0
11
1458.64322844153
21
139.569984304414
31
0.0
  0
LINE
 8
F Base plate
10
1458.64322844153
20
139.569984304414
30
0.0
11
1458.7821751576
21
139.011131219718
31
0.0
  0
LINE
 8
F Base plate
10
1458.7821751576
20
139.011131219718
30
0.0
11
1459.02027350696
21
138.499170347343
31
0.0
  0
LINE
 8
F Base plate
10
1459.02027350696
20
138.499170347343
30
0.0
11
1459.34652586558
21
138.04510483314
31
0.0
  0
LINE
 8
F Base plate
10
1459.34652586558
20
138.04510483314
30
0.0
11
1459.74993460944
21
137.659937822959
31
0.0
  0
LINE
 8
F Base plate
10
1459.74993460944
20
137.659937822959
30
0.0
11
1460.21950211449
21
137.35467246265
31
0.0
  0
LINE
 8
F Base plate
10
1460.21950211449
20
137.35467246265
30
0.0
11
1460.74423075671
21
137.140311898064
31
0.0
  0
LINE
 8
F Base plate
10
1460.74423075671
20
137.140311898064
30
0.0
11
1461.31312291206
21
137.027859275051
31
0.0
  0
LINE
 8
F Base plate
10
1461.31312291206
20
137.027859275051
30
0.0
11
1461.90829364654
21
137.027859275051
31
0.0
  0
LINE
 8
F Base plate
10
1461.90829364654
20
137.027859275051
30
0.0
11
1462.47723425203
21
137.140311898064
31
0.0
  0
LINE
 8
F Base plate
10
1462.47723425203
20
137.140311898064
30
0.0
11
1463.00199892029
21
137.35467246265
31
0.0
  0
LINE
 8
F Base plate
10
1463.00199892029
20
137.35467246265
30
0.0
11
1463.47159186789
21
137.659937822959
31
0.0
  0
LINE
 8
F Base plate
10
1463.47159186789
20
137.659937822959
30
0.0
11
1463.87501731141
21
138.04510483314
31
0.0
  0
LINE
 8
F Base plate
10
1463.87501731141
20
138.04510483314
30
0.0
11
1464.20127946743
21
138.499170347343
31
0.0
  0
LINE
 8
F Base plate
10
1464.20127946743
20
138.499170347343
30
0.0
11
1464.43938255252
21
139.011131219718
31
0.0
  0
LINE
 8
F Base plate
10
1464.43938255252
20
139.011131219718
30
0.0
11
1464.57833078326
21
139.569984304414
31
0.0
  0
LINE
 8
F Base plate
10
1464.57833078326
20
139.569984304414
30
0.0
11
1464.60718564593
21
140.162999161388
31
0.0
  0
LINE
 8
F Base plate
10
1464.60718564593
20
140.162999161388
30
0.0
11
1464.52193826115
21
140.741172172551
31
0.0
  0
LINE
 8
F Base plate
10
1464.52193826115
20
140.741172172551
30
0.0
11
1464.33203813031
21
141.277954544317
31
0.0
  0
LINE
 8
F Base plate
10
1464.33203813031
20
141.277954544317
30
0.0
11
1464.04848103683
21
141.762343130838
31
0.0
  0
LINE
 8
F Base plate
10
1464.04848103683
20
141.762343130838
30
0.0
11
1463.68226276413
21
142.183334786261
31
0.0
  0
LINE
 8
F Base plate
10
1463.68226276413
20
142.183334786261
30
0.0
11
1463.24437909564
21
142.529926364737
31
0.0
  0
LINE
 8
F Base plate
10
1463.24437909564
20
142.529926364737
30
0.0
11
1462.74582581478
21
142.791114720416
31
0.0
  0
LINE
 8
F Base plate
10
1462.74582581478
20
142.791114720416
30
0.0
11
1462.19759870498
21
142.955896707447
31
0.0
  0
LINE
 8
F Base plate
10
1462.19759870498
20
142.955896707447
30
0.0
11
1461.61069354966
21
143.013269179979
31
0.0
  0
LINE
 8
F Base plate
10
1879.68398628136
20
314.126107171299
30
0.0
11
1879.68398628136
21
94.6260960224117
31
0.0
  0
LINE
 8
F Base plate
10
1353.65200961819
20
314.126107171299
30
0.0
11
1479.64784737124
21
314.126107171299
31
0.0
  0
LINE
 8
F Base plate
10
1466.72976430821
20
168.418453576516
30
0.0
11
1466.24066171746
21
168.370645815829
31
0.0
  0
LINE
 8
F Base plate
10
1466.24066171746
20
168.370645815829
30
0.0
11
1465.78380103134
21
168.233335801597
31
0.0
  0
LINE
 8
F Base plate
10
1465.78380103134
20
168.233335801597
30
0.0
11
1465.36834294855
21
168.015693435563
31
0.0
  0
LINE
 8
F Base plate
10
1465.36834294855
20
168.015693435563
30
0.0
11
1465.00344816781
21
167.726888619473
31
0.0
  0
LINE
 8
F Base plate
10
1465.00344816781
20
167.726888619473
30
0.0
11
1464.69827738784
21
167.376091255071
31
0.0
  0
LINE
 8
F Base plate
10
1464.69827738784
20
167.376091255071
30
0.0
11
1464.46199130734
21
166.9724712441
31
0.0
  0
LINE
 8
F Base plate
10
1464.46199130734
20
166.9724712441
30
0.0
11
1464.30375062502
21
166.525198488304
31
0.0
  0
LINE
 8
F Base plate
10
1464.30375062502
20
166.525198488304
30
0.0
11
1464.2327160396
21
166.043442889428
31
0.0
  0
LINE
 8
F Base plate
10
1464.2327160396
20
166.043442889428
30
0.0
11
1464.25676002653
21
165.549237686803
31
0.0
  0
LINE
 8
F Base plate
10
1464.25676002653
20
165.549237686803
30
0.0
11
1464.37254274773
21
165.083486928646
31
0.0
  0
LINE
 8
F Base plate
10
1464.37254274773
20
165.083486928646
30
0.0
11
1464.57095121648
21
164.656827892326
31
0.0
  0
LINE
 8
F Base plate
10
1464.57095121648
20
164.656827892326
30
0.0
11
1464.84282473406
21
164.278426798374
31
0.0
  0
LINE
 8
F Base plate
10
1464.84282473406
20
164.278426798374
30
0.0
11
1465.17900260176
21
163.957449867321
31
0.0
  0
LINE
 8
F Base plate
10
1465.17900260176
20
163.957449867321
30
0.0
11
1465.57032412086
21
163.703063319699
31
0.0
  0
LINE
 8
F Base plate
10
1465.57032412086
20
163.703063319699
30
0.0
11
1466.00762859265
21
163.524433376038
31
0.0
  0
LINE
 8
F Base plate
10
1466.00762859265
20
163.524433376038
30
0.0
11
1466.48175531843
21
163.43072625687
31
0.0
  0
LINE
 8
F Base plate
10
1466.48175531843
20
163.43072625687
30
0.0
11
1466.97771437942
21
163.43072625687
31
0.0
  0
LINE
 8
F Base plate
10
1466.97771437942
20
163.43072625687
30
0.0
11
1467.45174420493
21
163.524433376038
31
0.0
  0
LINE
 8
F Base plate
10
1467.45174420493
20
163.524433376038
30
0.0
11
1467.88897662465
21
163.703063319699
31
0.0
  0
LINE
 8
F Base plate
10
1467.88897662465
20
163.703063319699
30
0.0
11
1468.28024725865
21
163.957449867321
31
0.0
  0
LINE
 8
F Base plate
10
1468.28024725865
20
163.957449867321
30
0.0
11
1468.616391727
21
164.278426798374
31
0.0
  0
LINE
 8
F Base plate
10
1468.616391727
20
164.278426798374
30
0.0
11
1468.88824564979
21
164.656827892326
31
0.0
  0
LINE
 8
F Base plate
10
1468.88824564979
20
164.656827892326
30
0.0
11
1469.08664464708
21
165.083486928646
31
0.0
  0
LINE
 8
F Base plate
10
1469.08664464708
20
165.083486928646
30
0.0
11
1469.20242433896
21
165.549237686803
31
0.0
  0
LINE
 8
F Base plate
10
1469.20242433896
20
165.549237686803
30
0.0
11
1469.22646807664
21
166.043442889428
31
0.0
  0
LINE
 8
F Base plate
10
1469.22646807664
20
166.043442889428
30
0.0
11
1469.15543467995
21
166.525198488304
31
0.0
  0
LINE
 8
F Base plate
10
1469.15543467995
20
166.525198488304
30
0.0
11
1468.99719978787
21
166.9724712441
31
0.0
  0
LINE
 8
F Base plate
10
1468.99719978787
20
166.9724712441
30
0.0
11
1468.76092778034
21
167.376091255071
31
0.0
  0
LINE
 8
F Base plate
10
1468.76092778034
20
167.376091255071
30
0.0
11
1468.45578303728
21
167.726888619473
31
0.0
  0
LINE
 8
F Base plate
10
1468.45578303728
20
167.726888619473
30
0.0
11
1468.09092993861
21
168.015693435563
31
0.0
  0
LINE
 8
F Base plate
10
1468.09092993861
20
168.015693435563
30
0.0
11
1467.67553286426
21
168.233335801597
31
0.0
  0
LINE
 8
F Base plate
10
1467.67553286426
20
168.233335801597
30
0.0
11
1467.21875619415
21
168.370645815829
31
0.0
  0
LINE
 8
F Base plate
10
1467.21875619415
20
168.370645815829
30
0.0
11
1466.72976430821
21
168.418453576516
31
0.0
  0
LINE
 8
F Base plate
10
1410.21741421594
20
216.415900050214
30
0.0
11
1409.72831162519
21
216.368092289527
31
0.0
  0
LINE
 8
F Base plate
10
1409.72831162519
20
216.368092289527
30
0.0
11
1409.27145093906
21
216.230782275295
31
0.0
  0
LINE
 8
F Base plate
10
1409.27145093906
20
216.230782275295
30
0.0
11
1408.85599285627
21
216.013139909261
31
0.0
  0
LINE
 8
F Base plate
10
1408.85599285627
20
216.013139909261
30
0.0
11
1408.49109807554
21
215.724335093171
31
0.0
  0
LINE
 8
F Base plate
10
1408.49109807554
20
215.724335093171
30
0.0
11
1408.18592729556
21
215.373537728769
31
0.0
  0
LINE
 8
F Base plate
10
1408.18592729556
20
215.373537728769
30
0.0
11
1407.94964121506
21
214.969917717798
31
0.0
  0
LINE
 8
F Base plate
10
1407.94964121506
20
214.969917717798
30
0.0
11
1407.79140053274
21
214.522644962002
31
0.0
  0
LINE
 8
F Base plate
10
1407.79140053274
20
214.522644962002
30
0.0
11
1407.72036594732
21
214.040889363127
31
0.0
  0
LINE
 8
F Base plate
10
1407.72036594732
20
214.040889363127
30
0.0
11
1407.74440993425
21
213.546684160501
31
0.0
  0
LINE
 8
F Base plate
10
1407.74440993425
20
213.546684160501
30
0.0
11
1407.86019265546
21
213.080933402344
31
0.0
  0
LINE
 8
F Base plate
10
1407.86019265546
20
213.080933402344
30
0.0
11
1408.05860112421
21
212.654274366024
31
0.0
  0
LINE
 8
F Base plate
10
1408.05860112421
20
212.654274366024
30
0.0
11
1408.33047464178
21
212.275873272072
31
0.0
  0
LINE
 8
F Base plate
10
1408.33047464178
20
212.275873272072
30
0.0
11
1408.66665250948
21
211.954896341019
31
0.0
  0
LINE
 8
F Base plate
10
1408.66665250948
20
211.954896341019
30
0.0
11
1409.05797402858
21
211.700509793397
31
0.0
  0
LINE
 8
F Base plate
10
1409.05797402858
20
211.700509793397
30
0.0
11
1409.49527850037
21
211.521879849736
31
0.0
  0
LINE
 8
F Base plate
10
1409.49527850037
20
211.521879849736
30
0.0
11
1409.96940522615
21
211.428172730568
31
0.0
  0
LINE
 8
F Base plate
10
1409.96940522615
20
211.428172730568
30
0.0
11
1410.46533482785
21
211.428172730568
31
0.0
  0
LINE
 8
F Base plate
10
1410.46533482785
20
211.428172730568
30
0.0
11
1410.93931620323
21
211.521879849736
31
0.0
  0
LINE
 8
F Base plate
10
1410.93931620323
20
211.521879849736
30
0.0
11
1411.37651259691
21
211.700509793397
31
0.0
  0
LINE
 8
F Base plate
10
1411.37651259691
20
211.700509793397
30
0.0
11
1411.76775778836
21
211.954896341019
31
0.0
  0
LINE
 8
F Base plate
10
1411.76775778836
20
211.954896341019
30
0.0
11
1412.10388555704
21
212.275873272072
31
0.0
  0
LINE
 8
F Base plate
10
1412.10388555704
20
212.275873272072
30
0.0
11
1412.37572968244
21
212.654274366024
31
0.0
  0
LINE
 8
F Base plate
10
1412.37572968244
20
212.654274366024
30
0.0
11
1412.574123944
21
213.080933402344
31
0.0
  0
LINE
 8
F Base plate
10
1412.574123944
20
213.080933402344
30
0.0
11
1412.68990212122
21
213.546684160501
31
0.0
  0
LINE
 8
F Base plate
10
1412.68990212122
20
213.546684160501
30
0.0
11
1412.71394573427
21
214.040889363127
31
0.0
  0
LINE
 8
F Base plate
10
1412.71394573427
20
214.040889363127
30
0.0
11
1412.64291293194
21
214.522644962002
31
0.0
  0
LINE
 8
F Base plate
10
1412.64291293194
20
214.522644962002
30
0.0
11
1412.48468093498
21
214.969917717798
31
0.0
  0
LINE
 8
F Base plate
10
1412.48468093498
20
214.969917717798
30
0.0
11
1412.24841596394
21
215.373537728769
31
0.0
  0
LINE
 8
F Base plate
10
1412.24841596394
20
215.373537728769
30
0.0
11
1411.94328423933
21
215.724335093171
31
0.0
  0
LINE
 8
F Base plate
10
1411.94328423933
20
215.724335093171
30
0.0
11
1411.5784519817
21
216.013139909261
31
0.0
  0
LINE
 8
F Base plate
10
1411.5784519817
20
216.013139909261
30
0.0
11
1411.16308541157
21
216.230782275295
31
0.0
  0
LINE
 8
F Base plate
10
1411.16308541157
20
216.230782275295
30
0.0
11
1410.70635074947
21
216.368092289527
31
0.0
  0
LINE
 8
F Base plate
10
1410.70635074947
20
216.368092289527
30
0.0
11
1410.21741421594
21
216.415900050214
31
0.0
  0
LINE
 8
F Base plate
10
1418.2172757197
20
216.415900050214
30
0.0
11
1417.72821452342
21
216.368092289527
31
0.0
  0
LINE
 8
F Base plate
10
1417.72821452342
20
216.368092289527
30
0.0
11
1417.27135887979
21
216.230782275295
31
0.0
  0
LINE
 8
F Base plate
10
1417.27135887979
20
216.230782275295
30
0.0
11
1416.85587869055
21
216.013139909261
31
0.0
  0
LINE
 8
F Base plate
10
1416.85587869055
20
216.013139909261
30
0.0
11
1416.49094385745
21
215.724335093171
31
0.0
  0
LINE
 8
F Base plate
10
1416.49094385745
20
215.724335093171
30
0.0
11
1416.18572428223
21
215.373537728769
31
0.0
  0
LINE
 8
F Base plate
10
1416.18572428223
20
215.373537728769
30
0.0
11
1415.94938986663
21
214.969917717798
31
0.0
  0
LINE
 8
F Base plate
10
1415.94938986663
20
214.969917717798
30
0.0
11
1415.79111051241
21
214.522644962002
31
0.0
  0
LINE
 8
F Base plate
10
1415.79111051241
20
214.522644962002
30
0.0
11
1415.72005612129
21
214.040889363127
31
0.0
  0
LINE
 8
F Base plate
10
1415.72005612129
20
214.040889363127
30
0.0
11
1415.7441070776
21
213.546684160501
31
0.0
  0
LINE
 8
F Base plate
10
1415.7441070776
20
213.546684160501
30
0.0
11
1415.85992018799
21
213.080933402344
31
0.0
  0
LINE
 8
F Base plate
10
1415.85992018799
20
213.080933402344
30
0.0
11
1416.05837331062
21
212.654274366024
31
0.0
  0
LINE
 8
F Base plate
10
1416.05837331062
20
212.654274366024
30
0.0
11
1416.33029654375
21
212.275873272072
31
0.0
  0
LINE
 8
F Base plate
10
1416.33029654375
20
212.275873272072
30
0.0
11
1416.66651998563
21
211.954896341019
31
0.0
  0
LINE
 8
F Base plate
10
1416.66651998563
20
211.954896341019
30
0.0
11
1417.05787373451
21
211.700509793397
31
0.0
  0
LINE
 8
F Base plate
10
1417.05787373451
20
211.700509793397
30
0.0
11
1417.49518788867
21
211.521879849736
31
0.0
  0
LINE
 8
F Base plate
10
1417.49518788867
20
211.521879849736
30
0.0
11
1417.96929254634
21
211.428172730568
31
0.0
  0
LINE
 8
F Base plate
10
1417.96929254634
20
211.428172730568
30
0.0
11
1418.46525707163
21
211.428172730568
31
0.0
  0
LINE
 8
F Base plate
10
1418.46525707163
20
211.428172730568
30
0.0
11
1418.93934853829
21
211.521879849736
31
0.0
  0
LINE
 8
F Base plate
10
1418.93934853829
20
211.521879849736
30
0.0
11
1419.37663983824
21
211.700509793397
31
0.0
  0
LINE
 8
F Base plate
10
1419.37663983824
20
211.700509793397
30
0.0
11
1419.76796475096
21
211.954896341019
31
0.0
  0
LINE
 8
F Base plate
10
1419.76796475096
20
211.954896341019
30
0.0
11
1420.10415705591
21
212.275873272072
31
0.0
  0
LINE
 8
F Base plate
10
1420.10415705591
20
212.275873272072
30
0.0
11
1420.37605053257
21
212.654274366024
31
0.0
  0
LINE
 8
F Base plate
10
1420.37605053257
20
212.654274366024
30
0.0
11
1420.57447896039
21
213.080933402344
31
0.0
  0
LINE
 8
F Base plate
10
1420.57447896039
20
213.080933402344
30
0.0
11
1420.69027611886
21
213.546684160501
31
0.0
  0
LINE
 8
F Base plate
10
1420.69027611886
20
213.546684160501
30
0.0
11
1420.71432352817
21
214.040889363127
31
0.0
  0
LINE
 8
F Base plate
10
1420.71432352817
20
214.040889363127
30
0.0
11
1420.64327933708
21
214.522644962002
31
0.0
  0
LINE
 8
F Base plate
10
1420.64327933708
20
214.522644962002
30
0.0
11
1420.48502076637
21
214.969917717798
31
0.0
  0
LINE
 8
F Base plate
10
1420.48502076637
20
214.969917717798
30
0.0
11
1420.24871403656
21
215.373537728769
31
0.0
  0
LINE
 8
F Base plate
10
1420.24871403656
20
215.373537728769
30
0.0
11
1419.94352536819
21
215.724335093171
31
0.0
  0
LINE
 8
F Base plate
10
1419.94352536819
20
215.724335093171
30
0.0
11
1419.57862098179
21
216.013139909261
31
0.0
  0
LINE
 8
F Base plate
10
1419.57862098179
20
216.013139909261
30
0.0
11
1419.16316709789
21
216.230782275295
31
0.0
  0
LINE
 8
F Base plate
10
1419.16316709789
20
216.230782275295
30
0.0
11
1418.70632993701
21
216.368092289527
31
0.0
  0
LINE
 8
F Base plate
10
1418.70632993701
20
216.368092289527
30
0.0
11
1418.2172757197
21
216.415900050214
31
0.0
  0
LINE
 8
F Base plate
10
1466.72976430821
20
216.413488481783
30
0.0
11
1466.24066171746
21
216.365680107561
31
0.0
  0
LINE
 8
F Base plate
10
1466.24066171746
20
216.365680107561
30
0.0
11
1465.78380103134
21
216.22836579858
31
0.0
  0
LINE
 8
F Base plate
10
1465.78380103134
20
216.22836579858
30
0.0
11
1465.36834294855
21
216.010711775372
31
0.0
  0
LINE
 8
F Base plate
10
1465.36834294855
20
216.010711775372
30
0.0
11
1465.00344816781
21
215.721884258468
31
0.0
  0
LINE
 8
F Base plate
10
1465.00344816781
20
215.721884258468
30
0.0
11
1464.69827738784
21
215.371049468399
31
0.0
  0
LINE
 8
F Base plate
10
1464.69827738784
20
215.371049468399
30
0.0
11
1464.46199130734
21
214.967373625697
31
0.0
  0
LINE
 8
F Base plate
10
1464.46199130734
20
214.967373625697
30
0.0
11
1464.30375062502
21
214.520022950892
31
0.0
  0
LINE
 8
F Base plate
10
1464.30375062502
20
214.520022950892
30
0.0
11
1464.2327160396
21
214.038163664514
31
0.0
  0
LINE
 8
F Base plate
10
1464.2327160396
20
214.038163664514
30
0.0
11
1464.25676002653
21
213.543928082295
31
0.0
  0
LINE
 8
F Base plate
10
1464.25676002653
20
213.543928082295
30
0.0
11
1464.37254274773
21
213.078177324138
31
0.0
  0
LINE
 8
F Base plate
10
1464.37254274773
20
213.078177324138
30
0.0
11
1464.57095121648
21
212.651518287817
31
0.0
  0
LINE
 8
F Base plate
10
1464.57095121648
20
212.651518287817
30
0.0
11
1464.84282473406
21
212.273117193865
31
0.0
  0
LINE
 8
F Base plate
10
1464.84282473406
20
212.273117193865
30
0.0
11
1465.17900260176
21
211.952140262813
31
0.0
  0
LINE
 8
F Base plate
10
1465.17900260176
20
211.952140262813
30
0.0
11
1465.57032412086
21
211.69775371519
31
0.0
  0
LINE
 8
F Base plate
10
1465.57032412086
20
211.69775371519
30
0.0
11
1466.00762859265
21
211.51912377153
31
0.0
  0
LINE
 8
F Base plate
10
1466.48175531843
20
211.425416652361
30
0.0
11
1466.97771437942
21
211.425416652361
31
0.0
  0
LINE
 8
F Base plate
10
1466.97771437942
20
211.425416652361
30
0.0
11
1467.45174420493
21
211.51912377153
31
0.0
  0
LINE
 8
F Base plate
10
1467.45174420493
20
211.51912377153
30
0.0
11
1467.88897662465
21
211.69775371519
31
0.0
  0
LINE
 8
F Base plate
10
1467.88897662465
20
211.69775371519
30
0.0
11
1468.28024725865
21
211.952140262813
31
0.0
  0
LINE
 8
F Base plate
10
1468.28024725865
20
211.952140262813
30
0.0
11
1468.616391727
21
212.273117193865
31
0.0
  0
LINE
 8
F Base plate
10
1468.616391727
20
212.273117193865
30
0.0
11
1468.88824564979
21
212.651518287817
31
0.0
  0
LINE
 8
F Base plate
10
1468.88824564979
20
212.651518287817
30
0.0
11
1469.08664464708
21
213.078177324138
31
0.0
  0
LINE
 8
F Base plate
10
1469.08664464708
20
213.078177324138
30
0.0
11
1469.20242433896
21
213.543928082295
31
0.0
  0
LINE
 8
F Base plate
10
1469.20242433896
20
213.543928082295
30
0.0
11
1469.22646807664
21
214.038163664514
31
0.0
  0
LINE
 8
F Base plate
10
1469.22646807664
20
214.038163664514
30
0.0
11
1469.15543467995
21
214.520022950891
31
0.0
  0
LINE
 8
F Base plate
10
1469.15543467995
20
214.520022950891
30
0.0
11
1468.99719978787
21
214.967373625697
31
0.0
  0
LINE
 8
F Base plate
10
1468.99719978787
20
214.967373625697
30
0.0
11
1468.76092778034
21
215.371049468399
31
0.0
  0
LINE
 8
F Base plate
10
1468.76092778034
20
215.371049468399
30
0.0
11
1468.45578303728
21
215.721884258468
31
0.0
  0
LINE
 8
F Base plate
10
1468.45578303728
20
215.721884258468
30
0.0
11
1468.09092993861
21
216.010711775372
31
0.0
  0
LINE
 8
F Base plate
10
1468.09092993861
20
216.010711775372
30
0.0
11
1467.67553286426
21
216.22836579858
31
0.0
  0
LINE
 8
F Base plate
10
1467.67553286426
20
216.22836579858
30
0.0
11
1467.21875619415
21
216.365680107561
31
0.0
  0
LINE
 8
F Base plate
10
1467.21875619415
20
216.365680107561
30
0.0
11
1466.72976430821
21
216.413488481783
31
0.0
  0
LINE
 8
F Base plate
10
1418.2172757197
20
168.416042008085
30
0.0
11
1417.72821452342
21
168.368233633863
31
0.0
  0
LINE
 8
F Base plate
10
1417.72821452342
20
168.368233633863
30
0.0
11
1417.27135887979
21
168.230919324882
31
0.0
  0
LINE
 8
F Base plate
10
1417.27135887979
20
168.230919324882
30
0.0
11
1416.85587869055
21
168.013265301674
31
0.0
  0
LINE
 8
F Base plate
10
1416.85587869055
20
168.013265301674
30
0.0
11
1416.49094385745
21
167.72443778477
31
0.0
  0
LINE
 8
F Base plate
10
1416.49094385745
20
167.72443778477
30
0.0
11
1416.18572428223
21
167.373602994701
31
0.0
  0
LINE
 8
F Base plate
10
1416.18572428223
20
167.373602994701
30
0.0
11
1415.94938986663
21
166.969927151999
31
0.0
  0
LINE
 8
F Base plate
10
1415.94938986663
20
166.969927151999
30
0.0
11
1415.79111051241
21
166.522576477193
31
0.0
  0
LINE
 8
F Base plate
10
1415.79111051241
20
166.522576477193
30
0.0
11
1415.72005612129
21
166.040717190816
31
0.0
  0
LINE
 8
F Base plate
10
1415.72005612129
20
166.040717190816
30
0.0
11
1415.7441070776
21
165.546481608597
31
0.0
  0
LINE
 8
F Base plate
10
1415.7441070776
20
165.546481608597
30
0.0
11
1415.85992018799
21
165.08073085044
31
0.0
  0
LINE
 8
F Base plate
10
1415.85992018799
20
165.08073085044
30
0.0
11
1416.05837331062
21
164.654071814119
31
0.0
  0
LINE
 8
F Base plate
10
1416.05837331062
20
164.654071814119
30
0.0
11
1416.33029654375
21
164.275670720167
31
0.0
  0
LINE
 8
F Base plate
10
1416.33029654375
20
164.275670720167
30
0.0
11
1416.66651998563
21
163.954693789114
31
0.0
  0
LINE
 8
F Base plate
10
1416.66651998563
20
163.954693789114
30
0.0
11
1417.05787373451
21
163.700307241492
31
0.0
  0
LINE
 8
F Base plate
10
1417.05787373451
20
163.700307241492
30
0.0
11
1417.49518788867
21
163.521677297831
31
0.0
  0
LINE
 8
F Base plate
10
1417.49518788867
20
163.521677297831
30
0.0
11
1417.96929254634
21
163.427970178663
31
0.0
  0
LINE
 8
F Base plate
10
1417.96929254634
20
163.427970178663
30
0.0
11
1418.46525707163
21
163.427970178663
31
0.0
  0
LINE
 8
F Base plate
10
1418.46525707163
20
163.427970178663
30
0.0
11
1418.93934853829
21
163.521677297831
31
0.0
  0
LINE
 8
F Base plate
10
1418.93934853829
20
163.521677297831
30
0.0
11
1419.37663983824
21
163.700307241492
31
0.0
  0
LINE
 8
F Base plate
10
1419.37663983824
20
163.700307241492
30
0.0
11
1419.76796475096
21
163.954693789114
31
0.0
  0
LINE
 8
F Base plate
10
1419.76796475096
20
163.954693789114
30
0.0
11
1420.10415705591
21
164.275670720167
31
0.0
  0
LINE
 8
F Base plate
10
1420.10415705591
20
164.275670720167
30
0.0
11
1420.37605053257
21
164.654071814119
31
0.0
  0
LINE
 8
F Base plate
10
1420.37605053257
20
164.654071814119
30
0.0
11
1420.57447896039
21
165.08073085044
31
0.0
  0
LINE
 8
F Base plate
10
1420.57447896039
20
165.08073085044
30
0.0
11
1420.69027611886
21
165.546481608597
31
0.0
  0
LINE
 8
F Base plate
10
1420.69027611886
20
165.546481608597
30
0.0
11
1420.71432352817
21
166.040717190816
31
0.0
  0
LINE
 8
F Base plate
10
1420.71432352817
20
166.040717190816
30
0.0
11
1420.64327933708
21
166.522576477193
31
0.0
  0
LINE
 8
F Base plate
10
1420.64327933708
20
166.522576477193
30
0.0
11
1420.48502076637
21
166.969927151999
31
0.0
  0
LINE
 8
F Base plate
10
1420.48502076637
20
166.969927151999
30
0.0
11
1420.24871403656
21
167.373602994701
31
0.0
  0
LINE
 8
F Base plate
10
1420.24871403656
20
167.373602994701
30
0.0
11
1419.94352536819
21
167.72443778477
31
0.0
  0
LINE
 8
F Base plate
10
1419.94352536819
20
167.72443778477
30
0.0
11
1419.57862098179
21
168.013265301674
31
0.0
  0
LINE
 8
F Base plate
10
1419.57862098179
20
168.013265301674
30
0.0
11
1419.16316709789
21
168.230919324882
31
0.0
  0
LINE
 8
F Base plate
10
1419.16316709789
20
168.230919324882
30
0.0
11
1418.70632993701
21
168.368233633863
31
0.0
  0
LINE
 8
F Base plate
10
1418.70632993701
20
168.368233633863
30
0.0
11
1418.2172757197
21
168.416042008085
31
0.0
  0
LINE
 8
F Base plate
10
1781.49835566968
20
188.944346018452
30
0.0
11
1569.49823621243
21
188.944346018452
31
0.0
  0
LINE
 8
F Base plate
10
1853.49814273287
20
185.126144173303
30
0.0
11
1852.91143805028
21
185.06877170077
31
0.0
  0
LINE
 8
F Base plate
10
1852.91143805028
20
185.06877170077
30
0.0
11
1852.36332352424
21
184.90398971374
31
0.0
  0
LINE
 8
F Base plate
10
1852.36332352424
20
184.90398971374
30
0.0
11
1851.86481334425
21
184.642801358061
31
0.0
  0
LINE
 8
F Base plate
10
1851.86481334425
20
184.642801358061
30
0.0
11
1851.4269216998
21
184.296209779585
31
0.0
  0
LINE
 8
F Base plate
10
1851.4269216998
20
184.296209779585
30
0.0
11
1851.06066278038
21
183.875218124161
31
0.0
  0
LINE
 8
F Base plate
10
1851.06066278038
20
183.875218124161
30
0.0
11
1850.77705077547
21
183.390829537641
31
0.0
  0
LINE
 8
F Base plate
10
1850.77705077547
20
183.390829537641
30
0.0
11
1850.58709987456
21
182.854047165874
31
0.0
  0
LINE
 8
F Base plate
10
1850.58709987456
20
182.854047165874
30
0.0
11
1850.50182426715
21
182.275874154712
31
0.0
  0
LINE
 8
F Base plate
10
1850.50182426715
20
182.275874154712
30
0.0
11
1850.53068927232
21
181.682820472444
31
0.0
  0
LINE
 8
F Base plate
10
1850.53068927232
20
181.682820472444
30
0.0
11
1850.66967930017
21
181.123938168119
31
0.0
  0
LINE
 8
F Base plate
10
1850.66967930017
20
181.123938168119
30
0.0
11
1850.90783752676
21
180.611968782939
31
0.0
  0
LINE
 8
F Base plate
10
1850.90783752676
20
180.611968782939
30
0.0
11
1851.23414976262
21
180.157909940935
31
0.0
  0
LINE
 8
F Base plate
10
1851.23414976262
20
180.157909940935
30
0.0
11
1851.63760181824
21
179.772759266137
31
0.0
  0
LINE
 8
F Base plate
10
1851.63760181824
20
179.772759266137
30
0.0
11
1852.10717950415
21
179.467514382575
31
0.0
  0
LINE
 8
F Base plate
10
1852.10717950415
20
179.467514382575
30
0.0
11
1852.63186863085
21
179.253172914282
31
0.0
  0
LINE
 8
F Base plate
10
1852.63186863085
20
179.253172914282
30
0.0
11
1853.20065500885
21
179.140732485287
31
0.0
  0
LINE
 8
F Base plate
10
1853.20065500885
20
179.140732485287
30
0.0
11
1853.79574100832
21
179.140732485287
31
0.0
  0
LINE
 8
F Base plate
10
1853.79574100832
20
179.140732485287
30
0.0
11
1854.3646684228
21
179.253172914282
31
0.0
  0
LINE
 8
F Base plate
10
1854.3646684228
20
179.253172914282
30
0.0
11
1854.88941023685
21
179.467514382575
31
0.0
  0
LINE
 8
F Base plate
10
1854.88941023685
20
179.467514382575
30
0.0
11
1855.35897434829
21
179.772759266137
31
0.0
  0
LINE
 8
F Base plate
10
1855.35897434829
20
179.772759266137
30
0.0
11
1855.76236865488
21
180.157909940935
31
0.0
  0
LINE
 8
F Base plate
10
1855.76236865488
20
180.157909940935
30
0.0
11
1856.08860105443
21
180.611968782939
31
0.0
  0
LINE
 8
F Base plate
10
1856.08860105443
20
180.611968782939
30
0.0
11
1856.32667944472
21
181.123938168119
31
0.0
  0
LINE
 8
F Base plate
10
1856.32667944472
20
181.123938168119
30
0.0
11
1856.46561172353
21
181.682820472444
31
0.0
  0
LINE
 8
F Base plate
10
1856.46561172353
20
181.682820472444
30
0.0
11
1856.49446303919
21
182.275874154712
31
0.0
  0
LINE
 8
F Base plate
10
1856.49446303919
20
182.275874154712
30
0.0
11
1856.40922585444
21
182.854047165874
31
0.0
  0
LINE
 8
F Base plate
10
1856.40922585444
20
182.854047165874
30
0.0
11
1856.21934650712
21
183.390829537641
31
0.0
  0
LINE
 8
F Base plate
10
1856.21934650712
20
183.390829537641
30
0.0
11
1855.93581709942
21
183.875218124161
31
0.0
  0
LINE
 8
F Base plate
10
1855.93581709942
20
183.875218124161
30
0.0
11
1855.56962973358
21
184.296209779585
31
0.0
  0
LINE
 8
F Base plate
10
1855.56962973358
20
184.296209779585
30
0.0
11
1855.13177651179
21
184.642801358061
31
0.0
  0
LINE
 8
F Base plate
10
1855.13177651179
20
184.642801358061
30
0.0
11
1854.63324953627
21
184.90398971374
31
0.0
  0
LINE
 8
F Base plate
10
1854.63324953627
20
184.90398971374
30
0.0
11
1854.08504090922
21
185.06877170077
31
0.0
  0
LINE
 8
F Base plate
10
1854.08504090922
20
185.06877170077
30
0.0
11
1853.49814273287
21
185.126144173303
31
0.0
  0
LINE
 8
F Base plate
10
1569.49892523198
20
297.944483002153
30
0.0
11
1649.47497487929
21
297.944483002153
31
0.0
  0
LINE
 8
F Base plate
10
1427.64650828324
20
271.930205322009
30
0.0
11
1427.05970685377
21
271.872846193874
31
0.0
  0
LINE
 8
F Base plate
10
1427.05970685377
20
271.872846193874
30
0.0
11
1426.51154527723
21
271.708096877609
31
0.0
  0
LINE
 8
F Base plate
10
1426.51154527723
20
271.708096877609
30
0.0
11
1426.01302669947
21
271.446949475425
31
0.0
  0
LINE
 8
F Base plate
10
1426.01302669947
20
271.446949475425
30
0.0
11
1425.57515426635
21
271.100396089535
31
0.0
  0
LINE
 8
F Base plate
10
1425.57515426635
20
271.100396089535
30
0.0
11
1425.20893112372
21
270.679428822148
31
0.0
  0
LINE
 8
F Base plate
10
1425.20893112372
20
270.679428822148
30
0.0
11
1424.92536041742
21
270.195039775476
31
0.0
  0
LINE
 8
F Base plate
10
1424.92536041742
20
270.195039775476
30
0.0
11
1424.7354452933
21
269.65822105173
31
0.0
  0
LINE
 8
F Base plate
10
1424.7354452933
20
269.65822105173
30
0.0
11
1424.65018889722
21
269.079964753122
31
0.0
  0
LINE
 8
F Base plate
10
1424.65018889722
20
269.079964753122
30
0.0
11
1424.67904705764
21
268.486920446443
31
0.0
  0
LINE
 8
F Base plate
10
1424.67904705764
20
268.486920446443
30
0.0
11
1424.81800821097
21
267.928067361748
31
0.0
  0
LINE
 8
F Base plate
10
1424.81800821097
20
267.928067361748
30
0.0
11
1425.05612651941
21
267.416106489373
31
0.0
  0
LINE
 8
F Base plate
10
1425.05612651941
20
267.416106489373
30
0.0
11
1425.38239883711
21
266.96204097517
31
0.0
  0
LINE
 8
F Base plate
10
1425.38239883711
20
266.96204097517
30
0.0
11
1425.78582201822
21
266.576873964989
31
0.0
  0
LINE
 8
F Base plate
10
1425.78582201822
20
266.576873964989
30
0.0
11
1426.25539291689
21
266.27160860468
31
0.0
  0
LINE
 8
F Base plate
10
1426.25539291689
20
266.27160860468
30
0.0
11
1426.78010838727
21
266.057248040094
31
0.0
  0
LINE
 8
F Base plate
10
1426.78010838727
20
266.057248040094
30
0.0
11
1427.3489652835
21
265.944795417081
31
0.0
  0
LINE
 8
F Base plate
10
1427.3489652835
20
265.944795417081
30
0.0
11
1427.94405128298
21
265.944795417081
31
0.0
  0
LINE
 8
F Base plate
10
1427.94405128298
20
265.944795417081
30
0.0
11
1428.51290817922
21
266.057248040094
31
0.0
  0
LINE
 8
F Base plate
10
1428.51290817922
20
266.057248040094
30
0.0
11
1429.03762364959
21
266.27160860468
31
0.0
  0
LINE
 8
F Base plate
10
1429.03762364959
20
266.27160860468
30
0.0
11
1429.50719454826
21
266.576873964989
31
0.0
  0
LINE
 8
F Base plate
10
1429.50719454826
20
266.576873964989
30
0.0
11
1429.91061772937
21
266.96204097517
31
0.0
  0
LINE
 8
F Base plate
10
1429.91061772937
20
266.96204097517
30
0.0
11
1430.23689004707
21
267.416106489373
31
0.0
  0
LINE
 8
F Base plate
10
1430.23689004707
20
267.416106489373
30
0.0
11
1430.47500835551
21
267.928067361748
31
0.0
  0
LINE
 8
F Base plate
10
1430.47500835551
20
267.928067361748
30
0.0
11
1430.61396950884
21
268.486920446443
31
0.0
  0
LINE
 8
F Base plate
10
1430.61396950884
20
268.486920446443
30
0.0
11
1430.64282766926
21
269.079964753122
31
0.0
  0
LINE
 8
F Base plate
10
1430.64282766926
20
269.079964753122
30
0.0
11
1430.55757127318
21
269.65822105173
31
0.0
  0
LINE
 8
F Base plate
10
1430.55757127318
20
269.65822105173
30
0.0
11
1430.36765614907
21
270.195039775476
31
0.0
  0
LINE
 8
F Base plate
10
1430.36765614907
20
270.195039775476
30
0.0
11
1430.08408544277
21
270.679428822148
31
0.0
  0
LINE
 8
F Base plate
10
1430.08408544277
20
270.679428822148
30
0.0
11
1429.71786230013
21
271.100396089535
31
0.0
  0
LINE
 8
F Base plate
10
1429.71786230013
20
271.100396089535
30
0.0
11
1429.27998986701
21
271.446949475425
31
0.0
  0
LINE
 8
F Base plate
10
1429.27998986701
20
271.446949475425
30
0.0
11
1428.78147128925
21
271.708096877609
31
0.0
  0
LINE
 8
F Base plate
10
1428.78147128925
20
271.708096877609
30
0.0
11
1428.23330971271
21
271.872846193874
31
0.0
  0
LINE
 8
F Base plate
10
1428.23330971271
20
271.872846193874
30
0.0
11
1427.64650828324
21
271.930205322009
31
0.0
  0
LINE
 8
F Base plate
10
1669.49822755834
20
189.126074925184
30
0.0
11
1669.49822755834
21
314.126107171299
31
0.0
  0
LINE
 8
F Base plate
10
1479.64784737124
20
314.126107171299
30
0.0
11
1481.64720985508
21
314.126107171299
31
0.0
  0
LINE
 8
F Base plate
10
1481.64720985508
20
314.126107171299
30
0.0
11
1669.49822755834
21
314.126107171299
31
0.0
  0
LINE
 8
F Base plate
10
1669.49822755834
20
314.126107171299
30
0.0
11
1821.6840429772
21
314.126107171299
31
0.0
  0
LINE
 8
F Base plate
10
1823.68357771592
20
314.126107171299
30
0.0
11
1879.68398628136
21
314.126107171299
31
0.0
  0
LINE
 8
F Base plate
10
1821.6840429772
20
314.126107171299
30
0.0
11
1823.68357771592
21
314.126107171299
31
0.0
  0
LINE
 8
GROUP0
10
1493.23806524664
20
216.447698987856
30
0.0
11
1493.17707037689
21
216.428157766847
31
0.0
  0
LINE
 8
GROUP0
10
1493.02926559557
20
216.393096910095
30
0.0
11
1492.94378590514
21
216.379770972395
31
0.0
  0
LINE
 8
GROUP0
10
1488.25955823682
20
218.956315136935
30
0.0
11
1487.09580421418
21
218.956315136935
31
0.0
  0
LINE
 8
GROUP0
10
1493.17707037689
20
216.428157766847
30
0.0
11
1493.10724878968
21
216.409591457919
31
0.0
  0
LINE
 8
GROUP0
10
1488.25955823682
20
219.265168150936
30
0.0
11
1488.25955823682
21
218.956315136935
31
0.0
  0
LINE
 8
GROUP0
10
1486.72356140143
20
219.265168150936
30
0.0
11
1488.25955823682
21
219.265168150936
31
0.0
  0
LINE
 8
GROUP0
10
1493.10724878968
20
216.409591457919
30
0.0
11
1493.02926559557
21
216.393096910095
31
0.0
  0
LINE
 8
GROUP0
10
1493.28956828835
20
216.467118271927
30
0.0
11
1493.23806524664
21
216.447698987856
31
0.0
  0
LINE
 8
GROUP0
10
1493.33091439143
20
216.485318770037
30
0.0
11
1493.28956828835
21
216.467118271927
31
0.0
  0
LINE
 8
GROUP0
10
1489.49221421462
20
217.691275240211
30
0.0
11
1490.53745687438
21
217.691275240211
31
0.0
  0
LINE
 8
GROUP0
10
1489.49221421462
20
217.420490556436
30
0.0
11
1489.49221421462
21
217.691275240211
31
0.0
  0
LINE
 8
GROUP0
10
1490.53745687438
20
217.420490556436
30
0.0
11
1489.49221421462
21
217.420490556436
31
0.0
  0
LINE
 8
GROUP0
10
1490.53745687438
20
217.691275240211
30
0.0
11
1490.53745687438
21
217.420490556436
31
0.0
  0
LINE
 8
GROUP0
10
1486.72356140143
20
216.413488481784
30
0.0
11
1486.72356140143
21
219.265168150936
31
0.0
  0
LINE
 8
GROUP0
10
1487.09580421418
20
216.413488481784
30
0.0
11
1486.72356140143
21
216.413488481784
31
0.0
  0
LINE
 8
GROUP0
10
1487.09580421418
20
217.703849847028
30
0.0
11
1487.09580421418
21
216.413488481784
31
0.0
  0
LINE
 8
GROUP0
10
1488.17067471466
20
217.703849847028
30
0.0
11
1487.09580421418
21
217.703849847028
31
0.0
  0
LINE
 8
GROUP0
10
1488.17067471466
20
218.00856874372
30
0.0
11
1488.17067471466
21
217.703849847028
31
0.0
  0
LINE
 8
GROUP0
10
1487.09580421418
20
218.00856874372
30
0.0
11
1488.17067471466
21
218.00856874372
31
0.0
  0
LINE
 8
GROUP0
10
1487.09580421418
20
218.956315136935
30
0.0
11
1487.09580421418
21
218.00856874372
31
0.0
  0
LINE
 8
GROUP0
10
1492.94378590514
20
216.379770972395
30
0.0
11
1492.85147482898
21
216.370710493841
31
0.0
  0
LINE
 8
GROUP0
10
1492.85147482898
20
216.370710493841
30
0.0
11
1492.75299747765
21
216.367012323453
31
0.0
  0
LINE
 8
GROUP0
10
1492.75299747765
20
216.367012323453
30
0.0
11
1492.54518329
21
216.382199291111
31
0.0
  0
LINE
 8
GROUP0
10
1492.54518329
20
216.382199291111
30
0.0
11
1492.34618238049
21
216.433375809547
31
0.0
  0
LINE
 8
GROUP0
10
1492.34618238049
20
216.433375809547
30
0.0
11
1492.17091016595
21
216.518316802542
31
0.0
  0
LINE
 8
GROUP0
10
1492.17091016595
20
216.518316802542
30
0.0
11
1492.02146699557
21
216.63463798481
31
0.0
  0
LINE
 8
GROUP0
10
1492.02146699557
20
216.63463798481
30
0.0
11
1491.89995321854
21
216.779955071068
31
0.0
  0
LINE
 8
GROUP0
10
1491.89995321854
20
216.779955071068
30
0.0
11
1491.80846918404
21
216.951883776034
31
0.0
  0
LINE
 8
GROUP0
10
1491.80846918404
20
216.951883776034
30
0.0
11
1491.74911524127
21
217.148039814423
31
0.0
  0
LINE
 8
GROUP0
10
1491.74911524127
20
217.148039814423
30
0.0
11
1491.72399173941
21
217.366038900951
31
0.0
  0
LINE
 8
GROUP0
10
1491.72399173941
20
217.366038900951
30
0.0
11
1491.73569946048
21
217.593614654074
31
0.0
  0
LINE
 8
GROUP0
10
1491.73569946048
20
217.593614654074
30
0.0
11
1491.78505106071
21
217.804064385499
31
0.0
  0
LINE
 8
GROUP0
10
1491.78505106071
20
217.804064385499
30
0.0
11
1491.86991081427
21
217.993099306647
31
0.0
  0
LINE
 8
GROUP0
10
1491.86991081427
20
217.993099306647
30
0.0
11
1491.98808307836
21
218.157424980919
31
0.0
  0
LINE
 8
GROUP0
10
1491.98808307836
20
218.157424980919
30
0.0
11
1492.13737221017
21
218.293746971716
31
0.0
  0
LINE
 8
GROUP0
10
1492.13737221017
20
218.293746971716
30
0.0
11
1492.31558256688
21
218.398770842439
31
0.0
  0
LINE
 8
GROUP0
10
1492.31558256688
20
218.398770842439
30
0.0
11
1492.5205185057
21
218.469202156488
31
0.0
  0
LINE
 8
GROUP0
10
1492.5205185057
20
218.469202156488
30
0.0
11
1492.7499843838
21
218.501746477265
31
0.0
  0
LINE
 8
GROUP0
10
1492.7499843838
20
218.501746477265
30
0.0
11
1492.87969723044
21
218.50243349954
31
0.0
  0
LINE
 8
GROUP0
10
1492.87969723044
20
218.50243349954
30
0.0
11
1492.9578050323
21
218.496874439219
31
0.0
  0
LINE
 8
GROUP0
10
1492.9578050323
20
218.496874439219
30
0.0
11
1493.03229459373
21
218.487341634917
31
0.0
  0
LINE
 8
GROUP0
10
1493.03229459373
20
218.487341634917
30
0.0
11
1493.10239967623
21
218.474453522784
31
0.0
  0
LINE
 8
GROUP0
10
1493.10239967623
20
218.474453522784
30
0.0
11
1493.16735404129
21
218.458828538972
31
0.0
  0
LINE
 8
GROUP0
10
1493.16735404129
20
218.458828538972
30
0.0
11
1493.22639145042
21
218.44108511963
31
0.0
  0
LINE
 8
GROUP0
10
1493.22639145042
20
218.44108511963
30
0.0
11
1493.27874566512
21
218.421841700909
31
0.0
  0
LINE
 8
GROUP0
10
1493.27874566512
20
218.421841700909
30
0.0
11
1493.32365044688
21
218.401716718959
31
0.0
  0
LINE
 8
GROUP0
10
1493.32365044688
20
218.401716718959
30
0.0
11
1493.33075840582
21
218.364740092223
31
0.0
  0
LINE
 8
GROUP0
10
1493.33075840582
20
218.364740092223
30
0.0
11
1493.31880647896
21
218.324673143934
31
0.0
  0
LINE
 8
GROUP0
10
1493.31880647896
20
218.324673143934
30
0.0
11
1493.30408539728
21
218.275323041182
31
0.0
  0
LINE
 8
GROUP0
10
1493.30408539728
20
218.275323041182
30
0.0
11
1493.28850492271
21
218.223091959458
31
0.0
  0
LINE
 8
GROUP0
10
1493.28850492271
20
218.223091959458
30
0.0
11
1493.27397481723
21
218.174382074254
31
0.0
  0
LINE
 8
GROUP0
10
1493.27397481723
20
218.174382074254
30
0.0
11
1493.26240484276
21
218.135595561064
31
0.0
  0
LINE
 8
GROUP0
10
1493.26240484276
20
218.135595561064
30
0.0
11
1493.23773402449
21
218.118705849394
31
0.0
  0
LINE
 8
GROUP0
10
1493.23773402449
20
218.118705849394
30
0.0
11
1493.20009133295
21
218.136037159481
31
0.0
  0
LINE
 8
GROUP0
10
1493.20009133295
20
218.136037159481
30
0.0
11
1493.1575915839
21
218.152815961045
31
0.0
  0
LINE
 8
GROUP0
10
1493.1575915839
20
218.152815961045
30
0.0
11
1493.11009475408
21
218.168421873167
31
0.0
  0
LINE
 8
GROUP0
10
1493.11009475408
20
218.168421873167
30
0.0
11
1493.05746082019
21
218.182234514931
31
0.0
  0
LINE
 8
GROUP0
10
1493.05746082019
20
218.182234514931
30
0.0
11
1492.99954975897
21
218.193633505419
31
0.0
  0
LINE
 8
GROUP0
10
1492.99954975897
20
218.193633505419
30
0.0
11
1492.93622154713
21
218.201998463711
31
0.0
  0
LINE
 8
GROUP0
10
1492.93622154713
20
218.201998463711
30
0.0
11
1492.86733616139
21
218.20670900889
31
0.0
  0
LINE
 8
GROUP0
10
1492.86733616139
20
218.20670900889
30
0.0
11
1492.75527310779
21
218.204987198375
31
0.0
  0
LINE
 8
GROUP0
10
1492.75527310779
20
218.204987198375
30
0.0
11
1492.59926431391
21
218.177487670013
31
0.0
  0
LINE
 8
GROUP0
10
1492.59926431391
20
218.177487670013
30
0.0
11
1492.46360556995
21
218.122282007645
31
0.0
  0
LINE
 8
GROUP0
10
1492.46360556995
20
218.122282007645
30
0.0
11
1492.34872278006
21
218.042522679822
31
0.0
  0
LINE
 8
GROUP0
10
1492.34872278006
20
218.042522679822
30
0.0
11
1492.25504184838
21
217.941362155096
31
0.0
  0
LINE
 8
GROUP0
10
1492.25504184838
20
217.941362155096
30
0.0
11
1492.18298867904
21
217.821952902019
31
0.0
  0
LINE
 8
GROUP0
10
1492.18298867904
20
217.821952902019
30
0.0
11
1492.1329891762
21
217.687447389144
31
0.0
  0
LINE
 8
GROUP0
10
1492.1329891762
20
217.687447389144
30
0.0
11
1492.10546924398
21
217.540998085021
31
0.0
  0
LINE
 8
GROUP0
10
1492.10546924398
20
217.540998085021
30
0.0
11
1492.10105167677
21
217.381185181798
31
0.0
  0
LINE
 8
GROUP0
10
1492.10105167677
20
217.381185181798
30
0.0
11
1492.12250362563
21
217.21948574785
31
0.0
  0
LINE
 8
GROUP0
10
1492.12250362563
20
217.21948574785
30
0.0
11
1492.16882798738
21
217.076023373647
31
0.0
  0
LINE
 8
GROUP0
10
1492.16882798738
20
217.076023373647
30
0.0
11
1492.23773382559
21
216.952042710559
31
0.0
  0
LINE
 8
GROUP0
10
1492.23773382559
20
216.952042710559
30
0.0
11
1492.32693020383
21
216.848788409959
31
0.0
  0
LINE
 8
GROUP0
10
1492.32693020383
20
216.848788409959
30
0.0
11
1492.43412618567
21
216.767505123218
31
0.0
  0
LINE
 8
GROUP0
10
1492.43412618567
20
216.767505123218
30
0.0
11
1492.55703083469
21
216.709437501707
31
0.0
  0
LINE
 8
GROUP0
10
1492.55703083469
20
216.709437501707
30
0.0
11
1492.69335321444
21
216.675830196798
31
0.0
  0
LINE
 8
GROUP0
10
1492.69335321444
20
216.675830196798
30
0.0
11
1492.82607007383
21
216.667484297229
31
0.0
  0
LINE
 8
GROUP0
10
1492.82607007383
20
216.667484297229
30
0.0
11
1492.8999286975
21
216.670558813007
31
0.0
  0
LINE
 8
GROUP0
10
1492.8999286975
20
216.670558813007
30
0.0
11
1492.96772081259
21
216.677533560542
31
0.0
  0
LINE
 8
GROUP0
10
1492.96772081259
20
216.677533560542
30
0.0
11
1493.02987815754
21
216.687786214151
31
0.0
  0
LINE
 8
GROUP0
10
1493.02987815754
20
216.687786214151
30
0.0
11
1493.08683247082
21
216.700694448147
31
0.0
  0
LINE
 8
GROUP0
10
1493.08683247082
20
216.700694448147
30
0.0
11
1493.13901549085
21
216.715635936845
31
0.0
  0
LINE
 8
GROUP0
10
1493.13901549085
20
216.715635936845
30
0.0
11
1493.18685895608
21
216.731988354558
31
0.0
  0
LINE
 8
GROUP0
10
1493.18685895608
20
216.731988354558
30
0.0
11
1493.23079460496
21
216.749129375601
31
0.0
  0
LINE
 8
GROUP0
10
1493.23079460496
20
216.749129375601
30
0.0
11
1493.26738116217
21
216.764589495939
31
0.0
  0
LINE
 8
GROUP0
10
1493.26738116217
20
216.764589495939
30
0.0
11
1493.27795408662
21
216.718114473029
31
0.0
  0
LINE
 8
GROUP0
10
1493.27795408662
20
216.718114473029
30
0.0
11
1493.28815624109
21
216.673269230335
31
0.0
  0
LINE
 8
GROUP0
10
1493.28815624109
20
216.673269230335
30
0.0
11
1493.29972187224
21
216.622430602332
31
0.0
  0
LINE
 8
GROUP0
10
1493.29972187224
20
216.622430602332
30
0.0
11
1493.31121574147
21
216.571907415662
31
0.0
  0
LINE
 8
GROUP0
10
1493.31121574147
20
216.571907415662
30
0.0
11
1493.32120261015
21
216.528008496963
31
0.0
  0
LINE
 8
GROUP0
10
1493.32120261015
20
216.528008496963
30
0.0
11
1493.33091439143
21
216.485318770037
31
0.0
  0
LINE
 8
GROUP0
10
1495.20625335597
20
216.904242657405
30
0.0
11
1495.20677018403
21
216.82992372286
31
0.0
  0
LINE
 8
GROUP0
10
1495.20677018403
20
216.82992372286
30
0.0
11
1495.20836226292
21
216.756610759616
31
0.0
  0
LINE
 8
GROUP0
10
1495.20836226292
20
216.756610759616
30
0.0
11
1495.21109198475
21
216.68478305243
31
0.0
  0
LINE
 8
GROUP0
10
1495.21109198475
20
216.68478305243
30
0.0
11
1495.21502174162
21
216.614919886057
31
0.0
  0
LINE
 8
GROUP0
10
1495.21502174162
20
216.614919886057
30
0.0
11
1495.22021392562
21
216.547500545255
31
0.0
  0
LINE
 8
GROUP0
10
1495.22021392562
20
216.547500545255
30
0.0
11
1495.22673092885
21
216.483004314778
31
0.0
  0
LINE
 8
GROUP0
10
1495.22673092885
20
216.483004314778
30
0.0
11
1495.23463514342
21
216.421910479384
31
0.0
  0
LINE
 8
GROUP0
10
1495.23463514342
20
216.421910479384
30
0.0
11
1495.17985751305
21
216.413488481784
31
0.0
  0
LINE
 8
GROUP0
10
1495.17985751305
20
216.413488481784
30
0.0
11
1495.11825177884
21
216.413488481784
31
0.0
  0
LINE
 8
GROUP0
10
1495.11825177884
20
216.413488481784
30
0.0
11
1495.04878626081
21
216.413488481784
31
0.0
  0
LINE
 8
GROUP0
10
1495.04878626081
20
216.413488481784
30
0.0
11
1494.98246465631
21
216.413488481784
31
0.0
  0
LINE
 8
GROUP0
10
1494.98246465631
20
216.413488481784
30
0.0
11
1494.93029066271
21
216.413488481784
31
0.0
  0
LINE
 8
GROUP0
10
1494.93029066271
20
216.413488481784
30
0.0
11
1494.90326797735
21
216.413488481784
31
0.0
  0
LINE
 8
GROUP0
10
1494.90326797735
20
216.413488481784
30
0.0
11
1494.89740617383
21
216.450968190874
31
0.0
  0
LINE
 8
GROUP0
10
1494.89740617383
20
216.450968190874
30
0.0
11
1494.89212341132
21
216.497008080436
31
0.0
  0
LINE
 8
GROUP0
10
1494.89212341132
20
216.497008080436
30
0.0
11
1494.88600443263
21
216.550335691211
31
0.0
  0
LINE
 8
GROUP0
10
1494.88600443263
20
216.550335691211
30
0.0
11
1494.88002482331
21
216.602448681783
31
0.0
  0
LINE
 8
GROUP0
10
1494.88002482331
20
216.602448681783
30
0.0
11
1494.87516016889
21
216.644844710739
31
0.0
  0
LINE
 8
GROUP0
10
1494.87516016889
20
216.644844710739
30
0.0
11
1494.87184718649
21
216.671698558743
31
0.0
  0
LINE
 8
GROUP0
10
1494.87184718649
20
216.671698558743
30
0.0
11
1494.8376401494
21
216.642950626309
31
0.0
  0
LINE
 8
GROUP0
10
1494.8376401494
20
216.642950626309
30
0.0
11
1494.77838737286
21
216.578227544413
31
0.0
  0
LINE
 8
GROUP0
10
1494.77838737286
20
216.578227544413
30
0.0
11
1494.70749077225
21
216.518491778957
31
0.0
  0
LINE
 8
GROUP0
10
1494.70749077225
20
216.518491778957
30
0.0
11
1494.62550620443
21
216.465830629234
31
0.0
  0
LINE
 8
GROUP0
10
1494.62550620443
20
216.465830629234
30
0.0
11
1494.53298952627
21
216.422331394538
31
0.0
  0
LINE
 8
GROUP0
10
1494.53298952627
20
216.422331394538
30
0.0
11
1494.43049659467
21
216.39008137416
31
0.0
  0
LINE
 8
GROUP0
10
1494.43049659467
20
216.39008137416
30
0.0
11
1494.31858326648
21
216.371167867395
31
0.0
  0
LINE
 8
GROUP0
10
1494.31858326648
20
216.371167867395
30
0.0
11
1494.18440675747
21
216.368362706192
31
0.0
  0
LINE
 8
GROUP0
10
1494.18440675747
20
216.368362706192
30
0.0
11
1494.02908146443
21
216.393680673116
31
0.0
  0
LINE
 8
GROUP0
10
1494.02908146443
20
216.393680673116
30
0.0
11
1493.89781804878
21
216.447241598313
31
0.0
  0
LINE
 8
GROUP0
10
1493.89781804878
20
216.447241598313
30
0.0
11
1493.79075547473
21
216.524306518306
31
0.0
  0
LINE
 8
GROUP0
10
1493.79075547473
20
216.524306518306
30
0.0
11
1493.70803270652
21
216.620136469619
31
0.0
  0
LINE
 8
GROUP0
10
1493.70803270652
20
216.620136469619
30
0.0
11
1493.64978870836
21
216.729992488775
31
0.0
  0
LINE
 8
GROUP0
10
1493.64978870836
20
216.729992488775
30
0.0
11
1493.61616244446
21
216.849135612298
31
0.0
  0
LINE
 8
GROUP0
10
1493.61616244446
20
216.849135612298
30
0.0
11
1493.6075661952
21
216.984491944646
31
0.0
  0
LINE
 8
GROUP0
10
1493.6075661952
20
216.984491944646
30
0.0
11
1493.64046363488
21
217.175254386904
31
0.0
  0
LINE
 8
GROUP0
10
1493.64046363488
20
217.175254386904
30
0.0
11
1493.72343194899
21
217.338685848898
31
0.0
  0
LINE
 8
GROUP0
10
1493.72343194899
20
217.338685848898
30
0.0
11
1493.85501343123
21
217.473949709311
31
0.0
  0
LINE
 8
GROUP0
10
1493.85501343123
20
217.473949709311
30
0.0
11
1494.03375037529
21
217.58020934682
31
0.0
  0
LINE
 8
GROUP0
10
1494.03375037529
20
217.58020934682
30
0.0
11
1494.25818507487
21
217.656628140107
31
0.0
  0
LINE
 8
GROUP0
10
1494.25818507487
20
217.656628140107
30
0.0
11
1494.52685982368
21
217.702369467851
31
0.0
  0
LINE
 8
GROUP0
10
1494.52685982368
20
217.702369467851
30
0.0
11
1494.83831691542
21
217.716596708732
31
0.0
  0
LINE
 8
GROUP0
10
1494.83831691542
20
217.716596708732
30
0.0
11
1494.83831691542
21
217.749818475432
31
0.0
  0
LINE
 8
GROUP0
10
1494.83831691542
20
217.749818475432
30
0.0
11
1494.83573801997
21
217.823802572658
31
0.0
  0
LINE
 8
GROUP0
10
1494.83573801997
20
217.823802572658
30
0.0
11
1494.82313094793
21
217.908824356579
31
0.0
  0
LINE
 8
GROUP0
10
1494.82313094793
20
217.908824356579
30
0.0
11
1494.79508507268
21
217.996787887427
31
0.0
  0
LINE
 8
GROUP0
10
1494.79508507268
20
217.996787887427
30
0.0
11
1494.74624318176
21
218.080169245331
31
0.0
  0
LINE
 8
GROUP0
10
1494.74624318176
20
218.080169245331
30
0.0
11
1494.67124806272
21
218.151444510421
31
0.0
  0
LINE
 8
GROUP0
10
1494.67124806272
20
218.151444510421
30
0.0
11
1494.5647425031
21
218.203089762827
31
0.0
  0
LINE
 8
GROUP0
10
1494.5647425031
20
218.203089762827
30
0.0
11
1494.42136929047
21
218.227581082677
31
0.0
  0
LINE
 8
GROUP0
10
1494.42136929047
20
218.227581082677
30
0.0
11
1494.3144200381
21
218.226902330895
31
0.0
  0
LINE
 8
GROUP0
10
1494.3144200381
20
218.226902330895
30
0.0
11
1494.2328150222
21
218.219216826294
31
0.0
  0
LINE
 8
GROUP0
10
1494.2328150222
20
218.219216826294
30
0.0
11
1494.15238087102
21
218.205424188628
31
0.0
  0
LINE
 8
GROUP0
10
1494.15238087102
20
218.205424188628
30
0.0
11
1494.07409600608
21
218.185731446226
31
0.0
  0
LINE
 8
GROUP0
10
1494.07409600608
20
218.185731446226
30
0.0
11
1493.99893884893
21
218.160345627413
31
0.0
  0
LINE
 8
GROUP0
10
1493.99893884893
20
218.160345627413
30
0.0
11
1493.92788782112
21
218.129473760516
31
0.0
  0
LINE
 8
GROUP0
10
1493.92788782112
20
218.129473760516
30
0.0
11
1493.86192134419
21
218.093322873862
31
0.0
  0
LINE
 8
GROUP0
10
1493.86192134419
20
218.093322873862
30
0.0
11
1493.8339116838
21
218.08080159578
31
0.0
  0
LINE
 8
GROUP0
10
1493.8339116838
20
218.08080159578
30
0.0
11
1493.82496951089
21
218.107191022558
31
0.0
  0
LINE
 8
GROUP0
10
1493.82496951089
20
218.107191022558
30
0.0
11
1493.81045742519
21
218.150017931268
31
0.0
  0
LINE
 8
GROUP0
10
1493.81045742519
20
218.150017931268
30
0.0
11
1493.7931603831
21
218.201063580946
31
0.0
  0
LINE
 8
GROUP0
10
1493.7931603831
20
218.201063580946
30
0.0
11
1493.77586334101
21
218.252109230623
31
0.0
  0
LINE
 8
GROUP0
10
1493.77586334101
20
218.252109230623
30
0.0
11
1493.76135125531
21
218.294936139334
31
0.0
  0
LINE
 8
GROUP0
10
1493.76135125531
20
218.294936139334
30
0.0
11
1493.7524090824
21
218.321325566111
31
0.0
  0
LINE
 8
GROUP0
10
1493.7524090824
20
218.321325566111
30
0.0
11
1493.78220024831
21
218.344554365121
31
0.0
  0
LINE
 8
GROUP0
10
1493.78220024831
20
218.344554365121
30
0.0
11
1493.86150905556
21
218.385029734162
31
0.0
  0
LINE
 8
GROUP0
10
1493.86150905556
20
218.385029734162
30
0.0
11
1493.94856015502
21
218.420606918333
31
0.0
  0
LINE
 8
GROUP0
10
1493.94856015502
20
218.420606918333
30
0.0
11
1494.04217944085
21
218.450664832653
31
0.0
  0
LINE
 8
GROUP0
10
1494.04217944085
20
218.450664832653
30
0.0
11
1494.14119280718
21
218.474582392143
31
0.0
  0
LINE
 8
GROUP0
10
1494.14119280718
20
218.474582392143
30
0.0
11
1494.24442614818
21
218.491738511823
31
0.0
  0
LINE
 8
GROUP0
10
1494.24442614818
20
218.491738511823
30
0.0
11
1494.35070535798
21
218.501512106712
31
0.0
  0
LINE
 8
GROUP0
10
1494.35070535798
20
218.501512106712
30
0.0
11
1494.50071709071
21
218.501606649841
31
0.0
  0
LINE
 8
GROUP0
10
1494.50071709071
20
218.501606649841
30
0.0
11
1494.72176773278
21
218.464705427785
31
0.0
  0
LINE
 8
GROUP0
10
1494.72176773278
20
218.464705427785
30
0.0
11
1494.8938985131
21
218.387041097989
31
0.0
  0
LINE
 8
GROUP0
10
1494.8938985131
20
218.387041097989
30
0.0
11
1495.02240425202
21
218.275998616104
31
0.0
  0
LINE
 8
GROUP0
10
1495.02240425202
20
218.275998616104
30
0.0
11
1495.1125797699
21
218.13896293778
31
0.0
  0
LINE
 8
GROUP0
10
1495.1125797699
20
218.13896293778
30
0.0
11
1495.16971988708
21
217.983319018671
31
0.0
  0
LINE
 8
GROUP0
10
1495.16971988708
20
217.983319018671
30
0.0
11
1495.19911942393
21
217.816451814425
31
0.0
  0
LINE
 8
GROUP0
10
1495.19911942393
20
217.816451814425
30
0.0
11
1495.20625335597
21
217.669181128246
31
0.0
  0
LINE
 8
GROUP0
10
1495.20625335597
20
217.669181128246
30
0.0
11
1495.20625335597
21
217.617544779351
31
0.0
  0
LINE
 8
GROUP0
10
1495.20625335597
20
217.617544779351
30
0.0
11
1495.20625335597
21
217.504665318976
31
0.0
  0
LINE
 8
GROUP0
10
1495.20625335597
20
217.504665318976
30
0.0
11
1495.20625335597
21
217.355760498906
31
0.0
  0
LINE
 8
GROUP0
10
1495.20625335597
20
217.355760498906
30
0.0
11
1495.20625335597
21
217.196048070928
31
0.0
  0
LINE
 8
GROUP0
10
1495.20625335597
20
217.196048070928
30
0.0
11
1495.20625335597
21
217.050745786828
31
0.0
  0
LINE
 8
GROUP0
10
1495.20625335597
20
217.050745786828
30
0.0
11
1495.20625335597
21
216.945071398392
31
0.0
  0
LINE
 8
GROUP0
10
1495.20625335597
20
216.945071398392
30
0.0
11
1495.20625335597
21
216.904242657405
31
0.0
  0
LINE
 8
GROUP0
10
1494.84658515004
20
217.458558886661
30
0.0
11
1494.69646815562
21
217.457619671265
31
0.0
  0
LINE
 8
GROUP0
10
1494.69646815562
20
217.457619671265
30
0.0
11
1494.54706383921
21
217.446842800045
31
0.0
  0
LINE
 8
GROUP0
10
1494.54706383921
20
217.446842800045
30
0.0
11
1494.40398814854
21
217.423553387354
31
0.0
  0
LINE
 8
GROUP0
10
1494.40398814854
20
217.423553387354
30
0.0
11
1494.27285703133
21
217.385076547543
31
0.0
  0
LINE
 8
GROUP0
10
1494.27285703133
20
217.385076547543
30
0.0
11
1494.1592864353
21
217.328737394963
31
0.0
  0
LINE
 8
GROUP0
10
1494.1592864353
20
217.328737394963
30
0.0
11
1494.06889230819
21
217.251861043966
31
0.0
  0
LINE
 8
GROUP0
10
1494.06889230819
20
217.251861043966
30
0.0
11
1494.0072905977
21
217.151772608904
31
0.0
  0
LINE
 8
GROUP0
10
1494.0072905977
20
217.151772608904
30
0.0
11
1493.98009725158
21
217.025797204128
31
0.0
  0
LINE
 8
GROUP0
10
1493.98009725158
20
217.025797204128
30
0.0
11
1493.98374547569
21
216.929310198613
31
0.0
  0
LINE
 8
GROUP0
10
1493.98374547569
20
216.929310198613
30
0.0
11
1494.00108562029
21
216.855029455177
31
0.0
  0
LINE
 8
GROUP0
10
1494.00108562029
20
216.855029455177
30
0.0
11
1494.03012140715
21
216.792330760406
31
0.0
  0
LINE
 8
GROUP0
10
1494.03012140715
20
216.792330760406
30
0.0
11
1494.06938324249
21
216.740936690981
31
0.0
  0
LINE
 8
GROUP0
10
1494.06938324249
20
216.740936690981
30
0.0
11
1494.1174015325
21
216.700569823582
31
0.0
  0
LINE
 8
GROUP0
10
1494.1174015325
20
216.700569823582
30
0.0
11
1494.17270668338
21
216.670952734892
31
0.0
  0
LINE
 8
GROUP0
10
1494.17270668338
20
216.670952734892
30
0.0
11
1494.23382910134
21
216.651808001591
31
0.0
  0
LINE
 8
GROUP0
10
1494.23382910134
20
216.651808001591
30
0.0
11
1494.29929919258
21
216.64285820036
31
0.0
  0
LINE
 8
GROUP0
10
1494.29929919258
20
216.64285820036
30
0.0
11
1494.38424347856
21
216.6447230724
31
0.0
  0
LINE
 8
GROUP0
10
1494.38424347856
20
216.6447230724
30
0.0
11
1494.47362484811
21
216.660166516256
31
0.0
  0
LINE
 8
GROUP0
10
1494.47362484811
20
216.660166516256
30
0.0
11
1494.55401845192
21
216.687833831374
31
0.0
  0
LINE
 8
GROUP0
10
1494.55401845192
20
216.687833831374
30
0.0
11
1494.62524433974
21
216.72593113859
31
0.0
  0
LINE
 8
GROUP0
10
1494.62524433974
20
216.72593113859
30
0.0
11
1494.68712256129
21
216.772664558742
31
0.0
  0
LINE
 8
GROUP0
10
1494.68712256129
20
216.772664558742
30
0.0
11
1494.73947316632
21
216.826240212666
31
0.0
  0
LINE
 8
GROUP0
10
1494.73947316632
20
216.826240212666
30
0.0
11
1494.78211620458
21
216.884864221201
31
0.0
  0
LINE
 8
GROUP0
10
1494.78211620458
20
216.884864221201
30
0.0
11
1494.81487172579
21
216.946742705182
31
0.0
  0
LINE
 8
GROUP0
10
1494.81487172579
20
216.946742705182
30
0.0
11
1494.83150860227
21
216.990861867927
31
0.0
  0
LINE
 8
GROUP0
10
1494.83150860227
20
216.990861867927
30
0.0
11
1494.83879543816
21
217.02156550629
31
0.0
  0
LINE
 8
GROUP0
10
1494.83879543816
20
217.02156550629
30
0.0
11
1494.84347599443
21
217.051412881328
31
0.0
  0
LINE
 8
GROUP0
10
1494.84347599443
20
217.051412881328
30
0.0
11
1494.84594016332
21
217.079639204433
31
0.0
  0
LINE
 8
GROUP0
10
1494.84594016332
20
217.079639204433
30
0.0
11
1494.84658515004
21
217.123638460321
31
0.0
  0
LINE
 8
GROUP0
10
1494.84658515004
20
217.123638460321
30
0.0
11
1494.84658515004
21
217.166067732661
31
0.0
  0
LINE
 8
GROUP0
10
1494.84658515004
20
217.166067732661
30
0.0
11
1494.84658515004
21
217.223198941313
31
0.0
  0
LINE
 8
GROUP0
10
1494.84658515004
20
217.223198941313
30
0.0
11
1494.84658515004
21
217.28729422506
31
0.0
  0
LINE
 8
GROUP0
10
1494.84658515004
20
217.28729422506
30
0.0
11
1494.84658515004
21
217.350615722685
31
0.0
  0
LINE
 8
GROUP0
10
1494.84658515004
20
217.350615722685
30
0.0
11
1494.84658515004
21
217.405425572972
31
0.0
  0
LINE
 8
GROUP0
10
1494.84658515004
20
217.405425572972
30
0.0
11
1494.84658515004
21
217.458558886661
31
0.0
  0
LINE
 8
GROUP0
10
1495.80811193429
20
217.792733369184
30
0.0
11
1495.80774731311
21
217.887836301533
31
0.0
  0
LINE
 8
GROUP0
10
1495.80774731311
20
217.887836301533
30
0.0
11
1495.80671345878
21
217.978668469694
31
0.0
  0
LINE
 8
GROUP0
10
1495.80671345878
20
217.978668469694
30
0.0
11
1495.80510038511
21
218.06560949715
31
0.0
  0
LINE
 8
GROUP0
10
1495.80510038511
20
218.06560949715
30
0.0
11
1495.80299810592
21
218.149039007385
31
0.0
  0
LINE
 8
GROUP0
10
1495.80299810592
20
218.149039007385
30
0.0
11
1495.80049663503
21
218.229336623881
31
0.0
  0
LINE
 8
GROUP0
10
1495.80049663503
20
218.229336623881
30
0.0
11
1495.79768598625
21
218.306881970123
31
0.0
  0
LINE
 8
GROUP0
10
1495.79768598625
20
218.306881970123
30
0.0
11
1495.7946561734
21
218.382054669593
31
0.0
  0
LINE
 8
GROUP0
10
1495.7946561734
20
218.382054669593
30
0.0
11
1495.79149721029
21
218.455234345775
31
0.0
  0
LINE
 8
GROUP0
10
1495.79149721029
20
218.455234345775
30
0.0
11
1495.83809865218
21
218.461254589116
31
0.0
  0
LINE
 8
GROUP0
10
1495.83809865218
20
218.461254589116
30
0.0
11
1495.88913039776
21
218.461254589116
31
0.0
  0
LINE
 8
GROUP0
10
1495.88913039776
20
218.461254589116
30
0.0
11
1495.94859800333
21
218.461254589116
31
0.0
  0
LINE
 8
GROUP0
10
1495.94859800333
20
218.461254589116
30
0.0
11
1496.00900292668
21
218.461254589116
31
0.0
  0
LINE
 8
GROUP0
10
1496.00900292668
20
218.461254589116
30
0.0
11
1496.06284662559
21
218.461254589116
31
0.0
  0
LINE
 8
GROUP0
10
1496.06284662559
20
218.461254589116
30
0.0
11
1496.10263055786
21
218.461254589116
31
0.0
  0
LINE
 8
GROUP0
10
1496.10263055786
20
218.461254589116
30
0.0
11
1496.12404658114
21
218.415248439002
31
0.0
  0
LINE
 8
GROUP0
10
1496.12404658114
20
218.415248439002
30
0.0
11
1496.12725576935
21
218.362048969402
31
0.0
  0
LINE
 8
GROUP0
10
1496.12725576935
20
218.362048969402
30
0.0
11
1496.13104662292
21
218.299207095936
31
0.0
  0
LINE
 8
GROUP0
10
1496.13104662292
20
218.299207095936
30
0.0
11
1496.13493776363
21
218.234702739046
31
0.0
  0
LINE
 8
GROUP0
10
1496.13493776363
20
218.234702739046
30
0.0
11
1496.13844781323
21
218.176515819171
31
0.0
  0
LINE
 8
GROUP0
10
1496.13844781323
20
218.176515819171
30
0.0
11
1496.1410953935
21
218.13262625675
31
0.0
  0
LINE
 8
GROUP0
10
1496.1410953935
20
218.13262625675
30
0.0
11
1496.18953009647
21
218.169642529367
31
0.0
  0
LINE
 8
GROUP0
10
1496.18953009647
20
218.169642529367
30
0.0
11
1496.25485118197
21
218.250680442911
31
0.0
  0
LINE
 8
GROUP0
10
1496.25485118197
20
218.250680442911
30
0.0
11
1496.32894013494
21
218.321273003263
31
0.0
  0
LINE
 8
GROUP0
10
1496.32894013494
20
218.321273003263
30
0.0
11
1496.41170498474
21
218.380989709566
31
0.0
  0
LINE
 8
GROUP0
10
1496.41170498474
20
218.380989709566
30
0.0
11
1496.50305376072
21
218.429400060962
31
0.0
  0
LINE
 8
GROUP0
10
1496.50305376072
20
218.429400060962
30
0.0
11
1496.60289449226
21
218.466073556595
31
0.0
  0
LINE
 8
GROUP0
10
1496.60289449226
20
218.466073556595
30
0.0
11
1496.7111352087
21
218.490579695606
31
0.0
  0
LINE
 8
GROUP0
10
1496.7111352087
20
218.490579695606
30
0.0
11
1496.82768393943
21
218.502487977137
31
0.0
  0
LINE
 8
GROUP0
10
1496.82768393943
20
218.502487977137
30
0.0
11
1496.98467609922
21
218.497167034969
31
0.0
  0
LINE
 8
GROUP0
10
1496.98467609922
20
218.497167034969
30
0.0
11
1497.15557857997
21
218.457064507601
31
0.0
  0
LINE
 8
GROUP0
10
1497.15557857997
20
218.457064507601
30
0.0
11
1497.31042109577
21
218.382453096725
31
0.0
  0
LINE
 8
GROUP0
10
1497.31042109577
20
218.382453096725
30
0.0
11
1497.44641321835
21
218.275833620958
31
0.0
  0
LINE
 8
GROUP0
10
1497.44641321835
20
218.275833620958
30
0.0
11
1497.56076451941
21
218.139706898918
31
0.0
  0
LINE
 8
GROUP0
10
1497.56076451941
20
218.139706898918
30
0.0
11
1497.65068457067
21
217.976573749223
31
0.0
  0
LINE
 8
GROUP0
10
1497.65068457067
20
217.976573749223
30
0.0
11
1497.71338294385
21
217.788934990489
31
0.0
  0
LINE
 8
GROUP0
10
1497.71338294385
20
217.788934990489
30
0.0
11
1497.74606921066
21
217.579291441335
31
0.0
  0
LINE
 8
GROUP0
10
1497.74606921066
20
217.579291441335
30
0.0
11
1497.7451879273
21
217.334654396249
31
0.0
  0
LINE
 8
GROUP0
10
1497.7451879273
20
217.334654396249
30
0.0
11
1497.70620868375
21
217.095563827457
31
0.0
  0
LINE
 8
GROUP0
10
1497.70620868375
20
217.095563827457
30
0.0
11
1497.63285965413
21
216.890524245806
31
0.0
  0
LINE
 8
GROUP0
10
1497.63285965413
20
216.890524245806
30
0.0
11
1497.52995070711
21
216.719437810193
31
0.0
  0
LINE
 8
GROUP0
10
1497.52995070711
20
216.719437810193
30
0.0
11
1497.40229171136
21
216.582206679514
31
0.0
  0
LINE
 8
GROUP0
10
1497.40229171136
20
216.582206679514
30
0.0
11
1497.25469253555
21
216.478733012665
31
0.0
  0
LINE
 8
GROUP0
10
1497.25469253555
20
216.478733012665
30
0.0
11
1497.09196304835
21
216.408918968541
31
0.0
  0
LINE
 8
GROUP0
10
1497.09196304835
20
216.408918968541
30
0.0
11
1496.91891311844
21
216.37266670604
31
0.0
  0
LINE
 8
GROUP0
10
1496.91891311844
20
216.37266670604
30
0.0
11
1496.77352155181
21
216.367918377045
31
0.0
  0
LINE
 8
GROUP0
10
1496.77352155181
20
216.367918377045
30
0.0
11
1496.67630075364
21
216.37770422684
31
0.0
  0
LINE
 8
GROUP0
10
1496.67630075364
20
216.37770422684
30
0.0
11
1496.58348508811
21
216.397818998912
31
0.0
  0
LINE
 8
GROUP0
10
1496.58348508811
20
216.397818998912
30
0.0
11
1496.49598447748
21
216.427883069779
31
0.0
  0
LINE
 8
GROUP0
10
1496.49598447748
20
216.427883069779
30
0.0
11
1496.41470884403
21
216.467516815958
31
0.0
  0
LINE
 8
GROUP0
10
1496.41470884403
20
216.467516815958
30
0.0
11
1496.34056811001
21
216.516340613964
31
0.0
  0
LINE
 8
GROUP0
10
1496.34056811001
20
216.516340613964
30
0.0
11
1496.2744721977
21
216.573974840314
31
0.0
  0
LINE
 8
GROUP0
10
1496.2744721977
20
216.573974840314
30
0.0
11
1496.21733102937
21
216.640039871525
31
0.0
  0
LINE
 8
GROUP0
10
1496.21733102937
20
216.640039871525
30
0.0
11
1496.18462009845
21
216.688579537757
31
0.0
  0
LINE
 8
GROUP0
10
1496.18462009845
20
216.688579537757
30
0.0
11
1496.17639288462
21
216.616979723623
31
0.0
  0
LINE
 8
GROUP0
10
1496.17639288462
20
216.616979723623
30
0.0
11
1496.17639288462
21
216.477927946656
31
0.0
  0
LINE
 8
GROUP0
10
1496.17639288462
20
216.477927946656
30
0.0
11
1496.17639288462
21
216.293578999921
31
0.0
  0
LINE
 8
GROUP0
10
1496.17639288462
20
216.293578999921
30
0.0
11
1496.17639288462
21
216.089215024682
31
0.0
  0
LINE
 8
GROUP0
10
1496.17639288462
20
216.089215024682
30
0.0
11
1496.17639288462
21
215.890118162207
31
0.0
  0
LINE
 8
GROUP0
10
1496.17639288462
20
215.890118162207
30
0.0
11
1496.17639288462
21
215.721570553763
31
0.0
  0
LINE
 8
GROUP0
10
1496.17639288462
20
215.721570553763
30
0.0
11
1496.17639288462
21
215.608854340616
31
0.0
  0
LINE
 8
GROUP0
10
1496.17639288462
20
215.608854340616
30
0.0
11
1496.17592964474
21
215.575812961935
31
0.0
  0
LINE
 8
GROUP0
10
1496.17592964474
20
215.575812961935
30
0.0
11
1496.11119873133
21
215.575812961935
31
0.0
  0
LINE
 8
GROUP0
10
1496.11119873133
20
215.575812961935
30
0.0
11
1496.05111635749
21
215.575812961935
31
0.0
  0
LINE
 8
GROUP0
10
1496.05111635749
20
215.575812961935
30
0.0
11
1495.98371253384
21
215.575812961935
31
0.0
  0
LINE
 8
GROUP0
10
1495.98371253384
20
215.575812961935
30
0.0
11
1495.91735463159
21
215.575812961935
31
0.0
  0
LINE
 8
GROUP0
10
1495.91735463159
20
215.575812961935
30
0.0
11
1495.86041002196
21
215.575812961935
31
0.0
  0
LINE
 8
GROUP0
10
1495.86041002196
20
215.575812961935
30
0.0
11
1495.82124607615
21
215.575812961935
31
0.0
  0
LINE
 8
GROUP0
10
1495.82124607615
20
215.575812961935
30
0.0
11
1495.80811193429
21
215.684597576401
31
0.0
  0
LINE
 8
GROUP0
10
1495.80811193429
20
215.684597576401
30
0.0
11
1495.80811193429
21
215.941687307228
31
0.0
  0
LINE
 8
GROUP0
10
1495.80811193429
20
215.941687307228
30
0.0
11
1495.80811193429
21
216.297415547026
31
0.0
  0
LINE
 8
GROUP0
10
1495.80811193429
20
216.297415547026
30
0.0
11
1495.80811193429
21
216.701413695468
31
0.0
  0
LINE
 8
GROUP0
10
1495.80811193429
20
216.701413695468
30
0.0
11
1495.80811193429
21
217.103313152231
31
0.0
  0
LINE
 8
GROUP0
10
1495.80811193429
20
217.103313152231
30
0.0
11
1495.80811193429
21
217.452745316988
31
0.0
  0
LINE
 8
GROUP0
10
1495.80811193429
20
217.452745316988
30
0.0
11
1495.80811193429
21
217.699341589414
31
0.0
  0
LINE
 8
GROUP0
10
1495.80811193429
20
217.699341589414
30
0.0
11
1495.80811193429
21
217.792733369184
31
0.0
  0
LINE
 8
GROUP0
10
1496.17639288462
20
217.247029884322
30
0.0
11
1496.17720743176
21
217.207219426761
31
0.0
  0
LINE
 8
GROUP0
10
1496.17720743176
20
217.207219426761
30
0.0
11
1496.17991651199
21
217.168999414421
31
0.0
  0
LINE
 8
GROUP0
10
1496.17991651199
20
217.168999414421
30
0.0
11
1496.18491828355
21
217.132339219746
31
0.0
  0
LINE
 8
GROUP0
10
1496.18491828355
20
217.132339219746
30
0.0
11
1496.19261090466
21
217.097208215181
31
0.0
  0
LINE
 8
GROUP0
10
1496.19261090466
20
217.097208215181
30
0.0
11
1496.21971793978
21
217.016009383785
31
0.0
  0
LINE
 8
GROUP0
10
1496.21971793978
20
217.016009383785
30
0.0
11
1496.26264860564
21
216.931816863208
31
0.0
  0
LINE
 8
GROUP0
10
1496.26264860564
20
216.931816863208
30
0.0
11
1496.31738263929
21
216.85692062621
31
0.0
  0
LINE
 8
GROUP0
10
1496.31738263929
20
216.85692062621
30
0.0
11
1496.38265473983
21
216.792398379911
31
0.0
  0
LINE
 8
GROUP0
10
1496.38265473983
20
216.792398379911
30
0.0
11
1496.45719960636
21
216.739327831433
31
0.0
  0
LINE
 8
GROUP0
10
1496.45719960636
20
216.739327831433
30
0.0
11
1496.53975193798
21
216.698786687897
31
0.0
  0
LINE
 8
GROUP0
10
1496.53975193798
20
216.698786687897
30
0.0
11
1496.62904643379
21
216.671852656423
31
0.0
  0
LINE
 8
GROUP0
10
1496.62904643379
20
216.671852656423
30
0.0
11
1496.72381779289
21
216.659603444134
31
0.0
  0
LINE
 8
GROUP0
10
1496.72381779289
20
216.659603444134
30
0.0
11
1496.8514063474
21
216.666254692069
31
0.0
  0
LINE
 8
GROUP0
10
1496.8514063474
20
216.666254692069
30
0.0
11
1496.97767319935
21
216.700074682283
31
0.0
  0
LINE
 8
GROUP0
10
1496.97767319935
20
216.700074682283
30
0.0
11
1497.08779987629
21
216.759682527595
31
0.0
  0
LINE
 8
GROUP0
10
1497.08779987629
20
216.759682527595
30
0.0
11
1497.18108194445
21
216.843154434652
31
0.0
  0
LINE
 8
GROUP0
10
1497.18108194445
20
216.843154434652
30
0.0
11
1497.25681497003
21
216.948566610103
31
0.0
  0
LINE
 8
GROUP0
10
1497.25681497003
20
216.948566610103
30
0.0
11
1497.31429451924
21
217.073995260597
31
0.0
  0
LINE
 8
GROUP0
10
1497.31429451924
20
217.073995260597
30
0.0
11
1497.35281615832
21
217.217516592783
31
0.0
  0
LINE
 8
GROUP0
10
1497.35281615832
20
217.217516592783
30
0.0
11
1497.37167545346
21
217.37720681331
31
0.0
  0
LINE
 8
GROUP0
10
1497.37167545346
20
217.37720681331
30
0.0
11
1497.3703912931
21
217.534715151613
31
0.0
  0
LINE
 8
GROUP0
10
1497.3703912931
20
217.534715151613
30
0.0
11
1497.3497413928
21
217.67700483154
31
0.0
  0
LINE
 8
GROUP0
10
1497.3497413928
20
217.67700483154
30
0.0
11
1497.3102380442
21
217.809148313214
31
0.0
  0
LINE
 8
GROUP0
10
1497.3102380442
20
217.809148313214
30
0.0
11
1497.25230237619
21
217.927853134382
31
0.0
  0
LINE
 8
GROUP0
10
1497.25230237619
20
217.927853134382
30
0.0
11
1497.17635551767
21
218.029826832791
31
0.0
  0
LINE
 8
GROUP0
10
1497.17635551767
20
218.029826832791
30
0.0
11
1497.08281859752
21
218.111776946189
31
0.0
  0
LINE
 8
GROUP0
10
1497.08281859752
20
218.111776946189
30
0.0
11
1496.97211274464
21
218.170411012323
31
0.0
  0
LINE
 8
GROUP0
10
1496.97211274464
20
218.170411012323
30
0.0
11
1496.84465908792
21
218.202436568939
31
0.0
  0
LINE
 8
GROUP0
10
1496.84465908792
20
218.202436568939
30
0.0
11
1496.72451037394
21
218.206056976156
31
0.0
  0
LINE
 8
GROUP0
10
1496.72451037394
20
218.206056976156
30
0.0
11
1496.63288235657
21
218.191520873809
31
0.0
  0
LINE
 8
GROUP0
10
1496.63288235657
20
218.191520873809
30
0.0
11
1496.54495917962
21
218.162110170816
31
0.0
  0
LINE
 8
GROUP0
10
1496.54495917962
20
218.162110170816
30
0.0
11
1496.46252681244
21
218.118672867629
31
0.0
  0
LINE
 8
GROUP0
10
1496.46252681244
20
218.118672867629
30
0.0
11
1496.38737122437
21
218.062056964701
31
0.0
  0
LINE
 8
GROUP0
10
1496.38737122437
20
218.062056964701
30
0.0
11
1496.32127838477
21
217.993110462484
31
0.0
  0
LINE
 8
GROUP0
10
1496.32127838477
20
217.993110462484
30
0.0
11
1496.26603426298
21
217.912681361429
31
0.0
  0
LINE
 8
GROUP0
10
1496.26603426298
20
217.912681361429
30
0.0
11
1496.22342482836
21
217.82161766199
31
0.0
  0
LINE
 8
GROUP0
10
1496.22342482836
20
217.82161766199
30
0.0
11
1496.20037375019
21
217.745587307844
31
0.0
  0
LINE
 8
GROUP0
10
1496.20037375019
20
217.745587307844
30
0.0
11
1496.1912951801
21
217.709635648858
31
0.0
  0
LINE
 8
GROUP0
10
1496.1912951801
20
217.709635648858
30
0.0
11
1496.1835390641
21
217.672388881797
31
0.0
  0
LINE
 8
GROUP0
10
1496.1835390641
20
217.672388881797
30
0.0
11
1496.17820799423
21
217.635332443118
31
0.0
  0
LINE
 8
GROUP0
10
1496.17820799423
20
217.635332443118
30
0.0
11
1496.17639288462
21
217.602067428532
31
0.0
  0
LINE
 8
GROUP0
10
1496.17639288462
20
217.602067428532
30
0.0
11
1496.17639288462
21
217.541515474487
31
0.0
  0
LINE
 8
GROUP0
10
1496.17639288462
20
217.541515474487
30
0.0
11
1496.17639288462
21
217.484442437058
31
0.0
  0
LINE
 8
GROUP0
10
1496.17639288462
20
217.484442437058
30
0.0
11
1496.17639288462
21
217.420035467306
31
0.0
  0
LINE
 8
GROUP0
10
1496.17639288462
20
217.420035467306
30
0.0
11
1496.17639288462
21
217.356192646194
31
0.0
  0
LINE
 8
GROUP0
10
1496.17639288462
20
217.356192646194
30
0.0
11
1496.17639288462
21
217.300812054685
31
0.0
  0
LINE
 8
GROUP0
10
1496.17639288462
20
217.300812054685
30
0.0
11
1496.17639288462
21
217.247029884322
31
0.0
  0
LINE
 8
GROUP0
10
1500.07004237066
20
217.454424769352
30
0.0
11
1500.04774296237
21
217.197620163244
31
0.0
  0
LINE
 8
GROUP0
10
1500.04774296237
20
217.197620163244
30
0.0
11
1499.98488302823
21
216.977474457288
31
0.0
  0
LINE
 8
GROUP0
10
1499.98488302823
20
216.977474457288
30
0.0
11
1499.88752000434
21
216.792942186976
31
0.0
  0
LINE
 8
GROUP0
10
1499.88752000434
20
216.792942186976
30
0.0
11
1499.76171132679
21
216.642977887796
31
0.0
  0
LINE
 8
GROUP0
10
1499.76171132679
20
216.642977887796
30
0.0
11
1499.61351443169
21
216.526536095238
31
0.0
  0
LINE
 8
GROUP0
10
1499.61351443169
20
216.526536095238
30
0.0
11
1499.44898675513
21
216.442571344791
31
0.0
  0
LINE
 8
GROUP0
10
1499.44898675513
20
216.442571344791
30
0.0
11
1499.2741857332
21
216.390038171946
31
0.0
  0
LINE
 8
GROUP0
10
1499.2741857332
20
216.390038171946
30
0.0
11
1499.09516880202
21
216.367891112192
31
0.0
  0
LINE
 8
GROUP0
10
1499.09516880202
20
216.367891112192
30
0.0
11
1498.90363243908
21
216.376926184714
31
0.0
  0
LINE
 8
GROUP0
10
1498.90363243908
20
216.376926184714
30
0.0
11
1498.71942415386
21
216.420232933856
31
0.0
  0
LINE
 8
GROUP0
10
1498.71942415386
20
216.420232933856
30
0.0
11
1498.55150707706
21
216.496260145324
31
0.0
  0
LINE
 8
GROUP0
10
1498.55150707706
20
216.496260145324
30
0.0
11
1498.40322927196
21
216.603244518059
31
0.0
  0
LINE
 8
GROUP0
10
1498.40322927196
20
216.603244518059
30
0.0
11
1498.27793880185
21
216.739422751004
31
0.0
  0
LINE
 8
GROUP0
10
1498.27793880185
20
216.739422751004
30
0.0
11
1498.17898372999
21
216.9030315431
31
0.0
  0
LINE
 8
GROUP0
10
1498.17898372999
20
216.9030315431
30
0.0
11
1498.10971211969
21
217.09230759329
31
0.0
  0
LINE
 8
GROUP0
10
1498.10971211969
20
217.09230759329
30
0.0
11
1498.07347203421
21
217.305487600515
31
0.0
  0
LINE
 8
GROUP0
10
1498.07347203421
20
217.305487600515
30
0.0
11
1498.07369712506
21
217.541251456846
31
0.0
  0
LINE
 8
GROUP0
10
1498.07369712506
20
217.541251456846
30
0.0
11
1498.11162128882
21
217.763646364811
31
0.0
  0
LINE
 8
GROUP0
10
1498.11162128882
20
217.763646364811
30
0.0
11
1498.18396295412
21
217.959448189596
31
0.0
  0
LINE
 8
GROUP0
10
1498.18396295412
20
217.959448189596
30
0.0
11
1498.28706299519
21
218.127348259958
31
0.0
  0
LINE
 8
GROUP0
10
1498.28706299519
20
218.127348259958
30
0.0
11
1498.41726228624
21
218.266037904651
31
0.0
  0
LINE
 8
GROUP0
10
1498.41726228624
20
218.266037904651
30
0.0
11
1498.57090170148
21
218.374208452432
31
0.0
  0
LINE
 8
GROUP0
10
1498.57090170148
20
218.374208452432
30
0.0
11
1498.74432211511
21
218.450551232055
31
0.0
  0
LINE
 8
GROUP0
10
1498.74432211511
20
218.450551232055
30
0.0
11
1498.93386440137
21
218.493757572276
31
0.0
  0
LINE
 8
GROUP0
10
1498.93386440137
20
218.493757572276
30
0.0
11
1499.13733096232
21
218.502458459675
31
0.0
  0
LINE
 8
GROUP0
10
1499.13733096232
20
218.502458459675
30
0.0
11
1499.33786719139
21
218.475006541818
31
0.0
  0
LINE
 8
GROUP0
10
1499.33786719139
20
218.475006541818
30
0.0
11
1499.51884329485
21
218.412991254346
31
0.0
  0
LINE
 8
GROUP0
10
1499.51884329485
20
218.412991254346
30
0.0
11
1499.67804686363
21
218.318901097289
31
0.0
  0
LINE
 8
GROUP0
10
1499.67804686363
20
218.318901097289
30
0.0
11
1499.81326548869
21
218.19522457068
31
0.0
  0
LINE
 8
GROUP0
10
1499.81326548869
20
218.19522457068
30
0.0
11
1499.92228676098
21
218.04445017455
31
0.0
  0
LINE
 8
GROUP0
10
1499.92228676098
20
218.04445017455
30
0.0
11
1500.00289827143
21
217.86906640893
31
0.0
  0
LINE
 8
GROUP0
10
1500.00289827143
20
217.86906640893
30
0.0
11
1500.05288761101
21
217.671561773854
31
0.0
  0
LINE
 8
GROUP0
10
1500.05288761101
20
217.671561773854
30
0.0
11
1500.07004237066
21
217.454424769352
31
0.0
  0
LINE
 8
GROUP0
10
1498.44964064021
20
217.433065163252
30
0.0
11
1498.46057553023
21
217.275269179142
31
0.0
  0
LINE
 8
GROUP0
10
1498.46057553023
20
217.275269179142
30
0.0
11
1498.49235436893
21
217.129603712383
31
0.0
  0
LINE
 8
GROUP0
10
1498.49235436893
20
217.129603712383
30
0.0
11
1498.54343840925
21
216.998511247844
31
0.0
  0
LINE
 8
GROUP0
10
1498.54343840925
20
216.998511247844
30
0.0
11
1498.61228890411
21
216.884434270393
31
0.0
  0
LINE
 8
GROUP0
10
1498.61228890411
20
216.884434270393
30
0.0
11
1498.69736710648
21
216.789815264899
31
0.0
  0
LINE
 8
GROUP0
10
1498.69736710648
20
216.789815264899
30
0.0
11
1498.79713426927
21
216.71709671623
31
0.0
  0
LINE
 8
GROUP0
10
1498.79713426927
20
216.71709671623
30
0.0
11
1498.91005164543
21
216.668721109255
31
0.0
  0
LINE
 8
GROUP0
10
1498.91005164543
20
216.668721109255
30
0.0
11
1499.0345804879
21
216.647130928841
31
0.0
  0
LINE
 8
GROUP0
10
1499.0345804879
20
216.647130928841
30
0.0
11
1499.16193039062
21
216.654334593071
31
0.0
  0
LINE
 8
GROUP0
10
1499.16193039062
20
216.654334593071
30
0.0
11
1499.27981287959
21
216.689337599226
31
0.0
  0
LINE
 8
GROUP0
10
1499.27981287959
20
216.689337599226
30
0.0
11
1499.38654773511
21
216.749927797091
31
0.0
  0
LINE
 8
GROUP0
10
1499.38654773511
20
216.749927797091
30
0.0
11
1499.48023361061
21
216.833892777613
31
0.0
  0
LINE
 8
GROUP0
10
1499.48023361061
20
216.833892777613
30
0.0
11
1499.55896915955
21
216.939020131741
31
0.0
  0
LINE
 8
GROUP0
10
1499.55896915955
20
216.939020131741
30
0.0
11
1499.62085303538
21
217.063097450423
31
0.0
  0
LINE
 8
GROUP0
10
1499.62085303538
20
217.063097450423
30
0.0
11
1499.66398389156
21
217.203912324607
31
0.0
  0
LINE
 8
GROUP0
10
1499.66398389156
20
217.203912324607
30
0.0
11
1499.68646038154
21
217.35925234524
31
0.0
  0
LINE
 8
GROUP0
10
1499.68646038154
20
217.35925234524
30
0.0
11
1499.68742691087
21
217.505617146617
31
0.0
  0
LINE
 8
GROUP0
10
1499.68742691087
20
217.505617146617
30
0.0
11
1499.67159623755
21
217.636568977313
31
0.0
  0
LINE
 8
GROUP0
10
1499.67159623755
20
217.636568977313
30
0.0
11
1499.6389806131
21
217.766946538771
31
0.0
  0
LINE
 8
GROUP0
10
1499.6389806131
20
217.766946538771
30
0.0
11
1499.58858426941
21
217.891143343493
31
0.0
  0
LINE
 8
GROUP0
10
1499.58858426941
20
217.891143343493
30
0.0
11
1499.51941143832
21
218.003552903983
31
0.0
  0
LINE
 8
GROUP0
10
1499.51941143832
20
218.003552903983
30
0.0
11
1499.43046635171
21
218.098568732741
31
0.0
  0
LINE
 8
GROUP0
10
1499.43046635171
20
218.098568732741
30
0.0
11
1499.32075324144
21
218.170584342272
31
0.0
  0
LINE
 8
GROUP0
10
1499.32075324144
20
218.170584342272
30
0.0
11
1499.18927633939
21
218.213993245076
31
0.0
  0
LINE
 8
GROUP0
10
1499.18927633939
20
218.213993245076
30
0.0
11
1499.03684320687
21
218.223297060532
31
0.0
  0
LINE
 8
GROUP0
10
1499.03684320687
20
218.223297060532
30
0.0
11
1498.8944074869
21
218.197916400214
31
0.0
  0
LINE
 8
GROUP0
10
1498.8944074869
20
218.197916400214
30
0.0
11
1498.77287415487
21
218.142435380969
31
0.0
  0
LINE
 8
GROUP0
10
1498.77287415487
20
218.142435380969
30
0.0
11
1498.67165421668
21
218.061418706998
31
0.0
  0
LINE
 8
GROUP0
10
1498.67165421668
20
218.061418706998
30
0.0
11
1498.59015867824
21
217.959431082501
31
0.0
  0
LINE
 8
GROUP0
10
1498.59015867824
20
217.959431082501
30
0.0
11
1498.52779854547
21
217.841037211677
31
0.0
  0
LINE
 8
GROUP0
10
1498.52779854547
20
217.841037211677
30
0.0
11
1498.48398482426
21
217.710801798728
31
0.0
  0
LINE
 8
GROUP0
10
1498.48398482426
20
217.710801798728
30
0.0
11
1498.45812852054
21
217.573289547853
31
0.0
  0
LINE
 8
GROUP0
10
1498.45812852054
20
217.573289547853
30
0.0
11
1498.44964064021
21
217.433065163252
31
0.0
  0
LINE
 8
GROUP0
10
1500.98953896226
20
218.952008764738
30
0.0
11
1500.98953896226
21
218.914282528241
31
0.0
  0
LINE
 8
GROUP0
10
1500.98953896226
20
218.914282528241
30
0.0
11
1500.98953896226
21
218.820392420869
31
0.0
  0
LINE
 8
GROUP0
10
1500.98953896226
20
218.820392420869
30
0.0
11
1500.98953896226
21
218.699271345801
31
0.0
  0
LINE
 8
GROUP0
10
1500.98953896226
20
218.699271345801
30
0.0
11
1500.98953896226
21
218.579852206213
31
0.0
  0
LINE
 8
GROUP0
10
1500.98953896226
20
218.579852206213
30
0.0
11
1500.98953896226
21
218.491067905285
31
0.0
  0
LINE
 8
GROUP0
10
1500.98953896226
20
218.491067905285
30
0.0
11
1500.99016998291
21
218.461254589116
31
0.0
  0
LINE
 8
GROUP0
10
1500.99016998291
20
218.461254589116
30
0.0
11
1501.0399470656
21
218.461254589116
31
0.0
  0
LINE
 8
GROUP0
10
1501.0399470656
20
218.461254589116
30
0.0
11
1501.14702124893
21
218.461254589116
31
0.0
  0
LINE
 8
GROUP0
10
1501.14702124893
20
218.461254589116
30
0.0
11
1501.27997154223
21
218.461254589116
31
0.0
  0
LINE
 8
GROUP0
10
1501.27997154223
20
218.461254589116
30
0.0
11
1501.40737695482
21
218.461254589116
31
0.0
  0
LINE
 8
GROUP0
10
1501.40737695482
20
218.461254589116
30
0.0
11
1501.49781649603
21
218.461254589116
31
0.0
  0
LINE
 8
GROUP0
10
1501.49781649603
20
218.461254589116
30
0.0
11
1501.52249558542
21
218.429014535751
31
0.0
  0
LINE
 8
GROUP0
10
1501.52249558542
20
218.429014535751
30
0.0
11
1501.52249558542
21
218.369600326418
31
0.0
  0
LINE
 8
GROUP0
10
1501.52249558542
20
218.369600326418
30
0.0
11
1501.52249558542
21
218.298393836848
31
0.0
  0
LINE
 8
GROUP0
10
1501.52249558542
20
218.298393836848
30
0.0
11
1501.52249558542
21
218.232100797377
31
0.0
  0
LINE
 8
GROUP0
10
1501.52249558542
20
218.232100797377
30
0.0
11
1501.52249558542
21
218.18742693834
31
0.0
  0
LINE
 8
GROUP0
10
1501.52249558542
20
218.18742693834
30
0.0
11
1501.45088433579
21
218.177895298523
31
0.0
  0
LINE
 8
GROUP0
10
1501.45088433579
20
218.177895298523
30
0.0
11
1501.33489485407
21
218.177895298523
31
0.0
  0
LINE
 8
GROUP0
10
1501.33489485407
20
218.177895298523
30
0.0
11
1501.20042243665
21
218.177895298523
31
0.0
  0
LINE
 8
GROUP0
10
1501.20042243665
20
218.177895298523
30
0.0
11
1501.07888807422
21
218.177895298523
31
0.0
  0
LINE
 8
GROUP0
10
1501.07888807422
20
218.177895298523
30
0.0
11
1501.00171275745
21
218.177895298523
31
0.0
  0
LINE
 8
GROUP0
10
1501.00171275745
20
218.177895298523
30
0.0
11
1500.98953896226
21
218.005344347537
31
0.0
  0
LINE
 8
GROUP0
10
1500.98953896226
20
218.005344347537
30
0.0
11
1500.98953896226
21
217.757120555812
31
0.0
  0
LINE
 8
GROUP0
10
1500.98953896226
20
217.757120555812
30
0.0
11
1500.98953896226
21
217.478258341148
31
0.0
  0
LINE
 8
GROUP0
10
1500.98953896226
20
217.478258341148
30
0.0
11
1500.98953896226
21
217.23386435229
31
0.0
  0
LINE
 8
GROUP0
10
1500.98953896226
20
217.23386435229
30
0.0
11
1500.98953896226
21
217.089045237983
31
0.0
  0
LINE
 8
GROUP0
10
1500.98953896226
20
217.089045237983
30
0.0
11
1500.99175760522
21
217.00073398894
31
0.0
  0
LINE
 8
GROUP0
10
1500.99175760522
20
217.00073398894
30
0.0
11
1501.0065027287
21
216.892644247977
31
0.0
  0
LINE
 8
GROUP0
10
1501.0065027287
20
216.892644247977
30
0.0
11
1501.03668713702
21
216.805221463808
31
0.0
  0
LINE
 8
GROUP0
10
1501.03668713702
20
216.805221463808
30
0.0
11
1501.08418959012
21
216.73946087143
31
0.0
  0
LINE
 8
GROUP0
10
1501.08418959012
20
216.73946087143
30
0.0
11
1501.15088884796
21
216.696357705842
31
0.0
  0
LINE
 8
GROUP0
10
1501.15088884796
20
216.696357705842
30
0.0
11
1501.23866367048
21
216.676907202043
31
0.0
  0
LINE
 8
GROUP0
10
1501.23866367048
20
216.676907202043
30
0.0
11
1501.30353169832
21
216.676197305199
31
0.0
  0
LINE
 8
GROUP0
10
1501.30353169832
20
216.676197305199
30
0.0
11
1501.34731347875
21
216.677962211555
31
0.0
  0
LINE
 8
GROUP0
10
1501.34731347875
20
216.677962211555
30
0.0
11
1501.38569165882
21
216.681190698791
31
0.0
  0
LINE
 8
GROUP0
10
1501.38569165882
20
216.681190698791
30
0.0
11
1501.41978841679
21
216.685882766908
31
0.0
  0
LINE
 8
GROUP0
10
1501.41978841679
20
216.685882766908
30
0.0
11
1501.45072593089
21
216.692038415906
31
0.0
  0
LINE
 8
GROUP0
10
1501.45072593089
20
216.692038415906
30
0.0
11
1501.47962637935
21
216.699657645784
31
0.0
  0
LINE
 8
GROUP0
10
1501.47962637935
20
216.699657645784
30
0.0
11
1501.48846049384
21
216.636344774348
31
0.0
  0
LINE
 8
GROUP0
10
1501.48846049384
20
216.636344774348
30
0.0
11
1501.49253384032
21
216.567970744246
31
0.0
  0
LINE
 8
GROUP0
10
1501.49253384032
20
216.567970744246
30
0.0
11
1501.49672427326
21
216.497631334105
31
0.0
  0
LINE
 8
GROUP0
10
1501.49672427326
20
216.497631334105
30
0.0
11
1501.50003655768
21
216.442032274261
31
0.0
  0
LINE
 8
GROUP0
10
1501.50003655768
20
216.442032274261
30
0.0
11
1501.46372962601
21
216.405674107099
31
0.0
  0
LINE
 8
GROUP0
10
1501.46372962601
20
216.405674107099
30
0.0
11
1501.41686232542
21
216.393516130768
31
0.0
  0
LINE
 8
GROUP0
10
1501.41686232542
20
216.393516130768
30
0.0
11
1501.36339666459
21
216.382827111738
31
0.0
  0
LINE
 8
GROUP0
10
1501.36339666459
20
216.382827111738
30
0.0
11
1501.30370331776
21
216.374348398527
31
0.0
  0
LINE
 8
GROUP0
10
1501.30370331776
20
216.374348398527
30
0.0
11
1501.2381529592
21
216.368821339654
31
0.0
  0
LINE
 8
GROUP0
10
1501.2381529592
20
216.368821339654
30
0.0
11
1501.16624644936
21
216.366997366408
31
0.0
  0
LINE
 8
GROUP0
10
1501.16624644936
20
216.366997366408
30
0.0
11
1501.08115247772
21
216.372602020251
31
0.0
  0
LINE
 8
GROUP0
10
1501.08115247772
20
216.372602020251
30
0.0
11
1501.00244509514
21
216.38780656991
31
0.0
  0
LINE
 8
GROUP0
10
1501.00244509514
20
216.38780656991
30
0.0
11
1500.93062699685
21
216.412001687834
31
0.0
  0
LINE
 8
GROUP0
10
1500.93062699685
20
216.412001687834
30
0.0
11
1500.86620087808
21
216.444578046475
31
0.0
  0
LINE
 8
GROUP0
10
1500.86620087808
20
216.444578046475
30
0.0
11
1500.80966943405
21
216.484926318281
31
0.0
  0
LINE
 8
GROUP0
10
1500.80966943405
20
216.484926318281
30
0.0
11
1500.76042551383
21
216.53402035608
31
0.0
  0
LINE
 8
GROUP0
10
1500.76042551383
20
216.53402035608
30
0.0
11
1500.71549659405
21
216.600138366153
31
0.0
  0
LINE
 8
GROUP0
10
1500.71549659405
20
216.600138366153
30
0.0
11
1500.68025120328
21
216.677702176093
31
0.0
  0
LINE
 8
GROUP0
10
1500.68025120328
20
216.677702176093
30
0.0
11
1500.65418664629
21
216.766462977148
31
0.0
  0
LINE
 8
GROUP0
10
1500.65418664629
20
216.766462977148
30
0.0
11
1500.63680022786
21
216.86617196057
31
0.0
  0
LINE
 8
GROUP0
10
1500.63680022786
20
216.86617196057
30
0.0
11
1500.62758925274
21
216.976580317608
31
0.0
  0
LINE
 8
GROUP0
10
1500.62758925274
20
216.976580317608
30
0.0
11
1500.62573663902
21
217.068921129378
31
0.0
  0
LINE
 8
GROUP0
10
1500.62573663902
20
217.068921129378
30
0.0
11
1500.62573663902
21
217.199232157056
31
0.0
  0
LINE
 8
GROUP0
10
1500.62573663902
20
217.199232157056
30
0.0
11
1500.62573663902
21
217.438015436278
31
0.0
  0
LINE
 8
GROUP0
10
1500.62573663902
20
217.438015436278
30
0.0
11
1500.62573663902
21
217.719412814322
31
0.0
  0
LINE
 8
GROUP0
10
1500.62573663902
20
217.719412814322
30
0.0
11
1500.62573663902
21
217.977566138463
31
0.0
  0
LINE
 8
GROUP0
10
1500.62573663902
20
217.977566138463
30
0.0
11
1500.62573663902
21
218.146617255979
31
0.0
  0
LINE
 8
GROUP0
10
1500.62573663902
20
218.146617255979
30
0.0
11
1500.62128767388
21
218.177895298523
31
0.0
  0
LINE
 8
GROUP0
10
1500.62128767388
20
218.177895298523
30
0.0
11
1500.57965584926
21
218.177895298523
31
0.0
  0
LINE
 8
GROUP0
10
1500.57965584926
20
218.177895298523
30
0.0
11
1500.50939877213
21
218.177895298523
31
0.0
  0
LINE
 8
GROUP0
10
1500.50939877213
20
218.177895298523
30
0.0
11
1500.42923295375
21
218.177895298523
31
0.0
  0
LINE
 8
GROUP0
10
1500.42923295375
20
218.177895298523
30
0.0
11
1500.35787490538
21
218.177895298523
31
0.0
  0
LINE
 8
GROUP0
10
1500.35787490538
20
218.177895298523
30
0.0
11
1500.31404113825
21
218.177895298523
31
0.0
  0
LINE
 8
GROUP0
10
1500.31404113825
20
218.177895298523
30
0.0
11
1500.30827088063
21
218.225399916873
31
0.0
  0
LINE
 8
GROUP0
10
1500.30827088063
20
218.225399916873
30
0.0
11
1500.30827088063
21
218.290016602781
31
0.0
  0
LINE
 8
GROUP0
10
1500.30827088063
20
218.290016602781
30
0.0
11
1500.30827088063
21
218.361512118827
31
0.0
  0
LINE
 8
GROUP0
10
1500.30827088063
20
218.361512118827
30
0.0
11
1500.30827088063
21
218.423180734676
31
0.0
  0
LINE
 8
GROUP0
10
1500.30827088063
20
218.423180734676
30
0.0
11
1500.30827088063
21
218.458316719991
31
0.0
  0
LINE
 8
GROUP0
10
1500.30827088063
20
218.458316719991
30
0.0
11
1500.36900081034
21
218.461254589116
31
0.0
  0
LINE
 8
GROUP0
10
1500.36900081034
20
218.461254589116
30
0.0
11
1500.44327319438
21
218.461254589116
31
0.0
  0
LINE
 8
GROUP0
10
1500.44327319438
20
218.461254589116
30
0.0
11
1500.52305043468
21
218.461254589116
31
0.0
  0
LINE
 8
GROUP0
10
1500.52305043468
20
218.461254589116
30
0.0
11
1500.58961601996
21
218.461254589116
31
0.0
  0
LINE
 8
GROUP0
10
1500.58961601996
20
218.461254589116
30
0.0
11
1500.624253439
21
218.461254589116
31
0.0
  0
LINE
 8
GROUP0
10
1500.624253439
20
218.461254589116
30
0.0
11
1500.62573663902
21
218.543519389459
31
0.0
  0
LINE
 8
GROUP0
10
1500.62573663902
20
218.543519389459
30
0.0
11
1500.62573663902
21
218.634564433816
31
0.0
  0
LINE
 8
GROUP0
10
1500.62573663902
20
218.634564433816
30
0.0
11
1500.62573663902
21
218.72957189939
31
0.0
  0
LINE
 8
GROUP0
10
1500.62573663902
20
218.72957189939
30
0.0
11
1500.62573663902
21
218.806088065953
31
0.0
  0
LINE
 8
GROUP0
10
1500.62573663902
20
218.806088065953
30
0.0
11
1500.62573663902
21
218.841659213279
31
0.0
  0
LINE
 8
GROUP0
10
1500.62573663902
20
218.841659213279
30
0.0
11
1500.71365456367
21
218.868668685995
31
0.0
  0
LINE
 8
GROUP0
10
1500.71365456367
20
218.868668685995
30
0.0
11
1500.8021814934
21
218.895411196018
31
0.0
  0
LINE
 8
GROUP0
10
1500.8021814934
20
218.895411196018
30
0.0
11
1500.89197008959
21
218.922534834451
31
0.0
  0
LINE
 8
GROUP0
10
1500.89197008959
20
218.922534834451
30
0.0
11
1500.96157202247
21
218.943560418341
31
0.0
  0
LINE
 8
GROUP0
10
1500.96157202247
20
218.943560418341
30
0.0
11
1500.98953896226
21
218.952008764738
31
0.0
  0
LINE
 8
GROUP0
10
1502.83955645829
20
219.417441471838
30
0.0
11
1502.9199981129
21
219.417441471838
31
0.0
  0
LINE
 8
GROUP0
10
1502.9199981129
20
219.417441471838
30
0.0
11
1502.9979259658
21
219.417441471838
31
0.0
  0
LINE
 8
GROUP0
10
1502.9979259658
20
219.417441471838
30
0.0
11
1503.08088142212
21
219.417441471838
31
0.0
  0
LINE
 8
GROUP0
10
1503.08088142212
20
219.417441471838
30
0.0
11
1503.15378167161
21
219.417441471838
31
0.0
  0
LINE
 8
GROUP0
10
1503.15378167161
20
219.417441471838
30
0.0
11
1503.20154390403
21
219.417441471838
31
0.0
  0
LINE
 8
GROUP0
10
1503.20154390403
20
219.417441471838
30
0.0
11
1503.21197152592
21
219.284121700762
31
0.0
  0
LINE
 8
GROUP0
10
1503.21197152592
20
219.284121700762
30
0.0
11
1503.21197152592
21
219.056260265099
31
0.0
  0
LINE
 8
GROUP0
10
1503.21197152592
20
219.056260265099
30
0.0
11
1503.21197152592
21
218.776481033969
31
0.0
  0
LINE
 8
GROUP0
10
1503.21197152592
20
218.776481033969
30
0.0
11
1503.21197152592
21
218.49670180284
31
0.0
  0
LINE
 8
GROUP0
10
1503.21197152592
20
218.49670180284
30
0.0
11
1503.21197152592
21
218.268840367177
31
0.0
  0
LINE
 8
GROUP0
10
1503.21197152592
20
218.268840367177
30
0.0
11
1503.21197152592
21
218.14481452245
31
0.0
  0
LINE
 8
GROUP0
10
1503.21197152592
20
218.14481452245
30
0.0
11
1503.24915177454
21
218.182459428629
31
0.0
  0
LINE
 8
GROUP0
10
1503.24915177454
20
218.182459428629
30
0.0
11
1503.28238329518
21
218.227746035336
31
0.0
  0
LINE
 8
GROUP0
10
1503.28238329518
20
218.227746035336
30
0.0
11
1503.31967271033
21
218.270867656485
31
0.0
  0
LINE
 8
GROUP0
10
1503.31967271033
20
218.270867656485
30
0.0
11
1503.3607584079
21
218.311311532338
31
0.0
  0
LINE
 8
GROUP0
10
1503.3607584079
20
218.311311532338
30
0.0
11
1503.40537877576
21
218.348564903156
31
0.0
  0
LINE
 8
GROUP0
10
1503.40537877576
20
218.348564903156
30
0.0
11
1503.45327220181
21
218.382115009204
31
0.0
  0
LINE
 8
GROUP0
10
1503.45327220181
20
218.382115009204
30
0.0
11
1503.50355702094
21
218.411488128007
31
0.0
  0
LINE
 8
GROUP0
10
1503.50355702094
20
218.411488128007
30
0.0
11
1503.55535544377
21
218.437064490699
31
0.0
  0
LINE
 8
GROUP0
10
1503.55535544377
20
218.437064490699
30
0.0
11
1503.60965604111
21
218.458878289874
31
0.0
  0
LINE
 8
GROUP0
10
1503.60965604111
20
218.458878289874
30
0.0
11
1503.66620766531
21
218.476671401583
31
0.0
  0
LINE
 8
GROUP0
10
1503.66620766531
20
218.476671401583
30
0.0
11
1503.72475916877
21
218.490185701877
31
0.0
  0
LINE
 8
GROUP0
10
1503.72475916877
20
218.490185701877
30
0.0
11
1503.78505940384
21
218.499163066805
31
0.0
  0
LINE
 8
GROUP0
10
1503.78505940384
20
218.499163066805
30
0.0
11
1503.84685722292
21
218.50334537242
31
0.0
  0
LINE
 8
GROUP0
10
1503.84685722292
20
218.50334537242
30
0.0
11
1503.95461385187
21
218.498185864826
31
0.0
  0
LINE
 8
GROUP0
10
1503.95461385187
20
218.498185864826
30
0.0
11
1504.09552336709
21
218.466198842695
31
0.0
  0
LINE
 8
GROUP0
10
1504.09552336709
20
218.466198842695
30
0.0
11
1504.2382757943
21
218.399080220859
31
0.0
  0
LINE
 8
GROUP0
10
1504.2382757943
20
218.399080220859
30
0.0
11
1504.37062419853
21
218.289466490432
31
0.0
  0
LINE
 8
GROUP0
10
1504.37062419853
20
218.289466490432
30
0.0
11
1504.48032164483
21
218.129994142532
31
0.0
  0
LINE
 8
GROUP0
10
1504.48032164483
20
218.129994142532
30
0.0
11
1504.55512119824
21
217.913299668274
31
0.0
  0
LINE
 8
GROUP0
10
1504.55512119824
20
217.913299668274
30
0.0
11
1504.58277592382
21
217.632019558775
31
0.0
  0
LINE
 8
GROUP0
10
1504.58277592382
20
217.632019558775
30
0.0
11
1504.58277592382
21
217.557993795847
31
0.0
  0
LINE
 8
GROUP0
10
1504.58277592382
20
217.557993795847
30
0.0
11
1504.58277592382
21
217.368816846144
31
0.0
  0
LINE
 8
GROUP0
10
1504.58277592382
20
217.368816846144
30
0.0
11
1504.58277592382
21
217.113839218284
31
0.0
  0
LINE
 8
GROUP0
10
1504.58277592382
20
217.113839218284
30
0.0
11
1504.58277592382
21
216.842411420884
31
0.0
  0
LINE
 8
GROUP0
10
1504.58277592382
20
216.842411420884
30
0.0
11
1504.58277592382
21
216.603883962563
31
0.0
  0
LINE
 8
GROUP0
10
1504.58277592382
20
216.603883962563
30
0.0
11
1504.58277592382
21
216.447607351939
31
0.0
  0
LINE
 8
GROUP0
10
1504.58277592382
20
216.447607351939
30
0.0
11
1504.58007591458
21
216.413488481784
31
0.0
  0
LINE
 8
GROUP0
10
1504.58007591458
20
216.413488481784
30
0.0
11
1504.54404475678
21
216.413488481784
31
0.0
  0
LINE
 8
GROUP0
10
1504.54404475678
20
216.413488481784
30
0.0
11
1504.47784797851
21
216.413488481784
31
0.0
  0
LINE
 8
GROUP0
10
1504.47784797851
20
216.413488481784
30
0.0
11
1504.39656839
21
216.413488481784
31
0.0
  0
LINE
 8
GROUP0
10
1504.39656839
20
216.413488481784
30
0.0
11
1504.31528880149
21
216.413488481784
31
0.0
  0
LINE
 8
GROUP0
10
1504.31528880149
20
216.413488481784
30
0.0
11
1504.24909202322
21
216.413488481784
31
0.0
  0
LINE
 8
GROUP0
10
1504.24909202322
20
216.413488481784
30
0.0
11
1504.21306086542
21
216.413488481784
31
0.0
  0
LINE
 8
GROUP0
10
1504.21306086542
20
216.413488481784
30
0.0
11
1504.21036085618
21
216.446425683408
31
0.0
  0
LINE
 8
GROUP0
10
1504.21036085618
20
216.446425683408
30
0.0
11
1504.21036085618
21
216.597289830136
31
0.0
  0
LINE
 8
GROUP0
10
1504.21036085618
20
216.597289830136
30
0.0
11
1504.21036085618
21
216.827556159352
31
0.0
  0
LINE
 8
GROUP0
10
1504.21036085618
20
216.827556159352
30
0.0
11
1504.21036085618
21
217.089583361563
31
0.0
  0
LINE
 8
GROUP0
10
1504.21036085618
20
217.089583361563
30
0.0
11
1504.21036085618
21
217.335730127277
31
0.0
  0
LINE
 8
GROUP0
10
1504.21036085618
20
217.335730127277
30
0.0
11
1504.21036085618
21
217.518355147
31
0.0
  0
LINE
 8
GROUP0
10
1504.21036085618
20
217.518355147
30
0.0
11
1504.21036085618
21
217.589817111239
31
0.0
  0
LINE
 8
GROUP0
10
1504.21036085618
20
217.589817111239
30
0.0
11
1504.20172533108
21
217.733816749962
31
0.0
  0
LINE
 8
GROUP0
10
1504.20172533108
20
217.733816749962
30
0.0
11
1504.174390935
21
217.865960127813
31
0.0
  0
LINE
 8
GROUP0
10
1504.174390935
20
217.865960127813
30
0.0
11
1504.1262159368
21
217.981785886262
31
0.0
  0
LINE
 8
GROUP0
10
1504.1262159368
20
217.981785886262
30
0.0
11
1504.05505860533
21
218.076832666774
31
0.0
  0
LINE
 8
GROUP0
10
1504.05505860533
20
218.076832666774
30
0.0
11
1503.95877720944
21
218.146639110818
31
0.0
  0
LINE
 8
GROUP0
10
1503.95877720944
20
218.146639110818
30
0.0
11
1503.83523001798
21
218.18674385986
31
0.0
  0
LINE
 8
GROUP0
10
1503.83523001798
20
218.18674385986
30
0.0
11
1503.70088136846
21
218.193525039564
31
0.0
  0
LINE
 8
GROUP0
10
1503.70088136846
20
218.193525039564
30
0.0
11
1503.59895108884
21
218.175592595182
31
0.0
  0
LINE
 8
GROUP0
10
1503.59895108884
20
218.175592595182
30
0.0
11
1503.50606212378
21
218.138586883828
31
0.0
  0
LINE
 8
GROUP0
10
1503.50606212378
20
218.138586883828
30
0.0
11
1503.42341440082
21
218.085329828139
31
0.0
  0
LINE
 8
GROUP0
10
1503.42341440082
20
218.085329828139
30
0.0
11
1503.35220784752
21
218.018643350753
31
0.0
  0
LINE
 8
GROUP0
10
1503.35220784752
20
218.018643350753
30
0.0
11
1503.29364239141
21
217.941349374306
31
0.0
  0
LINE
 8
GROUP0
10
1503.29364239141
20
217.941349374306
30
0.0
11
1503.24891796007
21
217.856269821435
31
0.0
  0
LINE
 8
GROUP0
10
1503.24891796007
20
217.856269821435
30
0.0
11
1503.23143546698
21
217.810165219329
31
0.0
  0
LINE
 8
GROUP0
10
1503.23143546698
20
217.810165219329
30
0.0
11
1503.2243981012
21
217.785229515629
31
0.0
  0
LINE
 8
GROUP0
10
1503.2243981012
20
217.785229515629
30
0.0
11
1503.2192269018
21
217.759851978142
31
0.0
  0
LINE
 8
GROUP0
10
1503.2192269018
20
217.759851978142
30
0.0
11
1503.21566025669
21
217.733781459241
31
0.0
  0
LINE
 8
GROUP0
10
1503.21566025669
20
217.733781459241
30
0.0
11
1503.21343655375
21
217.7067668113
31
0.0
  0
LINE
 8
GROUP0
10
1503.21343655375
20
217.7067668113
30
0.0
11
1503.21229418086
21
217.678556886691
31
0.0
  0
LINE
 8
GROUP0
10
1503.21229418086
20
217.678556886691
30
0.0
11
1503.21197152592
21
217.648900537789
31
0.0
  0
LINE
 8
GROUP0
10
1503.21197152592
20
217.648900537789
30
0.0
11
1503.21197152592
21
217.573849255386
31
0.0
  0
LINE
 8
GROUP0
10
1503.21197152592
20
217.573849255386
30
0.0
11
1503.21197152592
21
217.382051533691
31
0.0
  0
LINE
 8
GROUP0
10
1503.21197152592
20
217.382051533691
30
0.0
11
1503.21197152592
21
217.123541560972
31
0.0
  0
LINE
 8
GROUP0
10
1503.21197152592
20
217.123541560972
30
0.0
11
1503.21197152592
21
216.848353525497
31
0.0
  0
LINE
 8
GROUP0
10
1503.21197152592
20
216.848353525497
30
0.0
11
1503.21197152592
21
216.606521615534
31
0.0
  0
LINE
 8
GROUP0
10
1503.21197152592
20
216.606521615534
30
0.0
11
1503.21197152592
21
216.448080019352
31
0.0
  0
LINE
 8
GROUP0
10
1503.21197152592
20
216.448080019352
30
0.0
11
1503.20927151668
21
216.413488481784
31
0.0
  0
LINE
 8
GROUP0
10
1503.20927151668
20
216.413488481784
30
0.0
11
1503.17324035889
21
216.413488481784
31
0.0
  0
LINE
 8
GROUP0
10
1503.17324035889
20
216.413488481784
30
0.0
11
1503.10704358062
21
216.413488481784
31
0.0
  0
LINE
 8
GROUP0
10
1503.10704358062
20
216.413488481784
30
0.0
11
1503.02576399211
21
216.413488481784
31
0.0
  0
LINE
 8
GROUP0
10
1503.02576399211
20
216.413488481784
30
0.0
11
1502.9444844036
21
216.413488481784
31
0.0
  0
LINE
 8
GROUP0
10
1502.9444844036
20
216.413488481784
30
0.0
11
1502.87828762532
21
216.413488481784
31
0.0
  0
LINE
 8
GROUP0
10
1502.87828762532
20
216.413488481784
30
0.0
11
1502.84225646753
21
216.413488481784
31
0.0
  0
LINE
 8
GROUP0
10
1502.84225646753
20
216.413488481784
30
0.0
11
1502.83955645829
21
216.497599165505
31
0.0
  0
LINE
 8
GROUP0
10
1502.83955645829
20
216.497599165505
30
0.0
11
1502.83955645829
21
216.88285613648
31
0.0
  0
LINE
 8
GROUP0
10
1502.83955645829
20
216.88285613648
30
0.0
11
1502.83955645829
21
217.470879934283
31
0.0
  0
LINE
 8
GROUP0
10
1502.83955645829
20
217.470879934283
30
0.0
11
1502.83955645829
21
218.140010462818
31
0.0
  0
LINE
 8
GROUP0
10
1502.83955645829
20
218.140010462818
30
0.0
11
1502.83955645829
21
218.768587625987
31
0.0
  0
LINE
 8
GROUP0
10
1502.83955645829
20
218.768587625987
30
0.0
11
1502.83955645829
21
219.234951327692
31
0.0
  0
LINE
 8
GROUP0
10
1502.83955645829
20
219.234951327692
30
0.0
11
1502.83955645829
21
219.417441471838
31
0.0
  0
LINE
 8
GROUP0
10
1506.62761369806
20
216.904242657405
30
0.0
11
1506.62812181552
21
216.82992372286
31
0.0
  0
LINE
 8
GROUP0
10
1506.62812181552
20
216.82992372286
30
0.0
11
1506.62969343467
21
216.756610759616
31
0.0
  0
LINE
 8
GROUP0
10
1506.62969343467
20
216.756610759616
30
0.0
11
1506.63239945561
21
216.68478305243
31
0.0
  0
LINE
 8
GROUP0
10
1506.63239945561
20
216.68478305243
30
0.0
11
1506.63631077844
21
216.614919886057
31
0.0
  0
LINE
 8
GROUP0
10
1506.63631077844
20
216.614919886057
30
0.0
11
1506.6414983033
21
216.547500545255
31
0.0
  0
LINE
 8
GROUP0
10
1506.6414983033
20
216.547500545255
30
0.0
11
1506.64803293027
21
216.483004314778
31
0.0
  0
LINE
 8
GROUP0
10
1506.64803293027
20
216.483004314778
30
0.0
11
1506.65598555948
21
216.421910479384
31
0.0
  0
LINE
 8
GROUP0
10
1506.65598555948
20
216.421910479384
30
0.0
11
1506.60121785513
21
216.413488481784
31
0.0
  0
LINE
 8
GROUP0
10
1506.60121785513
20
216.413488481784
30
0.0
11
1506.53961212093
21
216.413488481784
31
0.0
  0
LINE
 8
GROUP0
10
1506.53961212093
20
216.413488481784
30
0.0
11
1506.4701466029
21
216.413488481784
31
0.0
  0
LINE
 8
GROUP0
10
1506.4701466029
20
216.413488481784
30
0.0
11
1506.4038249984
21
216.413488481784
31
0.0
  0
LINE
 8
GROUP0
10
1506.4038249984
20
216.413488481784
30
0.0
11
1506.35165100479
21
216.413488481784
31
0.0
  0
LINE
 8
GROUP0
10
1506.35165100479
20
216.413488481784
30
0.0
11
1506.32462831943
21
216.413488481784
31
0.0
  0
LINE
 8
GROUP0
10
1506.32462831943
20
216.413488481784
30
0.0
11
1506.31876651592
21
216.450968190874
31
0.0
  0
LINE
 8
GROUP0
10
1506.31876651592
20
216.450968190874
30
0.0
11
1506.3134837534
21
216.497008080436
31
0.0
  0
LINE
 8
GROUP0
10
1506.3134837534
20
216.497008080436
30
0.0
11
1506.30736477472
21
216.550335691211
31
0.0
  0
LINE
 8
GROUP0
10
1506.30736477472
20
216.550335691211
30
0.0
11
1506.30138516539
21
216.602448681783
31
0.0
  0
LINE
 8
GROUP0
10
1506.30138516539
20
216.602448681783
30
0.0
11
1506.29652051097
21
216.644844710739
31
0.0
  0
LINE
 8
GROUP0
10
1506.29652051097
20
216.644844710739
30
0.0
11
1506.29320752858
21
216.671698558743
31
0.0
  0
LINE
 8
GROUP0
10
1506.29320752858
20
216.671698558743
30
0.0
11
1506.25900049148
21
216.642950626309
31
0.0
  0
LINE
 8
GROUP0
10
1506.25900049148
20
216.642950626309
30
0.0
11
1506.19974771495
21
216.578227544413
31
0.0
  0
LINE
 8
GROUP0
10
1506.19974771495
20
216.578227544413
30
0.0
11
1506.12885111433
21
216.518491778957
31
0.0
  0
LINE
 8
GROUP0
10
1506.12885111433
20
216.518491778957
30
0.0
11
1506.04686654651
21
216.465830629234
31
0.0
  0
LINE
 8
GROUP0
10
1506.04686654651
20
216.465830629234
30
0.0
11
1505.95434986836
21
216.422331394538
31
0.0
  0
LINE
 8
GROUP0
10
1505.95434986836
20
216.422331394538
30
0.0
11
1505.85185693675
21
216.39008137416
31
0.0
  0
LINE
 8
GROUP0
10
1505.85185693675
20
216.39008137416
30
0.0
11
1505.73994360856
21
216.371167867395
31
0.0
  0
LINE
 8
GROUP0
10
1505.73994360856
20
216.371167867395
30
0.0
11
1505.60576629478
21
216.368362706192
31
0.0
  0
LINE
 8
GROUP0
10
1505.60576629478
20
216.368362706192
30
0.0
11
1505.45042707252
21
216.393680673116
31
0.0
  0
LINE
 8
GROUP0
10
1505.45042707252
20
216.393680673116
30
0.0
11
1505.31913676305
21
216.447241598313
31
0.0
  0
LINE
 8
GROUP0
10
1505.31913676305
20
216.447241598313
30
0.0
11
1505.21204000262
21
216.524306518306
31
0.0
  0
LINE
 8
GROUP0
10
1505.21204000262
20
216.524306518306
30
0.0
11
1505.12928142744
21
216.620136469619
31
0.0
  0
LINE
 8
GROUP0
10
1505.12928142744
20
216.620136469619
30
0.0
11
1505.07100567374
21
216.729992488775
31
0.0
  0
LINE
 8
GROUP0
10
1505.07100567374
20
216.729992488775
30
0.0
11
1505.03735737776
21
216.849135612298
31
0.0
  0
LINE
 8
GROUP0
10
1505.03735737776
20
216.849135612298
30
0.0
11
1505.02875448496
21
216.984491944646
31
0.0
  0
LINE
 8
GROUP0
10
1505.02875448496
20
216.984491944646
30
0.0
11
1505.06166283458
21
217.175254386904
31
0.0
  0
LINE
 8
GROUP0
10
1505.06166283458
20
217.175254386904
30
0.0
11
1505.14465259236
21
217.338685848898
31
0.0
  0
LINE
 8
GROUP0
10
1505.14465259236
20
217.338685848898
30
0.0
11
1505.27625754398
21
217.473949709311
31
0.0
  0
LINE
 8
GROUP0
10
1505.27625754398
20
217.473949709311
30
0.0
11
1505.45501147513
21
217.58020934682
31
0.0
  0
LINE
 8
GROUP0
10
1505.45501147513
20
217.58020934682
30
0.0
11
1505.67944817149
21
217.656628140107
31
0.0
  0
LINE
 8
GROUP0
10
1505.67944817149
20
217.656628140107
30
0.0
11
1505.94810141876
21
217.702369467851
31
0.0
  0
LINE
 8
GROUP0
10
1505.94810141876
20
217.702369467851
30
0.0
11
1506.25950500262
21
217.716596708732
31
0.0
  0
LINE
 8
GROUP0
10
1506.25950500262
20
217.716596708732
30
0.0
11
1506.25950500262
21
217.749818475432
31
0.0
  0
LINE
 8
GROUP0
10
1506.25950500262
20
217.749818475432
30
0.0
11
1506.25693265561
21
217.823802572658
31
0.0
  0
LINE
 8
GROUP0
10
1506.25693265561
20
217.823802572658
30
0.0
11
1506.24434488576
21
217.908824356579
31
0.0
  0
LINE
 8
GROUP0
10
1506.24434488576
20
217.908824356579
30
0.0
11
1506.21632276928
21
217.996787887427
31
0.0
  0
LINE
 8
GROUP0
10
1506.21632276928
20
217.996787887427
30
0.0
11
1506.1675005857
21
218.080169245331
31
0.0
  0
LINE
 8
GROUP0
10
1506.1675005857
20
218.080169245331
30
0.0
11
1506.09251261454
21
218.151444510421
31
0.0
  0
LINE
 8
GROUP0
10
1506.09251261454
20
218.151444510421
30
0.0
11
1505.98599313536
21
218.203089762827
31
0.0
  0
LINE
 8
GROUP0
10
1505.98599313536
20
218.203089762827
30
0.0
11
1505.84257642768
21
218.227581082677
31
0.0
  0
LINE
 8
GROUP0
10
1505.84257642768
20
218.227581082677
30
0.0
11
1505.73561294843
21
218.226902330895
31
0.0
  0
LINE
 8
GROUP0
10
1505.73561294843
20
218.226902330895
30
0.0
11
1505.65402811254
21
218.219216826294
31
0.0
  0
LINE
 8
GROUP0
10
1505.65402811254
20
218.219216826294
30
0.0
11
1505.57362467509
21
218.205424188628
31
0.0
  0
LINE
 8
GROUP0
10
1505.57362467509
20
218.205424188628
30
0.0
11
1505.49537538561
21
218.185731446226
31
0.0
  0
LINE
 8
GROUP0
10
1505.49537538561
20
218.185731446226
30
0.0
11
1505.42025299363
21
218.160345627413
31
0.0
  0
LINE
 8
GROUP0
10
1505.42025299363
20
218.160345627413
30
0.0
11
1505.3492302487
21
218.129473760516
31
0.0
  0
LINE
 8
GROUP0
10
1505.3492302487
20
218.129473760516
30
0.0
11
1505.28327990033
21
218.093322873862
31
0.0
  0
LINE
 8
GROUP0
10
1505.28327990033
20
218.093322873862
30
0.0
11
1505.25527202589
21
218.08080159578
31
0.0
  0
LINE
 8
GROUP0
10
1505.25527202589
20
218.08080159578
30
0.0
11
1505.24632985297
21
218.107191022558
31
0.0
  0
LINE
 8
GROUP0
10
1505.24632985297
20
218.107191022558
30
0.0
11
1505.23181776728
21
218.150017931268
31
0.0
  0
LINE
 8
GROUP0
10
1505.23181776728
20
218.150017931268
30
0.0
11
1505.21452072518
21
218.201063580946
31
0.0
  0
LINE
 8
GROUP0
10
1505.21452072518
20
218.201063580946
30
0.0
11
1505.19722368309
21
218.252109230623
31
0.0
  0
LINE
 8
GROUP0
10
1505.19722368309
20
218.252109230623
30
0.0
11
1505.18271159739
21
218.294936139334
31
0.0
  0
LINE
 8
GROUP0
10
1505.18271159739
20
218.294936139334
30
0.0
11
1505.17376942448
21
218.321325566111
31
0.0
  0
LINE
 8
GROUP0
10
1505.17376942448
20
218.321325566111
30
0.0
11
1505.20353494233
21
218.344554365121
31
0.0
  0
LINE
 8
GROUP0
10
1505.20353494233
20
218.344554365121
30
0.0
11
1505.28281978824
21
218.385029734162
31
0.0
  0
LINE
 8
GROUP0
10
1505.28281978824
20
218.385029734162
30
0.0
11
1505.36988338927
21
218.420606918333
31
0.0
  0
LINE
 8
GROUP0
10
1505.36988338927
20
218.420606918333
30
0.0
11
1505.46353462355
21
218.450664832653
31
0.0
  0
LINE
 8
GROUP0
10
1505.46353462355
20
218.450664832653
30
0.0
11
1505.56258236921
21
218.474582392143
31
0.0
  0
LINE
 8
GROUP0
10
1505.56258236921
20
218.474582392143
30
0.0
11
1505.66583550435
21
218.491738511823
31
0.0
  0
LINE
 8
GROUP0
10
1505.66583550435
20
218.491738511823
30
0.0
11
1505.77210290711
21
218.501512106712
31
0.0
  0
LINE
 8
GROUP0
10
1505.77210290711
20
218.501512106712
30
0.0
11
1505.92207743279
21
218.501606649841
31
0.0
  0
LINE
 8
GROUP0
10
1505.92207743279
20
218.501606649841
30
0.0
11
1506.14312807486
21
218.464705427785
31
0.0
  0
LINE
 8
GROUP0
10
1506.14312807486
20
218.464705427785
30
0.0
11
1506.31525885518
21
218.387041097989
31
0.0
  0
LINE
 8
GROUP0
10
1506.31525885518
20
218.387041097989
30
0.0
11
1506.4437645941
21
218.275998616104
31
0.0
  0
LINE
 8
GROUP0
10
1506.4437645941
20
218.275998616104
30
0.0
11
1506.53394011198
21
218.13896293778
31
0.0
  0
LINE
 8
GROUP0
10
1506.53394011198
20
218.13896293778
30
0.0
11
1506.59108022916
21
217.983319018671
31
0.0
  0
LINE
 8
GROUP0
10
1506.59108022916
20
217.983319018671
30
0.0
11
1506.62047976601
21
217.816451814425
31
0.0
  0
LINE
 8
GROUP0
10
1506.62047976601
20
217.816451814425
30
0.0
11
1506.62761369806
21
217.669181128246
31
0.0
  0
LINE
 8
GROUP0
10
1506.62761369806
20
217.669181128246
30
0.0
11
1506.62761369806
21
217.617544779351
31
0.0
  0
LINE
 8
GROUP0
10
1506.62761369806
20
217.617544779351
30
0.0
11
1506.62761369806
21
217.504665318976
31
0.0
  0
LINE
 8
GROUP0
10
1506.62761369806
20
217.504665318976
30
0.0
11
1506.62761369806
21
217.355760498906
31
0.0
  0
LINE
 8
GROUP0
10
1506.62761369806
20
217.355760498906
30
0.0
11
1506.62761369806
21
217.196048070928
31
0.0
  0
LINE
 8
GROUP0
10
1506.62761369806
20
217.196048070928
30
0.0
11
1506.62761369806
21
217.050745786828
31
0.0
  0
LINE
 8
GROUP0
10
1506.62761369806
20
217.050745786828
30
0.0
11
1506.62761369806
21
216.945071398392
31
0.0
  0
LINE
 8
GROUP0
10
1506.62761369806
20
216.945071398392
30
0.0
11
1506.62761369806
21
216.904242657405
31
0.0
  0
LINE
 8
GROUP0
10
1506.26811774701
20
217.458558886661
30
0.0
11
1506.11799369204
21
217.457619671265
31
0.0
  0
LINE
 8
GROUP0
10
1506.11799369204
20
217.457619671265
30
0.0
11
1505.9685706933
21
217.446842800045
31
0.0
  0
LINE
 8
GROUP0
10
1505.9685706933
20
217.446842800045
30
0.0
11
1505.82546844747
21
217.423553387354
31
0.0
  0
LINE
 8
GROUP0
10
1505.82546844747
20
217.423553387354
30
0.0
11
1505.69430665123
21
217.385076547543
31
0.0
  0
LINE
 8
GROUP0
10
1505.69430665123
20
217.385076547543
30
0.0
11
1505.58070500129
21
217.328737394963
31
0.0
  0
LINE
 8
GROUP0
10
1505.58070500129
20
217.328737394963
30
0.0
11
1505.49028319433
21
217.251861043966
31
0.0
  0
LINE
 8
GROUP0
10
1505.49028319433
20
217.251861043966
30
0.0
11
1505.42866092702
21
217.151772608904
31
0.0
  0
LINE
 8
GROUP0
10
1505.42866092702
20
217.151772608904
30
0.0
11
1505.40145789608
21
217.025797204128
31
0.0
  0
LINE
 8
GROUP0
10
1505.40145789608
20
217.025797204128
30
0.0
11
1505.40511009659
21
216.929310198613
31
0.0
  0
LINE
 8
GROUP0
10
1505.40511009659
20
216.929310198613
30
0.0
11
1505.422463575
21
216.855029455177
31
0.0
  0
LINE
 8
GROUP0
10
1505.422463575
20
216.855029455177
30
0.0
11
1505.45151457016
21
216.792330760406
31
0.0
  0
LINE
 8
GROUP0
10
1505.45151457016
20
216.792330760406
30
0.0
11
1505.49078599035
21
216.740936690981
31
0.0
  0
LINE
 8
GROUP0
10
1505.49078599035
20
216.740936690981
30
0.0
11
1505.53880074384
21
216.700569823582
31
0.0
  0
LINE
 8
GROUP0
10
1505.53880074384
20
216.700569823582
30
0.0
11
1505.5940817389
21
216.670952734892
31
0.0
  0
LINE
 8
GROUP0
10
1505.5940817389
20
216.670952734892
30
0.0
11
1505.65515188381
21
216.651808001591
31
0.0
  0
LINE
 8
GROUP0
10
1505.65515188381
20
216.651808001591
30
0.0
11
1505.72053408684
21
216.64285820036
31
0.0
  0
LINE
 8
GROUP0
10
1505.72053408684
20
216.64285820036
30
0.0
11
1505.80543676182
21
216.6447230724
31
0.0
  0
LINE
 8
GROUP0
10
1505.80543676182
20
216.6447230724
30
0.0
11
1505.8948458862
21
216.660166516256
31
0.0
  0
LINE
 8
GROUP0
10
1505.8948458862
20
216.660166516256
30
0.0
11
1505.97528299049
21
216.687833831374
31
0.0
  0
LINE
 8
GROUP0
10
1505.97528299049
20
216.687833831374
30
0.0
11
1506.04655875201
21
216.72593113859
31
0.0
  0
LINE
 8
GROUP0
10
1506.04655875201
20
216.72593113859
30
0.0
11
1506.10848384811
21
216.772664558742
31
0.0
  0
LINE
 8
GROUP0
10
1506.10848384811
20
216.772664558742
30
0.0
11
1506.16086895611
21
216.826240212666
31
0.0
  0
LINE
 8
GROUP0
10
1506.16086895611
20
216.826240212666
30
0.0
11
1506.20352475334
21
216.884864221201
31
0.0
  0
LINE
 8
GROUP0
10
1506.20352475334
20
216.884864221201
30
0.0
11
1506.23626191712
21
216.946742705182
31
0.0
  0
LINE
 8
GROUP0
10
1506.23626191712
20
216.946742705182
30
0.0
11
1506.25287013403
21
216.990861867927
31
0.0
  0
LINE
 8
GROUP0
10
1506.25287013403
20
216.990861867927
30
0.0
11
1506.26019141039
21
217.02156550629
31
0.0
  0
LINE
 8
GROUP0
10
1506.26019141039
20
217.02156550629
30
0.0
11
1506.2649319001
21
217.051412881328
31
0.0
  0
LINE
 8
GROUP0
10
1506.2649319001
20
217.051412881328
30
0.0
11
1506.26745150367
21
217.079639204433
31
0.0
  0
LINE
 8
GROUP0
10
1506.26745150367
20
217.079639204433
30
0.0
11
1506.26811774701
21
217.123638460321
31
0.0
  0
LINE
 8
GROUP0
10
1506.26811774701
20
217.123638460321
30
0.0
11
1506.26811774701
21
217.166067732661
31
0.0
  0
LINE
 8
GROUP0
10
1506.26811774701
20
217.166067732661
30
0.0
11
1506.26811774701
21
217.223198941313
31
0.0
  0
LINE
 8
GROUP0
10
1506.26811774701
20
217.223198941313
30
0.0
11
1506.26811774701
21
217.28729422506
31
0.0
  0
LINE
 8
GROUP0
10
1506.26811774701
20
217.28729422506
30
0.0
11
1506.26811774701
21
217.350615722685
31
0.0
  0
LINE
 8
GROUP0
10
1506.26811774701
20
217.350615722685
30
0.0
11
1506.26811774701
21
217.405425572972
31
0.0
  0
LINE
 8
GROUP0
10
1506.26811774701
20
217.405425572972
30
0.0
11
1506.26811774701
21
217.458558886661
31
0.0
  0
LINE
 8
GROUP0
10
1508.94306390118
20
216.976245200546
30
0.0
11
1508.94335806947
21
216.881105208608
31
0.0
  0
LINE
 8
GROUP0
10
1508.94335806947
20
216.881105208608
30
0.0
11
1508.94430103579
21
216.78988125929
31
0.0
  0
LINE
 8
GROUP0
10
1508.94430103579
20
216.78988125929
30
0.0
11
1508.94598349234
21
216.702489636719
31
0.0
  0
LINE
 8
GROUP0
10
1508.94598349234
20
216.702489636719
30
0.0
11
1508.94849613133
21
216.618846625018
31
0.0
  0
LINE
 8
GROUP0
10
1508.94849613133
20
216.618846625018
30
0.0
11
1508.95192964494
21
216.538868508312
31
0.0
  0
LINE
 8
GROUP0
10
1508.95192964494
20
216.538868508312
30
0.0
11
1508.95637472539
21
216.462471570726
31
0.0
  0
LINE
 8
GROUP0
10
1508.95637472539
20
216.462471570726
30
0.0
11
1508.95755208755
21
216.413488481784
31
0.0
  0
LINE
 8
GROUP0
10
1508.95755208755
20
216.413488481784
30
0.0
11
1508.92562068221
21
216.413488481784
31
0.0
  0
LINE
 8
GROUP0
10
1508.92562068221
20
216.413488481784
30
0.0
11
1508.8669560073
21
216.413488481784
31
0.0
  0
LINE
 8
GROUP0
10
1508.8669560073
20
216.413488481784
30
0.0
11
1508.79492469759
21
216.413488481784
31
0.0
  0
LINE
 8
GROUP0
10
1508.79492469759
20
216.413488481784
30
0.0
11
1508.72289338788
21
216.413488481784
31
0.0
  0
LINE
 8
GROUP0
10
1508.72289338788
20
216.413488481784
30
0.0
11
1508.66422871297
21
216.413488481784
31
0.0
  0
LINE
 8
GROUP0
10
1508.66422871297
20
216.413488481784
30
0.0
11
1508.63229730763
21
216.413488481784
31
0.0
  0
LINE
 8
GROUP0
10
1508.63229730763
20
216.413488481784
30
0.0
11
1508.62659399136
21
216.465730159504
31
0.0
  0
LINE
 8
GROUP0
10
1508.62659399136
20
216.465730159504
30
0.0
11
1508.62244656736
21
216.531178533352
31
0.0
  0
LINE
 8
GROUP0
10
1508.62244656736
20
216.531178533352
30
0.0
11
1508.61772708487
21
216.60565426911
31
0.0
  0
LINE
 8
GROUP0
10
1508.61772708487
20
216.60565426911
30
0.0
11
1508.61329363163
21
216.675616323913
31
0.0
  0
LINE
 8
GROUP0
10
1508.61329363163
20
216.675616323913
30
0.0
11
1508.61000429536
21
216.727523654896
31
0.0
  0
LINE
 8
GROUP0
10
1508.61000429536
20
216.727523654896
30
0.0
11
1508.52909544243
21
216.64485849113
31
0.0
  0
LINE
 8
GROUP0
10
1508.52909544243
20
216.64485849113
30
0.0
11
1508.45522218967
21
216.56732208746
31
0.0
  0
LINE
 8
GROUP0
10
1508.45522218967
20
216.56732208746
30
0.0
11
1508.36340467154
21
216.495524872145
31
0.0
  0
LINE
 8
GROUP0
10
1508.36340467154
20
216.495524872145
30
0.0
11
1508.25329756006
21
216.434866519156
31
0.0
  0
LINE
 8
GROUP0
10
1508.25329756006
20
216.434866519156
30
0.0
11
1508.12455552722
21
216.390746702464
31
0.0
  0
LINE
 8
GROUP0
10
1508.12455552722
20
216.390746702464
30
0.0
11
1507.97683324505
21
216.368565096039
31
0.0
  0
LINE
 8
GROUP0
10
1507.97683324505
20
216.368565096039
30
0.0
11
1507.82542354556
21
216.372787924616
31
0.0
  0
LINE
 8
GROUP0
10
1507.82542354556
20
216.372787924616
30
0.0
11
1507.67730807008
21
216.406574062924
31
0.0
  0
LINE
 8
GROUP0
10
1507.67730807008
20
216.406574062924
30
0.0
11
1507.53573871098
21
216.47677079348
31
0.0
  0
LINE
 8
GROUP0
10
1507.53573871098
20
216.47677079348
30
0.0
11
1507.40980561707
21
216.590490477542
31
0.0
  0
LINE
 8
GROUP0
10
1507.40980561707
20
216.590490477542
30
0.0
11
1507.30859893717
21
216.754845476366
31
0.0
  0
LINE
 8
GROUP0
10
1507.30859893717
20
216.754845476366
30
0.0
11
1507.2412088201
21
216.976948151212
31
0.0
  0
LINE
 8
GROUP0
10
1507.2412088201
20
216.976948151212
30
0.0
11
1507.21672541467
21
217.263910863336
31
0.0
  0
LINE
 8
GROUP0
10
1507.21672541467
20
217.263910863336
30
0.0
11
1507.21672541467
21
217.336649494677
31
0.0
  0
LINE
 8
GROUP0
10
1507.21672541467
20
217.336649494677
30
0.0
11
1507.21672541467
21
217.522537108105
31
0.0
  0
LINE
 8
GROUP0
10
1507.21672541467
20
217.522537108105
30
0.0
11
1507.21672541467
21
217.773081282724
31
0.0
  0
LINE
 8
GROUP0
10
1507.21672541467
20
217.773081282724
30
0.0
11
1507.21672541467
21
218.039789597642
31
0.0
  0
LINE
 8
GROUP0
10
1507.21672541467
20
218.039789597642
30
0.0
11
1507.21672541467
21
218.274169631963
31
0.0
  0
LINE
 8
GROUP0
10
1507.21672541467
20
218.274169631963
30
0.0
11
1507.21672541467
21
218.427728964794
31
0.0
  0
LINE
 8
GROUP0
10
1507.21672541467
20
218.427728964794
30
0.0
11
1507.21942542391
21
218.461254589116
31
0.0
  0
LINE
 8
GROUP0
10
1507.21942542391
20
218.461254589116
30
0.0
11
1507.2554565817
21
218.461254589116
31
0.0
  0
LINE
 8
GROUP0
10
1507.2554565817
20
218.461254589116
30
0.0
11
1507.32165335997
21
218.461254589116
31
0.0
  0
LINE
 8
GROUP0
10
1507.32165335997
20
218.461254589116
30
0.0
11
1507.40293294849
21
218.461254589116
31
0.0
  0
LINE
 8
GROUP0
10
1507.40293294849
20
218.461254589116
30
0.0
11
1507.484212537
21
218.461254589116
31
0.0
  0
LINE
 8
GROUP0
10
1507.484212537
20
218.461254589116
30
0.0
11
1507.55040931527
21
218.461254589116
31
0.0
  0
LINE
 8
GROUP0
10
1507.55040931527
20
218.461254589116
30
0.0
11
1507.58644047306
21
218.461254589116
31
0.0
  0
LINE
 8
GROUP0
10
1507.58644047306
20
218.461254589116
30
0.0
11
1507.5891404823
21
218.429624457581
31
0.0
  0
LINE
 8
GROUP0
10
1507.5891404823
20
218.429624457581
30
0.0
11
1507.5891404823
21
218.284747158673
31
0.0
  0
LINE
 8
GROUP0
10
1507.5891404823
20
218.284747158673
30
0.0
11
1507.5891404823
21
218.063618649814
31
0.0
  0
LINE
 8
GROUP0
10
1507.5891404823
20
218.063618649814
30
0.0
11
1507.5891404823
21
217.811989656974
31
0.0
  0
LINE
 8
GROUP0
10
1507.5891404823
20
217.811989656974
30
0.0
11
1507.5891404823
21
217.575610906125
31
0.0
  0
LINE
 8
GROUP0
10
1507.5891404823
20
217.575610906125
30
0.0
11
1507.5891404823
21
217.400233123236
31
0.0
  0
LINE
 8
GROUP0
10
1507.5891404823
20
217.400233123236
30
0.0
11
1507.5891404823
21
217.33160703428
31
0.0
  0
LINE
 8
GROUP0
10
1507.5891404823
20
217.33160703428
30
0.0
11
1507.59771961546
21
217.165254869221
31
0.0
  0
LINE
 8
GROUP0
10
1507.59771961546
20
217.165254869221
30
0.0
11
1507.62465926793
21
217.018356180736
31
0.0
  0
LINE
 8
GROUP0
10
1507.62465926793
20
217.018356180736
30
0.0
11
1507.6717628192
21
216.893830559983
31
0.0
  0
LINE
 8
GROUP0
10
1507.6717628192
20
216.893830559983
30
0.0
11
1507.74083364874
21
216.794597598121
31
0.0
  0
LINE
 8
GROUP0
10
1507.74083364874
20
216.794597598121
30
0.0
11
1507.83367513605
21
216.723576886309
31
0.0
  0
LINE
 8
GROUP0
10
1507.83367513605
20
216.723576886309
30
0.0
11
1507.95209066061
21
216.683688015705
31
0.0
  0
LINE
 8
GROUP0
10
1507.95209066061
20
216.683688015705
30
0.0
11
1508.08299757135
21
216.677111431745
31
0.0
  0
LINE
 8
GROUP0
10
1508.08299757135
20
216.677111431745
30
0.0
11
1508.18651767746
21
216.695227198391
31
0.0
  0
LINE
 8
GROUP0
10
1508.18651767746
20
216.695227198391
30
0.0
11
1508.2789593827
21
216.731965096457
31
0.0
  0
LINE
 8
GROUP0
10
1508.2789593827
20
216.731965096457
30
0.0
11
1508.35972272332
21
216.78372883146
31
0.0
  0
LINE
 8
GROUP0
10
1508.35972272332
20
216.78372883146
30
0.0
11
1508.42820773552
21
216.846922108911
31
0.0
  0
LINE
 8
GROUP0
10
1508.42820773552
20
216.846922108911
30
0.0
11
1508.48381445554
21
216.917948634325
31
0.0
  0
LINE
 8
GROUP0
10
1508.48381445554
20
216.917948634325
30
0.0
11
1508.5259429196
21
216.993212113218
31
0.0
  0
LINE
 8
GROUP0
10
1508.5259429196
20
216.993212113218
30
0.0
11
1508.54298073669
21
217.034311634237
31
0.0
  0
LINE
 8
GROUP0
10
1508.54298073669
20
217.034311634237
30
0.0
11
1508.55110059525
21
217.059600417393
31
0.0
  0
LINE
 8
GROUP0
10
1508.55110059525
20
217.059600417393
30
0.0
11
1508.55792402047
21
217.086761180544
31
0.0
  0
LINE
 8
GROUP0
10
1508.55792402047
20
217.086761180544
30
0.0
11
1508.56337078462
21
217.115535799739
31
0.0
  0
LINE
 8
GROUP0
10
1508.56337078462
20
217.115535799739
30
0.0
11
1508.56736065999
21
217.145666151029
31
0.0
  0
LINE
 8
GROUP0
10
1508.56736065999
20
217.145666151029
30
0.0
11
1508.56981341887
21
217.176894110465
31
0.0
  0
LINE
 8
GROUP0
10
1508.56981341887
20
217.176894110465
30
0.0
11
1508.57064883355
21
217.208961554097
31
0.0
  0
LINE
 8
GROUP0
10
1508.57064883355
20
217.208961554097
30
0.0
11
1508.57064883355
21
217.285038355974
31
0.0
  0
LINE
 8
GROUP0
10
1508.57064883355
20
217.285038355974
30
0.0
11
1508.57064883355
21
217.479456849661
31
0.0
  0
LINE
 8
GROUP0
10
1508.57064883355
20
217.479456849661
30
0.0
11
1508.57064883355
21
217.741499167239
31
0.0
  0
LINE
 8
GROUP0
10
1508.57064883355
20
217.741499167239
30
0.0
11
1508.57064883355
21
218.020447440789
31
0.0
  0
LINE
 8
GROUP0
10
1508.57064883355
20
218.020447440789
30
0.0
11
1508.57064883355
21
218.265583802394
31
0.0
  0
LINE
 8
GROUP0
10
1508.57064883355
20
218.265583802394
30
0.0
11
1508.57064883355
21
218.426190384135
31
0.0
  0
LINE
 8
GROUP0
10
1508.57064883355
20
218.426190384135
30
0.0
11
1508.57334884279
21
218.461254589116
31
0.0
  0
LINE
 8
GROUP0
10
1508.57334884279
20
218.461254589116
30
0.0
11
1508.60938000058
21
218.461254589116
31
0.0
  0
LINE
 8
GROUP0
10
1508.60938000058
20
218.461254589116
30
0.0
11
1508.67557677885
21
218.461254589116
31
0.0
  0
LINE
 8
GROUP0
10
1508.67557677885
20
218.461254589116
30
0.0
11
1508.75685636736
21
218.461254589116
31
0.0
  0
LINE
 8
GROUP0
10
1508.75685636736
20
218.461254589116
30
0.0
11
1508.83813595588
21
218.461254589116
31
0.0
  0
LINE
 8
GROUP0
10
1508.83813595588
20
218.461254589116
30
0.0
11
1508.90433273415
21
218.461254589116
31
0.0
  0
LINE
 8
GROUP0
10
1508.90433273415
20
218.461254589116
30
0.0
11
1508.94036389194
21
218.461254589116
31
0.0
  0
LINE
 8
GROUP0
10
1508.94036389194
20
218.461254589116
30
0.0
11
1508.94306390118
21
218.419674326236
31
0.0
  0
LINE
 8
GROUP0
10
1508.94306390118
20
218.419674326236
30
0.0
11
1508.94306390118
21
218.229221872152
31
0.0
  0
LINE
 8
GROUP0
10
1508.94306390118
20
218.229221872152
30
0.0
11
1508.94306390118
21
217.938531284339
31
0.0
  0
LINE
 8
GROUP0
10
1508.94306390118
20
217.938531284339
30
0.0
11
1508.94306390118
21
217.607745443036
31
0.0
  0
LINE
 8
GROUP0
10
1508.94306390118
20
217.607745443036
30
0.0
11
1508.94306390118
21
217.297007228477
31
0.0
  0
LINE
 8
GROUP0
10
1508.94306390118
20
217.297007228477
30
0.0
11
1508.94306390118
21
217.066459520902
31
0.0
  0
LINE
 8
GROUP0
10
1508.94306390118
20
217.066459520902
30
0.0
11
1508.94306390118
21
216.976245200546
31
0.0
  0
LINE
 8
GROUP0
10
1510.01069969637
20
218.952008764738
30
0.0
11
1510.01069969637
21
218.914282528241
31
0.0
  0
LINE
 8
GROUP0
10
1510.01069969637
20
218.914282528241
30
0.0
11
1510.01069969637
21
218.820392420869
31
0.0
  0
LINE
 8
GROUP0
10
1510.01069969637
20
218.820392420869
30
0.0
11
1510.01069969637
21
218.699271345801
31
0.0
  0
LINE
 8
GROUP0
10
1510.01069969637
20
218.699271345801
30
0.0
11
1510.01069969637
21
218.579852206213
31
0.0
  0
LINE
 8
GROUP0
10
1510.01069969637
20
218.579852206213
30
0.0
11
1510.01069969637
21
218.491067905285
31
0.0
  0
LINE
 8
GROUP0
10
1510.01069969637
20
218.491067905285
30
0.0
11
1510.01133092097
21
218.461254589116
31
0.0
  0
LINE
 8
GROUP0
10
1510.01133092097
20
218.461254589116
30
0.0
11
1510.06112409192
21
218.461254589116
31
0.0
  0
LINE
 8
GROUP0
10
1510.06112409192
20
218.461254589116
30
0.0
11
1510.16823288229
21
218.461254589116
31
0.0
  0
LINE
 8
GROUP0
10
1510.16823288229
20
218.461254589116
30
0.0
11
1510.30122614595
21
218.461254589116
31
0.0
  0
LINE
 8
GROUP0
10
1510.30122614595
20
218.461254589116
30
0.0
11
1510.42867273676
21
218.461254589116
31
0.0
  0
LINE
 8
GROUP0
10
1510.42867273676
20
218.461254589116
30
0.0
11
1510.51914150859
21
218.461254589116
31
0.0
  0
LINE
 8
GROUP0
10
1510.51914150859
20
218.461254589116
30
0.0
11
1510.54382857442
21
218.429014535751
31
0.0
  0
LINE
 8
GROUP0
10
1510.54382857442
20
218.429014535751
30
0.0
11
1510.54382857442
21
218.369600326418
31
0.0
  0
LINE
 8
GROUP0
10
1510.54382857442
20
218.369600326418
30
0.0
11
1510.54382857442
21
218.298393836848
31
0.0
  0
LINE
 8
GROUP0
10
1510.54382857442
20
218.298393836848
30
0.0
11
1510.54382857442
21
218.232100797377
31
0.0
  0
LINE
 8
GROUP0
10
1510.54382857442
20
218.232100797377
30
0.0
11
1510.54382857442
21
218.18742693834
31
0.0
  0
LINE
 8
GROUP0
10
1510.54382857442
20
218.18742693834
30
0.0
11
1510.47219417959
21
218.177895298523
31
0.0
  0
LINE
 8
GROUP0
10
1510.47219417959
20
218.177895298523
30
0.0
11
1510.35616720935
21
218.177895298523
31
0.0
  0
LINE
 8
GROUP0
10
1510.35616720935
20
218.177895298523
30
0.0
11
1510.22165132961
21
218.177895298523
31
0.0
  0
LINE
 8
GROUP0
10
1510.22165132961
20
218.177895298523
30
0.0
11
1510.10007768652
21
218.177895298523
31
0.0
  0
LINE
 8
GROUP0
10
1510.10007768652
20
218.177895298523
30
0.0
11
1510.02287742621
21
218.177895298523
31
0.0
  0
LINE
 8
GROUP0
10
1510.02287742621
20
218.177895298523
30
0.0
11
1510.01069969637
21
218.005344347537
31
0.0
  0
LINE
 8
GROUP0
10
1510.01069969637
20
218.005344347537
30
0.0
11
1510.01069969637
21
217.757120555812
31
0.0
  0
LINE
 8
GROUP0
10
1510.01069969637
20
217.757120555812
30
0.0
11
1510.01069969637
21
217.478258341148
31
0.0
  0
LINE
 8
GROUP0
10
1510.01069969637
20
217.478258341148
30
0.0
11
1510.01069969637
21
217.23386435229
31
0.0
  0
LINE
 8
GROUP0
10
1510.01069969637
20
217.23386435229
30
0.0
11
1510.01069969637
21
217.089045237983
31
0.0
  0
LINE
 8
GROUP0
10
1510.01069969637
20
217.089045237983
30
0.0
11
1510.01291833933
21
217.00073398894
31
0.0
  0
LINE
 8
GROUP0
10
1510.01291833933
20
217.00073398894
30
0.0
11
1510.02766346281
21
216.892644247977
31
0.0
  0
LINE
 8
GROUP0
10
1510.02766346281
20
216.892644247977
30
0.0
11
1510.05784787113
21
216.805221463808
31
0.0
  0
LINE
 8
GROUP0
10
1510.05784787113
20
216.805221463808
30
0.0
11
1510.10535032423
21
216.73946087143
31
0.0
  0
LINE
 8
GROUP0
10
1510.10535032423
20
216.73946087143
30
0.0
11
1510.17204958207
21
216.696357705842
31
0.0
  0
LINE
 8
GROUP0
10
1510.17204958207
20
216.696357705842
30
0.0
11
1510.25982440459
21
216.676907202043
31
0.0
  0
LINE
 8
GROUP0
10
1510.25982440459
20
216.676907202043
30
0.0
11
1510.32469213477
21
216.676197305199
31
0.0
  0
LINE
 8
GROUP0
10
1510.32469213477
20
216.676197305199
30
0.0
11
1510.36847001173
21
216.677962211555
31
0.0
  0
LINE
 8
GROUP0
10
1510.36847001173
20
216.677962211555
30
0.0
11
1510.40683562633
21
216.681190698791
31
0.0
  0
LINE
 8
GROUP0
10
1510.40683562633
20
216.681190698791
30
0.0
11
1510.44090607908
21
216.685882766908
31
0.0
  0
LINE
 8
GROUP0
10
1510.44090607908
20
216.685882766908
30
0.0
11
1510.4717984705
21
216.692038415906
31
0.0
  0
LINE
 8
GROUP0
10
1510.4717984705
20
216.692038415906
30
0.0
11
1510.50062990108
21
216.699657645784
31
0.0
  0
LINE
 8
GROUP0
10
1510.50062990108
20
216.699657645784
30
0.0
11
1510.50948837086
21
216.636344774348
31
0.0
  0
LINE
 8
GROUP0
10
1510.50948837086
20
216.636344774348
30
0.0
11
1510.51360328209
21
216.567970744246
31
0.0
  0
LINE
 8
GROUP0
10
1510.51360328209
20
216.567970744246
30
0.0
11
1510.51783647456
21
216.497631334105
31
0.0
  0
LINE
 8
GROUP0
10
1510.51783647456
20
216.497631334105
30
0.0
11
1510.52118255779
21
216.442032274261
31
0.0
  0
LINE
 8
GROUP0
10
1510.52118255779
20
216.442032274261
30
0.0
11
1510.48489036012
21
216.405674107099
31
0.0
  0
LINE
 8
GROUP0
10
1510.48489036012
20
216.405674107099
30
0.0
11
1510.43802305953
21
216.393516130768
31
0.0
  0
LINE
 8
GROUP0
10
1510.43802305953
20
216.393516130768
30
0.0
11
1510.3845573987
21
216.382827111738
31
0.0
  0
LINE
 8
GROUP0
10
1510.3845573987
20
216.382827111738
30
0.0
11
1510.32486405187
21
216.374348398527
31
0.0
  0
LINE
 8
GROUP0
10
1510.32486405187
20
216.374348398527
30
0.0
11
1510.25931369331
21
216.368821339654
31
0.0
  0
LINE
 8
GROUP0
10
1510.25931369331
20
216.368821339654
30
0.0
11
1510.18740718347
21
216.366997366408
31
0.0
  0
LINE
 8
GROUP0
10
1510.18740718347
20
216.366997366408
30
0.0
11
1510.10231321183
21
216.372602020251
31
0.0
  0
LINE
 8
GROUP0
10
1510.10231321183
20
216.372602020251
30
0.0
11
1510.02360582925
21
216.38780656991
31
0.0
  0
LINE
 8
GROUP0
10
1510.02360582925
20
216.38780656991
30
0.0
11
1509.95178773096
21
216.412001687834
31
0.0
  0
LINE
 8
GROUP0
10
1509.95178773096
20
216.412001687834
30
0.0
11
1509.88736161219
21
216.444578046475
31
0.0
  0
LINE
 8
GROUP0
10
1509.88736161219
20
216.444578046475
30
0.0
11
1509.83083016816
21
216.484926318281
31
0.0
  0
LINE
 8
GROUP0
10
1509.83083016816
20
216.484926318281
30
0.0
11
1509.78158579215
21
216.53402035608
31
0.0
  0
LINE
 8
GROUP0
10
1509.78158579215
20
216.53402035608
30
0.0
11
1509.73663941365
21
216.600138366153
31
0.0
  0
LINE
 8
GROUP0
10
1509.73663941365
20
216.600138366153
30
0.0
11
1509.70135864276
21
216.677702176093
31
0.0
  0
LINE
 8
GROUP0
10
1509.70135864276
20
216.677702176093
30
0.0
11
1509.67525093972
21
216.766462977148
31
0.0
  0
LINE
 8
GROUP0
10
1509.67525093972
20
216.766462977148
30
0.0
11
1509.65782376474
21
216.86617196057
31
0.0
  0
LINE
 8
GROUP0
10
1509.65782376474
20
216.86617196057
30
0.0
11
1509.64858457807
21
216.976580317608
31
0.0
  0
LINE
 8
GROUP0
10
1509.64858457807
20
216.976580317608
30
0.0
11
1509.64672511825
21
217.068921129378
31
0.0
  0
LINE
 8
GROUP0
10
1509.64672511825
20
217.068921129378
30
0.0
11
1509.64672511825
21
217.199232157056
31
0.0
  0
LINE
 8
GROUP0
10
1509.64672511825
20
217.199232157056
30
0.0
11
1509.64672511825
21
217.438015436278
31
0.0
  0
LINE
 8
GROUP0
10
1509.64672511825
20
217.438015436278
30
0.0
11
1509.64672511825
21
217.719412814322
31
0.0
  0
LINE
 8
GROUP0
10
1509.64672511825
20
217.719412814322
30
0.0
11
1509.64672511825
21
217.977566138463
31
0.0
  0
LINE
 8
GROUP0
10
1509.64672511825
20
217.977566138463
30
0.0
11
1509.64672511825
21
218.146617255979
31
0.0
  0
LINE
 8
GROUP0
10
1509.64672511825
20
218.146617255979
30
0.0
11
1509.64227856709
21
218.177895298523
31
0.0
  0
LINE
 8
GROUP0
10
1509.64227856709
20
218.177895298523
30
0.0
11
1509.60066933162
21
218.177895298523
31
0.0
  0
LINE
 8
GROUP0
10
1509.60066933162
20
218.177895298523
30
0.0
11
1509.53045037554
21
218.177895298523
31
0.0
  0
LINE
 8
GROUP0
10
1509.53045037554
20
218.177895298523
30
0.0
11
1509.45032805462
21
218.177895298523
31
0.0
  0
LINE
 8
GROUP0
10
1509.45032805462
20
218.177895298523
30
0.0
11
1509.37900872466
21
218.177895298523
31
0.0
  0
LINE
 8
GROUP0
10
1509.37900872466
20
218.177895298523
30
0.0
11
1509.33519874146
21
218.177895298523
31
0.0
  0
LINE
 8
GROUP0
10
1509.33519874146
20
218.177895298523
30
0.0
11
1509.32943161474
21
218.225399916873
31
0.0
  0
LINE
 8
GROUP0
10
1509.32943161474
20
218.225399916873
30
0.0
11
1509.32943161474
21
218.290016602781
31
0.0
  0
LINE
 8
GROUP0
10
1509.32943161474
20
218.290016602781
30
0.0
11
1509.32943161474
21
218.361512118827
31
0.0
  0
LINE
 8
GROUP0
10
1509.32943161474
20
218.361512118827
30
0.0
11
1509.32943161474
21
218.423180734676
31
0.0
  0
LINE
 8
GROUP0
10
1509.32943161474
20
218.423180734676
30
0.0
11
1509.32943161474
21
218.458316719991
31
0.0
  0
LINE
 8
GROUP0
10
1509.32943161474
20
218.458316719991
30
0.0
11
1509.39012859278
21
218.461254589116
31
0.0
  0
LINE
 8
GROUP0
10
1509.39012859278
20
218.461254589116
30
0.0
11
1509.4643606771
21
218.461254589116
31
0.0
  0
LINE
 8
GROUP0
10
1509.4643606771
20
218.461254589116
30
0.0
11
1509.54409463078
21
218.461254589116
31
0.0
  0
LINE
 8
GROUP0
10
1509.54409463078
20
218.461254589116
30
0.0
11
1509.610624098
21
218.461254589116
31
0.0
  0
LINE
 8
GROUP0
10
1509.610624098
20
218.461254589116
30
0.0
11
1509.645242723
21
218.461254589116
31
0.0
  0
LINE
 8
GROUP0
10
1509.645242723
20
218.461254589116
30
0.0
11
1509.64672511825
21
218.543519389459
31
0.0
  0
LINE
 8
GROUP0
10
1509.64672511825
20
218.543519389459
30
0.0
11
1509.64672511825
21
218.634564433816
31
0.0
  0
LINE
 8
GROUP0
10
1509.64672511825
20
218.634564433816
30
0.0
11
1509.64672511825
21
218.72957189939
31
0.0
  0
LINE
 8
GROUP0
10
1509.64672511825
20
218.72957189939
30
0.0
11
1509.64672511825
21
218.806088065953
31
0.0
  0
LINE
 8
GROUP0
10
1509.64672511825
20
218.806088065953
30
0.0
11
1509.64672511825
21
218.841659213279
31
0.0
  0
LINE
 8
GROUP0
10
1509.64672511825
20
218.841659213279
30
0.0
11
1509.73468467069
21
218.868668685995
31
0.0
  0
LINE
 8
GROUP0
10
1509.73468467069
20
218.868668685995
30
0.0
11
1509.82325351659
21
218.895411196018
31
0.0
  0
LINE
 8
GROUP0
10
1509.82325351659
20
218.895411196018
30
0.0
11
1509.91308462632
21
218.922534834451
31
0.0
  0
LINE
 8
GROUP0
10
1509.91308462632
20
218.922534834451
30
0.0
11
1509.98271951466
21
218.943560418341
31
0.0
  0
LINE
 8
GROUP0
10
1509.98271951466
20
218.943560418341
30
0.0
11
1510.01069969637
21
218.952008764738
31
0.0
  0
LINE
 8
F Base plate
10
1781.49835566968
20
94.6260960224117
30
0.0
11
1781.49835566968
21
188.944346018452
31
0.0
  0
LINE
 8
F Base plate
10
1823.68357771592
20
94.6260960224117
30
0.0
11
1823.68357771592
21
314.126107171299
31
0.0
  0
LINE
 8
F Base plate
10
1821.6840429772
20
94.6260960224117
30
0.0
11
1821.6840429772
21
314.126107171299
31
0.0
  0
LINE
 8
F Base plate
10
1353.65200961819
20
94.6260960224117
30
0.0
11
1353.65200961819
21
314.126107171299
31
0.0
  0
LINE
 8
F Base plate
10
1479.64784737124
20
94.6260960224117
30
0.0
11
1479.64784737124
21
314.126107171299
31
0.0
  0
LINE
 8
F Base plate
10
1481.64720985508
20
94.6260960224117
30
0.0
11
1481.64720985508
21
314.126107171299
31
0.0
  0
LINE
 8
F Base plate
10
2064.61085693218
20
-54.986662008465
30
0.0
11
2064.0240001503
21
-55.0440478253949
31
0.0
  0
LINE
 8
F Base plate
10
2064.0240001503
20
-55.0440478253949
30
0.0
11
2063.47579656575
21
-55.2088624831917
31
0.0
  0
LINE
 8
F Base plate
10
2063.47579656575
20
-55.2088624831917
30
0.0
11
2062.97724748378
21
-55.4700917923657
31
0.0
  0
LINE
 8
F Base plate
10
2062.97724748378
20
-55.4700917923657
30
0.0
11
2062.53935420962
21
-55.8167215634275
31
0.0
  0
LINE
 8
F Base plate
10
2062.53935420962
20
-55.8167215634275
30
0.0
11
2062.17311804853
21
-56.2377376068874
31
0.0
  0
LINE
 8
F Base plate
10
2062.17311804853
20
-56.2377376068874
30
0.0
11
2061.88954030574
21
-56.722125733256
31
0.0
  0
LINE
 8
F Base plate
10
2061.88954030574
20
-56.722125733256
30
0.0
11
2061.69962228651
21
-57.2588717530436
31
0.0
  0
LINE
 8
F Base plate
10
2061.69962228651
20
-57.2588717530436
30
0.0
11
2061.61436529606
21
-57.8369614767606
31
0.0
  0
LINE
 8
F Base plate
10
2061.61436529606
20
-57.8369614767606
30
0.0
11
2061.64322358111
21
-58.4299549079244
31
0.0
  0
LINE
 8
F Base plate
10
2061.64322358111
20
-58.4299549079244
30
0.0
11
2061.7821862491
21
-58.9888398964669
31
0.0
  0
LINE
 8
F Base plate
10
2061.7821862491
20
-58.9888398964669
30
0.0
11
2062.02030929327
21
-59.5008501584503
31
0.0
  0
LINE
 8
F Base plate
10
2062.02030929327
20
-59.5008501584503
30
0.0
11
2062.34659140836
21
-59.9549751855979
31
0.0
  0
LINE
 8
F Base plate
10
2062.34659140836
20
-59.9549751855979
30
0.0
11
2062.75003128914
21
-60.3402044696333
31
0.0
  0
LINE
 8
F Base plate
10
2062.75003128914
20
-60.3402044696333
30
0.0
11
2063.21962763036
21
-60.6455275022799
31
0.0
  0
LINE
 8
F Base plate
10
2063.21962763036
20
-60.6455275022799
30
0.0
11
2063.74437912678
21
-60.8599337752615
31
0.0
  0
LINE
 8
F Base plate
10
2063.74437912678
20
-60.8599337752615
30
0.0
11
2064.31328447315
21
-60.9724127803015
31
0.0
  0
LINE
 8
F Base plate
10
2064.31328447315
20
-60.9724127803015
30
0.0
11
2064.90842756977
21
-60.9724127803015
31
0.0
  0
LINE
 8
F Base plate
10
2064.90842756977
20
-60.9724127803015
30
0.0
11
2065.47731972513
21
-60.8599337752615
31
0.0
  0
LINE
 8
F Base plate
10
2065.47731972513
20
-60.8599337752615
30
0.0
11
2066.00204836735
21
-60.6455275022799
31
0.0
  0
LINE
 8
F Base plate
10
2066.00204836735
20
-60.6455275022799
30
0.0
11
2066.4716158724
21
-60.3402044696333
31
0.0
  0
LINE
 8
F Base plate
10
2066.4716158724
20
-60.3402044696333
30
0.0
11
2066.87502461625
21
-59.9549751855979
31
0.0
  0
LINE
 8
F Base plate
10
2066.87502461625
20
-59.9549751855979
30
0.0
11
2067.20127697488
21
-59.5008501584503
31
0.0
  0
LINE
 8
F Base plate
10
2067.20127697488
20
-59.5008501584503
30
0.0
11
2067.43937532424
21
-58.9888398964669
31
0.0
  0
LINE
 8
F Base plate
10
2067.43937532424
20
-58.9888398964669
30
0.0
11
2067.57832204031
21
-58.4299549079244
31
0.0
  0
LINE
 8
F Base plate
10
2067.57832204031
20
-58.4299549079244
30
0.0
11
2067.60717677835
21
-57.8369614767606
31
0.0
  0
LINE
 8
F Base plate
10
2067.60717677835
20
-57.8369614767606
30
0.0
11
2067.52192998794
21
-57.2588717530436
31
0.0
  0
LINE
 8
F Base plate
10
2067.52192998794
20
-57.2588717530436
30
0.0
11
2067.33203275222
21
-56.722125733256
31
0.0
  0
LINE
 8
F Base plate
10
2067.33203275222
20
-56.722125733256
30
0.0
11
2067.04848269522
21
-56.2377376068874
31
0.0
  0
LINE
 8
F Base plate
10
2067.04848269522
20
-56.2377376068874
30
0.0
11
2066.68227744098
21
-55.8167215634275
31
0.0
  0
LINE
 8
F Base plate
10
2066.68227744098
20
-55.8167215634275
30
0.0
11
2066.24441461352
21
-55.4700917923657
31
0.0
  0
LINE
 8
F Base plate
10
2066.24441461352
20
-55.4700917923657
30
0.0
11
2065.74589183688
21
-55.2088624831917
31
0.0
  0
LINE
 8
F Base plate
10
2065.74589183688
20
-55.2088624831917
30
0.0
11
2065.19770673509
21
-55.0440478253949
31
0.0
  0
LINE
 8
F Base plate
10
2065.19770673509
20
-55.0440478253949
30
0.0
11
2064.61085693218
21
-54.986662008465
31
0.0
  0
LINE
 8
F Base plate
10
2381.49835566968
20
-41.0553756948197
30
0.0
11
2381.49835566968
21
76.6260631291695
31
0.0
  0
LINE
 8
F Base plate
10
2249.30306450117
20
-68.2943856279195
30
0.0
11
2169.43277935502
21
-68.2943856279195
31
0.0
  0
LINE
 8
F Base plate
10
1967.6108567139
20
65.0133276066322
30
0.0
11
1967.02395853754
21
64.9559551340997
31
0.0
  0
LINE
 8
F Base plate
10
1967.02395853754
20
64.9559551340997
30
0.0
11
1966.4757499105
21
64.7911731470688
31
0.0
  0
LINE
 8
F Base plate
10
1966.4757499105
20
64.7911731470688
30
0.0
11
1965.97722293498
21
64.5299847913902
31
0.0
  0
LINE
 8
F Base plate
10
1965.97722293498
20
64.5299847913902
30
0.0
11
1965.53936971319
21
64.183393212914
31
0.0
  0
LINE
 8
F Base plate
10
1965.53936971319
20
64.183393212914
30
0.0
11
1965.17318234734
21
63.7624015574908
31
0.0
  0
LINE
 8
F Base plate
10
1965.17318234734
20
63.7624015574908
30
0.0
11
1964.88965293965
21
63.2780129709706
31
0.0
  0
LINE
 8
F Base plate
10
1964.88965293965
20
63.2780129709706
30
0.0
11
1964.69977359232
21
62.7412305992039
31
0.0
  0
LINE
 8
F Base plate
10
1964.69977359232
20
62.7412305992039
30
0.0
11
1964.61453640757
21
62.1630575880412
31
0.0
  0
LINE
 8
F Base plate
10
1964.61453640757
20
62.1630575880412
30
0.0
11
1964.64338772324
21
61.570042731067
31
0.0
  0
LINE
 8
F Base plate
10
1964.64338772324
20
61.570042731067
30
0.0
11
1964.78232000205
21
61.0111896463711
31
0.0
  0
LINE
 8
F Base plate
10
1964.78232000205
20
61.0111896463711
30
0.0
11
1965.02039839234
21
60.4992287739963
31
0.0
  0
LINE
 8
F Base plate
10
1965.02039839234
20
60.4992287739963
30
0.0
11
1965.34663079188
21
60.0451632597933
31
0.0
  0
LINE
 8
F Base plate
10
1965.34663079188
20
60.0451632597933
30
0.0
11
1965.75002509848
21
59.6599962496123
31
0.0
  0
LINE
 8
F Base plate
10
1965.75002509848
20
59.6599962496123
30
0.0
11
1966.21958920991
21
59.3547308893035
31
0.0
  0
LINE
 8
F Base plate
10
1966.21958920991
20
59.3547308893035
30
0.0
11
1966.74433102397
21
59.1403703247175
31
0.0
  0
LINE
 8
F Base plate
10
1966.74433102397
20
59.1403703247175
30
0.0
11
1967.31325843845
21
59.0279177017045
31
0.0
  0
LINE
 8
F Base plate
10
1967.31325843845
20
59.0279177017045
30
0.0
11
1967.90839971364
21
59.0279177017045
31
0.0
  0
LINE
 8
F Base plate
10
1967.90839971364
20
59.0279177017045
30
0.0
11
1968.47725660987
21
59.1403703247175
31
0.0
  0
LINE
 8
F Base plate
10
1968.47725660987
20
59.1403703247175
30
0.0
11
1969.00197208025
21
59.3547308893035
31
0.0
  0
LINE
 8
F Base plate
10
1969.00197208025
20
59.3547308893035
30
0.0
11
1969.47154297892
21
59.6599962496123
31
0.0
  0
LINE
 8
F Base plate
10
1969.47154297892
20
59.6599962496123
30
0.0
11
1969.87496616003
21
60.0451632597933
31
0.0
  0
LINE
 8
F Base plate
10
1969.87496616003
20
60.0451632597933
30
0.0
11
1970.20123847773
21
60.4992287739963
31
0.0
  0
LINE
 8
F Base plate
10
1970.20123847773
20
60.4992287739963
30
0.0
11
1970.43935678617
21
61.0111896463711
31
0.0
  0
LINE
 8
F Base plate
10
1970.43935678617
20
61.0111896463711
30
0.0
11
1970.5783179395
21
61.570042731067
31
0.0
  0
LINE
 8
F Base plate
10
1970.5783179395
20
61.570042731067
30
0.0
11
1970.60717609992
21
62.1630575880412
31
0.0
  0
LINE
 8
F Base plate
10
1970.60717609992
20
62.1630575880412
30
0.0
11
1970.52191970384
21
62.7412305992039
31
0.0
  0
LINE
 8
F Base plate
10
1970.52191970384
20
62.7412305992039
30
0.0
11
1970.33200457972
21
63.2780129709706
31
0.0
  0
LINE
 8
F Base plate
10
1970.33200457972
20
63.2780129709706
30
0.0
11
1970.04843387342
21
63.7624015574908
31
0.0
  0
LINE
 8
F Base plate
10
1970.04843387342
20
63.7624015574908
30
0.0
11
1969.68221073079
21
64.183393212914
31
0.0
  0
LINE
 8
F Base plate
10
1969.68221073079
20
64.183393212914
30
0.0
11
1969.24433829767
21
64.5299847913902
31
0.0
  0
LINE
 8
F Base plate
10
1969.24433829767
20
64.5299847913902
30
0.0
11
1968.74581971991
21
64.7911731470688
31
0.0
  0
LINE
 8
F Base plate
10
1968.74581971991
20
64.7911731470688
30
0.0
11
1968.19765814337
21
64.9559551340997
31
0.0
  0
LINE
 8
F Base plate
10
1968.19765814337
20
64.9559551340997
30
0.0
11
1967.6108567139
21
65.0133276066322
31
0.0
  0
LINE
 8
F Base plate
10
2061.61069354966
20
65.0133276066322
30
0.0
11
2061.02384374675
21
64.9559551340997
31
0.0
  0
LINE
 8
F Base plate
10
2061.02384374675
20
64.9559551340997
30
0.0
11
2060.47565864495
21
64.7911731470688
31
0.0
  0
LINE
 8
F Base plate
10
2060.47565864495
20
64.7911731470688
30
0.0
11
2059.97713586832
21
64.5299847913902
31
0.0
  0
LINE
 8
F Base plate
10
2059.97713586832
20
64.5299847913902
30
0.0
11
2059.53927304086
21
64.183393212914
31
0.0
  0
LINE
 8
F Base plate
10
2059.53927304086
20
64.183393212914
30
0.0
11
2059.17306778662
21
63.7624015574908
31
0.0
  0
LINE
 8
F Base plate
10
2059.17306778662
20
63.7624015574908
30
0.0
11
2058.88951772962
21
63.2780129709706
31
0.0
  0
LINE
 8
F Base plate
10
2058.88951772962
20
63.2780129709706
30
0.0
11
2058.6996204939
21
62.7412305992039
31
0.0
  0
LINE
 8
F Base plate
10
2058.6996204939
20
62.7412305992039
30
0.0
11
2058.61437370348
21
62.1630575880412
31
0.0
  0
LINE
 8
F Base plate
10
2058.61437370348
20
62.1630575880412
30
0.0
11
2058.64322844153
21
61.570042731067
31
0.0
  0
LINE
 8
F Base plate
10
2058.64322844153
20
61.570042731067
30
0.0
11
2058.7821751576
21
61.0111896463711
31
0.0
  0
LINE
 8
F Base plate
10
2058.7821751576
20
61.0111896463711
30
0.0
11
2059.02027350696
21
60.4992287739963
31
0.0
  0
LINE
 8
F Base plate
10
2059.02027350696
20
60.4992287739963
30
0.0
11
2059.34652586559
21
60.0451632597933
31
0.0
  0
LINE
 8
F Base plate
10
2059.34652586559
20
60.0451632597933
30
0.0
11
2059.74993460944
21
59.6599962496123
31
0.0
  0
LINE
 8
F Base plate
10
2059.74993460944
20
59.6599962496123
30
0.0
11
2060.21950211449
21
59.3547308893035
31
0.0
  0
LINE
 8
F Base plate
10
2060.21950211449
20
59.3547308893035
30
0.0
11
2060.74423075671
21
59.1403703247175
31
0.0
  0
LINE
 8
F Base plate
10
2060.74423075671
20
59.1403703247175
30
0.0
11
2061.31312291206
21
59.0279177017045
31
0.0
  0
LINE
 8
F Base plate
10
2061.31312291206
20
59.0279177017045
30
0.0
11
2061.90829364654
21
59.0279177017045
31
0.0
  0
LINE
 8
F Base plate
10
2061.90829364654
20
59.0279177017045
30
0.0
11
2062.47723425203
21
59.1403703247175
31
0.0
  0
LINE
 8
F Base plate
10
2062.47723425203
20
59.1403703247175
30
0.0
11
2063.00199892029
21
59.3547308893035
31
0.0
  0
LINE
 8
F Base plate
10
2063.00199892029
20
59.3547308893035
30
0.0
11
2063.47159186789
21
59.6599962496123
31
0.0
  0
LINE
 8
F Base plate
10
2063.47159186789
20
59.6599962496123
30
0.0
11
2063.87501731141
21
60.0451632597933
31
0.0
  0
LINE
 8
F Base plate
10
2063.87501731141
20
60.0451632597933
30
0.0
11
2064.20127946743
21
60.4992287739963
31
0.0
  0
LINE
 8
F Base plate
10
2064.20127946743
20
60.4992287739963
30
0.0
11
2064.43938255252
21
61.0111896463711
31
0.0
  0
LINE
 8
F Base plate
10
2064.43938255252
20
61.0111896463711
30
0.0
11
2064.57833078326
21
61.570042731067
31
0.0
  0
LINE
 8
F Base plate
10
2064.57833078326
20
61.570042731067
30
0.0
11
2064.60718564593
21
62.1630575880412
31
0.0
  0
LINE
 8
F Base plate
10
2064.60718564593
20
62.1630575880412
30
0.0
11
2064.52193826115
21
62.7412305992039
31
0.0
  0
LINE
 8
F Base plate
10
2064.52193826115
20
62.7412305992039
30
0.0
11
2064.33203813031
21
63.2780129709706
31
0.0
  0
LINE
 8
F Base plate
10
2064.33203813031
20
63.2780129709706
30
0.0
11
2064.04848103683
21
63.7624015574908
31
0.0
  0
LINE
 8
F Base plate
10
2064.04848103683
20
63.7624015574908
30
0.0
11
2063.68226276413
21
64.183393212914
31
0.0
  0
LINE
 8
F Base plate
10
2063.68226276413
20
64.183393212914
30
0.0
11
2063.24437909564
21
64.5299847913902
31
0.0
  0
LINE
 8
F Base plate
10
2063.24437909564
20
64.5299847913902
30
0.0
11
2062.74582581478
21
64.7911731470688
31
0.0
  0
LINE
 8
F Base plate
10
2062.74582581478
20
64.7911731470688
30
0.0
11
2062.19759870498
21
64.9559551340997
31
0.0
  0
LINE
 8
F Base plate
10
2062.19759870498
20
64.9559551340997
30
0.0
11
2061.61069354966
21
65.0133276066322
31
0.0
  0
LINE
 8
F Base plate
10
2169.43277935502
20
-68.2943856279195
30
0.0
11
2169.43295160991
21
-99.0556635087593
31
0.0
  0
LINE
 8
F Base plate
10
2479.68398628136
20
-124.873915126476
30
0.0
11
2423.68357771592
21
-124.873915126476
31
0.0
  0
LINE
 8
F Base plate
10
2453.49814273287
20
0.12594486475125
30
0.0
11
2452.91143805028
21
0.0685723922187336
31
0.0
  0
LINE
 8
F Base plate
10
2452.91143805028
20
0.0685723922187336
30
0.0
11
2452.36332352424
21
-0.0962095948120932
31
0.0
  0
LINE
 8
F Base plate
10
2452.36332352424
20
-0.0962095948120932
30
0.0
11
2451.86481334425
21
-0.357397950490696
31
0.0
  0
LINE
 8
F Base plate
10
2451.86481334425
20
-0.357397950490696
30
0.0
11
2451.4269216998
21
-0.7039895289669
31
0.0
  0
LINE
 8
F Base plate
10
2451.4269216998
20
-0.7039895289669
30
0.0
11
2451.06066278038
21
-1.12498118439035
31
0.0
  0
LINE
 8
F Base plate
10
2451.06066278038
20
-1.12498118439035
30
0.0
11
2450.77705077547
21
-1.60936977091052
31
0.0
  0
LINE
 8
F Base plate
10
2450.77705077547
20
-1.60936977091052
30
0.0
11
2450.58709987456
21
-2.14615214267704
31
0.0
  0
LINE
 8
F Base plate
10
2450.58709987456
20
-2.14615214267704
30
0.0
11
2450.50182426715
21
-2.72432515383975
31
0.0
  0
LINE
 8
F Base plate
10
2450.50182426715
20
-2.72432515383975
30
0.0
11
2450.53068927232
21
-3.31734001081393
31
0.0
  0
LINE
 8
F Base plate
10
2450.53068927232
20
-3.31734001081393
30
0.0
11
2450.66967930017
21
-3.87619309551
31
0.0
  0
LINE
 8
F Base plate
10
2450.66967930017
20
-3.87619309551
30
0.0
11
2450.90783752676
21
-4.38815396788462
31
0.0
  0
LINE
 8
F Base plate
10
2450.90783752676
20
-4.38815396788462
30
0.0
11
2451.23414976262
21
-4.84221948208761
31
0.0
  0
LINE
 8
F Base plate
10
2451.23414976262
20
-4.84221948208761
30
0.0
11
2451.63760181824
21
-5.2273864922688
31
0.0
  0
LINE
 8
F Base plate
10
2451.63760181824
20
-5.2273864922688
30
0.0
11
2452.10717950415
21
-5.53265185257748
31
0.0
  0
LINE
 8
F Base plate
10
2452.10717950415
20
-5.53265185257748
30
0.0
11
2452.63186863085
21
-5.74701241716346
31
0.0
  0
LINE
 8
F Base plate
10
2452.63186863085
20
-5.74701241716346
30
0.0
11
2453.20065500885
21
-5.85946504017641
31
0.0
  0
LINE
 8
F Base plate
10
2453.20065500885
20
-5.85946504017641
30
0.0
11
2453.79574100832
21
-5.85946504017641
31
0.0
  0
LINE
 8
F Base plate
10
2453.79574100832
20
-5.85946504017641
30
0.0
11
2454.3646684228
21
-5.74701241716346
31
0.0
  0
LINE
 8
F Base plate
10
2454.3646684228
20
-5.74701241716346
30
0.0
11
2454.88941023685
21
-5.53265185257748
31
0.0
  0
LINE
 8
F Base plate
10
2454.88941023685
20
-5.53265185257748
30
0.0
11
2455.35897434829
21
-5.2273864922688
31
0.0
  0
LINE
 8
F Base plate
10
2455.35897434829
20
-5.2273864922688
30
0.0
11
2455.76236865488
21
-4.84221948208761
31
0.0
  0
LINE
 8
F Base plate
10
2455.76236865488
20
-4.84221948208761
30
0.0
11
2456.08860105443
21
-4.38815396788462
31
0.0
  0
LINE
 8
F Base plate
10
2456.08860105443
20
-4.38815396788462
30
0.0
11
2456.32667944472
21
-3.87619309551
31
0.0
  0
LINE
 8
F Base plate
10
2456.32667944472
20
-3.87619309551
30
0.0
11
2456.46561172353
21
-3.31734001081393
31
0.0
  0
LINE
 8
F Base plate
10
2456.46561172353
20
-3.31734001081393
30
0.0
11
2456.49446303919
21
-2.72432515383975
31
0.0
  0
LINE
 8
F Base plate
10
2456.49446303919
20
-2.72432515383975
30
0.0
11
2456.40922585444
21
-2.14615214267704
31
0.0
  0
LINE
 8
F Base plate
10
2456.40922585444
20
-2.14615214267704
30
0.0
11
2456.21934650712
21
-1.60936977091052
31
0.0
  0
LINE
 8
F Base plate
10
2456.21934650712
20
-1.60936977091052
30
0.0
11
2455.93581709943
21
-1.12498118439035
31
0.0
  0
LINE
 8
F Base plate
10
2455.93581709943
20
-1.12498118439035
30
0.0
11
2455.56962973358
21
-0.7039895289669
31
0.0
  0
LINE
 8
F Base plate
10
2455.56962973358
20
-0.7039895289669
30
0.0
11
2455.13177651179
21
-0.357397950490696
31
0.0
  0
LINE
 8
F Base plate
10
2455.13177651179
20
-0.357397950490696
30
0.0
11
2454.63324953627
21
-0.0962095948120932
31
0.0
  0
LINE
 8
F Base plate
10
2454.63324953627
20
-0.0962095948120932
30
0.0
11
2454.08504090922
21
0.0685723922187336
31
0.0
  0
LINE
 8
F Base plate
10
2454.08504090922
20
0.0685723922187336
30
0.0
11
2453.49814273287
21
0.12594486475125
31
0.0
  0
LINE
 8
F Base plate
10
2169.49823621243
20
-41.0553756948197
30
0.0
11
2269.49822755834
21
-41.0553756948197
31
0.0
  0
LINE
 8
F Base plate
10
1953.65200961819
20
-124.873915126476
30
0.0
11
1953.65200961819
21
94.6260960224117
31
0.0
  0
LINE
 8
F Base plate
10
2249.43466723552
20
-99.0556635087593
30
0.0
11
2249.30306450117
21
-68.2943856279195
31
0.0
  0
LINE
 8
F Base plate
10
2169.43295160991
20
-99.0556635087593
30
0.0
11
2249.43466723552
21
-99.0556635087593
31
0.0
  0
LINE
 8
F Base plate
10
2453.49814273287
20
-69.8739629499449
30
0.0
11
2452.91143805028
21
-69.9313487668748
31
0.0
  0
LINE
 8
F Base plate
10
2452.91143805028
20
-69.9313487668748
30
0.0
11
2452.36332352424
21
-70.0961634246716
31
0.0
  0
LINE
 8
F Base plate
10
2452.36332352424
20
-70.0961634246716
30
0.0
11
2451.86481334425
21
-70.3573927338456
31
0.0
  0
LINE
 8
F Base plate
10
2451.86481334425
20
-70.3573927338456
30
0.0
11
2451.4269216998
21
-70.7040225049074
31
0.0
  0
LINE
 8
F Base plate
10
2451.4269216998
20
-70.7040225049074
30
0.0
11
2451.06066278038
21
-71.1250385483672
31
0.0
  0
LINE
 8
F Base plate
10
2451.06066278038
20
-71.1250385483672
30
0.0
11
2450.77705077547
21
-71.6094266747358
31
0.0
  0
LINE
 8
F Base plate
10
2450.77705077547
20
-71.6094266747358
30
0.0
11
2450.58709987456
21
-72.1461726945234
31
0.0
  0
LINE
 8
F Base plate
10
2450.58709987456
20
-72.1461726945234
30
0.0
11
2450.50182426715
21
-72.7242624182405
31
0.0
  0
LINE
 8
F Base plate
10
2450.50182426715
20
-72.7242624182405
30
0.0
11
2450.53068927232
21
-73.3172558494042
31
0.0
  0
LINE
 8
F Base plate
10
2450.53068927232
20
-73.3172558494042
30
0.0
11
2450.66967930017
21
-73.8761408379468
31
0.0
  0
LINE
 8
F Base plate
10
2450.66967930017
20
-73.8761408379468
30
0.0
11
2450.90783752676
21
-74.3881510999301
31
0.0
  0
LINE
 8
F Base plate
10
2450.90783752676
20
-74.3881510999301
30
0.0
11
2451.23414976262
21
-74.8422761270777
31
0.0
  0
LINE
 8
F Base plate
10
2451.23414976262
20
-74.8422761270777
30
0.0
11
2451.63760181824
21
-75.2275054111131
31
0.0
  0
LINE
 8
F Base plate
10
2451.63760181824
20
-75.2275054111131
30
0.0
11
2452.10717950415
21
-75.5328284437598
31
0.0
  0
LINE
 8
F Base plate
10
2452.10717950415
20
-75.5328284437598
30
0.0
11
2452.63186863085
21
-75.7472347167414
31
0.0
  0
LINE
 8
F Base plate
10
2452.63186863085
20
-75.7472347167414
30
0.0
11
2453.20065500885
21
-75.8597137217814
31
0.0
  0
LINE
 8
F Base plate
10
2453.20065500885
20
-75.8597137217814
30
0.0
11
2453.79574100832
21
-75.8597137217814
31
0.0
  0
LINE
 8
F Base plate
10
2453.79574100832
20
-75.8597137217814
30
0.0
11
2454.3646684228
21
-75.7472347167414
31
0.0
  0
LINE
 8
F Base plate
10
2454.3646684228
20
-75.7472347167414
30
0.0
11
2454.88941023685
21
-75.5328284437598
31
0.0
  0
LINE
 8
F Base plate
10
2454.88941023685
20
-75.5328284437598
30
0.0
11
2455.35897434829
21
-75.2275054111131
31
0.0
  0
LINE
 8
F Base plate
10
2455.35897434829
20
-75.2275054111131
30
0.0
11
2455.76236865488
21
-74.8422761270777
31
0.0
  0
LINE
 8
F Base plate
10
2455.76236865488
20
-74.8422761270777
30
0.0
11
2456.08860105443
21
-74.3881510999301
31
0.0
  0
LINE
 8
F Base plate
10
2456.08860105443
20
-74.3881510999301
30
0.0
11
2456.32667944472
21
-73.8761408379468
31
0.0
  0
LINE
 8
F Base plate
10
2456.32667944472
20
-73.8761408379468
30
0.0
11
2456.46561172353
21
-73.3172558494042
31
0.0
  0
LINE
 8
F Base plate
10
2456.46561172353
20
-73.3172558494042
30
0.0
11
2456.49446303919
21
-72.7242624182405
31
0.0
  0
LINE
 8
F Base plate
10
2456.49446303919
20
-72.7242624182405
30
0.0
11
2456.40922585444
21
-72.1461726945234
31
0.0
  0
LINE
 8
F Base plate
10
2456.40922585444
20
-72.1461726945234
30
0.0
11
2456.21934650712
21
-71.6094266747358
31
0.0
  0
LINE
 8
F Base plate
10
2456.21934650712
20
-71.6094266747358
30
0.0
11
2455.93581709943
21
-71.1250385483672
31
0.0
  0
LINE
 8
F Base plate
10
2455.93581709943
20
-71.1250385483672
30
0.0
11
2455.56962973358
21
-70.7040225049074
31
0.0
  0
LINE
 8
F Base plate
10
2455.56962973358
20
-70.7040225049074
30
0.0
11
2455.13177651179
21
-70.3573927338456
31
0.0
  0
LINE
 8
F Base plate
10
2455.13177651179
20
-70.3573927338456
30
0.0
11
2454.63324953627
21
-70.0961634246716
31
0.0
  0
LINE
 8
F Base plate
10
2454.63324953627
20
-70.0961634246716
30
0.0
11
2454.08504090922
21
-69.9313487668748
31
0.0
  0
LINE
 8
F Base plate
10
2454.08504090922
20
-69.9313487668748
30
0.0
11
2453.49814273287
21
-69.8739629499449
31
0.0
  0
LINE
 8
F Base plate
10
2269.49822755834
20
-40.8738190429749
30
0.0
11
2269.49822755834
21
-41.0553756948197
31
0.0
  0
LINE
 8
F Base plate
10
2423.68357771592
20
-124.873915126476
30
0.0
11
2423.68357771592
21
94.6260960224117
31
0.0
  0
LINE
 8
F Base plate
10
2421.6840429772
20
-124.873915126476
30
0.0
11
2421.6840429772
21
76.6260631291695
31
0.0
  0
LINE
 8
F Base plate
10
2079.64784737124
20
-124.873915126476
30
0.0
11
2079.64784737124
21
94.6260960224117
31
0.0
  0
LINE
 8
F Base plate
10
2081.64720985508
20
-124.873915126476
30
0.0
11
2081.64720985508
21
76.6260631291695
31
0.0
  0
LINE
 8
F Base plate
10
2381.49835566968
20
76.6260631291695
30
0.0
11
2421.6840429772
21
76.6260631291695
31
0.0
  0
LINE
 8
F Base plate
10
2169.49823621243
20
76.6260631291695
30
0.0
11
2081.64720985508
21
76.6260631291695
31
0.0
  0
LINE
 8
F Base plate
10
2022.8488651455
20
-88.0844051887547
30
0.0
11
2022.8488651455
21
-85.0844140611216
31
0.0
  0
LINE
 8
F Base plate
10
2022.8488651455
20
-85.0844140611216
30
0.0
11
2012.84877988347
21
-85.0844140611216
31
0.0
  0
LINE
 8
F Base plate
10
2012.84877988347
20
-85.0844140611216
30
0.0
11
2012.84877988347
21
-88.0844051887547
31
0.0
  0
LINE
 8
F Base plate
10
2012.84877988347
20
-88.0844051887547
30
0.0
11
2022.8488651455
21
-88.0844051887547
31
0.0
  0
LINE
 8
F Base plate
10
2022.8488651455
20
43.9158934466507
30
0.0
11
2022.8488651455
21
46.9162290840594
31
0.0
  0
LINE
 8
F Base plate
10
2022.8488651455
20
46.9162290840594
30
0.0
11
2012.84877988347
21
46.9162290840594
31
0.0
  0
LINE
 8
F Base plate
10
2012.84877988347
20
46.9162290840594
30
0.0
11
2012.84877988347
21
43.9158934466507
31
0.0
  0
LINE
 8
F Base plate
10
2012.84877988347
20
43.9158934466507
30
0.0
11
2022.8488651455
21
43.9158934466507
31
0.0
  0
LINE
 8
F Base plate
10
2169.49823621243
20
76.6260631291695
30
0.0
11
2169.49823621243
21
-41.0553756948197
31
0.0
  0
LINE
 8
F Base plate
10
2381.49835566968
20
76.6260631291695
30
0.0
11
2381.49835566968
21
94.6260960224117
31
0.0
  0
LINE
 8
F Base plate
10
2169.43277935502
20
-68.2943856279195
30
0.0
11
2169.28153956345
21
-68.2943856279195
31
0.0
  0
LINE
 8
F Base plate
10
2079.64784737124
20
-124.873915126476
30
0.0
11
1953.65200961819
21
-124.873915126476
31
0.0
  0
LINE
 8
F Base plate
10
2081.64720985508
20
-124.873915126476
30
0.0
11
2079.64784737124
21
-124.873915126476
31
0.0
  0
LINE
 8
F Base plate
10
2269.49822755834
20
-124.873915126476
30
0.0
11
2081.64720985508
21
-124.873915126476
31
0.0
  0
LINE
 8
F Base plate
10
2423.68357771592
20
-124.873915126476
30
0.0
11
2421.6840429772
21
-124.873915126476
31
0.0
  0
LINE
 8
F Base plate
10
2421.6840429772
20
76.6260631291695
30
0.0
11
2421.6840429772
21
94.6260960224117
31
0.0
  0
LINE
 8
F Base plate
10
2081.64720985508
20
76.6260631291695
30
0.0
11
2081.64720985508
21
94.6260960224117
31
0.0
  0
LINE
 8
F Base plate
10
2421.6840429772
20
-124.873915126476
30
0.0
11
2269.49822755834
21
-124.873915126476
31
0.0
  0
LINE
 8
F Base plate
10
2269.49822755834
20
-41.0553756948197
30
0.0
11
2381.49835566968
21
-41.0553756948197
31
0.0
  0
LINE
 8
F Base plate
10
2269.49822755834
20
-41.0553756948197
30
0.0
11
2269.49822755834
21
-124.873915126476
31
0.0
  0
LINE
 8
F Base plate
10
2479.68398628136
20
94.6260960224117
30
0.0
11
2479.68398628136
21
-124.873915126476
31
0.0
  0
LINE
 8
F Base plate
10
2169.49823621243
20
94.6260960224117
30
0.0
11
2169.49823621243
21
76.6260631291695
31
0.0
  0
LINE
 8
Layer0
10
1948.65200961819
20
94.6260960224117
30
0.0
11
2484.68398628136
21
94.6260960224117
31
0.0
  0
LINE
 8
Layer0
10
1348.65200961819
20
94.6260960224117
30
0.0
11
1884.68398628136
21
94.6260960224117
31
0.0
 0
ENDSEC
 0
EOF
