 0
SECTION
 2
ENTITIES
  0
LINE
 8
F Base plate
10
168.574330034281
20
-936.748783290904
30
0.0
11
169.048456760058
21
-936.842490410072
31
0.0
  0
LINE
 8
F Base plate
10
165.291246134922
20
-996.883037570986
30
0.0
11
165.529344484286
21
-996.371076698611
31
0.0
  0
LINE
 8
F Base plate
10
164.964993776299
20
-997.337103085189
30
0.0
11
165.291246134922
21
-996.883037570986
31
0.0
  0
LINE
 8
F Base plate
10
162.114024662753
20
-992.426297866485
30
0.0
11
161.565863086214
21
-992.59104718275
31
0.0
  0
LINE
 8
F Base plate
10
161.565863086214
20
-992.59104718275
30
0.0
11
161.067344508459
21
-992.852194584934
31
0.0
  0
LINE
 8
F Base plate
10
160.263248932702
20
-993.619715238211
30
0.0
11
159.9796782264
21
-994.104104284883
31
0.0
  0
LINE
 8
F Base plate
10
160.629472075338
20
-993.198747970824
30
0.0
11
160.263248932702
21
-993.619715238211
31
0.0
  0
LINE
 8
F Base plate
10
161.067344508459
20
-992.852194584934
30
0.0
11
160.629472075338
21
-993.198747970824
31
0.0
  0
LINE
 8
F Base plate
10
164.561585032447
20
-997.72227009537
30
0.0
11
164.964993776299
21
-997.337103085189
31
0.0
  0
LINE
 8
F Base plate
10
159.9796782264
20
-994.104104284883
30
0.0
11
159.789763102284
21
-994.640923008628
31
0.0
  0
LINE
 8
F Base plate
10
159.789763102284
20
-994.640923008628
30
0.0
11
159.704506706203
21
-995.219179307237
31
0.0
  0
LINE
 8
F Base plate
10
159.704506706203
20
-995.219179307237
30
0.0
11
159.733364866623
21
-995.812223613915
31
0.0
  0
LINE
 8
F Base plate
10
159.733364866623
20
-995.812223613915
30
0.0
11
159.872326019953
21
-996.371076698611
31
0.0
  0
LINE
 8
F Base plate
10
159.872326019953
20
-996.371076698611
30
0.0
11
160.110444328393
21
-996.883037570986
31
0.0
  0
LINE
 8
F Base plate
10
160.110444328393
20
-996.883037570986
30
0.0
11
160.436716646094
21
-997.337103085189
31
0.0
  0
LINE
 8
F Base plate
10
160.436716646094
20
-997.337103085189
30
0.0
11
160.840139827204
21
-997.72227009537
31
0.0
  0
LINE
 8
F Base plate
10
160.840139827204
20
-997.72227009537
30
0.0
11
161.309710725873
21
-998.027535455679
31
0.0
  0
LINE
 8
F Base plate
10
161.309710725873
20
-998.027535455679
30
0.0
11
161.834426196251
21
-998.241896020265
31
0.0
  0
LINE
 8
F Base plate
10
161.834426196251
20
-998.241896020265
30
0.0
11
162.403283092489
21
-998.354348643278
31
0.0
  0
LINE
 8
F Base plate
10
162.403283092489
20
-998.354348643278
30
0.0
11
162.998396729821
21
-998.354348643278
31
0.0
  0
LINE
 8
F Base plate
10
162.998396729821
20
-998.354348643278
30
0.0
11
163.567288885177
21
-998.241896020265
31
0.0
  0
LINE
 8
F Base plate
10
163.567288885177
20
-998.241896020265
30
0.0
11
164.092017527396
21
-998.027535455679
31
0.0
  0
LINE
 8
F Base plate
10
164.092017527396
20
-998.027535455679
30
0.0
11
164.561585032447
21
-997.72227009537
31
0.0
  0
LINE
 8
F Base plate
10
162.700826092226
20
-992.36893873835
30
0.0
11
162.114024662753
21
-992.426297866485
31
0.0
  0
LINE
 8
F Base plate
10
165.529344484286
20
-996.371076698611
30
0.0
11
165.668291200358
21
-995.812223613915
31
0.0
  0
LINE
 8
F Base plate
10
165.668291200358
20
-995.812223613915
30
0.0
11
165.6971459384
21
-995.219179307237
31
0.0
  0
LINE
 8
F Base plate
10
165.6971459384
20
-995.219179307237
30
0.0
11
165.611899147985
21
-994.640923008628
31
0.0
  0
LINE
 8
F Base plate
10
165.611899147985
20
-994.640923008628
30
0.0
11
165.422001912264
21
-994.104104284883
31
0.0
  0
LINE
 8
F Base plate
10
165.422001912264
20
-994.104104284883
30
0.0
11
165.138451855266
21
-993.619715238211
31
0.0
  0
LINE
 8
F Base plate
10
165.138451855266
20
-993.619715238211
30
0.0
11
164.772246601025
21
-993.198747970824
31
0.0
  0
LINE
 8
F Base plate
10
164.772246601025
20
-993.198747970824
30
0.0
11
164.334383773569
21
-992.852194584934
31
0.0
  0
LINE
 8
F Base plate
10
164.334383773569
20
-992.852194584934
30
0.0
11
163.83586099693
21
-992.59104718275
31
0.0
  0
LINE
 8
F Base plate
10
163.83586099693
20
-992.59104718275
30
0.0
11
163.287675895139
21
-992.426297866485
31
0.0
  0
LINE
 8
F Base plate
10
163.287675895139
20
-992.426297866485
30
0.0
11
162.700826092226
21
-992.36893873835
31
0.0
  0
LINE
 8
F Base plate
10
167.177558373809
20
-1203.2545690709
30
0.0
11
166.59070159193
21
-1203.31195488783
31
0.0
  0
LINE
 8
F Base plate
10
166.59070159193
20
-1203.31195488783
30
0.0
11
166.042498007381
21
-1203.47676954563
31
0.0
  0
LINE
 8
F Base plate
10
166.042498007381
20
-1203.47676954563
30
0.0
11
165.543948925407
21
-1203.7379988548
31
0.0
  0
LINE
 8
F Base plate
10
165.543948925407
20
-1203.7379988548
30
0.0
11
165.106055651252
21
-1204.08462862586
31
0.0
  0
LINE
 8
F Base plate
10
165.106055651252
20
-1204.08462862586
30
0.0
11
164.739819490159
21
-1204.50564466932
31
0.0
  0
LINE
 8
F Base plate
10
164.739819490159
20
-1204.50564466932
30
0.0
11
164.456241747372
21
-1204.99003279569
31
0.0
  0
LINE
 8
F Base plate
10
164.456241747372
20
-1204.99003279569
30
0.0
11
164.266323728135
21
-1205.52677881548
31
0.0
  0
LINE
 8
F Base plate
10
164.266323728135
20
-1205.52677881548
30
0.0
11
164.181066737692
21
-1206.10486853919
31
0.0
  0
LINE
 8
F Base plate
10
164.181066737692
20
-1206.10486853919
30
0.0
11
164.209925022736
21
-1206.69786197036
31
0.0
  0
LINE
 8
F Base plate
10
164.209925022736
20
-1206.69786197036
30
0.0
11
164.348887690732
21
-1207.2567469589
31
0.0
  0
LINE
 8
F Base plate
10
164.348887690732
20
-1207.2567469589
30
0.0
11
164.587010734899
21
-1207.76875722088
31
0.0
  0
LINE
 8
F Base plate
10
164.587010734899
20
-1207.76875722088
30
0.0
11
164.913292849995
21
-1208.22288224803
31
0.0
  0
LINE
 8
F Base plate
10
164.913292849995
20
-1208.22288224803
30
0.0
11
165.316732730775
21
-1208.60811153207
31
0.0
  0
LINE
 8
F Base plate
10
165.316732730775
20
-1208.60811153207
30
0.0
11
165.786329071995
21
-1208.91343456471
31
0.0
  0
LINE
 8
F Base plate
10
165.786329071995
20
-1208.91343456471
30
0.0
11
166.311080568411
21
-1209.1278408377
31
0.0
  0
LINE
 8
F Base plate
10
166.311080568411
20
-1209.1278408377
30
0.0
11
166.879985914781
21
-1209.24031984273
31
0.0
  0
LINE
 8
F Base plate
10
166.879985914781
20
-1209.24031984273
30
0.0
11
167.475129011404
21
-1209.24031984273
31
0.0
  0
LINE
 8
F Base plate
10
167.475129011404
20
-1209.24031984273
30
0.0
11
168.04402116676
21
-1209.1278408377
31
0.0
  0
LINE
 8
F Base plate
10
168.04402116676
20
-1209.1278408377
30
0.0
11
168.568749808979
21
-1208.91343456471
31
0.0
  0
LINE
 8
F Base plate
10
168.568749808979
20
-1208.91343456471
30
0.0
11
169.03831731403
21
-1208.60811153207
31
0.0
  0
LINE
 8
F Base plate
10
169.03831731403
20
-1208.60811153207
30
0.0
11
169.441726057883
21
-1208.22288224803
31
0.0
  0
LINE
 8
F Base plate
10
169.441726057883
20
-1208.22288224803
30
0.0
11
169.767978416506
21
-1207.76875722088
31
0.0
  0
LINE
 8
F Base plate
10
169.767978416506
20
-1207.76875722088
30
0.0
11
170.006076765869
21
-1207.2567469589
31
0.0
  0
LINE
 8
F Base plate
10
170.006076765869
20
-1207.2567469589
30
0.0
11
170.145023481941
21
-1206.69786197036
31
0.0
  0
LINE
 8
F Base plate
10
170.145023481941
20
-1206.69786197036
30
0.0
11
170.173878219984
21
-1206.10486853919
31
0.0
  0
LINE
 8
F Base plate
10
170.173878219984
20
-1206.10486853919
30
0.0
11
170.088631429568
21
-1205.52677881548
31
0.0
  0
LINE
 8
F Base plate
10
170.088631429568
20
-1205.52677881548
30
0.0
11
169.898734193847
21
-1204.99003279569
31
0.0
  0
LINE
 8
F Base plate
10
169.898734193847
20
-1204.99003279569
30
0.0
11
169.61518413685
21
-1204.50564466932
31
0.0
  0
LINE
 8
F Base plate
10
169.61518413685
20
-1204.50564466932
30
0.0
11
169.248978882608
21
-1204.08462862586
31
0.0
  0
LINE
 8
F Base plate
10
169.248978882608
20
-1204.08462862586
30
0.0
11
168.811116055152
21
-1203.7379988548
31
0.0
  0
LINE
 8
F Base plate
10
168.811116055152
20
-1203.7379988548
30
0.0
11
168.312593278513
21
-1203.47676954563
31
0.0
  0
LINE
 8
F Base plate
10
168.312593278513
20
-1203.47676954563
30
0.0
11
167.764408176722
21
-1203.31195488783
31
0.0
  0
LINE
 8
F Base plate
10
167.764408176722
20
-1203.31195488783
30
0.0
11
167.177558373809
21
-1203.2545690709
31
0.0
  0
LINE
 8
F Base plate
10
70.1775581555279
20
-1005.25463788245
30
0.0
11
69.5906599791743
21
-1005.31201035499
31
0.0
  0
LINE
 8
F Base plate
10
69.5906599791743
20
-1005.31201035499
30
0.0
11
69.0424513521307
21
-1005.47679234202
31
0.0
  0
LINE
 8
F Base plate
10
69.0424513521307
20
-1005.47679234202
30
0.0
11
68.543924376608
21
-1005.7379806977
31
0.0
  0
LINE
 8
F Base plate
10
68.543924376608
20
-1005.7379806977
30
0.0
11
68.1060711548177
21
-1006.08457227617
31
0.0
  0
LINE
 8
F Base plate
10
68.1060711548177
20
-1006.08457227617
30
0.0
11
67.739883788971
21
-1006.5055639316
31
0.0
  0
LINE
 8
F Base plate
10
67.739883788971
20
-1006.5055639316
30
0.0
11
67.4563543812783
21
-1006.98995251812
31
0.0
  0
LINE
 8
F Base plate
10
67.4563543812783
20
-1006.98995251812
30
0.0
11
67.2664750339516
21
-1007.52673488988
31
0.0
  0
LINE
 8
F Base plate
10
67.2664750339516
20
-1007.52673488988
30
0.0
11
67.1812378492018
21
-1008.10490790105
31
0.0
  0
LINE
 8
F Base plate
10
67.1812378492018
20
-1008.10490790105
30
0.0
11
67.2100891648664
21
-1008.69792275802
31
0.0
  0
LINE
 8
F Base plate
10
67.2100891648664
20
-1008.69792275802
30
0.0
11
67.3490214436813
21
-1009.25677584272
31
0.0
  0
LINE
 8
F Base plate
10
67.3490214436813
20
-1009.25677584272
30
0.0
11
67.5870998339673
21
-1009.76873671509
31
0.0
  0
LINE
 8
F Base plate
10
67.5870998339673
20
-1009.76873671509
30
0.0
11
67.9133322335131
21
-1010.22280222929
31
0.0
  0
LINE
 8
F Base plate
10
67.9133322335131
20
-1010.22280222929
30
0.0
11
68.3167265401084
21
-1010.60796923947
31
0.0
  0
LINE
 8
F Base plate
10
68.3167265401084
20
-1010.60796923947
30
0.0
11
68.7862906515412
21
-1010.91323459978
31
0.0
  0
LINE
 8
F Base plate
10
68.7862906515412
20
-1010.91323459978
30
0.0
11
69.3110324656008
21
-1011.12759516437
31
0.0
  0
LINE
 8
F Base plate
10
69.3110324656008
20
-1011.12759516437
30
0.0
11
69.8799598800755
21
-1011.24004778738
31
0.0
  0
LINE
 8
F Base plate
10
69.8799598800755
20
-1011.24004778738
30
0.0
11
70.475101155265
21
-1011.24004778738
31
0.0
  0
LINE
 8
F Base plate
10
70.475101155265
20
-1011.24004778738
30
0.0
11
71.0439580515022
21
-1011.12759516437
31
0.0
  0
LINE
 8
F Base plate
10
71.0439580515022
20
-1011.12759516437
30
0.0
11
71.5686735218808
21
-1010.91323459978
31
0.0
  0
LINE
 8
F Base plate
10
71.5686735218808
20
-1010.91323459978
30
0.0
11
72.0382444205503
21
-1010.60796923947
31
0.0
  0
LINE
 8
F Base plate
10
72.0382444205503
20
-1010.60796923947
30
0.0
11
72.4416676016601
21
-1010.22280222929
31
0.0
  0
LINE
 8
F Base plate
10
72.4416676016601
20
-1010.22280222929
30
0.0
11
72.7679399193603
21
-1009.76873671509
31
0.0
  0
LINE
 8
F Base plate
10
72.7679399193603
20
-1009.76873671509
30
0.0
11
73.0060582278008
21
-1009.25677584272
31
0.0
  0
LINE
 8
F Base plate
10
73.0060582278008
20
-1009.25677584272
30
0.0
11
73.1450193811305
21
-1008.69792275802
31
0.0
  0
LINE
 8
F Base plate
10
73.1450193811305
20
-1008.69792275802
30
0.0
11
73.1738775415505
21
-1008.10490790105
31
0.0
  0
LINE
 8
F Base plate
10
73.1738775415505
20
-1008.10490790105
30
0.0
11
73.0886211454699
21
-1007.52673488988
31
0.0
  0
LINE
 8
F Base plate
10
73.0886211454699
20
-1007.52673488988
30
0.0
11
72.8987060213538
21
-1006.98995251812
31
0.0
  0
LINE
 8
F Base plate
10
72.8987060213538
20
-1006.98995251812
30
0.0
11
72.6151353150521
21
-1006.5055639316
31
0.0
  0
LINE
 8
F Base plate
10
72.6151353150521
20
-1006.5055639316
30
0.0
11
72.2489121724158
21
-1006.08457227617
31
0.0
  0
LINE
 8
F Base plate
10
72.2489121724158
20
-1006.08457227617
30
0.0
11
71.8110397392949
21
-1005.7379806977
31
0.0
  0
LINE
 8
F Base plate
10
71.8110397392949
20
-1005.7379806977
30
0.0
11
71.3125211615397
21
-1005.47679234202
31
0.0
  0
LINE
 8
F Base plate
10
71.3125211615397
20
-1005.47679234202
30
0.0
11
70.7643595850006
21
-1005.31201035499
31
0.0
  0
LINE
 8
F Base plate
10
70.7643595850006
20
-1005.31201035499
30
0.0
11
70.1775581555279
21
-1005.25463788245
31
0.0
  0
LINE
 8
F Base plate
10
65.2963713971598
20
-931.849250934013
30
0.0
11
64.8073171798479
21
-931.897059308236
31
0.0
  0
LINE
 8
F Base plate
10
64.8073171798479
20
-931.897059308236
30
0.0
11
64.3504800189751
21
-932.034373617217
31
0.0
  0
LINE
 8
F Base plate
10
64.3504800189751
20
-932.034373617217
30
0.0
11
63.935026135072
21
-932.252027640424
31
0.0
  0
LINE
 8
F Base plate
10
63.935026135072
20
-932.252027640424
30
0.0
11
63.5701217486701
21
-932.540855157328
31
0.0
  0
LINE
 8
F Base plate
10
63.5701217486701
20
-932.540855157328
30
0.0
11
63.2649330803001
21
-932.891689947397
31
0.0
  0
LINE
 8
F Base plate
10
63.2649330803001
20
-932.891689947397
30
0.0
11
63.0286263504933
21
-933.295365790099
31
0.0
  0
LINE
 8
F Base plate
10
63.0286263504933
20
-933.295365790099
30
0.0
11
62.8703677797811
21
-933.742716464905
31
0.0
  0
LINE
 8
F Base plate
10
62.8703677797811
20
-933.742716464905
30
0.0
11
62.7993235886938
21
-934.224575751282
31
0.0
  0
LINE
 8
F Base plate
10
62.7993235886938
20
-934.224575751282
30
0.0
11
62.8233709980011
21
-934.718803309607
31
0.0
  0
LINE
 8
F Base plate
10
62.8233709980011
20
-934.718803309607
30
0.0
11
62.939168156467
21
-935.184522163918
31
0.0
  0
LINE
 8
F Base plate
10
62.939168156467
20
-935.184522163918
30
0.0
11
63.1375965842932
21
-935.61113181063
31
0.0
  0
LINE
 8
F Base plate
10
63.1375965842932
20
-935.61113181063
30
0.0
11
63.4094900609479
21
-935.989473391637
31
0.0
  0
LINE
 8
F Base plate
10
63.4094900609479
20
-935.989473391637
30
0.0
11
63.7456823659001
21
-936.310388048836
31
0.0
  0
LINE
 8
F Base plate
10
63.7456823659001
20
-936.310388048836
30
0.0
11
64.1370072786189
21
-936.56471692412
31
0.0
  0
LINE
 8
F Base plate
10
64.1370072786189
20
-936.56471692412
30
0.0
11
64.5742985785733
21
-936.743301159385
31
0.0
  0
LINE
 8
F Base plate
10
64.5742985785733
20
-936.743301159385
30
0.0
11
65.0483900452323
21
-936.836981896526
31
0.0
  0
LINE
 8
F Base plate
10
65.0483900452323
20
-936.836981896526
30
0.0
11
65.544295651939
21
-936.836981896526
31
0.0
  0
LINE
 8
F Base plate
10
65.544295651939
20
-936.836981896526
30
0.0
11
66.0183034093467
21
-936.743301159385
31
0.0
  0
LINE
 8
F Base plate
10
66.0183034093467
20
-936.743301159385
30
0.0
11
66.4555455114223
21
-936.56471692412
31
0.0
  0
LINE
 8
F Base plate
10
66.4555455114223
20
-936.56471692412
30
0.0
11
66.8468483752088
21
-936.310388048836
31
0.0
  0
LINE
 8
F Base plate
10
66.8468483752088
20
-936.310388048836
30
0.0
11
67.1830384177488
21
-935.989473391637
31
0.0
  0
LINE
 8
F Base plate
10
67.1830384177488
20
-935.989473391637
30
0.0
11
67.4549420560853
21
-935.61113181063
31
0.0
  0
LINE
 8
F Base plate
10
67.4549420560853
20
-935.61113181063
30
0.0
11
67.6533857072611
21
-935.184522163918
31
0.0
  0
LINE
 8
F Base plate
10
67.6533857072611
20
-935.184522163918
30
0.0
11
67.7691957883191
21
-934.718803309607
31
0.0
  0
LINE
 8
F Base plate
10
67.7691957883191
20
-934.718803309607
30
0.0
11
67.7932464953797
21
-934.224575751282
31
0.0
  0
LINE
 8
F Base plate
10
67.7932464953797
20
-934.224575751282
30
0.0
11
67.7221932929895
21
-933.742716464905
31
0.0
  0
LINE
 8
F Base plate
10
67.7221932929895
20
-933.742716464905
30
0.0
11
67.563919729003
21
-933.295365790099
31
0.0
  0
LINE
 8
F Base plate
10
67.563919729003
20
-933.295365790099
30
0.0
11
67.3275993863774
21
-932.891689947397
31
0.0
  0
LINE
 8
F Base plate
10
67.3275993863774
20
-932.891689947397
30
0.0
11
67.0224058480693
21
-932.540855157328
31
0.0
  0
LINE
 8
F Base plate
10
67.0224058480693
20
-932.540855157328
30
0.0
11
66.6575126970364
21
-932.252027640424
31
0.0
  0
LINE
 8
F Base plate
10
66.6575126970364
20
-932.252027640424
30
0.0
11
66.2420935162358
21
-932.034373617217
31
0.0
  0
LINE
 8
F Base plate
10
66.2420935162358
20
-932.034373617217
30
0.0
11
65.7853218886245
21
-931.897059308236
31
0.0
  0
LINE
 8
F Base plate
10
65.7853218886245
20
-931.897059308236
30
0.0
11
65.2963713971598
21
-931.849250934013
31
0.0
  0
LINE
 8
F Base plate
10
72.7007477534589
20
-992.36893873835
30
0.0
11
72.1138979505458
21
-992.426297866485
31
0.0
  0
LINE
 8
F Base plate
10
72.1138979505458
20
-992.426297866485
30
0.0
11
71.5657128487544
21
-992.59104718275
31
0.0
  0
LINE
 8
F Base plate
10
71.5657128487544
20
-992.59104718275
30
0.0
11
71.0671900721159
21
-992.852194584934
31
0.0
  0
LINE
 8
F Base plate
10
71.0671900721159
20
-992.852194584934
30
0.0
11
70.6293272446599
21
-993.198747970824
31
0.0
  0
LINE
 8
F Base plate
10
70.6293272446599
20
-993.198747970824
30
0.0
11
70.2631219904182
21
-993.619715238211
31
0.0
  0
LINE
 8
F Base plate
10
70.2631219904182
20
-993.619715238211
30
0.0
11
69.9795719334214
21
-994.104104284883
31
0.0
  0
LINE
 8
F Base plate
10
69.9795719334214
20
-994.104104284883
30
0.0
11
69.7896746977
21
-994.640923008628
31
0.0
  0
LINE
 8
F Base plate
10
69.7896746977
20
-994.640923008628
30
0.0
11
69.7044279072846
21
-995.219179307237
31
0.0
  0
LINE
 8
F Base plate
10
69.7044279072846
20
-995.219179307237
30
0.0
11
69.7332826453269
21
-995.812223613915
31
0.0
  0
LINE
 8
F Base plate
10
69.7332826453269
20
-995.812223613915
30
0.0
11
69.8722293613992
21
-996.371076698611
31
0.0
  0
LINE
 8
F Base plate
10
69.8722293613992
20
-996.371076698611
30
0.0
11
70.1103277107622
21
-996.883037570986
31
0.0
  0
LINE
 8
F Base plate
10
70.1103277107622
20
-996.883037570986
30
0.0
11
70.4365800693854
21
-997.337103085189
31
0.0
  0
LINE
 8
F Base plate
10
70.4365800693854
20
-997.337103085189
30
0.0
11
70.8399888132381
21
-997.72227009537
31
0.0
  0
LINE
 8
F Base plate
10
70.8399888132381
20
-997.72227009537
30
0.0
11
71.3095563182892
21
-998.027535455679
31
0.0
  0
LINE
 8
F Base plate
10
71.3095563182892
20
-998.027535455679
30
0.0
11
71.8342849605082
21
-998.241896020265
31
0.0
  0
LINE
 8
F Base plate
10
71.8342849605082
20
-998.241896020265
30
0.0
11
72.403177115864
21
-998.354348643278
31
0.0
  0
LINE
 8
F Base plate
10
72.403177115864
20
-998.354348643278
30
0.0
11
72.9982907531964
21
-998.354348643278
31
0.0
  0
LINE
 8
F Base plate
10
72.9982907531964
20
-998.354348643278
30
0.0
11
73.5671476494336
21
-998.241896020265
31
0.0
  0
LINE
 8
F Base plate
10
73.5671476494336
20
-998.241896020265
30
0.0
11
74.0918631198118
21
-998.027535455679
31
0.0
  0
LINE
 8
F Base plate
10
74.0918631198118
20
-998.027535455679
30
0.0
11
74.5614340184814
21
-997.72227009537
31
0.0
  0
LINE
 8
F Base plate
10
74.5614340184814
20
-997.72227009537
30
0.0
11
74.9648571995915
21
-997.337103085189
31
0.0
  0
LINE
 8
F Base plate
10
74.9648571995915
20
-997.337103085189
30
0.0
11
75.2911295172917
21
-996.883037570986
31
0.0
  0
LINE
 8
F Base plate
10
75.2911295172917
20
-996.883037570986
30
0.0
11
75.5292478257318
21
-996.371076698611
31
0.0
  0
LINE
 8
F Base plate
10
75.5292478257318
20
-996.371076698611
30
0.0
11
75.6682089790615
21
-995.812223613915
31
0.0
  0
LINE
 8
F Base plate
10
75.6682089790615
20
-995.812223613915
30
0.0
11
75.6970671394819
21
-995.219179307237
31
0.0
  0
LINE
 8
F Base plate
10
75.6970671394819
20
-995.219179307237
30
0.0
11
75.6118107434012
21
-994.640923008628
31
0.0
  0
LINE
 8
F Base plate
10
75.6118107434012
20
-994.640923008628
30
0.0
11
75.4218956192852
21
-994.104104284883
31
0.0
  0
LINE
 8
F Base plate
10
75.4218956192852
20
-994.104104284883
30
0.0
11
75.1383249129835
21
-993.619715238211
31
0.0
  0
LINE
 8
F Base plate
10
75.1383249129835
20
-993.619715238211
30
0.0
11
74.7721017703471
21
-993.198747970824
31
0.0
  0
LINE
 8
F Base plate
10
74.7721017703471
20
-993.198747970824
30
0.0
11
74.3342293372259
21
-992.852194584934
31
0.0
  0
LINE
 8
F Base plate
10
74.3342293372259
20
-992.852194584934
30
0.0
11
73.8357107594707
21
-992.59104718275
31
0.0
  0
LINE
 8
F Base plate
10
73.8357107594707
20
-992.59104718275
30
0.0
11
73.2875491829316
21
-992.426297866485
31
0.0
  0
LINE
 8
F Base plate
10
73.2875491829316
20
-992.426297866485
30
0.0
11
72.7007477534589
21
-992.36893873835
31
0.0
  0
LINE
 8
F Base plate
10
272.064937654056
20
-959.323561043982
30
0.0
11
272.064937654056
21
-1071.64184393326
31
0.0
  0
LINE
 8
F Base plate
10
484.065057111305
20
-1189.32328275725
30
0.0
11
484.065057111305
21
-1071.64184393326
31
0.0
  0
LINE
 8
F Base plate
10
352.041676320921
20
-850.32342406028
30
0.0
11
352.065447495451
21
-912.087308919905
31
0.0
  0
LINE
 8
F Base plate
10
352.065447495451
20
-912.087308919905
30
0.0
11
272.065626673608
21
-912.087308919905
31
0.0
  0
LINE
 8
F Base plate
10
272.065626673608
20
-912.087308919905
30
0.0
11
272.065626673608
21
-850.32342406028
31
0.0
  0
LINE
 8
F Base plate
10
351.869765942799
20
-1216.56229269035
30
0.0
11
271.999480796655
21
-1216.56229269035
31
0.0
  0
LINE
 8
F Base plate
10
112.784115657567
20
-979.851865054348
30
0.0
11
112.295013066815
21
-979.899673428571
31
0.0
  0
LINE
 8
F Base plate
10
112.295013066815
20
-979.899673428571
30
0.0
11
111.83815238069
21
-980.036987737552
31
0.0
  0
LINE
 8
F Base plate
10
111.83815238069
20
-980.036987737552
30
0.0
11
111.422694297903
21
-980.254641760759
31
0.0
  0
LINE
 8
F Base plate
10
111.422694297903
20
-980.254641760759
30
0.0
11
111.057799517167
21
-980.543469277663
31
0.0
  0
LINE
 8
F Base plate
10
111.057799517167
20
-980.543469277663
30
0.0
11
110.752628737191
21
-980.894304067732
31
0.0
  0
LINE
 8
F Base plate
10
110.752628737191
20
-980.894304067732
30
0.0
11
110.516342656689
21
-981.297979910435
31
0.0
  0
LINE
 8
F Base plate
10
110.516342656689
20
-981.297979910435
30
0.0
11
110.358101974372
21
-981.74533058524
31
0.0
  0
LINE
 8
F Base plate
10
110.358101974372
20
-981.74533058524
30
0.0
11
110.28706738895
21
-982.227189871617
31
0.0
  0
LINE
 8
F Base plate
10
110.28706738895
20
-982.227189871617
30
0.0
11
110.311111375879
21
-982.721425453836
31
0.0
  0
LINE
 8
F Base plate
10
110.311111375879
20
-982.721425453836
30
0.0
11
110.426894097088
21
-983.187176211994
31
0.0
  0
LINE
 8
F Base plate
10
110.426894097088
20
-983.187176211994
30
0.0
11
110.625302565837
21
-983.613835248314
31
0.0
  0
LINE
 8
F Base plate
10
110.625302565837
20
-983.613835248314
30
0.0
11
110.897176083414
21
-983.992236342266
31
0.0
  0
LINE
 8
F Base plate
10
110.897176083414
20
-983.992236342266
30
0.0
11
111.233353951109
21
-984.313213273319
31
0.0
  0
LINE
 8
F Base plate
10
111.233353951109
20
-984.313213273319
30
0.0
11
111.62467547021
21
-984.567599820941
31
0.0
  0
LINE
 8
F Base plate
10
111.62467547021
20
-984.567599820941
30
0.0
11
112.061979942005
21
-984.746229764602
31
0.0
  0
LINE
 8
F Base plate
10
112.061979942005
20
-984.746229764602
30
0.0
11
112.536106667783
21
-984.83993688377
31
0.0
  0
LINE
 8
F Base plate
10
112.536106667783
20
-984.83993688377
30
0.0
11
113.032036269479
21
-984.83993688377
31
0.0
  0
LINE
 8
F Base plate
10
113.032036269479
20
-984.83993688377
30
0.0
11
113.50601764486
21
-984.746229764602
31
0.0
  0
LINE
 8
F Base plate
10
113.50601764486
20
-984.746229764602
30
0.0
11
113.94321403854
21
-984.567599820941
31
0.0
  0
LINE
 8
F Base plate
10
113.94321403854
20
-984.567599820941
30
0.0
11
114.334459229989
21
-984.313213273319
31
0.0
  0
LINE
 8
F Base plate
10
114.334459229989
20
-984.313213273319
30
0.0
11
114.670586998675
21
-983.992236342266
31
0.0
  0
LINE
 8
F Base plate
10
114.670586998675
20
-983.992236342266
30
0.0
11
114.942431124067
21
-983.613835248314
31
0.0
  0
LINE
 8
F Base plate
10
114.942431124067
20
-983.613835248314
30
0.0
11
115.140825385634
21
-983.187176211994
31
0.0
  0
LINE
 8
F Base plate
10
115.140825385634
20
-983.187176211994
30
0.0
11
115.256603562845
21
-982.721425453836
31
0.0
  0
LINE
 8
F Base plate
10
115.256603562845
20
-982.721425453836
30
0.0
11
115.280647175901
21
-982.227189871617
31
0.0
  0
LINE
 8
F Base plate
10
115.280647175901
20
-982.227189871617
30
0.0
11
115.209614373567
21
-981.74533058524
31
0.0
  0
LINE
 8
F Base plate
10
115.209614373567
20
-981.74533058524
30
0.0
11
115.051382376611
21
-981.297979910435
31
0.0
  0
LINE
 8
F Base plate
10
115.051382376611
20
-981.297979910435
30
0.0
11
114.815117405566
21
-980.894304067732
31
0.0
  0
LINE
 8
F Base plate
10
114.815117405566
20
-980.894304067732
30
0.0
11
114.50998568096
21
-980.543469277663
31
0.0
  0
LINE
 8
F Base plate
10
114.50998568096
20
-980.543469277663
30
0.0
11
114.145153423327
21
-980.254641760759
31
0.0
  0
LINE
 8
F Base plate
10
114.145153423327
20
-980.254641760759
30
0.0
11
113.729786853196
21
-980.036987737552
31
0.0
  0
LINE
 8
F Base plate
10
113.729786853196
20
-980.036987737552
30
0.0
11
113.273052191099
21
-979.899673428571
31
0.0
  0
LINE
 8
F Base plate
10
113.273052191099
20
-979.899673428571
30
0.0
11
112.784115657567
21
-979.851865054348
31
0.0
  0
LINE
 8
F Base plate
10
65.2963713971598
20
-979.854621132554
30
0.0
11
64.8073171798479
21
-979.902429506777
31
0.0
  0
LINE
 8
F Base plate
10
64.8073171798479
20
-979.902429506777
30
0.0
11
64.3504800189751
21
-980.039743815758
31
0.0
  0
LINE
 8
F Base plate
10
64.3504800189751
20
-980.039743815758
30
0.0
11
63.935026135072
21
-980.257397838966
31
0.0
  0
LINE
 8
F Base plate
10
63.935026135072
20
-980.257397838966
30
0.0
11
63.5701217486701
21
-980.54622535587
31
0.0
  0
LINE
 8
F Base plate
10
63.5701217486701
20
-980.54622535587
30
0.0
11
63.2649330803001
21
-980.897060145938
31
0.0
  0
LINE
 8
F Base plate
10
63.2649330803001
20
-980.897060145938
30
0.0
11
63.0286263504933
21
-981.300735988641
31
0.0
  0
LINE
 8
F Base plate
10
63.0286263504933
20
-981.300735988641
30
0.0
11
62.8703677797811
21
-981.748086663446
31
0.0
  0
LINE
 8
F Base plate
10
62.8703677797811
20
-981.748086663446
30
0.0
11
62.7993235886938
21
-982.229945949823
31
0.0
  0
LINE
 8
F Base plate
10
62.7993235886938
20
-982.229945949823
30
0.0
11
62.8233709980011
21
-982.72409585756
31
0.0
  0
LINE
 8
F Base plate
10
62.8233709980011
20
-982.72409585756
30
0.0
11
62.939168156467
21
-983.189756272614
31
0.0
  0
LINE
 8
F Base plate
10
62.939168156467
20
-983.189756272614
30
0.0
11
63.1375965842932
21
-983.616348893715
31
0.0
  0
LINE
 8
F Base plate
10
63.1375965842932
20
-983.616348893715
30
0.0
11
63.4094900609479
21
-983.99470381912
31
0.0
  0
LINE
 8
F Base plate
10
63.4094900609479
20
-983.99470381912
30
0.0
11
63.7456823659001
21
-984.315651147084
31
0.0
  0
LINE
 8
F Base plate
10
63.7456823659001
20
-984.315651147084
30
0.0
11
64.1370072786189
21
-984.570020975864
31
0.0
  0
LINE
 8
F Base plate
10
64.1370072786189
20
-984.570020975864
30
0.0
11
64.5742985785733
21
-984.748643403715
31
0.0
  0
LINE
 8
F Base plate
10
64.5742985785733
20
-984.748643403715
30
0.0
11
65.0483900452323
21
-984.842348528892
31
0.0
  0
LINE
 8
F Base plate
10
65.0483900452323
20
-984.842348528892
30
0.0
11
65.544295651939
21
-984.842348528892
31
0.0
  0
LINE
 8
F Base plate
10
65.544295651939
20
-984.842348528892
30
0.0
11
66.0183034093467
21
-984.748643403715
31
0.0
  0
LINE
 8
F Base plate
10
66.0183034093467
20
-984.748643403715
30
0.0
11
66.4555455114223
21
-984.570020975864
31
0.0
  0
LINE
 8
F Base plate
10
66.4555455114223
20
-984.570020975864
30
0.0
11
66.8468483752088
21
-984.315651147084
31
0.0
  0
LINE
 8
F Base plate
10
66.8468483752088
20
-984.315651147084
30
0.0
11
67.1830384177488
21
-983.99470381912
31
0.0
  0
LINE
 8
F Base plate
10
67.1830384177488
20
-983.99470381912
30
0.0
11
67.4549420560853
21
-983.616348893715
31
0.0
  0
LINE
 8
F Base plate
10
67.4549420560853
20
-983.616348893715
30
0.0
11
67.6533857072611
21
-983.189756272614
31
0.0
  0
LINE
 8
F Base plate
10
67.6533857072611
20
-983.189756272614
30
0.0
11
67.7691957883191
21
-982.72409585756
31
0.0
  0
LINE
 8
F Base plate
10
67.7691957883191
20
-982.72409585756
30
0.0
11
67.7932464953797
21
-982.229945949823
31
0.0
  0
LINE
 8
F Base plate
10
67.7932464953797
20
-982.229945949823
30
0.0
11
67.7221932929895
21
-981.748086663446
31
0.0
  0
LINE
 8
F Base plate
10
67.7221932929895
20
-981.748086663446
30
0.0
11
67.563919729003
21
-981.300735988641
31
0.0
  0
LINE
 8
F Base plate
10
67.563919729003
20
-981.300735988641
30
0.0
11
67.3275993863774
21
-980.897060145938
31
0.0
  0
LINE
 8
F Base plate
10
67.3275993863774
20
-980.897060145938
30
0.0
11
67.0224058480693
21
-980.54622535587
31
0.0
  0
LINE
 8
F Base plate
10
67.0224058480693
20
-980.54622535587
30
0.0
11
66.6575126970364
21
-980.257397838966
31
0.0
  0
LINE
 8
F Base plate
10
66.6575126970364
20
-980.257397838966
30
0.0
11
66.2420935162358
21
-980.039743815758
31
0.0
  0
LINE
 8
F Base plate
10
66.2420935162358
20
-980.039743815758
30
0.0
11
65.7853218886245
21
-979.902429506777
31
0.0
  0
LINE
 8
F Base plate
10
65.7853218886245
20
-979.902429506777
30
0.0
11
65.2963713971598
21
-979.854621132554
31
0.0
  0
LINE
 8
F Base plate
10
70.1775581555279
20
-1083.2545794558
30
0.0
11
69.5906599791743
21
-1083.31195192833
31
0.0
  0
LINE
 8
F Base plate
10
69.5906599791743
20
-1083.31195192833
30
0.0
11
69.0424513521307
21
-1083.47673391536
31
0.0
  0
LINE
 8
F Base plate
10
69.0424513521307
20
-1083.47673391536
30
0.0
11
68.543924376608
21
-1083.73792227104
31
0.0
  0
LINE
 8
F Base plate
10
68.543924376608
20
-1083.73792227104
30
0.0
11
68.1060711548177
21
-1084.08451384952
31
0.0
  0
LINE
 8
F Base plate
10
68.1060711548177
20
-1084.08451384952
30
0.0
11
67.739883788971
21
-1084.50550550494
31
0.0
  0
LINE
 8
F Base plate
10
67.739883788971
20
-1084.50550550494
30
0.0
11
67.4563543812783
21
-1084.98989409146
31
0.0
  0
LINE
 8
F Base plate
10
67.4563543812783
20
-1084.98989409146
30
0.0
11
67.2664750339516
21
-1085.52667646323
31
0.0
  0
LINE
 8
F Base plate
10
67.2664750339516
20
-1085.52667646323
30
0.0
11
67.1812378492018
21
-1086.10484947439
31
0.0
  0
LINE
 8
F Base plate
10
67.1812378492018
20
-1086.10484947439
30
0.0
11
67.2100891648664
21
-1086.69786433137
31
0.0
  0
LINE
 8
F Base plate
10
67.2100891648664
20
-1086.69786433137
30
0.0
11
67.3490214436813
21
-1087.25671741606
31
0.0
  0
LINE
 8
F Base plate
10
67.3490214436813
20
-1087.25671741606
30
0.0
11
67.5870998339673
21
-1087.76867828844
31
0.0
  0
LINE
 8
F Base plate
10
67.5870998339673
20
-1087.76867828844
30
0.0
11
67.9133322335131
21
-1088.22274380264
31
0.0
  0
LINE
 8
F Base plate
10
67.9133322335131
20
-1088.22274380264
30
0.0
11
68.3167265401084
21
-1088.60791081282
31
0.0
  0
LINE
 8
F Base plate
10
68.3167265401084
20
-1088.60791081282
30
0.0
11
68.7862906515412
21
-1088.91317617313
31
0.0
  0
LINE
 8
F Base plate
10
68.7862906515412
20
-1088.91317617313
30
0.0
11
69.3110324656008
21
-1089.12753673772
31
0.0
  0
LINE
 8
F Base plate
10
69.3110324656008
20
-1089.12753673772
30
0.0
11
69.8799598800755
21
-1089.23998936073
31
0.0
  0
LINE
 8
F Base plate
10
69.8799598800755
20
-1089.23998936073
30
0.0
11
70.475101155265
21
-1089.23998936073
31
0.0
  0
LINE
 8
F Base plate
10
70.475101155265
20
-1089.23998936073
30
0.0
11
71.0439580515022
21
-1089.12753673772
31
0.0
  0
LINE
 8
F Base plate
10
71.0439580515022
20
-1089.12753673772
30
0.0
11
71.5686735218808
21
-1088.91317617313
31
0.0
  0
LINE
 8
F Base plate
10
71.5686735218808
20
-1088.91317617313
30
0.0
11
72.0382444205503
21
-1088.60791081282
31
0.0
  0
LINE
 8
F Base plate
10
72.0382444205503
20
-1088.60791081282
30
0.0
11
72.4416676016601
21
-1088.22274380264
31
0.0
  0
LINE
 8
F Base plate
10
72.4416676016601
20
-1088.22274380264
30
0.0
11
72.7679399193603
21
-1087.76867828844
31
0.0
  0
LINE
 8
F Base plate
10
72.7679399193603
20
-1087.76867828844
30
0.0
11
73.0060582278008
21
-1087.25671741606
31
0.0
  0
LINE
 8
F Base plate
10
73.0060582278008
20
-1087.25671741606
30
0.0
11
73.1450193811305
21
-1086.69786433137
31
0.0
  0
LINE
 8
F Base plate
10
73.1450193811305
20
-1086.69786433137
30
0.0
11
73.1738775415505
21
-1086.10484947439
31
0.0
  0
LINE
 8
F Base plate
10
73.1738775415505
20
-1086.10484947439
30
0.0
11
73.0886211454699
21
-1085.52667646323
31
0.0
  0
LINE
 8
F Base plate
10
73.0886211454699
20
-1085.52667646323
30
0.0
11
72.8987060213538
21
-1084.98989409146
31
0.0
  0
LINE
 8
F Base plate
10
72.8987060213538
20
-1084.98989409146
30
0.0
11
72.6151353150521
21
-1084.50550550494
31
0.0
  0
LINE
 8
F Base plate
10
72.6151353150521
20
-1084.50550550494
30
0.0
11
72.2489121724158
21
-1084.08451384952
31
0.0
  0
LINE
 8
F Base plate
10
72.2489121724158
20
-1084.08451384952
30
0.0
11
71.8110397392949
21
-1083.73792227104
31
0.0
  0
LINE
 8
F Base plate
10
71.8110397392949
20
-1083.73792227104
30
0.0
11
71.3125211615397
21
-1083.47673391536
31
0.0
  0
LINE
 8
F Base plate
10
71.3125211615397
20
-1083.47673391536
30
0.0
11
70.7643595850006
21
-1083.31195192833
31
0.0
  0
LINE
 8
F Base plate
10
70.7643595850006
20
-1083.31195192833
30
0.0
11
70.1775581555279
21
-1083.2545794558
31
0.0
  0
LINE
 8
F Base plate
10
164.177394991288
20
-1083.2545794558
30
0.0
11
163.590545188375
21
-1083.31195192833
31
0.0
  0
LINE
 8
F Base plate
10
163.590545188375
20
-1083.31195192833
30
0.0
11
163.042360086584
21
-1083.47673391536
31
0.0
  0
LINE
 8
F Base plate
10
163.042360086584
20
-1083.47673391536
30
0.0
11
162.543837309945
21
-1083.73792227104
31
0.0
  0
LINE
 8
F Base plate
10
162.543837309945
20
-1083.73792227104
30
0.0
11
162.105974482489
21
-1084.08451384952
31
0.0
  0
LINE
 8
F Base plate
10
162.105974482489
20
-1084.08451384952
30
0.0
11
161.739769228248
21
-1084.50550550494
31
0.0
  0
LINE
 8
F Base plate
10
161.739769228248
20
-1084.50550550494
30
0.0
11
161.456219171251
21
-1084.98989409146
31
0.0
  0
LINE
 8
F Base plate
10
161.456219171251
20
-1084.98989409146
30
0.0
11
161.266321935529
21
-1085.52667646323
31
0.0
  0
LINE
 8
F Base plate
10
161.266321935529
20
-1085.52667646323
30
0.0
11
161.181075145114
21
-1086.10484947439
31
0.0
  0
LINE
 8
F Base plate
10
161.181075145114
20
-1086.10484947439
30
0.0
11
161.209929883156
21
-1086.69786433137
31
0.0
  0
LINE
 8
F Base plate
10
161.209929883156
20
-1086.69786433137
30
0.0
11
161.348876599229
21
-1087.25671741606
31
0.0
  0
LINE
 8
F Base plate
10
161.348876599229
20
-1087.25671741606
30
0.0
11
161.586974948592
21
-1087.76867828844
31
0.0
  0
LINE
 8
F Base plate
10
161.586974948592
20
-1087.76867828844
30
0.0
11
161.913227307215
21
-1088.22274380264
31
0.0
  0
LINE
 8
F Base plate
10
161.913227307215
20
-1088.22274380264
30
0.0
11
162.316636051067
21
-1088.60791081282
31
0.0
  0
LINE
 8
F Base plate
10
162.316636051067
20
-1088.60791081282
30
0.0
11
162.786203556118
21
-1088.91317617313
31
0.0
  0
LINE
 8
F Base plate
10
162.786203556118
20
-1088.91317617313
30
0.0
11
163.310932198338
21
-1089.12753673772
31
0.0
  0
LINE
 8
F Base plate
10
163.310932198338
20
-1089.12753673772
30
0.0
11
163.879824353693
21
-1089.23998936073
31
0.0
  0
LINE
 8
F Base plate
10
163.879824353693
20
-1089.23998936073
30
0.0
11
164.474995088174
21
-1089.23998936073
31
0.0
  0
LINE
 8
F Base plate
10
164.474995088174
20
-1089.23998936073
30
0.0
11
165.043935693663
21
-1089.12753673772
31
0.0
  0
LINE
 8
F Base plate
10
165.043935693663
20
-1089.12753673772
30
0.0
11
165.56870036192
21
-1088.91317617313
31
0.0
  0
LINE
 8
F Base plate
10
165.56870036192
20
-1088.91317617313
30
0.0
11
166.038293309522
21
-1088.60791081282
31
0.0
  0
LINE
 8
F Base plate
10
166.038293309522
20
-1088.60791081282
30
0.0
11
166.441718753044
21
-1088.22274380264
31
0.0
  0
LINE
 8
F Base plate
10
166.441718753044
20
-1088.22274380264
30
0.0
11
166.767980909062
21
-1087.76867828844
31
0.0
  0
LINE
 8
F Base plate
10
166.767980909062
20
-1087.76867828844
30
0.0
11
167.006083994153
21
-1087.25671741606
31
0.0
  0
LINE
 8
F Base plate
10
167.006083994153
20
-1087.25671741606
30
0.0
11
167.145032224891
21
-1086.69786433137
31
0.0
  0
LINE
 8
F Base plate
10
167.145032224891
20
-1086.69786433137
30
0.0
11
167.173887087557
21
-1086.10484947439
31
0.0
  0
LINE
 8
F Base plate
10
167.173887087557
20
-1086.10484947439
30
0.0
11
167.08863970278
21
-1085.52667646323
31
0.0
  0
LINE
 8
F Base plate
10
167.08863970278
20
-1085.52667646323
30
0.0
11
166.898739571938
21
-1084.98989409146
31
0.0
  0
LINE
 8
F Base plate
10
166.898739571938
20
-1084.98989409146
30
0.0
11
166.615182478455
21
-1084.50550550494
31
0.0
  0
LINE
 8
F Base plate
10
166.615182478455
20
-1084.50550550494
30
0.0
11
166.248964205757
21
-1084.08451384952
31
0.0
  0
LINE
 8
F Base plate
10
166.248964205757
20
-1084.08451384952
30
0.0
11
165.811080537266
21
-1083.73792227104
31
0.0
  0
LINE
 8
F Base plate
10
165.811080537266
20
-1083.73792227104
30
0.0
11
165.312527256409
21
-1083.47673391536
31
0.0
  0
LINE
 8
F Base plate
10
165.312527256409
20
-1083.47673391536
30
0.0
11
164.764300146608
21
-1083.31195192833
31
0.0
  0
LINE
 8
F Base plate
10
164.764300146608
20
-1083.31195192833
30
0.0
11
164.177394991288
21
-1083.2545794558
31
0.0
  0
LINE
 8
F Base plate
10
164.177394991288
20
-1005.25463788245
30
0.0
11
163.590545188375
21
-1005.31201035499
31
0.0
  0
LINE
 8
F Base plate
10
163.590545188375
20
-1005.31201035499
30
0.0
11
163.042360086584
21
-1005.47679234202
31
0.0
  0
LINE
 8
F Base plate
10
163.042360086584
20
-1005.47679234202
30
0.0
11
162.543837309945
21
-1005.7379806977
31
0.0
  0
LINE
 8
F Base plate
10
162.543837309945
20
-1005.7379806977
30
0.0
11
162.105974482489
21
-1006.08457227617
31
0.0
  0
LINE
 8
F Base plate
10
162.105974482489
20
-1006.08457227617
30
0.0
11
161.739769228248
21
-1006.5055639316
31
0.0
  0
LINE
 8
F Base plate
10
161.739769228248
20
-1006.5055639316
30
0.0
11
161.456219171251
21
-1006.98995251812
31
0.0
  0
LINE
 8
F Base plate
10
161.456219171251
20
-1006.98995251812
30
0.0
11
161.266321935529
21
-1007.52673488988
31
0.0
  0
LINE
 8
F Base plate
10
161.266321935529
20
-1007.52673488988
30
0.0
11
161.181075145114
21
-1008.10490790105
31
0.0
  0
LINE
 8
F Base plate
10
161.181075145114
20
-1008.10490790105
30
0.0
11
161.209929883156
21
-1008.69792275802
31
0.0
  0
LINE
 8
F Base plate
10
161.209929883156
20
-1008.69792275802
30
0.0
11
161.348876599229
21
-1009.25677584272
31
0.0
  0
LINE
 8
F Base plate
10
161.348876599229
20
-1009.25677584272
30
0.0
11
161.586974948592
21
-1009.76873671509
31
0.0
  0
LINE
 8
F Base plate
10
161.586974948592
20
-1009.76873671509
30
0.0
11
161.913227307215
21
-1010.22280222929
31
0.0
  0
LINE
 8
F Base plate
10
161.913227307215
20
-1010.22280222929
30
0.0
11
162.316636051067
21
-1010.60796923947
31
0.0
  0
LINE
 8
F Base plate
10
162.316636051067
20
-1010.60796923947
30
0.0
11
162.786203556118
21
-1010.91323459978
31
0.0
  0
LINE
 8
F Base plate
10
162.786203556118
20
-1010.91323459978
30
0.0
11
163.310932198338
21
-1011.12759516437
31
0.0
  0
LINE
 8
F Base plate
10
163.310932198338
20
-1011.12759516437
30
0.0
11
163.879824353693
21
-1011.24004778738
31
0.0
  0
LINE
 8
F Base plate
10
163.879824353693
20
-1011.24004778738
30
0.0
11
164.474995088174
21
-1011.24004778738
31
0.0
  0
LINE
 8
F Base plate
10
164.474995088174
20
-1011.24004778738
30
0.0
11
165.043935693663
21
-1011.12759516437
31
0.0
  0
LINE
 8
F Base plate
10
165.043935693663
20
-1011.12759516437
30
0.0
11
165.56870036192
21
-1010.91323459978
31
0.0
  0
LINE
 8
F Base plate
10
165.56870036192
20
-1010.91323459978
30
0.0
11
166.038293309522
21
-1010.60796923947
31
0.0
  0
LINE
 8
F Base plate
10
166.038293309522
20
-1010.60796923947
30
0.0
11
166.441718753044
21
-1010.22280222929
31
0.0
  0
LINE
 8
F Base plate
10
166.441718753044
20
-1010.22280222929
30
0.0
11
166.767980909062
21
-1009.76873671509
31
0.0
  0
LINE
 8
F Base plate
10
166.767980909062
20
-1009.76873671509
30
0.0
11
167.006083994153
21
-1009.25677584272
31
0.0
  0
LINE
 8
F Base plate
10
167.006083994153
20
-1009.25677584272
30
0.0
11
167.145032224891
21
-1008.69792275802
31
0.0
  0
LINE
 8
F Base plate
10
167.145032224891
20
-1008.69792275802
30
0.0
11
167.173887087557
21
-1008.10490790105
31
0.0
  0
LINE
 8
F Base plate
10
167.173887087557
20
-1008.10490790105
30
0.0
11
167.08863970278
21
-1007.52673488988
31
0.0
  0
LINE
 8
F Base plate
10
167.08863970278
20
-1007.52673488988
30
0.0
11
166.898739571938
21
-1006.98995251812
31
0.0
  0
LINE
 8
F Base plate
10
166.898739571938
20
-1006.98995251812
30
0.0
11
166.615182478455
21
-1006.5055639316
31
0.0
  0
LINE
 8
F Base plate
10
166.615182478455
20
-1006.5055639316
30
0.0
11
166.248964205757
21
-1006.08457227617
31
0.0
  0
LINE
 8
F Base plate
10
166.248964205757
20
-1006.08457227617
30
0.0
11
165.811080537266
21
-1005.7379806977
31
0.0
  0
LINE
 8
F Base plate
10
165.811080537266
20
-1005.7379806977
30
0.0
11
165.312527256409
21
-1005.47679234202
31
0.0
  0
LINE
 8
F Base plate
10
165.312527256409
20
-1005.47679234202
30
0.0
11
164.764300146608
21
-1005.31201035499
31
0.0
  0
LINE
 8
F Base plate
10
164.764300146608
20
-1005.31201035499
30
0.0
11
164.177394991288
21
-1005.25463788245
31
0.0
  0
LINE
 8
F Base plate
10
271.999480796655
20
-1216.56229269035
30
0.0
11
271.999653051543
21
-1247.32357057119
31
0.0
  0
LINE
 8
F Base plate
10
582.250687722989
20
-834.141799891134
30
0.0
11
582.250687722989
21
-1273.14182218891
31
0.0
  0
LINE
 8
F Base plate
10
582.250687722989
20
-1273.14182218891
30
0.0
11
526.250279157546
21
-1273.14182218891
31
0.0
  0
LINE
 8
F Base plate
10
56.2187110598187
20
-834.141799891134
30
0.0
11
182.214548812873
21
-834.141799891134
31
0.0
  0
LINE
 8
F Base plate
10
556.064844174498
20
-1148.14196219768
30
0.0
11
555.478139491906
21
-1148.19933467021
31
0.0
  0
LINE
 8
F Base plate
10
555.478139491906
20
-1148.19933467021
30
0.0
11
554.930024965872
21
-1148.36411665725
31
0.0
  0
LINE
 8
F Base plate
10
554.930024965872
20
-1148.36411665725
30
0.0
11
554.431514785884
21
-1148.62530501292
31
0.0
  0
LINE
 8
F Base plate
10
554.431514785884
20
-1148.62530501292
30
0.0
11
553.993623141432
21
-1148.9718965914
31
0.0
  0
LINE
 8
F Base plate
10
553.993623141432
20
-1148.9718965914
30
0.0
11
553.627364222006
21
-1149.39288824682
31
0.0
  0
LINE
 8
F Base plate
10
553.627364222006
20
-1149.39288824682
30
0.0
11
553.343752217095
21
-1149.87727683334
31
0.0
  0
LINE
 8
F Base plate
10
553.343752217095
20
-1149.87727683334
30
0.0
11
553.15380131619
21
-1150.41405920511
31
0.0
  0
LINE
 8
F Base plate
10
553.15380131619
20
-1150.41405920511
30
0.0
11
553.068525708778
21
-1150.99223221627
31
0.0
  0
LINE
 8
F Base plate
10
553.068525708778
20
-1150.99223221627
30
0.0
11
553.097390713954
21
-1151.58524707325
31
0.0
  0
LINE
 8
F Base plate
10
553.097390713954
20
-1151.58524707325
30
0.0
11
553.236380741798
21
-1152.14410015794
31
0.0
  0
LINE
 8
F Base plate
10
553.236380741798
20
-1152.14410015794
30
0.0
11
553.474538968393
21
-1152.65606103032
31
0.0
  0
LINE
 8
F Base plate
10
553.474538968393
20
-1152.65606103032
30
0.0
11
553.800851204248
21
-1153.11012654452
31
0.0
  0
LINE
 8
F Base plate
10
553.800851204248
20
-1153.11012654452
30
0.0
11
554.204303259873
21
-1153.4952935547
31
0.0
  0
LINE
 8
F Base plate
10
554.204303259873
20
-1153.4952935547
30
0.0
11
554.673880945778
21
-1153.80055891501
31
0.0
  0
LINE
 8
F Base plate
10
554.673880945778
20
-1153.80055891501
30
0.0
11
555.198570072476
21
-1154.0149194796
31
0.0
  0
LINE
 8
F Base plate
10
555.198570072476
20
-1154.0149194796
30
0.0
11
555.767356450475
21
-1154.12737210261
31
0.0
  0
LINE
 8
F Base plate
10
555.767356450475
20
-1154.12737210261
30
0.0
11
556.36244244995
21
-1154.12737210261
31
0.0
  0
LINE
 8
F Base plate
10
556.36244244995
20
-1154.12737210261
30
0.0
11
556.931369864425
21
-1154.0149194796
31
0.0
  0
LINE
 8
F Base plate
10
556.931369864425
20
-1154.0149194796
30
0.0
11
557.456111678484
21
-1153.80055891501
31
0.0
  0
LINE
 8
F Base plate
10
557.456111678484
20
-1153.80055891501
30
0.0
11
557.925675789917
21
-1153.4952935547
31
0.0
  0
LINE
 8
F Base plate
10
557.925675789917
20
-1153.4952935547
30
0.0
11
558.329070096512
21
-1153.11012654452
31
0.0
  0
LINE
 8
F Base plate
10
558.329070096512
20
-1153.11012654452
30
0.0
11
558.655302496058
21
-1152.65606103032
31
0.0
  0
LINE
 8
F Base plate
10
558.655302496058
20
-1152.65606103032
30
0.0
11
558.893380886345
21
-1152.14410015794
31
0.0
  0
LINE
 8
F Base plate
10
558.893380886345
20
-1152.14410015794
30
0.0
11
559.032313165159
21
-1151.58524707325
31
0.0
  0
LINE
 8
F Base plate
10
559.032313165159
20
-1151.58524707325
30
0.0
11
559.061164480824
21
-1150.99223221627
31
0.0
  0
LINE
 8
F Base plate
10
559.061164480824
20
-1150.99223221627
30
0.0
11
558.975927296074
21
-1150.41405920511
31
0.0
  0
LINE
 8
F Base plate
10
558.975927296074
20
-1150.41405920511
30
0.0
11
558.786047948747
21
-1149.87727683334
31
0.0
  0
LINE
 8
F Base plate
10
558.786047948747
20
-1149.87727683334
30
0.0
11
558.502518541055
21
-1149.39288824682
31
0.0
  0
LINE
 8
F Base plate
10
558.502518541055
20
-1149.39288824682
30
0.0
11
558.136331175208
21
-1148.9718965914
31
0.0
  0
LINE
 8
F Base plate
10
558.136331175208
20
-1148.9718965914
30
0.0
11
557.698477953418
21
-1148.62530501292
31
0.0
  0
LINE
 8
F Base plate
10
557.698477953418
20
-1148.62530501292
30
0.0
11
557.199950977895
21
-1148.36411665725
31
0.0
  0
LINE
 8
F Base plate
10
557.199950977895
20
-1148.36411665725
30
0.0
11
556.651742350851
21
-1148.19933467021
31
0.0
  0
LINE
 8
F Base plate
10
556.651742350851
20
-1148.19933467021
30
0.0
11
556.064844174498
21
-1148.14196219768
31
0.0
  0
LINE
 8
F Base plate
10
169.296465749844
20
-979.849453485917
30
0.0
11
168.807363159091
21
-979.897261246605
31
0.0
  0
LINE
 8
F Base plate
10
168.807363159091
20
-979.897261246605
30
0.0
11
168.350502472966
21
-980.034571260837
31
0.0
  0
LINE
 8
F Base plate
10
168.350502472966
20
-980.034571260837
30
0.0
11
167.935044390179
21
-980.25221362687
31
0.0
  0
LINE
 8
F Base plate
10
167.935044390179
20
-980.25221362687
30
0.0
11
167.570149609443
21
-980.54101844296
31
0.0
  0
LINE
 8
F Base plate
10
167.570149609443
20
-980.54101844296
30
0.0
11
167.264978829468
21
-980.891815807362
31
0.0
  0
LINE
 8
F Base plate
10
167.264978829468
20
-980.891815807362
30
0.0
11
167.028692748965
21
-981.295435818334
31
0.0
  0
LINE
 8
F Base plate
10
167.028692748965
20
-981.295435818334
30
0.0
11
166.870452066648
21
-981.742708574129
31
0.0
  0
LINE
 8
F Base plate
10
166.870452066648
20
-981.742708574129
30
0.0
11
166.799417481226
21
-982.224464173005
31
0.0
  0
LINE
 8
F Base plate
10
166.799417481226
20
-982.224464173005
30
0.0
11
166.823461468155
21
-982.71866937563
31
0.0
  0
LINE
 8
F Base plate
10
166.823461468155
20
-982.71866937563
30
0.0
11
166.939244189364
21
-983.184420133787
31
0.0
  0
LINE
 8
F Base plate
10
166.939244189364
20
-983.184420133787
30
0.0
11
167.137652658113
21
-983.611079170108
31
0.0
  0
LINE
 8
F Base plate
10
167.137652658113
20
-983.611079170108
30
0.0
11
167.409526175691
21
-983.98948026406
31
0.0
  0
LINE
 8
F Base plate
10
167.409526175691
20
-983.98948026406
30
0.0
11
167.745704043385
21
-984.310457195112
31
0.0
  0
LINE
 8
F Base plate
10
167.745704043385
20
-984.310457195112
30
0.0
11
168.137025562486
21
-984.564843742735
31
0.0
  0
LINE
 8
F Base plate
10
168.137025562486
20
-984.564843742735
30
0.0
11
168.574330034281
21
-984.743473686395
31
0.0
  0
LINE
 8
F Base plate
10
168.574330034281
20
-984.743473686395
30
0.0
11
169.048456760058
21
-984.837180805564
31
0.0
  0
LINE
 8
F Base plate
10
169.048456760058
20
-984.837180805564
30
0.0
11
169.544415821047
21
-984.837180805564
31
0.0
  0
LINE
 8
F Base plate
10
169.544415821047
20
-984.837180805564
30
0.0
11
170.018445646559
21
-984.743473686395
31
0.0
  0
LINE
 8
F Base plate
10
170.018445646559
20
-984.743473686395
30
0.0
11
170.455678066278
21
-984.564843742735
31
0.0
  0
LINE
 8
F Base plate
10
170.455678066278
20
-984.564843742735
30
0.0
11
170.846948700277
21
-984.310457195112
31
0.0
  0
LINE
 8
F Base plate
10
170.846948700277
20
-984.310457195112
30
0.0
11
171.183093168633
21
-983.98948026406
31
0.0
  0
LINE
 8
F Base plate
10
171.183093168633
20
-983.98948026406
30
0.0
11
171.45494709142
21
-983.611079170108
31
0.0
  0
LINE
 8
F Base plate
10
171.45494709142
20
-983.611079170108
30
0.0
11
171.653346088714
21
-983.184420133787
31
0.0
  0
LINE
 8
F Base plate
10
171.653346088714
20
-983.184420133787
30
0.0
11
171.769125780591
21
-982.71866937563
31
0.0
  0
LINE
 8
F Base plate
10
171.769125780591
20
-982.71866937563
30
0.0
11
171.793169518272
21
-982.224464173005
31
0.0
  0
LINE
 8
F Base plate
10
171.793169518272
20
-982.224464173005
30
0.0
11
171.722136121575
21
-981.742708574129
31
0.0
  0
LINE
 8
F Base plate
10
171.722136121575
20
-981.742708574129
30
0.0
11
171.563901229499
21
-981.295435818334
31
0.0
  0
LINE
 8
F Base plate
10
171.563901229499
20
-981.295435818334
30
0.0
11
171.327629221968
21
-980.891815807362
31
0.0
  0
LINE
 8
F Base plate
10
171.327629221968
20
-980.891815807362
30
0.0
11
171.022484478906
21
-980.54101844296
31
0.0
  0
LINE
 8
F Base plate
10
171.022484478906
20
-980.54101844296
30
0.0
11
170.657631380238
21
-980.25221362687
31
0.0
  0
LINE
 8
F Base plate
10
170.657631380238
20
-980.25221362687
30
0.0
11
170.242234305888
21
-980.034571260837
31
0.0
  0
LINE
 8
F Base plate
10
170.242234305888
20
-980.034571260837
30
0.0
11
169.785457635782
21
-979.897261246605
31
0.0
  0
LINE
 8
F Base plate
10
169.785457635782
20
-979.897261246605
30
0.0
11
169.296465749844
21
-979.849453485917
31
0.0
  0
LINE
 8
F Base plate
10
112.784115657567
20
-931.852007012219
30
0.0
11
112.295013066815
21
-931.899814772907
31
0.0
  0
LINE
 8
F Base plate
10
112.295013066815
20
-931.899814772907
30
0.0
11
111.83815238069
21
-932.037124787139
31
0.0
  0
LINE
 8
F Base plate
10
111.83815238069
20
-932.037124787139
30
0.0
11
111.422694297903
21
-932.254767153172
31
0.0
  0
LINE
 8
F Base plate
10
111.422694297903
20
-932.254767153172
30
0.0
11
111.057799517167
21
-932.543571969262
31
0.0
  0
LINE
 8
F Base plate
10
111.057799517167
20
-932.543571969262
30
0.0
11
110.752628737191
21
-932.894369333665
31
0.0
  0
LINE
 8
F Base plate
10
110.752628737191
20
-932.894369333665
30
0.0
11
110.516342656689
21
-933.297989344636
31
0.0
  0
LINE
 8
F Base plate
10
110.516342656689
20
-933.297989344636
30
0.0
11
110.358101974372
21
-933.745262100431
31
0.0
  0
LINE
 8
F Base plate
10
110.358101974372
20
-933.745262100431
30
0.0
11
110.28706738895
21
-934.227017699307
31
0.0
  0
LINE
 8
F Base plate
10
110.28706738895
20
-934.227017699307
30
0.0
11
110.311111375879
21
-934.721222901932
31
0.0
  0
LINE
 8
F Base plate
10
110.311111375879
20
-934.721222901932
30
0.0
11
110.426894097088
21
-935.186973660089
31
0.0
  0
LINE
 8
F Base plate
10
110.426894097088
20
-935.186973660089
30
0.0
11
110.625302565837
21
-935.61363269641
31
0.0
  0
LINE
 8
F Base plate
10
110.625302565837
20
-935.61363269641
30
0.0
11
110.897176083414
21
-935.992033790362
31
0.0
  0
LINE
 8
F Base plate
10
110.897176083414
20
-935.992033790362
30
0.0
11
111.233353951109
21
-936.313010721414
31
0.0
  0
LINE
 8
F Base plate
10
111.233353951109
20
-936.313010721414
30
0.0
11
111.62467547021
21
-936.567397269037
31
0.0
  0
LINE
 8
F Base plate
10
111.62467547021
20
-936.567397269037
30
0.0
11
112.061979942005
21
-936.746027212697
31
0.0
  0
LINE
 8
F Base plate
10
112.061979942005
20
-936.746027212697
30
0.0
11
112.536106667783
21
-936.839734331866
31
0.0
  0
LINE
 8
F Base plate
10
112.536106667783
20
-936.839734331866
30
0.0
11
113.032036269479
21
-936.839734331866
31
0.0
  0
LINE
 8
F Base plate
10
113.032036269479
20
-936.839734331866
30
0.0
11
113.50601764486
21
-936.746027212697
31
0.0
  0
LINE
 8
F Base plate
10
113.50601764486
20
-936.746027212697
30
0.0
11
113.94321403854
21
-936.567397269037
31
0.0
  0
LINE
 8
F Base plate
10
113.94321403854
20
-936.567397269037
30
0.0
11
114.334459229989
21
-936.313010721414
31
0.0
  0
LINE
 8
F Base plate
10
114.334459229989
20
-936.313010721414
30
0.0
11
114.670586998675
21
-935.992033790362
31
0.0
  0
LINE
 8
F Base plate
10
114.670586998675
20
-935.992033790362
30
0.0
11
114.942431124067
21
-935.61363269641
31
0.0
  0
LINE
 8
F Base plate
10
114.942431124067
20
-935.61363269641
30
0.0
11
115.140825385634
21
-935.186973660089
31
0.0
  0
LINE
 8
F Base plate
10
115.140825385634
20
-935.186973660089
30
0.0
11
115.256603562845
21
-934.721222901932
31
0.0
  0
LINE
 8
F Base plate
10
115.256603562845
20
-934.721222901932
30
0.0
11
115.280647175901
21
-934.227017699307
31
0.0
  0
LINE
 8
F Base plate
10
115.280647175901
20
-934.227017699307
30
0.0
11
115.209614373567
21
-933.745262100431
31
0.0
  0
LINE
 8
F Base plate
10
115.209614373567
20
-933.745262100431
30
0.0
11
115.051382376611
21
-933.297989344636
31
0.0
  0
LINE
 8
F Base plate
10
115.051382376611
20
-933.297989344636
30
0.0
11
114.815117405566
21
-932.894369333665
31
0.0
  0
LINE
 8
F Base plate
10
114.815117405566
20
-932.894369333665
30
0.0
11
114.50998568096
21
-932.543571969262
31
0.0
  0
LINE
 8
F Base plate
10
114.50998568096
20
-932.543571969262
30
0.0
11
114.145153423327
21
-932.254767153172
31
0.0
  0
LINE
 8
F Base plate
10
114.145153423327
20
-932.254767153172
30
0.0
11
113.729786853196
21
-932.037124787139
31
0.0
  0
LINE
 8
F Base plate
10
113.729786853196
20
-932.037124787139
30
0.0
11
113.273052191099
21
-931.899814772907
31
0.0
  0
LINE
 8
F Base plate
10
113.273052191099
20
-931.899814772907
30
0.0
11
112.784115657567
21
-931.852007012219
31
0.0
  0
LINE
 8
F Base plate
10
120.78397716133
20
-931.852007012219
30
0.0
11
120.294915965052
21
-931.899814772907
31
0.0
  0
LINE
 8
F Base plate
10
120.294915965052
20
-931.899814772907
30
0.0
11
119.838060321422
21
-932.037124787139
31
0.0
  0
LINE
 8
F Base plate
10
119.838060321422
20
-932.037124787139
30
0.0
11
119.422580132184
21
-932.254767153172
31
0.0
  0
LINE
 8
F Base plate
10
119.422580132184
20
-932.254767153172
30
0.0
11
119.057645299082
21
-932.543571969262
31
0.0
  0
LINE
 8
F Base plate
10
119.057645299082
20
-932.543571969262
30
0.0
11
118.752425723861
21
-932.894369333665
31
0.0
  0
LINE
 8
F Base plate
10
118.752425723861
20
-932.894369333665
30
0.0
11
118.516091308264
21
-933.297989344636
31
0.0
  0
LINE
 8
F Base plate
10
118.516091308264
20
-933.297989344636
30
0.0
11
118.357811954036
21
-933.745262100431
31
0.0
  0
LINE
 8
F Base plate
10
118.357811954036
20
-933.745262100431
30
0.0
11
118.286757562921
21
-934.227017699307
31
0.0
  0
LINE
 8
F Base plate
10
118.286757562921
20
-934.227017699307
30
0.0
11
118.31080851923
21
-934.721222901932
31
0.0
  0
LINE
 8
F Base plate
10
118.31080851923
20
-934.721222901932
30
0.0
11
118.42662162962
21
-935.186973660089
31
0.0
  0
LINE
 8
F Base plate
10
118.42662162962
20
-935.186973660089
30
0.0
11
118.62507475225
21
-935.61363269641
31
0.0
  0
LINE
 8
F Base plate
10
118.62507475225
20
-935.61363269641
30
0.0
11
118.896997985377
21
-935.992033790362
31
0.0
  0
LINE
 8
F Base plate
10
118.896997985377
20
-935.992033790362
30
0.0
11
119.233221427257
21
-936.313010721414
31
0.0
  0
LINE
 8
F Base plate
10
119.233221427257
20
-936.313010721414
30
0.0
11
119.624575176145
21
-936.567397269037
31
0.0
  0
LINE
 8
F Base plate
10
119.624575176145
20
-936.567397269037
30
0.0
11
120.061889330297
21
-936.746027212697
31
0.0
  0
LINE
 8
F Base plate
10
120.061889330297
20
-936.746027212697
30
0.0
11
120.535993987969
21
-936.839734331866
31
0.0
  0
LINE
 8
F Base plate
10
120.535993987969
20
-936.839734331866
30
0.0
11
121.031958513258
21
-936.839734331866
31
0.0
  0
LINE
 8
F Base plate
10
121.031958513258
20
-936.839734331866
30
0.0
11
121.506049979917
21
-936.746027212697
31
0.0
  0
LINE
 8
F Base plate
10
121.506049979917
20
-936.746027212697
30
0.0
11
121.943341279871
21
-936.567397269037
31
0.0
  0
LINE
 8
F Base plate
10
121.943341279871
20
-936.567397269037
30
0.0
11
122.33466619259
21
-936.313010721414
31
0.0
  0
LINE
 8
F Base plate
10
122.33466619259
20
-936.313010721414
30
0.0
11
122.670858497543
21
-935.992033790362
31
0.0
  0
LINE
 8
F Base plate
10
122.670858497543
20
-935.992033790362
30
0.0
11
122.942751974197
21
-935.61363269641
31
0.0
  0
LINE
 8
F Base plate
10
122.942751974197
20
-935.61363269641
30
0.0
11
123.141180402023
21
-935.186973660089
31
0.0
  0
LINE
 8
F Base plate
10
123.141180402023
20
-935.186973660089
30
0.0
11
123.256977560489
21
-934.721222901932
31
0.0
  0
LINE
 8
F Base plate
10
123.256977560489
20
-934.721222901932
30
0.0
11
123.281024969796
21
-934.227017699307
31
0.0
  0
LINE
 8
F Base plate
10
123.281024969796
20
-934.227017699307
30
0.0
11
123.209980778709
21
-933.745262100431
31
0.0
  0
LINE
 8
F Base plate
10
123.209980778709
20
-933.745262100431
30
0.0
11
123.051722207997
21
-933.297989344636
31
0.0
  0
LINE
 8
F Base plate
10
123.051722207997
20
-933.297989344636
30
0.0
11
122.81541547819
21
-932.894369333665
31
0.0
  0
LINE
 8
F Base plate
10
122.81541547819
20
-932.894369333665
30
0.0
11
122.51022680982
21
-932.543571969262
31
0.0
  0
LINE
 8
F Base plate
10
122.51022680982
20
-932.543571969262
30
0.0
11
122.145322423418
21
-932.254767153172
31
0.0
  0
LINE
 8
F Base plate
10
122.145322423418
20
-932.254767153172
30
0.0
11
121.729868539515
21
-932.037124787139
31
0.0
  0
LINE
 8
F Base plate
10
121.729868539515
20
-932.037124787139
30
0.0
11
121.273031378642
21
-931.899814772907
31
0.0
  0
LINE
 8
F Base plate
10
121.273031378642
20
-931.899814772907
30
0.0
11
120.78397716133
21
-931.852007012219
31
0.0
  0
LINE
 8
F Base plate
10
169.296465749844
20
-931.85441858065
30
0.0
11
168.807363159091
21
-931.902226954873
31
0.0
  0
LINE
 8
F Base plate
10
168.807363159091
20
-931.902226954873
30
0.0
11
168.350502472966
21
-932.039541263853
31
0.0
  0
LINE
 8
F Base plate
10
168.350502472966
20
-932.039541263853
30
0.0
11
167.935044390179
21
-932.257195287061
31
0.0
  0
LINE
 8
F Base plate
10
167.935044390179
20
-932.257195287061
30
0.0
11
167.570149609443
21
-932.546022803965
31
0.0
  0
LINE
 8
F Base plate
10
167.570149609443
20
-932.546022803965
30
0.0
11
167.264978829468
21
-932.896857594034
31
0.0
  0
LINE
 8
F Base plate
10
167.264978829468
20
-932.896857594034
30
0.0
11
167.028692748965
21
-933.300533436736
31
0.0
  0
LINE
 8
F Base plate
10
167.028692748965
20
-933.300533436736
30
0.0
11
166.870452066648
21
-933.747884111542
31
0.0
  0
LINE
 8
F Base plate
10
166.870452066648
20
-933.747884111542
30
0.0
11
166.799417481226
21
-934.229743397919
31
0.0
  0
LINE
 8
F Base plate
10
166.799417481226
20
-934.229743397919
30
0.0
11
166.823461468155
21
-934.723978980138
31
0.0
  0
LINE
 8
F Base plate
10
166.823461468155
20
-934.723978980138
30
0.0
11
166.939244189364
21
-935.189729738296
31
0.0
  0
LINE
 8
F Base plate
10
166.939244189364
20
-935.189729738296
30
0.0
11
167.137652658113
21
-935.616388774616
31
0.0
  0
LINE
 8
F Base plate
10
167.137652658113
20
-935.616388774616
30
0.0
11
167.409526175691
21
-935.994789868568
31
0.0
  0
LINE
 8
F Base plate
10
167.409526175691
20
-935.994789868568
30
0.0
11
167.745704043385
21
-936.315766799621
31
0.0
  0
LINE
 8
F Base plate
10
167.745704043385
20
-936.315766799621
30
0.0
11
168.137025562486
21
-936.570153347243
31
0.0
  0
LINE
 8
F Base plate
10
168.137025562486
20
-936.570153347243
30
0.0
11
168.574330034281
21
-936.748783290904
31
0.0
  0
LINE
 8
F Base plate
10
169.048456760058
20
-936.842490410072
30
0.0
11
169.544415821047
21
-936.842490410072
31
0.0
  0
LINE
 8
F Base plate
10
169.544415821047
20
-936.842490410072
30
0.0
11
170.018445646559
21
-936.748783290904
31
0.0
  0
LINE
 8
F Base plate
10
170.018445646559
20
-936.748783290904
30
0.0
11
170.455678066278
21
-936.570153347243
31
0.0
  0
LINE
 8
F Base plate
10
170.455678066278
20
-936.570153347243
30
0.0
11
170.846948700277
21
-936.315766799621
31
0.0
  0
LINE
 8
F Base plate
10
170.846948700277
20
-936.315766799621
30
0.0
11
171.183093168633
21
-935.994789868568
31
0.0
  0
LINE
 8
F Base plate
10
171.183093168633
20
-935.994789868568
30
0.0
11
171.45494709142
21
-935.616388774616
31
0.0
  0
LINE
 8
F Base plate
10
171.45494709142
20
-935.616388774616
30
0.0
11
171.653346088714
21
-935.189729738296
31
0.0
  0
LINE
 8
F Base plate
10
171.653346088714
20
-935.189729738296
30
0.0
11
171.769125780591
21
-934.723978980138
31
0.0
  0
LINE
 8
F Base plate
10
171.769125780591
20
-934.723978980138
30
0.0
11
171.793169518272
21
-934.229743397919
31
0.0
  0
LINE
 8
F Base plate
10
171.793169518272
20
-934.229743397919
30
0.0
11
171.722136121575
21
-933.747884111542
31
0.0
  0
LINE
 8
F Base plate
10
171.722136121575
20
-933.747884111542
30
0.0
11
171.563901229499
21
-933.300533436736
31
0.0
  0
LINE
 8
F Base plate
10
171.563901229499
20
-933.300533436736
30
0.0
11
171.327629221968
21
-932.896857594034
31
0.0
  0
LINE
 8
F Base plate
10
171.327629221968
20
-932.896857594034
30
0.0
11
171.022484478906
21
-932.546022803965
31
0.0
  0
LINE
 8
F Base plate
10
171.022484478906
20
-932.546022803965
30
0.0
11
170.657631380238
21
-932.257195287061
31
0.0
  0
LINE
 8
F Base plate
10
170.657631380238
20
-932.257195287061
30
0.0
11
170.242234305888
21
-932.039541263853
31
0.0
  0
LINE
 8
F Base plate
10
170.242234305888
20
-932.039541263853
30
0.0
11
169.785457635782
21
-931.902226954873
31
0.0
  0
LINE
 8
F Base plate
10
169.785457635782
20
-931.902226954873
30
0.0
11
169.296465749844
21
-931.85441858065
31
0.0
  0
LINE
 8
F Base plate
10
120.78397716133
20
-979.851865054348
30
0.0
11
120.294915965052
21
-979.899673428571
31
0.0
  0
LINE
 8
F Base plate
10
120.294915965052
20
-979.899673428571
30
0.0
11
119.838060321422
21
-980.036987737552
31
0.0
  0
LINE
 8
F Base plate
10
119.838060321422
20
-980.036987737552
30
0.0
11
119.422580132184
21
-980.254641760759
31
0.0
  0
LINE
 8
F Base plate
10
119.422580132184
20
-980.254641760759
30
0.0
11
119.057645299082
21
-980.543469277663
31
0.0
  0
LINE
 8
F Base plate
10
119.057645299082
20
-980.543469277663
30
0.0
11
118.752425723861
21
-980.894304067732
31
0.0
  0
LINE
 8
F Base plate
10
118.752425723861
20
-980.894304067732
30
0.0
11
118.516091308264
21
-981.297979910435
31
0.0
  0
LINE
 8
F Base plate
10
118.516091308264
20
-981.297979910435
30
0.0
11
118.357811954036
21
-981.74533058524
31
0.0
  0
LINE
 8
F Base plate
10
118.357811954036
20
-981.74533058524
30
0.0
11
118.286757562921
21
-982.227189871617
31
0.0
  0
LINE
 8
F Base plate
10
118.286757562921
20
-982.227189871617
30
0.0
11
118.31080851923
21
-982.721425453836
31
0.0
  0
LINE
 8
F Base plate
10
118.31080851923
20
-982.721425453836
30
0.0
11
118.42662162962
21
-983.187176211994
31
0.0
  0
LINE
 8
F Base plate
10
118.42662162962
20
-983.187176211994
30
0.0
11
118.62507475225
21
-983.613835248314
31
0.0
  0
LINE
 8
F Base plate
10
118.62507475225
20
-983.613835248314
30
0.0
11
118.896997985377
21
-983.992236342266
31
0.0
  0
LINE
 8
F Base plate
10
118.896997985377
20
-983.992236342266
30
0.0
11
119.233221427257
21
-984.313213273319
31
0.0
  0
LINE
 8
F Base plate
10
119.233221427257
20
-984.313213273319
30
0.0
11
119.624575176145
21
-984.567599820941
31
0.0
  0
LINE
 8
F Base plate
10
119.624575176145
20
-984.567599820941
30
0.0
11
120.061889330297
21
-984.746229764602
31
0.0
  0
LINE
 8
F Base plate
10
120.061889330297
20
-984.746229764602
30
0.0
11
120.535993987969
21
-984.83993688377
31
0.0
  0
LINE
 8
F Base plate
10
120.535993987969
20
-984.83993688377
30
0.0
11
121.031958513258
21
-984.83993688377
31
0.0
  0
LINE
 8
F Base plate
10
121.031958513258
20
-984.83993688377
30
0.0
11
121.506049979917
21
-984.746229764602
31
0.0
  0
LINE
 8
F Base plate
10
121.506049979917
20
-984.746229764602
30
0.0
11
121.943341279871
21
-984.567599820941
31
0.0
  0
LINE
 8
F Base plate
10
121.943341279871
20
-984.567599820941
30
0.0
11
122.33466619259
21
-984.313213273319
31
0.0
  0
LINE
 8
F Base plate
10
122.33466619259
20
-984.313213273319
30
0.0
11
122.670858497543
21
-983.992236342266
31
0.0
  0
LINE
 8
F Base plate
10
122.670858497543
20
-983.992236342266
30
0.0
11
122.942751974197
21
-983.613835248314
31
0.0
  0
LINE
 8
F Base plate
10
122.942751974197
20
-983.613835248314
30
0.0
11
123.141180402023
21
-983.187176211994
31
0.0
  0
LINE
 8
F Base plate
10
123.141180402023
20
-983.187176211994
30
0.0
11
123.256977560489
21
-982.721425453836
31
0.0
  0
LINE
 8
F Base plate
10
123.256977560489
20
-982.721425453836
30
0.0
11
123.281024969796
21
-982.227189871617
31
0.0
  0
LINE
 8
F Base plate
10
123.281024969796
20
-982.227189871617
30
0.0
11
123.209980778709
21
-981.74533058524
31
0.0
  0
LINE
 8
F Base plate
10
123.209980778709
20
-981.74533058524
30
0.0
11
123.051722207997
21
-981.297979910435
31
0.0
  0
LINE
 8
F Base plate
10
123.051722207997
20
-981.297979910435
30
0.0
11
122.81541547819
21
-980.894304067732
31
0.0
  0
LINE
 8
F Base plate
10
122.81541547819
20
-980.894304067732
30
0.0
11
122.51022680982
21
-980.543469277663
31
0.0
  0
LINE
 8
F Base plate
10
122.51022680982
20
-980.543469277663
30
0.0
11
122.145322423418
21
-980.254641760759
31
0.0
  0
LINE
 8
F Base plate
10
122.145322423418
20
-980.254641760759
30
0.0
11
121.729868539515
21
-980.036987737552
31
0.0
  0
LINE
 8
F Base plate
10
121.729868539515
20
-980.036987737552
30
0.0
11
121.273031378642
21
-979.899673428571
31
0.0
  0
LINE
 8
F Base plate
10
121.273031378642
20
-979.899673428571
30
0.0
11
120.78397716133
21
-979.851865054348
31
0.0
  0
LINE
 8
F Base plate
10
484.065057111305
20
-959.323561043982
30
0.0
11
272.064937654056
21
-959.323561043982
31
0.0
  0
LINE
 8
F Base plate
10
272.064937654056
20
-1189.32328275725
30
0.0
11
372.06492899997
21
-1189.32328275725
31
0.0
  0
LINE
 8
F Base plate
10
556.064844174498
20
-963.141762889131
30
0.0
11
555.478139491906
21
-963.199135361663
31
0.0
  0
LINE
 8
F Base plate
10
555.478139491906
20
-963.199135361663
30
0.0
11
554.930024965872
21
-963.363917348694
31
0.0
  0
LINE
 8
F Base plate
10
554.930024965872
20
-963.363917348694
30
0.0
11
554.431514785884
21
-963.625105704373
31
0.0
  0
LINE
 8
F Base plate
10
554.431514785884
20
-963.625105704373
30
0.0
11
553.993623141432
21
-963.971697282849
31
0.0
  0
LINE
 8
F Base plate
10
553.993623141432
20
-963.971697282849
30
0.0
11
553.627364222006
21
-964.392688938272
31
0.0
  0
LINE
 8
F Base plate
10
553.627364222006
20
-964.392688938272
30
0.0
11
553.343752217095
21
-964.877077524792
31
0.0
  0
LINE
 8
F Base plate
10
553.343752217095
20
-964.877077524792
30
0.0
11
553.15380131619
21
-965.413859896559
31
0.0
  0
LINE
 8
F Base plate
10
553.15380131619
20
-965.413859896559
30
0.0
11
553.068525708778
21
-965.992032907721
31
0.0
  0
LINE
 8
F Base plate
10
553.068525708778
20
-965.992032907721
30
0.0
11
553.097390713954
21
-966.58508658999
31
0.0
  0
LINE
 8
F Base plate
10
553.097390713954
20
-966.58508658999
30
0.0
11
553.236380741798
21
-967.143968894314
31
0.0
  0
LINE
 8
F Base plate
10
553.236380741798
20
-967.143968894314
30
0.0
11
553.474538968393
21
-967.655938279494
31
0.0
  0
LINE
 8
F Base plate
10
553.474538968393
20
-967.655938279494
30
0.0
11
553.800851204248
21
-968.109997121499
31
0.0
  0
LINE
 8
F Base plate
10
553.800851204248
20
-968.109997121499
30
0.0
11
554.204303259873
21
-968.495147796297
31
0.0
  0
LINE
 8
F Base plate
10
554.204303259873
20
-968.495147796297
30
0.0
11
554.673880945778
21
-968.800392679858
31
0.0
  0
LINE
 8
F Base plate
10
554.673880945778
20
-968.800392679858
30
0.0
11
555.198570072476
21
-969.014734148151
31
0.0
  0
LINE
 8
F Base plate
10
555.198570072476
20
-969.014734148151
30
0.0
11
555.767356450475
21
-969.127174577146
31
0.0
  0
LINE
 8
F Base plate
10
555.767356450475
20
-969.127174577146
30
0.0
11
556.36244244995
21
-969.127174577146
31
0.0
  0
LINE
 8
F Base plate
10
556.36244244995
20
-969.127174577146
30
0.0
11
556.931369864425
21
-969.014734148151
31
0.0
  0
LINE
 8
F Base plate
10
556.931369864425
20
-969.014734148151
30
0.0
11
557.456111678484
21
-968.800392679858
31
0.0
  0
LINE
 8
F Base plate
10
557.456111678484
20
-968.800392679858
30
0.0
11
557.925675789917
21
-968.495147796297
31
0.0
  0
LINE
 8
F Base plate
10
557.925675789917
20
-968.495147796297
30
0.0
11
558.329070096512
21
-968.109997121499
31
0.0
  0
LINE
 8
F Base plate
10
558.329070096512
20
-968.109997121499
30
0.0
11
558.655302496058
21
-967.655938279494
31
0.0
  0
LINE
 8
F Base plate
10
558.655302496058
20
-967.655938279494
30
0.0
11
558.893380886345
21
-967.143968894314
31
0.0
  0
LINE
 8
F Base plate
10
558.893380886345
20
-967.143968894314
30
0.0
11
559.032313165159
21
-966.58508658999
31
0.0
  0
LINE
 8
F Base plate
10
559.032313165159
20
-966.58508658999
30
0.0
11
559.061164480824
21
-965.992032907721
31
0.0
  0
LINE
 8
F Base plate
10
559.061164480824
20
-965.992032907721
30
0.0
11
558.975927296074
21
-965.413859896559
31
0.0
  0
LINE
 8
F Base plate
10
558.975927296074
20
-965.413859896559
30
0.0
11
558.786047948747
21
-964.877077524792
31
0.0
  0
LINE
 8
F Base plate
10
558.786047948747
20
-964.877077524792
30
0.0
11
558.502518541055
21
-964.392688938272
31
0.0
  0
LINE
 8
F Base plate
10
558.502518541055
20
-964.392688938272
30
0.0
11
558.136331175208
21
-963.971697282849
31
0.0
  0
LINE
 8
F Base plate
10
558.136331175208
20
-963.971697282849
30
0.0
11
557.698477953418
21
-963.625105704373
31
0.0
  0
LINE
 8
F Base plate
10
557.698477953418
20
-963.625105704373
30
0.0
11
557.199950977895
21
-963.363917348694
31
0.0
  0
LINE
 8
F Base plate
10
557.199950977895
20
-963.363917348694
30
0.0
11
556.651742350851
21
-963.199135361663
31
0.0
  0
LINE
 8
F Base plate
10
556.651742350851
20
-963.199135361663
30
0.0
11
556.064844174498
21
-963.141762889131
31
0.0
  0
LINE
 8
F Base plate
10
56.2187110598187
20
-1273.14182218891
30
0.0
11
56.2187110598187
21
-834.141799891134
31
0.0
  0
LINE
 8
F Base plate
10
352.001368677153
20
-1247.32357057119
30
0.0
11
351.869765942799
21
-1216.56229269035
31
0.0
  0
LINE
 8
F Base plate
10
272.065626673608
20
-850.32342406028
30
0.0
11
352.041676320921
21
-850.32342406028
31
0.0
  0
LINE
 8
F Base plate
10
271.999653051543
20
-1247.32357057119
30
0.0
11
352.001368677153
21
-1247.32357057119
31
0.0
  0
LINE
 8
F Base plate
10
130.213209724872
20
-876.337701740425
30
0.0
11
129.626408295399
21
-876.39506086856
31
0.0
  0
LINE
 8
F Base plate
10
129.626408295399
20
-876.39506086856
30
0.0
11
129.07824671886
21
-876.559810184825
31
0.0
  0
LINE
 8
F Base plate
10
129.07824671886
20
-876.559810184825
30
0.0
11
128.579728141105
21
-876.820957587008
31
0.0
  0
LINE
 8
F Base plate
10
128.579728141105
20
-876.820957587008
30
0.0
11
128.141855707983
21
-877.167510972899
31
0.0
  0
LINE
 8
F Base plate
10
128.141855707983
20
-877.167510972899
30
0.0
11
127.775632565347
21
-877.588478240285
31
0.0
  0
LINE
 8
F Base plate
10
127.775632565347
20
-877.588478240285
30
0.0
11
127.492061859045
21
-878.072867286957
31
0.0
  0
LINE
 8
F Base plate
10
127.492061859045
20
-878.072867286957
30
0.0
11
127.302146734929
21
-878.609686010703
31
0.0
  0
LINE
 8
F Base plate
10
127.302146734929
20
-878.609686010703
30
0.0
11
127.216890338849
21
-879.187942309311
31
0.0
  0
LINE
 8
F Base plate
10
127.216890338849
20
-879.187942309311
30
0.0
11
127.245748499269
21
-879.78098661599
31
0.0
  0
LINE
 8
F Base plate
10
127.245748499269
20
-879.78098661599
30
0.0
11
127.384709652599
21
-880.339839700686
31
0.0
  0
LINE
 8
F Base plate
10
127.384709652599
20
-880.339839700686
30
0.0
11
127.622827961039
21
-880.851800573061
31
0.0
  0
LINE
 8
F Base plate
10
127.622827961039
20
-880.851800573061
30
0.0
11
127.949100278739
21
-881.305866087264
31
0.0
  0
LINE
 8
F Base plate
10
127.949100278739
20
-881.305866087264
30
0.0
11
128.352523459849
21
-881.691033097445
31
0.0
  0
LINE
 8
F Base plate
10
128.352523459849
20
-881.691033097445
30
0.0
11
128.822094358518
21
-881.996298457753
31
0.0
  0
LINE
 8
F Base plate
10
128.822094358518
20
-881.996298457753
30
0.0
11
129.346809828897
21
-882.210659022339
31
0.0
  0
LINE
 8
F Base plate
10
129.346809828897
20
-882.210659022339
30
0.0
11
129.915666725134
21
-882.323111645352
31
0.0
  0
LINE
 8
F Base plate
10
129.915666725134
20
-882.323111645352
30
0.0
11
130.510752724609
21
-882.323111645352
31
0.0
  0
LINE
 8
F Base plate
10
130.510752724609
20
-882.323111645352
30
0.0
11
131.079609620846
21
-882.210659022339
31
0.0
  0
LINE
 8
F Base plate
10
131.079609620846
20
-882.210659022339
30
0.0
11
131.604325091224
21
-881.996298457753
31
0.0
  0
LINE
 8
F Base plate
10
131.604325091224
20
-881.996298457753
30
0.0
11
132.073895989894
21
-881.691033097445
31
0.0
  0
LINE
 8
F Base plate
10
132.073895989894
20
-881.691033097445
30
0.0
11
132.477319171004
21
-881.305866087264
31
0.0
  0
LINE
 8
F Base plate
10
132.477319171004
20
-881.305866087264
30
0.0
11
132.803591488704
21
-880.851800573061
31
0.0
  0
LINE
 8
F Base plate
10
132.803591488704
20
-880.851800573061
30
0.0
11
133.041709797144
21
-880.339839700686
31
0.0
  0
LINE
 8
F Base plate
10
133.041709797144
20
-880.339839700686
30
0.0
11
133.180670950474
21
-879.78098661599
31
0.0
  0
LINE
 8
F Base plate
10
133.180670950474
20
-879.78098661599
30
0.0
11
133.209529110894
21
-879.187942309311
31
0.0
  0
LINE
 8
F Base plate
10
133.209529110894
20
-879.187942309311
30
0.0
11
133.124272714813
21
-878.609686010703
31
0.0
  0
LINE
 8
F Base plate
10
133.124272714813
20
-878.609686010703
30
0.0
11
132.934357590697
21
-878.072867286957
31
0.0
  0
LINE
 8
F Base plate
10
132.934357590697
20
-878.072867286957
30
0.0
11
132.650786884396
21
-877.588478240285
31
0.0
  0
LINE
 8
F Base plate
10
132.650786884396
20
-877.588478240285
30
0.0
11
132.284563741759
21
-877.167510972899
31
0.0
  0
LINE
 8
F Base plate
10
132.284563741759
20
-877.167510972899
30
0.0
11
131.846691308638
21
-876.820957587008
31
0.0
  0
LINE
 8
F Base plate
10
131.846691308638
20
-876.820957587008
30
0.0
11
131.348172730883
21
-876.559810184825
31
0.0
  0
LINE
 8
F Base plate
10
131.348172730883
20
-876.559810184825
30
0.0
11
130.800011154344
21
-876.39506086856
31
0.0
  0
LINE
 8
F Base plate
10
130.800011154344
20
-876.39506086856
30
0.0
11
130.213209724872
21
-876.337701740425
31
0.0
  0
LINE
 8
F Base plate
10
556.064844174498
20
-1218.14187001238
30
0.0
11
555.478139491906
21
-1218.19925582931
31
0.0
  0
LINE
 8
F Base plate
10
555.478139491906
20
-1218.19925582931
30
0.0
11
554.930024965872
21
-1218.36407048711
31
0.0
  0
LINE
 8
F Base plate
10
554.930024965872
20
-1218.36407048711
30
0.0
11
554.431514785884
21
-1218.62529979628
31
0.0
  0
LINE
 8
F Base plate
10
554.431514785884
20
-1218.62529979628
30
0.0
11
553.993623141432
21
-1218.97192956734
31
0.0
  0
LINE
 8
F Base plate
10
553.993623141432
20
-1218.97192956734
30
0.0
11
553.627364222006
21
-1219.3929456108
31
0.0
  0
LINE
 8
F Base plate
10
553.627364222006
20
-1219.3929456108
30
0.0
11
553.343752217095
21
-1219.87733373717
31
0.0
  0
LINE
 8
F Base plate
10
553.343752217095
20
-1219.87733373717
30
0.0
11
553.15380131619
21
-1220.41407975696
31
0.0
  0
LINE
 8
F Base plate
10
553.15380131619
20
-1220.41407975696
30
0.0
11
553.068525708778
21
-1220.99216948067
31
0.0
  0
LINE
 8
F Base plate
10
553.068525708778
20
-1220.99216948067
30
0.0
11
553.097390713954
21
-1221.58516291184
31
0.0
  0
LINE
 8
F Base plate
10
553.097390713954
20
-1221.58516291184
30
0.0
11
553.236380741798
21
-1222.14404790038
31
0.0
  0
LINE
 8
F Base plate
10
553.236380741798
20
-1222.14404790038
30
0.0
11
553.474538968393
21
-1222.65605816236
31
0.0
  0
LINE
 8
F Base plate
10
553.474538968393
20
-1222.65605816236
30
0.0
11
553.800851204248
21
-1223.11018318951
31
0.0
  0
LINE
 8
F Base plate
10
553.800851204248
20
-1223.11018318951
30
0.0
11
554.204303259873
21
-1223.49541247355
31
0.0
  0
LINE
 8
F Base plate
10
554.204303259873
20
-1223.49541247355
30
0.0
11
554.673880945778
21
-1223.80073550619
31
0.0
  0
LINE
 8
F Base plate
10
554.673880945778
20
-1223.80073550619
30
0.0
11
555.198570072476
21
-1224.01514177917
31
0.0
  0
LINE
 8
F Base plate
10
555.198570072476
20
-1224.01514177917
30
0.0
11
555.767356450475
21
-1224.12762078421
31
0.0
  0
LINE
 8
F Base plate
10
555.767356450475
20
-1224.12762078421
30
0.0
11
556.36244244995
21
-1224.12762078421
31
0.0
  0
LINE
 8
F Base plate
10
556.36244244995
20
-1224.12762078421
30
0.0
11
556.931369864425
21
-1224.01514177917
31
0.0
  0
LINE
 8
F Base plate
10
556.931369864425
20
-1224.01514177917
30
0.0
11
557.456111678484
21
-1223.80073550619
31
0.0
  0
LINE
 8
F Base plate
10
557.456111678484
20
-1223.80073550619
30
0.0
11
557.925675789917
21
-1223.49541247355
31
0.0
  0
LINE
 8
F Base plate
10
557.925675789917
20
-1223.49541247355
30
0.0
11
558.329070096512
21
-1223.11018318951
31
0.0
  0
LINE
 8
F Base plate
10
558.329070096512
20
-1223.11018318951
30
0.0
11
558.655302496058
21
-1222.65605816236
31
0.0
  0
LINE
 8
F Base plate
10
558.655302496058
20
-1222.65605816236
30
0.0
11
558.893380886345
21
-1222.14404790038
31
0.0
  0
LINE
 8
F Base plate
10
558.893380886345
20
-1222.14404790038
30
0.0
11
559.032313165159
21
-1221.58516291184
31
0.0
  0
LINE
 8
F Base plate
10
559.032313165159
20
-1221.58516291184
30
0.0
11
559.061164480824
21
-1220.99216948067
31
0.0
  0
LINE
 8
F Base plate
10
559.061164480824
20
-1220.99216948067
30
0.0
11
558.975927296074
21
-1220.41407975696
31
0.0
  0
LINE
 8
F Base plate
10
558.975927296074
20
-1220.41407975696
30
0.0
11
558.786047948747
21
-1219.87733373717
31
0.0
  0
LINE
 8
F Base plate
10
558.786047948747
20
-1219.87733373717
30
0.0
11
558.502518541055
21
-1219.3929456108
31
0.0
  0
LINE
 8
F Base plate
10
558.502518541055
20
-1219.3929456108
30
0.0
11
558.136331175208
21
-1218.97192956734
31
0.0
  0
LINE
 8
F Base plate
10
558.136331175208
20
-1218.97192956734
30
0.0
11
557.698477953418
21
-1218.62529979628
31
0.0
  0
LINE
 8
F Base plate
10
557.698477953418
20
-1218.62529979628
30
0.0
11
557.199950977895
21
-1218.36407048711
31
0.0
  0
LINE
 8
F Base plate
10
557.199950977895
20
-1218.36407048711
30
0.0
11
556.651742350851
21
-1218.19925582931
31
0.0
  0
LINE
 8
F Base plate
10
556.651742350851
20
-1218.19925582931
30
0.0
11
556.064844174498
21
-1218.14187001238
31
0.0
  0
LINE
 8
F Base plate
10
372.06492899997
20
-1189.14172610541
30
0.0
11
372.06492899997
21
-1189.32328275725
31
0.0
  0
LINE
 8
F Base plate
10
526.250279157546
20
-1273.14182218891
30
0.0
11
526.250279157546
21
-834.141799891134
31
0.0
  0
LINE
 8
F Base plate
10
372.06492899997
20
-959.141832137249
30
0.0
11
372.06492899997
21
-834.141799891134
31
0.0
  0
LINE
 8
F Base plate
10
524.250744418825
20
-1273.14182218891
30
0.0
11
524.250744418825
21
-1071.64184393326
31
0.0
  0
LINE
 8
F Base plate
10
182.214548812873
20
-1273.14182218891
30
0.0
11
182.214548812873
21
-834.141799891134
31
0.0
  0
LINE
 8
F Base plate
10
184.213911296706
20
-1273.14182218891
30
0.0
11
184.213911296706
21
-1071.64184393326
31
0.0
  0
LINE
 8
F Base plate
10
484.065057111305
20
-1071.64184393326
30
0.0
11
524.250744418825
21
-1071.64184393326
31
0.0
  0
LINE
 8
F Base plate
10
272.064937654056
20
-1071.64184393326
30
0.0
11
184.213911296706
21
-1071.64184393326
31
0.0
  0
LINE
 8
F Base plate
10
125.415566587134
20
-1236.35231225119
30
0.0
11
125.415566587134
21
-1233.35232112355
31
0.0
  0
LINE
 8
F Base plate
10
125.415566587134
20
-1233.35232112355
30
0.0
11
115.415481325098
21
-1233.35232112355
31
0.0
  0
LINE
 8
F Base plate
10
115.415481325098
20
-1233.35232112355
30
0.0
11
115.415481325098
21
-1236.35231225119
31
0.0
  0
LINE
 8
F Base plate
10
115.415481325098
20
-1236.35231225119
30
0.0
11
125.415566587134
21
-1236.35231225119
31
0.0
  0
LINE
 8
F Base plate
10
125.415566587134
20
-1104.35201361578
30
0.0
11
125.415566587134
21
-1101.35167797837
31
0.0
  0
LINE
 8
F Base plate
10
125.415566587134
20
-1101.35167797837
30
0.0
11
115.415481325098
21
-1101.35167797837
31
0.0
  0
LINE
 8
F Base plate
10
115.415481325098
20
-1101.35167797837
30
0.0
11
115.415481325098
21
-1104.35201361578
31
0.0
  0
LINE
 8
F Base plate
10
115.415481325098
20
-1104.35201361578
30
0.0
11
125.415566587134
21
-1104.35201361578
31
0.0
  0
LINE
 8
F Base plate
10
272.064937654056
20
-1071.64184393326
30
0.0
11
272.064937654056
21
-1189.32328275725
31
0.0
  0
LINE
 8
F Base plate
10
484.065057111305
20
-1071.64184393326
30
0.0
11
484.065057111305
21
-959.323561043982
31
0.0
  0
LINE
 8
F Base plate
10
271.999480796655
20
-1216.56229269035
30
0.0
11
271.84824100508
21
-1216.56229269035
31
0.0
  0
LINE
 8
F Base plate
10
182.214548812873
20
-1273.14182218891
30
0.0
11
56.2187110598187
21
-1273.14182218891
31
0.0
  0
LINE
 8
F Base plate
10
184.213911296706
20
-1273.14182218891
30
0.0
11
182.214548812873
21
-1273.14182218891
31
0.0
  0
LINE
 8
F Base plate
10
372.06492899997
20
-1273.14182218891
30
0.0
11
184.213911296706
21
-1273.14182218891
31
0.0
  0
LINE
 8
F Base plate
10
526.250279157546
20
-1273.14182218891
30
0.0
11
524.250744418825
21
-1273.14182218891
31
0.0
  0
LINE
 8
F Base plate
10
182.214548812873
20
-834.141799891134
30
0.0
11
184.213911296706
21
-834.141799891134
31
0.0
  0
LINE
 8
F Base plate
10
524.250744418825
20
-1071.64184393326
30
0.0
11
524.250744418825
21
-834.141799891134
31
0.0
  0
LINE
 8
F Base plate
10
184.213911296706
20
-1071.64184393326
30
0.0
11
184.213911296706
21
-834.141799891134
31
0.0
  0
LINE
 8
F Base plate
10
524.250744418825
20
-1273.14182218891
30
0.0
11
372.06492899997
21
-1273.14182218891
31
0.0
  0
LINE
 8
F Base plate
10
184.213911296706
20
-834.141799891134
30
0.0
11
372.06492899997
21
-834.141799891134
31
0.0
  0
LINE
 8
F Base plate
10
372.06492899997
20
-834.141799891134
30
0.0
11
524.250744418825
21
-834.141799891134
31
0.0
  0
LINE
 8
F Base plate
10
526.250279157546
20
-834.141799891134
30
0.0
11
582.250687722989
21
-834.141799891134
31
0.0
  0
LINE
 8
F Base plate
10
524.250744418825
20
-834.141799891134
30
0.0
11
526.250279157546
21
-834.141799891134
31
0.0
  0
LINE
 8
F Base plate
10
372.06492899997
20
-1189.32328275725
30
0.0
11
484.065057111305
21
-1189.32328275725
31
0.0
  0
LINE
 8
F Base plate
10
372.06492899997
20
-1189.32328275725
30
0.0
11
372.06492899997
21
-1273.14182218891
31
0.0
  0
LINE
 8
GROUP0
10
195.804766688271
20
-931.820208074577
30
0.0
11
195.743771818522
21
-931.839749295587
31
0.0
  0
LINE
 8
GROUP0
10
195.595967037195
20
-931.874810152338
30
0.0
11
195.510487346771
21
-931.888136090038
31
0.0
  0
LINE
 8
GROUP0
10
190.826259678449
20
-929.311591925498
30
0.0
11
189.66250565581
21
-929.311591925498
31
0.0
  0
LINE
 8
GROUP0
10
195.743771818522
20
-931.839749295587
30
0.0
11
195.673950231305
21
-931.858315604514
31
0.0
  0
LINE
 8
GROUP0
10
190.826259678449
20
-929.002738911497
30
0.0
11
190.826259678449
21
-929.311591925498
31
0.0
  0
LINE
 8
GROUP0
10
189.290262843062
20
-929.002738911497
30
0.0
11
190.826259678449
21
-929.002738911497
31
0.0
  0
LINE
 8
GROUP0
10
195.673950231305
20
-931.858315604514
30
0.0
11
195.595967037195
21
-931.874810152338
31
0.0
  0
LINE
 8
GROUP0
10
195.856269729975
20
-931.800788790507
30
0.0
11
195.804766688271
21
-931.820208074577
31
0.0
  0
LINE
 8
GROUP0
10
195.897615833057
20
-931.782588292396
30
0.0
11
195.856269729975
21
-931.800788790507
31
0.0
  0
LINE
 8
GROUP0
10
192.058915656248
20
-930.576631822222
30
0.0
11
193.104158316014
21
-930.576631822222
31
0.0
  0
LINE
 8
GROUP0
10
192.058915656248
20
-930.847416505998
30
0.0
11
192.058915656248
21
-930.576631822222
31
0.0
  0
LINE
 8
GROUP0
10
193.104158316014
20
-930.847416505998
30
0.0
11
192.058915656248
21
-930.847416505998
31
0.0
  0
LINE
 8
GROUP0
10
193.104158316014
20
-930.576631822222
30
0.0
11
193.104158316014
21
-930.847416505998
31
0.0
  0
LINE
 8
GROUP0
10
189.290262843062
20
-931.85441858065
30
0.0
11
189.290262843062
21
-929.002738911497
31
0.0
  0
LINE
 8
GROUP0
10
189.66250565581
20
-931.85441858065
30
0.0
11
189.290262843062
21
-931.85441858065
31
0.0
  0
LINE
 8
GROUP0
10
189.66250565581
20
-930.564057215405
30
0.0
11
189.66250565581
21
-931.85441858065
31
0.0
  0
LINE
 8
GROUP0
10
190.737376156294
20
-930.564057215405
30
0.0
11
189.66250565581
21
-930.564057215405
31
0.0
  0
LINE
 8
GROUP0
10
190.737376156294
20
-930.259338318714
30
0.0
11
190.737376156294
21
-930.564057215405
31
0.0
  0
LINE
 8
GROUP0
10
189.66250565581
20
-930.259338318714
30
0.0
11
190.737376156294
21
-930.259338318714
31
0.0
  0
LINE
 8
GROUP0
10
189.66250565581
20
-929.311591925498
30
0.0
11
189.66250565581
21
-930.259338318714
31
0.0
  0
LINE
 8
GROUP0
10
195.510487346771
20
-931.888136090038
30
0.0
11
195.418176270607
21
-931.897196568592
31
0.0
  0
LINE
 8
GROUP0
10
195.418176270607
20
-931.897196568592
30
0.0
11
195.319698919282
21
-931.90089473898
31
0.0
  0
LINE
 8
GROUP0
10
195.319698919282
20
-931.90089473898
30
0.0
11
195.111884731626
21
-931.885707771323
31
0.0
  0
LINE
 8
GROUP0
10
195.111884731626
20
-931.885707771323
30
0.0
11
194.91288382212
21
-931.834531252886
31
0.0
  0
LINE
 8
GROUP0
10
194.91288382212
20
-931.834531252886
30
0.0
11
194.737611607582
21
-931.749590259892
31
0.0
  0
LINE
 8
GROUP0
10
194.737611607582
20
-931.749590259892
30
0.0
11
194.588168437202
21
-931.633269077623
31
0.0
  0
LINE
 8
GROUP0
10
194.588168437202
20
-931.633269077623
30
0.0
11
194.466654660167
21
-931.487951991365
31
0.0
  0
LINE
 8
GROUP0
10
194.466654660167
20
-931.487951991365
30
0.0
11
194.375170625669
21
-931.316023286399
31
0.0
  0
LINE
 8
GROUP0
10
194.375170625669
20
-931.316023286399
30
0.0
11
194.315816682896
21
-931.11986724801
31
0.0
  0
LINE
 8
GROUP0
10
194.315816682896
20
-931.11986724801
30
0.0
11
194.290693181037
21
-930.901868161482
31
0.0
  0
LINE
 8
GROUP0
10
194.290693181037
20
-930.901868161482
30
0.0
11
194.302400902111
21
-930.674292408359
31
0.0
  0
LINE
 8
GROUP0
10
194.302400902111
20
-930.674292408359
30
0.0
11
194.351752502335
21
-930.463842676934
31
0.0
  0
LINE
 8
GROUP0
10
194.351752502335
20
-930.463842676934
30
0.0
11
194.436612255897
21
-930.274807755786
31
0.0
  0
LINE
 8
GROUP0
10
194.436612255897
20
-930.274807755786
30
0.0
11
194.554784519987
21
-930.110482081514
31
0.0
  0
LINE
 8
GROUP0
10
194.554784519987
20
-930.110482081514
30
0.0
11
194.704073651796
21
-929.974160090717
31
0.0
  0
LINE
 8
GROUP0
10
194.704073651796
20
-929.974160090717
30
0.0
11
194.882284008512
21
-929.869136219995
31
0.0
  0
LINE
 8
GROUP0
10
194.882284008512
20
-929.869136219995
30
0.0
11
195.087219947327
21
-929.798704905945
31
0.0
  0
LINE
 8
GROUP0
10
195.087219947327
20
-929.798704905945
30
0.0
11
195.316685825429
21
-929.766160585168
31
0.0
  0
LINE
 8
GROUP0
10
195.316685825429
20
-929.766160585168
30
0.0
11
195.446398672065
21
-929.765473562893
31
0.0
  0
LINE
 8
GROUP0
10
195.446398672065
20
-929.765473562893
30
0.0
11
195.524506473928
21
-929.771032623215
31
0.0
  0
LINE
 8
GROUP0
10
195.524506473928
20
-929.771032623215
30
0.0
11
195.598996035359
21
-929.780565427517
31
0.0
  0
LINE
 8
GROUP0
10
195.598996035359
20
-929.780565427517
30
0.0
11
195.669101117856
21
-929.793453539649
31
0.0
  0
LINE
 8
GROUP0
10
195.669101117856
20
-929.793453539649
30
0.0
11
195.734055482921
21
-929.809078523461
31
0.0
  0
LINE
 8
GROUP0
10
195.734055482921
20
-929.809078523461
30
0.0
11
195.793092892051
21
-929.826821942803
31
0.0
  0
LINE
 8
GROUP0
10
195.793092892051
20
-929.826821942803
30
0.0
11
195.845447106746
21
-929.846065361524
31
0.0
  0
LINE
 8
GROUP0
10
195.845447106746
20
-929.846065361524
30
0.0
11
195.890351888506
21
-929.866190343475
31
0.0
  0
LINE
 8
GROUP0
10
195.890351888506
20
-929.866190343475
30
0.0
11
195.897459847448
21
-929.90316697021
31
0.0
  0
LINE
 8
GROUP0
10
195.897459847448
20
-929.90316697021
30
0.0
11
195.885507920589
21
-929.943233918499
31
0.0
  0
LINE
 8
GROUP0
10
195.885507920589
20
-929.943233918499
30
0.0
11
195.870786838905
21
-929.992584021252
31
0.0
  0
LINE
 8
GROUP0
10
195.870786838905
20
-929.992584021252
30
0.0
11
195.855206364345
21
-930.044815102976
31
0.0
  0
LINE
 8
GROUP0
10
195.855206364345
20
-930.044815102976
30
0.0
11
195.840676258856
21
-930.093524988179
31
0.0
  0
LINE
 8
GROUP0
10
195.840676258856
20
-930.093524988179
30
0.0
11
195.829106284386
21
-930.132311501369
31
0.0
  0
LINE
 8
GROUP0
10
195.829106284386
20
-930.132311501369
30
0.0
11
195.804435466121
21
-930.149201213039
31
0.0
  0
LINE
 8
GROUP0
10
195.804435466121
20
-930.149201213039
30
0.0
11
195.766792774576
21
-930.131869902952
31
0.0
  0
LINE
 8
GROUP0
10
195.766792774576
20
-930.131869902952
30
0.0
11
195.724293025531
21
-930.115091101389
31
0.0
  0
LINE
 8
GROUP0
10
195.724293025531
20
-930.115091101389
30
0.0
11
195.676796195705
21
-930.099485189266
31
0.0
  0
LINE
 8
GROUP0
10
195.676796195705
20
-930.099485189266
30
0.0
11
195.62416226182
21
-930.085672547502
31
0.0
  0
LINE
 8
GROUP0
10
195.62416226182
20
-930.085672547502
30
0.0
11
195.566251200597
21
-930.074273557015
31
0.0
  0
LINE
 8
GROUP0
10
195.566251200597
20
-930.074273557015
30
0.0
11
195.502922988757
21
-930.065908598722
31
0.0
  0
LINE
 8
GROUP0
10
195.502922988757
20
-930.065908598722
30
0.0
11
195.434037603019
21
-930.061198053543
31
0.0
  0
LINE
 8
GROUP0
10
195.434037603019
20
-930.061198053543
30
0.0
11
195.321974549418
21
-930.062919864058
31
0.0
  0
LINE
 8
GROUP0
10
195.321974549418
20
-930.062919864058
30
0.0
11
195.165965755538
21
-930.09041939242
31
0.0
  0
LINE
 8
GROUP0
10
195.165965755538
20
-930.09041939242
30
0.0
11
195.030307011582
21
-930.145625054788
31
0.0
  0
LINE
 8
GROUP0
10
195.030307011582
20
-930.145625054788
30
0.0
11
194.915424221692
21
-930.225384382611
31
0.0
  0
LINE
 8
GROUP0
10
194.915424221692
20
-930.225384382611
30
0.0
11
194.821743290008
21
-930.326544907337
31
0.0
  0
LINE
 8
GROUP0
10
194.821743290008
20
-930.326544907337
30
0.0
11
194.749690120672
21
-930.445954160414
31
0.0
  0
LINE
 8
GROUP0
10
194.749690120672
20
-930.445954160414
30
0.0
11
194.699690617825
21
-930.58045967329
31
0.0
  0
LINE
 8
GROUP0
10
194.699690617825
20
-930.58045967329
30
0.0
11
194.672170685608
21
-930.726908977412
31
0.0
  0
LINE
 8
GROUP0
10
194.672170685608
20
-930.726908977412
30
0.0
11
194.667753118397
21
-930.886721880635
31
0.0
  0
LINE
 8
GROUP0
10
194.667753118397
20
-930.886721880635
30
0.0
11
194.689205067256
21
-931.048421314583
31
0.0
  0
LINE
 8
GROUP0
10
194.689205067256
20
-931.048421314583
30
0.0
11
194.735529429007
21
-931.191883688787
31
0.0
  0
LINE
 8
GROUP0
10
194.735529429007
20
-931.191883688787
30
0.0
11
194.804435267219
21
-931.315864351874
31
0.0
  0
LINE
 8
GROUP0
10
194.804435267219
20
-931.315864351874
30
0.0
11
194.893631645462
21
-931.419118652474
31
0.0
  0
LINE
 8
GROUP0
10
194.893631645462
20
-931.419118652474
30
0.0
11
195.000827627304
21
-931.500401939216
31
0.0
  0
LINE
 8
GROUP0
10
195.000827627304
20
-931.500401939216
30
0.0
11
195.123732276316
21
-931.558469560727
31
0.0
  0
LINE
 8
GROUP0
10
195.123732276316
20
-931.558469560727
30
0.0
11
195.260054656066
21
-931.592076865636
31
0.0
  0
LINE
 8
GROUP0
10
195.260054656066
20
-931.592076865636
30
0.0
11
195.392771515462
21
-931.600422765204
31
0.0
  0
LINE
 8
GROUP0
10
195.392771515462
20
-931.600422765204
30
0.0
11
195.466630139127
21
-931.597348249427
31
0.0
  0
LINE
 8
GROUP0
10
195.466630139127
20
-931.597348249427
30
0.0
11
195.534422254216
21
-931.590373501891
31
0.0
  0
LINE
 8
GROUP0
10
195.534422254216
20
-931.590373501891
30
0.0
11
195.596579599175
21
-931.580120848282
31
0.0
  0
LINE
 8
GROUP0
10
195.596579599175
20
-931.580120848282
30
0.0
11
195.653533912447
21
-931.567212614286
31
0.0
  0
LINE
 8
GROUP0
10
195.653533912447
20
-931.567212614286
30
0.0
11
195.705716932476
21
-931.552271125588
31
0.0
  0
LINE
 8
GROUP0
10
195.705716932476
20
-931.552271125588
30
0.0
11
195.753560397709
21
-931.535918707875
31
0.0
  0
LINE
 8
GROUP0
10
195.753560397709
20
-931.535918707875
30
0.0
11
195.797496046588
21
-931.518777686832
31
0.0
  0
LINE
 8
GROUP0
10
195.797496046588
20
-931.518777686832
30
0.0
11
195.834082603798
21
-931.503317566494
31
0.0
  0
LINE
 8
GROUP0
10
195.834082603798
20
-931.503317566494
30
0.0
11
195.844655528245
21
-931.549792589404
31
0.0
  0
LINE
 8
GROUP0
10
195.844655528245
20
-931.549792589404
30
0.0
11
195.854857682718
21
-931.594637832099
31
0.0
  0
LINE
 8
GROUP0
10
195.854857682718
20
-931.594637832099
30
0.0
11
195.866423313873
21
-931.645476460101
31
0.0
  0
LINE
 8
GROUP0
10
195.866423313873
20
-931.645476460101
30
0.0
11
195.877917183097
21
-931.695999646771
31
0.0
  0
LINE
 8
GROUP0
10
195.877917183097
20
-931.695999646771
30
0.0
11
195.887904051777
21
-931.73989856547
31
0.0
  0
LINE
 8
GROUP0
10
195.887904051777
20
-931.73989856547
30
0.0
11
195.897615833057
21
-931.782588292396
31
0.0
  0
LINE
 8
GROUP0
10
197.772954797603
20
-931.363664405028
30
0.0
11
197.773471625657
21
-931.437983339573
31
0.0
  0
LINE
 8
GROUP0
10
197.773471625657
20
-931.437983339573
30
0.0
11
197.775063704549
21
-931.511296302817
31
0.0
  0
LINE
 8
GROUP0
10
197.775063704549
20
-931.511296302817
30
0.0
11
197.77779342638
21
-931.583124010003
31
0.0
  0
LINE
 8
GROUP0
10
197.77779342638
20
-931.583124010003
30
0.0
11
197.781723183247
21
-931.652987176376
31
0.0
  0
LINE
 8
GROUP0
10
197.781723183247
20
-931.652987176376
30
0.0
11
197.786915367248
21
-931.720406517179
31
0.0
  0
LINE
 8
GROUP0
10
197.786915367248
20
-931.720406517179
30
0.0
11
197.793432370482
21
-931.784902747655
31
0.0
  0
LINE
 8
GROUP0
10
197.793432370482
20
-931.784902747655
30
0.0
11
197.801336585048
21
-931.845996583049
31
0.0
  0
LINE
 8
GROUP0
10
197.801336585048
20
-931.845996583049
30
0.0
11
197.746558954676
21
-931.85441858065
31
0.0
  0
LINE
 8
GROUP0
10
197.746558954676
20
-931.85441858065
30
0.0
11
197.684953220474
21
-931.85441858065
31
0.0
  0
LINE
 8
GROUP0
10
197.684953220474
20
-931.85441858065
30
0.0
11
197.615487702443
21
-931.85441858065
31
0.0
  0
LINE
 8
GROUP0
10
197.615487702443
20
-931.85441858065
30
0.0
11
197.549166097944
21
-931.85441858065
31
0.0
  0
LINE
 8
GROUP0
10
197.549166097944
20
-931.85441858065
30
0.0
11
197.496992104337
21
-931.85441858065
31
0.0
  0
LINE
 8
GROUP0
10
197.496992104337
20
-931.85441858065
30
0.0
11
197.469969418982
21
-931.85441858065
31
0.0
  0
LINE
 8
GROUP0
10
197.469969418982
20
-931.85441858065
30
0.0
11
197.464107615463
21
-931.816938871559
31
0.0
  0
LINE
 8
GROUP0
10
197.464107615463
20
-931.816938871559
30
0.0
11
197.458824852952
21
-931.770898981997
31
0.0
  0
LINE
 8
GROUP0
10
197.458824852952
20
-931.770898981997
30
0.0
11
197.452705874264
21
-931.717571371223
31
0.0
  0
LINE
 8
GROUP0
10
197.452705874264
20
-931.717571371223
30
0.0
11
197.446726264939
21
-931.66545838065
31
0.0
  0
LINE
 8
GROUP0
10
197.446726264939
20
-931.66545838065
30
0.0
11
197.441861610516
21
-931.623062351694
31
0.0
  0
LINE
 8
GROUP0
10
197.441861610516
20
-931.623062351694
30
0.0
11
197.438548628123
21
-931.59620850369
31
0.0
  0
LINE
 8
GROUP0
10
197.438548628123
20
-931.59620850369
30
0.0
11
197.404341591025
21
-931.624956436125
31
0.0
  0
LINE
 8
GROUP0
10
197.404341591025
20
-931.624956436125
30
0.0
11
197.345088814495
21
-931.689679518021
31
0.0
  0
LINE
 8
GROUP0
10
197.345088814495
20
-931.689679518021
30
0.0
11
197.274192213879
21
-931.749415283476
31
0.0
  0
LINE
 8
GROUP0
10
197.274192213879
20
-931.749415283476
30
0.0
11
197.192207646056
21
-931.802076433199
31
0.0
  0
LINE
 8
GROUP0
10
197.192207646056
20
-931.802076433199
30
0.0
11
197.099690967903
21
-931.845575667895
31
0.0
  0
LINE
 8
GROUP0
10
197.099690967903
20
-931.845575667895
30
0.0
11
196.997198036295
21
-931.877825688273
31
0.0
  0
LINE
 8
GROUP0
10
196.997198036295
20
-931.877825688273
30
0.0
11
196.885284708111
21
-931.896739195038
31
0.0
  0
LINE
 8
GROUP0
10
196.885284708111
20
-931.896739195038
30
0.0
11
196.751108199099
21
-931.899544356241
31
0.0
  0
LINE
 8
GROUP0
10
196.751108199099
20
-931.899544356241
30
0.0
11
196.595782906057
21
-931.874226389317
31
0.0
  0
LINE
 8
GROUP0
10
196.595782906057
20
-931.874226389317
30
0.0
11
196.464519490405
21
-931.820665464121
31
0.0
  0
LINE
 8
GROUP0
10
196.464519490405
20
-931.820665464121
30
0.0
11
196.357456916364
21
-931.743600544128
31
0.0
  0
LINE
 8
GROUP0
10
196.357456916364
20
-931.743600544128
30
0.0
11
196.274734148152
21
-931.647770592814
31
0.0
  0
LINE
 8
GROUP0
10
196.274734148152
20
-931.647770592814
30
0.0
11
196.216490149988
21
-931.537914573658
31
0.0
  0
LINE
 8
GROUP0
10
196.216490149988
20
-931.537914573658
30
0.0
11
196.182863886093
21
-931.418771450136
31
0.0
  0
LINE
 8
GROUP0
10
196.182863886093
20
-931.418771450136
30
0.0
11
196.174267636826
21
-931.283415117788
31
0.0
  0
LINE
 8
GROUP0
10
196.174267636826
20
-931.283415117788
30
0.0
11
196.20716507651
21
-931.09265267553
31
0.0
  0
LINE
 8
GROUP0
10
196.20716507651
20
-931.09265267553
30
0.0
11
196.29013339062
21
-930.929221213535
31
0.0
  0
LINE
 8
GROUP0
10
196.29013339062
20
-930.929221213535
30
0.0
11
196.421714872855
21
-930.793957353123
31
0.0
  0
LINE
 8
GROUP0
10
196.421714872855
20
-930.793957353123
30
0.0
11
196.600451816916
21
-930.687697715613
31
0.0
  0
LINE
 8
GROUP0
10
196.600451816916
20
-930.687697715613
30
0.0
11
196.824886516502
21
-930.611278922327
31
0.0
  0
LINE
 8
GROUP0
10
196.824886516502
20
-930.611278922327
30
0.0
11
197.093561265314
21
-930.565537594582
31
0.0
  0
LINE
 8
GROUP0
10
197.093561265314
20
-930.565537594582
30
0.0
11
197.405018357053
21
-930.551310353701
31
0.0
  0
LINE
 8
GROUP0
10
197.405018357053
20
-930.551310353701
30
0.0
11
197.405018357053
21
-930.518088587001
31
0.0
  0
LINE
 8
GROUP0
10
197.405018357053
20
-930.518088587001
30
0.0
11
197.402439461602
21
-930.444104489775
31
0.0
  0
LINE
 8
GROUP0
10
197.402439461602
20
-930.444104489775
30
0.0
11
197.389832389563
21
-930.359082705854
31
0.0
  0
LINE
 8
GROUP0
10
197.389832389563
20
-930.359082705854
30
0.0
11
197.361786514308
21
-930.271119175007
31
0.0
  0
LINE
 8
GROUP0
10
197.361786514308
20
-930.271119175007
30
0.0
11
197.312944623386
21
-930.187737817102
31
0.0
  0
LINE
 8
GROUP0
10
197.312944623386
20
-930.187737817102
30
0.0
11
197.237949504346
21
-930.116462552012
31
0.0
  0
LINE
 8
GROUP0
10
197.237949504346
20
-930.116462552012
30
0.0
11
197.131443944734
21
-930.064817299606
31
0.0
  0
LINE
 8
GROUP0
10
197.131443944734
20
-930.064817299606
30
0.0
11
196.988070732099
21
-930.040325979756
31
0.0
  0
LINE
 8
GROUP0
10
196.988070732099
20
-930.040325979756
30
0.0
11
196.881121479725
21
-930.041004731538
31
0.0
  0
LINE
 8
GROUP0
10
196.881121479725
20
-930.041004731538
30
0.0
11
196.799516463834
21
-930.048690236139
31
0.0
  0
LINE
 8
GROUP0
10
196.799516463834
20
-930.048690236139
30
0.0
11
196.719082312648
21
-930.062482873805
31
0.0
  0
LINE
 8
GROUP0
10
196.719082312648
20
-930.062482873805
30
0.0
11
196.64079744771
21
-930.082175616207
31
0.0
  0
LINE
 8
GROUP0
10
196.64079744771
20
-930.082175616207
30
0.0
11
196.565640290563
21
-930.10756143502
31
0.0
  0
LINE
 8
GROUP0
10
196.565640290563
20
-930.10756143502
30
0.0
11
196.494589262752
21
-930.138433301917
31
0.0
  0
LINE
 8
GROUP0
10
196.494589262752
20
-930.138433301917
30
0.0
11
196.42862278582
21
-930.174584188572
31
0.0
  0
LINE
 8
GROUP0
10
196.42862278582
20
-930.174584188572
30
0.0
11
196.400613125433
21
-930.187105466653
31
0.0
  0
LINE
 8
GROUP0
10
196.400613125433
20
-930.187105466653
30
0.0
11
196.391670952522
21
-930.160716039875
31
0.0
  0
LINE
 8
GROUP0
10
196.391670952522
20
-930.160716039875
30
0.0
11
196.377158866824
21
-930.117889131165
31
0.0
  0
LINE
 8
GROUP0
10
196.377158866824
20
-930.117889131165
30
0.0
11
196.359861824731
21
-930.066843481487
31
0.0
  0
LINE
 8
GROUP0
10
196.359861824731
20
-930.066843481487
30
0.0
11
196.342564782639
21
-930.01579783181
31
0.0
  0
LINE
 8
GROUP0
10
196.342564782639
20
-930.01579783181
30
0.0
11
196.328052696941
21
-929.972970923099
31
0.0
  0
LINE
 8
GROUP0
10
196.328052696941
20
-929.972970923099
30
0.0
11
196.31911052403
21
-929.946581496322
31
0.0
  0
LINE
 8
GROUP0
10
196.31911052403
20
-929.946581496322
30
0.0
11
196.348901689943
21
-929.923352697313
31
0.0
  0
LINE
 8
GROUP0
10
196.348901689943
20
-929.923352697313
30
0.0
11
196.428210497191
21
-929.882877328271
31
0.0
  0
LINE
 8
GROUP0
10
196.428210497191
20
-929.882877328271
30
0.0
11
196.515261596653
21
-929.8473001441
31
0.0
  0
LINE
 8
GROUP0
10
196.515261596653
20
-929.8473001441
30
0.0
11
196.608880882479
21
-929.81724222978
31
0.0
  0
LINE
 8
GROUP0
10
196.608880882479
20
-929.81724222978
30
0.0
11
196.707894248814
21
-929.79332467029
31
0.0
  0
LINE
 8
GROUP0
10
196.707894248814
20
-929.79332467029
30
0.0
11
196.811127589807
21
-929.776168550611
31
0.0
  0
LINE
 8
GROUP0
10
196.811127589807
20
-929.776168550611
30
0.0
11
196.917406799606
21
-929.766394955721
31
0.0
  0
LINE
 8
GROUP0
10
196.917406799606
20
-929.766394955721
30
0.0
11
197.067418532341
21
-929.766300412593
31
0.0
  0
LINE
 8
GROUP0
10
197.067418532341
20
-929.766300412593
30
0.0
11
197.288469174412
21
-929.803201634648
31
0.0
  0
LINE
 8
GROUP0
10
197.288469174412
20
-929.803201634648
30
0.0
11
197.46059995473
21
-929.880865964445
31
0.0
  0
LINE
 8
GROUP0
10
197.46059995473
20
-929.880865964445
30
0.0
11
197.58910569365
21
-929.99190844633
31
0.0
  0
LINE
 8
GROUP0
10
197.58910569365
20
-929.99190844633
30
0.0
11
197.679281211525
21
-930.128944124653
31
0.0
  0
LINE
 8
GROUP0
10
197.679281211525
20
-930.128944124653
30
0.0
11
197.736421328709
21
-930.284588043763
31
0.0
  0
LINE
 8
GROUP0
10
197.736421328709
20
-930.284588043763
30
0.0
11
197.765820865555
21
-930.451455248008
31
0.0
  0
LINE
 8
GROUP0
10
197.765820865555
20
-930.451455248008
30
0.0
11
197.772954797603
21
-930.598725934188
31
0.0
  0
LINE
 8
GROUP0
10
197.772954797603
20
-930.598725934188
30
0.0
11
197.772954797603
21
-930.650362283083
31
0.0
  0
LINE
 8
GROUP0
10
197.772954797603
20
-930.650362283083
30
0.0
11
197.772954797603
21
-930.763241743458
31
0.0
  0
LINE
 8
GROUP0
10
197.772954797603
20
-930.763241743458
30
0.0
11
197.772954797603
21
-930.912146563527
31
0.0
  0
LINE
 8
GROUP0
10
197.772954797603
20
-930.912146563527
30
0.0
11
197.772954797603
21
-931.071858991505
31
0.0
  0
LINE
 8
GROUP0
10
197.772954797603
20
-931.071858991505
30
0.0
11
197.772954797603
21
-931.217161275605
31
0.0
  0
LINE
 8
GROUP0
10
197.772954797603
20
-931.217161275605
30
0.0
11
197.772954797603
21
-931.322835664041
31
0.0
  0
LINE
 8
GROUP0
10
197.772954797603
20
-931.322835664041
30
0.0
11
197.772954797603
21
-931.363664405028
31
0.0
  0
LINE
 8
GROUP0
10
197.413286591672
20
-930.809348175772
30
0.0
11
197.263169597251
21
-930.810287391168
31
0.0
  0
LINE
 8
GROUP0
10
197.263169597251
20
-930.810287391168
30
0.0
11
197.113765280842
21
-930.821064262388
31
0.0
  0
LINE
 8
GROUP0
10
197.113765280842
20
-930.821064262388
30
0.0
11
196.97068959017
21
-930.844353675079
31
0.0
  0
LINE
 8
GROUP0
10
196.97068959017
20
-930.844353675079
30
0.0
11
196.839558472958
21
-930.882830514891
31
0.0
  0
LINE
 8
GROUP0
10
196.839558472958
20
-930.882830514891
30
0.0
11
196.725987876932
21
-930.939169667471
31
0.0
  0
LINE
 8
GROUP0
10
196.725987876932
20
-930.939169667471
30
0.0
11
196.635593749815
21
-931.016046018467
31
0.0
  0
LINE
 8
GROUP0
10
196.635593749815
20
-931.016046018467
30
0.0
11
196.573992039332
21
-931.11613445353
31
0.0
  0
LINE
 8
GROUP0
10
196.573992039332
20
-931.11613445353
30
0.0
11
196.546798693207
21
-931.242109858305
31
0.0
  0
LINE
 8
GROUP0
10
196.546798693207
20
-931.242109858305
30
0.0
11
196.55044691732
21
-931.33859686382
31
0.0
  0
LINE
 8
GROUP0
10
196.55044691732
20
-931.33859686382
30
0.0
11
196.567787061919
21
-931.412877607256
31
0.0
  0
LINE
 8
GROUP0
10
196.567787061919
20
-931.412877607256
30
0.0
11
196.596822848784
21
-931.475576302027
31
0.0
  0
LINE
 8
GROUP0
10
196.596822848784
20
-931.475576302027
30
0.0
11
196.636084684119
21
-931.526970371452
31
0.0
  0
LINE
 8
GROUP0
10
196.636084684119
20
-931.526970371452
30
0.0
11
196.684102974126
21
-931.567337238851
31
0.0
  0
LINE
 8
GROUP0
10
196.684102974126
20
-931.567337238851
30
0.0
11
196.739408125009
21
-931.596954327541
31
0.0
  0
LINE
 8
GROUP0
10
196.739408125009
20
-931.596954327541
30
0.0
11
196.800530542971
21
-931.616099060842
31
0.0
  0
LINE
 8
GROUP0
10
196.800530542971
20
-931.616099060842
30
0.0
11
196.866000634214
21
-931.625048862073
31
0.0
  0
LINE
 8
GROUP0
10
196.866000634214
20
-931.625048862073
30
0.0
11
196.950944920194
21
-931.623183990033
31
0.0
  0
LINE
 8
GROUP0
10
196.950944920194
20
-931.623183990033
30
0.0
11
197.040326289742
21
-931.607740546177
31
0.0
  0
LINE
 8
GROUP0
10
197.040326289742
20
-931.607740546177
30
0.0
11
197.120719893553
21
-931.58007323106
31
0.0
  0
LINE
 8
GROUP0
10
197.120719893553
20
-931.58007323106
30
0.0
11
197.191945781365
21
-931.541975923844
31
0.0
  0
LINE
 8
GROUP0
10
197.191945781365
20
-931.541975923844
30
0.0
11
197.253824002919
21
-931.495242503692
31
0.0
  0
LINE
 8
GROUP0
10
197.253824002919
20
-931.495242503692
30
0.0
11
197.306174607953
21
-931.441666849767
31
0.0
  0
LINE
 8
GROUP0
10
197.306174607953
20
-931.441666849767
30
0.0
11
197.348817646207
21
-931.383042841233
31
0.0
  0
LINE
 8
GROUP0
10
197.348817646207
20
-931.383042841233
30
0.0
11
197.381573167419
21
-931.321164357251
31
0.0
  0
LINE
 8
GROUP0
10
197.381573167419
20
-931.321164357251
30
0.0
11
197.398210043904
21
-931.277045194506
31
0.0
  0
LINE
 8
GROUP0
10
197.398210043904
20
-931.277045194506
30
0.0
11
197.405496879787
21
-931.246341556143
31
0.0
  0
LINE
 8
GROUP0
10
197.405496879787
20
-931.246341556143
30
0.0
11
197.410177436058
21
-931.216494181105
31
0.0
  0
LINE
 8
GROUP0
10
197.410177436058
20
-931.216494181105
30
0.0
11
197.41264160495
21
-931.188267858
31
0.0
  0
LINE
 8
GROUP0
10
197.41264160495
20
-931.188267858
30
0.0
11
197.413286591672
21
-931.144268602112
31
0.0
  0
LINE
 8
GROUP0
10
197.413286591672
20
-931.144268602112
30
0.0
11
197.413286591672
21
-931.101839329772
31
0.0
  0
LINE
 8
GROUP0
10
197.413286591672
20
-931.101839329772
30
0.0
11
197.413286591672
21
-931.044708121121
31
0.0
  0
LINE
 8
GROUP0
10
197.413286591672
20
-931.044708121121
30
0.0
11
197.413286591672
21
-930.980612837374
31
0.0
  0
LINE
 8
GROUP0
10
197.413286591672
20
-930.980612837374
30
0.0
11
197.413286591672
21
-930.917291339748
31
0.0
  0
LINE
 8
GROUP0
10
197.413286591672
20
-930.917291339748
30
0.0
11
197.413286591672
21
-930.862481489462
31
0.0
  0
LINE
 8
GROUP0
10
197.413286591672
20
-930.862481489462
30
0.0
11
197.413286591672
21
-930.809348175772
31
0.0
  0
LINE
 8
GROUP0
10
198.374813375919
20
-930.47517369325
30
0.0
11
198.374448754738
21
-930.3800707609
31
0.0
  0
LINE
 8
GROUP0
10
198.374448754738
20
-930.3800707609
30
0.0
11
198.373414900406
21
-930.289238592739
31
0.0
  0
LINE
 8
GROUP0
10
198.373414900406
20
-930.289238592739
30
0.0
11
198.371801826739
21
-930.202297565283
31
0.0
  0
LINE
 8
GROUP0
10
198.371801826739
20
-930.202297565283
30
0.0
11
198.369699547552
21
-930.118868055048
31
0.0
  0
LINE
 8
GROUP0
10
198.369699547552
20
-930.118868055048
30
0.0
11
198.36719807666
21
-930.038570438552
31
0.0
  0
LINE
 8
GROUP0
10
198.36719807666
20
-930.038570438552
30
0.0
11
198.36438742788
21
-929.96102509231
31
0.0
  0
LINE
 8
GROUP0
10
198.36438742788
20
-929.96102509231
30
0.0
11
198.361357615027
21
-929.88585239284
31
0.0
  0
LINE
 8
GROUP0
10
198.361357615027
20
-929.88585239284
30
0.0
11
198.358198651916
21
-929.812672716658
31
0.0
  0
LINE
 8
GROUP0
10
198.358198651916
20
-929.812672716658
30
0.0
11
198.404800093806
21
-929.806652473317
31
0.0
  0
LINE
 8
GROUP0
10
198.404800093806
20
-929.806652473317
30
0.0
11
198.455831839391
21
-929.806652473317
31
0.0
  0
LINE
 8
GROUP0
10
198.455831839391
20
-929.806652473317
30
0.0
11
198.515299444961
21
-929.806652473317
31
0.0
  0
LINE
 8
GROUP0
10
198.515299444961
20
-929.806652473317
30
0.0
11
198.575704368308
21
-929.806652473317
31
0.0
  0
LINE
 8
GROUP0
10
198.575704368308
20
-929.806652473317
30
0.0
11
198.629548067221
21
-929.806652473317
31
0.0
  0
LINE
 8
GROUP0
10
198.629548067221
20
-929.806652473317
30
0.0
11
198.669331999494
21
-929.806652473317
31
0.0
  0
LINE
 8
GROUP0
10
198.669331999494
20
-929.806652473317
30
0.0
11
198.690748022767
21
-929.852658623431
31
0.0
  0
LINE
 8
GROUP0
10
198.690748022767
20
-929.852658623431
30
0.0
11
198.693957210978
21
-929.905858093032
31
0.0
  0
LINE
 8
GROUP0
10
198.693957210978
20
-929.905858093032
30
0.0
11
198.697748064551
21
-929.968699966497
31
0.0
  0
LINE
 8
GROUP0
10
198.697748064551
20
-929.968699966497
30
0.0
11
198.701639205256
21
-930.033204323387
31
0.0
  0
LINE
 8
GROUP0
10
198.701639205256
20
-930.033204323387
30
0.0
11
198.705149254861
21
-930.091391243263
31
0.0
  0
LINE
 8
GROUP0
10
198.705149254861
20
-930.091391243263
30
0.0
11
198.707796835135
21
-930.135280805683
31
0.0
  0
LINE
 8
GROUP0
10
198.707796835135
20
-930.135280805683
30
0.0
11
198.756231538095
21
-930.098264533066
31
0.0
  0
LINE
 8
GROUP0
10
198.756231538095
20
-930.098264533066
30
0.0
11
198.8215526236
21
-930.017226619522
31
0.0
  0
LINE
 8
GROUP0
10
198.8215526236
20
-930.017226619522
30
0.0
11
198.89564157657
21
-929.94663405917
31
0.0
  0
LINE
 8
GROUP0
10
198.89564157657
20
-929.94663405917
30
0.0
11
198.978406426366
21
-929.886917352867
31
0.0
  0
LINE
 8
GROUP0
10
198.978406426366
20
-929.886917352867
30
0.0
11
199.069755202351
21
-929.838507001471
31
0.0
  0
LINE
 8
GROUP0
10
199.069755202351
20
-929.838507001471
30
0.0
11
199.169595933886
21
-929.801833505839
31
0.0
  0
LINE
 8
GROUP0
10
199.169595933886
20
-929.801833505839
30
0.0
11
199.277836650335
21
-929.777327366828
31
0.0
  0
LINE
 8
GROUP0
10
199.277836650335
20
-929.777327366828
30
0.0
11
199.394385381059
21
-929.765419085296
31
0.0
  0
LINE
 8
GROUP0
10
199.394385381059
20
-929.765419085296
30
0.0
11
199.551377540847
21
-929.770740027465
31
0.0
  0
LINE
 8
GROUP0
10
199.551377540847
20
-929.770740027465
30
0.0
11
199.722280021595
21
-929.810842554832
31
0.0
  0
LINE
 8
GROUP0
10
199.722280021595
20
-929.810842554832
30
0.0
11
199.8771225374
21
-929.885453965708
31
0.0
  0
LINE
 8
GROUP0
10
199.8771225374
20
-929.885453965708
30
0.0
11
200.013114659977
21
-929.992073441475
31
0.0
  0
LINE
 8
GROUP0
10
200.013114659977
20
-929.992073441475
30
0.0
11
200.12746596104
21
-930.128200163515
31
0.0
  0
LINE
 8
GROUP0
10
200.12746596104
20
-930.128200163515
30
0.0
11
200.217386012304
21
-930.29133331321
31
0.0
  0
LINE
 8
GROUP0
10
200.217386012304
20
-930.29133331321
30
0.0
11
200.280084385483
21
-930.478972071944
31
0.0
  0
LINE
 8
GROUP0
10
200.280084385483
20
-930.478972071944
30
0.0
11
200.312770652293
21
-930.688615621098
31
0.0
  0
LINE
 8
GROUP0
10
200.312770652293
20
-930.688615621098
30
0.0
11
200.311889368933
21
-930.933252666184
31
0.0
  0
LINE
 8
GROUP0
10
200.311889368933
20
-930.933252666184
30
0.0
11
200.272910125384
21
-931.172343234977
31
0.0
  0
LINE
 8
GROUP0
10
200.272910125384
20
-931.172343234977
30
0.0
11
200.199561095763
21
-931.377382816627
31
0.0
  0
LINE
 8
GROUP0
10
200.199561095763
20
-931.377382816627
30
0.0
11
200.096652148741
21
-931.54846925224
31
0.0
  0
LINE
 8
GROUP0
10
200.096652148741
20
-931.54846925224
30
0.0
11
199.96899315299
21
-931.685700382919
31
0.0
  0
LINE
 8
GROUP0
10
199.96899315299
20
-931.685700382919
30
0.0
11
199.82139397718
21
-931.789174049768
31
0.0
  0
LINE
 8
GROUP0
10
199.82139397718
20
-931.789174049768
30
0.0
11
199.658664489984
21
-931.858988093892
31
0.0
  0
LINE
 8
GROUP0
10
199.658664489984
20
-931.858988093892
30
0.0
11
199.485614560072
21
-931.895240356394
31
0.0
  0
LINE
 8
GROUP0
10
199.485614560072
20
-931.895240356394
30
0.0
11
199.340222993437
21
-931.899988685388
31
0.0
  0
LINE
 8
GROUP0
10
199.340222993437
20
-931.899988685388
30
0.0
11
199.243002195269
21
-931.890202835594
31
0.0
  0
LINE
 8
GROUP0
10
199.243002195269
20
-931.890202835594
30
0.0
11
199.150186529738
21
-931.870088063521
31
0.0
  0
LINE
 8
GROUP0
10
199.150186529738
20
-931.870088063521
30
0.0
11
199.062685919112
21
-931.840023992654
31
0.0
  0
LINE
 8
GROUP0
10
199.062685919112
20
-931.840023992654
30
0.0
11
198.981410285659
21
-931.800390246476
31
0.0
  0
LINE
 8
GROUP0
10
198.981410285659
20
-931.800390246476
30
0.0
11
198.907269551643
21
-931.75156644847
31
0.0
  0
LINE
 8
GROUP0
10
198.907269551643
20
-931.75156644847
30
0.0
11
198.841173639334
21
-931.69393222212
31
0.0
  0
LINE
 8
GROUP0
10
198.841173639334
20
-931.69393222212
30
0.0
11
198.784032470997
21
-931.627867190909
31
0.0
  0
LINE
 8
GROUP0
10
198.784032470997
20
-931.627867190909
30
0.0
11
198.751321540076
21
-931.579327524677
31
0.0
  0
LINE
 8
GROUP0
10
198.751321540076
20
-931.579327524677
30
0.0
11
198.743094326245
21
-931.65092733881
31
0.0
  0
LINE
 8
GROUP0
10
198.743094326245
20
-931.65092733881
30
0.0
11
198.743094326245
21
-931.789979115777
31
0.0
  0
LINE
 8
GROUP0
10
198.743094326245
20
-931.789979115777
30
0.0
11
198.743094326245
21
-931.974328062513
31
0.0
  0
LINE
 8
GROUP0
10
198.743094326245
20
-931.974328062513
30
0.0
11
198.743094326245
21
-932.178692037751
31
0.0
  0
LINE
 8
GROUP0
10
198.743094326245
20
-932.178692037751
30
0.0
11
198.743094326245
21
-932.377788900226
31
0.0
  0
LINE
 8
GROUP0
10
198.743094326245
20
-932.377788900226
30
0.0
11
198.743094326245
21
-932.54633650867
31
0.0
  0
LINE
 8
GROUP0
10
198.743094326245
20
-932.54633650867
30
0.0
11
198.743094326245
21
-932.659052721817
31
0.0
  0
LINE
 8
GROUP0
10
198.743094326245
20
-932.659052721817
30
0.0
11
198.742631086365
21
-932.692094100498
31
0.0
  0
LINE
 8
GROUP0
10
198.742631086365
20
-932.692094100498
30
0.0
11
198.677900172963
21
-932.692094100498
31
0.0
  0
LINE
 8
GROUP0
10
198.677900172963
20
-932.692094100498
30
0.0
11
198.617817799123
21
-932.692094100498
31
0.0
  0
LINE
 8
GROUP0
10
198.617817799123
20
-932.692094100498
30
0.0
11
198.550413975473
21
-932.692094100498
31
0.0
  0
LINE
 8
GROUP0
10
198.550413975473
20
-932.692094100498
30
0.0
11
198.484056073224
21
-932.692094100498
31
0.0
  0
LINE
 8
GROUP0
10
198.484056073224
20
-932.692094100498
30
0.0
11
198.427111463588
21
-932.692094100498
31
0.0
  0
LINE
 8
GROUP0
10
198.427111463588
20
-932.692094100498
30
0.0
11
198.387947517777
21
-932.692094100498
31
0.0
  0
LINE
 8
GROUP0
10
198.387947517777
20
-932.692094100498
30
0.0
11
198.374813375919
21
-932.583309486032
31
0.0
  0
LINE
 8
GROUP0
10
198.374813375919
20
-932.583309486032
30
0.0
11
198.374813375919
21
-932.326219755205
31
0.0
  0
LINE
 8
GROUP0
10
198.374813375919
20
-932.326219755205
30
0.0
11
198.374813375919
21
-931.970491515408
31
0.0
  0
LINE
 8
GROUP0
10
198.374813375919
20
-931.970491515408
30
0.0
11
198.374813375919
21
-931.566493366965
31
0.0
  0
LINE
 8
GROUP0
10
198.374813375919
20
-931.566493366965
30
0.0
11
198.374813375919
21
-931.164593910203
31
0.0
  0
LINE
 8
GROUP0
10
198.374813375919
20
-931.164593910203
30
0.0
11
198.374813375919
21
-930.815161745446
31
0.0
  0
LINE
 8
GROUP0
10
198.374813375919
20
-930.815161745446
30
0.0
11
198.374813375919
21
-930.56856547302
31
0.0
  0
LINE
 8
GROUP0
10
198.374813375919
20
-930.56856547302
30
0.0
11
198.374813375919
21
-930.47517369325
31
0.0
  0
LINE
 8
GROUP0
10
198.743094326245
20
-931.020877178111
30
0.0
11
198.743908873385
21
-931.060687635672
31
0.0
  0
LINE
 8
GROUP0
10
198.743908873385
20
-931.060687635672
30
0.0
11
198.746617953622
21
-931.098907648012
31
0.0
  0
LINE
 8
GROUP0
10
198.746617953622
20
-931.098907648012
30
0.0
11
198.751619725182
21
-931.135567842687
31
0.0
  0
LINE
 8
GROUP0
10
198.751619725182
20
-931.135567842687
30
0.0
11
198.75931234629
21
-931.170698847252
31
0.0
  0
LINE
 8
GROUP0
10
198.75931234629
20
-931.170698847252
30
0.0
11
198.786419381412
21
-931.251897678648
31
0.0
  0
LINE
 8
GROUP0
10
198.786419381412
20
-931.251897678648
30
0.0
11
198.829350047268
21
-931.336090199225
31
0.0
  0
LINE
 8
GROUP0
10
198.829350047268
20
-931.336090199225
30
0.0
11
198.884084080916
21
-931.410986436224
31
0.0
  0
LINE
 8
GROUP0
10
198.884084080916
20
-931.410986436224
30
0.0
11
198.949356181456
21
-931.475508682522
31
0.0
  0
LINE
 8
GROUP0
10
198.949356181456
20
-931.475508682522
30
0.0
11
199.023901047988
21
-931.528579231
31
0.0
  0
LINE
 8
GROUP0
10
199.023901047988
20
-931.528579231
30
0.0
11
199.106453379609
21
-931.569120374537
31
0.0
  0
LINE
 8
GROUP0
10
199.106453379609
20
-931.569120374537
30
0.0
11
199.19574787542
21
-931.59605440601
31
0.0
  0
LINE
 8
GROUP0
10
199.19574787542
20
-931.59605440601
30
0.0
11
199.29051923452
21
-931.608303618299
31
0.0
  0
LINE
 8
GROUP0
10
199.29051923452
20
-931.608303618299
30
0.0
11
199.418107789028
21
-931.601652370364
31
0.0
  0
LINE
 8
GROUP0
10
199.418107789028
20
-931.601652370364
30
0.0
11
199.54437464098
21
-931.56783238015
31
0.0
  0
LINE
 8
GROUP0
10
199.54437464098
20
-931.56783238015
30
0.0
11
199.654501317925
21
-931.508224534839
31
0.0
  0
LINE
 8
GROUP0
10
199.654501317925
20
-931.508224534839
30
0.0
11
199.747783386078
21
-931.424752627782
31
0.0
  0
LINE
 8
GROUP0
10
199.747783386078
20
-931.424752627782
30
0.0
11
199.823516411656
21
-931.31934045233
31
0.0
  0
LINE
 8
GROUP0
10
199.823516411656
20
-931.31934045233
30
0.0
11
199.880995960873
21
-931.193911801836
31
0.0
  0
LINE
 8
GROUP0
10
199.880995960873
20
-931.193911801836
30
0.0
11
199.919517599946
21
-931.05039046965
31
0.0
  0
LINE
 8
GROUP0
10
199.919517599946
20
-931.05039046965
30
0.0
11
199.93837689509
21
-930.890700249123
31
0.0
  0
LINE
 8
GROUP0
10
199.93837689509
20
-930.890700249123
30
0.0
11
199.937092734729
21
-930.733191910821
31
0.0
  0
LINE
 8
GROUP0
10
199.937092734729
20
-930.733191910821
30
0.0
11
199.916442834431
21
-930.590902230894
31
0.0
  0
LINE
 8
GROUP0
10
199.916442834431
20
-930.590902230894
30
0.0
11
199.876939485831
21
-930.45875874922
31
0.0
  0
LINE
 8
GROUP0
10
199.876939485831
20
-930.45875874922
30
0.0
11
199.819003817822
21
-930.340053928052
31
0.0
  0
LINE
 8
GROUP0
10
199.819003817822
20
-930.340053928052
30
0.0
11
199.743056959296
21
-930.238080229642
31
0.0
  0
LINE
 8
GROUP0
10
199.743056959296
20
-930.238080229642
30
0.0
11
199.649520039147
21
-930.156130116244
31
0.0
  0
LINE
 8
GROUP0
10
199.649520039147
20
-930.156130116244
30
0.0
11
199.538814186266
21
-930.097496050111
31
0.0
  0
LINE
 8
GROUP0
10
199.538814186266
20
-930.097496050111
30
0.0
11
199.411360529547
21
-930.065470493494
31
0.0
  0
LINE
 8
GROUP0
10
199.411360529547
20
-930.065470493494
30
0.0
11
199.291211815566
21
-930.061850086278
31
0.0
  0
LINE
 8
GROUP0
10
199.291211815566
20
-930.061850086278
30
0.0
11
199.199583798202
21
-930.076386188625
31
0.0
  0
LINE
 8
GROUP0
10
199.199583798202
20
-930.076386188625
30
0.0
11
199.111660621254
21
-930.105796891617
31
0.0
  0
LINE
 8
GROUP0
10
199.111660621254
20
-930.105796891617
30
0.0
11
199.02922825407
21
-930.149234194804
31
0.0
  0
LINE
 8
GROUP0
10
199.02922825407
20
-930.149234194804
30
0.0
11
198.954072666002
21
-930.205850097732
31
0.0
  0
LINE
 8
GROUP0
10
198.954072666002
20
-930.205850097732
30
0.0
11
198.8879798264
21
-930.27479659995
31
0.0
  0
LINE
 8
GROUP0
10
198.8879798264
20
-930.27479659995
30
0.0
11
198.832735704612
21
-930.355225701004
31
0.0
  0
LINE
 8
GROUP0
10
198.832735704612
20
-930.355225701004
30
0.0
11
198.790126269989
21
-930.446289400443
31
0.0
  0
LINE
 8
GROUP0
10
198.790126269989
20
-930.446289400443
30
0.0
11
198.767075191823
21
-930.52231975459
31
0.0
  0
LINE
 8
GROUP0
10
198.767075191823
20
-930.52231975459
30
0.0
11
198.757996621725
21
-930.558271413575
31
0.0
  0
LINE
 8
GROUP0
10
198.757996621725
20
-930.558271413575
30
0.0
11
198.750240505735
21
-930.595518180636
31
0.0
  0
LINE
 8
GROUP0
10
198.750240505735
20
-930.595518180636
30
0.0
11
198.744909435862
21
-930.632574619315
31
0.0
  0
LINE
 8
GROUP0
10
198.744909435862
20
-930.632574619315
30
0.0
11
198.743094326245
21
-930.665839633902
31
0.0
  0
LINE
 8
GROUP0
10
198.743094326245
20
-930.665839633902
30
0.0
11
198.743094326245
21
-930.726391587946
31
0.0
  0
LINE
 8
GROUP0
10
198.743094326245
20
-930.726391587946
30
0.0
11
198.743094326245
21
-930.783464625376
31
0.0
  0
LINE
 8
GROUP0
10
198.743094326245
20
-930.783464625376
30
0.0
11
198.743094326245
21
-930.847871595128
31
0.0
  0
LINE
 8
GROUP0
10
198.743094326245
20
-930.847871595128
30
0.0
11
198.743094326245
21
-930.911714416239
31
0.0
  0
LINE
 8
GROUP0
10
198.743094326245
20
-930.911714416239
30
0.0
11
198.743094326245
21
-930.967095007749
31
0.0
  0
LINE
 8
GROUP0
10
198.743094326245
20
-930.967095007749
30
0.0
11
198.743094326245
21
-931.020877178111
31
0.0
  0
LINE
 8
GROUP0
10
202.636743812294
20
-930.813482293082
30
0.0
11
202.614444404003
21
-931.07028689919
31
0.0
  0
LINE
 8
GROUP0
10
202.614444404003
20
-931.07028689919
30
0.0
11
202.551584469862
21
-931.290432605145
31
0.0
  0
LINE
 8
GROUP0
10
202.551584469862
20
-931.290432605145
30
0.0
11
202.454221445969
21
-931.474964875457
31
0.0
  0
LINE
 8
GROUP0
10
202.454221445969
20
-931.474964875457
30
0.0
11
202.328412768421
21
-931.624929174637
31
0.0
  0
LINE
 8
GROUP0
10
202.328412768421
20
-931.624929174637
30
0.0
11
202.180215873318
21
-931.741370967195
31
0.0
  0
LINE
 8
GROUP0
10
202.180215873318
20
-931.741370967195
30
0.0
11
202.015688196756
21
-931.825335717642
31
0.0
  0
LINE
 8
GROUP0
10
202.015688196756
20
-931.825335717642
30
0.0
11
201.840887174835
21
-931.877868890487
31
0.0
  0
LINE
 8
GROUP0
10
201.840887174835
20
-931.877868890487
30
0.0
11
201.66187024365
21
-931.900015950242
31
0.0
  0
LINE
 8
GROUP0
10
201.66187024365
20
-931.900015950242
30
0.0
11
201.470333880706
21
-931.890980877719
31
0.0
  0
LINE
 8
GROUP0
10
201.470333880706
20
-931.890980877719
30
0.0
11
201.28612559549
21
-931.847674128577
31
0.0
  0
LINE
 8
GROUP0
10
201.28612559549
20
-931.847674128577
30
0.0
11
201.118208518691
21
-931.771646917109
31
0.0
  0
LINE
 8
GROUP0
10
201.118208518691
20
-931.771646917109
30
0.0
11
200.969930713592
21
-931.664662544374
31
0.0
  0
LINE
 8
GROUP0
10
200.969930713592
20
-931.664662544374
30
0.0
11
200.844640243476
21
-931.528484311429
31
0.0
  0
LINE
 8
GROUP0
10
200.844640243476
20
-931.528484311429
30
0.0
11
200.745685171624
21
-931.364875519333
31
0.0
  0
LINE
 8
GROUP0
10
200.745685171624
20
-931.364875519333
30
0.0
11
200.676413561319
21
-931.175599469143
31
0.0
  0
LINE
 8
GROUP0
10
200.676413561319
20
-931.175599469143
30
0.0
11
200.640173475844
21
-930.962419461918
31
0.0
  0
LINE
 8
GROUP0
10
200.640173475844
20
-930.962419461918
30
0.0
11
200.640398566685
21
-930.726655605587
31
0.0
  0
LINE
 8
GROUP0
10
200.640398566685
20
-930.726655605587
30
0.0
11
200.678322730445
21
-930.504260697622
31
0.0
  0
LINE
 8
GROUP0
10
200.678322730445
20
-930.504260697622
30
0.0
11
200.750664395754
21
-930.308458872837
31
0.0
  0
LINE
 8
GROUP0
10
200.750664395754
20
-930.308458872837
30
0.0
11
200.853764436824
21
-930.140558802475
31
0.0
  0
LINE
 8
GROUP0
10
200.853764436824
20
-930.140558802475
30
0.0
11
200.98396372787
21
-930.001869157782
31
0.0
  0
LINE
 8
GROUP0
10
200.98396372787
20
-930.001869157782
30
0.0
11
201.137603143106
21
-929.893698610002
31
0.0
  0
LINE
 8
GROUP0
10
201.137603143106
20
-929.893698610002
30
0.0
11
201.311023556745
21
-929.817355830379
31
0.0
  0
LINE
 8
GROUP0
10
201.311023556745
20
-929.817355830379
30
0.0
11
201.500565843
21
-929.774149490157
31
0.0
  0
LINE
 8
GROUP0
10
201.500565843
20
-929.774149490157
30
0.0
11
201.704032403951
21
-929.765448602758
31
0.0
  0
LINE
 8
GROUP0
10
201.704032403951
20
-929.765448602758
30
0.0
11
201.904568633025
21
-929.792900520615
31
0.0
  0
LINE
 8
GROUP0
10
201.904568633025
20
-929.792900520615
30
0.0
11
202.085544736479
21
-929.854915808088
31
0.0
  0
LINE
 8
GROUP0
10
202.085544736479
20
-929.854915808088
30
0.0
11
202.244748305261
21
-929.949005965144
31
0.0
  0
LINE
 8
GROUP0
10
202.244748305261
20
-929.949005965144
30
0.0
11
202.379966930321
21
-930.072682491754
31
0.0
  0
LINE
 8
GROUP0
10
202.379966930321
20
-930.072682491754
30
0.0
11
202.488988202606
21
-930.223456887884
31
0.0
  0
LINE
 8
GROUP0
10
202.488988202606
20
-930.223456887884
30
0.0
11
202.569599713065
21
-930.398840653503
31
0.0
  0
LINE
 8
GROUP0
10
202.569599713065
20
-930.398840653503
30
0.0
11
202.619589052644
21
-930.59634528858
31
0.0
  0
LINE
 8
GROUP0
10
202.619589052644
20
-930.59634528858
30
0.0
11
202.636743812294
21
-930.813482293082
31
0.0
  0
LINE
 8
GROUP0
10
201.016342081836
20
-930.834841899181
30
0.0
11
201.027276971861
21
-930.992637883291
31
0.0
  0
LINE
 8
GROUP0
10
201.027276971861
20
-930.992637883291
30
0.0
11
201.059055810561
21
-931.13830335005
31
0.0
  0
LINE
 8
GROUP0
10
201.059055810561
20
-931.13830335005
30
0.0
11
201.110139850876
21
-931.269395814589
31
0.0
  0
LINE
 8
GROUP0
10
201.110139850876
20
-931.269395814589
30
0.0
11
201.178990345744
21
-931.38347279204
31
0.0
  0
LINE
 8
GROUP0
10
201.178990345744
20
-931.38347279204
30
0.0
11
201.264068548105
21
-931.478091797534
31
0.0
  0
LINE
 8
GROUP0
10
201.264068548105
20
-931.478091797534
30
0.0
11
201.363835710897
21
-931.550810346203
31
0.0
  0
LINE
 8
GROUP0
10
201.363835710897
20
-931.550810346203
30
0.0
11
201.47675308706
21
-931.599185953178
31
0.0
  0
LINE
 8
GROUP0
10
201.47675308706
20
-931.599185953178
30
0.0
11
201.601281929531
21
-931.620776133592
31
0.0
  0
LINE
 8
GROUP0
10
201.601281929531
20
-931.620776133592
30
0.0
11
201.728631832248
21
-931.613572469362
31
0.0
  0
LINE
 8
GROUP0
10
201.728631832248
20
-931.613572469362
30
0.0
11
201.846514321223
21
-931.578569463207
31
0.0
  0
LINE
 8
GROUP0
10
201.846514321223
20
-931.578569463207
30
0.0
11
201.953249176735
21
-931.517979265342
31
0.0
  0
LINE
 8
GROUP0
10
201.953249176735
20
-931.517979265342
30
0.0
11
202.046935052236
21
-931.43401428482
31
0.0
  0
LINE
 8
GROUP0
10
202.046935052236
20
-931.43401428482
30
0.0
11
202.125670601179
21
-931.328886930692
31
0.0
  0
LINE
 8
GROUP0
10
202.125670601179
20
-931.328886930692
30
0.0
11
202.187554477014
21
-931.20480961201
31
0.0
  0
LINE
 8
GROUP0
10
202.187554477014
20
-931.20480961201
30
0.0
11
202.230685333194
21
-931.063994737827
31
0.0
  0
LINE
 8
GROUP0
10
202.230685333194
20
-931.063994737827
30
0.0
11
202.253161823172
21
-930.908654717193
31
0.0
  0
LINE
 8
GROUP0
10
202.253161823172
20
-930.908654717193
30
0.0
11
202.254128352505
21
-930.762289915817
31
0.0
  0
LINE
 8
GROUP0
10
202.254128352505
20
-930.762289915817
30
0.0
11
202.238297679179
21
-930.631338085121
31
0.0
  0
LINE
 8
GROUP0
10
202.238297679179
20
-930.631338085121
30
0.0
11
202.205682054735
21
-930.500960523662
31
0.0
  0
LINE
 8
GROUP0
10
202.205682054735
20
-930.500960523662
30
0.0
11
202.155285711035
21
-930.37676371894
31
0.0
  0
LINE
 8
GROUP0
10
202.155285711035
20
-930.37676371894
30
0.0
11
202.086112879948
21
-930.264354158451
31
0.0
  0
LINE
 8
GROUP0
10
202.086112879948
20
-930.264354158451
30
0.0
11
201.997167793339
21
-930.169338329692
31
0.0
  0
LINE
 8
GROUP0
10
201.997167793339
20
-930.169338329692
30
0.0
11
201.887454683073
21
-930.097322720162
31
0.0
  0
LINE
 8
GROUP0
10
201.887454683073
20
-930.097322720162
30
0.0
11
201.755977781018
21
-930.053913817357
31
0.0
  0
LINE
 8
GROUP0
10
201.755977781018
20
-930.053913817357
30
0.0
11
201.603544648495
21
-930.044610001901
31
0.0
  0
LINE
 8
GROUP0
10
201.603544648495
20
-930.044610001901
30
0.0
11
201.46110892853
21
-930.069990662219
31
0.0
  0
LINE
 8
GROUP0
10
201.46110892853
20
-930.069990662219
30
0.0
11
201.339575596498
21
-930.125471681464
31
0.0
  0
LINE
 8
GROUP0
10
201.339575596498
20
-930.125471681464
30
0.0
11
201.238355658308
21
-930.206488355435
31
0.0
  0
LINE
 8
GROUP0
10
201.238355658308
20
-930.206488355435
30
0.0
11
201.156860119871
21
-930.308475979933
31
0.0
  0
LINE
 8
GROUP0
10
201.156860119871
20
-930.308475979933
30
0.0
11
201.094499987095
21
-930.426869850756
31
0.0
  0
LINE
 8
GROUP0
10
201.094499987095
20
-930.426869850756
30
0.0
11
201.050686265891
21
-930.557105263706
31
0.0
  0
LINE
 8
GROUP0
10
201.050686265891
20
-930.557105263706
30
0.0
11
201.024829962168
21
-930.694617514581
31
0.0
  0
LINE
 8
GROUP0
10
201.024829962168
20
-930.694617514581
30
0.0
11
201.016342081836
21
-930.834841899181
31
0.0
  0
LINE
 8
GROUP0
10
203.556240403894
20
-929.315898297696
30
0.0
11
203.556240403894
21
-929.353624534192
31
0.0
  0
LINE
 8
GROUP0
10
203.556240403894
20
-929.353624534192
30
0.0
11
203.556240403894
21
-929.447514641564
31
0.0
  0
LINE
 8
GROUP0
10
203.556240403894
20
-929.447514641564
30
0.0
11
203.556240403894
21
-929.568635716633
31
0.0
  0
LINE
 8
GROUP0
10
203.556240403894
20
-929.568635716633
30
0.0
11
203.556240403894
21
-929.68805485622
31
0.0
  0
LINE
 8
GROUP0
10
203.556240403894
20
-929.68805485622
30
0.0
11
203.556240403894
21
-929.776839157148
31
0.0
  0
LINE
 8
GROUP0
10
203.556240403894
20
-929.776839157148
30
0.0
11
203.556871424535
21
-929.806652473317
31
0.0
  0
LINE
 8
GROUP0
10
203.556871424535
20
-929.806652473317
30
0.0
11
203.606648507225
21
-929.806652473317
31
0.0
  0
LINE
 8
GROUP0
10
203.606648507225
20
-929.806652473317
30
0.0
11
203.713722690557
21
-929.806652473317
31
0.0
  0
LINE
 8
GROUP0
10
203.713722690557
20
-929.806652473317
30
0.0
11
203.846672983856
21
-929.806652473317
31
0.0
  0
LINE
 8
GROUP0
10
203.846672983856
20
-929.806652473317
30
0.0
11
203.974078396448
21
-929.806652473317
31
0.0
  0
LINE
 8
GROUP0
10
203.974078396448
20
-929.806652473317
30
0.0
11
204.064517937658
21
-929.806652473317
31
0.0
  0
LINE
 8
GROUP0
10
204.064517937658
20
-929.806652473317
30
0.0
11
204.08919702705
21
-929.838892526682
31
0.0
  0
LINE
 8
GROUP0
10
204.08919702705
20
-929.838892526682
30
0.0
11
204.08919702705
21
-929.898306736015
31
0.0
  0
LINE
 8
GROUP0
10
204.08919702705
20
-929.898306736015
30
0.0
11
204.08919702705
21
-929.969513225585
31
0.0
  0
LINE
 8
GROUP0
10
204.08919702705
20
-929.969513225585
30
0.0
11
204.08919702705
21
-930.035806265057
31
0.0
  0
LINE
 8
GROUP0
10
204.08919702705
20
-930.035806265057
30
0.0
11
204.08919702705
21
-930.080480124093
31
0.0
  0
LINE
 8
GROUP0
10
204.08919702705
20
-930.080480124093
30
0.0
11
204.017585777423
21
-930.09001176391
31
0.0
  0
LINE
 8
GROUP0
10
204.017585777423
20
-930.09001176391
30
0.0
11
203.901596295699
21
-930.09001176391
31
0.0
  0
LINE
 8
GROUP0
10
203.901596295699
20
-930.09001176391
30
0.0
11
203.767123878284
21
-930.09001176391
31
0.0
  0
LINE
 8
GROUP0
10
203.767123878284
20
-930.09001176391
30
0.0
11
203.645589515853
21
-930.09001176391
31
0.0
  0
LINE
 8
GROUP0
10
203.645589515853
20
-930.09001176391
30
0.0
11
203.56841419908
21
-930.09001176391
31
0.0
  0
LINE
 8
GROUP0
10
203.56841419908
20
-930.09001176391
30
0.0
11
203.556240403894
21
-930.262562714896
31
0.0
  0
LINE
 8
GROUP0
10
203.556240403894
20
-930.262562714896
30
0.0
11
203.556240403894
21
-930.510786506622
31
0.0
  0
LINE
 8
GROUP0
10
203.556240403894
20
-930.510786506622
30
0.0
11
203.556240403894
21
-930.789648721286
31
0.0
  0
LINE
 8
GROUP0
10
203.556240403894
20
-930.789648721286
30
0.0
11
203.556240403894
21
-931.034042710143
31
0.0
  0
LINE
 8
GROUP0
10
203.556240403894
20
-931.034042710143
30
0.0
11
203.556240403894
21
-931.178861824451
31
0.0
  0
LINE
 8
GROUP0
10
203.556240403894
20
-931.178861824451
30
0.0
11
203.55845904685
21
-931.267173073494
31
0.0
  0
LINE
 8
GROUP0
10
203.55845904685
20
-931.267173073494
30
0.0
11
203.573204170329
21
-931.375262814456
31
0.0
  0
LINE
 8
GROUP0
10
203.573204170329
20
-931.375262814456
30
0.0
11
203.603388578648
21
-931.462685598626
31
0.0
  0
LINE
 8
GROUP0
10
203.603388578648
20
-931.462685598626
30
0.0
11
203.650891031754
21
-931.528446191004
31
0.0
  0
LINE
 8
GROUP0
10
203.650891031754
20
-931.528446191004
30
0.0
11
203.717590289592
21
-931.571549356591
31
0.0
  0
LINE
 8
GROUP0
10
203.717590289592
20
-931.571549356591
30
0.0
11
203.805365112109
21
-931.59099986039
31
0.0
  0
LINE
 8
GROUP0
10
203.805365112109
20
-931.59099986039
30
0.0
11
203.870233139947
21
-931.591709757234
31
0.0
  0
LINE
 8
GROUP0
10
203.870233139947
20
-931.591709757234
30
0.0
11
203.914014920375
21
-931.589944850878
31
0.0
  0
LINE
 8
GROUP0
10
203.914014920375
20
-931.589944850878
30
0.0
11
203.952393100453
21
-931.586716363642
31
0.0
  0
LINE
 8
GROUP0
10
203.952393100453
20
-931.586716363642
30
0.0
11
203.986489858421
21
-931.582024295525
31
0.0
  0
LINE
 8
GROUP0
10
203.986489858421
20
-931.582024295525
30
0.0
11
204.017427372517
21
-931.575868646528
31
0.0
  0
LINE
 8
GROUP0
10
204.017427372517
20
-931.575868646528
30
0.0
11
204.04632782098
21
-931.56824941665
31
0.0
  0
LINE
 8
GROUP0
10
204.04632782098
20
-931.56824941665
30
0.0
11
204.055161935471
21
-931.631562288086
31
0.0
  0
LINE
 8
GROUP0
10
204.055161935471
20
-931.631562288086
30
0.0
11
204.059235281945
21
-931.699936318187
31
0.0
  0
LINE
 8
GROUP0
10
204.059235281945
20
-931.699936318187
30
0.0
11
204.06342571489
21
-931.770275728328
31
0.0
  0
LINE
 8
GROUP0
10
204.06342571489
20
-931.770275728328
30
0.0
11
204.066737999306
21
-931.825874788172
31
0.0
  0
LINE
 8
GROUP0
10
204.066737999306
20
-931.825874788172
30
0.0
11
204.030431067638
21
-931.862232955334
31
0.0
  0
LINE
 8
GROUP0
10
204.030431067638
20
-931.862232955334
30
0.0
11
203.983563767052
21
-931.874390931665
31
0.0
  0
LINE
 8
GROUP0
10
203.983563767052
20
-931.874390931665
30
0.0
11
203.930098106215
21
-931.885079950696
31
0.0
  0
LINE
 8
GROUP0
10
203.930098106215
20
-931.885079950696
30
0.0
11
203.870404759387
21
-931.893558663907
31
0.0
  0
LINE
 8
GROUP0
10
203.870404759387
20
-931.893558663907
30
0.0
11
203.804854400827
21
-931.899085722779
31
0.0
  0
LINE
 8
GROUP0
10
203.804854400827
20
-931.899085722779
30
0.0
11
203.732947890991
21
-931.900909696025
31
0.0
  0
LINE
 8
GROUP0
10
203.732947890991
20
-931.900909696025
30
0.0
11
203.647853919353
21
-931.895305042182
31
0.0
  0
LINE
 8
GROUP0
10
203.647853919353
20
-931.895305042182
30
0.0
11
203.569146536774
21
-931.880100492524
31
0.0
  0
LINE
 8
GROUP0
10
203.569146536774
20
-931.880100492524
30
0.0
11
203.497328438482
21
-931.855905374599
31
0.0
  0
LINE
 8
GROUP0
10
203.497328438482
20
-931.855905374599
30
0.0
11
203.432902319707
21
-931.823329015958
31
0.0
  0
LINE
 8
GROUP0
10
203.432902319707
20
-931.823329015958
30
0.0
11
203.376370875677
21
-931.782980744152
31
0.0
  0
LINE
 8
GROUP0
10
203.376370875677
20
-931.782980744152
30
0.0
11
203.327126955455
21
-931.733886706354
31
0.0
  0
LINE
 8
GROUP0
10
203.327126955455
20
-931.733886706354
30
0.0
11
203.282198035678
21
-931.66776869628
31
0.0
  0
LINE
 8
GROUP0
10
203.282198035678
20
-931.66776869628
30
0.0
11
203.24695264491
21
-931.59020488634
31
0.0
  0
LINE
 8
GROUP0
10
203.24695264491
20
-931.59020488634
30
0.0
11
203.220888087923
21
-931.501444085285
31
0.0
  0
LINE
 8
GROUP0
10
203.220888087923
20
-931.501444085285
30
0.0
11
203.203501669488
21
-931.401735101863
31
0.0
  0
LINE
 8
GROUP0
10
203.203501669488
20
-931.401735101863
30
0.0
11
203.194290694375
21
-931.291326744825
31
0.0
  0
LINE
 8
GROUP0
10
203.194290694375
20
-931.291326744825
30
0.0
11
203.192438080653
21
-931.198985933056
31
0.0
  0
LINE
 8
GROUP0
10
203.192438080653
20
-931.198985933056
30
0.0
11
203.192438080653
21
-931.068674905377
31
0.0
  0
LINE
 8
GROUP0
10
203.192438080653
20
-931.068674905377
30
0.0
11
203.192438080653
21
-930.829891626155
31
0.0
  0
LINE
 8
GROUP0
10
203.192438080653
20
-930.829891626155
30
0.0
11
203.192438080653
21
-930.548494248111
31
0.0
  0
LINE
 8
GROUP0
10
203.192438080653
20
-930.548494248111
30
0.0
11
203.192438080653
21
-930.29034092397
31
0.0
  0
LINE
 8
GROUP0
10
203.192438080653
20
-930.29034092397
30
0.0
11
203.192438080653
21
-930.121289806454
31
0.0
  0
LINE
 8
GROUP0
10
203.192438080653
20
-930.121289806454
30
0.0
11
203.187989115515
21
-930.09001176391
31
0.0
  0
LINE
 8
GROUP0
10
203.187989115515
20
-930.09001176391
30
0.0
11
203.14635729089
21
-930.09001176391
31
0.0
  0
LINE
 8
GROUP0
10
203.14635729089
20
-930.09001176391
30
0.0
11
203.076100213763
21
-930.09001176391
31
0.0
  0
LINE
 8
GROUP0
10
203.076100213763
20
-930.09001176391
30
0.0
11
202.995934395384
21
-930.09001176391
31
0.0
  0
LINE
 8
GROUP0
10
202.995934395384
20
-930.09001176391
30
0.0
11
202.924576347006
21
-930.09001176391
31
0.0
  0
LINE
 8
GROUP0
10
202.924576347006
20
-930.09001176391
30
0.0
11
202.880742579881
21
-930.09001176391
31
0.0
  0
LINE
 8
GROUP0
10
202.880742579881
20
-930.09001176391
30
0.0
11
202.874972322257
21
-930.042507145561
31
0.0
  0
LINE
 8
GROUP0
10
202.874972322257
20
-930.042507145561
30
0.0
11
202.874972322257
21
-929.977890459652
31
0.0
  0
LINE
 8
GROUP0
10
202.874972322257
20
-929.977890459652
30
0.0
11
202.874972322257
21
-929.906394943606
31
0.0
  0
LINE
 8
GROUP0
10
202.874972322257
20
-929.906394943606
30
0.0
11
202.874972322257
21
-929.844726327757
31
0.0
  0
LINE
 8
GROUP0
10
202.874972322257
20
-929.844726327757
30
0.0
11
202.874972322257
21
-929.809590342442
31
0.0
  0
LINE
 8
GROUP0
10
202.874972322257
20
-929.809590342442
30
0.0
11
202.935702251975
21
-929.806652473317
31
0.0
  0
LINE
 8
GROUP0
10
202.935702251975
20
-929.806652473317
30
0.0
11
203.009974636015
21
-929.806652473317
31
0.0
  0
LINE
 8
GROUP0
10
203.009974636015
20
-929.806652473317
30
0.0
11
203.089751876305
21
-929.806652473317
31
0.0
  0
LINE
 8
GROUP0
10
203.089751876305
20
-929.806652473317
30
0.0
11
203.156317461594
21
-929.806652473317
31
0.0
  0
LINE
 8
GROUP0
10
203.156317461594
20
-929.806652473317
30
0.0
11
203.19095488063
21
-929.806652473317
31
0.0
  0
LINE
 8
GROUP0
10
203.19095488063
20
-929.806652473317
30
0.0
11
203.192438080653
21
-929.724387672975
31
0.0
  0
LINE
 8
GROUP0
10
203.192438080653
20
-929.724387672975
30
0.0
11
203.192438080653
21
-929.633342628617
31
0.0
  0
LINE
 8
GROUP0
10
203.192438080653
20
-929.633342628617
30
0.0
11
203.192438080653
21
-929.538335163043
31
0.0
  0
LINE
 8
GROUP0
10
203.192438080653
20
-929.538335163043
30
0.0
11
203.192438080653
21
-929.46181899648
31
0.0
  0
LINE
 8
GROUP0
10
203.192438080653
20
-929.46181899648
30
0.0
11
203.192438080653
21
-929.426247849154
31
0.0
  0
LINE
 8
GROUP0
10
203.192438080653
20
-929.426247849154
30
0.0
11
203.280356005296
21
-929.399238376438
31
0.0
  0
LINE
 8
GROUP0
10
203.280356005296
20
-929.399238376438
30
0.0
11
203.368882935029
21
-929.372495866415
31
0.0
  0
LINE
 8
GROUP0
10
203.368882935029
20
-929.372495866415
30
0.0
11
203.458671531219
21
-929.345372227983
31
0.0
  0
LINE
 8
GROUP0
10
203.458671531219
20
-929.345372227983
30
0.0
11
203.528273464097
21
-929.324346644093
31
0.0
  0
LINE
 8
GROUP0
10
203.528273464097
20
-929.324346644093
30
0.0
11
203.556240403894
21
-929.315898297696
31
0.0
  0
LINE
 8
GROUP0
10
205.406257899919
20
-928.850465590595
30
0.0
11
205.486699554528
21
-928.850465590595
31
0.0
  0
LINE
 8
GROUP0
10
205.486699554528
20
-928.850465590595
30
0.0
11
205.564627407431
21
-928.850465590595
31
0.0
  0
LINE
 8
GROUP0
10
205.564627407431
20
-928.850465590595
30
0.0
11
205.647582863747
21
-928.850465590595
31
0.0
  0
LINE
 8
GROUP0
10
205.647582863747
20
-928.850465590595
30
0.0
11
205.720483113237
21
-928.850465590595
31
0.0
  0
LINE
 8
GROUP0
10
205.720483113237
20
-928.850465590595
30
0.0
11
205.768245345661
21
-928.850465590595
31
0.0
  0
LINE
 8
GROUP0
10
205.768245345661
20
-928.850465590595
30
0.0
11
205.778672967555
21
-928.983785361672
31
0.0
  0
LINE
 8
GROUP0
10
205.778672967555
20
-928.983785361672
30
0.0
11
205.778672967555
21
-929.211646797334
31
0.0
  0
LINE
 8
GROUP0
10
205.778672967555
20
-929.211646797334
30
0.0
11
205.778672967555
21
-929.491426028464
31
0.0
  0
LINE
 8
GROUP0
10
205.778672967555
20
-929.491426028464
30
0.0
11
205.778672967555
21
-929.771205259594
31
0.0
  0
LINE
 8
GROUP0
10
205.778672967555
20
-929.771205259594
30
0.0
11
205.778672967555
21
-929.999066695256
31
0.0
  0
LINE
 8
GROUP0
10
205.778672967555
20
-929.999066695256
30
0.0
11
205.778672967555
21
-930.123092539984
31
0.0
  0
LINE
 8
GROUP0
10
205.778672967555
20
-930.123092539984
30
0.0
11
205.815853216174
21
-930.085447633804
31
0.0
  0
LINE
 8
GROUP0
10
205.815853216174
20
-930.085447633804
30
0.0
11
205.849084736806
21
-930.040161027097
31
0.0
  0
LINE
 8
GROUP0
10
205.849084736806
20
-930.040161027097
30
0.0
11
205.886374151961
21
-929.997039405948
31
0.0
  0
LINE
 8
GROUP0
10
205.886374151961
20
-929.997039405948
30
0.0
11
205.927459849526
21
-929.956595530096
31
0.0
  0
LINE
 8
GROUP0
10
205.927459849526
20
-929.956595530096
30
0.0
11
205.97208021739
21
-929.919342159277
31
0.0
  0
LINE
 8
GROUP0
10
205.97208021739
20
-929.919342159277
30
0.0
11
206.019973643443
21
-929.885792053229
31
0.0
  0
LINE
 8
GROUP0
10
206.019973643443
20
-929.885792053229
30
0.0
11
206.070258462573
21
-929.856418934426
31
0.0
  0
LINE
 8
GROUP0
10
206.070258462573
20
-929.856418934426
30
0.0
11
206.122056885403
21
-929.830842571735
31
0.0
  0
LINE
 8
GROUP0
10
206.122056885403
20
-929.830842571735
30
0.0
11
206.176357482735
21
-929.809028772559
31
0.0
  0
LINE
 8
GROUP0
10
206.176357482735
20
-929.809028772559
30
0.0
11
206.232909106942
21
-929.79123566085
31
0.0
  0
LINE
 8
GROUP0
10
206.232909106942
20
-929.79123566085
30
0.0
11
206.291460610397
21
-929.777721360557
31
0.0
  0
LINE
 8
GROUP0
10
206.291460610397
20
-929.777721360557
30
0.0
11
206.351760845474
21
-929.768743995628
31
0.0
  0
LINE
 8
GROUP0
10
206.351760845474
20
-929.768743995628
30
0.0
11
206.413558664547
21
-929.764561690013
31
0.0
  0
LINE
 8
GROUP0
10
206.413558664547
20
-929.764561690013
30
0.0
11
206.521315293495
21
-929.769721197607
31
0.0
  0
LINE
 8
GROUP0
10
206.521315293495
20
-929.769721197607
30
0.0
11
206.662224808719
21
-929.801708219738
31
0.0
  0
LINE
 8
GROUP0
10
206.662224808719
20
-929.801708219738
30
0.0
11
206.804977235925
21
-929.868826841575
31
0.0
  0
LINE
 8
GROUP0
10
206.804977235925
20
-929.868826841575
30
0.0
11
206.937325640157
21
-929.978440572001
31
0.0
  0
LINE
 8
GROUP0
10
206.937325640157
20
-929.978440572001
30
0.0
11
207.047023086459
21
-930.137912919901
31
0.0
  0
LINE
 8
GROUP0
10
207.047023086459
20
-930.137912919901
30
0.0
11
207.121822639874
21
-930.354607394159
31
0.0
  0
LINE
 8
GROUP0
10
207.121822639874
20
-930.354607394159
30
0.0
11
207.149477365448
21
-930.635887503659
31
0.0
  0
LINE
 8
GROUP0
10
207.149477365448
20
-930.635887503659
30
0.0
11
207.149477365448
21
-930.709913266586
31
0.0
  0
LINE
 8
GROUP0
10
207.149477365448
20
-930.709913266586
30
0.0
11
207.149477365448
21
-930.899090216289
31
0.0
  0
LINE
 8
GROUP0
10
207.149477365448
20
-930.899090216289
30
0.0
11
207.149477365448
21
-931.154067844149
31
0.0
  0
LINE
 8
GROUP0
10
207.149477365448
20
-931.154067844149
30
0.0
11
207.149477365448
21
-931.425495641549
31
0.0
  0
LINE
 8
GROUP0
10
207.149477365448
20
-931.425495641549
30
0.0
11
207.149477365448
21
-931.66402309987
31
0.0
  0
LINE
 8
GROUP0
10
207.149477365448
20
-931.66402309987
30
0.0
11
207.149477365448
21
-931.820299710494
31
0.0
  0
LINE
 8
GROUP0
10
207.149477365448
20
-931.820299710494
30
0.0
11
207.146777356207
21
-931.85441858065
31
0.0
  0
LINE
 8
GROUP0
10
207.146777356207
20
-931.85441858065
30
0.0
11
207.110746198414
21
-931.85441858065
31
0.0
  0
LINE
 8
GROUP0
10
207.110746198414
20
-931.85441858065
30
0.0
11
207.044549420141
21
-931.85441858065
31
0.0
  0
LINE
 8
GROUP0
10
207.044549420141
20
-931.85441858065
30
0.0
11
206.96326983163
21
-931.85441858065
31
0.0
  0
LINE
 8
GROUP0
10
206.96326983163
20
-931.85441858065
30
0.0
11
206.881990243118
21
-931.85441858065
31
0.0
  0
LINE
 8
GROUP0
10
206.881990243118
20
-931.85441858065
30
0.0
11
206.815793464846
21
-931.85441858065
31
0.0
  0
LINE
 8
GROUP0
10
206.815793464846
20
-931.85441858065
30
0.0
11
206.779762307052
21
-931.85441858065
31
0.0
  0
LINE
 8
GROUP0
10
206.779762307052
20
-931.85441858065
30
0.0
11
206.777062297812
21
-931.821481379025
31
0.0
  0
LINE
 8
GROUP0
10
206.777062297812
20
-931.821481379025
30
0.0
11
206.777062297812
21
-931.670617232297
31
0.0
  0
LINE
 8
GROUP0
10
206.777062297812
20
-931.670617232297
30
0.0
11
206.777062297812
21
-931.440350903081
31
0.0
  0
LINE
 8
GROUP0
10
206.777062297812
20
-931.440350903081
30
0.0
11
206.777062297812
21
-931.17832370087
31
0.0
  0
LINE
 8
GROUP0
10
206.777062297812
20
-931.17832370087
30
0.0
11
206.777062297812
21
-930.932176935156
31
0.0
  0
LINE
 8
GROUP0
10
206.777062297812
20
-930.932176935156
30
0.0
11
206.777062297812
21
-930.749551915433
31
0.0
  0
LINE
 8
GROUP0
10
206.777062297812
20
-930.749551915433
30
0.0
11
206.777062297812
21
-930.678089951194
31
0.0
  0
LINE
 8
GROUP0
10
206.777062297812
20
-930.678089951194
30
0.0
11
206.768426772708
21
-930.534090312472
31
0.0
  0
LINE
 8
GROUP0
10
206.768426772708
20
-930.534090312472
30
0.0
11
206.741092376631
21
-930.40194693462
31
0.0
  0
LINE
 8
GROUP0
10
206.741092376631
20
-930.40194693462
30
0.0
11
206.692917378431
21
-930.286121176171
31
0.0
  0
LINE
 8
GROUP0
10
206.692917378431
20
-930.286121176171
30
0.0
11
206.621760046961
21
-930.191074395659
31
0.0
  0
LINE
 8
GROUP0
10
206.621760046961
20
-930.191074395659
30
0.0
11
206.525478651072
21
-930.121267951615
31
0.0
  0
LINE
 8
GROUP0
10
206.525478651072
20
-930.121267951615
30
0.0
11
206.401931459614
21
-930.081163202573
31
0.0
  0
LINE
 8
GROUP0
10
206.401931459614
20
-930.081163202573
30
0.0
11
206.267582810092
21
-930.07438202287
31
0.0
  0
LINE
 8
GROUP0
10
206.267582810092
20
-930.07438202287
30
0.0
11
206.165652530472
21
-930.092314467251
31
0.0
  0
LINE
 8
GROUP0
10
206.165652530472
20
-930.092314467251
30
0.0
11
206.072763565408
21
-930.129320178605
31
0.0
  0
LINE
 8
GROUP0
10
206.072763565408
20
-930.129320178605
30
0.0
11
205.99011584245
21
-930.182577234294
31
0.0
  0
LINE
 8
GROUP0
10
205.99011584245
20
-930.182577234294
30
0.0
11
205.918909289145
21
-930.249263711681
31
0.0
  0
LINE
 8
GROUP0
10
205.918909289145
20
-930.249263711681
30
0.0
11
205.860343833044
21
-930.326557688128
31
0.0
  0
LINE
 8
GROUP0
10
205.860343833044
20
-930.326557688128
30
0.0
11
205.815619401695
21
-930.411637240998
31
0.0
  0
LINE
 8
GROUP0
10
205.815619401695
20
-930.411637240998
30
0.0
11
205.798136908613
21
-930.457741843104
31
0.0
  0
LINE
 8
GROUP0
10
205.798136908613
20
-930.457741843104
30
0.0
11
205.791099542827
21
-930.482677546804
31
0.0
  0
LINE
 8
GROUP0
10
205.791099542827
20
-930.482677546804
30
0.0
11
205.785928343433
21
-930.508055084291
31
0.0
  0
LINE
 8
GROUP0
10
205.785928343433
20
-930.508055084291
30
0.0
11
205.78236169832
21
-930.534125603192
31
0.0
  0
LINE
 8
GROUP0
10
205.78236169832
20
-930.534125603192
30
0.0
11
205.780137995376
21
-930.561140251133
31
0.0
  0
LINE
 8
GROUP0
10
205.780137995376
20
-930.561140251133
30
0.0
11
205.778995622492
21
-930.589350175742
31
0.0
  0
LINE
 8
GROUP0
10
205.778995622492
20
-930.589350175742
30
0.0
11
205.778672967555
21
-930.619006524645
31
0.0
  0
LINE
 8
GROUP0
10
205.778672967555
20
-930.619006524645
30
0.0
11
205.778672967555
21
-930.694057807047
31
0.0
  0
LINE
 8
GROUP0
10
205.778672967555
20
-930.694057807047
30
0.0
11
205.778672967555
21
-930.885855528742
31
0.0
  0
LINE
 8
GROUP0
10
205.778672967555
20
-930.885855528742
30
0.0
11
205.778672967555
21
-931.144365501461
31
0.0
  0
LINE
 8
GROUP0
10
205.778672967555
20
-931.144365501461
30
0.0
11
205.778672967555
21
-931.419553536936
31
0.0
  0
LINE
 8
GROUP0
10
205.778672967555
20
-931.419553536936
30
0.0
11
205.778672967555
21
-931.661385446899
31
0.0
  0
LINE
 8
GROUP0
10
205.778672967555
20
-931.661385446899
30
0.0
11
205.778672967555
21
-931.819827043082
31
0.0
  0
LINE
 8
GROUP0
10
205.778672967555
20
-931.819827043082
30
0.0
11
205.775972958314
21
-931.85441858065
31
0.0
  0
LINE
 8
GROUP0
10
205.775972958314
20
-931.85441858065
30
0.0
11
205.739941800521
21
-931.85441858065
31
0.0
  0
LINE
 8
GROUP0
10
205.739941800521
20
-931.85441858065
30
0.0
11
205.673745022248
21
-931.85441858065
31
0.0
  0
LINE
 8
GROUP0
10
205.673745022248
20
-931.85441858065
30
0.0
11
205.592465433737
21
-931.85441858065
31
0.0
  0
LINE
 8
GROUP0
10
205.592465433737
20
-931.85441858065
30
0.0
11
205.511185845225
21
-931.85441858065
31
0.0
  0
LINE
 8
GROUP0
10
205.511185845225
20
-931.85441858065
30
0.0
11
205.444989066953
21
-931.85441858065
31
0.0
  0
LINE
 8
GROUP0
10
205.444989066953
20
-931.85441858065
30
0.0
11
205.408957909159
21
-931.85441858065
31
0.0
  0
LINE
 8
GROUP0
10
205.408957909159
20
-931.85441858065
30
0.0
11
205.406257899919
21
-931.770307896928
31
0.0
  0
LINE
 8
GROUP0
10
205.406257899919
20
-931.770307896928
30
0.0
11
205.406257899919
21
-931.385050925954
31
0.0
  0
LINE
 8
GROUP0
10
205.406257899919
20
-931.385050925954
30
0.0
11
205.406257899919
21
-930.79702712815
31
0.0
  0
LINE
 8
GROUP0
10
205.406257899919
20
-930.79702712815
30
0.0
11
205.406257899919
21
-930.127896599616
31
0.0
  0
LINE
 8
GROUP0
10
205.406257899919
20
-930.127896599616
30
0.0
11
205.406257899919
21
-929.499319436447
31
0.0
  0
LINE
 8
GROUP0
10
205.406257899919
20
-929.499319436447
30
0.0
11
205.406257899919
21
-929.032955734741
31
0.0
  0
LINE
 8
GROUP0
10
205.406257899919
20
-929.032955734741
30
0.0
11
205.406257899919
21
-928.850465590595
31
0.0
  0
LINE
 8
GROUP0
10
209.194315139686
20
-931.363664405028
30
0.0
11
209.194823257154
21
-931.437983339573
31
0.0
  0
LINE
 8
GROUP0
10
209.194823257154
20
-931.437983339573
30
0.0
11
209.1963948763
21
-931.511296302817
31
0.0
  0
LINE
 8
GROUP0
10
209.1963948763
20
-931.511296302817
30
0.0
11
209.199100897236
21
-931.583124010003
31
0.0
  0
LINE
 8
GROUP0
10
209.199100897236
20
-931.583124010003
30
0.0
11
209.203012220074
21
-931.652987176376
31
0.0
  0
LINE
 8
GROUP0
10
209.203012220074
20
-931.652987176376
30
0.0
11
209.208199744925
21
-931.720406517179
31
0.0
  0
LINE
 8
GROUP0
10
209.208199744925
20
-931.720406517179
30
0.0
11
209.214734371901
21
-931.784902747655
31
0.0
  0
LINE
 8
GROUP0
10
209.214734371901
20
-931.784902747655
30
0.0
11
209.222687001115
21
-931.845996583049
31
0.0
  0
LINE
 8
GROUP0
10
209.222687001115
20
-931.845996583049
30
0.0
11
209.167919296758
21
-931.85441858065
31
0.0
  0
LINE
 8
GROUP0
10
209.167919296758
20
-931.85441858065
30
0.0
11
209.106313562556
21
-931.85441858065
31
0.0
  0
LINE
 8
GROUP0
10
209.106313562556
20
-931.85441858065
30
0.0
11
209.036848044525
21
-931.85441858065
31
0.0
  0
LINE
 8
GROUP0
10
209.036848044525
20
-931.85441858065
30
0.0
11
208.970526440026
21
-931.85441858065
31
0.0
  0
LINE
 8
GROUP0
10
208.970526440026
20
-931.85441858065
30
0.0
11
208.918352446419
21
-931.85441858065
31
0.0
  0
LINE
 8
GROUP0
10
208.918352446419
20
-931.85441858065
30
0.0
11
208.891329761064
21
-931.85441858065
31
0.0
  0
LINE
 8
GROUP0
10
208.891329761064
20
-931.85441858065
30
0.0
11
208.885467957546
21
-931.816938871559
31
0.0
  0
LINE
 8
GROUP0
10
208.885467957546
20
-931.816938871559
30
0.0
11
208.880185195035
21
-931.770898981997
31
0.0
  0
LINE
 8
GROUP0
10
208.880185195035
20
-931.770898981997
30
0.0
11
208.874066216347
21
-931.717571371223
31
0.0
  0
LINE
 8
GROUP0
10
208.874066216347
20
-931.717571371223
30
0.0
11
208.868086607022
21
-931.66545838065
31
0.0
  0
LINE
 8
GROUP0
10
208.868086607022
20
-931.66545838065
30
0.0
11
208.863221952598
21
-931.623062351694
31
0.0
  0
LINE
 8
GROUP0
10
208.863221952598
20
-931.623062351694
30
0.0
11
208.859908970205
21
-931.59620850369
31
0.0
  0
LINE
 8
GROUP0
10
208.859908970205
20
-931.59620850369
30
0.0
11
208.825701933108
21
-931.624956436125
31
0.0
  0
LINE
 8
GROUP0
10
208.825701933108
20
-931.624956436125
30
0.0
11
208.766449156577
21
-931.689679518021
31
0.0
  0
LINE
 8
GROUP0
10
208.766449156577
20
-931.689679518021
30
0.0
11
208.695552555962
21
-931.749415283476
31
0.0
  0
LINE
 8
GROUP0
10
208.695552555962
20
-931.749415283476
30
0.0
11
208.613567988139
21
-931.802076433199
31
0.0
  0
LINE
 8
GROUP0
10
208.613567988139
20
-931.802076433199
30
0.0
11
208.521051309985
21
-931.845575667895
31
0.0
  0
LINE
 8
GROUP0
10
208.521051309985
20
-931.845575667895
30
0.0
11
208.418558378378
21
-931.877825688273
31
0.0
  0
LINE
 8
GROUP0
10
208.418558378378
20
-931.877825688273
30
0.0
11
208.306645050194
21
-931.896739195038
31
0.0
  0
LINE
 8
GROUP0
10
208.306645050194
20
-931.896739195038
30
0.0
11
208.172467736407
21
-931.899544356241
31
0.0
  0
LINE
 8
GROUP0
10
208.172467736407
20
-931.899544356241
30
0.0
11
208.017128514145
21
-931.874226389317
31
0.0
  0
LINE
 8
GROUP0
10
208.017128514145
20
-931.874226389317
30
0.0
11
207.885838204683
21
-931.820665464121
31
0.0
  0
LINE
 8
GROUP0
10
207.885838204683
20
-931.820665464121
30
0.0
11
207.778741444247
21
-931.743600544128
31
0.0
  0
LINE
 8
GROUP0
10
207.778741444247
20
-931.743600544128
30
0.0
11
207.695982869067
21
-931.647770592814
31
0.0
  0
LINE
 8
GROUP0
10
207.695982869067
20
-931.647770592814
30
0.0
11
207.63770711537
21
-931.537914573658
31
0.0
  0
LINE
 8
GROUP0
10
207.63770711537
20
-931.537914573658
30
0.0
11
207.604058819385
21
-931.418771450136
31
0.0
  0
LINE
 8
GROUP0
10
207.604058819385
20
-931.418771450136
30
0.0
11
207.595455926592
21
-931.283415117788
31
0.0
  0
LINE
 8
GROUP0
10
207.595455926592
20
-931.283415117788
30
0.0
11
207.628364276212
21
-931.09265267553
31
0.0
  0
LINE
 8
GROUP0
10
207.628364276212
20
-931.09265267553
30
0.0
11
207.711354033988
21
-930.929221213535
31
0.0
  0
LINE
 8
GROUP0
10
207.711354033988
20
-930.929221213535
30
0.0
11
207.842958985607
21
-930.793957353123
31
0.0
  0
LINE
 8
GROUP0
10
207.842958985607
20
-930.793957353123
30
0.0
11
208.021712916756
21
-930.687697715613
31
0.0
  0
LINE
 8
GROUP0
10
208.021712916756
20
-930.687697715613
30
0.0
11
208.246149613121
21
-930.611278922327
31
0.0
  0
LINE
 8
GROUP0
10
208.246149613121
20
-930.611278922327
30
0.0
11
208.514802860389
21
-930.565537594582
31
0.0
  0
LINE
 8
GROUP0
10
208.514802860389
20
-930.565537594582
30
0.0
11
208.826206444248
21
-930.551310353701
31
0.0
  0
LINE
 8
GROUP0
10
208.826206444248
20
-930.551310353701
30
0.0
11
208.826206444248
21
-930.518088587001
31
0.0
  0
LINE
 8
GROUP0
10
208.826206444248
20
-930.518088587001
30
0.0
11
208.823634097239
21
-930.444104489775
31
0.0
  0
LINE
 8
GROUP0
10
208.823634097239
20
-930.444104489775
30
0.0
11
208.811046327393
21
-930.359082705854
31
0.0
  0
LINE
 8
GROUP0
10
208.811046327393
20
-930.359082705854
30
0.0
11
208.78302421091
21
-930.271119175007
31
0.0
  0
LINE
 8
GROUP0
10
208.78302421091
20
-930.271119175007
30
0.0
11
208.734202027326
21
-930.187737817102
31
0.0
  0
LINE
 8
GROUP0
10
208.734202027326
20
-930.187737817102
30
0.0
11
208.659214056174
21
-930.116462552012
31
0.0
  0
LINE
 8
GROUP0
10
208.659214056174
20
-930.116462552012
30
0.0
11
208.552694576989
21
-930.064817299606
31
0.0
  0
LINE
 8
GROUP0
10
208.552694576989
20
-930.064817299606
30
0.0
11
208.409277869306
21
-930.040325979756
31
0.0
  0
LINE
 8
GROUP0
10
208.409277869306
20
-930.040325979756
30
0.0
11
208.302314390057
21
-930.041004731538
31
0.0
  0
LINE
 8
GROUP0
10
208.302314390057
20
-930.041004731538
30
0.0
11
208.220729554171
21
-930.048690236139
31
0.0
  0
LINE
 8
GROUP0
10
208.220729554171
20
-930.048690236139
30
0.0
11
208.14032611672
21
-930.062482873805
31
0.0
  0
LINE
 8
GROUP0
10
208.14032611672
20
-930.062482873805
30
0.0
11
208.062076827239
21
-930.082175616207
31
0.0
  0
LINE
 8
GROUP0
10
208.062076827239
20
-930.082175616207
30
0.0
11
207.986954435263
21
-930.10756143502
31
0.0
  0
LINE
 8
GROUP0
10
207.986954435263
20
-930.10756143502
30
0.0
11
207.915931690326
21
-930.138433301917
31
0.0
  0
LINE
 8
GROUP0
10
207.915931690326
20
-930.138433301917
30
0.0
11
207.849981341964
21
-930.174584188572
31
0.0
  0
LINE
 8
GROUP0
10
207.849981341964
20
-930.174584188572
30
0.0
11
207.821973467515
21
-930.187105466653
31
0.0
  0
LINE
 8
GROUP0
10
207.821973467515
20
-930.187105466653
30
0.0
11
207.813031294605
21
-930.160716039875
31
0.0
  0
LINE
 8
GROUP0
10
207.813031294605
20
-930.160716039875
30
0.0
11
207.798519208906
21
-930.117889131165
31
0.0
  0
LINE
 8
GROUP0
10
207.798519208906
20
-930.117889131165
30
0.0
11
207.781222166814
21
-930.066843481487
31
0.0
  0
LINE
 8
GROUP0
10
207.781222166814
20
-930.066843481487
30
0.0
11
207.763925124722
21
-930.01579783181
31
0.0
  0
LINE
 8
GROUP0
10
207.763925124722
20
-930.01579783181
30
0.0
11
207.749413039023
21
-929.972970923099
31
0.0
  0
LINE
 8
GROUP0
10
207.749413039023
20
-929.972970923099
30
0.0
11
207.740470866112
21
-929.946581496322
31
0.0
  0
LINE
 8
GROUP0
10
207.740470866112
20
-929.946581496322
30
0.0
11
207.770236383962
21
-929.923352697313
31
0.0
  0
LINE
 8
GROUP0
10
207.770236383962
20
-929.923352697313
30
0.0
11
207.849521229866
21
-929.882877328271
31
0.0
  0
LINE
 8
GROUP0
10
207.849521229866
20
-929.882877328271
30
0.0
11
207.936584830899
21
-929.8473001441
31
0.0
  0
LINE
 8
GROUP0
10
207.936584830899
20
-929.8473001441
30
0.0
11
208.030236065183
21
-929.81724222978
31
0.0
  0
LINE
 8
GROUP0
10
208.030236065183
20
-929.81724222978
30
0.0
11
208.129283810838
21
-929.79332467029
31
0.0
  0
LINE
 8
GROUP0
10
208.129283810838
20
-929.79332467029
30
0.0
11
208.232536945985
21
-929.776168550611
31
0.0
  0
LINE
 8
GROUP0
10
208.232536945985
20
-929.776168550611
30
0.0
11
208.338804348744
21
-929.766394955721
31
0.0
  0
LINE
 8
GROUP0
10
208.338804348744
20
-929.766394955721
30
0.0
11
208.488778874424
21
-929.766300412593
31
0.0
  0
LINE
 8
GROUP0
10
208.488778874424
20
-929.766300412593
30
0.0
11
208.709829516494
21
-929.803201634648
31
0.0
  0
LINE
 8
GROUP0
10
208.709829516494
20
-929.803201634648
30
0.0
11
208.881960296813
21
-929.880865964445
31
0.0
  0
LINE
 8
GROUP0
10
208.881960296813
20
-929.880865964445
30
0.0
11
209.010466035733
21
-929.99190844633
31
0.0
  0
LINE
 8
GROUP0
10
209.010466035733
20
-929.99190844633
30
0.0
11
209.100641553608
21
-930.128944124653
31
0.0
  0
LINE
 8
GROUP0
10
209.100641553608
20
-930.128944124653
30
0.0
11
209.157781670792
21
-930.284588043763
31
0.0
  0
LINE
 8
GROUP0
10
209.157781670792
20
-930.284588043763
30
0.0
11
209.187181207638
21
-930.451455248008
31
0.0
  0
LINE
 8
GROUP0
10
209.187181207638
20
-930.451455248008
30
0.0
11
209.194315139686
21
-930.598725934188
31
0.0
  0
LINE
 8
GROUP0
10
209.194315139686
20
-930.598725934188
30
0.0
11
209.194315139686
21
-930.650362283083
31
0.0
  0
LINE
 8
GROUP0
10
209.194315139686
20
-930.650362283083
30
0.0
11
209.194315139686
21
-930.763241743458
31
0.0
  0
LINE
 8
GROUP0
10
209.194315139686
20
-930.763241743458
30
0.0
11
209.194315139686
21
-930.912146563527
31
0.0
  0
LINE
 8
GROUP0
10
209.194315139686
20
-930.912146563527
30
0.0
11
209.194315139686
21
-931.071858991505
31
0.0
  0
LINE
 8
GROUP0
10
209.194315139686
20
-931.071858991505
30
0.0
11
209.194315139686
21
-931.217161275605
31
0.0
  0
LINE
 8
GROUP0
10
209.194315139686
20
-931.217161275605
30
0.0
11
209.194315139686
21
-931.322835664041
31
0.0
  0
LINE
 8
GROUP0
10
209.194315139686
20
-931.322835664041
30
0.0
11
209.194315139686
21
-931.363664405028
31
0.0
  0
LINE
 8
GROUP0
10
208.834819188643
20
-930.809348175772
30
0.0
11
208.684695133673
21
-930.810287391168
31
0.0
  0
LINE
 8
GROUP0
10
208.684695133673
20
-930.810287391168
30
0.0
11
208.535272134928
21
-930.821064262388
31
0.0
  0
LINE
 8
GROUP0
10
208.535272134928
20
-930.821064262388
30
0.0
11
208.392169889095
21
-930.844353675079
31
0.0
  0
LINE
 8
GROUP0
10
208.392169889095
20
-930.844353675079
30
0.0
11
208.261008092864
21
-930.882830514891
31
0.0
  0
LINE
 8
GROUP0
10
208.261008092864
20
-930.882830514891
30
0.0
11
208.147406442921
21
-930.939169667471
31
0.0
  0
LINE
 8
GROUP0
10
208.147406442921
20
-930.939169667471
30
0.0
11
208.056984635955
21
-931.016046018467
31
0.0
  0
LINE
 8
GROUP0
10
208.056984635955
20
-931.016046018467
30
0.0
11
207.995362368654
21
-931.11613445353
31
0.0
  0
LINE
 8
GROUP0
10
207.995362368654
20
-931.11613445353
30
0.0
11
207.968159337706
21
-931.242109858305
31
0.0
  0
LINE
 8
GROUP0
10
207.968159337706
20
-931.242109858305
30
0.0
11
207.97181153822
21
-931.33859686382
31
0.0
  0
LINE
 8
GROUP0
10
207.97181153822
20
-931.33859686382
30
0.0
11
207.989165016633
21
-931.412877607256
31
0.0
  0
LINE
 8
GROUP0
10
207.989165016633
20
-931.412877607256
30
0.0
11
208.018216011794
21
-931.475576302027
31
0.0
  0
LINE
 8
GROUP0
10
208.018216011794
20
-931.475576302027
30
0.0
11
208.05748743198
21
-931.526970371452
31
0.0
  0
LINE
 8
GROUP0
10
208.05748743198
20
-931.526970371452
30
0.0
11
208.105502185465
21
-931.567337238851
31
0.0
  0
LINE
 8
GROUP0
10
208.105502185465
20
-931.567337238851
30
0.0
11
208.160783180525
21
-931.596954327541
31
0.0
  0
LINE
 8
GROUP0
10
208.160783180525
20
-931.596954327541
30
0.0
11
208.221853325435
21
-931.616099060842
31
0.0
  0
LINE
 8
GROUP0
10
208.221853325435
20
-931.616099060842
30
0.0
11
208.287235528471
21
-931.625048862073
31
0.0
  0
LINE
 8
GROUP0
10
208.287235528471
20
-931.625048862073
30
0.0
11
208.372138203452
21
-931.623183990033
31
0.0
  0
LINE
 8
GROUP0
10
208.372138203452
20
-931.623183990033
30
0.0
11
208.461547327829
21
-931.607740546177
31
0.0
  0
LINE
 8
GROUP0
10
208.461547327829
20
-931.607740546177
30
0.0
11
208.541984432116
21
-931.58007323106
31
0.0
  0
LINE
 8
GROUP0
10
208.541984432116
20
-931.58007323106
30
0.0
11
208.613260193643
21
-931.541975923844
31
0.0
  0
LINE
 8
GROUP0
10
208.613260193643
20
-931.541975923844
30
0.0
11
208.675185289741
21
-931.495242503692
31
0.0
  0
LINE
 8
GROUP0
10
208.675185289741
20
-931.495242503692
30
0.0
11
208.727570397738
21
-931.441666849767
31
0.0
  0
LINE
 8
GROUP0
10
208.727570397738
20
-931.441666849767
30
0.0
11
208.770226194965
21
-931.383042841233
31
0.0
  0
LINE
 8
GROUP0
10
208.770226194965
20
-931.383042841233
30
0.0
11
208.802963358751
21
-931.321164357251
31
0.0
  0
LINE
 8
GROUP0
10
208.802963358751
20
-931.321164357251
30
0.0
11
208.819571575658
21
-931.277045194506
31
0.0
  0
LINE
 8
GROUP0
10
208.819571575658
20
-931.277045194506
30
0.0
11
208.826892852021
21
-931.246341556143
31
0.0
  0
LINE
 8
GROUP0
10
208.826892852021
20
-931.246341556143
30
0.0
11
208.831633341726
21
-931.216494181105
31
0.0
  0
LINE
 8
GROUP0
10
208.831633341726
20
-931.216494181105
30
0.0
11
208.834152945295
21
-931.188267858
31
0.0
  0
LINE
 8
GROUP0
10
208.834152945295
20
-931.188267858
30
0.0
11
208.834819188643
21
-931.144268602112
31
0.0
  0
LINE
 8
GROUP0
10
208.834819188643
20
-931.144268602112
30
0.0
11
208.834819188643
21
-931.101839329772
31
0.0
  0
LINE
 8
GROUP0
10
208.834819188643
20
-931.101839329772
30
0.0
11
208.834819188643
21
-931.044708121121
31
0.0
  0
LINE
 8
GROUP0
10
208.834819188643
20
-931.044708121121
30
0.0
11
208.834819188643
21
-930.980612837374
31
0.0
  0
LINE
 8
GROUP0
10
208.834819188643
20
-930.980612837374
30
0.0
11
208.834819188643
21
-930.917291339748
31
0.0
  0
LINE
 8
GROUP0
10
208.834819188643
20
-930.917291339748
30
0.0
11
208.834819188643
21
-930.862481489462
31
0.0
  0
LINE
 8
GROUP0
10
208.834819188643
20
-930.862481489462
30
0.0
11
208.834819188643
21
-930.809348175772
31
0.0
  0
LINE
 8
GROUP0
10
211.509765342812
20
-931.291661861887
30
0.0
11
211.510059511097
21
-931.386801853825
31
0.0
  0
LINE
 8
GROUP0
10
211.510059511097
20
-931.386801853825
30
0.0
11
211.511002477417
21
-931.478025803143
31
0.0
  0
LINE
 8
GROUP0
10
211.511002477417
20
-931.478025803143
30
0.0
11
211.512684933971
21
-931.565417425714
31
0.0
  0
LINE
 8
GROUP0
10
211.512684933971
20
-931.565417425714
30
0.0
11
211.515197572957
21
-931.649060437415
31
0.0
  0
LINE
 8
GROUP0
10
211.515197572957
20
-931.649060437415
30
0.0
11
211.518631086573
21
-931.729038554121
31
0.0
  0
LINE
 8
GROUP0
10
211.518631086573
20
-931.729038554121
30
0.0
11
211.523076167019
21
-931.805435491708
31
0.0
  0
LINE
 8
GROUP0
10
211.523076167019
20
-931.805435491708
30
0.0
11
211.524253529178
21
-931.85441858065
31
0.0
  0
LINE
 8
GROUP0
10
211.524253529178
20
-931.85441858065
30
0.0
11
211.492322123844
21
-931.85441858065
31
0.0
  0
LINE
 8
GROUP0
10
211.492322123844
20
-931.85441858065
30
0.0
11
211.433657448927
21
-931.85441858065
31
0.0
  0
LINE
 8
GROUP0
10
211.433657448927
20
-931.85441858065
30
0.0
11
211.361626139219
21
-931.85441858065
31
0.0
  0
LINE
 8
GROUP0
10
211.361626139219
20
-931.85441858065
30
0.0
11
211.289594829512
21
-931.85441858065
31
0.0
  0
LINE
 8
GROUP0
10
211.289594829512
20
-931.85441858065
30
0.0
11
211.230930154595
21
-931.85441858065
31
0.0
  0
LINE
 8
GROUP0
10
211.230930154595
20
-931.85441858065
30
0.0
11
211.198998749261
21
-931.85441858065
31
0.0
  0
LINE
 8
GROUP0
10
211.198998749261
20
-931.85441858065
30
0.0
11
211.193295432986
21
-931.80217690293
31
0.0
  0
LINE
 8
GROUP0
10
211.193295432986
20
-931.80217690293
30
0.0
11
211.189148008987
21
-931.736728529081
31
0.0
  0
LINE
 8
GROUP0
10
211.189148008987
20
-931.736728529081
30
0.0
11
211.184428526504
21
-931.662252793323
31
0.0
  0
LINE
 8
GROUP0
10
211.184428526504
20
-931.662252793323
30
0.0
11
211.179995073263
21
-931.59229073852
31
0.0
  0
LINE
 8
GROUP0
10
211.179995073263
20
-931.59229073852
30
0.0
11
211.176705736988
21
-931.540383407537
31
0.0
  0
LINE
 8
GROUP0
10
211.176705736988
20
-931.540383407537
30
0.0
11
211.095796884059
21
-931.623048571303
31
0.0
  0
LINE
 8
GROUP0
10
211.095796884059
20
-931.623048571303
30
0.0
11
211.021923631303
21
-931.700584974973
31
0.0
  0
LINE
 8
GROUP0
10
211.021923631303
20
-931.700584974973
30
0.0
11
210.930106113174
21
-931.772382190288
31
0.0
  0
LINE
 8
GROUP0
10
210.930106113174
20
-931.772382190288
30
0.0
11
210.819999001685
21
-931.833040543277
31
0.0
  0
LINE
 8
GROUP0
10
210.819999001685
20
-931.833040543277
30
0.0
11
210.69125696885
21
-931.87716035997
31
0.0
  0
LINE
 8
GROUP0
10
210.69125696885
20
-931.87716035997
30
0.0
11
210.543534686682
21
-931.899341966394
31
0.0
  0
LINE
 8
GROUP0
10
210.543534686682
20
-931.899341966394
30
0.0
11
210.392124987192
21
-931.895119137817
31
0.0
  0
LINE
 8
GROUP0
10
210.392124987192
20
-931.895119137817
30
0.0
11
210.24400951171
21
-931.861332999509
31
0.0
  0
LINE
 8
GROUP0
10
210.24400951171
20
-931.861332999509
30
0.0
11
210.102440152606
21
-931.791136268953
31
0.0
  0
LINE
 8
GROUP0
10
210.102440152606
20
-931.791136268953
30
0.0
11
209.976507058696
21
-931.677416584892
31
0.0
  0
LINE
 8
GROUP0
10
209.976507058696
20
-931.677416584892
30
0.0
11
209.875300378797
21
-931.513061586067
31
0.0
  0
LINE
 8
GROUP0
10
209.875300378797
20
-931.513061586067
30
0.0
11
209.807910261725
21
-931.290958911221
31
0.0
  0
LINE
 8
GROUP0
10
209.807910261725
20
-931.290958911221
30
0.0
11
209.783426856297
21
-931.003996199097
31
0.0
  0
LINE
 8
GROUP0
10
209.783426856297
20
-931.003996199097
30
0.0
11
209.783426856297
21
-930.931257567756
31
0.0
  0
LINE
 8
GROUP0
10
209.783426856297
20
-930.931257567756
30
0.0
11
209.783426856297
21
-930.745369954328
31
0.0
  0
LINE
 8
GROUP0
10
209.783426856297
20
-930.745369954328
30
0.0
11
209.783426856297
21
-930.494825779709
31
0.0
  0
LINE
 8
GROUP0
10
209.783426856297
20
-930.494825779709
30
0.0
11
209.783426856297
21
-930.228117464792
31
0.0
  0
LINE
 8
GROUP0
10
209.783426856297
20
-930.228117464792
30
0.0
11
209.783426856297
21
-929.99373743047
31
0.0
  0
LINE
 8
GROUP0
10
209.783426856297
20
-929.99373743047
30
0.0
11
209.783426856297
21
-929.840178097639
31
0.0
  0
LINE
 8
GROUP0
10
209.783426856297
20
-929.840178097639
30
0.0
11
209.786126865538
21
-929.806652473317
31
0.0
  0
LINE
 8
GROUP0
10
209.786126865538
20
-929.806652473317
30
0.0
11
209.822158023331
21
-929.806652473317
31
0.0
  0
LINE
 8
GROUP0
10
209.822158023331
20
-929.806652473317
30
0.0
11
209.888354801604
21
-929.806652473317
31
0.0
  0
LINE
 8
GROUP0
10
209.888354801604
20
-929.806652473317
30
0.0
11
209.969634390115
21
-929.806652473317
31
0.0
  0
LINE
 8
GROUP0
10
209.969634390115
20
-929.806652473317
30
0.0
11
210.050913978627
21
-929.806652473317
31
0.0
  0
LINE
 8
GROUP0
10
210.050913978627
20
-929.806652473317
30
0.0
11
210.117110756899
21
-929.806652473317
31
0.0
  0
LINE
 8
GROUP0
10
210.117110756899
20
-929.806652473317
30
0.0
11
210.153141914693
21
-929.806652473317
31
0.0
  0
LINE
 8
GROUP0
10
210.153141914693
20
-929.806652473317
30
0.0
11
210.155841923933
21
-929.838282604853
31
0.0
  0
LINE
 8
GROUP0
10
210.155841923933
20
-929.838282604853
30
0.0
11
210.155841923933
21
-929.98315990376
31
0.0
  0
LINE
 8
GROUP0
10
210.155841923933
20
-929.98315990376
30
0.0
11
210.155841923933
21
-930.20428841262
31
0.0
  0
LINE
 8
GROUP0
10
210.155841923933
20
-930.20428841262
30
0.0
11
210.155841923933
21
-930.455917405459
31
0.0
  0
LINE
 8
GROUP0
10
210.155841923933
20
-930.455917405459
30
0.0
11
210.155841923933
21
-930.692296156309
31
0.0
  0
LINE
 8
GROUP0
10
210.155841923933
20
-930.692296156309
30
0.0
11
210.155841923933
21
-930.867673939197
31
0.0
  0
LINE
 8
GROUP0
10
210.155841923933
20
-930.867673939197
30
0.0
11
210.155841923933
21
-930.936300028153
31
0.0
  0
LINE
 8
GROUP0
10
210.155841923933
20
-930.936300028153
30
0.0
11
210.164421057093
21
-931.102652193212
31
0.0
  0
LINE
 8
GROUP0
10
210.164421057093
20
-931.102652193212
30
0.0
11
210.191360709563
21
-931.249550881697
31
0.0
  0
LINE
 8
GROUP0
10
210.191360709563
20
-931.249550881697
30
0.0
11
210.238464260827
21
-931.37407650245
31
0.0
  0
LINE
 8
GROUP0
10
210.238464260827
20
-931.37407650245
30
0.0
11
210.307535090372
21
-931.473309464312
31
0.0
  0
LINE
 8
GROUP0
10
210.307535090372
20
-931.473309464312
30
0.0
11
210.400376577683
21
-931.544330176124
31
0.0
  0
LINE
 8
GROUP0
10
210.400376577683
20
-931.544330176124
30
0.0
11
210.518792102243
21
-931.584219046728
31
0.0
  0
LINE
 8
GROUP0
10
210.518792102243
20
-931.584219046728
30
0.0
11
210.649699012978
21
-931.590795630689
31
0.0
  0
LINE
 8
GROUP0
10
210.649699012978
20
-931.590795630689
30
0.0
11
210.753219119085
21
-931.572679864043
31
0.0
  0
LINE
 8
GROUP0
10
210.753219119085
20
-931.572679864043
30
0.0
11
210.845660824333
21
-931.535941965976
31
0.0
  0
LINE
 8
GROUP0
10
210.845660824333
20
-931.535941965976
30
0.0
11
210.926424164945
21
-931.484178230974
31
0.0
  0
LINE
 8
GROUP0
10
210.926424164945
20
-931.484178230974
30
0.0
11
210.994909177148
21
-931.420984953523
31
0.0
  0
LINE
 8
GROUP0
10
210.994909177148
20
-931.420984953523
30
0.0
11
211.050515897167
21
-931.349958428108
31
0.0
  0
LINE
 8
GROUP0
10
211.050515897167
20
-931.349958428108
30
0.0
11
211.092644361228
21
-931.274694949215
31
0.0
  0
LINE
 8
GROUP0
10
211.092644361228
20
-931.274694949215
30
0.0
11
211.109682178317
21
-931.233595428196
31
0.0
  0
LINE
 8
GROUP0
10
211.109682178317
20
-931.233595428196
30
0.0
11
211.117802036882
21
-931.20830664504
31
0.0
  0
LINE
 8
GROUP0
10
211.117802036882
20
-931.20830664504
30
0.0
11
211.124625462097
21
-931.181145881889
31
0.0
  0
LINE
 8
GROUP0
10
211.124625462097
20
-931.181145881889
30
0.0
11
211.130072226248
21
-931.152371262694
31
0.0
  0
LINE
 8
GROUP0
10
211.130072226248
20
-931.152371262694
30
0.0
11
211.134062101621
21
-931.122240911404
31
0.0
  0
LINE
 8
GROUP0
10
211.134062101621
20
-931.122240911404
30
0.0
11
211.136514860502
21
-931.091012951969
31
0.0
  0
LINE
 8
GROUP0
10
211.136514860502
20
-931.091012951969
30
0.0
11
211.137350275176
21
-931.058945508337
31
0.0
  0
LINE
 8
GROUP0
10
211.137350275176
20
-931.058945508337
30
0.0
11
211.137350275176
21
-930.982868706459
31
0.0
  0
LINE
 8
GROUP0
10
211.137350275176
20
-930.982868706459
30
0.0
11
211.137350275176
21
-930.788450212772
31
0.0
  0
LINE
 8
GROUP0
10
211.137350275176
20
-930.788450212772
30
0.0
11
211.137350275176
21
-930.526407895195
31
0.0
  0
LINE
 8
GROUP0
10
211.137350275176
20
-930.526407895195
30
0.0
11
211.137350275176
21
-930.247459621644
31
0.0
  0
LINE
 8
GROUP0
10
211.137350275176
20
-930.247459621644
30
0.0
11
211.137350275176
21
-930.002323260039
31
0.0
  0
LINE
 8
GROUP0
10
211.137350275176
20
-930.002323260039
30
0.0
11
211.137350275176
21
-929.841716678298
31
0.0
  0
LINE
 8
GROUP0
10
211.137350275176
20
-929.841716678298
30
0.0
11
211.140050284417
21
-929.806652473317
31
0.0
  0
LINE
 8
GROUP0
10
211.140050284417
20
-929.806652473317
30
0.0
11
211.17608144221
21
-929.806652473317
31
0.0
  0
LINE
 8
GROUP0
10
211.17608144221
20
-929.806652473317
30
0.0
11
211.242278220482
21
-929.806652473317
31
0.0
  0
LINE
 8
GROUP0
10
211.242278220482
20
-929.806652473317
30
0.0
11
211.323557808994
21
-929.806652473317
31
0.0
  0
LINE
 8
GROUP0
10
211.323557808994
20
-929.806652473317
30
0.0
11
211.404837397505
21
-929.806652473317
31
0.0
  0
LINE
 8
GROUP0
10
211.404837397505
20
-929.806652473317
30
0.0
11
211.471034175778
21
-929.806652473317
31
0.0
  0
LINE
 8
GROUP0
10
211.471034175778
20
-929.806652473317
30
0.0
11
211.507065333571
21
-929.806652473317
31
0.0
  0
LINE
 8
GROUP0
10
211.507065333571
20
-929.806652473317
30
0.0
11
211.509765342812
21
-929.848232736197
31
0.0
  0
LINE
 8
GROUP0
10
211.509765342812
20
-929.848232736197
30
0.0
11
211.509765342812
21
-930.038685190281
31
0.0
  0
LINE
 8
GROUP0
10
211.509765342812
20
-930.038685190281
30
0.0
11
211.509765342812
21
-930.329375778094
31
0.0
  0
LINE
 8
GROUP0
10
211.509765342812
20
-930.329375778094
30
0.0
11
211.509765342812
21
-930.660161619398
31
0.0
  0
LINE
 8
GROUP0
10
211.509765342812
20
-930.660161619398
30
0.0
11
211.509765342812
21
-930.970899833956
31
0.0
  0
LINE
 8
GROUP0
10
211.509765342812
20
-930.970899833956
30
0.0
11
211.509765342812
21
-931.201447541531
31
0.0
  0
LINE
 8
GROUP0
10
211.509765342812
20
-931.201447541531
30
0.0
11
211.509765342812
21
-931.291661861887
31
0.0
  0
LINE
 8
GROUP0
10
212.577401138004
20
-929.315898297696
30
0.0
11
212.577401138004
21
-929.353624534192
31
0.0
  0
LINE
 8
GROUP0
10
212.577401138004
20
-929.353624534192
30
0.0
11
212.577401138004
21
-929.447514641564
31
0.0
  0
LINE
 8
GROUP0
10
212.577401138004
20
-929.447514641564
30
0.0
11
212.577401138004
21
-929.568635716633
31
0.0
  0
LINE
 8
GROUP0
10
212.577401138004
20
-929.568635716633
30
0.0
11
212.577401138004
21
-929.68805485622
31
0.0
  0
LINE
 8
GROUP0
10
212.577401138004
20
-929.68805485622
30
0.0
11
212.577401138004
21
-929.776839157148
31
0.0
  0
LINE
 8
GROUP0
10
212.577401138004
20
-929.776839157148
30
0.0
11
212.578032362596
21
-929.806652473317
31
0.0
  0
LINE
 8
GROUP0
10
212.578032362596
20
-929.806652473317
30
0.0
11
212.627825533547
21
-929.806652473317
31
0.0
  0
LINE
 8
GROUP0
10
212.627825533547
20
-929.806652473317
30
0.0
11
212.73493432392
21
-929.806652473317
31
0.0
  0
LINE
 8
GROUP0
10
212.73493432392
20
-929.806652473317
30
0.0
11
212.867927587579
21
-929.806652473317
31
0.0
  0
LINE
 8
GROUP0
10
212.867927587579
20
-929.806652473317
30
0.0
11
212.995374178391
21
-929.806652473317
31
0.0
  0
LINE
 8
GROUP0
10
212.995374178391
20
-929.806652473317
30
0.0
11
213.085842950222
21
-929.806652473317
31
0.0
  0
LINE
 8
GROUP0
10
213.085842950222
20
-929.806652473317
30
0.0
11
213.110530016049
21
-929.838892526682
31
0.0
  0
LINE
 8
GROUP0
10
213.110530016049
20
-929.838892526682
30
0.0
11
213.110530016049
21
-929.898306736015
31
0.0
  0
LINE
 8
GROUP0
10
213.110530016049
20
-929.898306736015
30
0.0
11
213.110530016049
21
-929.969513225585
31
0.0
  0
LINE
 8
GROUP0
10
213.110530016049
20
-929.969513225585
30
0.0
11
213.110530016049
21
-930.035806265057
31
0.0
  0
LINE
 8
GROUP0
10
213.110530016049
20
-930.035806265057
30
0.0
11
213.110530016049
21
-930.080480124093
31
0.0
  0
LINE
 8
GROUP0
10
213.110530016049
20
-930.080480124093
30
0.0
11
213.038895621221
21
-930.09001176391
31
0.0
  0
LINE
 8
GROUP0
10
213.038895621221
20
-930.09001176391
30
0.0
11
212.922868650977
21
-930.09001176391
31
0.0
  0
LINE
 8
GROUP0
10
212.922868650977
20
-930.09001176391
30
0.0
11
212.788352771242
21
-930.09001176391
31
0.0
  0
LINE
 8
GROUP0
10
212.788352771242
20
-930.09001176391
30
0.0
11
212.666779128151
21
-930.09001176391
31
0.0
  0
LINE
 8
GROUP0
10
212.666779128151
20
-930.09001176391
30
0.0
11
212.589578867836
21
-930.09001176391
31
0.0
  0
LINE
 8
GROUP0
10
212.589578867836
20
-930.09001176391
30
0.0
11
212.577401138004
21
-930.262562714896
31
0.0
  0
LINE
 8
GROUP0
10
212.577401138004
20
-930.262562714896
30
0.0
11
212.577401138004
21
-930.510786506622
31
0.0
  0
LINE
 8
GROUP0
10
212.577401138004
20
-930.510786506622
30
0.0
11
212.577401138004
21
-930.789648721286
31
0.0
  0
LINE
 8
GROUP0
10
212.577401138004
20
-930.789648721286
30
0.0
11
212.577401138004
21
-931.034042710143
31
0.0
  0
LINE
 8
GROUP0
10
212.577401138004
20
-931.034042710143
30
0.0
11
212.577401138004
21
-931.178861824451
31
0.0
  0
LINE
 8
GROUP0
10
212.577401138004
20
-931.178861824451
30
0.0
11
212.57961978096
21
-931.267173073494
31
0.0
  0
LINE
 8
GROUP0
10
212.57961978096
20
-931.267173073494
30
0.0
11
212.59436490444
21
-931.375262814456
31
0.0
  0
LINE
 8
GROUP0
10
212.59436490444
20
-931.375262814456
30
0.0
11
212.624549312759
21
-931.462685598626
31
0.0
  0
LINE
 8
GROUP0
10
212.624549312759
20
-931.462685598626
30
0.0
11
212.672051765864
21
-931.528446191004
31
0.0
  0
LINE
 8
GROUP0
10
212.672051765864
20
-931.528446191004
30
0.0
11
212.738751023702
21
-931.571549356591
31
0.0
  0
LINE
 8
GROUP0
10
212.738751023702
20
-931.571549356591
30
0.0
11
212.82652584622
21
-931.59099986039
31
0.0
  0
LINE
 8
GROUP0
10
212.82652584622
20
-931.59099986039
30
0.0
11
212.891393576401
21
-931.591709757234
31
0.0
  0
LINE
 8
GROUP0
10
212.891393576401
20
-931.591709757234
30
0.0
11
212.935171453361
21
-931.589944850878
31
0.0
  0
LINE
 8
GROUP0
10
212.935171453361
20
-931.589944850878
30
0.0
11
212.973537067962
21
-931.586716363642
31
0.0
  0
LINE
 8
GROUP0
10
212.973537067962
20
-931.586716363642
30
0.0
11
213.007607520714
21
-931.582024295525
31
0.0
  0
LINE
 8
GROUP0
10
213.007607520714
20
-931.582024295525
30
0.0
11
213.038499912125
21
-931.575868646528
31
0.0
  0
LINE
 8
GROUP0
10
213.038499912125
20
-931.575868646528
30
0.0
11
213.067331342705
21
-931.56824941665
31
0.0
  0
LINE
 8
GROUP0
10
213.067331342705
20
-931.56824941665
30
0.0
11
213.076189812487
21
-931.631562288086
31
0.0
  0
LINE
 8
GROUP0
10
213.076189812487
20
-931.631562288086
30
0.0
11
213.080304723721
21
-931.699936318187
31
0.0
  0
LINE
 8
GROUP0
10
213.080304723721
20
-931.699936318187
30
0.0
11
213.084537916185
21
-931.770275728328
31
0.0
  0
LINE
 8
GROUP0
10
213.084537916185
20
-931.770275728328
30
0.0
11
213.087883999422
21
-931.825874788172
31
0.0
  0
LINE
 8
GROUP0
10
213.087883999422
20
-931.825874788172
30
0.0
11
213.051591801748
21
-931.862232955334
31
0.0
  0
LINE
 8
GROUP0
10
213.051591801748
20
-931.862232955334
30
0.0
11
213.004724501163
21
-931.874390931665
31
0.0
  0
LINE
 8
GROUP0
10
213.004724501163
20
-931.874390931665
30
0.0
11
212.951258840326
21
-931.885079950696
31
0.0
  0
LINE
 8
GROUP0
10
212.951258840326
20
-931.885079950696
30
0.0
11
212.891565493498
21
-931.893558663907
31
0.0
  0
LINE
 8
GROUP0
10
212.891565493498
20
-931.893558663907
30
0.0
11
212.826015134937
21
-931.899085722779
31
0.0
  0
LINE
 8
GROUP0
10
212.826015134937
20
-931.899085722779
30
0.0
11
212.754108625102
21
-931.900909696025
31
0.0
  0
LINE
 8
GROUP0
10
212.754108625102
20
-931.900909696025
30
0.0
11
212.669014653464
21
-931.895305042182
31
0.0
  0
LINE
 8
GROUP0
10
212.669014653464
20
-931.895305042182
30
0.0
11
212.590307270884
21
-931.880100492524
31
0.0
  0
LINE
 8
GROUP0
10
212.590307270884
20
-931.880100492524
30
0.0
11
212.518489172592
21
-931.855905374599
31
0.0
  0
LINE
 8
GROUP0
10
212.518489172592
20
-931.855905374599
30
0.0
11
212.454063053817
21
-931.823329015958
31
0.0
  0
LINE
 8
GROUP0
10
212.454063053817
20
-931.823329015958
30
0.0
11
212.397531609787
21
-931.782980744152
31
0.0
  0
LINE
 8
GROUP0
10
212.397531609787
20
-931.782980744152
30
0.0
11
212.348287233779
21
-931.733886706354
31
0.0
  0
LINE
 8
GROUP0
10
212.348287233779
20
-931.733886706354
30
0.0
11
212.30334085528
21
-931.66776869628
31
0.0
  0
LINE
 8
GROUP0
10
212.30334085528
20
-931.66776869628
30
0.0
11
212.268060084392
21
-931.59020488634
31
0.0
  0
LINE
 8
GROUP0
10
212.268060084392
20
-931.59020488634
30
0.0
11
212.241952381345
21
-931.501444085285
31
0.0
  0
LINE
 8
GROUP0
10
212.241952381345
20
-931.501444085285
30
0.0
11
212.22452520637
21
-931.401735101863
31
0.0
  0
LINE
 8
GROUP0
10
212.22452520637
20
-931.401735101863
30
0.0
11
212.215286019696
21
-931.291326744825
31
0.0
  0
LINE
 8
GROUP0
10
212.215286019696
20
-931.291326744825
30
0.0
11
212.213426559876
21
-931.198985933056
31
0.0
  0
LINE
 8
GROUP0
10
212.213426559876
20
-931.198985933056
30
0.0
11
212.213426559876
21
-931.068674905377
31
0.0
  0
LINE
 8
GROUP0
10
212.213426559876
20
-931.068674905377
30
0.0
11
212.213426559876
21
-930.829891626155
31
0.0
  0
LINE
 8
GROUP0
10
212.213426559876
20
-930.829891626155
30
0.0
11
212.213426559876
21
-930.548494248111
31
0.0
  0
LINE
 8
GROUP0
10
212.213426559876
20
-930.548494248111
30
0.0
11
212.213426559876
21
-930.29034092397
31
0.0
  0
LINE
 8
GROUP0
10
212.213426559876
20
-930.29034092397
30
0.0
11
212.213426559876
21
-930.121289806454
31
0.0
  0
LINE
 8
GROUP0
10
212.213426559876
20
-930.121289806454
30
0.0
11
212.208980008717
21
-930.09001176391
31
0.0
  0
LINE
 8
GROUP0
10
212.208980008717
20
-930.09001176391
30
0.0
11
212.167370773254
21
-930.09001176391
31
0.0
  0
LINE
 8
GROUP0
10
212.167370773254
20
-930.09001176391
30
0.0
11
212.097151817167
21
-930.09001176391
31
0.0
  0
LINE
 8
GROUP0
10
212.097151817167
20
-930.09001176391
30
0.0
11
212.017029496248
21
-930.09001176391
31
0.0
  0
LINE
 8
GROUP0
10
212.017029496248
20
-930.09001176391
30
0.0
11
211.94571016629
21
-930.09001176391
31
0.0
  0
LINE
 8
GROUP0
10
211.94571016629
20
-930.09001176391
30
0.0
11
211.901900183087
21
-930.09001176391
31
0.0
  0
LINE
 8
GROUP0
10
211.901900183087
20
-930.09001176391
30
0.0
11
211.896133056367
21
-930.042507145561
31
0.0
  0
LINE
 8
GROUP0
10
211.896133056367
20
-930.042507145561
30
0.0
11
211.896133056367
21
-929.977890459652
31
0.0
  0
LINE
 8
GROUP0
10
211.896133056367
20
-929.977890459652
30
0.0
11
211.896133056367
21
-929.906394943606
31
0.0
  0
LINE
 8
GROUP0
10
211.896133056367
20
-929.906394943606
30
0.0
11
211.896133056367
21
-929.844726327757
31
0.0
  0
LINE
 8
GROUP0
10
211.896133056367
20
-929.844726327757
30
0.0
11
211.896133056367
21
-929.809590342442
31
0.0
  0
LINE
 8
GROUP0
10
211.896133056367
20
-929.809590342442
30
0.0
11
211.956830034414
21
-929.806652473317
31
0.0
  0
LINE
 8
GROUP0
10
211.956830034414
20
-929.806652473317
30
0.0
11
212.031062118734
21
-929.806652473317
31
0.0
  0
LINE
 8
GROUP0
10
212.031062118734
20
-929.806652473317
30
0.0
11
212.110796072405
21
-929.806652473317
31
0.0
  0
LINE
 8
GROUP0
10
212.110796072405
20
-929.806652473317
30
0.0
11
212.177325539633
21
-929.806652473317
31
0.0
  0
LINE
 8
GROUP0
10
212.177325539633
20
-929.806652473317
30
0.0
11
212.211944164627
21
-929.806652473317
31
0.0
  0
LINE
 8
GROUP0
10
212.211944164627
20
-929.806652473317
30
0.0
11
212.213426559876
21
-929.724387672975
31
0.0
  0
LINE
 8
GROUP0
10
212.213426559876
20
-929.724387672975
30
0.0
11
212.213426559876
21
-929.633342628617
31
0.0
  0
LINE
 8
GROUP0
10
212.213426559876
20
-929.633342628617
30
0.0
11
212.213426559876
21
-929.538335163043
31
0.0
  0
LINE
 8
GROUP0
10
212.213426559876
20
-929.538335163043
30
0.0
11
212.213426559876
21
-929.46181899648
31
0.0
  0
LINE
 8
GROUP0
10
212.213426559876
20
-929.46181899648
30
0.0
11
212.213426559876
21
-929.426247849154
31
0.0
  0
LINE
 8
GROUP0
10
212.213426559876
20
-929.426247849154
30
0.0
11
212.301386112324
21
-929.399238376438
31
0.0
  0
LINE
 8
GROUP0
10
212.301386112324
20
-929.399238376438
30
0.0
11
212.389954958217
21
-929.372495866415
31
0.0
  0
LINE
 8
GROUP0
10
212.389954958217
20
-929.372495866415
30
0.0
11
212.479786067947
21
-929.345372227983
31
0.0
  0
LINE
 8
GROUP0
10
212.479786067947
20
-929.345372227983
30
0.0
11
212.549420956285
21
-929.324346644093
31
0.0
  0
LINE
 8
GROUP0
10
212.549420956285
20
-929.324346644093
30
0.0
11
212.577401138004
21
-929.315898297696
31
0.0
 0
ENDSEC
 0
EOF
