 0
SECTION
 2
ENTITIES
  0
LINE
 8
COMPONENT0
10
3199.68398628136
20
126.625972674683
30
3.20593071881819e-028
11
3325.6799962893
21
126.625972674683
31
3.20593071881819e-028
  0
LINE
 8
COMPONENT0
10
3725.71579068964
20
126.625972674683
30
3.20593071881819e-028
11
3730.71579068964
21
126.625972674683
31
3.20593071881819e-028
  0
LINE
 8
COMPONENT0
10
3199.68398628136
20
126.625972674683
30
3.20593071881819e-028
11
3194.68398628136
21
126.625972674683
31
3.20593071881819e-028
  0
LINE
 8
COMPONENT0
10
3669.71607114375
20
314.126107171299
30
3.20593071881819e-028
11
3725.71579068964
21
314.126107171299
31
3.20593071881819e-028
  0
LINE
 8
COMPONENT0
10
3515.5303764764
20
314.126107171299
30
3.20593071881819e-028
11
3667.71584738548
21
314.126107171299
31
3.20593071881819e-028
  0
LINE
 8
COMPONENT0
10
3667.71584738548
20
314.126107171299
30
3.20593071881819e-028
11
3669.71607114375
21
314.126107171299
31
3.20593071881819e-028
  0
LINE
 8
COMPONENT0
10
3495.51470301242
20
314.126107171299
30
3.20593071881819e-028
11
3515.5303764764
21
314.126107171299
31
3.20593071881819e-028
  0
LINE
 8
COMPONENT0
10
3415.53038513048
20
314.126107171299
30
3.20593071881819e-028
11
3495.51470301242
21
314.126107171299
31
3.20593071881819e-028
  0
LINE
 8
COMPONENT0
10
3199.68398628136
20
314.126107171299
30
3.20593071881819e-028
11
3199.68398628136
21
314.48990949454
31
3.20593071881819e-028
  0
LINE
 8
COMPONENT0
10
3325.6799962893
20
314.126107171299
30
3.20593071881819e-028
11
3327.67935877313
21
314.126107171299
31
3.20593071881819e-028
  0
LINE
 8
COMPONENT0
10
3327.67935877313
20
314.126107171299
30
3.20593071881819e-028
11
3415.53038513048
21
314.126107171299
31
3.20593071881819e-028
  0
LINE
 8
COMPONENT0
10
3515.5303764764
20
221.126209959787
30
3.20593071881819e-028
11
3415.53038513048
21
221.126209959787
31
3.20593071881819e-028
  0
LINE
 8
COMPONENT0
10
3256.76167691572
20
193.913382769648
30
3.20593071881819e-028
11
3264.76153841948
21
193.913382769648
31
3.20593071881819e-028
  0
LINE
 8
COMPONENT0
10
3252.76157390895
20
197.913485776417
30
3.20593071881819e-028
11
3252.76157390895
21
245.913516073434
31
3.20593071881819e-028
  0
LINE
 8
COMPONENT0
10
3268.76164142625
20
197.913485776417
30
3.20593071881819e-028
11
3268.76164142625
21
245.913516073434
31
3.20593071881819e-028
  0
LINE
 8
COMPONENT0
10
3256.76167691572
20
249.913446825315
30
3.20593071881819e-028
11
3264.76153841948
21
249.913446825315
31
3.20593071881819e-028
  0
LINE
 8
COMPONENT0
10
3252.82602181111
20
246.632526642374
30
3.20593071881819e-028
11
3252.76157390895
21
245.913516073434
31
3.20593071881819e-028
  0
LINE
 8
COMPONENT0
10
3253.01183356037
20
247.309248990769
30
3.20593071881819e-028
11
3252.82602181111
21
246.632526642374
31
3.20593071881819e-028
  0
LINE
 8
COMPONENT0
10
3253.30771122093
20
247.932388018274
30
3.20593071881819e-028
11
3253.01183356037
21
247.309248990769
31
3.20593071881819e-028
  0
LINE
 8
COMPONENT0
10
3253.70235685697
20
248.490648624545
30
3.20593071881819e-028
11
3253.30771122093
21
247.932388018274
31
3.20593071881819e-028
  0
LINE
 8
COMPONENT0
10
3254.18447253266
20
248.972735709236
30
3.20593071881819e-028
11
3253.70235685697
21
248.490648624545
31
3.20593071881819e-028
  0
LINE
 8
COMPONENT0
10
3254.7427603122
20
249.367354172004
30
3.20593071881819e-028
11
3254.18447253266
21
248.972735709236
31
3.20593071881819e-028
  0
LINE
 8
COMPONENT0
10
3255.36592225977
20
249.663208912502
30
3.20593071881819e-028
11
3254.7427603122
21
249.367354172004
31
3.20593071881819e-028
  0
LINE
 8
COMPONENT0
10
3256.04266043954
20
249.849004830388
30
3.20593071881819e-028
11
3255.36592225977
21
249.663208912502
31
3.20593071881819e-028
  0
LINE
 8
COMPONENT0
10
3256.76167691572
20
249.913446825315
30
3.20593071881819e-028
11
3256.04266043954
21
249.849004830388
31
3.20593071881819e-028
  0
LINE
 8
COMPONENT0
10
3256.04266043954
20
193.977830671807
30
3.20593071881819e-028
11
3256.76167691572
21
193.913382769648
31
3.20593071881819e-028
  0
LINE
 8
COMPONENT0
10
3255.36592225977
20
194.163642421075
30
3.20593071881819e-028
11
3256.04266043954
21
193.977830671807
31
3.20593071881819e-028
  0
LINE
 8
COMPONENT0
10
3254.7427603122
20
194.459520081634
30
3.20593071881819e-028
11
3255.36592225977
21
194.163642421075
31
3.20593071881819e-028
  0
LINE
 8
COMPONENT0
10
3254.18447253266
20
194.854165717669
30
3.20593071881819e-028
11
3254.7427603122
21
194.459520081634
31
3.20593071881819e-028
  0
LINE
 8
COMPONENT0
10
3253.70235685697
20
195.336281393364
30
3.20593071881819e-028
11
3254.18447253266
21
194.854165717669
31
3.20593071881819e-028
  0
LINE
 8
COMPONENT0
10
3253.30771122093
20
195.894569172902
30
3.20593071881819e-028
11
3253.70235685697
21
195.336281393364
31
3.20593071881819e-028
  0
LINE
 8
COMPONENT0
10
3253.01183356037
20
196.517731120468
30
3.20593071881819e-028
11
3253.30771122093
21
195.894569172902
31
3.20593071881819e-028
  0
LINE
 8
COMPONENT0
10
3252.82602181111
20
197.194469300245
30
3.20593071881819e-028
11
3253.01183356037
21
196.517731120468
31
3.20593071881819e-028
  0
LINE
 8
COMPONENT0
10
3252.76157390895
20
197.913485776417
30
3.20593071881819e-028
11
3252.82602181111
21
197.194469300245
31
3.20593071881819e-028
  0
LINE
 8
COMPONENT0
10
3265.48060026319
20
249.849004830388
30
3.20593071881819e-028
11
3264.76153841948
21
249.913446825315
31
3.20593071881819e-028
  0
LINE
 8
COMPONENT0
10
3266.15736254448
20
249.663208912502
30
3.20593071881819e-028
11
3265.48060026319
21
249.849004830388
31
3.20593071881819e-028
  0
LINE
 8
COMPONENT0
10
3266.78053158072
20
249.367354172004
30
3.20593071881819e-028
11
3266.15736254448
21
249.663208912502
31
3.20593071881819e-028
  0
LINE
 8
COMPONENT0
10
3267.33881368932
20
248.972735709236
30
3.20593071881819e-028
11
3266.78053158072
21
249.367354172004
31
3.20593071881819e-028
  0
LINE
 8
COMPONENT0
10
3267.82091518766
20
248.490648624545
30
3.20593071881819e-028
11
3267.33881368932
21
248.972735709236
31
3.20593071881819e-028
  0
LINE
 8
COMPONENT0
10
3268.21554239313
20
247.932388018274
30
3.20593071881819e-028
11
3267.82091518766
21
248.490648624545
31
3.20593071881819e-028
  0
LINE
 8
COMPONENT0
10
3268.51140162312
20
247.309248990769
30
3.20593071881819e-028
11
3268.21554239313
21
247.932388018274
31
3.20593071881819e-028
  0
LINE
 8
COMPONENT0
10
3268.69719919503
20
246.632526642374
30
3.20593071881819e-028
11
3268.51140162312
21
247.309248990769
31
3.20593071881819e-028
  0
LINE
 8
COMPONENT0
10
3268.76164142625
20
245.913516073434
30
3.20593071881819e-028
11
3268.69719919503
21
246.632526642374
31
3.20593071881819e-028
  0
LINE
 8
COMPONENT0
10
3268.69719919503
20
197.194469300245
30
3.20593071881819e-028
11
3268.76164142625
21
197.913485776417
31
3.20593071881819e-028
  0
LINE
 8
COMPONENT0
10
3268.51140162312
20
196.517731120468
30
3.20593071881819e-028
11
3268.69719919503
21
197.194469300245
31
3.20593071881819e-028
  0
LINE
 8
COMPONENT0
10
3268.21554239313
20
195.894569172902
30
3.20593071881819e-028
11
3268.51140162312
21
196.517731120468
31
3.20593071881819e-028
  0
LINE
 8
COMPONENT0
10
3267.82091518766
20
195.336281393364
30
3.20593071881819e-028
11
3268.21554239313
21
195.894569172902
31
3.20593071881819e-028
  0
LINE
 8
COMPONENT0
10
3267.33881368932
20
194.854165717669
30
3.20593071881819e-028
11
3267.82091518766
21
195.336281393364
31
3.20593071881819e-028
  0
LINE
 8
COMPONENT0
10
3266.78053158072
20
194.459520081634
30
3.20593071881819e-028
11
3267.33881368932
21
194.854165717669
31
3.20593071881819e-028
  0
LINE
 8
COMPONENT0
10
3266.15736254448
20
194.163642421075
30
3.20593071881819e-028
11
3266.78053158072
21
194.459520081634
31
3.20593071881819e-028
  0
LINE
 8
COMPONENT0
10
3265.48060026319
20
193.977830671807
30
3.20593071881819e-028
11
3266.15736254448
21
194.163642421075
31
3.20593071881819e-028
  0
LINE
 8
COMPONENT0
10
3264.76153841948
20
193.913382769648
30
3.20593071881819e-028
11
3265.48060026319
21
193.977830671807
31
3.20593071881819e-028
  0
LINE
 8
COMPONENT0
10
3515.5303764764
20
221.126209959787
30
3.20593071881819e-028
11
3515.5303764764
21
314.126107171299
31
3.20593071881819e-028
  0
LINE
 8
COMPONENT0
10
3725.71579068964
20
314.126107171299
30
3.20593071881819e-028
11
3725.71579068964
21
126.625972674683
31
3.20593071881819e-028
  0
LINE
 8
COMPONENT0
10
3199.68398628136
20
314.126107171299
30
3.20593071881819e-028
11
3325.6799962893
21
314.126107171299
31
3.20593071881819e-028
  0
LINE
 8
COMPONENT0
10
3275.63459111085
20
310.739201607659
30
3.20593071881819e-028
11
3273.67848494641
21
310.930434491014
31
3.20593071881819e-028
  0
LINE
 8
COMPONENT0
10
3277.46185573832
20
310.189948666484
30
3.20593071881819e-028
11
3275.63459111085
21
310.739201607659
31
3.20593071881819e-028
  0
LINE
 8
COMPONENT0
10
3279.12361026549
20
309.319344230827
30
3.20593071881819e-028
11
3277.46185573832
21
310.189948666484
31
3.20593071881819e-028
  0
LINE
 8
COMPONENT0
10
3280.58318612903
20
308.164056864025
30
3.20593071881819e-028
11
3279.12361026549
21
309.319344230827
31
3.20593071881819e-028
  0
LINE
 8
COMPONENT0
10
3281.8039147656
20
306.760755129416
30
3.20593071881819e-028
11
3280.58318612903
21
308.164056864025
31
3.20593071881819e-028
  0
LINE
 8
COMPONENT0
10
3282.74912761185
20
305.146107590338
30
3.20593071881819e-028
11
3281.8039147656
21
306.760755129416
31
3.20593071881819e-028
  0
LINE
 8
COMPONENT0
10
3283.38215610446
20
303.356782810126
30
3.20593071881819e-028
11
3282.74912761185
21
305.146107590338
31
3.20593071881819e-028
  0
LINE
 8
COMPONENT0
10
3283.66633168009
20
301.42944935212
30
3.20593071881819e-028
11
3283.38215610446
21
303.356782810126
31
3.20593071881819e-028
  0
LINE
 8
COMPONENT0
10
3283.57014229211
20
299.452627089266
30
3.20593071881819e-028
11
3283.66633168009
21
301.42944935212
31
3.20593071881819e-028
  0
LINE
 8
COMPONENT0
10
3283.10695668757
20
297.589730351663
30
3.20593071881819e-028
11
3283.57014229211
21
299.452627089266
31
3.20593071881819e-028
  0
LINE
 8
COMPONENT0
10
3282.31325244772
20
295.883185316405
30
3.20593071881819e-028
11
3283.10695668757
21
297.589730351663
31
3.20593071881819e-028
  0
LINE
 8
COMPONENT0
10
3281.2256981359
20
294.369656865616
30
3.20593071881819e-028
11
3282.31325244772
21
295.883185316405
31
3.20593071881819e-028
  0
LINE
 8
COMPONENT0
10
3279.88096231543
20
293.085809881421
30
3.20593071881819e-028
11
3281.2256981359
21
294.369656865616
31
3.20593071881819e-028
  0
LINE
 8
COMPONENT0
10
3278.31571354965
20
292.068309245944
30
3.20593071881819e-028
11
3279.88096231543
21
293.085809881421
31
3.20593071881819e-028
  0
LINE
 8
COMPONENT0
10
3276.56662040191
20
291.353819841308
30
3.20593071881819e-028
11
3278.31571354965
21
292.068309245944
31
3.20593071881819e-028
  0
LINE
 8
COMPONENT0
10
3274.67035143554
20
290.979006549639
30
3.20593071881819e-028
11
3276.56662040191
21
291.353819841308
31
3.20593071881819e-028
  0
LINE
 8
COMPONENT0
10
3272.68662027872
20
290.979006549639
30
3.20593071881819e-028
11
3274.67035143554
21
290.979006549639
31
3.20593071881819e-028
  0
LINE
 8
COMPONENT0
10
3270.79036450336
20
291.353819841308
30
3.20593071881819e-028
11
3272.68662027872
21
290.979006549639
31
3.20593071881819e-028
  0
LINE
 8
COMPONENT0
10
3269.04129420982
20
292.068309245944
30
3.20593071881819e-028
11
3270.79036450336
21
291.353819841308
31
3.20593071881819e-028
  0
LINE
 8
COMPONENT0
10
3267.47607428021
20
293.085809881421
30
3.20593071881819e-028
11
3269.04129420982
21
292.068309245944
31
3.20593071881819e-028
  0
LINE
 8
COMPONENT0
10
3266.13136959667
20
294.369656865616
30
3.20593071881819e-028
11
3267.47607428021
21
293.085809881421
31
3.20593071881819e-028
  0
LINE
 8
COMPONENT0
10
3265.04384504131
20
295.883185316405
30
3.20593071881819e-028
11
3266.13136959667
21
294.369656865616
31
3.20593071881819e-028
  0
LINE
 8
COMPONENT0
10
3264.25016549627
20
297.589730351663
30
3.20593071881819e-028
11
3265.04384504131
21
295.883185316405
31
3.20593071881819e-028
  0
LINE
 8
COMPONENT0
10
3263.78699584366
20
299.452627089266
30
3.20593071881819e-028
11
3264.25016549627
21
297.589730351663
31
3.20593071881819e-028
  0
LINE
 8
COMPONENT0
10
3263.69081000268
20
301.42944935212
30
3.20593071881819e-028
11
3263.78699584366
21
299.452627089266
31
3.20593071881819e-028
  0
LINE
 8
COMPONENT0
10
3263.97497537828
20
303.356782810126
30
3.20593071881819e-028
11
3263.69081000268
21
301.42944935212
31
3.20593071881819e-028
  0
LINE
 8
COMPONENT0
10
3264.60798308737
20
305.146107590338
30
3.20593071881819e-028
11
3263.97497537828
21
303.356782810126
31
3.20593071881819e-028
  0
LINE
 8
COMPONENT0
10
3265.55316824783
20
306.760755129416
30
3.20593071881819e-028
11
3264.60798308737
21
305.146107590338
31
3.20593071881819e-028
  0
LINE
 8
COMPONENT0
10
3266.77386597755
20
308.164056864025
30
3.20593071881819e-028
11
3265.55316824783
21
306.760755129416
31
3.20593071881819e-028
  0
LINE
 8
COMPONENT0
10
3268.23341139439
20
309.319344230827
30
3.20593071881819e-028
11
3266.77386597755
21
308.164056864025
31
3.20593071881819e-028
  0
LINE
 8
COMPONENT0
10
3269.89513961623
20
310.189948666484
30
3.20593071881819e-028
11
3268.23341139439
21
309.319344230827
31
3.20593071881819e-028
  0
LINE
 8
COMPONENT0
10
3271.72238576094
20
310.739201607659
30
3.20593071881819e-028
11
3269.89513961623
21
310.189948666484
31
3.20593071881819e-028
  0
LINE
 8
COMPONENT0
10
3273.67848494641
20
310.930434491014
30
3.20593071881819e-028
11
3271.72238576094
21
310.739201607659
31
3.20593071881819e-028
  0
LINE
 8
COMPONENT0
10
3209.54409457178
20
201.836928896776
30
3.20593071881819e-028
11
3208.7616466187
21
201.913416528299
31
3.20593071881819e-028
  0
LINE
 8
COMPONENT0
10
3210.27499403817
20
201.617242077037
30
3.20593071881819e-028
11
3209.54409457178
21
201.836928896776
31
3.20593071881819e-028
  0
LINE
 8
COMPONENT0
10
3210.93968090561
20
201.269020181325
30
3.20593071881819e-028
11
3210.27499403817
21
201.617242077037
31
3.20593071881819e-028
  0
LINE
 8
COMPONENT0
10
3211.52349106188
20
200.806927321883
30
3.20593071881819e-028
11
3210.93968090561
21
201.269020181325
31
3.20593071881819e-028
  0
LINE
 8
COMPONENT0
10
3212.01176039471
20
200.245627610954
30
3.20593071881819e-028
11
3211.52349106188
21
200.806927321883
31
3.20593071881819e-028
  0
LINE
 8
COMPONENT0
10
3212.38982479188
20
199.599785160781
30
3.20593071881819e-028
11
3212.01176039471
21
200.245627610954
31
3.20593071881819e-028
  0
LINE
 8
COMPONENT0
10
3212.64302014113
20
198.884064083608
30
3.20593071881819e-028
11
3212.38982479188
21
199.599785160781
31
3.20593071881819e-028
  0
LINE
 8
COMPONENT0
10
3212.75668233023
20
198.113128491677
30
3.20593071881819e-028
11
3212.64302014113
21
198.884064083608
31
3.20593071881819e-028
  0
LINE
 8
COMPONENT0
10
3212.71820938772
20
197.322385945916
30
3.20593071881819e-028
11
3212.75668233023
21
198.113128491677
31
3.20593071881819e-028
  0
LINE
 8
COMPONENT0
10
3212.53294760451
20
196.57720864541
30
3.20593071881819e-028
11
3212.71820938772
21
197.322385945916
31
3.20593071881819e-028
  0
LINE
 8
COMPONENT0
10
3212.21548471727
20
195.894569172902
30
3.20593071881819e-028
11
3212.53294760451
21
196.57720864541
31
3.20593071881819e-028
  0
LINE
 8
COMPONENT0
10
3211.78048483824
20
195.289135321849
30
3.20593071881819e-028
11
3212.21548471727
21
195.894569172902
31
3.20593071881819e-028
  0
LINE
 8
COMPONENT0
10
3211.24261207966
20
194.775574885706
30
3.20593071881819e-028
11
3211.78048483824
21
195.289135321849
31
3.20593071881819e-028
  0
LINE
 8
COMPONENT0
10
3210.61653055377
20
194.368555657929
30
3.20593071881819e-028
11
3211.24261207966
21
194.775574885706
31
3.20593071881819e-028
  0
LINE
 8
COMPONENT0
10
3209.91690437283
20
194.082745431975
30
3.20593071881819e-028
11
3210.61653055377
21
194.368555657929
31
3.20593071881819e-028
  0
LINE
 8
COMPONENT0
10
3209.15839764906
20
193.932812001301
30
3.20593071881819e-028
11
3209.91690437283
21
194.082745431975
31
3.20593071881819e-028
  0
LINE
 8
COMPONENT0
10
3208.36489558834
20
193.932812001301
30
3.20593071881819e-028
11
3209.15839764906
21
193.932812001301
31
3.20593071881819e-028
  0
LINE
 8
COMPONENT0
10
3207.60638886457
20
194.082745431975
30
3.20593071881819e-028
11
3208.36489558834
21
193.932812001301
31
3.20593071881819e-028
  0
LINE
 8
COMPONENT0
10
3206.90676268363
20
194.368555657929
30
3.20593071881819e-028
11
3207.60638886457
21
194.082745431975
31
3.20593071881819e-028
  0
LINE
 8
COMPONENT0
10
3206.28068115774
20
194.775574885706
30
3.20593071881819e-028
11
3206.90676268363
21
194.368555657929
31
3.20593071881819e-028
  0
LINE
 8
COMPONENT0
10
3205.74280839916
20
195.289135321849
30
3.20593071881819e-028
11
3206.28068115774
21
194.775574885706
31
3.20593071881819e-028
  0
LINE
 8
COMPONENT0
10
3205.30780852013
20
195.894569172902
30
3.20593071881819e-028
11
3205.74280839916
21
195.289135321849
31
3.20593071881819e-028
  0
LINE
 8
COMPONENT0
10
3204.99034563289
20
196.57720864541
30
3.20593071881819e-028
11
3205.30780852013
21
195.894569172902
31
3.20593071881819e-028
  0
LINE
 8
COMPONENT0
10
3204.80508384968
20
197.322385945916
30
3.20593071881819e-028
11
3204.99034563289
21
196.57720864541
31
3.20593071881819e-028
  0
LINE
 8
COMPONENT0
10
3204.76661090717
20
198.113128491677
30
3.20593071881819e-028
11
3204.80508384968
21
197.322385945916
31
3.20593071881819e-028
  0
LINE
 8
COMPONENT0
10
3204.88027309627
20
198.884064083608
30
3.20593071881819e-028
11
3204.76661090717
21
198.113128491677
31
3.20593071881819e-028
  0
LINE
 8
COMPONENT0
10
3205.13346844552
20
199.599785160781
30
3.20593071881819e-028
11
3204.88027309627
21
198.884064083608
31
3.20593071881819e-028
  0
LINE
 8
COMPONENT0
10
3205.51153284269
20
200.245627610954
30
3.20593071881819e-028
11
3205.13346844552
21
199.599785160781
31
3.20593071881819e-028
  0
LINE
 8
COMPONENT0
10
3205.99980217552
20
200.806927321883
30
3.20593071881819e-028
11
3205.51153284269
21
200.245627610954
31
3.20593071881819e-028
  0
LINE
 8
COMPONENT0
10
3206.58361233179
20
201.269020181325
30
3.20593071881819e-028
11
3205.99980217552
21
200.806927321883
31
3.20593071881819e-028
  0
LINE
 8
COMPONENT0
10
3207.24829919923
20
201.617242077037
30
3.20593071881819e-028
11
3206.58361233179
21
201.269020181325
31
3.20593071881819e-028
  0
LINE
 8
COMPONENT0
10
3207.97919866562
20
201.836928896776
30
3.20593071881819e-028
11
3207.24829919923
21
201.617242077037
31
3.20593071881819e-028
  0
LINE
 8
COMPONENT0
10
3208.7616466187
20
201.913416528299
30
3.20593071881819e-028
11
3207.97919866562
21
201.836928896776
31
3.20593071881819e-028
  0
LINE
 8
COMPONENT0
10
3308.63470716417
20
194.705215510493
30
3.20593071881819e-028
11
3306.67855960526
21
194.896441414882
31
3.20593071881819e-028
  0
LINE
 8
COMPONENT0
10
3310.46197683414
20
194.155981052076
30
3.20593071881819e-028
11
3308.63470716417
21
194.705215510493
31
3.20593071881819e-028
  0
LINE
 8
COMPONENT0
10
3312.12370925486
20
193.285402921754
30
3.20593071881819e-028
11
3310.46197683414
21
194.155981052076
31
3.20593071881819e-028
  0
LINE
 8
COMPONENT0
10
3313.58324506604
20
192.130146001652
30
3.20593071881819e-028
11
3312.12370925486
21
193.285402921754
31
3.20593071881819e-028
  0
LINE
 8
COMPONENT0
10
3314.80392490736
20
190.726875173894
30
3.20593071881819e-028
11
3313.58324506604
21
192.130146001652
31
3.20593071881819e-028
  0
LINE
 8
COMPONENT0
10
3315.74908941852
20
189.112255320606
30
3.20593071881819e-028
11
3314.80392490736
21
190.726875173894
31
3.20593071881819e-028
  0
LINE
 8
COMPONENT0
10
3316.38207923922
20
187.32295132391
30
3.20593071881819e-028
11
3315.74908941852
21
189.112255320606
31
3.20593071881819e-028
  0
LINE
 8
COMPONENT0
10
3316.66623500915
20
185.395628065931
30
3.20593071881819e-028
11
3316.38207923922
21
187.32295132391
31
3.20593071881819e-028
  0
LINE
 8
COMPONENT0
10
3316.57005259055
20
183.418802256075
30
3.20593071881819e-028
11
3316.66623500915
21
185.395628065931
31
3.20593071881819e-028
  0
LINE
 8
COMPONENT0
10
3316.10689737519
20
181.555889566549
30
3.20593071881819e-028
11
3316.57005259055
21
183.418802256075
31
3.20593071881819e-028
  0
LINE
 8
COMPONENT0
10
3315.31323778923
20
179.849319836486
30
3.20593071881819e-028
11
3316.10689737519
21
181.555889566549
31
3.20593071881819e-028
  0
LINE
 8
COMPONENT0
10
3314.22573319295
20
178.335761629225
30
3.20593071881819e-028
11
3315.31323778923
21
179.849319836486
31
3.20593071881819e-028
  0
LINE
 8
COMPONENT0
10
3312.88104294666
20
177.051883508103
30
3.20593071881819e-028
11
3314.22573319295
21
178.335761629225
31
3.20593071881819e-028
  0
LINE
 8
COMPONENT0
10
3311.31582641068
20
176.034354036457
30
3.20593071881819e-028
11
3312.88104294666
21
177.051883508103
31
3.20593071881819e-028
  0
LINE
 8
COMPONENT0
10
3309.56674294529
20
175.319841777623
30
3.20593071881819e-028
11
3309.76220030988
21
175.399687414405
31
3.20593071881819e-028
  0
LINE
 8
COMPONENT0
10
3307.67045191082
20
174.945015294941
30
3.20593071881819e-028
11
3309.56674294529
21
175.319841777623
31
3.20593071881819e-028
  0
LINE
 8
COMPONENT0
10
3305.68669493757
20
174.945015294941
30
3.20593071881819e-028
11
3307.67045191082
21
174.945015294941
31
3.20593071881819e-028
  0
LINE
 8
COMPONENT0
10
3303.79043916221
20
175.319841777623
30
3.20593071881819e-028
11
3305.08057776563
21
175.064824431769
31
3.20593071881819e-028
  0
LINE
 8
COMPONENT0
10
3302.04136886867
20
176.034354036457
30
3.20593071881819e-028
11
3303.79043916221
21
175.319841777623
31
3.20593071881819e-028
  0
LINE
 8
COMPONENT0
10
3300.47614893906
20
177.051883508103
30
3.20593071881819e-028
11
3302.04136886867
21
176.034354036457
31
3.20593071881819e-028
  0
LINE
 8
COMPONENT0
10
3299.13144425552
20
178.335761629225
30
3.20593071881819e-028
11
3300.47614893906
21
177.051883508103
31
3.20593071881819e-028
  0
LINE
 8
COMPONENT0
10
3298.04391970016
20
179.849319836486
30
3.20593071881819e-028
11
3299.13144425552
21
178.335761629225
31
3.20593071881819e-028
  0
LINE
 8
COMPONENT0
10
3297.25024015512
20
181.555889566549
30
3.20593071881819e-028
11
3298.04391970016
21
179.849319836486
31
3.20593071881819e-028
  0
LINE
 8
COMPONENT0
10
3296.78707050251
20
183.418802256075
30
3.20593071881819e-028
11
3297.25024015512
21
181.555889566549
31
3.20593071881819e-028
  0
LINE
 8
COMPONENT0
10
3296.69088466153
20
185.395628065931
30
3.20593071881819e-028
11
3296.78707050251
21
183.418802256075
31
3.20593071881819e-028
  0
LINE
 8
COMPONENT0
10
3296.97505003713
20
187.32295132391
30
3.20593071881819e-028
11
3296.69088466153
21
185.395628065931
31
3.20593071881819e-028
  0
LINE
 8
COMPONENT0
10
3297.60805774622
20
189.112255320606
30
3.20593071881819e-028
11
3296.97505003713
21
187.32295132391
31
3.20593071881819e-028
  0
LINE
 8
COMPONENT0
10
3298.55324290669
20
190.726875173894
30
3.20593071881819e-028
11
3297.60805774622
21
189.112255320606
31
3.20593071881819e-028
  0
LINE
 8
COMPONENT0
10
3299.7739406364
20
192.130146001652
30
3.20593071881819e-028
11
3298.55324290669
21
190.726875173894
31
3.20593071881819e-028
  0
LINE
 8
COMPONENT0
10
3301.23348605324
20
193.285402921754
30
3.20593071881819e-028
11
3299.7739406364
21
192.130146001652
31
3.20593071881819e-028
  0
LINE
 8
COMPONENT0
10
3302.89521427508
20
194.155981052076
30
3.20593071881819e-028
11
3301.23348605324
21
193.285402921754
31
3.20593071881819e-028
  0
LINE
 8
COMPONENT0
10
3304.7224604198
20
194.705215510493
30
3.20593071881819e-028
11
3302.89521427508
21
194.155981052076
31
3.20593071881819e-028
  0
LINE
 8
COMPONENT0
10
3306.67855960526
20
194.896441414882
30
3.20593071881819e-028
11
3304.7224604198
21
194.705215510493
31
3.20593071881819e-028
  0
LINE
 8
COMPONENT0
10
3214.42528133015
20
175.936856207308
30
3.20593071881819e-028
11
3213.64283337707
21
176.013343838831
31
3.20593071881819e-028
  0
LINE
 8
COMPONENT0
10
3215.15618079654
20
175.717169387569
30
3.20593071881819e-028
11
3214.42528133015
21
175.936856207308
31
3.20593071881819e-028
  0
LINE
 8
COMPONENT0
10
3215.82086766398
20
175.368947491857
30
3.20593071881819e-028
11
3215.15618079654
21
175.717169387569
31
3.20593071881819e-028
  0
LINE
 8
COMPONENT0
10
3216.40467782024
20
174.906854632415
30
3.20593071881819e-028
11
3216.35646547093
21
174.945015294941
31
3.20593071881819e-028
  0
LINE
 8
COMPONENT0
10
3216.89294715308
20
174.345554921485
30
3.20593071881819e-028
11
3216.40467782024
21
174.906854632415
31
3.20593071881819e-028
  0
LINE
 8
COMPONENT0
10
3217.27101155025
20
173.699712471313
30
3.20593071881819e-028
11
3216.89294715308
21
174.345554921485
31
3.20593071881819e-028
  0
LINE
 8
COMPONENT0
10
3217.5242068995
20
172.98399139414
30
3.20593071881819e-028
11
3217.27101155025
21
173.699712471313
31
3.20593071881819e-028
  0
LINE
 8
COMPONENT0
10
3217.6378690886
20
172.213055802209
30
3.20593071881819e-028
11
3217.5242068995
21
172.98399139414
31
3.20593071881819e-028
  0
LINE
 8
COMPONENT0
10
3217.59939614609
20
171.422313256448
30
3.20593071881819e-028
11
3217.6378690886
21
172.213055802209
31
3.20593071881819e-028
  0
LINE
 8
COMPONENT0
10
3217.41413436288
20
170.677135955942
30
3.20593071881819e-028
11
3217.59939614609
21
171.422313256448
31
3.20593071881819e-028
  0
LINE
 8
COMPONENT0
10
3217.09667147564
20
169.994496483434
30
3.20593071881819e-028
11
3217.41413436288
21
170.677135955942
31
3.20593071881819e-028
  0
LINE
 8
COMPONENT0
10
3216.66167159661
20
169.389062632381
30
3.20593071881819e-028
11
3217.09667147564
21
169.994496483434
31
3.20593071881819e-028
  0
LINE
 8
COMPONENT0
10
3216.12379883803
20
168.875502196238
30
3.20593071881819e-028
11
3216.66167159661
21
169.389062632381
31
3.20593071881819e-028
  0
LINE
 8
COMPONENT0
10
3215.49771731214
20
168.468482968461
30
3.20593071881819e-028
11
3216.12379883803
21
168.875502196238
31
3.20593071881819e-028
  0
LINE
 8
COMPONENT0
10
3214.79809113119
20
168.182672742507
30
3.20593071881819e-028
11
3215.49771731214
21
168.468482968461
31
3.20593071881819e-028
  0
LINE
 8
COMPONENT0
10
3214.03958440743
20
168.032739311832
30
3.20593071881819e-028
11
3214.79809113119
21
168.182672742507
31
3.20593071881819e-028
  0
LINE
 8
COMPONENT0
10
3213.24608234671
20
168.032739311832
30
3.20593071881819e-028
11
3214.03958440743
21
168.032739311832
31
3.20593071881819e-028
  0
LINE
 8
COMPONENT0
10
3212.48757562294
20
168.182672742507
30
3.20593071881819e-028
11
3213.24608234671
21
168.032739311832
31
3.20593071881819e-028
  0
LINE
 8
COMPONENT0
10
3211.787949442
20
168.468482968461
30
3.20593071881819e-028
11
3212.48757562294
21
168.182672742507
31
3.20593071881819e-028
  0
LINE
 8
COMPONENT0
10
3211.16186791611
20
168.875502196238
30
3.20593071881819e-028
11
3211.787949442
21
168.468482968461
31
3.20593071881819e-028
  0
LINE
 8
COMPONENT0
10
3210.62399515753
20
169.389062632381
30
3.20593071881819e-028
11
3211.16186791611
21
168.875502196238
31
3.20593071881819e-028
  0
LINE
 8
COMPONENT0
10
3210.1889952785
20
169.994496483434
30
3.20593071881819e-028
11
3210.62399515753
21
169.389062632381
31
3.20593071881819e-028
  0
LINE
 8
COMPONENT0
10
3209.87153239126
20
170.677135955942
30
3.20593071881819e-028
11
3210.1889952785
21
169.994496483434
31
3.20593071881819e-028
  0
LINE
 8
COMPONENT0
10
3209.68627060805
20
171.422313256448
30
3.20593071881819e-028
11
3209.87153239126
21
170.677135955942
31
3.20593071881819e-028
  0
LINE
 8
COMPONENT0
10
3209.64779766553
20
172.213055802209
30
3.20593071881819e-028
11
3209.68627060805
21
171.422313256448
31
3.20593071881819e-028
  0
LINE
 8
COMPONENT0
10
3209.76145985463
20
172.98399139414
30
3.20593071881819e-028
11
3209.64779766553
21
172.213055802209
31
3.20593071881819e-028
  0
LINE
 8
COMPONENT0
10
3210.01465520389
20
173.699712471313
30
3.20593071881819e-028
11
3209.76145985463
21
172.98399139414
31
3.20593071881819e-028
  0
LINE
 8
COMPONENT0
10
3210.39271960106
20
174.345554921485
30
3.20593071881819e-028
11
3210.01465520389
21
173.699712471313
31
3.20593071881819e-028
  0
LINE
 8
COMPONENT0
10
3210.88098893389
20
174.906854632415
30
3.20593071881819e-028
11
3210.39271960106
21
174.345554921485
31
3.20593071881819e-028
  0
LINE
 8
COMPONENT0
10
3211.46479909016
20
175.368947491857
30
3.20593071881819e-028
11
3210.88098893389
21
174.906854632415
31
3.20593071881819e-028
  0
LINE
 8
COMPONENT0
10
3212.1294859576
20
175.717169387569
30
3.20593071881819e-028
11
3211.46479909016
21
175.368947491857
31
3.20593071881819e-028
  0
LINE
 8
COMPONENT0
10
3212.86038542399
20
175.936856207308
30
3.20593071881819e-028
11
3212.52599391068
21
175.836347982189
31
3.20593071881819e-028
  0
LINE
 8
COMPONENT0
10
3213.64283337707
20
176.013343838831
30
3.20593071881819e-028
11
3212.86038542399
21
175.936856207308
31
3.20593071881819e-028
  0
LINE
 8
COMPONENT0
10
3209.54409457178
20
249.836959193793
30
3.20593071881819e-028
11
3208.7616466187
21
249.913446825315
31
3.20593071881819e-028
  0
LINE
 8
COMPONENT0
10
3210.27499403817
20
249.617272374054
30
3.20593071881819e-028
11
3209.54409457178
21
249.836959193793
31
3.20593071881819e-028
  0
LINE
 8
COMPONENT0
10
3210.93968090561
20
249.269050478341
30
3.20593071881819e-028
11
3210.27499403817
21
249.617272374054
31
3.20593071881819e-028
  0
LINE
 8
COMPONENT0
10
3211.52349106188
20
248.806957618899
30
3.20593071881819e-028
11
3210.93968090561
21
249.269050478341
31
3.20593071881819e-028
  0
LINE
 8
COMPONENT0
10
3212.01176039471
20
248.24565790797
30
3.20593071881819e-028
11
3211.52349106188
21
248.806957618899
31
3.20593071881819e-028
  0
LINE
 8
COMPONENT0
10
3212.38982479188
20
247.599815457797
30
3.20593071881819e-028
11
3212.01176039471
21
248.24565790797
31
3.20593071881819e-028
  0
LINE
 8
COMPONENT0
10
3212.64302014113
20
246.884094380624
30
3.20593071881819e-028
11
3212.38982479188
21
247.599815457797
31
3.20593071881819e-028
  0
LINE
 8
COMPONENT0
10
3212.75668233023
20
246.113158788694
30
3.20593071881819e-028
11
3212.64302014113
21
246.884094380624
31
3.20593071881819e-028
  0
LINE
 8
COMPONENT0
10
3212.71820938772
20
245.322416242932
30
3.20593071881819e-028
11
3212.75668233023
21
246.113158788694
31
3.20593071881819e-028
  0
LINE
 8
COMPONENT0
10
3212.53294760451
20
244.577238942427
30
3.20593071881819e-028
11
3212.71820938772
21
245.322416242932
31
3.20593071881819e-028
  0
LINE
 8
COMPONENT0
10
3212.21548471727
20
243.894599469919
30
3.20593071881819e-028
11
3212.53294760451
21
244.577238942427
31
3.20593071881819e-028
  0
LINE
 8
COMPONENT0
10
3211.78048483824
20
243.289165618865
30
3.20593071881819e-028
11
3212.21548471727
21
243.894599469919
31
3.20593071881819e-028
  0
LINE
 8
COMPONENT0
10
3211.24261207966
20
242.775605182722
30
3.20593071881819e-028
11
3211.78048483824
21
243.289165618865
31
3.20593071881819e-028
  0
LINE
 8
COMPONENT0
10
3210.61653055377
20
242.368585954946
30
3.20593071881819e-028
11
3211.24261207966
21
242.775605182722
31
3.20593071881819e-028
  0
LINE
 8
COMPONENT0
10
3209.91690437283
20
242.082775728992
30
3.20593071881819e-028
11
3210.61653055377
21
242.368585954946
31
3.20593071881819e-028
  0
LINE
 8
COMPONENT0
10
3209.15839764906
20
241.932842298317
30
3.20593071881819e-028
11
3209.91690437283
21
242.082775728992
31
3.20593071881819e-028
  0
LINE
 8
COMPONENT0
10
3208.36489558834
20
241.932842298317
30
3.20593071881819e-028
11
3209.15839764906
21
241.932842298317
31
3.20593071881819e-028
  0
LINE
 8
COMPONENT0
10
3207.60638886457
20
242.082775728992
30
3.20593071881819e-028
11
3208.36489558834
21
241.932842298317
31
3.20593071881819e-028
  0
LINE
 8
COMPONENT0
10
3206.90676268363
20
242.368585954946
30
3.20593071881819e-028
11
3207.60638886457
21
242.082775728992
31
3.20593071881819e-028
  0
LINE
 8
COMPONENT0
10
3206.28068115774
20
242.775605182722
30
3.20593071881819e-028
11
3206.90676268363
21
242.368585954946
31
3.20593071881819e-028
  0
LINE
 8
COMPONENT0
10
3205.74280839916
20
243.289165618865
30
3.20593071881819e-028
11
3206.28068115774
21
242.775605182722
31
3.20593071881819e-028
  0
LINE
 8
COMPONENT0
10
3205.30780852013
20
243.894599469919
30
3.20593071881819e-028
11
3205.74280839916
21
243.289165618865
31
3.20593071881819e-028
  0
LINE
 8
COMPONENT0
10
3204.99034563289
20
244.577238942427
30
3.20593071881819e-028
11
3205.30780852013
21
243.894599469919
31
3.20593071881819e-028
  0
LINE
 8
COMPONENT0
10
3204.80508384968
20
245.322416242932
30
3.20593071881819e-028
11
3204.99034563289
21
244.577238942427
31
3.20593071881819e-028
  0
LINE
 8
COMPONENT0
10
3204.76661090717
20
246.113158788694
30
3.20593071881819e-028
11
3204.80508384968
21
245.322416242932
31
3.20593071881819e-028
  0
LINE
 8
COMPONENT0
10
3204.88027309627
20
246.884094380624
30
3.20593071881819e-028
11
3204.76661090717
21
246.113158788694
31
3.20593071881819e-028
  0
LINE
 8
COMPONENT0
10
3205.13346844552
20
247.599815457797
30
3.20593071881819e-028
11
3204.88027309627
21
246.884094380624
31
3.20593071881819e-028
  0
LINE
 8
COMPONENT0
10
3205.51153284269
20
248.24565790797
30
3.20593071881819e-028
11
3205.13346844552
21
247.599815457797
31
3.20593071881819e-028
  0
LINE
 8
COMPONENT0
10
3205.99980217552
20
248.806957618899
30
3.20593071881819e-028
11
3205.51153284269
21
248.24565790797
31
3.20593071881819e-028
  0
LINE
 8
COMPONENT0
10
3206.58361233179
20
249.269050478341
30
3.20593071881819e-028
11
3205.99980217552
21
248.806957618899
31
3.20593071881819e-028
  0
LINE
 8
COMPONENT0
10
3207.24829919923
20
249.617272374054
30
3.20593071881819e-028
11
3206.58361233179
21
249.269050478341
31
3.20593071881819e-028
  0
LINE
 8
COMPONENT0
10
3207.97919866562
20
249.836959193793
30
3.20593071881819e-028
11
3207.24829919923
21
249.617272374054
31
3.20593071881819e-028
  0
LINE
 8
COMPONENT0
10
3208.7616466187
20
249.913446825315
30
3.20593071881819e-028
11
3207.97919866562
21
249.836959193793
31
3.20593071881819e-028
  0
LINE
 8
COMPONENT0
10
3308.4252904208
20
175.936856207308
30
3.20593071881819e-028
11
3307.64284246772
21
176.013343838831
31
3.20593071881819e-028
  0
LINE
 8
COMPONENT0
10
3309.15618988718
20
175.717169387569
30
3.20593071881819e-028
11
3308.4252904208
21
175.936856207308
31
3.20593071881819e-028
  0
LINE
 8
COMPONENT0
10
3309.82087675463
20
175.368947491857
30
3.20593071881819e-028
11
3309.76220030988
21
175.399687414405
31
3.20593071881819e-028
  0
LINE
 8
COMPONENT0
10
3310.40468691089
20
174.906854632415
30
3.20593071881819e-028
11
3309.82087675463
21
175.368947491857
31
3.20593071881819e-028
  0
LINE
 8
COMPONENT0
10
3310.89295624373
20
174.345554921485
30
3.20593071881819e-028
11
3310.40468691089
21
174.906854632415
31
3.20593071881819e-028
  0
LINE
 8
COMPONENT0
10
3311.2710206409
20
173.699712471313
30
3.20593071881819e-028
11
3310.89295624373
21
174.345554921485
31
3.20593071881819e-028
  0
LINE
 8
COMPONENT0
10
3311.52421599015
20
172.98399139414
30
3.20593071881819e-028
11
3311.2710206409
21
173.699712471313
31
3.20593071881819e-028
  0
LINE
 8
COMPONENT0
10
3311.63787817925
20
172.213055802209
30
3.20593071881819e-028
11
3311.52421599015
21
172.98399139414
31
3.20593071881819e-028
  0
LINE
 8
COMPONENT0
10
3311.59940523674
20
171.422313256448
30
3.20593071881819e-028
11
3311.63787817925
21
172.213055802209
31
3.20593071881819e-028
  0
LINE
 8
COMPONENT0
10
3311.41414345353
20
170.677135955942
30
3.20593071881819e-028
11
3311.59940523674
21
171.422313256448
31
3.20593071881819e-028
  0
LINE
 8
COMPONENT0
10
3311.09668056629
20
169.994496483434
30
3.20593071881819e-028
11
3311.41414345353
21
170.677135955942
31
3.20593071881819e-028
  0
LINE
 8
COMPONENT0
10
3310.66168068725
20
169.389062632381
30
3.20593071881819e-028
11
3311.09668056629
21
169.994496483434
31
3.20593071881819e-028
  0
LINE
 8
COMPONENT0
10
3310.12380792867
20
168.875502196238
30
3.20593071881819e-028
11
3310.66168068725
21
169.389062632381
31
3.20593071881819e-028
  0
LINE
 8
COMPONENT0
10
3309.49772640279
20
168.468482968461
30
3.20593071881819e-028
11
3310.12380792867
21
168.875502196238
31
3.20593071881819e-028
  0
LINE
 8
COMPONENT0
10
3308.79810022184
20
168.182672742507
30
3.20593071881819e-028
11
3309.49772640279
21
168.468482968461
31
3.20593071881819e-028
  0
LINE
 8
COMPONENT0
10
3308.03959349808
20
168.032739311832
30
3.20593071881819e-028
11
3308.79810022184
21
168.182672742507
31
3.20593071881819e-028
  0
LINE
 8
COMPONENT0
10
3307.24609143735
20
168.032739311832
30
3.20593071881819e-028
11
3308.03959349808
21
168.032739311832
31
3.20593071881819e-028
  0
LINE
 8
COMPONENT0
10
3306.48758471359
20
168.182672742507
30
3.20593071881819e-028
11
3307.24609143735
21
168.032739311832
31
3.20593071881819e-028
  0
LINE
 8
COMPONENT0
10
3305.78795853264
20
168.468482968461
30
3.20593071881819e-028
11
3306.48758471359
21
168.182672742507
31
3.20593071881819e-028
  0
LINE
 8
COMPONENT0
10
3305.16187700676
20
168.875502196238
30
3.20593071881819e-028
11
3305.78795853264
21
168.468482968461
31
3.20593071881819e-028
  0
LINE
 8
COMPONENT0
10
3304.62400424818
20
169.389062632381
30
3.20593071881819e-028
11
3305.16187700676
21
168.875502196238
31
3.20593071881819e-028
  0
LINE
 8
COMPONENT0
10
3304.18900436915
20
169.994496483434
30
3.20593071881819e-028
11
3304.62400424818
21
169.389062632381
31
3.20593071881819e-028
  0
LINE
 8
COMPONENT0
10
3303.8715414819
20
170.677135955942
30
3.20593071881819e-028
11
3304.18900436915
21
169.994496483434
31
3.20593071881819e-028
  0
LINE
 8
COMPONENT0
10
3303.6862796987
20
171.422313256448
30
3.20593071881819e-028
11
3303.8715414819
21
170.677135955942
31
3.20593071881819e-028
  0
LINE
 8
COMPONENT0
10
3303.64780675618
20
172.213055802209
30
3.20593071881819e-028
11
3303.6862796987
21
171.422313256448
31
3.20593071881819e-028
  0
LINE
 8
COMPONENT0
10
3303.76146894528
20
172.98399139414
30
3.20593071881819e-028
11
3303.64780675618
21
172.213055802209
31
3.20593071881819e-028
  0
LINE
 8
COMPONENT0
10
3304.01466429454
20
173.699712471313
30
3.20593071881819e-028
11
3303.76146894528
21
172.98399139414
31
3.20593071881819e-028
  0
LINE
 8
COMPONENT0
10
3304.3927286917
20
174.345554921485
30
3.20593071881819e-028
11
3304.01466429454
21
173.699712471313
31
3.20593071881819e-028
  0
LINE
 8
COMPONENT0
10
3304.88099802454
20
174.906854632415
30
3.20593071881819e-028
11
3304.3927286917
21
174.345554921485
31
3.20593071881819e-028
  0
LINE
 8
COMPONENT0
10
3305.4648081808
20
175.368947491857
30
3.20593071881819e-028
11
3305.08057776563
21
175.064824431769
31
3.20593071881819e-028
  0
LINE
 8
COMPONENT0
10
3306.12949504825
20
175.717169387569
30
3.20593071881819e-028
11
3305.4648081808
21
175.368947491857
31
3.20593071881819e-028
  0
LINE
 8
COMPONENT0
10
3306.86039451463
20
175.936856207308
30
3.20593071881819e-028
11
3306.12949504825
21
175.717169387569
31
3.20593071881819e-028
  0
LINE
 8
COMPONENT0
10
3307.64284246772
20
176.013343838831
30
3.20593071881819e-028
11
3306.86039451463
21
175.936856207308
31
3.20593071881819e-028
  0
LINE
 8
COMPONENT0
10
3495.5305504621
20
268.362462083864
30
3.20593071881819e-028
11
3415.53038513048
21
268.362462083864
31
3.20593071881819e-028
  0
LINE
 8
COMPONENT0
10
3415.53038513048
20
268.362462083864
30
3.20593071881819e-028
11
3415.53038513048
21
314.126107171299
31
3.20593071881819e-028
  0
LINE
 8
COMPONENT0
10
3495.51470301242
20
314.126107171299
30
3.20593071881819e-028
11
3495.5305504621
21
268.362462083864
31
3.20593071881819e-028
  0
LINE
 8
COMPONENT0
10
3218.63463580437
20
194.705215510493
30
3.20593071881819e-028
11
3216.6784812665
21
194.896441414882
31
3.20593071881819e-028
  0
LINE
 8
COMPONENT0
10
3220.4619239571
20
194.155981052076
30
3.20593071881819e-028
11
3218.63463580437
21
194.705215510493
31
3.20593071881819e-028
  0
LINE
 8
COMPONENT0
10
3222.12368268315
20
193.285402921754
30
3.20593071881819e-028
11
3220.4619239571
21
194.155981052076
31
3.20593071881819e-028
  0
LINE
 8
COMPONENT0
10
3223.58324894103
20
192.130146001652
30
3.20593071881819e-028
11
3222.12368268315
21
193.285402921754
31
3.20593071881819e-028
  0
LINE
 8
COMPONENT0
10
3224.8039596892
20
190.726875173894
30
3.20593071881819e-028
11
3223.58324894103
21
192.130146001652
31
3.20593071881819e-028
  0
LINE
 8
COMPONENT0
10
3225.74915188615
20
189.112255320606
30
3.20593071881819e-028
11
3224.8039596892
21
190.726875173894
31
3.20593071881819e-028
  0
LINE
 8
COMPONENT0
10
3226.38216249036
20
187.32295132391
30
3.20593071881819e-028
11
3225.74915188615
21
189.112255320606
31
3.20593071881819e-028
  0
LINE
 8
COMPONENT0
10
3226.66632846032
20
185.395628065931
30
3.20593071881819e-028
11
3226.38216249036
21
187.32295132391
31
3.20593071881819e-028
  0
LINE
 8
COMPONENT0
10
3226.57014249472
20
183.418802256075
30
3.20593071881819e-028
11
3226.66632846032
21
185.395628065931
31
3.20593071881819e-028
  0
LINE
 8
COMPONENT0
10
3226.10697132744
20
181.555889566549
30
3.20593071881819e-028
11
3226.57014249472
21
183.418802256075
31
3.20593071881819e-028
  0
LINE
 8
COMPONENT0
10
3225.31328704667
20
179.849319836486
30
3.20593071881819e-028
11
3226.10697132744
21
181.555889566549
31
3.20593071881819e-028
  0
LINE
 8
COMPONENT0
10
3224.22575269392
20
178.335761629225
30
3.20593071881819e-028
11
3225.31328704667
21
179.849319836486
31
3.20593071881819e-028
  0
LINE
 8
COMPONENT0
10
3222.88103131071
20
177.051883508103
30
3.20593071881819e-028
11
3224.22575269392
21
178.335761629225
31
3.20593071881819e-028
  0
LINE
 8
COMPONENT0
10
3221.31578593855
20
176.034354036457
30
3.20593071881819e-028
11
3222.88103131071
21
177.051883508103
31
3.20593071881819e-028
  0
LINE
 8
COMPONENT0
10
3219.56667961897
20
175.319841777623
30
3.20593071881819e-028
11
3221.31578593855
21
176.034354036457
31
3.20593071881819e-028
  0
LINE
 8
COMPONENT0
10
3217.67037539348
20
174.945015294941
30
3.20593071881819e-028
11
3219.56667961897
21
175.319841777623
31
3.20593071881819e-028
  0
LINE
 8
COMPONENT0
10
3215.6866165988
20
174.945015294941
30
3.20593071881819e-028
11
3216.35646547093
21
174.945015294941
31
3.20593071881819e-028
  0
LINE
 8
COMPONENT0
10
3213.79036082344
20
175.319841777623
30
3.20593071881819e-028
11
3215.6866165988
21
174.945015294941
31
3.20593071881819e-028
  0
LINE
 8
COMPONENT0
10
3212.0412905299
20
176.034354036457
30
3.20593071881819e-028
11
3212.52599391068
21
175.836347982189
31
3.20593071881819e-028
  0
LINE
 8
COMPONENT0
10
3210.4760706003
20
177.051883508103
30
3.20593071881819e-028
11
3212.0412905299
21
176.034354036457
31
3.20593071881819e-028
  0
LINE
 8
COMPONENT0
10
3209.13136591675
20
178.335761629225
30
3.20593071881819e-028
11
3210.4760706003
21
177.051883508103
31
3.20593071881819e-028
  0
LINE
 8
COMPONENT0
10
3208.0438413614
20
179.849319836486
30
3.20593071881819e-028
11
3209.13136591675
21
178.335761629225
31
3.20593071881819e-028
  0
LINE
 8
COMPONENT0
10
3207.25016181635
20
181.555889566549
30
3.20593071881819e-028
11
3208.0438413614
21
179.849319836486
31
3.20593071881819e-028
  0
LINE
 8
COMPONENT0
10
3206.78699216374
20
183.418802256075
30
3.20593071881819e-028
11
3207.25016181635
21
181.555889566549
31
3.20593071881819e-028
  0
LINE
 8
COMPONENT0
10
3206.69080632276
20
185.395628065931
30
3.20593071881819e-028
11
3206.78699216374
21
183.418802256075
31
3.20593071881819e-028
  0
LINE
 8
COMPONENT0
10
3206.97497169836
20
187.32295132391
30
3.20593071881819e-028
11
3206.69080632276
21
185.395628065931
31
3.20593071881819e-028
  0
LINE
 8
COMPONENT0
10
3207.60797940745
20
189.112255320606
30
3.20593071881819e-028
11
3206.97497169836
21
187.32295132391
31
3.20593071881819e-028
  0
LINE
 8
COMPONENT0
10
3208.55316456792
20
190.726875173894
30
3.20593071881819e-028
11
3207.60797940745
21
189.112255320606
31
3.20593071881819e-028
  0
LINE
 8
COMPONENT0
10
3209.77386229763
20
192.130146001652
30
3.20593071881819e-028
11
3208.55316456792
21
190.726875173894
31
3.20593071881819e-028
  0
LINE
 8
COMPONENT0
10
3211.23340771447
20
193.285402921754
30
3.20593071881819e-028
11
3209.77386229763
21
192.130146001652
31
3.20593071881819e-028
  0
LINE
 8
COMPONENT0
10
3212.89513593631
20
194.155981052076
30
3.20593071881819e-028
11
3211.23340771447
21
193.285402921754
31
3.20593071881819e-028
  0
LINE
 8
COMPONENT0
10
3214.72238208103
20
194.705215510493
30
3.20593071881819e-028
11
3212.89513593631
21
194.155981052076
31
3.20593071881819e-028
  0
LINE
 8
COMPONENT0
10
3216.6784812665
20
194.896441414882
30
3.20593071881819e-028
11
3214.72238208103
21
194.705215510493
31
3.20593071881819e-028
  0
LINE
 8
COMPONENT0
10
3627.53016007796
20
221.126209959787
30
3.20593071881819e-028
11
3515.5303764764
21
221.126209959787
31
3.20593071881819e-028
  0
LINE
 8
COMPONENT0
10
3415.53038513048
20
221.126209959787
30
3.20593071881819e-028
11
3415.53038513048
21
126.625972674683
31
3.20593071881819e-028
  0
LINE
 8
COMPONENT0
10
3701.48649456224
20
223.934968204065
30
3.20593071881819e-028
11
3699.53029165093
21
224.12620108742
31
3.20593071881819e-028
  0
LINE
 8
COMPONENT0
10
3703.31380624022
20
223.38571526289
30
3.20593071881819e-028
11
3701.48649456224
21
223.934968204065
31
3.20593071881819e-028
  0
LINE
 8
COMPONENT0
10
3704.97556916516
20
222.515110827233
30
3.20593071881819e-028
11
3703.31380624022
21
223.38571526289
31
3.20593071881819e-028
  0
LINE
 8
COMPONENT0
10
3706.43512581737
20
221.359823460432
30
3.20593071881819e-028
11
3704.97556916516
21
222.515110827233
31
3.20593071881819e-028
  0
LINE
 8
COMPONENT0
10
3707.65581867715
20
219.956521725823
30
3.20593071881819e-028
11
3706.43512581737
21
221.359823460432
31
3.20593071881819e-028
  0
LINE
 8
COMPONENT0
10
3708.60099022479
20
218.341874186744
30
3.20593071881819e-028
11
3707.65581867715
21
219.956521725823
31
3.20593071881819e-028
  0
LINE
 8
COMPONENT0
10
3709.23398294061
20
216.552549406533
30
3.20593071881819e-028
11
3708.60099022479
21
218.341874186744
31
3.20593071881819e-028
  0
LINE
 8
COMPONENT0
10
3709.5181393049
20
214.625215948526
30
3.20593071881819e-028
11
3709.23398294061
21
216.552549406533
31
3.20593071881819e-028
  0
LINE
 8
COMPONENT0
10
3709.42195676168
20
212.648393685672
30
3.20593071881819e-028
11
3709.5181393049
21
214.625215948526
31
3.20593071881819e-028
  0
LINE
 8
COMPONENT0
10
3708.95880003166
20
210.785496948069
30
3.20593071881819e-028
11
3709.42195676168
21
212.648393685672
31
3.20593071881819e-028
  0
LINE
 8
COMPONENT0
10
3708.16513570997
20
209.078951912811
30
3.20593071881819e-028
11
3708.95880003166
21
210.785496948069
31
3.20593071881819e-028
  0
LINE
 8
COMPONENT0
10
3707.07762131629
20
207.565423462022
30
3.20593071881819e-028
11
3708.16513570997
21
209.078951912811
31
3.20593071881819e-028
  0
LINE
 8
COMPONENT0
10
3705.73291437034
20
206.281576477827
30
3.20593071881819e-028
11
3707.07762131629
21
207.565423462022
31
3.20593071881819e-028
  0
LINE
 8
COMPONENT0
10
3704.1676723918
20
205.26407584235
30
3.20593071881819e-028
11
3705.73291437034
21
206.281576477827
31
3.20593071881819e-028
  0
LINE
 8
COMPONENT0
10
3702.41855290038
20
204.549586437715
30
3.20593071881819e-028
11
3704.1676723918
21
205.26407584235
31
3.20593071881819e-028
  0
LINE
 8
COMPONENT0
10
3700.52221341577
20
204.174773146046
30
3.20593071881819e-028
11
3702.41855290038
21
204.549586437715
31
3.20593071881819e-028
  0
LINE
 8
COMPONENT0
10
3698.53848408038
20
204.174773146046
30
3.20593071881819e-028
11
3700.52221341577
21
204.174773146046
31
3.20593071881819e-028
  0
LINE
 8
COMPONENT0
10
3696.64231201427
20
204.549586437715
30
3.20593071881819e-028
11
3698.53848408038
21
204.174773146046
31
3.20593071881819e-028
  0
LINE
 8
COMPONENT0
10
3694.89329091861
20
205.26407584235
30
3.20593071881819e-028
11
3696.64231201427
21
204.549586437715
31
3.20593071881819e-028
  0
LINE
 8
COMPONENT0
10
3693.32809303794
20
206.281576477827
30
3.20593071881819e-028
11
3694.89329091861
21
205.26407584235
31
3.20593071881819e-028
  0
LINE
 8
COMPONENT0
10
3691.98339061681
20
207.565423462022
30
3.20593071881819e-028
11
3693.32809303794
21
206.281576477827
31
3.20593071881819e-028
  0
LINE
 8
COMPONENT0
10
3690.89585589977
20
209.078951912811
30
3.20593071881819e-028
11
3691.98339061681
21
207.565423462022
31
3.20593071881819e-028
  0
LINE
 8
COMPONENT0
10
3690.10216113137
20
210.785496948069
30
3.20593071881819e-028
11
3690.89585589977
21
209.078951912811
31
3.20593071881819e-028
  0
LINE
 8
COMPONENT0
10
3689.63897855617
20
212.648393685672
30
3.20593071881819e-028
11
3690.10216113137
21
210.785496948069
31
3.20593071881819e-028
  0
LINE
 8
COMPONENT0
10
3689.54278941744
20
214.625215948526
30
3.20593071881819e-028
11
3689.63897855617
21
212.648393685672
31
3.20593071881819e-028
  0
LINE
 8
COMPONENT0
10
3689.82696380434
20
216.552549406533
30
3.20593071881819e-028
11
3689.54278941744
21
214.625215948526
31
3.20593071881819e-028
  0
LINE
 8
COMPONENT0
10
3690.45998650671
20
218.341874186744
30
3.20593071881819e-028
11
3689.82696380434
21
216.552549406533
31
3.20593071881819e-028
  0
LINE
 8
COMPONENT0
10
3691.40518527999
20
219.956521725823
30
3.20593071881819e-028
11
3690.45998650671
21
218.341874186744
31
3.20593071881819e-028
  0
LINE
 8
COMPONENT0
10
3692.62588787964
20
221.359823460432
30
3.20593071881819e-028
11
3691.40518527999
21
219.956521725823
31
3.20593071881819e-028
  0
LINE
 8
COMPONENT0
10
3694.08542206111
20
222.515110827233
30
3.20593071881819e-028
11
3692.62588787964
21
221.359823460432
31
3.20593071881819e-028
  0
LINE
 8
COMPONENT0
10
3695.74711557985
20
223.38571526289
30
3.20593071881819e-028
11
3694.08542206111
21
222.515110827233
31
3.20593071881819e-028
  0
LINE
 8
COMPONENT0
10
3697.57429619131
20
223.934968204065
30
3.20593071881819e-028
11
3695.74711557985
21
223.38571526289
31
3.20593071881819e-028
  0
LINE
 8
COMPONENT0
10
3699.53029165093
20
224.12620108742
30
3.20593071881819e-028
11
3697.57429619131
21
223.934968204065
31
3.20593071881819e-028
  0
LINE
 8
COMPONENT0
10
3313.54414055103
20
249.836959193793
30
3.20593071881819e-028
11
3312.76174097138
21
249.913446825315
31
3.20593071881819e-028
  0
LINE
 8
COMPONENT0
10
3314.27501649216
20
249.617272374054
30
3.20593071881819e-028
11
3313.54414055103
21
249.836959193793
31
3.20593071881819e-028
  0
LINE
 8
COMPONENT0
10
3314.93969916072
20
249.269050478341
30
3.20593071881819e-028
11
3314.27501649216
21
249.617272374054
31
3.20593071881819e-028
  0
LINE
 8
COMPONENT0
10
3315.52351892265
20
248.806957618899
30
3.20593071881819e-028
11
3314.93969916072
21
249.269050478341
31
3.20593071881819e-028
  0
LINE
 8
COMPONENT0
10
3316.01180614388
20
248.24565790797
30
3.20593071881819e-028
11
3315.52351892265
21
248.806957618899
31
3.20593071881819e-028
  0
LINE
 8
COMPONENT0
10
3316.38989119035
20
247.599815457797
30
3.20593071881819e-028
11
3316.01180614388
21
248.24565790797
31
3.20593071881819e-028
  0
LINE
 8
COMPONENT0
10
3316.643104428
20
246.884094380624
30
3.20593071881819e-028
11
3316.38989119035
21
247.599815457797
31
3.20593071881819e-028
  0
LINE
 8
COMPONENT0
10
3316.75677622277
20
246.113158788694
30
3.20593071881819e-028
11
3316.643104428
21
246.884094380624
31
3.20593071881819e-028
  0
LINE
 8
COMPONENT0
10
3316.71829985787
20
245.322416242932
30
3.20593071881819e-028
11
3316.75677622277
21
246.113158788694
31
3.20593071881819e-028
  0
LINE
 8
COMPONENT0
10
3316.53302363741
20
244.577238942427
30
3.20593071881819e-028
11
3316.71829985787
21
245.322416242932
31
3.20593071881819e-028
  0
LINE
 8
COMPONENT0
10
3316.21554079109
20
243.894599469919
30
3.20593071881819e-028
11
3316.53302363741
21
244.577238942427
31
3.20593071881819e-028
  0
LINE
 8
COMPONENT0
10
3315.78052095298
20
243.289165618865
30
3.20593071881819e-028
11
3316.21554079109
21
243.894599469919
31
3.20593071881819e-028
  0
LINE
 8
COMPONENT0
10
3315.24263375714
20
242.775605182722
30
3.20593071881819e-028
11
3315.78052095298
21
243.289165618865
31
3.20593071881819e-028
  0
LINE
 8
COMPONENT0
10
3314.61654883764
20
242.368585954946
30
3.20593071881819e-028
11
3315.24263375714
21
242.775605182722
31
3.20593071881819e-028
  0
LINE
 8
COMPONENT0
10
3313.91693582853
20
242.082775728992
30
3.20593071881819e-028
11
3314.61654883764
21
242.368585954946
31
3.20593071881819e-028
  0
LINE
 8
COMPONENT0
10
3313.15846436389
20
241.932842298317
30
3.20593071881819e-028
11
3313.91693582853
21
242.082775728992
31
3.20593071881819e-028
  0
LINE
 8
COMPONENT0
10
3312.36498811959
20
241.932842298317
30
3.20593071881819e-028
11
3313.15846436389
21
241.932842298317
31
3.20593071881819e-028
  0
LINE
 8
COMPONENT0
10
3311.60646820481
20
242.082775728992
30
3.20593071881819e-028
11
3312.36498811959
21
241.932842298317
31
3.20593071881819e-028
  0
LINE
 8
COMPONENT0
10
3310.90681916967
20
242.368585954946
30
3.20593071881819e-028
11
3311.60646820481
21
242.082775728992
31
3.20593071881819e-028
  0
LINE
 8
COMPONENT0
10
3310.28070880761
20
242.775605182722
30
3.20593071881819e-028
11
3310.90681916967
21
242.368585954946
31
3.20593071881819e-028
  0
LINE
 8
COMPONENT0
10
3309.74280491211
20
243.289165618865
30
3.20593071881819e-028
11
3310.28070880761
21
242.775605182722
31
3.20593071881819e-028
  0
LINE
 8
COMPONENT0
10
3309.3077752766
20
243.894599469919
30
3.20593071881819e-028
11
3309.74280491211
21
243.289165618865
31
3.20593071881819e-028
  0
LINE
 8
COMPONENT0
10
3308.99028769455
20
244.577238942427
30
3.20593071881819e-028
11
3309.3077752766
21
243.894599469919
31
3.20593071881819e-028
  0
LINE
 8
COMPONENT0
10
3308.80500995942
20
245.322416242932
30
3.20593071881819e-028
11
3308.99028769455
21
244.577238942427
31
3.20593071881819e-028
  0
LINE
 8
COMPONENT0
10
3308.76653346991
20
246.113158788694
30
3.20593071881819e-028
11
3308.80500995942
21
245.322416242932
31
3.20593071881819e-028
  0
LINE
 8
COMPONENT0
10
3308.88020585903
20
246.884094380624
30
3.20593071881819e-028
11
3308.76653346991
21
246.113158788694
31
3.20593071881819e-028
  0
LINE
 8
COMPONENT0
10
3309.1334219918
20
247.599815457797
30
3.20593071881819e-028
11
3308.88020585903
21
246.884094380624
31
3.20593071881819e-028
  0
LINE
 8
COMPONENT0
10
3309.51151407476
20
248.24565790797
30
3.20593071881819e-028
11
3309.1334219918
21
247.599815457797
31
3.20593071881819e-028
  0
LINE
 8
COMPONENT0
10
3309.99981431445
20
248.806957618899
30
3.20593071881819e-028
11
3309.51151407476
21
248.24565790797
31
3.20593071881819e-028
  0
LINE
 8
COMPONENT0
10
3310.58365491741
20
249.269050478341
30
3.20593071881819e-028
11
3309.99981431445
21
248.806957618899
31
3.20593071881819e-028
  0
LINE
 8
COMPONENT0
10
3311.24836809019
20
249.617272374054
30
3.20593071881819e-028
11
3310.58365491741
21
249.269050478341
31
3.20593071881819e-028
  0
LINE
 8
COMPONENT0
10
3311.97928603934
20
249.836959193793
30
3.20593071881819e-028
11
3311.24836809019
21
249.617272374054
31
3.20593071881819e-028
  0
LINE
 8
COMPONENT0
10
3312.76174097138
20
249.913446825315
30
3.20593071881819e-028
11
3311.97928603934
21
249.836959193793
31
3.20593071881819e-028
  0
LINE
 8
COMPONENT0
10
3313.54414055103
20
201.836928896776
30
3.20593071881819e-028
11
3312.76174097138
21
201.913416528299
31
3.20593071881819e-028
  0
LINE
 8
COMPONENT0
10
3314.27501649216
20
201.617242077037
30
3.20593071881819e-028
11
3313.54414055103
21
201.836928896776
31
3.20593071881819e-028
  0
LINE
 8
COMPONENT0
10
3314.93969916072
20
201.269020181325
30
3.20593071881819e-028
11
3314.27501649216
21
201.617242077037
31
3.20593071881819e-028
  0
LINE
 8
COMPONENT0
10
3315.52351892265
20
200.806927321883
30
3.20593071881819e-028
11
3314.93969916072
21
201.269020181325
31
3.20593071881819e-028
  0
LINE
 8
COMPONENT0
10
3316.01180614388
20
200.245627610954
30
3.20593071881819e-028
11
3315.52351892265
21
200.806927321883
31
3.20593071881819e-028
  0
LINE
 8
COMPONENT0
10
3316.38989119035
20
199.599785160781
30
3.20593071881819e-028
11
3316.01180614388
21
200.245627610954
31
3.20593071881819e-028
  0
LINE
 8
COMPONENT0
10
3316.643104428
20
198.884064083608
30
3.20593071881819e-028
11
3316.38989119035
21
199.599785160781
31
3.20593071881819e-028
  0
LINE
 8
COMPONENT0
10
3316.75677622277
20
198.113128491677
30
3.20593071881819e-028
11
3316.643104428
21
198.884064083608
31
3.20593071881819e-028
  0
LINE
 8
COMPONENT0
10
3316.71829985787
20
197.322385945916
30
3.20593071881819e-028
11
3316.75677622277
21
198.113128491677
31
3.20593071881819e-028
  0
LINE
 8
COMPONENT0
10
3316.53302363741
20
196.57720864541
30
3.20593071881819e-028
11
3316.71829985787
21
197.322385945916
31
3.20593071881819e-028
  0
LINE
 8
COMPONENT0
10
3316.21554079109
20
195.894569172902
30
3.20593071881819e-028
11
3316.53302363741
21
196.57720864541
31
3.20593071881819e-028
  0
LINE
 8
COMPONENT0
10
3315.78052095298
20
195.289135321849
30
3.20593071881819e-028
11
3316.21554079109
21
195.894569172902
31
3.20593071881819e-028
  0
LINE
 8
COMPONENT0
10
3315.24263375714
20
194.775574885706
30
3.20593071881819e-028
11
3315.78052095298
21
195.289135321849
31
3.20593071881819e-028
  0
LINE
 8
COMPONENT0
10
3314.61654883764
20
194.368555657929
30
3.20593071881819e-028
11
3315.24263375714
21
194.775574885706
31
3.20593071881819e-028
  0
LINE
 8
COMPONENT0
10
3313.91693582853
20
194.082745431975
30
3.20593071881819e-028
11
3314.61654883764
21
194.368555657929
31
3.20593071881819e-028
  0
LINE
 8
COMPONENT0
10
3313.15846436389
20
193.932812001301
30
3.20593071881819e-028
11
3313.91693582853
21
194.082745431975
31
3.20593071881819e-028
  0
LINE
 8
COMPONENT0
10
3312.36498811959
20
193.932812001301
30
3.20593071881819e-028
11
3313.15846436389
21
193.932812001301
31
3.20593071881819e-028
  0
LINE
 8
COMPONENT0
10
3310.90681916967
20
194.368555657929
30
3.20593071881819e-028
11
3311.60646820481
21
194.082745431975
31
3.20593071881819e-028
  0
LINE
 8
COMPONENT0
10
3310.28070880761
20
194.775574885706
30
3.20593071881819e-028
11
3310.90681916967
21
194.368555657929
31
3.20593071881819e-028
  0
LINE
 8
COMPONENT0
10
3309.74280491211
20
195.289135321849
30
3.20593071881819e-028
11
3310.28070880761
21
194.775574885706
31
3.20593071881819e-028
  0
LINE
 8
COMPONENT0
10
3309.3077752766
20
195.894569172902
30
3.20593071881819e-028
11
3309.74280491211
21
195.289135321849
31
3.20593071881819e-028
  0
LINE
 8
COMPONENT0
10
3308.99028769455
20
196.57720864541
30
3.20593071881819e-028
11
3309.3077752766
21
195.894569172902
31
3.20593071881819e-028
  0
LINE
 8
COMPONENT0
10
3308.80500995942
20
197.322385945916
30
3.20593071881819e-028
11
3308.99028769455
21
196.57720864541
31
3.20593071881819e-028
  0
LINE
 8
COMPONENT0
10
3309.51151407476
20
200.245627610954
30
3.20593071881819e-028
11
3309.1334219918
21
199.599785160781
31
3.20593071881819e-028
  0
LINE
 8
COMPONENT0
10
3309.99981431445
20
200.806927321883
30
3.20593071881819e-028
11
3309.51151407476
21
200.245627610954
31
3.20593071881819e-028
  0
LINE
 8
COMPONENT0
10
3310.58365491741
20
201.269020181325
30
3.20593071881819e-028
11
3309.99981431445
21
200.806927321883
31
3.20593071881819e-028
  0
LINE
 8
COMPONENT0
10
3311.24836809019
20
201.617242077037
30
3.20593071881819e-028
11
3310.58365491741
21
201.269020181325
31
3.20593071881819e-028
  0
LINE
 8
COMPONENT0
10
3311.97928603934
20
201.836928896776
30
3.20593071881819e-028
11
3311.24836809019
21
201.617242077037
31
3.20593071881819e-028
  0
LINE
 8
COMPONENT0
10
3312.76174097138
20
201.913416528299
30
3.20593071881819e-028
11
3311.97928603934
21
201.836928896776
31
3.20593071881819e-028
  0
LINE
 8
COMPONENT0
10
3308.88020585903
20
198.884064083608
30
3.20593071881819e-028
11
3308.76653346991
21
198.113128491677
31
3.20593071881819e-028
  0
LINE
 8
COMPONENT0
10
3309.1334219918
20
199.599785160781
30
3.20593071881819e-028
11
3308.88020585903
21
198.884064083608
31
3.20593071881819e-028
  0
LINE
 8
COMPONENT0
10
3308.76653346991
20
198.113128491677
30
3.20593071881819e-028
11
3308.80500995942
21
197.322385945916
31
3.20593071881819e-028
  0
LINE
 8
COMPONENT0
10
3311.60646820481
20
194.082745431975
30
3.20593071881819e-028
11
3312.36498811959
21
193.932812001301
31
3.20593071881819e-028
  0
LINE
 8
COMPONENT0
10
3327.67935877313
20
126.625972674683
30
3.20593071881819e-028
11
3415.53038513048
21
126.625972674683
31
3.20593071881819e-028
  0
LINE
 8
COMPONENT0
10
3325.6799962893
20
126.625972674683
30
3.20593071881819e-028
11
3327.67935877313
21
126.625972674683
31
3.20593071881819e-028
  0
LINE
 8
COMPONENT0
10
3327.67935877313
20
126.625972674683
30
3.20593071881819e-028
11
3327.67935877313
21
314.126107171299
31
3.20593071881819e-028
  0
LINE
 8
COMPONENT0
10
3667.71584738548
20
126.625972674683
30
3.20593071881819e-028
11
3667.71584738548
21
314.126107171299
31
3.20593071881819e-028
  0
LINE
 8
COMPONENT0
10
3627.53016007796
20
126.625972674683
30
3.20593071881819e-028
11
3627.53016007796
21
221.126209959787
31
3.20593071881819e-028
  0
LINE
 8
COMPONENT0
10
3669.71607114375
20
126.625972674683
30
3.20593071881819e-028
11
3669.71607114375
21
314.126107171299
31
3.20593071881819e-028
  0
LINE
 8
COMPONENT0
10
3325.6799962893
20
126.625972674683
30
3.20593071881819e-028
11
3325.6799962893
21
314.126107171299
31
3.20593071881819e-028
  0
LINE
 8
COMPONENT0
10
3199.68398628136
20
126.625972674683
30
3.20593071881819e-028
11
3199.68398628136
21
314.126107171299
31
3.20593071881819e-028
  0
LINE
 8
COMPONENT0
10
3309.76220030988
20
175.399687414405
30
3.20593071881819e-028
11
3311.31582641068
21
176.034354036457
31
3.20593071881819e-028
  0
LINE
 8
COMPONENT0
10
3305.08057776563
20
175.064824431769
30
3.20593071881819e-028
11
3305.68669493757
21
174.945015294941
31
3.20593071881819e-028
  0
LINE
 8
COMPONENT0
10
3216.35646547093
20
174.945015294941
30
3.20593071881819e-028
11
3215.82086766398
21
175.368947491857
31
3.20593071881819e-028
  0
LINE
 8
COMPONENT0
10
3212.52599391068
20
175.836347982189
30
3.20593071881819e-028
11
3212.1294859576
21
175.717169387569
31
3.20593071881819e-028
  0
LINE
 8
COMPONENT0
10
3309.76220030988
20
175.399687414405
30
3.20593071881819e-028
11
3309.15618988718
21
175.717169387569
31
3.20593071881819e-028
  0
LINE
 8
COMPONENT0
10
3305.08057776563
20
175.064824431769
30
3.20593071881819e-028
11
3304.88099802454
21
174.906854632415
31
3.20593071881819e-028
  0
LINE
 8
COMPONENT0
10
3216.35646547093
20
174.945015294941
30
3.20593071881819e-028
11
3217.67037539348
21
174.945015294941
31
3.20593071881819e-028
  0
LINE
 8
COMPONENT0
10
3212.52599391068
20
175.836347982189
30
3.20593071881819e-028
11
3213.79036082344
21
175.319841777623
31
3.20593071881819e-028
  0
LINE
 8
COMPONENT0
10
3415.53038513048
20
126.625972674683
30
3.20593071881819e-028
11
3627.53016007796
21
126.625972674683
31
3.20593071881819e-028
  0
LINE
 8
COMPONENT0
10
3667.71584738548
20
126.625972674683
30
3.20593071881819e-028
11
3669.71607114375
21
126.625972674683
31
3.20593071881819e-028
  0
LINE
 8
COMPONENT0
10
3627.53016007796
20
126.625972674683
30
3.20593071881819e-028
11
3667.71584738548
21
126.625972674683
31
3.20593071881819e-028
  0
LINE
 8
COMPONENT0
10
3669.71607114375
20
126.625972674683
30
3.20593071881819e-028
11
3725.71579068964
21
126.625972674683
31
3.20593071881819e-028
  0
LINE
 8
COMPONENT0
10
3332.75536580971
20
251.447032092272
30
3.20593071881819e-028
11
3334.2913626451
21
251.447032092272
31
3.20593071881819e-028
  0
LINE
 8
COMPONENT0
10
3334.2913626451
20
251.447032092272
30
3.20593071881819e-028
11
3334.2913626451
21
251.138179078271
31
3.20593071881819e-028
  0
LINE
 8
COMPONENT0
10
3334.2913626451
20
251.138179078271
30
3.20593071881819e-028
11
3333.12760862246
21
251.138179078271
31
3.20593071881819e-028
  0
LINE
 8
COMPONENT0
10
3333.12760862246
20
251.138179078271
30
3.20593071881819e-028
11
3333.12760862246
21
250.190432685055
31
3.20593071881819e-028
  0
LINE
 8
COMPONENT0
10
3333.12760862246
20
250.190432685055
30
3.20593071881819e-028
11
3334.20247912295
21
250.190432685055
31
3.20593071881819e-028
  0
LINE
 8
COMPONENT0
10
3334.20247912295
20
250.190432685055
30
3.20593071881819e-028
11
3334.20247912295
21
249.885713788364
31
3.20593071881819e-028
  0
LINE
 8
COMPONENT0
10
3334.20247912295
20
249.885713788364
30
3.20593071881819e-028
11
3333.12760862246
21
249.885713788364
31
3.20593071881819e-028
  0
LINE
 8
COMPONENT0
10
3333.12760862246
20
249.885713788364
30
3.20593071881819e-028
11
3333.12760862246
21
248.595352423119
31
3.20593071881819e-028
  0
LINE
 8
COMPONENT0
10
3333.12760862246
20
248.595352423119
30
3.20593071881819e-028
11
3332.75536580971
21
248.595352423119
31
3.20593071881819e-028
  0
LINE
 8
COMPONENT0
10
3332.75536580971
20
248.595352423119
30
3.20593071881819e-028
11
3332.75536580971
21
251.447032092272
31
3.20593071881819e-028
  0
LINE
 8
COMPONENT0
10
3336.56926128267
20
249.873139181547
30
3.20593071881819e-028
11
3336.56926128267
21
249.602354497771
31
3.20593071881819e-028
  0
LINE
 8
COMPONENT0
10
3336.56926128267
20
249.602354497771
30
3.20593071881819e-028
11
3335.5240186229
21
249.602354497771
31
3.20593071881819e-028
  0
LINE
 8
COMPONENT0
10
3335.5240186229
20
249.602354497771
30
3.20593071881819e-028
11
3335.5240186229
21
249.873139181547
31
3.20593071881819e-028
  0
LINE
 8
COMPONENT0
10
3335.5240186229
20
249.873139181547
30
3.20593071881819e-028
11
3336.56926128267
21
249.873139181547
31
3.20593071881819e-028
  0
LINE
 8
COMPONENT0
10
3339.36271879971
20
248.667182711373
30
3.20593071881819e-028
11
3339.32137269663
21
248.648982213262
31
3.20593071881819e-028
  0
LINE
 8
COMPONENT0
10
3339.32137269663
20
248.648982213262
30
3.20593071881819e-028
11
3339.26986965492
21
248.629562929192
31
3.20593071881819e-028
  0
LINE
 8
COMPONENT0
10
3339.26986965492
20
248.629562929192
30
3.20593071881819e-028
11
3339.20887478517
21
248.610021708182
31
3.20593071881819e-028
  0
LINE
 8
COMPONENT0
10
3339.20887478517
20
248.610021708182
30
3.20593071881819e-028
11
3339.13905319796
21
248.591455399255
31
3.20593071881819e-028
  0
LINE
 8
COMPONENT0
10
3339.13905319796
20
248.591455399255
30
3.20593071881819e-028
11
3339.06107000385
21
248.574960851431
31
3.20593071881819e-028
  0
LINE
 8
COMPONENT0
10
3339.06107000385
20
248.574960851431
30
3.20593071881819e-028
11
3338.97559031342
21
248.561634913731
31
3.20593071881819e-028
  0
LINE
 8
COMPONENT0
10
3338.97559031342
20
248.561634913731
30
3.20593071881819e-028
11
3338.88327923726
21
248.552574435176
31
3.20593071881819e-028
  0
LINE
 8
COMPONENT0
10
3338.88327923726
20
248.552574435176
30
3.20593071881819e-028
11
3338.78480188593
21
248.548876264789
31
3.20593071881819e-028
  0
LINE
 8
COMPONENT0
10
3338.78480188593
20
248.548876264789
30
3.20593071881819e-028
11
3338.57698769828
21
248.564063232446
31
3.20593071881819e-028
  0
LINE
 8
COMPONENT0
10
3338.57698769828
20
248.564063232446
30
3.20593071881819e-028
11
3338.37798678877
21
248.615239750883
31
3.20593071881819e-028
  0
LINE
 8
COMPONENT0
10
3338.37798678877
20
248.615239750883
30
3.20593071881819e-028
11
3338.20271457423
21
248.700180743877
31
3.20593071881819e-028
  0
LINE
 8
COMPONENT0
10
3338.20271457423
20
248.700180743877
30
3.20593071881819e-028
11
3338.05327140385
21
248.816501926145
31
3.20593071881819e-028
  0
LINE
 8
COMPONENT0
10
3338.05327140385
20
248.816501926145
30
3.20593071881819e-028
11
3337.93175762682
21
248.961819012404
31
3.20593071881819e-028
  0
LINE
 8
COMPONENT0
10
3337.93175762682
20
248.961819012404
30
3.20593071881819e-028
11
3337.84027359232
21
249.133747717369
31
3.20593071881819e-028
  0
LINE
 8
COMPONENT0
10
3337.84027359232
20
249.133747717369
30
3.20593071881819e-028
11
3337.78091964955
21
249.329903755758
31
3.20593071881819e-028
  0
LINE
 8
COMPONENT0
10
3337.78091964955
20
249.329903755758
30
3.20593071881819e-028
11
3337.75579614769
21
249.547902842287
31
3.20593071881819e-028
  0
LINE
 8
COMPONENT0
10
3337.75579614769
20
249.547902842287
30
3.20593071881819e-028
11
3337.76750386876
21
249.77547859541
31
3.20593071881819e-028
  0
LINE
 8
COMPONENT0
10
3337.76750386876
20
249.77547859541
30
3.20593071881819e-028
11
3337.81685546899
21
249.985928326835
31
3.20593071881819e-028
  0
LINE
 8
COMPONENT0
10
3337.81685546899
20
249.985928326835
30
3.20593071881819e-028
11
3337.90171522255
21
250.174963247983
31
3.20593071881819e-028
  0
LINE
 8
COMPONENT0
10
3337.90171522255
20
250.174963247983
30
3.20593071881819e-028
11
3338.01988748664
21
250.339288922255
31
3.20593071881819e-028
  0
LINE
 8
COMPONENT0
10
3338.01988748664
20
250.339288922255
30
3.20593071881819e-028
11
3338.16917661845
21
250.475610913052
31
3.20593071881819e-028
  0
LINE
 8
COMPONENT0
10
3338.16917661845
20
250.475610913052
30
3.20593071881819e-028
11
3338.34738697516
21
250.580634783774
31
3.20593071881819e-028
  0
LINE
 8
COMPONENT0
10
3338.34738697516
20
250.580634783774
30
3.20593071881819e-028
11
3338.55232291398
21
250.651066097824
31
3.20593071881819e-028
  0
LINE
 8
COMPONENT0
10
3338.55232291398
20
250.651066097824
30
3.20593071881819e-028
11
3338.78178879208
21
250.683610418601
31
3.20593071881819e-028
  0
LINE
 8
COMPONENT0
10
3338.78178879208
20
250.683610418601
30
3.20593071881819e-028
11
3338.91150163872
21
250.684297440876
31
3.20593071881819e-028
  0
LINE
 8
COMPONENT0
10
3338.91150163872
20
250.684297440876
30
3.20593071881819e-028
11
3338.98960944058
21
250.678738380554
31
3.20593071881819e-028
  0
LINE
 8
COMPONENT0
10
3338.98960944058
20
250.678738380554
30
3.20593071881819e-028
11
3339.06409900201
21
250.669205576252
31
3.20593071881819e-028
  0
LINE
 8
COMPONENT0
10
3339.06409900201
20
250.669205576252
30
3.20593071881819e-028
11
3339.13420408451
21
250.65631746412
31
3.20593071881819e-028
  0
LINE
 8
COMPONENT0
10
3339.13420408451
20
250.65631746412
30
3.20593071881819e-028
11
3339.19915844957
21
250.640692480308
31
3.20593071881819e-028
  0
LINE
 8
COMPONENT0
10
3339.19915844957
20
250.640692480308
30
3.20593071881819e-028
11
3339.2581958587
21
250.622949060966
31
3.20593071881819e-028
  0
LINE
 8
COMPONENT0
10
3339.2581958587
20
250.622949060966
30
3.20593071881819e-028
11
3339.3105500734
21
250.603705642245
31
3.20593071881819e-028
  0
LINE
 8
COMPONENT0
10
3339.3105500734
20
250.603705642245
30
3.20593071881819e-028
11
3339.35545485516
21
250.583580660294
31
3.20593071881819e-028
  0
LINE
 8
COMPONENT0
10
3339.35545485516
20
250.583580660294
30
3.20593071881819e-028
11
3339.3625628141
21
250.546604033559
31
3.20593071881819e-028
  0
LINE
 8
COMPONENT0
10
3339.3625628141
20
250.546604033559
30
3.20593071881819e-028
11
3339.35061088724
21
250.50653708527
31
3.20593071881819e-028
  0
LINE
 8
COMPONENT0
10
3339.35061088724
20
250.50653708527
30
3.20593071881819e-028
11
3339.33588980556
21
250.457186982517
31
3.20593071881819e-028
  0
LINE
 8
COMPONENT0
10
3339.33588980556
20
250.457186982517
30
3.20593071881819e-028
11
3339.320309331
21
250.404955900793
31
3.20593071881819e-028
  0
LINE
 8
COMPONENT0
10
3339.320309331
20
250.404955900793
30
3.20593071881819e-028
11
3339.30577922551
21
250.35624601559
31
3.20593071881819e-028
  0
LINE
 8
COMPONENT0
10
3339.30577922551
20
250.35624601559
30
3.20593071881819e-028
11
3339.29420925104
21
250.317459502399
31
3.20593071881819e-028
  0
LINE
 8
COMPONENT0
10
3339.29420925104
20
250.317459502399
30
3.20593071881819e-028
11
3339.26953843277
21
250.30056979073
31
3.20593071881819e-028
  0
LINE
 8
COMPONENT0
10
3339.26953843277
20
250.30056979073
30
3.20593071881819e-028
11
3339.23189574123
21
250.317901100816
31
3.20593071881819e-028
  0
LINE
 8
COMPONENT0
10
3339.23189574123
20
250.317901100816
30
3.20593071881819e-028
11
3339.18939599218
21
250.33467990238
31
3.20593071881819e-028
  0
LINE
 8
COMPONENT0
10
3339.18939599218
20
250.33467990238
30
3.20593071881819e-028
11
3339.14189916236
21
250.350285814503
31
3.20593071881819e-028
  0
LINE
 8
COMPONENT0
10
3339.14189916236
20
250.350285814503
30
3.20593071881819e-028
11
3339.08926522847
21
250.364098456267
31
3.20593071881819e-028
  0
LINE
 8
COMPONENT0
10
3339.08926522847
20
250.364098456267
30
3.20593071881819e-028
11
3339.03135416725
21
250.375497446754
31
3.20593071881819e-028
  0
LINE
 8
COMPONENT0
10
3339.03135416725
20
250.375497446754
30
3.20593071881819e-028
11
3338.96802595541
21
250.383862405046
31
3.20593071881819e-028
  0
LINE
 8
COMPONENT0
10
3338.96802595541
20
250.383862405046
30
3.20593071881819e-028
11
3338.89914056967
21
250.388572950226
31
3.20593071881819e-028
  0
LINE
 8
COMPONENT0
10
3338.89914056967
20
250.388572950226
30
3.20593071881819e-028
11
3338.78707751607
21
250.38685113971
31
3.20593071881819e-028
  0
LINE
 8
COMPONENT0
10
3338.78707751607
20
250.38685113971
30
3.20593071881819e-028
11
3338.63106872219
21
250.359351611349
31
3.20593071881819e-028
  0
LINE
 8
COMPONENT0
10
3338.63106872219
20
250.359351611349
30
3.20593071881819e-028
11
3338.49540997823
21
250.304145948981
31
3.20593071881819e-028
  0
LINE
 8
COMPONENT0
10
3338.49540997823
20
250.304145948981
30
3.20593071881819e-028
11
3338.38052718834
21
250.224386621158
31
3.20593071881819e-028
  0
LINE
 8
COMPONENT0
10
3338.38052718834
20
250.224386621158
30
3.20593071881819e-028
11
3338.28684625666
21
250.123226096432
31
3.20593071881819e-028
  0
LINE
 8
COMPONENT0
10
3338.28684625666
20
250.123226096432
30
3.20593071881819e-028
11
3338.21479308732
21
250.003816843355
31
3.20593071881819e-028
  0
LINE
 8
COMPONENT0
10
3338.21479308732
20
250.003816843355
30
3.20593071881819e-028
11
3338.16479358448
21
249.869311330479
31
3.20593071881819e-028
  0
LINE
 8
COMPONENT0
10
3338.16479358448
20
249.869311330479
30
3.20593071881819e-028
11
3338.13727365226
21
249.722862026356
31
3.20593071881819e-028
  0
LINE
 8
COMPONENT0
10
3338.13727365226
20
249.722862026356
30
3.20593071881819e-028
11
3338.13285608505
21
249.563049123133
31
3.20593071881819e-028
  0
LINE
 8
COMPONENT0
10
3338.13285608505
20
249.563049123133
30
3.20593071881819e-028
11
3338.15430803391
21
249.401349689186
31
3.20593071881819e-028
  0
LINE
 8
COMPONENT0
10
3338.15430803391
20
249.401349689186
30
3.20593071881819e-028
11
3338.20063239566
21
249.257887314982
31
3.20593071881819e-028
  0
LINE
 8
COMPONENT0
10
3338.20063239566
20
249.257887314982
30
3.20593071881819e-028
11
3338.26953823387
21
249.133906651895
31
3.20593071881819e-028
  0
LINE
 8
COMPONENT0
10
3338.26953823387
20
249.133906651895
30
3.20593071881819e-028
11
3338.35873461211
21
249.030652351294
31
3.20593071881819e-028
  0
LINE
 8
COMPONENT0
10
3338.35873461211
20
249.030652351294
30
3.20593071881819e-028
11
3338.46593059396
21
248.949369064553
31
3.20593071881819e-028
  0
LINE
 8
COMPONENT0
10
3338.46593059396
20
248.949369064553
30
3.20593071881819e-028
11
3338.58883524297
21
248.891301443042
31
3.20593071881819e-028
  0
LINE
 8
COMPONENT0
10
3338.58883524297
20
248.891301443042
30
3.20593071881819e-028
11
3338.72515762272
21
248.857694138133
31
3.20593071881819e-028
  0
LINE
 8
COMPONENT0
10
3338.72515762272
20
248.857694138133
30
3.20593071881819e-028
11
3338.85787448211
21
248.849348238565
31
3.20593071881819e-028
  0
LINE
 8
COMPONENT0
10
3338.85787448211
20
248.849348238565
30
3.20593071881819e-028
11
3338.93173310578
21
248.852422754342
31
3.20593071881819e-028
  0
LINE
 8
COMPONENT0
10
3338.93173310578
20
248.852422754342
30
3.20593071881819e-028
11
3338.99952522087
21
248.859397501878
31
3.20593071881819e-028
  0
LINE
 8
COMPONENT0
10
3338.99952522087
20
248.859397501878
30
3.20593071881819e-028
11
3339.06168256583
21
248.869650155487
31
3.20593071881819e-028
  0
LINE
 8
COMPONENT0
10
3339.06168256583
20
248.869650155487
30
3.20593071881819e-028
11
3339.1186368791
21
248.882558389483
31
3.20593071881819e-028
  0
LINE
 8
COMPONENT0
10
3339.1186368791
20
248.882558389483
30
3.20593071881819e-028
11
3339.17081989913
21
248.89749987818
31
3.20593071881819e-028
  0
LINE
 8
COMPONENT0
10
3339.17081989913
20
248.89749987818
30
3.20593071881819e-028
11
3339.21866336436
21
248.913852295894
31
3.20593071881819e-028
  0
LINE
 8
COMPONENT0
10
3339.21866336436
20
248.913852295894
30
3.20593071881819e-028
11
3339.26259901324
21
248.930993316937
31
3.20593071881819e-028
  0
LINE
 8
COMPONENT0
10
3339.26259901324
20
248.930993316937
30
3.20593071881819e-028
11
3339.29918557045
21
248.946453437275
31
3.20593071881819e-028
  0
LINE
 8
COMPONENT0
10
3339.29918557045
20
248.946453437275
30
3.20593071881819e-028
11
3339.3097584949
21
248.899978414365
31
3.20593071881819e-028
  0
LINE
 8
COMPONENT0
10
3339.3097584949
20
248.899978414365
30
3.20593071881819e-028
11
3339.31996064937
21
248.85513317167
31
3.20593071881819e-028
  0
LINE
 8
COMPONENT0
10
3339.31996064937
20
248.85513317167
30
3.20593071881819e-028
11
3339.33152628052
21
248.804294543668
31
3.20593071881819e-028
  0
LINE
 8
COMPONENT0
10
3339.33152628052
20
248.804294543668
30
3.20593071881819e-028
11
3339.34302014975
21
248.753771356998
31
3.20593071881819e-028
  0
LINE
 8
COMPONENT0
10
3339.34302014975
20
248.753771356998
30
3.20593071881819e-028
11
3339.35300701843
21
248.709872438299
31
3.20593071881819e-028
  0
LINE
 8
COMPONENT0
10
3339.35300701843
20
248.709872438299
30
3.20593071881819e-028
11
3339.36271879971
21
248.667182711373
31
3.20593071881819e-028
  0
LINE
 8
COMPONENT0
10
3341.23805776426
20
249.086106598741
30
3.20593071881819e-028
11
3341.23857459231
21
249.011787664196
31
3.20593071881819e-028
  0
LINE
 8
COMPONENT0
10
3341.23857459231
20
249.011787664196
30
3.20593071881819e-028
11
3341.2401666712
21
248.938474700952
31
3.20593071881819e-028
  0
LINE
 8
COMPONENT0
10
3341.2401666712
20
248.938474700952
30
3.20593071881819e-028
11
3341.24289639303
21
248.866646993765
31
3.20593071881819e-028
  0
LINE
 8
COMPONENT0
10
3341.24289639303
20
248.866646993765
30
3.20593071881819e-028
11
3341.2468261499
21
248.796783827393
31
3.20593071881819e-028
  0
LINE
 8
COMPONENT0
10
3341.2468261499
20
248.796783827393
30
3.20593071881819e-028
11
3341.2520183339
21
248.72936448659
31
3.20593071881819e-028
  0
LINE
 8
COMPONENT0
10
3341.2520183339
20
248.72936448659
30
3.20593071881819e-028
11
3341.25853533713
21
248.664868256114
31
3.20593071881819e-028
  0
LINE
 8
COMPONENT0
10
3341.25853533713
20
248.664868256114
30
3.20593071881819e-028
11
3341.2664395517
21
248.603774420719
31
3.20593071881819e-028
  0
LINE
 8
COMPONENT0
10
3341.2664395517
20
248.603774420719
30
3.20593071881819e-028
11
3341.21166192133
21
248.595352423119
31
3.20593071881819e-028
  0
LINE
 8
COMPONENT0
10
3341.21166192133
20
248.595352423119
30
3.20593071881819e-028
11
3341.15005618713
21
248.595352423119
31
3.20593071881819e-028
  0
LINE
 8
COMPONENT0
10
3341.15005618713
20
248.595352423119
30
3.20593071881819e-028
11
3341.0805906691
21
248.595352423119
31
3.20593071881819e-028
  0
LINE
 8
COMPONENT0
10
3341.0805906691
20
248.595352423119
30
3.20593071881819e-028
11
3341.0142690646
21
248.595352423119
31
3.20593071881819e-028
  0
LINE
 8
COMPONENT0
10
3341.0142690646
20
248.595352423119
30
3.20593071881819e-028
11
3340.96209507099
21
248.595352423119
31
3.20593071881819e-028
  0
LINE
 8
COMPONENT0
10
3340.96209507099
20
248.595352423119
30
3.20593071881819e-028
11
3340.93507238563
21
248.595352423119
31
3.20593071881819e-028
  0
LINE
 8
COMPONENT0
10
3340.93507238563
20
248.595352423119
30
3.20593071881819e-028
11
3340.92921058212
21
248.63283213221
31
3.20593071881819e-028
  0
LINE
 8
COMPONENT0
10
3340.92921058212
20
248.63283213221
30
3.20593071881819e-028
11
3340.9239278196
21
248.678872021772
31
3.20593071881819e-028
  0
LINE
 8
COMPONENT0
10
3340.9239278196
20
248.678872021772
30
3.20593071881819e-028
11
3340.91780884092
21
248.732199632546
31
3.20593071881819e-028
  0
LINE
 8
COMPONENT0
10
3340.91780884092
20
248.732199632546
30
3.20593071881819e-028
11
3340.91182923159
21
248.784312623118
31
3.20593071881819e-028
  0
LINE
 8
COMPONENT0
10
3340.91182923159
20
248.784312623118
30
3.20593071881819e-028
11
3340.90696457717
21
248.826708652075
31
3.20593071881819e-028
  0
LINE
 8
COMPONENT0
10
3340.90696457717
20
248.826708652075
30
3.20593071881819e-028
11
3340.90365159477
21
248.853562500078
31
3.20593071881819e-028
  0
LINE
 8
COMPONENT0
10
3340.90365159477
20
248.853562500078
30
3.20593071881819e-028
11
3340.86944455768
21
248.824814567644
31
3.20593071881819e-028
  0
LINE
 8
COMPONENT0
10
3340.86944455768
20
248.824814567644
30
3.20593071881819e-028
11
3340.81019178115
21
248.760091485748
31
3.20593071881819e-028
  0
LINE
 8
COMPONENT0
10
3340.81019178115
20
248.760091485748
30
3.20593071881819e-028
11
3340.73929518053
21
248.700355720293
31
3.20593071881819e-028
  0
LINE
 8
COMPONENT0
10
3340.73929518053
20
248.700355720293
30
3.20593071881819e-028
11
3340.65731061271
21
248.64769457057
31
3.20593071881819e-028
  0
LINE
 8
COMPONENT0
10
3340.65731061271
20
248.64769457057
30
3.20593071881819e-028
11
3340.56479393456
21
248.604195335873
31
3.20593071881819e-028
  0
LINE
 8
COMPONENT0
10
3340.56479393456
20
248.604195335873
30
3.20593071881819e-028
11
3340.46230100295
21
248.571945315496
31
3.20593071881819e-028
  0
LINE
 8
COMPONENT0
10
3340.46230100295
20
248.571945315496
30
3.20593071881819e-028
11
3340.35038767476
21
248.553031808731
31
3.20593071881819e-028
  0
LINE
 8
COMPONENT0
10
3340.35038767476
20
248.553031808731
30
3.20593071881819e-028
11
3340.21621116575
21
248.550226647528
31
3.20593071881819e-028
  0
LINE
 8
COMPONENT0
10
3340.21621116575
20
248.550226647528
30
3.20593071881819e-028
11
3340.06088587271
21
248.575544614451
31
3.20593071881819e-028
  0
LINE
 8
COMPONENT0
10
3340.06088587271
20
248.575544614451
30
3.20593071881819e-028
11
3339.92962245706
21
248.629105539648
31
3.20593071881819e-028
  0
LINE
 8
COMPONENT0
10
3339.92962245706
20
248.629105539648
30
3.20593071881819e-028
11
3339.82255988302
21
248.706170459641
31
3.20593071881819e-028
  0
LINE
 8
COMPONENT0
10
3339.82255988302
20
248.706170459641
30
3.20593071881819e-028
11
3339.7398371148
21
248.802000410954
31
3.20593071881819e-028
  0
LINE
 8
COMPONENT0
10
3339.7398371148
20
248.802000410954
30
3.20593071881819e-028
11
3339.68159311664
21
248.911856430111
31
3.20593071881819e-028
  0
LINE
 8
COMPONENT0
10
3339.68159311664
20
248.911856430111
30
3.20593071881819e-028
11
3339.64796685275
21
249.030999553633
31
3.20593071881819e-028
  0
LINE
 8
COMPONENT0
10
3339.64796685275
20
249.030999553633
30
3.20593071881819e-028
11
3339.63937060348
21
249.166355885981
31
3.20593071881819e-028
  0
LINE
 8
COMPONENT0
10
3339.63937060348
20
249.166355885981
30
3.20593071881819e-028
11
3339.67226804316
21
249.357118328239
31
3.20593071881819e-028
  0
LINE
 8
COMPONENT0
10
3339.67226804316
20
249.357118328239
30
3.20593071881819e-028
11
3339.75523635727
21
249.520549790234
31
3.20593071881819e-028
  0
LINE
 8
COMPONENT0
10
3339.75523635727
20
249.520549790234
30
3.20593071881819e-028
11
3339.88681783951
21
249.655813650646
31
3.20593071881819e-028
  0
LINE
 8
COMPONENT0
10
3339.88681783951
20
249.655813650646
30
3.20593071881819e-028
11
3340.06555478357
21
249.762073288155
31
3.20593071881819e-028
  0
LINE
 8
COMPONENT0
10
3340.06555478357
20
249.762073288155
30
3.20593071881819e-028
11
3340.28998948315
21
249.838492081442
31
3.20593071881819e-028
  0
LINE
 8
COMPONENT0
10
3340.28998948315
20
249.838492081442
30
3.20593071881819e-028
11
3340.55866423197
21
249.884233409186
31
3.20593071881819e-028
  0
LINE
 8
COMPONENT0
10
3340.55866423197
20
249.884233409186
30
3.20593071881819e-028
11
3340.87012132371
21
249.898460650068
31
3.20593071881819e-028
  0
LINE
 8
COMPONENT0
10
3340.87012132371
20
249.898460650068
30
3.20593071881819e-028
11
3340.87012132371
21
249.931682416768
31
3.20593071881819e-028
  0
LINE
 8
COMPONENT0
10
3340.87012132371
20
249.931682416768
30
3.20593071881819e-028
11
3340.86754242825
21
250.005666513994
31
3.20593071881819e-028
  0
LINE
 8
COMPONENT0
10
3340.86754242825
20
250.005666513994
30
3.20593071881819e-028
11
3340.85493535622
21
250.090688297914
31
3.20593071881819e-028
  0
LINE
 8
COMPONENT0
10
3340.85493535622
20
250.090688297914
30
3.20593071881819e-028
11
3340.82688948096
21
250.178651828762
31
3.20593071881819e-028
  0
LINE
 8
COMPONENT0
10
3340.82688948096
20
250.178651828762
30
3.20593071881819e-028
11
3340.77804759004
21
250.262033186666
31
3.20593071881819e-028
  0
LINE
 8
COMPONENT0
10
3340.77804759004
20
250.262033186666
30
3.20593071881819e-028
11
3340.703052471
21
250.333308451757
31
3.20593071881819e-028
  0
LINE
 8
COMPONENT0
10
3340.703052471
20
250.333308451757
30
3.20593071881819e-028
11
3340.59654691139
21
250.384953704162
31
3.20593071881819e-028
  0
LINE
 8
COMPONENT0
10
3340.59654691139
20
250.384953704162
30
3.20593071881819e-028
11
3340.45317369875
21
250.409445024013
31
3.20593071881819e-028
  0
LINE
 8
COMPONENT0
10
3340.45317369875
20
250.409445024013
30
3.20593071881819e-028
11
3340.34622444638
21
250.408766272231
31
3.20593071881819e-028
  0
LINE
 8
COMPONENT0
10
3340.34622444638
20
250.408766272231
30
3.20593071881819e-028
11
3340.26461943049
21
250.401080767629
31
3.20593071881819e-028
  0
LINE
 8
COMPONENT0
10
3340.26461943049
20
250.401080767629
30
3.20593071881819e-028
11
3340.1841852793
21
250.387288129964
31
3.20593071881819e-028
  0
LINE
 8
COMPONENT0
10
3340.1841852793
20
250.387288129964
30
3.20593071881819e-028
11
3340.10590041436
21
250.367595387561
31
3.20593071881819e-028
  0
LINE
 8
COMPONENT0
10
3340.10590041436
20
250.367595387561
30
3.20593071881819e-028
11
3340.03074325722
21
250.342209568748
31
3.20593071881819e-028
  0
LINE
 8
COMPONENT0
10
3340.03074325722
20
250.342209568748
30
3.20593071881819e-028
11
3339.9596922294
21
250.311337701851
31
3.20593071881819e-028
  0
LINE
 8
COMPONENT0
10
3339.9596922294
20
250.311337701851
30
3.20593071881819e-028
11
3339.89372575247
21
250.275186815197
31
3.20593071881819e-028
  0
LINE
 8
COMPONENT0
10
3339.89372575247
20
250.275186815197
30
3.20593071881819e-028
11
3339.86571609208
21
250.262665537116
31
3.20593071881819e-028
  0
LINE
 8
COMPONENT0
10
3339.86571609208
20
250.262665537116
30
3.20593071881819e-028
11
3339.85677391917
21
250.289054963893
31
3.20593071881819e-028
  0
LINE
 8
COMPONENT0
10
3339.85677391917
20
250.289054963893
30
3.20593071881819e-028
11
3339.84226183348
21
250.331881872604
31
3.20593071881819e-028
  0
LINE
 8
COMPONENT0
10
3339.84226183348
20
250.331881872604
30
3.20593071881819e-028
11
3339.82496479138
21
250.382927522281
31
3.20593071881819e-028
  0
LINE
 8
COMPONENT0
10
3339.82496479138
20
250.382927522281
30
3.20593071881819e-028
11
3339.80766774929
21
250.433973171959
31
3.20593071881819e-028
  0
LINE
 8
COMPONENT0
10
3339.80766774929
20
250.433973171959
30
3.20593071881819e-028
11
3339.79315566359
21
250.47680008067
31
3.20593071881819e-028
  0
LINE
 8
COMPONENT0
10
3339.79315566359
20
250.47680008067
30
3.20593071881819e-028
11
3339.78421349068
21
250.503189507447
31
3.20593071881819e-028
  0
LINE
 8
COMPONENT0
10
3339.78421349068
20
250.503189507447
30
3.20593071881819e-028
11
3339.8140046566
21
250.526418306456
31
3.20593071881819e-028
  0
LINE
 8
COMPONENT0
10
3339.8140046566
20
250.526418306456
30
3.20593071881819e-028
11
3339.89331346384
21
250.566893675498
31
3.20593071881819e-028
  0
LINE
 8
COMPONENT0
10
3339.89331346384
20
250.566893675498
30
3.20593071881819e-028
11
3339.98036456331
21
250.602470859669
31
3.20593071881819e-028
  0
LINE
 8
COMPONENT0
10
3339.98036456331
20
250.602470859669
30
3.20593071881819e-028
11
3340.07398384913
21
250.632528773989
31
3.20593071881819e-028
  0
LINE
 8
COMPONENT0
10
3340.07398384913
20
250.632528773989
30
3.20593071881819e-028
11
3340.17299721547
21
250.656446333479
31
3.20593071881819e-028
  0
LINE
 8
COMPONENT0
10
3340.17299721547
20
250.656446333479
30
3.20593071881819e-028
11
3340.27623055646
21
250.673602453158
31
3.20593071881819e-028
  0
LINE
 8
COMPONENT0
10
3340.27623055646
20
250.673602453158
30
3.20593071881819e-028
11
3340.38250976626
21
250.683376048047
31
3.20593071881819e-028
  0
LINE
 8
COMPONENT0
10
3340.38250976626
20
250.683376048047
30
3.20593071881819e-028
11
3340.53252149899
21
250.683470591176
31
3.20593071881819e-028
  0
LINE
 8
COMPONENT0
10
3340.53252149899
20
250.683470591176
30
3.20593071881819e-028
11
3340.75357214106
21
250.64656936912
31
3.20593071881819e-028
  0
LINE
 8
COMPONENT0
10
3340.75357214106
20
250.64656936912
30
3.20593071881819e-028
11
3340.92570292138
21
250.568905039324
31
3.20593071881819e-028
  0
LINE
 8
COMPONENT0
10
3340.92570292138
20
250.568905039324
30
3.20593071881819e-028
11
3341.0542086603
21
250.457862557439
31
3.20593071881819e-028
  0
LINE
 8
COMPONENT0
10
3341.0542086603
20
250.457862557439
30
3.20593071881819e-028
11
3341.14438417818
21
250.320826879116
31
3.20593071881819e-028
  0
LINE
 8
COMPONENT0
10
3341.14438417818
20
250.320826879116
30
3.20593071881819e-028
11
3341.20152429536
21
250.165182960006
31
3.20593071881819e-028
  0
LINE
 8
COMPONENT0
10
3341.20152429536
20
250.165182960006
30
3.20593071881819e-028
11
3341.23092383221
21
249.998315755761
31
3.20593071881819e-028
  0
LINE
 8
COMPONENT0
10
3341.23092383221
20
249.998315755761
30
3.20593071881819e-028
11
3341.23805776426
21
249.851045069581
31
3.20593071881819e-028
  0
LINE
 8
COMPONENT0
10
3341.23805776426
20
249.851045069581
30
3.20593071881819e-028
11
3341.23805776426
21
249.799408720686
31
3.20593071881819e-028
  0
LINE
 8
COMPONENT0
10
3341.23805776426
20
249.799408720686
30
3.20593071881819e-028
11
3341.23805776426
21
249.686529260311
31
3.20593071881819e-028
  0
LINE
 8
COMPONENT0
10
3341.23805776426
20
249.686529260311
30
3.20593071881819e-028
11
3341.23805776426
21
249.537624440242
31
3.20593071881819e-028
  0
LINE
 8
COMPONENT0
10
3341.23805776426
20
249.537624440242
30
3.20593071881819e-028
11
3341.23805776426
21
249.377912012264
31
3.20593071881819e-028
  0
LINE
 8
COMPONENT0
10
3341.23805776426
20
249.377912012264
30
3.20593071881819e-028
11
3341.23805776426
21
249.232609728164
31
3.20593071881819e-028
  0
LINE
 8
COMPONENT0
10
3341.23805776426
20
249.232609728164
30
3.20593071881819e-028
11
3341.23805776426
21
249.126935339727
31
3.20593071881819e-028
  0
LINE
 8
COMPONENT0
10
3341.23805776426
20
249.126935339727
30
3.20593071881819e-028
11
3341.23805776426
21
249.086106598741
31
3.20593071881819e-028
  0
LINE
 8
COMPONENT0
10
3341.83991634257
20
249.974597310519
30
3.20593071881819e-028
11
3341.83955172139
21
250.069700242869
31
3.20593071881819e-028
  0
LINE
 8
COMPONENT0
10
3341.83955172139
20
250.069700242869
30
3.20593071881819e-028
11
3341.83851786706
21
250.16053241103
31
3.20593071881819e-028
  0
LINE
 8
COMPONENT0
10
3341.83851786706
20
250.16053241103
30
3.20593071881819e-028
11
3341.83690479339
21
250.247473438486
31
3.20593071881819e-028
  0
LINE
 8
COMPONENT0
10
3341.83690479339
20
250.247473438486
30
3.20593071881819e-028
11
3341.8348025142
21
250.33090294872
31
3.20593071881819e-028
  0
LINE
 8
COMPONENT0
10
3341.8348025142
20
250.33090294872
30
3.20593071881819e-028
11
3341.83230104331
21
250.411200565217
31
3.20593071881819e-028
  0
LINE
 8
COMPONENT0
10
3341.83230104331
20
250.411200565217
30
3.20593071881819e-028
11
3341.82949039453
21
250.488745911458
31
3.20593071881819e-028
  0
LINE
 8
COMPONENT0
10
3341.82949039453
20
250.488745911458
30
3.20593071881819e-028
11
3341.82646058168
21
250.563918610929
31
3.20593071881819e-028
  0
LINE
 8
COMPONENT0
10
3341.82646058168
20
250.563918610929
30
3.20593071881819e-028
11
3341.82330161857
21
250.637098287111
31
3.20593071881819e-028
  0
LINE
 8
COMPONENT0
10
3341.82330161857
20
250.637098287111
30
3.20593071881819e-028
11
3341.86990306046
21
250.643118530451
31
3.20593071881819e-028
  0
LINE
 8
COMPONENT0
10
3341.86990306046
20
250.643118530451
30
3.20593071881819e-028
11
3341.92093480604
21
250.643118530451
31
3.20593071881819e-028
  0
LINE
 8
COMPONENT0
10
3341.92093480604
20
250.643118530451
30
3.20593071881819e-028
11
3341.98040241161
21
250.643118530451
31
3.20593071881819e-028
  0
LINE
 8
COMPONENT0
10
3341.98040241161
20
250.643118530451
30
3.20593071881819e-028
11
3342.04080733496
21
250.643118530451
31
3.20593071881819e-028
  0
LINE
 8
COMPONENT0
10
3342.04080733496
20
250.643118530451
30
3.20593071881819e-028
11
3342.09465103387
21
250.643118530451
31
3.20593071881819e-028
  0
LINE
 8
COMPONENT0
10
3342.09465103387
20
250.643118530451
30
3.20593071881819e-028
11
3342.13443496615
21
250.643118530451
31
3.20593071881819e-028
  0
LINE
 8
COMPONENT0
10
3342.13443496615
20
250.643118530451
30
3.20593071881819e-028
11
3342.15585098942
21
250.597112380337
31
3.20593071881819e-028
  0
LINE
 8
COMPONENT0
10
3342.15585098942
20
250.597112380337
30
3.20593071881819e-028
11
3342.15906017763
21
250.543912910737
31
3.20593071881819e-028
  0
LINE
 8
COMPONENT0
10
3342.15906017763
20
250.543912910737
30
3.20593071881819e-028
11
3342.1628510312
21
250.481071037272
31
3.20593071881819e-028
  0
LINE
 8
COMPONENT0
10
3342.1628510312
20
250.481071037272
30
3.20593071881819e-028
11
3342.16674217191
21
250.416566680381
31
3.20593071881819e-028
  0
LINE
 8
COMPONENT0
10
3342.16674217191
20
250.416566680381
30
3.20593071881819e-028
11
3342.17025222151
21
250.358379760506
31
3.20593071881819e-028
  0
LINE
 8
COMPONENT0
10
3342.17025222151
20
250.358379760506
30
3.20593071881819e-028
11
3342.17289980179
21
250.314490198086
31
3.20593071881819e-028
  0
LINE
 8
COMPONENT0
10
3342.17289980179
20
250.314490198086
30
3.20593071881819e-028
11
3342.22133450475
21
250.351506470703
31
3.20593071881819e-028
  0
LINE
 8
COMPONENT0
10
3342.22133450475
20
250.351506470703
30
3.20593071881819e-028
11
3342.28665559025
21
250.432544384246
31
3.20593071881819e-028
  0
LINE
 8
COMPONENT0
10
3342.28665559025
20
250.432544384246
30
3.20593071881819e-028
11
3342.36074454322
21
250.503136944598
31
3.20593071881819e-028
  0
LINE
 8
COMPONENT0
10
3342.36074454322
20
250.503136944598
30
3.20593071881819e-028
11
3342.44350939302
21
250.562853650901
31
3.20593071881819e-028
  0
LINE
 8
COMPONENT0
10
3342.44350939302
20
250.562853650901
30
3.20593071881819e-028
11
3342.534858169
21
250.611264002298
31
3.20593071881819e-028
  0
LINE
 8
COMPONENT0
10
3342.534858169
20
250.611264002298
30
3.20593071881819e-028
11
3342.63469890054
21
250.64793749793
31
3.20593071881819e-028
  0
LINE
 8
COMPONENT0
10
3342.63469890054
20
250.64793749793
30
3.20593071881819e-028
11
3342.74293961699
21
250.672443636941
31
3.20593071881819e-028
  0
LINE
 8
COMPONENT0
10
3342.74293961699
20
250.672443636941
30
3.20593071881819e-028
11
3342.85948834771
21
250.684351918473
31
3.20593071881819e-028
  0
LINE
 8
COMPONENT0
10
3342.85948834771
20
250.684351918473
30
3.20593071881819e-028
11
3343.0164805075
21
250.679030976304
31
3.20593071881819e-028
  0
LINE
 8
COMPONENT0
10
3343.0164805075
20
250.679030976304
30
3.20593071881819e-028
11
3343.18738298825
21
250.638928448936
31
3.20593071881819e-028
  0
LINE
 8
COMPONENT0
10
3343.18738298825
20
250.638928448936
30
3.20593071881819e-028
11
3343.34222550405
21
250.564317038061
31
3.20593071881819e-028
  0
LINE
 8
COMPONENT0
10
3343.34222550405
20
250.564317038061
30
3.20593071881819e-028
11
3343.47821762663
21
250.457697562294
31
3.20593071881819e-028
  0
LINE
 8
COMPONENT0
10
3343.47821762663
20
250.457697562294
30
3.20593071881819e-028
11
3343.59256892769
21
250.321570840254
31
3.20593071881819e-028
  0
LINE
 8
COMPONENT0
10
3343.59256892769
20
250.321570840254
30
3.20593071881819e-028
11
3343.68248897896
21
250.158437690558
31
3.20593071881819e-028
  0
LINE
 8
COMPONENT0
10
3343.68248897896
20
250.158437690558
30
3.20593071881819e-028
11
3343.74518735214
21
249.970798931825
31
3.20593071881819e-028
  0
LINE
 8
COMPONENT0
10
3343.74518735214
20
249.970798931825
30
3.20593071881819e-028
11
3343.77787361895
21
249.76115538267
31
3.20593071881819e-028
  0
LINE
 8
COMPONENT0
10
3343.77787361895
20
249.76115538267
30
3.20593071881819e-028
11
3343.77699233558
21
249.516518337584
31
3.20593071881819e-028
  0
LINE
 8
COMPONENT0
10
3343.77699233558
20
249.516518337584
30
3.20593071881819e-028
11
3343.73801309204
21
249.277427768792
31
3.20593071881819e-028
  0
LINE
 8
COMPONENT0
10
3343.73801309204
20
249.277427768792
30
3.20593071881819e-028
11
3343.66466406241
21
249.072388187142
31
3.20593071881819e-028
  0
LINE
 8
COMPONENT0
10
3343.66466406241
20
249.072388187142
30
3.20593071881819e-028
11
3343.56175511539
21
248.901301751529
31
3.20593071881819e-028
  0
LINE
 8
COMPONENT0
10
3343.56175511539
20
248.901301751529
30
3.20593071881819e-028
11
3343.43409611964
21
248.76407062085
31
3.20593071881819e-028
  0
LINE
 8
COMPONENT0
10
3343.43409611964
20
248.76407062085
30
3.20593071881819e-028
11
3343.28649694383
21
248.660596954
31
3.20593071881819e-028
  0
LINE
 8
COMPONENT0
10
3343.28649694383
20
248.660596954
30
3.20593071881819e-028
11
3343.12376745664
21
248.590782909877
31
3.20593071881819e-028
  0
LINE
 8
COMPONENT0
10
3343.12376745664
20
248.590782909877
30
3.20593071881819e-028
11
3342.95071752672
21
248.554530647375
31
3.20593071881819e-028
  0
LINE
 8
COMPONENT0
10
3342.95071752672
20
248.554530647375
30
3.20593071881819e-028
11
3342.80532596009
21
248.54978231838
31
3.20593071881819e-028
  0
LINE
 8
COMPONENT0
10
3342.80532596009
20
248.54978231838
30
3.20593071881819e-028
11
3342.70810516192
21
248.559568168175
31
3.20593071881819e-028
  0
LINE
 8
COMPONENT0
10
3342.70810516192
20
248.559568168175
30
3.20593071881819e-028
11
3342.61528949639
21
248.579682940248
31
3.20593071881819e-028
  0
LINE
 8
COMPONENT0
10
3342.61528949639
20
248.579682940248
30
3.20593071881819e-028
11
3342.52778888576
21
248.609747011115
31
3.20593071881819e-028
  0
LINE
 8
COMPONENT0
10
3342.52778888576
20
248.609747011115
30
3.20593071881819e-028
11
3342.44651325231
21
248.649380757293
31
3.20593071881819e-028
  0
LINE
 8
COMPONENT0
10
3342.44651325231
20
248.649380757293
30
3.20593071881819e-028
11
3342.3723725183
21
248.698204555299
31
3.20593071881819e-028
  0
LINE
 8
COMPONENT0
10
3342.3723725183
20
248.698204555299
30
3.20593071881819e-028
11
3342.30627660599
21
248.755838781649
31
3.20593071881819e-028
  0
LINE
 8
COMPONENT0
10
3342.30627660599
20
248.755838781649
30
3.20593071881819e-028
11
3342.24913543765
21
248.82190381286
31
3.20593071881819e-028
  0
LINE
 8
COMPONENT0
10
3342.24913543765
20
248.82190381286
30
3.20593071881819e-028
11
3342.21642450673
21
248.870443479092
31
3.20593071881819e-028
  0
LINE
 8
COMPONENT0
10
3342.21642450673
20
248.870443479092
30
3.20593071881819e-028
11
3342.2081972929
21
248.798843664958
31
3.20593071881819e-028
  0
LINE
 8
COMPONENT0
10
3342.2081972929
20
248.798843664958
30
3.20593071881819e-028
11
3342.2081972929
21
248.659791887992
31
3.20593071881819e-028
  0
LINE
 8
COMPONENT0
10
3342.2081972929
20
248.659791887992
30
3.20593071881819e-028
11
3342.2081972929
21
248.475442941256
31
3.20593071881819e-028
  0
LINE
 8
COMPONENT0
10
3342.2081972929
20
248.475442941256
30
3.20593071881819e-028
11
3342.2081972929
21
248.271078966017
31
3.20593071881819e-028
  0
LINE
 8
COMPONENT0
10
3342.2081972929
20
248.271078966017
30
3.20593071881819e-028
11
3342.2081972929
21
248.071982103543
31
3.20593071881819e-028
  0
LINE
 8
COMPONENT0
10
3342.2081972929
20
248.071982103543
30
3.20593071881819e-028
11
3342.2081972929
21
247.903434495099
31
3.20593071881819e-028
  0
LINE
 8
COMPONENT0
10
3342.2081972929
20
247.903434495099
30
3.20593071881819e-028
11
3342.2081972929
21
247.790718281952
31
3.20593071881819e-028
  0
LINE
 8
COMPONENT0
10
3342.2081972929
20
247.790718281952
30
3.20593071881819e-028
11
3342.20773405302
21
247.757676903271
31
3.20593071881819e-028
  0
LINE
 8
COMPONENT0
10
3342.20773405302
20
247.757676903271
30
3.20593071881819e-028
11
3342.14300313962
21
247.757676903271
31
3.20593071881819e-028
  0
LINE
 8
COMPONENT0
10
3342.14300313962
20
247.757676903271
30
3.20593071881819e-028
11
3342.08292076578
21
247.757676903271
31
3.20593071881819e-028
  0
LINE
 8
COMPONENT0
10
3342.08292076578
20
247.757676903271
30
3.20593071881819e-028
11
3342.01551694212
21
247.757676903271
31
3.20593071881819e-028
  0
LINE
 8
COMPONENT0
10
3342.01551694212
20
247.757676903271
30
3.20593071881819e-028
11
3341.94915903988
21
247.757676903271
31
3.20593071881819e-028
  0
LINE
 8
COMPONENT0
10
3341.94915903988
20
247.757676903271
30
3.20593071881819e-028
11
3341.89221443024
21
247.757676903271
31
3.20593071881819e-028
  0
LINE
 8
COMPONENT0
10
3341.89221443024
20
247.757676903271
30
3.20593071881819e-028
11
3341.85305048443
21
247.757676903271
31
3.20593071881819e-028
  0
LINE
 8
COMPONENT0
10
3341.85305048443
20
247.757676903271
30
3.20593071881819e-028
11
3341.83991634257
21
247.866461517737
31
3.20593071881819e-028
  0
LINE
 8
COMPONENT0
10
3341.83991634257
20
247.866461517737
30
3.20593071881819e-028
11
3341.83991634257
21
248.123551248564
31
3.20593071881819e-028
  0
LINE
 8
COMPONENT0
10
3341.83991634257
20
248.123551248564
30
3.20593071881819e-028
11
3341.83991634257
21
248.479279488361
31
3.20593071881819e-028
  0
LINE
 8
COMPONENT0
10
3341.83991634257
20
248.479279488361
30
3.20593071881819e-028
11
3341.83991634257
21
248.883277636804
31
3.20593071881819e-028
  0
LINE
 8
COMPONENT0
10
3341.83991634257
20
248.883277636804
30
3.20593071881819e-028
11
3341.83991634257
21
249.285177093566
31
3.20593071881819e-028
  0
LINE
 8
COMPONENT0
10
3341.83991634257
20
249.285177093566
30
3.20593071881819e-028
11
3341.83991634257
21
249.634609258323
31
3.20593071881819e-028
  0
LINE
 8
COMPONENT0
10
3341.83991634257
20
249.634609258323
30
3.20593071881819e-028
11
3341.83991634257
21
249.881205530749
31
3.20593071881819e-028
  0
LINE
 8
COMPONENT0
10
3341.83991634257
20
249.881205530749
30
3.20593071881819e-028
11
3341.83991634257
21
249.974597310519
31
3.20593071881819e-028
  0
LINE
 8
COMPONENT0
10
3346.10184677895
20
249.636288710687
30
3.20593071881819e-028
11
3346.07954737065
21
249.379484104579
31
3.20593071881819e-028
  0
LINE
 8
COMPONENT0
10
3346.07954737065
20
249.379484104579
30
3.20593071881819e-028
11
3346.01668743651
21
249.159338398624
31
3.20593071881819e-028
  0
LINE
 8
COMPONENT0
10
3346.01668743651
20
249.159338398624
30
3.20593071881819e-028
11
3345.91932441262
21
248.974806128312
31
3.20593071881819e-028
  0
LINE
 8
COMPONENT0
10
3345.91932441262
20
248.974806128312
30
3.20593071881819e-028
11
3345.79351573507
21
248.824841829131
31
3.20593071881819e-028
  0
LINE
 8
COMPONENT0
10
3345.79351573507
20
248.824841829131
30
3.20593071881819e-028
11
3345.64531883997
21
248.708400036573
31
3.20593071881819e-028
  0
LINE
 8
COMPONENT0
10
3345.64531883997
20
248.708400036573
30
3.20593071881819e-028
11
3345.48079116341
21
248.624435286127
31
3.20593071881819e-028
  0
LINE
 8
COMPONENT0
10
3345.48079116341
20
248.624435286127
30
3.20593071881819e-028
11
3345.30599014149
21
248.571902113281
31
3.20593071881819e-028
  0
LINE
 8
COMPONENT0
10
3345.30599014149
20
248.571902113281
30
3.20593071881819e-028
11
3345.1269732103
21
248.549755053527
31
3.20593071881819e-028
  0
LINE
 8
COMPONENT0
10
3345.1269732103
20
248.549755053527
30
3.20593071881819e-028
11
3344.93543684736
21
248.558790126049
31
3.20593071881819e-028
  0
LINE
 8
COMPONENT0
10
3344.93543684736
20
248.558790126049
30
3.20593071881819e-028
11
3344.75122856214
21
248.602096875192
31
3.20593071881819e-028
  0
LINE
 8
COMPONENT0
10
3344.75122856214
20
248.602096875192
30
3.20593071881819e-028
11
3344.58331148534
21
248.678124086659
31
3.20593071881819e-028
  0
LINE
 8
COMPONENT0
10
3344.58331148534
20
248.678124086659
30
3.20593071881819e-028
11
3344.43503368024
21
248.785108459395
31
3.20593071881819e-028
  0
LINE
 8
COMPONENT0
10
3344.43503368024
20
248.785108459395
30
3.20593071881819e-028
11
3344.30974321013
21
248.921286692339
31
3.20593071881819e-028
  0
LINE
 8
COMPONENT0
10
3344.30974321013
20
248.921286692339
30
3.20593071881819e-028
11
3344.21078813828
21
249.084895484436
31
3.20593071881819e-028
  0
LINE
 8
COMPONENT0
10
3344.21078813828
20
249.084895484436
30
3.20593071881819e-028
11
3344.14151652797
21
249.274171534626
31
3.20593071881819e-028
  0
LINE
 8
COMPONENT0
10
3344.14151652797
20
249.274171534626
30
3.20593071881819e-028
11
3344.1052764425
21
249.487351541851
31
3.20593071881819e-028
  0
LINE
 8
COMPONENT0
10
3344.1052764425
20
249.487351541851
30
3.20593071881819e-028
11
3344.10550153334
21
249.723115398182
31
3.20593071881819e-028
  0
LINE
 8
COMPONENT0
10
3344.10550153334
20
249.723115398182
30
3.20593071881819e-028
11
3344.1434256971
21
249.945510306147
31
3.20593071881819e-028
  0
LINE
 8
COMPONENT0
10
3344.1434256971
20
249.945510306147
30
3.20593071881819e-028
11
3344.21576736241
21
250.141312130932
31
3.20593071881819e-028
  0
LINE
 8
COMPONENT0
10
3344.21576736241
20
250.141312130932
30
3.20593071881819e-028
11
3344.31886740348
21
250.309212201293
31
3.20593071881819e-028
  0
LINE
 8
COMPONENT0
10
3344.31886740348
20
250.309212201293
30
3.20593071881819e-028
11
3344.44906669452
21
250.447901845987
31
3.20593071881819e-028
  0
LINE
 8
COMPONENT0
10
3344.44906669452
20
250.447901845987
30
3.20593071881819e-028
11
3344.60270610976
21
250.556072393767
31
3.20593071881819e-028
  0
LINE
 8
COMPONENT0
10
3344.60270610976
20
250.556072393767
30
3.20593071881819e-028
11
3344.7761265234
21
250.63241517339
31
3.20593071881819e-028
  0
LINE
 8
COMPONENT0
10
3344.7761265234
20
250.63241517339
30
3.20593071881819e-028
11
3344.96566880965
21
250.675621513612
31
3.20593071881819e-028
  0
LINE
 8
COMPONENT0
10
3344.96566880965
20
250.675621513612
30
3.20593071881819e-028
11
3345.1691353706
21
250.68432240101
31
3.20593071881819e-028
  0
LINE
 8
COMPONENT0
10
3345.1691353706
20
250.68432240101
30
3.20593071881819e-028
11
3345.36967159968
21
250.656870483154
31
3.20593071881819e-028
  0
LINE
 8
COMPONENT0
10
3345.36967159968
20
250.656870483154
30
3.20593071881819e-028
11
3345.55064770313
21
250.594855195681
31
3.20593071881819e-028
  0
LINE
 8
COMPONENT0
10
3345.55064770313
20
250.594855195681
30
3.20593071881819e-028
11
3345.70985127191
21
250.500765038625
31
3.20593071881819e-028
  0
LINE
 8
COMPONENT0
10
3345.70985127191
20
250.500765038625
30
3.20593071881819e-028
11
3345.84506989697
21
250.377088512015
31
3.20593071881819e-028
  0
LINE
 8
COMPONENT0
10
3345.84506989697
20
250.377088512015
30
3.20593071881819e-028
11
3345.95409116926
21
250.226314115885
31
3.20593071881819e-028
  0
LINE
 8
COMPONENT0
10
3345.95409116926
20
250.226314115885
30
3.20593071881819e-028
11
3346.03470267972
21
250.050930350266
31
3.20593071881819e-028
  0
LINE
 8
COMPONENT0
10
3346.03470267972
20
250.050930350266
30
3.20593071881819e-028
11
3346.0846920193
21
249.853425715189
31
3.20593071881819e-028
  0
LINE
 8
COMPONENT0
10
3346.0846920193
20
249.853425715189
30
3.20593071881819e-028
11
3346.10184677895
21
249.636288710687
31
3.20593071881819e-028
  0
LINE
 8
COMPONENT0
10
3347.02134337055
20
251.133872706073
30
3.20593071881819e-028
11
3347.02134337055
21
251.096146469576
31
3.20593071881819e-028
  0
LINE
 8
COMPONENT0
10
3347.02134337055
20
251.096146469576
30
3.20593071881819e-028
11
3347.02134337055
21
251.002256362205
31
3.20593071881819e-028
  0
LINE
 8
COMPONENT0
10
3347.02134337055
20
251.002256362205
30
3.20593071881819e-028
11
3347.02134337055
21
250.881135287136
31
3.20593071881819e-028
  0
LINE
 8
COMPONENT0
10
3347.02134337055
20
250.881135287136
30
3.20593071881819e-028
11
3347.02134337055
21
250.761716147549
31
3.20593071881819e-028
  0
LINE
 8
COMPONENT0
10
3347.02134337055
20
250.761716147549
30
3.20593071881819e-028
11
3347.02134337055
21
250.67293184662
31
3.20593071881819e-028
  0
LINE
 8
COMPONENT0
10
3347.02134337055
20
250.67293184662
30
3.20593071881819e-028
11
3347.02197439119
21
250.643118530451
31
3.20593071881819e-028
  0
LINE
 8
COMPONENT0
10
3347.02197439119
20
250.643118530451
30
3.20593071881819e-028
11
3347.07175147388
21
250.643118530451
31
3.20593071881819e-028
  0
LINE
 8
COMPONENT0
10
3347.07175147388
20
250.643118530451
30
3.20593071881819e-028
11
3347.17882565721
21
250.643118530451
31
3.20593071881819e-028
  0
LINE
 8
COMPONENT0
10
3347.17882565721
20
250.643118530451
30
3.20593071881819e-028
11
3347.31177595051
21
250.643118530451
31
3.20593071881819e-028
  0
LINE
 8
COMPONENT0
10
3347.31177595051
20
250.643118530451
30
3.20593071881819e-028
11
3347.4391813631
21
250.643118530451
31
3.20593071881819e-028
  0
LINE
 8
COMPONENT0
10
3347.4391813631
20
250.643118530451
30
3.20593071881819e-028
11
3347.52962090431
21
250.643118530451
31
3.20593071881819e-028
  0
LINE
 8
COMPONENT0
10
3347.52962090431
20
250.643118530451
30
3.20593071881819e-028
11
3347.5542999937
21
250.610878477087
31
3.20593071881819e-028
  0
LINE
 8
COMPONENT0
10
3347.5542999937
20
250.610878477087
30
3.20593071881819e-028
11
3347.5542999937
21
250.551464267754
31
3.20593071881819e-028
  0
LINE
 8
COMPONENT0
10
3347.5542999937
20
250.551464267754
30
3.20593071881819e-028
11
3347.5542999937
21
250.480257778184
31
3.20593071881819e-028
  0
LINE
 8
COMPONENT0
10
3347.5542999937
20
250.480257778184
30
3.20593071881819e-028
11
3347.5542999937
21
250.413964738712
31
3.20593071881819e-028
  0
LINE
 8
COMPONENT0
10
3347.5542999937
20
250.413964738712
30
3.20593071881819e-028
11
3347.5542999937
21
250.369290879676
31
3.20593071881819e-028
  0
LINE
 8
COMPONENT0
10
3347.5542999937
20
250.369290879676
30
3.20593071881819e-028
11
3347.48268874408
21
250.359759239859
31
3.20593071881819e-028
  0
LINE
 8
COMPONENT0
10
3347.48268874408
20
250.359759239859
30
3.20593071881819e-028
11
3347.36669926235
21
250.359759239859
31
3.20593071881819e-028
  0
LINE
 8
COMPONENT0
10
3347.36669926235
20
250.359759239859
30
3.20593071881819e-028
11
3347.23222684494
21
250.359759239859
31
3.20593071881819e-028
  0
LINE
 8
COMPONENT0
10
3347.23222684494
20
250.359759239859
30
3.20593071881819e-028
11
3347.1106924825
21
250.359759239859
31
3.20593071881819e-028
  0
LINE
 8
COMPONENT0
10
3347.1106924825
20
250.359759239859
30
3.20593071881819e-028
11
3347.03351716573
21
250.359759239859
31
3.20593071881819e-028
  0
LINE
 8
COMPONENT0
10
3347.03351716573
20
250.359759239859
30
3.20593071881819e-028
11
3347.02134337055
21
250.187208288872
31
3.20593071881819e-028
  0
LINE
 8
COMPONENT0
10
3347.02134337055
20
250.187208288872
30
3.20593071881819e-028
11
3347.02134337055
21
249.938984497147
31
3.20593071881819e-028
  0
LINE
 8
COMPONENT0
10
3347.02134337055
20
249.938984497147
30
3.20593071881819e-028
11
3347.02134337055
21
249.660122282483
31
3.20593071881819e-028
  0
LINE
 8
COMPONENT0
10
3347.02134337055
20
249.660122282483
30
3.20593071881819e-028
11
3347.02134337055
21
249.415728293625
31
3.20593071881819e-028
  0
LINE
 8
COMPONENT0
10
3347.02134337055
20
249.415728293625
30
3.20593071881819e-028
11
3347.02134337055
21
249.270909179318
31
3.20593071881819e-028
  0
LINE
 8
COMPONENT0
10
3347.02134337055
20
249.270909179318
30
3.20593071881819e-028
11
3347.0235620135
21
249.182597930275
31
3.20593071881819e-028
  0
LINE
 8
COMPONENT0
10
3347.0235620135
20
249.182597930275
30
3.20593071881819e-028
11
3347.03830713698
21
249.074508189313
31
3.20593071881819e-028
  0
LINE
 8
COMPONENT0
10
3347.03830713698
20
249.074508189313
30
3.20593071881819e-028
11
3347.0684915453
21
248.987085405143
31
3.20593071881819e-028
  0
LINE
 8
COMPONENT0
10
3347.0684915453
20
248.987085405143
30
3.20593071881819e-028
11
3347.11599399841
21
248.921324812765
31
3.20593071881819e-028
  0
LINE
 8
COMPONENT0
10
3347.11599399841
20
248.921324812765
30
3.20593071881819e-028
11
3347.18269325624
21
248.878221647177
31
3.20593071881819e-028
  0
LINE
 8
COMPONENT0
10
3347.18269325624
20
248.878221647177
30
3.20593071881819e-028
11
3347.27046807876
21
248.858771143379
31
3.20593071881819e-028
  0
LINE
 8
COMPONENT0
10
3347.27046807876
20
248.858771143379
30
3.20593071881819e-028
11
3347.3353361066
21
248.858061246535
31
3.20593071881819e-028
  0
LINE
 8
COMPONENT0
10
3347.3353361066
20
248.858061246535
30
3.20593071881819e-028
11
3347.37911788703
21
248.85982615289
31
3.20593071881819e-028
  0
LINE
 8
COMPONENT0
10
3347.37911788703
20
248.85982615289
30
3.20593071881819e-028
11
3347.41749606711
21
248.863054640127
31
3.20593071881819e-028
  0
LINE
 8
COMPONENT0
10
3347.41749606711
20
248.863054640127
30
3.20593071881819e-028
11
3347.45159282507
21
248.867746708244
31
3.20593071881819e-028
  0
LINE
 8
COMPONENT0
10
3347.45159282507
20
248.867746708244
30
3.20593071881819e-028
11
3347.48253033917
21
248.873902357241
31
3.20593071881819e-028
  0
LINE
 8
COMPONENT0
10
3347.48253033917
20
248.873902357241
30
3.20593071881819e-028
11
3347.51143078763
21
248.881521587119
31
3.20593071881819e-028
  0
LINE
 8
COMPONENT0
10
3347.51143078763
20
248.881521587119
30
3.20593071881819e-028
11
3347.52026490212
21
248.818208715683
31
3.20593071881819e-028
  0
LINE
 8
COMPONENT0
10
3347.52026490212
20
248.818208715683
30
3.20593071881819e-028
11
3347.5243382486
21
248.749834685582
31
3.20593071881819e-028
  0
LINE
 8
COMPONENT0
10
3347.5243382486
20
248.749834685582
30
3.20593071881819e-028
11
3347.52852868154
21
248.679495275441
31
3.20593071881819e-028
  0
LINE
 8
COMPONENT0
10
3347.52852868154
20
248.679495275441
30
3.20593071881819e-028
11
3347.53184096596
21
248.623896215597
31
3.20593071881819e-028
  0
LINE
 8
COMPONENT0
10
3347.53184096596
20
248.623896215597
30
3.20593071881819e-028
11
3347.49553403429
21
248.587538048435
31
3.20593071881819e-028
  0
LINE
 8
COMPONENT0
10
3347.49553403429
20
248.587538048435
30
3.20593071881819e-028
11
3347.4486667337
21
248.575380072104
31
3.20593071881819e-028
  0
LINE
 8
COMPONENT0
10
3347.4486667337
20
248.575380072104
30
3.20593071881819e-028
11
3347.39520107287
21
248.564691053073
31
3.20593071881819e-028
  0
LINE
 8
COMPONENT0
10
3347.39520107287
20
248.564691053073
30
3.20593071881819e-028
11
3347.33550772604
21
248.556212339862
31
3.20593071881819e-028
  0
LINE
 8
COMPONENT0
10
3347.33550772604
20
248.556212339862
30
3.20593071881819e-028
11
3347.26995736748
21
248.55068528099
31
3.20593071881819e-028
  0
LINE
 8
COMPONENT0
10
3347.26995736748
20
248.55068528099
30
3.20593071881819e-028
11
3347.19805085764
21
248.548861307744
31
3.20593071881819e-028
  0
LINE
 8
COMPONENT0
10
3347.19805085764
20
248.548861307744
30
3.20593071881819e-028
11
3347.11295688601
21
248.554465961586
31
3.20593071881819e-028
  0
LINE
 8
COMPONENT0
10
3347.11295688601
20
248.554465961586
30
3.20593071881819e-028
11
3347.03424950343
21
248.569670511245
31
3.20593071881819e-028
  0
LINE
 8
COMPONENT0
10
3347.03424950343
20
248.569670511245
30
3.20593071881819e-028
11
3346.96243140513
21
248.59386562917
31
3.20593071881819e-028
  0
LINE
 8
COMPONENT0
10
3346.96243140513
20
248.59386562917
30
3.20593071881819e-028
11
3346.89800528636
21
248.62644198781
31
3.20593071881819e-028
  0
LINE
 8
COMPONENT0
10
3346.89800528636
20
248.62644198781
30
3.20593071881819e-028
11
3346.84147384233
21
248.666790259616
31
3.20593071881819e-028
  0
LINE
 8
COMPONENT0
10
3346.84147384233
20
248.666790259616
30
3.20593071881819e-028
11
3346.79222992211
21
248.715884297415
31
3.20593071881819e-028
  0
LINE
 8
COMPONENT0
10
3346.79222992211
20
248.715884297415
30
3.20593071881819e-028
11
3346.74730100233
21
248.782002307489
31
3.20593071881819e-028
  0
LINE
 8
COMPONENT0
10
3346.74730100233
20
248.782002307489
30
3.20593071881819e-028
11
3346.71205561156
21
248.859566117428
31
3.20593071881819e-028
  0
LINE
 8
COMPONENT0
10
3346.71205561156
20
248.859566117428
30
3.20593071881819e-028
11
3346.68599105458
21
248.948326918484
31
3.20593071881819e-028
  0
LINE
 8
COMPONENT0
10
3346.68599105458
20
248.948326918484
30
3.20593071881819e-028
11
3346.66860463614
21
249.048035901905
31
3.20593071881819e-028
  0
LINE
 8
COMPONENT0
10
3346.66860463614
20
249.048035901905
30
3.20593071881819e-028
11
3346.65939366103
21
249.158444258943
31
3.20593071881819e-028
  0
LINE
 8
COMPONENT0
10
3346.65939366103
20
249.158444258943
30
3.20593071881819e-028
11
3346.65754104731
21
249.250785070713
31
3.20593071881819e-028
  0
LINE
 8
COMPONENT0
10
3346.65754104731
20
249.250785070713
30
3.20593071881819e-028
11
3346.65754104731
21
249.381096098391
31
3.20593071881819e-028
  0
LINE
 8
COMPONENT0
10
3346.65754104731
20
249.381096098391
30
3.20593071881819e-028
11
3346.65754104731
21
249.619879377614
31
3.20593071881819e-028
  0
LINE
 8
COMPONENT0
10
3346.65754104731
20
249.619879377614
30
3.20593071881819e-028
11
3346.65754104731
21
249.901276755658
31
3.20593071881819e-028
  0
LINE
 8
COMPONENT0
10
3346.65754104731
20
249.901276755658
30
3.20593071881819e-028
11
3346.65754104731
21
250.159430079799
31
3.20593071881819e-028
  0
LINE
 8
COMPONENT0
10
3346.65754104731
20
250.159430079799
30
3.20593071881819e-028
11
3346.65754104731
21
250.328481197315
31
3.20593071881819e-028
  0
LINE
 8
COMPONENT0
10
3346.65754104731
20
250.328481197315
30
3.20593071881819e-028
11
3346.65309208217
21
250.359759239859
31
3.20593071881819e-028
  0
LINE
 8
COMPONENT0
10
3346.65309208217
20
250.359759239859
30
3.20593071881819e-028
11
3346.61146025754
21
250.359759239859
31
3.20593071881819e-028
  0
LINE
 8
COMPONENT0
10
3346.61146025754
20
250.359759239859
30
3.20593071881819e-028
11
3346.54120318041
21
250.359759239859
31
3.20593071881819e-028
  0
LINE
 8
COMPONENT0
10
3346.54120318041
20
250.359759239859
30
3.20593071881819e-028
11
3346.46103736204
21
250.359759239859
31
3.20593071881819e-028
  0
LINE
 8
COMPONENT0
10
3346.46103736204
20
250.359759239859
30
3.20593071881819e-028
11
3346.38967931366
21
250.359759239859
31
3.20593071881819e-028
  0
LINE
 8
COMPONENT0
10
3346.38967931366
20
250.359759239859
30
3.20593071881819e-028
11
3346.34584554653
21
250.359759239859
31
3.20593071881819e-028
  0
LINE
 8
COMPONENT0
10
3346.34584554653
20
250.359759239859
30
3.20593071881819e-028
11
3346.34007528891
21
250.407263858208
31
3.20593071881819e-028
  0
LINE
 8
COMPONENT0
10
3346.34007528891
20
250.407263858208
30
3.20593071881819e-028
11
3346.34007528891
21
250.471880544116
31
3.20593071881819e-028
  0
LINE
 8
COMPONENT0
10
3346.34007528891
20
250.471880544116
30
3.20593071881819e-028
11
3346.34007528891
21
250.543376060163
31
3.20593071881819e-028
  0
LINE
 8
COMPONENT0
10
3346.34007528891
20
250.543376060163
30
3.20593071881819e-028
11
3346.34007528891
21
250.605044676012
31
3.20593071881819e-028
  0
LINE
 8
COMPONENT0
10
3346.34007528891
20
250.605044676012
30
3.20593071881819e-028
11
3346.34007528891
21
250.640180661327
31
3.20593071881819e-028
  0
LINE
 8
COMPONENT0
10
3346.34007528891
20
250.640180661327
30
3.20593071881819e-028
11
3346.40080521863
21
250.643118530451
31
3.20593071881819e-028
  0
LINE
 8
COMPONENT0
10
3346.40080521863
20
250.643118530451
30
3.20593071881819e-028
11
3346.47507760267
21
250.643118530451
31
3.20593071881819e-028
  0
LINE
 8
COMPONENT0
10
3346.47507760267
20
250.643118530451
30
3.20593071881819e-028
11
3346.55485484296
21
250.643118530451
31
3.20593071881819e-028
  0
LINE
 8
COMPONENT0
10
3346.55485484296
20
250.643118530451
30
3.20593071881819e-028
11
3346.62142042825
21
250.643118530451
31
3.20593071881819e-028
  0
LINE
 8
COMPONENT0
10
3346.62142042825
20
250.643118530451
30
3.20593071881819e-028
11
3346.65605784728
21
250.643118530451
31
3.20593071881819e-028
  0
LINE
 8
COMPONENT0
10
3346.65605784728
20
250.643118530451
30
3.20593071881819e-028
11
3346.65754104731
21
250.725383330794
31
3.20593071881819e-028
  0
LINE
 8
COMPONENT0
10
3346.65754104731
20
250.725383330794
30
3.20593071881819e-028
11
3346.65754104731
21
250.816428375151
31
3.20593071881819e-028
  0
LINE
 8
COMPONENT0
10
3346.65754104731
20
250.816428375151
30
3.20593071881819e-028
11
3346.65754104731
21
250.911435840725
31
3.20593071881819e-028
  0
LINE
 8
COMPONENT0
10
3346.65754104731
20
250.911435840725
30
3.20593071881819e-028
11
3346.65754104731
21
250.987952007288
31
3.20593071881819e-028
  0
LINE
 8
COMPONENT0
10
3346.65754104731
20
250.987952007288
30
3.20593071881819e-028
11
3346.65754104731
21
251.023523154614
31
3.20593071881819e-028
  0
LINE
 8
COMPONENT0
10
3346.65754104731
20
251.023523154614
30
3.20593071881819e-028
11
3346.74545897195
21
251.05053262733
31
3.20593071881819e-028
  0
LINE
 8
COMPONENT0
10
3346.74545897195
20
251.05053262733
30
3.20593071881819e-028
11
3346.83398590168
21
251.077275137354
31
3.20593071881819e-028
  0
LINE
 8
COMPONENT0
10
3346.83398590168
20
251.077275137354
30
3.20593071881819e-028
11
3346.92377449787
21
251.104398775786
31
3.20593071881819e-028
  0
LINE
 8
COMPONENT0
10
3346.92377449787
20
251.104398775786
30
3.20593071881819e-028
11
3346.99337643075
21
251.125424359676
31
3.20593071881819e-028
  0
LINE
 8
COMPONENT0
10
3346.99337643075
20
251.125424359676
30
3.20593071881819e-028
11
3347.02134337055
21
251.133872706073
31
3.20593071881819e-028
  0
LINE
 8
COMPONENT0
10
3348.87136086657
20
251.599305413174
30
3.20593071881819e-028
11
3348.92781420515
21
251.599305413174
31
3.20593071881819e-028
  0
LINE
 8
COMPONENT0
10
3348.92781420515
20
251.599305413174
30
3.20593071881819e-028
11
3348.98583569203
21
251.599305413174
31
3.20593071881819e-028
  0
LINE
 8
COMPONENT0
10
3348.98583569203
20
251.599305413174
30
3.20593071881819e-028
11
3349.05256911387
21
251.599305413174
31
3.20593071881819e-028
  0
LINE
 8
COMPONENT0
10
3349.05256911387
20
251.599305413174
30
3.20593071881819e-028
11
3349.11965101311
21
251.599305413174
31
3.20593071881819e-028
  0
LINE
 8
COMPONENT0
10
3349.11965101311
20
251.599305413174
30
3.20593071881819e-028
11
3349.17871793218
21
251.599305413174
31
3.20593071881819e-028
  0
LINE
 8
COMPONENT0
10
3349.17871793218
20
251.599305413174
30
3.20593071881819e-028
11
3349.22140641352
21
251.599305413174
31
3.20593071881819e-028
  0
LINE
 8
COMPONENT0
10
3349.22140641352
20
251.599305413174
30
3.20593071881819e-028
11
3349.23946956201
21
251.553440350913
31
3.20593071881819e-028
  0
LINE
 8
COMPONENT0
10
3349.23946956201
20
251.553440350913
30
3.20593071881819e-028
11
3349.23946956201
21
251.416677947067
31
3.20593071881819e-028
  0
LINE
 8
COMPONENT0
10
3349.23946956201
20
251.416677947067
30
3.20593071881819e-028
11
3349.23946956201
21
251.217824600229
31
3.20593071881819e-028
  0
LINE
 8
COMPONENT0
10
3349.23946956201
20
251.217824600229
30
3.20593071881819e-028
11
3349.23946956201
21
250.986099577689
31
3.20593071881819e-028
  0
LINE
 8
COMPONENT0
10
3349.23946956201
20
250.986099577689
30
3.20593071881819e-028
11
3349.23946956201
21
250.750722146738
31
3.20593071881819e-028
  0
LINE
 8
COMPONENT0
10
3349.23946956201
20
250.750722146738
30
3.20593071881819e-028
11
3349.23946956201
21
250.540911574666
31
3.20593071881819e-028
  0
LINE
 8
COMPONENT0
10
3349.23946956201
20
250.540911574666
30
3.20593071881819e-028
11
3349.23946956201
21
250.385887128763
31
3.20593071881819e-028
  0
LINE
 8
COMPONENT0
10
3349.23946956201
20
250.385887128763
30
3.20593071881819e-028
11
3349.23946956201
21
250.314868076321
31
3.20593071881819e-028
  0
LINE
 8
COMPONENT0
10
3349.23946956201
20
250.314868076321
30
3.20593071881819e-028
11
3349.28716300046
21
250.374596807605
31
3.20593071881819e-028
  0
LINE
 8
COMPONENT0
10
3349.28716300046
20
250.374596807605
30
3.20593071881819e-028
11
3349.34788172197
21
250.449105498911
31
3.20593071881819e-028
  0
LINE
 8
COMPONENT0
10
3349.34788172197
20
250.449105498911
30
3.20593071881819e-028
11
3349.41805010037
21
250.51466971956
31
3.20593071881819e-028
  0
LINE
 8
COMPONENT0
10
3349.41805010037
20
250.51466971956
30
3.20593071881819e-028
11
3349.49752724447
21
250.570616322757
31
3.20593071881819e-028
  0
LINE
 8
COMPONENT0
10
3349.49752724447
20
250.570616322757
30
3.20593071881819e-028
11
3349.58617226308
21
250.616272161707
31
3.20593071881819e-028
  0
LINE
 8
COMPONENT0
10
3349.58617226308
20
250.616272161707
30
3.20593071881819e-028
11
3349.68384426501
21
250.650964089614
31
3.20593071881819e-028
  0
LINE
 8
COMPONENT0
10
3349.68384426501
20
250.650964089614
30
3.20593071881819e-028
11
3349.79040235907
21
250.674018959683
31
3.20593071881819e-028
  0
LINE
 8
COMPONENT0
10
3349.79040235907
20
250.674018959683
30
3.20593071881819e-028
11
3349.90570565408
21
250.684763625119
31
3.20593071881819e-028
  0
LINE
 8
COMPONENT0
10
3349.90570565408
20
250.684763625119
30
3.20593071881819e-028
11
3350.06941837793
21
250.676985127502
31
3.20593071881819e-028
  0
LINE
 8
COMPONENT0
10
3350.06941837793
20
250.676985127502
30
3.20593071881819e-028
11
3350.24101177994
21
250.6335206575
31
3.20593071881819e-028
  0
LINE
 8
COMPONENT0
10
3350.24101177994
20
250.6335206575
30
3.20593071881819e-028
11
3350.39446332139
21
250.55552333292
31
3.20593071881819e-028
  0
LINE
 8
COMPONENT0
10
3350.39446332139
20
250.55552333292
30
3.20593071881819e-028
11
3350.52751482958
21
250.445591813482
31
3.20593071881819e-028
  0
LINE
 8
COMPONENT0
10
3350.52751482958
20
250.445591813482
30
3.20593071881819e-028
11
3350.63790813185
21
250.306324758909
31
3.20593071881819e-028
  0
LINE
 8
COMPONENT0
10
3350.63790813185
20
250.306324758909
30
3.20593071881819e-028
11
3350.72338505552
21
250.140320828922
31
3.20593071881819e-028
  0
LINE
 8
COMPONENT0
10
3350.72338505552
20
250.140320828922
30
3.20593071881819e-028
11
3350.7816874279
21
249.950178683241
31
3.20593071881819e-028
  0
LINE
 8
COMPONENT0
10
3350.7816874279
20
249.950178683241
30
3.20593071881819e-028
11
3350.81055707631
21
249.73849698159
31
3.20593071881819e-028
  0
LINE
 8
COMPONENT0
10
3350.81055707631
20
249.73849698159
30
3.20593071881819e-028
11
3350.80626901497
21
249.491851451151
31
3.20593071881819e-028
  0
LINE
 8
COMPONENT0
10
3350.80626901497
20
249.491851451151
30
3.20593071881819e-028
11
3350.76335256386
21
249.256802793487
31
3.20593071881819e-028
  0
LINE
 8
COMPONENT0
10
3350.76335256386
20
249.256802793487
30
3.20593071881819e-028
11
3350.68622336165
21
249.055478985952
31
3.20593071881819e-028
  0
LINE
 8
COMPONENT0
10
3350.68622336165
20
249.055478985952
30
3.20593071881819e-028
11
3350.58026658271
21
248.887831107993
31
3.20593071881819e-028
  0
LINE
 8
COMPONENT0
10
3350.58026658271
20
248.887831107993
30
3.20593071881819e-028
11
3350.45086740139
21
248.753810239058
31
3.20593071881819e-028
  0
LINE
 8
COMPONENT0
10
3350.45086740139
20
248.753810239058
30
3.20593071881819e-028
11
3350.30341099206
21
248.653367458597
31
3.20593071881819e-028
  0
LINE
 8
COMPONENT0
10
3350.30341099206
20
248.653367458597
30
3.20593071881819e-028
11
3350.14328252907
21
248.586453846055
31
3.20593071881819e-028
  0
LINE
 8
COMPONENT0
10
3350.14328252907
20
248.586453846055
30
3.20593071881819e-028
11
3349.97586718681
21
248.553020480882
31
3.20593071881819e-028
  0
LINE
 8
COMPONENT0
10
3349.97586718681
20
248.553020480882
30
3.20593071881819e-028
11
3349.83681737346
21
248.55016354103
31
3.20593071881819e-028
  0
LINE
 8
COMPONENT0
10
3349.83681737346
20
248.55016354103
30
3.20593071881819e-028
11
3349.73244371793
21
248.560885947614
31
3.20593071881819e-028
  0
LINE
 8
COMPONENT0
10
3349.73244371793
20
248.560885947614
30
3.20593071881819e-028
11
3349.63388231319
21
248.58274707468
31
3.20593071881819e-028
  0
LINE
 8
COMPONENT0
10
3349.63388231319
20
248.58274707468
30
3.20593071881819e-028
11
3349.54136993469
21
248.61618133673
31
3.20593071881819e-028
  0
LINE
 8
COMPONENT0
10
3349.54136993469
20
248.61618133673
30
3.20593071881819e-028
11
3349.45514335793
21
248.661623148265
31
3.20593071881819e-028
  0
LINE
 8
COMPONENT0
10
3349.45514335793
20
248.661623148265
30
3.20593071881819e-028
11
3349.37543935836
21
248.719506923786
31
3.20593071881819e-028
  0
LINE
 8
COMPONENT0
10
3349.37543935836
20
248.719506923786
30
3.20593071881819e-028
11
3349.30249471145
21
248.790267077796
31
3.20593071881819e-028
  0
LINE
 8
COMPONENT0
10
3349.30249471145
20
248.790267077796
30
3.20593071881819e-028
11
3349.23654619269
21
248.874338024796
31
3.20593071881819e-028
  0
LINE
 8
COMPONENT0
10
3349.23654619269
20
248.874338024796
30
3.20593071881819e-028
11
3349.20133626389
21
248.929699160529
31
3.20593071881819e-028
  0
LINE
 8
COMPONENT0
10
3349.20133626389
20
248.929699160529
30
3.20593071881819e-028
11
3349.19142152052
21
248.905409490431
31
3.20593071881819e-028
  0
LINE
 8
COMPONENT0
10
3349.19142152052
20
248.905409490431
30
3.20593071881819e-028
11
3349.18868368183
21
248.862205060342
31
3.20593071881819e-028
  0
LINE
 8
COMPONENT0
10
3349.18868368183
20
248.862205060342
30
3.20593071881819e-028
11
3349.18512348866
21
248.806023475427
31
3.20593071881819e-028
  0
LINE
 8
COMPONENT0
10
3349.18512348866
20
248.806023475427
30
3.20593071881819e-028
11
3349.18122231924
21
248.744461118998
31
3.20593071881819e-028
  0
LINE
 8
COMPONENT0
10
3349.18122231924
20
248.744461118998
30
3.20593071881819e-028
11
3349.17746155181
21
248.68511437437
31
3.20593071881819e-028
  0
LINE
 8
COMPONENT0
10
3349.17746155181
20
248.68511437437
30
3.20593071881819e-028
11
3349.17432256459
21
248.635579624853
31
3.20593071881819e-028
  0
LINE
 8
COMPONENT0
10
3349.17432256459
20
248.635579624853
30
3.20593071881819e-028
11
3349.17228673582
21
248.603453253761
31
3.20593071881819e-028
  0
LINE
 8
COMPONENT0
10
3349.17228673582
20
248.603453253761
30
3.20593071881819e-028
11
3349.11170833986
21
248.595352423119
31
3.20593071881819e-028
  0
LINE
 8
COMPONENT0
10
3349.11170833986
20
248.595352423119
30
3.20593071881819e-028
11
3349.05914320675
21
248.595352423119
31
3.20593071881819e-028
  0
LINE
 8
COMPONENT0
10
3349.05914320675
20
248.595352423119
30
3.20593071881819e-028
11
3349.00087100204
21
248.595352423119
31
3.20593071881819e-028
  0
LINE
 8
COMPONENT0
10
3349.00087100204
20
248.595352423119
30
3.20593071881819e-028
11
3348.94410065829
21
248.595352423119
31
3.20593071881819e-028
  0
LINE
 8
COMPONENT0
10
3348.94410065829
20
248.595352423119
30
3.20593071881819e-028
11
3348.89604110801
21
248.595352423119
31
3.20593071881819e-028
  0
LINE
 8
COMPONENT0
10
3348.89604110801
20
248.595352423119
30
3.20593071881819e-028
11
3348.86390128377
21
248.595352423119
31
3.20593071881819e-028
  0
LINE
 8
COMPONENT0
10
3348.86390128377
20
248.595352423119
30
3.20593071881819e-028
11
3348.85810915572
21
248.659781695644
31
3.20593071881819e-028
  0
LINE
 8
COMPONENT0
10
3348.85810915572
20
248.659781695644
30
3.20593071881819e-028
11
3348.86110454073
21
248.720456789533
31
3.20593071881819e-028
  0
LINE
 8
COMPONENT0
10
3348.86110454073
20
248.720456789533
30
3.20593071881819e-028
11
3348.86389217647
21
248.785051398047
31
3.20593071881819e-028
  0
LINE
 8
COMPONENT0
10
3348.86389217647
20
248.785051398047
30
3.20593071881819e-028
11
3348.86637617865
21
248.852512750908
31
3.20593071881819e-028
  0
LINE
 8
COMPONENT0
10
3348.86637617865
20
248.852512750908
30
3.20593071881819e-028
11
3348.86846066298
21
248.921788077836
31
3.20593071881819e-028
  0
LINE
 8
COMPONENT0
10
3348.86846066298
20
248.921788077836
30
3.20593071881819e-028
11
3348.8700497452
21
248.991824608553
31
3.20593071881819e-028
  0
LINE
 8
COMPONENT0
10
3348.8700497452
20
248.991824608553
30
3.20593071881819e-028
11
3348.87104754101
21
249.061569572781
31
3.20593071881819e-028
  0
LINE
 8
COMPONENT0
10
3348.87104754101
20
249.061569572781
30
3.20593071881819e-028
11
3348.87136086657
21
249.125130885057
31
3.20593071881819e-028
  0
LINE
 8
COMPONENT0
10
3348.87136086657
20
249.125130885057
30
3.20593071881819e-028
11
3348.87136086657
21
249.245793752669
31
3.20593071881819e-028
  0
LINE
 8
COMPONENT0
10
3348.87136086657
20
249.245793752669
30
3.20593071881819e-028
11
3348.87136086657
21
249.532807369804
31
3.20593071881819e-028
  0
LINE
 8
COMPONENT0
10
3348.87136086657
20
249.532807369804
30
3.20593071881819e-028
11
3348.87136086657
21
249.929940497186
31
3.20593071881819e-028
  0
LINE
 8
COMPONENT0
10
3348.87136086657
20
249.929940497186
30
3.20593071881819e-028
11
3348.87136086657
21
250.380961895541
31
3.20593071881819e-028
  0
LINE
 8
COMPONENT0
10
3348.87136086657
20
250.380961895541
30
3.20593071881819e-028
11
3348.87136086657
21
250.829640325592
31
3.20593071881819e-028
  0
LINE
 8
COMPONENT0
10
3348.87136086657
20
250.829640325592
30
3.20593071881819e-028
11
3348.87136086657
21
251.219744548065
31
3.20593071881819e-028
  0
LINE
 8
COMPONENT0
10
3348.87136086657
20
251.219744548065
30
3.20593071881819e-028
11
3348.87136086657
21
251.495043323684
31
3.20593071881819e-028
  0
LINE
 8
COMPONENT0
10
3348.87136086657
20
251.495043323684
30
3.20593071881819e-028
11
3348.87136086657
21
251.599305413174
31
3.20593071881819e-028
  0
LINE
 8
COMPONENT0
10
3352.71867378777
20
249.086106598741
30
3.20593071881819e-028
11
3352.71918190524
21
249.011787664196
31
3.20593071881819e-028
  0
LINE
 8
COMPONENT0
10
3352.71918190524
20
249.011787664196
30
3.20593071881819e-028
11
3352.72075352439
21
248.938474700952
31
3.20593071881819e-028
  0
LINE
 8
COMPONENT0
10
3352.72075352439
20
248.938474700952
30
3.20593071881819e-028
11
3352.72345954533
21
248.866646993765
31
3.20593071881819e-028
  0
LINE
 8
COMPONENT0
10
3352.72345954533
20
248.866646993765
30
3.20593071881819e-028
11
3352.72737086816
21
248.796783827393
31
3.20593071881819e-028
  0
LINE
 8
COMPONENT0
10
3352.72737086816
20
248.796783827393
30
3.20593071881819e-028
11
3352.73255839301
21
248.72936448659
31
3.20593071881819e-028
  0
LINE
 8
COMPONENT0
10
3352.73255839301
20
248.72936448659
30
3.20593071881819e-028
11
3352.73909301999
21
248.664868256114
31
3.20593071881819e-028
  0
LINE
 8
COMPONENT0
10
3352.73909301999
20
248.664868256114
30
3.20593071881819e-028
11
3352.7470456492
21
248.603774420719
31
3.20593071881819e-028
  0
LINE
 8
COMPONENT0
10
3352.7470456492
20
248.603774420719
30
3.20593071881819e-028
11
3352.69224906666
21
248.595352423119
31
3.20593071881819e-028
  0
LINE
 8
COMPONENT0
10
3352.69224906666
20
248.595352423119
30
3.20593071881819e-028
11
3352.63061157692
21
248.595352423119
31
3.20593071881819e-028
  0
LINE
 8
COMPONENT0
10
3352.63061157692
20
248.595352423119
30
3.20593071881819e-028
11
3352.56111025193
21
248.595352423119
31
3.20593071881819e-028
  0
LINE
 8
COMPONENT0
10
3352.56111025193
20
248.595352423119
30
3.20593071881819e-028
11
3352.49475446103
21
248.595352423119
31
3.20593071881819e-028
  0
LINE
 8
COMPONENT0
10
3352.49475446103
20
248.595352423119
30
3.20593071881819e-028
11
3352.44255357361
21
248.595352423119
31
3.20593071881819e-028
  0
LINE
 8
COMPONENT0
10
3352.44255357361
20
248.595352423119
30
3.20593071881819e-028
11
3352.41551695904
21
248.595352423119
31
3.20593071881819e-028
  0
LINE
 8
COMPONENT0
10
3352.41551695904
20
248.595352423119
30
3.20593071881819e-028
11
3352.40965435075
21
248.63283213221
31
3.20593071881819e-028
  0
LINE
 8
COMPONENT0
10
3352.40965435075
20
248.63283213221
30
3.20593071881819e-028
11
3352.40437158824
21
248.678872021772
31
3.20593071881819e-028
  0
LINE
 8
COMPONENT0
10
3352.40437158824
20
248.678872021772
30
3.20593071881819e-028
11
3352.39825260955
21
248.732199632546
31
3.20593071881819e-028
  0
LINE
 8
COMPONENT0
10
3352.39825260955
20
248.732199632546
30
3.20593071881819e-028
11
3352.39227300022
21
248.784312623118
31
3.20593071881819e-028
  0
LINE
 8
COMPONENT0
10
3352.39227300022
20
248.784312623118
30
3.20593071881819e-028
11
3352.3874083458
21
248.826708652075
31
3.20593071881819e-028
  0
LINE
 8
COMPONENT0
10
3352.3874083458
20
248.826708652075
30
3.20593071881819e-028
11
3352.38409536341
21
248.853562500078
31
3.20593071881819e-028
  0
LINE
 8
COMPONENT0
10
3352.38409536341
20
248.853562500078
30
3.20593071881819e-028
11
3352.34991576031
21
248.824814567644
31
3.20593071881819e-028
  0
LINE
 8
COMPONENT0
10
3352.34991576031
20
248.824814567644
30
3.20593071881819e-028
11
3352.29070307369
21
248.760091485748
31
3.20593071881819e-028
  0
LINE
 8
COMPONENT0
10
3352.29070307369
20
248.760091485748
30
3.20593071881819e-028
11
3352.21982225438
21
248.700355720293
31
3.20593071881819e-028
  0
LINE
 8
COMPONENT0
10
3352.21982225438
20
248.700355720293
30
3.20593071881819e-028
11
3352.13784050327
21
248.64769457057
31
3.20593071881819e-028
  0
LINE
 8
COMPONENT0
10
3352.13784050327
20
248.64769457057
30
3.20593071881819e-028
11
3352.04532502126
21
248.604195335873
31
3.20593071881819e-028
  0
LINE
 8
COMPONENT0
10
3352.04532502126
20
248.604195335873
30
3.20593071881819e-028
11
3351.94284300923
21
248.571945315496
31
3.20593071881819e-028
  0
LINE
 8
COMPONENT0
10
3351.94284300923
20
248.571945315496
30
3.20593071881819e-028
11
3351.83096166809
21
248.553031808731
31
3.20593071881819e-028
  0
LINE
 8
COMPONENT0
10
3351.83096166809
20
248.553031808731
30
3.20593071881819e-028
11
3351.69680733448
21
248.550226647528
31
3.20593071881819e-028
  0
LINE
 8
COMPONENT0
10
3351.69680733448
20
248.550226647528
30
3.20593071881819e-028
11
3351.54142461717
21
248.575544614451
31
3.20593071881819e-028
  0
LINE
 8
COMPONENT0
10
3351.54142461717
20
248.575544614451
30
3.20593071881819e-028
11
3351.41012038814
21
248.629105539648
31
3.20593071881819e-028
  0
LINE
 8
COMPONENT0
10
3351.41012038814
20
248.629105539648
30
3.20593071881819e-028
11
3351.30303077559
21
248.706170459641
31
3.20593071881819e-028
  0
LINE
 8
COMPONENT0
10
3351.30303077559
20
248.706170459641
30
3.20593071881819e-028
11
3351.22029190775
21
248.802000410954
31
3.20593071881819e-028
  0
LINE
 8
COMPONENT0
10
3351.22029190775
20
248.802000410954
30
3.20593071881819e-028
11
3351.16203991282
21
248.911856430111
31
3.20593071881819e-028
  0
LINE
 8
COMPONENT0
10
3351.16203991282
20
248.911856430111
30
3.20593071881819e-028
11
3351.12841091903
21
249.030999553633
31
3.20593071881819e-028
  0
LINE
 8
COMPONENT0
10
3351.12841091903
20
249.030999553633
30
3.20593071881819e-028
11
3351.11981437211
21
249.166355885981
31
3.20593071881819e-028
  0
LINE
 8
COMPONENT0
10
3351.11981437211
20
249.166355885981
30
3.20593071881819e-028
11
3351.15271181179
21
249.357118328239
31
3.20593071881819e-028
  0
LINE
 8
COMPONENT0
10
3351.15271181179
20
249.357118328239
30
3.20593071881819e-028
11
3351.2356801259
21
249.520549790234
31
3.20593071881819e-028
  0
LINE
 8
COMPONENT0
10
3351.2356801259
20
249.520549790234
30
3.20593071881819e-028
11
3351.36726160814
21
249.655813650646
31
3.20593071881819e-028
  0
LINE
 8
COMPONENT0
10
3351.36726160814
20
249.655813650646
30
3.20593071881819e-028
11
3351.5459985522
21
249.762073288155
31
3.20593071881819e-028
  0
LINE
 8
COMPONENT0
10
3351.5459985522
20
249.762073288155
30
3.20593071881819e-028
11
3351.77043325179
21
249.838492081442
31
3.20593071881819e-028
  0
LINE
 8
COMPONENT0
10
3351.77043325179
20
249.838492081442
30
3.20593071881819e-028
11
3352.0391080006
21
249.884233409186
31
3.20593071881819e-028
  0
LINE
 8
COMPONENT0
10
3352.0391080006
20
249.884233409186
30
3.20593071881819e-028
11
3352.35056509234
21
249.898460650068
31
3.20593071881819e-028
  0
LINE
 8
COMPONENT0
10
3352.35056509234
20
249.898460650068
30
3.20593071881819e-028
11
3352.35056509234
21
249.931682416768
31
3.20593071881819e-028
  0
LINE
 8
COMPONENT0
10
3352.35056509234
20
249.931682416768
30
3.20593071881819e-028
11
3352.34799274533
21
250.005666513994
31
3.20593071881819e-028
  0
LINE
 8
COMPONENT0
10
3352.34799274533
20
250.005666513994
30
3.20593071881819e-028
11
3352.33540497548
21
250.090688297914
31
3.20593071881819e-028
  0
LINE
 8
COMPONENT0
10
3352.33540497548
20
250.090688297914
30
3.20593071881819e-028
11
3352.307382859
21
250.178651828762
31
3.20593071881819e-028
  0
LINE
 8
COMPONENT0
10
3352.307382859
20
250.178651828762
30
3.20593071881819e-028
11
3352.25856067542
21
250.262033186666
31
3.20593071881819e-028
  0
LINE
 8
COMPONENT0
10
3352.25856067542
20
250.262033186666
30
3.20593071881819e-028
11
3352.18357270426
21
250.333308451757
31
3.20593071881819e-028
  0
LINE
 8
COMPONENT0
10
3352.18357270426
20
250.333308451757
30
3.20593071881819e-028
11
3352.07705322508
21
250.384953704162
31
3.20593071881819e-028
  0
LINE
 8
COMPONENT0
10
3352.07705322508
20
250.384953704162
30
3.20593071881819e-028
11
3351.9336365174
21
250.409445024013
31
3.20593071881819e-028
  0
LINE
 8
COMPONENT0
10
3351.9336365174
20
250.409445024013
30
3.20593071881819e-028
11
3351.82667286589
21
250.408766272231
31
3.20593071881819e-028
  0
LINE
 8
COMPONENT0
10
3351.82667286589
20
250.408766272231
30
3.20593071881819e-028
11
3351.74508582101
21
250.401080767629
31
3.20593071881819e-028
  0
LINE
 8
COMPONENT0
10
3351.74508582101
20
250.401080767629
30
3.20593071881819e-028
11
3351.66467531284
21
250.387288129964
31
3.20593071881819e-028
  0
LINE
 8
COMPONENT0
10
3351.66467531284
20
250.387288129964
30
3.20593071881819e-028
11
3351.58641125491
21
250.367595387561
31
3.20593071881819e-028
  0
LINE
 8
COMPONENT0
10
3351.58641125491
20
250.367595387561
30
3.20593071881819e-028
11
3351.51126356076
21
250.342209568748
31
3.20593071881819e-028
  0
LINE
 8
COMPONENT0
10
3351.51126356076
20
250.342209568748
30
3.20593071881819e-028
11
3351.44020214391
21
250.311337701851
31
3.20593071881819e-028
  0
LINE
 8
COMPONENT0
10
3351.44020214391
20
250.311337701851
30
3.20593071881819e-028
11
3351.3741969179
21
250.275186815197
31
3.20593071881819e-028
  0
LINE
 8
COMPONENT0
10
3351.3741969179
20
250.275186815197
30
3.20593071881819e-028
11
3351.34616299162
21
250.262665537116
31
3.20593071881819e-028
  0
LINE
 8
COMPONENT0
10
3351.34616299162
20
250.262665537116
30
3.20593071881819e-028
11
3351.33723903088
21
250.289054963893
31
3.20593071881819e-028
  0
LINE
 8
COMPONENT0
10
3351.33723903088
20
250.289054963893
30
3.20593071881819e-028
11
3351.32275650136
21
250.331881872604
31
3.20593071881819e-028
  0
LINE
 8
COMPONENT0
10
3351.32275650136
20
250.331881872604
30
3.20593071881819e-028
11
3351.30549468746
21
250.382927522281
31
3.20593071881819e-028
  0
LINE
 8
COMPONENT0
10
3351.30549468746
20
250.382927522281
30
3.20593071881819e-028
11
3351.28823287356
21
250.433973171959
31
3.20593071881819e-028
  0
LINE
 8
COMPONENT0
10
3351.28823287356
20
250.433973171959
30
3.20593071881819e-028
11
3351.27375034404
21
250.47680008067
31
3.20593071881819e-028
  0
LINE
 8
COMPONENT0
10
3351.27375034404
20
250.47680008067
30
3.20593071881819e-028
11
3351.2648263833
21
250.503189507447
31
3.20593071881819e-028
  0
LINE
 8
COMPONENT0
10
3351.2648263833
20
250.503189507447
30
3.20593071881819e-028
11
3351.29459328332
21
250.526418306456
31
3.20593071881819e-028
  0
LINE
 8
COMPONENT0
10
3351.29459328332
20
250.526418306456
30
3.20593071881819e-028
11
3351.37386334149
21
250.566893675498
31
3.20593071881819e-028
  0
LINE
 8
COMPONENT0
10
3351.37386334149
20
250.566893675498
30
3.20593071881819e-028
11
3351.46090405191
21
250.602470859669
31
3.20593071881819e-028
  0
LINE
 8
COMPONENT0
10
3351.46090405191
20
250.602470859669
30
3.20593071881819e-028
11
3351.55453280073
21
250.632528773989
31
3.20593071881819e-028
  0
LINE
 8
COMPONENT0
10
3351.55453280073
20
250.632528773989
30
3.20593071881819e-028
11
3351.65356697408
21
250.656446333479
31
3.20593071881819e-028
  0
LINE
 8
COMPONENT0
10
3351.65356697408
20
250.656446333479
30
3.20593071881819e-028
11
3351.75682395809
21
250.673602453158
31
3.20593071881819e-028
  0
LINE
 8
COMPONENT0
10
3351.75682395809
20
250.673602453158
30
3.20593071881819e-028
11
3351.8631211389
21
250.683376048047
31
3.20593071881819e-028
  0
LINE
 8
COMPONENT0
10
3351.8631211389
20
250.683376048047
30
3.20593071881819e-028
11
3352.01313752251
21
250.683470591176
31
3.20593071881819e-028
  0
LINE
 8
COMPONENT0
10
3352.01313752251
20
250.683470591176
30
3.20593071881819e-028
11
3352.23418816458
21
250.64656936912
31
3.20593071881819e-028
  0
LINE
 8
COMPONENT0
10
3352.23418816458
20
250.64656936912
30
3.20593071881819e-028
11
3352.4063189449
21
250.568905039324
31
3.20593071881819e-028
  0
LINE
 8
COMPONENT0
10
3352.4063189449
20
250.568905039324
30
3.20593071881819e-028
11
3352.53482468382
21
250.457862557439
31
3.20593071881819e-028
  0
LINE
 8
COMPONENT0
10
3352.53482468382
20
250.457862557439
30
3.20593071881819e-028
11
3352.6250002017
21
250.320826879116
31
3.20593071881819e-028
  0
LINE
 8
COMPONENT0
10
3352.6250002017
20
250.320826879116
30
3.20593071881819e-028
11
3352.68214031888
21
250.165182960006
31
3.20593071881819e-028
  0
LINE
 8
COMPONENT0
10
3352.68214031888
20
250.165182960006
30
3.20593071881819e-028
11
3352.71153985573
21
249.998315755761
31
3.20593071881819e-028
  0
LINE
 8
COMPONENT0
10
3352.71153985573
20
249.998315755761
30
3.20593071881819e-028
11
3352.71867378777
21
249.851045069581
31
3.20593071881819e-028
  0
LINE
 8
COMPONENT0
10
3352.71867378777
20
249.851045069581
30
3.20593071881819e-028
11
3352.71867378777
21
249.799408720686
31
3.20593071881819e-028
  0
LINE
 8
COMPONENT0
10
3352.71867378777
20
249.799408720686
30
3.20593071881819e-028
11
3352.71867378777
21
249.686529260311
31
3.20593071881819e-028
  0
LINE
 8
COMPONENT0
10
3352.71867378777
20
249.686529260311
30
3.20593071881819e-028
11
3352.71867378777
21
249.537624440242
31
3.20593071881819e-028
  0
LINE
 8
COMPONENT0
10
3352.71867378777
20
249.537624440242
30
3.20593071881819e-028
11
3352.71867378777
21
249.377912012264
31
3.20593071881819e-028
  0
LINE
 8
COMPONENT0
10
3352.71867378777
20
249.377912012264
30
3.20593071881819e-028
11
3352.71867378777
21
249.232609728164
31
3.20593071881819e-028
  0
LINE
 8
COMPONENT0
10
3352.71867378777
20
249.232609728164
30
3.20593071881819e-028
11
3352.71867378777
21
249.126935339727
31
3.20593071881819e-028
  0
LINE
 8
COMPONENT0
10
3352.71867378777
20
249.126935339727
30
3.20593071881819e-028
11
3352.71867378777
21
249.086106598741
31
3.20593071881819e-028
  0
LINE
 8
COMPONENT0
10
3353.26971717416
20
248.971901608064
30
3.20593071881819e-028
11
3353.32222293206
21
248.943204995184
31
3.20593071881819e-028
  0
LINE
 8
COMPONENT0
10
3353.32222293206
20
248.943204995184
30
3.20593071881819e-028
11
3353.38269340595
21
248.914908258935
31
3.20593071881819e-028
  0
LINE
 8
COMPONENT0
10
3353.38269340595
20
248.914908258935
30
3.20593071881819e-028
11
3353.44967372555
21
248.888403877514
31
3.20593071881819e-028
  0
LINE
 8
COMPONENT0
10
3353.44967372555
20
248.888403877514
30
3.20593071881819e-028
11
3353.52170902054
21
248.865084329117
31
3.20593071881819e-028
  0
LINE
 8
COMPONENT0
10
3353.52170902054
20
248.865084329117
30
3.20593071881819e-028
11
3353.59734442065
21
248.846342091942
31
3.20593071881819e-028
  0
LINE
 8
COMPONENT0
10
3353.59734442065
20
248.846342091942
30
3.20593071881819e-028
11
3353.67512505557
21
248.833569644186
31
3.20593071881819e-028
  0
LINE
 8
COMPONENT0
10
3353.67512505557
20
248.833569644186
30
3.20593071881819e-028
11
3353.753596055
21
248.828159464045
31
3.20593071881819e-028
  0
LINE
 8
COMPONENT0
10
3353.753596055
20
248.828159464045
30
3.20593071881819e-028
11
3353.85475212194
21
248.833584945932
31
3.20593071881819e-028
  0
LINE
 8
COMPONENT0
10
3353.85475212194
20
248.833584945932
30
3.20593071881819e-028
11
3353.94462942526
21
248.853119672725
31
3.20593071881819e-028
  0
LINE
 8
COMPONENT0
10
3353.94462942526
20
248.853119672725
30
3.20593071881819e-028
11
3354.01845818441
21
248.885362130423
31
3.20593071881819e-028
  0
LINE
 8
COMPONENT0
10
3354.01845818441
20
248.885362130423
30
3.20593071881819e-028
11
3354.07645393572
21
248.92884326871
31
3.20593071881819e-028
  0
LINE
 8
COMPONENT0
10
3354.07645393572
20
248.92884326871
30
3.20593071881819e-028
11
3354.11883221553
21
248.982094037268
31
3.20593071881819e-028
  0
LINE
 8
COMPONENT0
10
3354.11883221553
20
248.982094037268
30
3.20593071881819e-028
11
3354.14580856018
21
249.043645385779
31
3.20593071881819e-028
  0
LINE
 8
COMPONENT0
10
3354.14580856018
20
249.043645385779
30
3.20593071881819e-028
11
3354.15759850602
21
249.112028263925
31
3.20593071881819e-028
  0
LINE
 8
COMPONENT0
10
3354.15759850602
20
249.112028263925
30
3.20593071881819e-028
11
3354.15497569522
21
249.18349641177
31
3.20593071881819e-028
  0
LINE
 8
COMPONENT0
10
3354.15497569522
20
249.18349641177
30
3.20593071881819e-028
11
3354.1391126296
21
249.247253631571
31
3.20593071881819e-028
  0
LINE
 8
COMPONENT0
10
3354.1391126296
20
249.247253631571
30
3.20593071881819e-028
11
3354.10913922628
21
249.303679374661
31
3.20593071881819e-028
  0
LINE
 8
COMPONENT0
10
3354.10913922628
20
249.303679374661
30
3.20593071881819e-028
11
3354.06407989973
21
249.354310755468
31
3.20593071881819e-028
  0
LINE
 8
COMPONENT0
10
3354.06407989973
20
249.354310755468
30
3.20593071881819e-028
11
3354.00295906442
21
249.400684888414
31
3.20593071881819e-028
  0
LINE
 8
COMPONENT0
10
3354.00295906442
20
249.400684888414
30
3.20593071881819e-028
11
3353.9248011348
21
249.444338887926
31
3.20593071881819e-028
  0
LINE
 8
COMPONENT0
10
3353.9248011348
20
249.444338887926
30
3.20593071881819e-028
11
3353.82863052533
21
249.486809868429
31
3.20593071881819e-028
  0
LINE
 8
COMPONENT0
10
3353.82863052533
20
249.486809868429
30
3.20593071881819e-028
11
3353.69612407844
21
249.538733177431
31
3.20593071881819e-028
  0
LINE
 8
COMPONENT0
10
3353.69612407844
20
249.538733177431
30
3.20593071881819e-028
11
3353.5645719884
21
249.603415716038
31
3.20593071881819e-028
  0
LINE
 8
COMPONENT0
10
3353.5645719884
20
249.603415716038
30
3.20593071881819e-028
11
3353.45574156107
21
249.675120606868
31
3.20593071881819e-028
  0
LINE
 8
COMPONENT0
10
3353.45574156107
20
249.675120606868
30
3.20593071881819e-028
11
3353.36921590378
21
249.753572757485
31
3.20593071881819e-028
  0
LINE
 8
COMPONENT0
10
3353.36921590378
20
249.753572757485
30
3.20593071881819e-028
11
3353.30457812389
21
249.838497075456
31
3.20593071881819e-028
  0
LINE
 8
COMPONENT0
10
3353.30457812389
20
249.838497075456
30
3.20593071881819e-028
11
3353.26141132872
21
249.929618468347
31
3.20593071881819e-028
  0
LINE
 8
COMPONENT0
10
3353.26141132872
20
249.929618468347
30
3.20593071881819e-028
11
3353.23929862563
21
250.026661843724
31
3.20593071881819e-028
  0
LINE
 8
COMPONENT0
10
3353.23929862563
20
250.026661843724
30
3.20593071881819e-028
11
3353.23885684559
21
250.143389798
31
3.20593071881819e-028
  0
LINE
 8
COMPONENT0
10
3353.23885684559
20
250.143389798
30
3.20593071881819e-028
11
3353.26760326218
21
250.273889489222
31
3.20593071881819e-028
  0
LINE
 8
COMPONENT0
10
3353.26760326218
20
250.273889489222
30
3.20593071881819e-028
11
3353.32570637651
21
250.392445550173
31
3.20593071881819e-028
  0
LINE
 8
COMPONENT0
10
3353.32570637651
20
250.392445550173
30
3.20593071881819e-028
11
3353.41142488185
21
250.495575367356
31
3.20593071881819e-028
  0
LINE
 8
COMPONENT0
10
3353.41142488185
20
250.495575367356
30
3.20593071881819e-028
11
3353.52301747143
21
250.579796327279
31
3.20593071881819e-028
  0
LINE
 8
COMPONENT0
10
3353.52301747143
20
250.579796327279
30
3.20593071881819e-028
11
3353.65874283851
21
250.641625816446
31
3.20593071881819e-028
  0
LINE
 8
COMPONENT0
10
3353.65874283851
20
250.641625816446
30
3.20593071881819e-028
11
3353.81685967636
21
250.677581221364
31
3.20593071881819e-028
  0
LINE
 8
COMPONENT0
10
3353.81685967636
20
250.677581221364
30
3.20593071881819e-028
11
3353.96728775605
21
250.685231901539
31
3.20593071881819e-028
  0
LINE
 8
COMPONENT0
10
3353.96728775605
20
250.685231901539
30
3.20593071881819e-028
11
3354.05172622979
21
250.680373169928
31
3.20593071881819e-028
  0
LINE
 8
COMPONENT0
10
3354.05172622979
20
250.680373169928
30
3.20593071881819e-028
11
3354.13221171845
21
250.669854583673
31
3.20593071881819e-028
  0
LINE
 8
COMPONENT0
10
3354.13221171845
20
250.669854583673
30
3.20593071881819e-028
11
3354.20796999279
21
250.654300063758
31
3.20593071881819e-028
  0
LINE
 8
COMPONENT0
10
3354.20796999279
20
250.654300063758
30
3.20593071881819e-028
11
3354.27822682359
21
250.634333531169
31
3.20593071881819e-028
  0
LINE
 8
COMPONENT0
10
3354.27822682359
20
250.634333531169
30
3.20593071881819e-028
11
3354.34220798164
21
250.610578906888
31
3.20593071881819e-028
  0
LINE
 8
COMPONENT0
10
3354.34220798164
20
250.610578906888
30
3.20593071881819e-028
11
3354.3991392377
21
250.583660111902
31
3.20593071881819e-028
  0
LINE
 8
COMPONENT0
10
3354.3991392377
20
250.583660111902
30
3.20593071881819e-028
11
3354.44163419333
21
250.558220771428
31
3.20593071881819e-028
  0
LINE
 8
COMPONENT0
10
3354.44163419333
20
250.558220771428
30
3.20593071881819e-028
11
3354.42254059063
21
250.500051888798
31
3.20593071881819e-028
  0
LINE
 8
COMPONENT0
10
3354.42254059063
20
250.500051888798
30
3.20593071881819e-028
11
3354.40525878965
21
250.447402681162
31
3.20593071881819e-028
  0
LINE
 8
COMPONENT0
10
3354.40525878965
20
250.447402681162
30
3.20593071881819e-028
11
3354.38672266441
21
250.390932160069
31
3.20593071881819e-028
  0
LINE
 8
COMPONENT0
10
3354.38672266441
20
250.390932160069
30
3.20593071881819e-028
11
3354.36985897152
21
250.339556723585
31
3.20593071881819e-028
  0
LINE
 8
COMPONENT0
10
3354.36985897152
20
250.339556723585
30
3.20593071881819e-028
11
3354.3575944676
21
250.302192769779
31
3.20593071881819e-028
  0
LINE
 8
COMPONENT0
10
3354.3575944676
20
250.302192769779
30
3.20593071881819e-028
11
3354.31522194661
21
250.310079997257
31
3.20593071881819e-028
  0
LINE
 8
COMPONENT0
10
3354.31522194661
20
250.310079997257
30
3.20593071881819e-028
11
3354.27002922175
21
250.333346066712
31
3.20593071881819e-028
  0
LINE
 8
COMPONENT0
10
3354.27002922175
20
250.333346066712
30
3.20593071881819e-028
11
3354.21770029934
21
250.356026298671
31
3.20593071881819e-028
  0
LINE
 8
COMPONENT0
10
3354.21770029934
20
250.356026298671
30
3.20593071881819e-028
11
3354.15865774405
21
250.376592086723
31
3.20593071881819e-028
  0
LINE
 8
COMPONENT0
10
3354.15865774405
20
250.376592086723
30
3.20593071881819e-028
11
3354.09332412055
21
250.393514824456
31
3.20593071881819e-028
  0
LINE
 8
COMPONENT0
10
3354.09332412055
20
250.393514824456
30
3.20593071881819e-028
11
3354.02212199351
21
250.405265905459
31
3.20593071881819e-028
  0
LINE
 8
COMPONENT0
10
3354.02212199351
20
250.405265905459
30
3.20593071881819e-028
11
3353.94547392759
21
250.410316723318
31
3.20593071881819e-028
  0
LINE
 8
COMPONENT0
10
3353.94547392759
20
250.410316723318
30
3.20593071881819e-028
11
3353.85927969697
21
250.405100022623
31
3.20593071881819e-028
  0
LINE
 8
COMPONENT0
10
3353.85927969697
20
250.405100022623
30
3.20593071881819e-028
11
3353.78332993445
21
250.386468447501
31
3.20593071881819e-028
  0
LINE
 8
COMPONENT0
10
3353.78332993445
20
250.386468447501
30
3.20593071881819e-028
11
3353.71985778133
21
250.356019241733
31
3.20593071881819e-028
  0
LINE
 8
COMPONENT0
10
3353.71985778133
20
250.356019241733
30
3.20593071881819e-028
11
3353.66913549404
21
250.315417139947
31
3.20593071881819e-028
  0
LINE
 8
COMPONENT0
10
3353.66913549404
20
250.315417139947
30
3.20593071881819e-028
11
3353.63143532901
21
250.26632687677
31
3.20593071881819e-028
  0
LINE
 8
COMPONENT0
10
3353.63143532901
20
250.26632687677
30
3.20593071881819e-028
11
3353.60702954267
21
250.210413186827
31
3.20593071881819e-028
  0
LINE
 8
COMPONENT0
10
3353.60702954267
20
250.210413186827
30
3.20593071881819e-028
11
3353.59619039145
21
250.149340804746
31
3.20593071881819e-028
  0
LINE
 8
COMPONENT0
10
3353.59619039145
20
250.149340804746
30
3.20593071881819e-028
11
3353.59920356765
21
250.083051916273
31
3.20593071881819e-028
  0
LINE
 8
COMPONENT0
10
3353.59920356765
20
250.083051916273
30
3.20593071881819e-028
11
3353.6164867577
21
250.023667265534
31
3.20593071881819e-028
  0
LINE
 8
COMPONENT0
10
3353.6164867577
20
250.023667265534
30
3.20593071881819e-028
11
3353.64853256646
21
249.971775338617
31
3.20593071881819e-028
  0
LINE
 8
COMPONENT0
10
3353.64853256646
20
249.971775338617
30
3.20593071881819e-028
11
3353.69583445872
21
249.925354064331
31
3.20593071881819e-028
  0
LINE
 8
COMPONENT0
10
3353.69583445872
20
249.925354064331
30
3.20593071881819e-028
11
3353.75888589926
21
249.882381371485
31
3.20593071881819e-028
  0
LINE
 8
COMPONENT0
10
3353.75888589926
20
249.882381371485
30
3.20593071881819e-028
11
3353.83818035285
21
249.84083518889
31
3.20593071881819e-028
  0
LINE
 8
COMPONENT0
10
3353.83818035285
20
249.84083518889
30
3.20593071881819e-028
11
3353.93421128428
21
249.798693445356
31
3.20593071881819e-028
  0
LINE
 8
COMPONENT0
10
3353.93421128428
20
249.798693445356
30
3.20593071881819e-028
11
3354.06172538212
21
249.747554410102
31
3.20593071881819e-028
  0
LINE
 8
COMPONENT0
10
3354.06172538212
20
249.747554410102
30
3.20593071881819e-028
11
3354.18821551286
21
249.685821074992
31
3.20593071881819e-028
  0
LINE
 8
COMPONENT0
10
3354.18821551286
20
249.685821074992
30
3.20593071881819e-028
11
3354.29473976695
21
249.616532623961
31
3.20593071881819e-028
  0
LINE
 8
COMPONENT0
10
3354.29473976695
20
249.616532623961
30
3.20593071881819e-028
11
3354.38095498785
21
249.538361806917
31
3.20593071881819e-028
  0
LINE
 8
COMPONENT0
10
3354.38095498785
20
249.538361806917
30
3.20593071881819e-028
11
3354.44651801903
21
249.449981373765
31
3.20593071881819e-028
  0
LINE
 8
COMPONENT0
10
3354.44651801903
20
249.449981373765
30
3.20593071881819e-028
11
3354.49108570395
21
249.350064074412
31
3.20593071881819e-028
  0
LINE
 8
COMPONENT0
10
3354.49108570395
20
249.350064074412
30
3.20593071881819e-028
11
3354.51431488605
21
249.237282658763
31
3.20593071881819e-028
  0
LINE
 8
COMPONENT0
10
3354.51431488605
20
249.237282658763
30
3.20593071881819e-028
11
3354.51483493596
21
249.102255826589
31
3.20593071881819e-028
  0
LINE
 8
COMPONENT0
10
3354.51483493596
20
249.102255826589
30
3.20593071881819e-028
11
3354.4845812891
21
248.962541966475
31
3.20593071881819e-028
  0
LINE
 8
COMPONENT0
10
3354.4845812891
20
248.962541966475
30
3.20593071881819e-028
11
3354.42308702724
21
248.83916754357
31
3.20593071881819e-028
  0
LINE
 8
COMPONENT0
10
3354.42308702724
20
248.83916754357
30
3.20593071881819e-028
11
3354.33180985667
21
248.734494949598
31
3.20593071881819e-028
  0
LINE
 8
COMPONENT0
10
3354.33180985667
20
248.734494949598
30
3.20593071881819e-028
11
3354.2122074837
21
248.650886576288
31
3.20593071881819e-028
  0
LINE
 8
COMPONENT0
10
3354.2122074837
20
248.650886576288
30
3.20593071881819e-028
11
3354.06573761463
21
248.590704815367
31
3.20593071881819e-028
  0
LINE
 8
COMPONENT0
10
3354.06573761463
20
248.590704815367
30
3.20593071881819e-028
11
3353.89385795576
21
248.556312058561
31
3.20593071881819e-028
  0
LINE
 8
COMPONENT0
10
3353.89385795576
20
248.556312058561
30
3.20593071881819e-028
11
3353.72950893883
21
248.549125065117
31
3.20593071881819e-028
  0
LINE
 8
COMPONENT0
10
3353.72950893883
20
248.549125065117
30
3.20593071881819e-028
11
3353.63715507048
21
248.554391621889
31
3.20593071881819e-028
  0
LINE
 8
COMPONENT0
10
3353.63715507048
20
248.554391621889
30
3.20593071881819e-028
11
3353.54778386855
21
248.565899009078
31
3.20593071881819e-028
  0
LINE
 8
COMPONENT0
10
3353.54778386855
20
248.565899009078
30
3.20593071881819e-028
11
3353.46215538225
21
248.583097041817
31
3.20593071881819e-028
  0
LINE
 8
COMPONENT0
10
3353.46215538225
20
248.583097041817
30
3.20593071881819e-028
11
3353.38102966076
21
248.605435535237
31
3.20593071881819e-028
  0
LINE
 8
COMPONENT0
10
3353.38102966076
20
248.605435535237
30
3.20593071881819e-028
11
3353.30516675329
21
248.632364304471
31
3.20593071881819e-028
  0
LINE
 8
COMPONENT0
10
3353.30516675329
20
248.632364304471
30
3.20593071881819e-028
11
3353.23532670903
21
248.66333316465
31
3.20593071881819e-028
  0
LINE
 8
COMPONENT0
10
3353.23532670903
20
248.66333316465
30
3.20593071881819e-028
11
3353.1809388901
21
248.693007037387
31
3.20593071881819e-028
  0
LINE
 8
COMPONENT0
10
3353.1809388901
20
248.693007037387
30
3.20593071881819e-028
11
3353.20003249279
21
248.752989072211
31
3.20593071881819e-028
  0
LINE
 8
COMPONENT0
10
3353.20003249279
20
248.752989072211
30
3.20593071881819e-028
11
3353.21731429377
21
248.807279381102
31
3.20593071881819e-028
  0
LINE
 8
COMPONENT0
10
3353.21731429377
20
248.807279381102
30
3.20593071881819e-028
11
3353.23585041902
21
248.865510115639
31
3.20593071881819e-028
  0
LINE
 8
COMPONENT0
10
3353.23585041902
20
248.865510115639
30
3.20593071881819e-028
11
3353.25271411191
21
248.918486949316
31
3.20593071881819e-028
  0
LINE
 8
COMPONENT0
10
3353.25271411191
20
248.918486949316
30
3.20593071881819e-028
11
3353.26971717416
21
248.971901608064
31
3.20593071881819e-028
  0
LINE
 8
COMPONENT1
10
3819.68398628136
20
126.625972674683
30
3.20593071881819e-028
11
3945.6799962893
21
126.625972674683
31
3.20593071881819e-028
  0
LINE
 8
COMPONENT1
10
4345.71579068964
20
126.625972674683
30
3.20593071881819e-028
11
4350.71579068964
21
126.625972674683
31
3.20593071881819e-028
  0
LINE
 8
COMPONENT1
10
3819.68398628136
20
126.625972674683
30
3.20593071881819e-028
11
3814.68398628136
21
126.625972674683
31
3.20593071881819e-028
  0
LINE
 8
COMPONENT1
10
4115.4010147864
20
-36.112521686584
30
3.20593071881819e-028
11
4035.37897308402
21
-36.112521686584
31
3.20593071881819e-028
  0
LINE
 8
COMPONENT1
10
3870.88089504287
20
-57.0842097784
30
3.20593071881819e-028
11
3870.88089504287
21
-52.0839948924944
31
3.20593071881819e-028
  0
LINE
 8
COMPONENT1
10
3896.88087556732
20
-57.0842097784
30
3.20593071881819e-028
11
3896.88087556732
21
-60.8741618219336
31
3.20593071881819e-028
  0
LINE
 8
COMPONENT1
10
3896.88087556732
20
-52.0839948924944
30
3.20593071881819e-028
11
3896.88087556732
21
-57.0842097784
31
3.20593071881819e-028
  0
LINE
 8
COMPONENT1
10
3870.88089504287
20
-52.0839948924944
30
3.20593071881819e-028
11
3896.88087556732
21
-52.0839948924944
31
3.20593071881819e-028
  0
LINE
 8
COMPONENT1
10
4035.53038513048
20
-8.87385626325989
30
3.20593071881819e-028
11
4135.5303764764
21
-8.87385626325989
31
3.20593071881819e-028
  0
LINE
 8
COMPONENT1
10
4319.53029165093
20
39.1260017788687
30
3.20593071881819e-028
11
4317.5742961913
21
38.9347688955132
31
3.20593071881819e-028
  0
LINE
 8
COMPONENT1
10
4317.5742961913
20
38.9347688955132
30
3.20593071881819e-028
11
4315.74711557985
21
38.3855159543384
31
3.20593071881819e-028
  0
LINE
 8
COMPONENT1
10
4315.74711557985
20
38.3855159543384
30
3.20593071881819e-028
11
4314.08542206111
21
37.5149115186815
31
3.20593071881819e-028
  0
LINE
 8
COMPONENT1
10
4314.08542206111
20
37.5149115186815
30
3.20593071881819e-028
11
4312.62588787964
21
36.3596241518799
31
3.20593071881819e-028
  0
LINE
 8
COMPONENT1
10
4312.62588787964
20
36.3596241518799
30
3.20593071881819e-028
11
4311.40518527999
21
34.956322417271
31
3.20593071881819e-028
  0
LINE
 8
COMPONENT1
10
4311.40518527999
20
34.956322417271
30
3.20593071881819e-028
11
4310.4599865067
21
33.3416748781922
31
3.20593071881819e-028
  0
LINE
 8
COMPONENT1
10
4310.4599865067
20
33.3416748781922
30
3.20593071881819e-028
11
4309.82696380434
21
31.5523500979809
31
3.20593071881819e-028
  0
LINE
 8
COMPONENT1
10
4309.82696380434
20
31.5523500979809
30
3.20593071881819e-028
11
4309.54278941744
21
29.6250166399744
31
3.20593071881819e-028
  0
LINE
 8
COMPONENT1
10
4309.54278941744
20
29.6250166399744
30
3.20593071881819e-028
11
4309.63897855617
21
27.6481903651732
31
3.20593071881819e-028
  0
LINE
 8
COMPONENT1
10
4309.63897855617
20
27.6481903651732
30
3.20593071881819e-028
11
4310.10216113137
21
25.7852776756471
31
3.20593071881819e-028
  0
LINE
 8
COMPONENT1
10
4310.10216113137
20
25.7852776756471
30
3.20593071881819e-028
11
4310.89585589977
21
24.0787079455849
31
3.20593071881819e-028
  0
LINE
 8
COMPONENT1
10
4310.89585589977
20
24.0787079455849
30
3.20593071881819e-028
11
4311.98339061681
21
22.5651497383239
31
3.20593071881819e-028
  0
LINE
 8
COMPONENT1
10
4311.98339061681
20
22.5651497383239
30
3.20593071881819e-028
11
4313.32809303794
21
21.2812716172015
31
3.20593071881819e-028
  0
LINE
 8
COMPONENT1
10
4313.32809303794
20
21.2812716172015
30
3.20593071881819e-028
11
4314.89329091861
21
20.2637421455551
31
3.20593071881819e-028
  0
LINE
 8
COMPONENT1
10
4314.89329091861
20
20.2637421455551
30
3.20593071881819e-028
11
4316.64231201427
21
19.549229886722
31
3.20593071881819e-028
  0
LINE
 8
COMPONENT1
10
4316.64231201427
20
19.549229886722
30
3.20593071881819e-028
11
4318.53848408038
21
19.1744034040397
31
3.20593071881819e-028
  0
LINE
 8
COMPONENT1
10
4318.53848408038
20
19.1744034040397
30
3.20593071881819e-028
11
4320.52221341577
21
19.1744034040397
31
3.20593071881819e-028
  0
LINE
 8
COMPONENT1
10
4320.52221341577
20
19.1744034040397
30
3.20593071881819e-028
11
4322.41855290038
21
19.549229886722
31
3.20593071881819e-028
  0
LINE
 8
COMPONENT1
10
4322.41855290038
20
19.549229886722
30
3.20593071881819e-028
11
4324.1676723918
21
20.2637421455551
31
3.20593071881819e-028
  0
LINE
 8
COMPONENT1
10
4324.1676723918
20
20.2637421455551
30
3.20593071881819e-028
11
4325.73291437034
21
21.2812716172015
31
3.20593071881819e-028
  0
LINE
 8
COMPONENT1
10
4325.73291437034
20
21.2812716172015
30
3.20593071881819e-028
11
4327.07762131629
21
22.5651497383239
31
3.20593071881819e-028
  0
LINE
 8
COMPONENT1
10
4327.07762131629
20
22.5651497383239
30
3.20593071881819e-028
11
4328.16513570997
21
24.0787079455849
31
3.20593071881819e-028
  0
LINE
 8
COMPONENT1
10
4328.16513570997
20
24.0787079455849
30
3.20593071881819e-028
11
4328.95880003166
21
25.7852776756471
31
3.20593071881819e-028
  0
LINE
 8
COMPONENT1
10
4328.95880003166
20
25.7852776756471
30
3.20593071881819e-028
11
4329.42195676168
21
27.6481903651732
31
3.20593071881819e-028
  0
LINE
 8
COMPONENT1
10
4329.42195676168
20
27.6481903651732
30
3.20593071881819e-028
11
4329.5181393049
21
29.6250166399743
31
3.20593071881819e-028
  0
LINE
 8
COMPONENT1
10
4329.5181393049
20
29.6250166399743
30
3.20593071881819e-028
11
4329.23398294061
21
31.5523500979809
31
3.20593071881819e-028
  0
LINE
 8
COMPONENT1
10
4329.23398294061
20
31.5523500979809
30
3.20593071881819e-028
11
4328.60099022479
21
33.3416748781922
31
3.20593071881819e-028
  0
LINE
 8
COMPONENT1
10
4328.60099022479
20
33.3416748781922
30
3.20593071881819e-028
11
4327.65581867714
21
34.956322417271
31
3.20593071881819e-028
  0
LINE
 8
COMPONENT1
10
4327.65581867714
20
34.956322417271
30
3.20593071881819e-028
11
4326.43512581737
21
36.3596241518798
31
3.20593071881819e-028
  0
LINE
 8
COMPONENT1
10
4326.43512581737
20
36.3596241518798
30
3.20593071881819e-028
11
4324.97556916516
21
37.5149115186814
31
3.20593071881819e-028
  0
LINE
 8
COMPONENT1
10
4324.97556916516
20
37.5149115186814
30
3.20593071881819e-028
11
4323.31380624022
21
38.3855159543383
31
3.20593071881819e-028
  0
LINE
 8
COMPONENT1
10
4323.31380624022
20
38.3855159543383
30
3.20593071881819e-028
11
4321.48649456224
21
38.9347688955132
31
3.20593071881819e-028
  0
LINE
 8
COMPONENT1
10
4321.48649456224
20
38.9347688955132
30
3.20593071881819e-028
11
4319.53029165093
21
39.1260017788687
31
3.20593071881819e-028
  0
LINE
 8
COMPONENT1
10
4319.53029165093
20
-30.8739060358274
30
3.20593071881819e-028
11
4317.5742961913
21
-31.0651389191829
31
3.20593071881819e-028
  0
LINE
 8
COMPONENT1
10
4317.5742961913
20
-31.0651389191829
30
3.20593071881819e-028
11
4315.74711557985
21
-31.6143918603578
31
3.20593071881819e-028
  0
LINE
 8
COMPONENT1
10
4315.74711557985
20
-31.6143918603578
30
3.20593071881819e-028
11
4314.08542206111
21
-32.4849962960147
31
3.20593071881819e-028
  0
LINE
 8
COMPONENT1
10
4314.08542206111
20
-32.4849962960147
30
3.20593071881819e-028
11
4312.62588787964
21
-33.6402836628163
31
3.20593071881819e-028
  0
LINE
 8
COMPONENT1
10
4312.62588787964
20
-33.6402836628163
30
3.20593071881819e-028
11
4311.40518527999
21
-35.0435853974251
31
3.20593071881819e-028
  0
LINE
 8
COMPONENT1
10
4311.40518527999
20
-35.0435853974251
30
3.20593071881819e-028
11
4310.4599865067
21
-36.6582329365039
31
3.20593071881819e-028
  0
LINE
 8
COMPONENT1
10
4310.4599865067
20
-36.6582329365039
30
3.20593071881819e-028
11
4309.82696380434
21
-38.4475577167153
31
3.20593071881819e-028
  0
LINE
 8
COMPONENT1
10
4309.82696380434
20
-38.4475577167153
30
3.20593071881819e-028
11
4309.54278941744
21
-40.3748911747218
31
3.20593071881819e-028
  0
LINE
 8
COMPONENT1
10
4309.54278941744
20
-40.3748911747218
30
3.20593071881819e-028
11
4309.63897855617
21
-42.3517174495229
31
3.20593071881819e-028
  0
LINE
 8
COMPONENT1
10
4309.63897855617
20
-42.3517174495229
30
3.20593071881819e-028
11
4310.10216113137
21
-44.214630139049
31
3.20593071881819e-028
  0
LINE
 8
COMPONENT1
10
4310.10216113137
20
-44.214630139049
30
3.20593071881819e-028
11
4310.89585589977
21
-45.9211998691113
31
3.20593071881819e-028
  0
LINE
 8
COMPONENT1
10
4310.89585589977
20
-45.9211998691113
30
3.20593071881819e-028
11
4311.98339061681
21
-47.4347580763723
31
3.20593071881819e-028
  0
LINE
 8
COMPONENT1
10
4311.98339061681
20
-47.4347580763723
30
3.20593071881819e-028
11
4313.32809303794
21
-48.7186361974947
31
3.20593071881819e-028
  0
LINE
 8
COMPONENT1
10
4313.32809303794
20
-48.7186361974947
30
3.20593071881819e-028
11
4314.89329091861
21
-49.7361656691411
31
3.20593071881819e-028
  0
LINE
 8
COMPONENT1
10
4314.89329091861
20
-49.7361656691411
30
3.20593071881819e-028
11
4316.64231201427
21
-50.4506779279741
31
3.20593071881819e-028
  0
LINE
 8
COMPONENT1
10
4316.64231201427
20
-50.4506779279741
30
3.20593071881819e-028
11
4318.53848408038
21
-50.8255044106565
31
3.20593071881819e-028
  0
LINE
 8
COMPONENT1
10
4318.53848408038
20
-50.8255044106565
30
3.20593071881819e-028
11
4320.52221341577
21
-50.8255044106565
31
3.20593071881819e-028
  0
LINE
 8
COMPONENT1
10
4320.52221341577
20
-50.8255044106565
30
3.20593071881819e-028
11
4322.41855290038
21
-50.4506779279741
31
3.20593071881819e-028
  0
LINE
 8
COMPONENT1
10
4322.41855290038
20
-50.4506779279741
30
3.20593071881819e-028
11
4324.1676723918
21
-49.7361656691411
31
3.20593071881819e-028
  0
LINE
 8
COMPONENT1
10
4324.1676723918
20
-49.7361656691411
30
3.20593071881819e-028
11
4325.73291437034
21
-48.7186361974947
31
3.20593071881819e-028
  0
LINE
 8
COMPONENT1
10
4325.73291437034
20
-48.7186361974947
30
3.20593071881819e-028
11
4327.07762131629
21
-47.4347580763723
31
3.20593071881819e-028
  0
LINE
 8
COMPONENT1
10
4327.07762131629
20
-47.4347580763723
30
3.20593071881819e-028
11
4328.16513570997
21
-45.9211998691113
31
3.20593071881819e-028
  0
LINE
 8
COMPONENT1
10
4328.16513570997
20
-45.9211998691113
30
3.20593071881819e-028
11
4328.95880003166
21
-44.2146301390491
31
3.20593071881819e-028
  0
LINE
 8
COMPONENT1
10
4328.95880003166
20
-44.2146301390491
30
3.20593071881819e-028
11
4329.42195676168
21
-42.351717449523
31
3.20593071881819e-028
  0
LINE
 8
COMPONENT1
10
4329.42195676168
20
-42.351717449523
30
3.20593071881819e-028
11
4329.5181393049
21
-40.3748911747218
31
3.20593071881819e-028
  0
LINE
 8
COMPONENT1
10
4329.5181393049
20
-40.3748911747218
30
3.20593071881819e-028
11
4329.23398294061
21
-38.4475577167153
31
3.20593071881819e-028
  0
LINE
 8
COMPONENT1
10
4329.23398294061
20
-38.4475577167153
30
3.20593071881819e-028
11
4328.60099022479
21
-36.6582329365039
31
3.20593071881819e-028
  0
LINE
 8
COMPONENT1
10
4328.60099022479
20
-36.6582329365039
30
3.20593071881819e-028
11
4327.65581867714
21
-35.0435853974252
31
3.20593071881819e-028
  0
LINE
 8
COMPONENT1
10
4327.65581867714
20
-35.0435853974252
30
3.20593071881819e-028
11
4326.43512581737
21
-33.6402836628163
31
3.20593071881819e-028
  0
LINE
 8
COMPONENT1
10
4326.43512581737
20
-33.6402836628163
30
3.20593071881819e-028
11
4324.97556916516
21
-32.4849962960147
31
3.20593071881819e-028
  0
LINE
 8
COMPONENT1
10
4324.97556916516
20
-32.4849962960147
30
3.20593071881819e-028
11
4323.31380624022
21
-31.6143918603578
31
3.20593071881819e-028
  0
LINE
 8
COMPONENT1
10
4323.31380624022
20
-31.6143918603578
30
3.20593071881819e-028
11
4321.48649456224
21
-31.0651389191829
31
3.20593071881819e-028
  0
LINE
 8
COMPONENT1
10
4321.48649456224
20
-31.0651389191829
30
3.20593071881819e-028
11
4319.53029165093
21
-30.8739060358274
31
3.20593071881819e-028
  0
LINE
 8
COMPONENT1
10
4247.53016007796
20
-8.87385626325989
30
3.20593071881819e-028
11
4247.53016007796
21
108.626025908885
31
3.20593071881819e-028
  0
LINE
 8
COMPONENT1
10
3833.64283337707
20
98.0134022654836
30
3.20593071881819e-028
11
3832.86038542399
21
97.9369009827959
31
3.20593071881819e-028
  0
LINE
 8
COMPONENT1
10
3832.86038542399
20
97.9369009827959
30
3.20593071881819e-028
11
3832.1294859576
21
97.7171793449167
31
3.20593071881819e-028
  0
LINE
 8
COMPONENT1
10
3832.1294859576
20
97.7171793449167
30
3.20593071881819e-028
11
3831.46479909015
21
97.3689106671217
31
3.20593071881819e-028
  0
LINE
 8
COMPONENT1
10
3831.46479909015
20
97.3689106671217
30
3.20593071881819e-028
11
3830.88098893389
21
96.906768264687
31
3.20593071881819e-028
  0
LINE
 8
COMPONENT1
10
3830.88098893389
20
96.906768264687
30
3.20593071881819e-028
11
3830.39271960105
21
96.3454254528883
31
3.20593071881819e-028
  0
LINE
 8
COMPONENT1
10
3830.39271960105
20
96.3454254528883
30
3.20593071881819e-028
11
3830.01465520389
21
95.6995555470015
31
3.20593071881819e-028
  0
LINE
 8
COMPONENT1
10
3830.01465520389
20
95.6995555470015
30
3.20593071881819e-028
11
3829.76145985463
21
94.9838318623024
31
3.20593071881819e-028
  0
LINE
 8
COMPONENT1
10
3829.76145985463
20
94.9838318623024
30
3.20593071881819e-028
11
3829.64779766553
21
94.2129277140669
31
3.20593071881819e-028
  0
LINE
 8
COMPONENT1
10
3829.64779766553
20
94.2129277140669
30
3.20593071881819e-028
11
3829.68627060805
21
93.4222462774008
31
3.20593071881819e-028
  0
LINE
 8
COMPONENT1
10
3829.68627060805
20
93.4222462774008
30
3.20593071881819e-028
11
3829.87153239126
21
92.6771301003706
31
3.20593071881819e-028
  0
LINE
 8
COMPONENT1
10
3829.87153239126
20
92.6771301003706
30
3.20593071881819e-028
11
3830.1889952785
21
91.9945485302768
31
3.20593071881819e-028
  0
LINE
 8
COMPONENT1
10
3830.1889952785
20
91.9945485302768
30
3.20593071881819e-028
11
3830.62399515753
21
91.3891675199691
31
3.20593071881819e-028
  0
LINE
 8
COMPONENT1
10
3830.62399515753
20
91.3891675199691
30
3.20593071881819e-028
11
3831.16186791611
21
90.8756530222972
31
3.20593071881819e-028
  0
LINE
 8
COMPONENT1
10
3831.16186791611
20
90.8756530222972
30
3.20593071881819e-028
11
3831.78794944199
21
90.4686709901109
31
3.20593071881819e-028
  0
LINE
 8
COMPONENT1
10
3831.78794944199
20
90.4686709901109
30
3.20593071881819e-028
11
3832.48757562294
21
90.1828873762599
31
3.20593071881819e-028
  0
LINE
 8
COMPONENT1
10
3832.48757562294
20
90.1828873762599
30
3.20593071881819e-028
11
3833.2460823467
21
90.0329681335939
31
3.20593071881819e-028
  0
LINE
 8
COMPONENT1
10
3833.2460823467
20
90.0329681335939
30
3.20593071881819e-028
11
3834.03958440743
21
90.0329681335939
31
3.20593071881819e-028
  0
LINE
 8
COMPONENT1
10
3834.03958440743
20
90.0329681335939
30
3.20593071881819e-028
11
3834.79809113119
21
90.1828873762599
31
3.20593071881819e-028
  0
LINE
 8
COMPONENT1
10
3834.79809113119
20
90.1828873762599
30
3.20593071881819e-028
11
3835.49771731214
21
90.4686709901109
31
3.20593071881819e-028
  0
LINE
 8
COMPONENT1
10
3835.49771731214
20
90.4686709901109
30
3.20593071881819e-028
11
3836.12379883802
21
90.8756530222972
31
3.20593071881819e-028
  0
LINE
 8
COMPONENT1
10
3836.12379883802
20
90.8756530222972
30
3.20593071881819e-028
11
3836.6616715966
21
91.3891675199691
31
3.20593071881819e-028
  0
LINE
 8
COMPONENT1
10
3836.6616715966
20
91.3891675199691
30
3.20593071881819e-028
11
3837.09667147564
21
91.9945485302767
31
3.20593071881819e-028
  0
LINE
 8
COMPONENT1
10
3837.09667147564
20
91.9945485302767
30
3.20593071881819e-028
11
3837.41413436288
21
92.6771301003706
31
3.20593071881819e-028
  0
LINE
 8
COMPONENT1
10
3837.41413436288
20
92.6771301003706
30
3.20593071881819e-028
11
3837.59939614609
21
93.4222462774008
31
3.20593071881819e-028
  0
LINE
 8
COMPONENT1
10
3837.59939614609
20
93.4222462774008
30
3.20593071881819e-028
11
3837.6378690886
21
94.2129277140669
31
3.20593071881819e-028
  0
LINE
 8
COMPONENT1
10
3837.6378690886
20
94.2129277140669
30
3.20593071881819e-028
11
3837.5242068995
21
94.9838318623024
31
3.20593071881819e-028
  0
LINE
 8
COMPONENT1
10
3837.5242068995
20
94.9838318623024
30
3.20593071881819e-028
11
3837.27101155025
21
95.6995555470015
31
3.20593071881819e-028
  0
LINE
 8
COMPONENT1
10
3837.27101155025
20
95.6995555470015
30
3.20593071881819e-028
11
3836.89294715308
21
96.3454254528883
31
3.20593071881819e-028
  0
LINE
 8
COMPONENT1
10
3836.89294715308
20
96.3454254528883
30
3.20593071881819e-028
11
3836.40467782024
21
96.906768264687
31
3.20593071881819e-028
  0
LINE
 8
COMPONENT1
10
3836.40467782024
20
96.906768264687
30
3.20593071881819e-028
11
3835.82086766398
21
97.3689106671217
31
3.20593071881819e-028
  0
LINE
 8
COMPONENT1
10
3835.82086766398
20
97.3689106671217
30
3.20593071881819e-028
11
3835.15618079653
21
97.7171793449167
31
3.20593071881819e-028
  0
LINE
 8
COMPONENT1
10
3835.15618079653
20
97.7171793449167
30
3.20593071881819e-028
11
3834.42528133015
21
97.9369009827959
31
3.20593071881819e-028
  0
LINE
 8
COMPONENT1
10
3834.42528133015
20
97.9369009827959
30
3.20593071881819e-028
11
3833.64283337707
21
98.0134022654836
31
3.20593071881819e-028
  0
LINE
 8
COMPONENT1
10
3927.64284246772
20
98.0134022654836
30
3.20593071881819e-028
11
3926.86039451463
21
97.9369009827959
31
3.20593071881819e-028
  0
LINE
 8
COMPONENT1
10
3926.86039451463
20
97.9369009827959
30
3.20593071881819e-028
11
3926.12949504825
21
97.7171793449167
31
3.20593071881819e-028
  0
LINE
 8
COMPONENT1
10
3926.12949504825
20
97.7171793449167
30
3.20593071881819e-028
11
3925.4648081808
21
97.3689106671217
31
3.20593071881819e-028
  0
LINE
 8
COMPONENT1
10
3925.4648081808
20
97.3689106671217
30
3.20593071881819e-028
11
3924.88099802454
21
96.906768264687
31
3.20593071881819e-028
  0
LINE
 8
COMPONENT1
10
3924.88099802454
20
96.906768264687
30
3.20593071881819e-028
11
3924.3927286917
21
96.3454254528883
31
3.20593071881819e-028
  0
LINE
 8
COMPONENT1
10
3924.3927286917
20
96.3454254528883
30
3.20593071881819e-028
11
3924.01466429454
21
95.6995555470015
31
3.20593071881819e-028
  0
LINE
 8
COMPONENT1
10
3924.01466429454
20
95.6995555470015
30
3.20593071881819e-028
11
3923.76146894528
21
94.9838318623024
31
3.20593071881819e-028
  0
LINE
 8
COMPONENT1
10
3923.76146894528
20
94.9838318623024
30
3.20593071881819e-028
11
3923.64780675618
21
94.2129277140669
31
3.20593071881819e-028
  0
LINE
 8
COMPONENT1
10
3923.64780675618
20
94.2129277140669
30
3.20593071881819e-028
11
3923.6862796987
21
93.4222462774008
31
3.20593071881819e-028
  0
LINE
 8
COMPONENT1
10
3923.6862796987
20
93.4222462774008
30
3.20593071881819e-028
11
3923.8715414819
21
92.6771301003706
31
3.20593071881819e-028
  0
LINE
 8
COMPONENT1
10
3923.8715414819
20
92.6771301003706
30
3.20593071881819e-028
11
3924.18900436915
21
91.9945485302768
31
3.20593071881819e-028
  0
LINE
 8
COMPONENT1
10
3924.18900436915
20
91.9945485302768
30
3.20593071881819e-028
11
3924.62400424818
21
91.3891675199691
31
3.20593071881819e-028
  0
LINE
 8
COMPONENT1
10
3924.62400424818
20
91.3891675199691
30
3.20593071881819e-028
11
3925.16187700676
21
90.8756530222972
31
3.20593071881819e-028
  0
LINE
 8
COMPONENT1
10
3925.16187700676
20
90.8756530222972
30
3.20593071881819e-028
11
3925.78795853264
21
90.4686709901109
31
3.20593071881819e-028
  0
LINE
 8
COMPONENT1
10
3925.78795853264
20
90.4686709901109
30
3.20593071881819e-028
11
3926.48758471359
21
90.1828873762599
31
3.20593071881819e-028
  0
LINE
 8
COMPONENT1
10
3926.48758471359
20
90.1828873762599
30
3.20593071881819e-028
11
3927.24609143735
21
90.0329681335939
31
3.20593071881819e-028
  0
LINE
 8
COMPONENT1
10
3927.24609143735
20
90.0329681335939
30
3.20593071881819e-028
11
3928.03959349808
21
90.0329681335939
31
3.20593071881819e-028
  0
LINE
 8
COMPONENT1
10
3928.03959349808
20
90.0329681335939
30
3.20593071881819e-028
11
3928.79810022184
21
90.1828873762599
31
3.20593071881819e-028
  0
LINE
 8
COMPONENT1
10
3928.79810022184
20
90.1828873762599
30
3.20593071881819e-028
11
3929.49772640279
21
90.4686709901109
31
3.20593071881819e-028
  0
LINE
 8
COMPONENT1
10
3929.49772640279
20
90.4686709901109
30
3.20593071881819e-028
11
3930.12380792867
21
90.8756530222972
31
3.20593071881819e-028
  0
LINE
 8
COMPONENT1
10
3930.12380792867
20
90.8756530222972
30
3.20593071881819e-028
11
3930.66168068725
21
91.3891675199691
31
3.20593071881819e-028
  0
LINE
 8
COMPONENT1
10
3930.66168068725
20
91.3891675199691
30
3.20593071881819e-028
11
3931.09668056629
21
91.9945485302767
31
3.20593071881819e-028
  0
LINE
 8
COMPONENT1
10
3931.09668056629
20
91.9945485302767
30
3.20593071881819e-028
11
3931.41414345353
21
92.6771301003706
31
3.20593071881819e-028
  0
LINE
 8
COMPONENT1
10
3931.41414345353
20
92.6771301003706
30
3.20593071881819e-028
11
3931.59940523673
21
93.4222462774008
31
3.20593071881819e-028
  0
LINE
 8
COMPONENT1
10
3931.59940523673
20
93.4222462774008
30
3.20593071881819e-028
11
3931.63787817925
21
94.2129277140669
31
3.20593071881819e-028
  0
LINE
 8
COMPONENT1
10
3931.63787817925
20
94.2129277140669
30
3.20593071881819e-028
11
3931.52421599015
21
94.9838318623024
31
3.20593071881819e-028
  0
LINE
 8
COMPONENT1
10
3931.52421599015
20
94.9838318623024
30
3.20593071881819e-028
11
3931.2710206409
21
95.6995555470015
31
3.20593071881819e-028
  0
LINE
 8
COMPONENT1
10
3931.2710206409
20
95.6995555470015
30
3.20593071881819e-028
11
3930.89295624373
21
96.3454254528883
31
3.20593071881819e-028
  0
LINE
 8
COMPONENT1
10
3930.89295624373
20
96.3454254528883
30
3.20593071881819e-028
11
3930.40468691089
21
96.906768264687
31
3.20593071881819e-028
  0
LINE
 8
COMPONENT1
10
3930.40468691089
20
96.906768264687
30
3.20593071881819e-028
11
3929.82087675463
21
97.3689106671217
31
3.20593071881819e-028
  0
LINE
 8
COMPONENT1
10
3929.82087675463
20
97.3689106671217
30
3.20593071881819e-028
11
3929.15618988718
21
97.7171793449167
31
3.20593071881819e-028
  0
LINE
 8
COMPONENT1
10
3929.15618988718
20
97.7171793449167
30
3.20593071881819e-028
11
3928.4252904208
21
97.9369009827959
31
3.20593071881819e-028
  0
LINE
 8
COMPONENT1
10
3928.4252904208
20
97.9369009827959
30
3.20593071881819e-028
11
3927.64284246772
21
98.0134022654836
31
3.20593071881819e-028
  0
LINE
 8
COMPONENT1
10
3930.64300585024
20
-15.9866050943476
30
3.20593071881819e-028
11
3928.68685131236
21
-16.1778379777031
31
3.20593071881819e-028
  0
LINE
 8
COMPONENT1
10
3928.68685131236
20
-16.1778379777031
30
3.20593071881819e-028
11
3926.85956315964
21
-16.727090918878
31
3.20593071881819e-028
  0
LINE
 8
COMPONENT1
10
3926.85956315964
20
-16.727090918878
30
3.20593071881819e-028
11
3925.19780443358
21
-17.5976953545349
31
3.20593071881819e-028
  0
LINE
 8
COMPONENT1
10
3925.19780443358
20
-17.5976953545349
30
3.20593071881819e-028
11
3923.7382381757
21
-18.7529827213364
31
3.20593071881819e-028
  0
LINE
 8
COMPONENT1
10
3923.7382381757
20
-18.7529827213364
30
3.20593071881819e-028
11
3922.51752742753
21
-20.1562844559453
31
3.20593071881819e-028
  0
LINE
 8
COMPONENT1
10
3922.51752742753
20
-20.1562844559453
30
3.20593071881819e-028
11
3921.57233523058
21
-21.7709319950241
31
3.20593071881819e-028
  0
LINE
 8
COMPONENT1
10
3921.57233523058
20
-21.7709319950241
30
3.20593071881819e-028
11
3920.93932462637
21
-23.5602567752354
31
3.20593071881819e-028
  0
LINE
 8
COMPONENT1
10
3920.93932462637
20
-23.5602567752354
30
3.20593071881819e-028
11
3920.65515865641
21
-25.4875902332419
31
3.20593071881819e-028
  0
LINE
 8
COMPONENT1
10
3920.65515865641
20
-25.4875902332419
30
3.20593071881819e-028
11
3920.75134462201
21
-27.4644165080431
31
3.20593071881819e-028
  0
LINE
 8
COMPONENT1
10
3920.75134462201
20
-27.4644165080431
30
3.20593071881819e-028
11
3921.21451578929
21
-29.3273291975692
31
3.20593071881819e-028
  0
LINE
 8
COMPONENT1
10
3921.21451578929
20
-29.3273291975692
30
3.20593071881819e-028
11
3922.00820007006
21
-31.0338989276314
31
3.20593071881819e-028
  0
LINE
 8
COMPONENT1
10
3922.00820007006
20
-31.0338989276314
30
3.20593071881819e-028
11
3923.09573442281
21
-32.5474571348924
31
3.20593071881819e-028
  0
LINE
 8
COMPONENT1
10
3923.09573442281
20
-32.5474571348924
30
3.20593071881819e-028
11
3924.44045580602
21
-33.8313352560148
31
3.20593071881819e-028
  0
LINE
 8
COMPONENT1
10
3924.44045580602
20
-33.8313352560148
30
3.20593071881819e-028
11
3926.00570117818
21
-34.8488647276612
31
3.20593071881819e-028
  0
LINE
 8
COMPONENT1
10
3926.00570117818
20
-34.8488647276612
30
3.20593071881819e-028
11
3927.75480749776
21
-35.5633769864943
31
3.20593071881819e-028
  0
LINE
 8
COMPONENT1
10
3927.75480749776
20
-35.5633769864943
30
3.20593071881819e-028
11
3929.65111172325
21
-35.9382034691766
31
3.20593071881819e-028
  0
LINE
 8
COMPONENT1
10
3929.65111172325
20
-35.9382034691766
30
3.20593071881819e-028
11
3931.63487051793
21
-35.9382034691766
31
3.20593071881819e-028
  0
LINE
 8
COMPONENT1
10
3931.63487051793
20
-35.9382034691766
30
3.20593071881819e-028
11
3933.53112629329
21
-35.5633769864943
31
3.20593071881819e-028
  0
LINE
 8
COMPONENT1
10
3933.53112629329
20
-35.5633769864943
30
3.20593071881819e-028
11
3935.28019658683
21
-34.8488647276612
31
3.20593071881819e-028
  0
LINE
 8
COMPONENT1
10
3935.28019658683
20
-34.8488647276612
30
3.20593071881819e-028
11
3936.84541651644
21
-33.8313352560148
31
3.20593071881819e-028
  0
LINE
 8
COMPONENT1
10
3936.84541651644
20
-33.8313352560148
30
3.20593071881819e-028
11
3938.19012119998
21
-32.5474571348924
31
3.20593071881819e-028
  0
LINE
 8
COMPONENT1
10
3938.19012119998
20
-32.5474571348924
30
3.20593071881819e-028
11
3939.27764575534
21
-31.0338989276315
31
3.20593071881819e-028
  0
LINE
 8
COMPONENT1
10
3939.27764575534
20
-31.0338989276315
30
3.20593071881819e-028
11
3940.07132530038
21
-29.3273291975692
31
3.20593071881819e-028
  0
LINE
 8
COMPONENT1
10
3940.07132530038
20
-29.3273291975692
30
3.20593071881819e-028
11
3940.53449495299
21
-27.4644165080431
31
3.20593071881819e-028
  0
LINE
 8
COMPONENT1
10
3940.53449495299
20
-27.4644165080431
30
3.20593071881819e-028
11
3940.63068079397
21
-25.487590233242
31
3.20593071881819e-028
  0
LINE
 8
COMPONENT1
10
3940.63068079397
20
-25.487590233242
30
3.20593071881819e-028
11
3940.34651541837
21
-23.5602567752354
31
3.20593071881819e-028
  0
LINE
 8
COMPONENT1
10
3940.34651541837
20
-23.5602567752354
30
3.20593071881819e-028
11
3939.71350770928
21
-21.7709319950241
31
3.20593071881819e-028
  0
LINE
 8
COMPONENT1
10
3939.71350770928
20
-21.7709319950241
30
3.20593071881819e-028
11
3938.76832254881
21
-20.1562844559453
31
3.20593071881819e-028
  0
LINE
 8
COMPONENT1
10
3938.76832254881
20
-20.1562844559453
30
3.20593071881819e-028
11
3937.5476248191
21
-18.7529827213365
31
3.20593071881819e-028
  0
LINE
 8
COMPONENT1
10
3937.5476248191
20
-18.7529827213365
30
3.20593071881819e-028
11
3936.08807940226
21
-17.5976953545349
31
3.20593071881819e-028
  0
LINE
 8
COMPONENT1
10
3936.08807940226
20
-17.5976953545349
30
3.20593071881819e-028
11
3934.42635118042
21
-16.727090918878
31
3.20593071881819e-028
  0
LINE
 8
COMPONENT1
10
3934.42635118042
20
-16.727090918878
30
3.20593071881819e-028
11
3932.5991050357
21
-16.1778379777031
31
3.20593071881819e-028
  0
LINE
 8
COMPONENT1
10
3932.5991050357
20
-16.1778379777031
30
3.20593071881819e-028
11
3930.64300585024
21
-15.9866050943476
31
3.20593071881819e-028
  0
LINE
 8
COMPONENT1
10
3870.88089504287
20
74.9160888570053
30
3.20593071881819e-028
11
3870.88089504287
21
79.9159592331351
31
3.20593071881819e-028
  0
LINE
 8
COMPONENT1
10
3870.88089504287
20
79.9159592331351
30
3.20593071881819e-028
11
3896.88087556732
21
79.9159592331351
31
3.20593071881819e-028
  0
LINE
 8
COMPONENT1
10
3896.88087556732
20
79.9159592331351
30
3.20593071881819e-028
11
3896.88087556732
21
74.9160888570053
31
3.20593071881819e-028
  0
LINE
 8
COMPONENT1
10
3896.88087556732
20
74.9160888570053
30
3.20593071881819e-028
11
3870.88089504287
21
74.9160888570053
31
3.20593071881819e-028
  0
LINE
 8
COMPONENT1
10
3870.88089504287
20
-57.0842097784
30
3.20593071881819e-028
11
3870.88089504287
21
-60.8741618219336
31
3.20593071881819e-028
  0
LINE
 8
COMPONENT1
10
4115.49575497475
20
-60.8741618219336
30
3.20593071881819e-028
11
4115.4010147864
21
-36.112521686584
31
3.20593071881819e-028
  0
LINE
 8
COMPONENT1
10
4035.37897308402
20
-36.112521686584
30
3.20593071881819e-028
11
4035.53038513048
21
-60.8741618219336
31
3.20593071881819e-028
  0
LINE
 8
COMPONENT1
10
3819.68398628136
20
-60.8741618219336
30
3.20593071881819e-028
11
3870.88089504287
21
-60.8741618219336
31
3.20593071881819e-028
  0
LINE
 8
COMPONENT1
10
3819.68398628136
20
-60.5103594986929
30
3.20593071881819e-028
11
3819.68398628136
21
126.625972674683
31
3.20593071881819e-028
  0
LINE
 8
COMPONENT1
10
4035.53038513048
20
108.626025908885
30
3.20593071881819e-028
11
3947.67935877313
21
108.626025908885
31
3.20593071881819e-028
  0
LINE
 8
COMPONENT1
10
4247.53016007796
20
108.626025908885
30
3.20593071881819e-028
11
4287.71584738548
21
108.626025908885
31
3.20593071881819e-028
  0
LINE
 8
COMPONENT1
10
4287.71584738548
20
-60.8741618219336
30
3.20593071881819e-028
11
4287.71584738548
21
108.626025908885
31
3.20593071881819e-028
  0
LINE
 8
COMPONENT1
10
3947.67935877313
20
-60.8741618219336
30
3.20593071881819e-028
11
3947.67935877313
21
108.626025908885
31
3.20593071881819e-028
  0
LINE
 8
COMPONENT1
10
3945.6799962893
20
-60.8741618219336
30
3.20593071881819e-028
11
3945.6799962893
21
126.625972674683
31
3.20593071881819e-028
  0
LINE
 8
COMPONENT1
10
4289.71607114375
20
-60.8741618219336
30
3.20593071881819e-028
11
4289.71607114375
21
126.625972674683
31
3.20593071881819e-028
  0
LINE
 8
COMPONENT1
10
4135.5303764764
20
-3.87398588713009
30
3.20593071881819e-028
11
4135.5303764764
21
-8.87385626325989
31
3.20593071881819e-028
  0
LINE
 8
COMPONENT1
10
4035.53038513048
20
108.626025908885
30
3.20593071881819e-028
11
4035.53038513048
21
-8.87385626325989
31
3.20593071881819e-028
  0
LINE
 8
COMPONENT1
10
4247.53016007796
20
108.626025908885
30
3.20593071881819e-028
11
4247.53016007796
21
126.625972674683
31
3.20593071881819e-028
  0
LINE
 8
COMPONENT1
10
3896.88087556732
20
-60.8741618219336
30
3.20593071881819e-028
11
3945.6799962893
21
-60.8741618219336
31
3.20593071881819e-028
  0
LINE
 8
COMPONENT1
10
3870.88089504287
20
-60.8741618219336
30
3.20593071881819e-028
11
3896.88087556732
21
-60.8741618219336
31
3.20593071881819e-028
  0
LINE
 8
COMPONENT1
10
4287.71584738548
20
108.626025908885
30
3.20593071881819e-028
11
4287.71584738548
21
126.625972674683
31
3.20593071881819e-028
  0
LINE
 8
COMPONENT1
10
3947.67935877313
20
108.626025908885
30
3.20593071881819e-028
11
3947.67935877313
21
126.625972674683
31
3.20593071881819e-028
  0
LINE
 8
COMPONENT1
10
4115.49575497475
20
-60.8741618219336
30
3.20593071881819e-028
11
4135.5303764764
21
-60.8741618219336
31
3.20593071881819e-028
  0
LINE
 8
COMPONENT1
10
4035.53038513048
20
-60.8741618219336
30
3.20593071881819e-028
11
4115.49575497475
21
-60.8741618219336
31
3.20593071881819e-028
  0
LINE
 8
COMPONENT1
10
3947.67935877313
20
-60.8741618219336
30
3.20593071881819e-028
11
4035.53038513048
21
-60.8741618219336
31
3.20593071881819e-028
  0
LINE
 8
COMPONENT1
10
3945.6799962893
20
-60.8741618219336
30
3.20593071881819e-028
11
3947.67935877313
21
-60.8741618219336
31
3.20593071881819e-028
  0
LINE
 8
COMPONENT1
10
4287.71584738548
20
-60.8741618219336
30
3.20593071881819e-028
11
4289.71607114375
21
-60.8741618219336
31
3.20593071881819e-028
  0
LINE
 8
COMPONENT1
10
4135.5303764764
20
-60.8741618219336
30
3.20593071881819e-028
11
4287.71584738548
21
-60.8741618219336
31
3.20593071881819e-028
  0
LINE
 8
COMPONENT1
10
4289.71607114375
20
-60.8741618219336
30
3.20593071881819e-028
11
4345.71579068964
21
-60.8741618219336
31
3.20593071881819e-028
  0
LINE
 8
COMPONENT1
10
4035.53038513048
20
126.625972674683
30
3.20593071881819e-028
11
4247.53016007796
21
126.625972674683
31
3.20593071881819e-028
  0
LINE
 8
COMPONENT1
10
3945.6799962893
20
126.625972674683
30
3.20593071881819e-028
11
3947.67935877313
21
126.625972674683
31
3.20593071881819e-028
  0
LINE
 8
COMPONENT1
10
4035.53038513048
20
126.625972674683
30
3.20593071881819e-028
11
4035.53038513048
21
108.626025908885
31
3.20593071881819e-028
  0
LINE
 8
COMPONENT1
10
4135.5303764764
20
-8.87385626325989
30
3.20593071881819e-028
11
4247.53016007796
21
-8.87385626325989
31
3.20593071881819e-028
  0
LINE
 8
COMPONENT1
10
4345.71579068964
20
126.625972674683
30
3.20593071881819e-028
11
4345.71579068964
21
-60.8741618219336
31
3.20593071881819e-028
  0
LINE
 8
COMPONENT1
10
4135.5303764764
20
-8.87385626325989
30
3.20593071881819e-028
11
4135.5303764764
21
-60.8741618219336
31
3.20593071881819e-028
  0
LINE
 8
COMPONENT1
10
4289.71607114375
20
126.625972674683
30
3.20593071881819e-028
11
4345.71579068964
21
126.625972674683
31
3.20593071881819e-028
  0
LINE
 8
COMPONENT1
10
4247.53016007796
20
126.625972674683
30
3.20593071881819e-028
11
4287.71584738548
21
126.625972674683
31
3.20593071881819e-028
  0
LINE
 8
COMPONENT1
10
3947.67935877313
20
126.625972674683
30
3.20593071881819e-028
11
4035.53038513048
21
126.625972674683
31
3.20593071881819e-028
  0
LINE
 8
COMPONENT1
10
4287.71584738548
20
126.625972674683
30
3.20593071881819e-028
11
4289.71607114375
21
126.625972674683
31
3.20593071881819e-028
 0
ENDSEC
 0
EOF
