  0
SECTION
  2
HEADER
  9
$ACADVER
  1
AC1014
  9
$ACADMAINTVER
 70
     9
  9
$DWGCODEPAGE
  3
ASCII
  9
$INSBASE
 10
0.0
 20
0.0
 30
0.0
  9
$EXTMIN
 10
1.000000000000000E+20
 20
1.000000000000000E+20
 30
1.000000000000000E+20
  9
$EXTMAX
 10
-1.000000000000000E+20
 20
-1.000000000000000E+20
 30
-1.000000000000000E+20
  9
$LIMMIN
 10
0.0
 20
0.0
  9
$LIMMAX
 10
12.0
 20
9.0
  9
$ORTHOMODE
 70
     0
  9
$REGENMODE
 70
     1
  9
$FILLMODE
 70
     1
  9
$QTEXTMODE
 70
     0
  9
$MIRRTEXT
 70
     1
  9
$DRAGMODE
 70
     2
  9
$LTSCALE
 40
1.0
  9
$OSMODE
 70
    37
  9
$ATTMODE
 70
     1
  9
$TEXTSIZE
 40
0.2
  9
$TRACEWID
 40
0.05
  9
$TEXTSTYLE
  7
STANDARD
  9
$CLAYER
  8
0
  9
$CELTYPE
  6
BYLAYER
  9
$CECOLOR
 62
   256
  9
$CELTSCALE
 40
1.0
  9
$DELOBJ
 70
     1
  9
$DISPSILH
 70
     0
  9
$DIMSCALE
 40
1.0
  9
$DIMASZ
 40
0.18
  9
$DIMEXO
 40
0.0625
  9
$DIMDLI
 40
0.38
  9
$DIMRND
 40
0.0
  9
$DIMDLE
 40
0.0
  9
$DIMEXE
 40
0.18
  9
$DIMTP
 40
0.0
  9
$DIMTM
 40
0.0
  9
$DIMTXT
 40
0.18
  9
$DIMCEN
 40
0.09
  9
$DIMTSZ
 40
0.0
  9
$DIMTOL
 70
     0
  9
$DIMLIM
 70
     0
  9
$DIMTIH
 70
     1
  9
$DIMTOH
 70
     1
  9
$DIMSE1
 70
     0
  9
$DIMSE2
 70
     0
  9
$DIMTAD
 70
     0
  9
$DIMZIN
 70
     0
  9
$DIMBLK
  1

  9
$DIMASO
 70
     1
  9
$DIMSHO
 70
     1
  9
$DIMPOST
  1

  9
$DIMAPOST
  1

  9
$DIMALT
 70
     0
  9
$DIMALTD
 70
     2
  9
$DIMALTF
 40
25.4
  9
$DIMLFAC
 40
1.0
  9
$DIMTOFL
 70
     0
  9
$DIMTVP
 40
0.0
  9
$DIMTIX
 70
     0
  9
$DIMSOXD
 70
     0
  9
$DIMSAH
 70
     0
  9
$DIMBLK1
  1

  9
$DIMBLK2
  1

  9
$DIMSTYLE
  2
STANDARD
  9
$DIMCLRD
 70
     0
  9
$DIMCLRE
 70
     0
  9
$DIMCLRT
 70
     0
  9
$DIMTFAC
 40
1.0
  9
$DIMGAP
 40
0.09
  9
$DIMJUST
 70
     0
  9
$DIMSD1
 70
     0
  9
$DIMSD2
 70
     0
  9
$DIMTOLJ
 70
     1
  9
$DIMTZIN
 70
     0
  9
$DIMALTZ
 70
     0
  9
$DIMALTTZ
 70
     0
  9
$DIMFIT
 70
     3
  9
$DIMUPT
 70
     0
  9
$DIMUNIT
 70
     2
  9
$DIMDEC
 70
     4
  9
$DIMTDEC
 70
     4
  9
$DIMALTU
 70
     2
  9
$DIMALTTD
 70
     2
  9
$DIMTXSTY
  7
STANDARD
  9
$DIMAUNIT
 70
     0
  9
$LUNITS
 70
     2
  9
$LUPREC
 70
     4
  9
$SKETCHINC
 40
0.1
  9
$FILLETRAD
 40
0.5
  9
$AUNITS
 70
     0
  9
$AUPREC
 70
     0
  9
$MENU
  1
.
  9
$ELEVATION
 40
0.0
  9
$PELEVATION
 40
0.0
  9
$THICKNESS
 40
0.0
  9
$LIMCHECK
 70
     0
  9
$CHAMFERA
 40
0.5
  9
$CHAMFERB
 40
0.5
  9
$CHAMFERC
 40
1.0
  9
$CHAMFERD
 40
0.0
  9
$SKPOLY
 70
     0
  9
$TDCREATE
 40
2456241.464810776
  9
$TDUPDATE
 40
2456241.464810787
  9
$TDINDWG
 40
0.0000000116
  9
$TDUSRTIMER
 40
0.0000000116
  9
$USRTIMER
 70
     1
  9
$ANGBASE
 50
0.0
  9
$ANGDIR
 70
     0
  9
$PDMODE
 70
     0
  9
$PDSIZE
 40
0.0
  9
$PLINEWID
 40
0.0
  9
$COORDS
 70
     1
  9
$SPLFRAME
 70
     0
  9
$SPLINETYPE
 70
     6
  9
$SPLINESEGS
 70
     8
  9
$ATTDIA
 70
     0
  9
$ATTREQ
 70
     1
  9
$HANDLING
 70
     1
  9
$HANDSEED
  5
19C
  9
$SURFTAB1
 70
     6
  9
$SURFTAB2
 70
     6
  9
$SURFTYPE
 70
     6
  9
$SURFU
 70
     6
  9
$SURFV
 70
     6
  9
$UCSNAME
  2

  9
$UCSORG
 10
0.0
 20
0.0
 30
0.0
  9
$UCSXDIR
 10
1.0
 20
0.0
 30
0.0
  9
$UCSYDIR
 10
0.0
 20
1.0
 30
0.0
  9
$PUCSNAME
  2

  9
$PUCSORG
 10
0.0
 20
0.0
 30
0.0
  9
$PUCSXDIR
 10
1.0
 20
0.0
 30
0.0
  9
$PUCSYDIR
 10
0.0
 20
1.0
 30
0.0
  9
$USERI1
 70
     0
  9
$USERI2
 70
     0
  9
$USERI3
 70
     0
  9
$USERI4
 70
     0
  9
$USERI5
 70
     0
  9
$USERR1
 40
0.0
  9
$USERR2
 40
0.0
  9
$USERR3
 40
0.0
  9
$USERR4
 40
0.0
  9
$USERR5
 40
0.0
  9
$WORLDVIEW
 70
     1
  9
$SHADEDGE
 70
     3
  9
$SHADEDIF
 70
    70
  9
$TILEMODE
 70
     1
  9
$MAXACTVP
 70
    64
  9
$PINSBASE
 10
0.0
 20
0.0
 30
0.0
  9
$PLIMCHECK
 70
     0
  9
$PEXTMIN
 10
1.000000000000000E+20
 20
1.000000000000000E+20
 30
1.000000000000000E+20
  9
$PEXTMAX
 10
-1.000000000000000E+20
 20
-1.000000000000000E+20
 30
-1.000000000000000E+20
  9
$PLIMMIN
 10
0.0
 20
0.0
  9
$PLIMMAX
 10
12.0
 20
9.0
  9
$UNITMODE
 70
     0
  9
$VISRETAIN
 70
     1
  9
$PLINEGEN
 70
     0
  9
$PSLTSCALE
 70
     1
  9
$TREEDEPTH
 70
  3020
  9
$PICKSTYLE
 70
     1
  9
$CMLSTYLE
  2
STANDARD
  9
$CMLJUST
 70
     0
  9
$CMLSCALE
 40
1.0
  9
$PROXYGRAPHICS
 70
     1
  9
$MEASUREMENT
 70
     0
  0
ENDSEC
  0
SECTION
  2
CLASSES
  0
CLASS
  1
ACDBDICTIONARYWDFLT
  2
AcDbDictionaryWithDefault
  3
ObjectDBX Classes
 90
        0
280
     0
281
     0
  0
CLASS
  1
VISUALSTYLE
  2
AcDbVisualStyle
  3
ObjectDBX Classes
 90
     4095
280
     0
281
     0
  0
CLASS
  1
XRECORD
  2
AcDbXrecord
  3
AutoCAD 2000
 90
        0
280
     0
281
     0
  0
CLASS
  1
LWPOLYLINE
  2
AcDbPolyline
  3
AutoCAD 2000
 90
        0
280
     0
281
     1
  0
CLASS
  1
HATCH
  2
AcDbHatch
  3
AutoCAD 2000
 90
        0
280
     0
281
     1
  0
CLASS
  1
ACDBPLACEHOLDER
  2
AcDbPlaceHolder
  3
ObjectDBX Classes
 90
        0
280
     0
281
     0
  0
CLASS
  1
LAYOUT
  2
AcDbLayout
  3
ObjectDBX Classes
 90
        0
280
     0
281
     0
  0
ENDSEC
  0
SECTION
  2
TABLES
  0
TABLE
  2
VPORT
  5
8
330
0
100
AcDbSymbolTable
 70
     1
  0
VPORT
  5
29
330
8
100
AcDbSymbolTableRecord
100
AcDbViewportTableRecord
  2
*ACTIVE
 70
     0
 10
0.0
 20
0.0
 11
1.0
 21
1.0
 12
0.0
 22
0.0
 13
0.0
 23
0.0
 14
0.5
 24
0.5
 15
0.5
 25
0.5
 16
0.0
 26
0.0
 36
1.0
 17
101.3864709386061
 27
135.5391030523835
 37
0.0
 40
450.0000471840589
 41
1.333335374872531
 42
50.0
 43
0.0
 44
0.0
 50
0.0
 51
0.0
 71
     0
 72
   100
 73
     1
 74
     3
 75
     0
 76
     0
 77
     0
 78
     0
  0
ENDTAB
  0
TABLE
  2
LTYPE
  5
5
330
0
100
AcDbSymbolTable
 70
     1
  0
LTYPE
  5
14
330
5
100
AcDbSymbolTableRecord
100
AcDbLinetypeTableRecord
  2
BYBLOCK
 70
     0
  3

 72
    65
 73
     0
 40
0.0
  0
LTYPE
  5
15
330
5
100
AcDbSymbolTableRecord
100
AcDbLinetypeTableRecord
  2
BYLAYER
 70
     0
  3

 72
    65
 73
     0
 40
0.0
  0
LTYPE
  5
16
330
5
100
AcDbSymbolTableRecord
100
AcDbLinetypeTableRecord
  2
CONTINUOUS
 70
     0
  3
Solid line
 72
    65
 73
     0
 40
0.0
  0
ENDTAB
  0
TABLE
  2
LAYER
  5
2
330
0
100
AcDbSymbolTable
 70
    10
  0
LAYER
  5
10
330
2
100
AcDbSymbolTableRecord
100
AcDbLayerTableRecord
  2
0
 70
     0
 62
     7
  6
CONTINUOUS
  0
LAYER
  5
3B
330
2
100
AcDbSymbolTableRecord
100
AcDbLayerTableRecord
  2
2D
 70
     1
 62
     7
  6
CONTINUOUS
  0
LAYER
  5
3C
330
2
100
AcDbSymbolTableRecord
100
AcDbLayerTableRecord
  2
2DBLACK
 70
     1
 62
     7
  6
CONTINUOUS
  0
LAYER
  5
3D
330
2
100
AcDbSymbolTableRecord
100
AcDbLayerTableRecord
  2
Z_FOR_DREMEL
 70
     1
 62
     7
  6
CONTINUOUS
  0
LAYER
  5
3E
330
2
100
AcDbSymbolTableRecord
100
AcDbLayerTableRecord
  2
F_BASE
 70
     0
 62
     7
  6
CONTINUOUS
  0
LAYER
  5
176
330
2
100
AcDbSymbolTableRecord
100
AcDbLayerTableRecord
  2
E_-_EMBASE
 70
     1
 62
     7
  6
CONTINUOUS
  0
LAYER
  5
177
330
2
100
AcDbSymbolTableRecord
100
AcDbLayerTableRecord
  2
D_CHARIOT_Y_AXIS
 70
     1
 62
     7
  6
CONTINUOUS
  0
LAYER
  5
178
330
2
100
AcDbSymbolTableRecord
100
AcDbLayerTableRecord
  2
C_CHARIOT_Y_AXIS
 70
     1
 62
     7
  6
CONTINUOUS
  0
LAYER
  5
179
330
2
100
AcDbSymbolTableRecord
100
AcDbLayerTableRecord
  2
$DDT_AUDIT_GENERATED__179_
 70
     1
 62
     7
  6
CONTINUOUS
  0
LAYER
  5
17A
330
2
100
AcDbSymbolTableRecord
100
AcDbLayerTableRecord
  2
$DDT_AUDIT_GENERATED__17A_
 70
     1
 62
     7
  6
CONTINUOUS
  0
ENDTAB
  0
TABLE
  2
STYLE
  5
3
330
0
100
AcDbSymbolTable
 70
     1
  0
STYLE
  5
11
330
3
100
AcDbSymbolTableRecord
100
AcDbTextStyleTableRecord
  2
STANDARD
 70
     0
 40
0.0
 41
1.0
 50
0.0
 71
     0
 42
0.2
  3
txt
  4

  0
ENDTAB
  0
TABLE
  2
VIEW
  5
6
330
0
100
AcDbSymbolTable
 70
     0
  0
ENDTAB
  0
TABLE
  2
UCS
  5
7
330
0
100
AcDbSymbolTable
 70
     0
  0
ENDTAB
  0
TABLE
  2
APPID
  5
9
330
0
100
AcDbSymbolTable
 70
     1
  0
APPID
  5
12
330
9
100
AcDbSymbolTableRecord
100
AcDbRegAppTableRecord
  2
ACAD
 70
     0
  0
ENDTAB
  0
TABLE
  2
DIMSTYLE
  5
A
330
0
100
AcDbSymbolTable
 70
     1
  0
DIMSTYLE
105
27
330
A
100
AcDbSymbolTableRecord
100
AcDbDimStyleTableRecord
  2
STANDARD
 70
     0
  3

  4

  5

  6

  7

 40
1.0
 41
0.18
 42
0.0625
 43
0.38
 44
0.18
 45
0.0
 46
0.0
 47
0.0
 48
0.0
140
0.18
141
0.09
142
0.0
143
25.4
144
1.0
145
0.0
146
1.0
147
0.09
 71
     0
 72
     0
 73
     1
 74
     1
 75
     0
 76
     0
 77
     0
 78
     0
170
     0
171
     2
172
     0
173
     0
174
     0
175
     0
176
     0
177
     0
178
     0
270
     2
271
     4
272
     4
273
     2
274
     2
340
11
275
     0
280
     0
281
     0
282
     0
283
     1
284
     0
285
     0
286
     0
287
     3
288
     0
  0
ENDTAB
  0
TABLE
  2
BLOCK_RECORD
  5
1
330
0
100
AcDbSymbolTable
 70
     6
  0
BLOCK_RECORD
  5
1F
330
1
100
AcDbSymbolTableRecord
100
AcDbBlockTableRecord
  2
*MODEL_SPACE
  0
BLOCK_RECORD
  5
1B
330
1
100
AcDbSymbolTableRecord
100
AcDbBlockTableRecord
  2
*PAPER_SPACE
  0
BLOCK_RECORD
  5
3F
330
1
100
AcDbSymbolTableRecord
100
AcDbBlockTableRecord
  2
BLOCK_2
  0
BLOCK_RECORD
  5
C4
330
1
100
AcDbSymbolTableRecord
100
AcDbBlockTableRecord
  2
BLOCK_3
  0
BLOCK_RECORD
  5
F4
330
1
100
AcDbSymbolTableRecord
100
AcDbBlockTableRecord
  2
BLOCK_4
  0
BLOCK_RECORD
  5
F8
330
1
100
AcDbSymbolTableRecord
100
AcDbBlockTableRecord
  2
BLOCK_5
  0
BLOCK_RECORD
  5
FC
330
1
100
AcDbSymbolTableRecord
100
AcDbBlockTableRecord
  2
BLOCK_6
  0
ENDTAB
  0
ENDSEC
  0
SECTION
  2
BLOCKS
  0
BLOCK
  5
20
330
1F
100
AcDbEntity
  8
0
100
AcDbBlockBegin
  2
*MODEL_SPACE
 70
     0
 71
     0
 10
0.0
 20
0.0
 30
0.0
  3
*MODEL_SPACE
  1

  0
ENDBLK
  5
21
330
1F
100
AcDbEntity
  8
0
100
AcDbBlockEnd
  0
BLOCK
  5
1C
330
1B
100
AcDbEntity
 67
     1
  8
0
100
AcDbBlockBegin
  2
*PAPER_SPACE
 70
     0
 71
     0
 10
0.0
 20
0.0
 30
0.0
  3
*PAPER_SPACE
  1

  0
ENDBLK
  5
1D
330
1B
100
AcDbEntity
 67
     1
  8
0
100
AcDbBlockEnd
  0
BLOCK
  5
41
330
3F
100
AcDbEntity
  8
0
100
AcDbBlockBegin
  2
BLOCK_2
 70
     0
 71
     0
 10
0.0
 20
0.0
 30
0.0
  3
BLOCK_2
  1

  0
SPLINE
  5
43
330
3F
100
AcDbEntity
  8
F_BASE
 62
     1
100
AcDbSpline
210
0.0
220
0.0
230
1.0
 70
    11
 71
     3
 72
    17
 73
    13
 74
     0
 42
0.0000000001
 43
0.0000000001
 40
0.0
 40
0.0
 40
0.0
 40
0.0
 40
1.0
 40
1.0
 40
1.0
 40
2.0
 40
2.0
 40
2.0
 40
3.0
 40
3.0
 40
3.0
 40
4.0
 40
4.0
 40
4.0
 40
4.0
 10
-62.85374153535623
 20
196.812061481499
 30
0.0
 10
-64.51048904716001
 20
196.812061481499
 30
0.0
 10
-65.85373266298927
 20
195.4691623754456
 30
0.0
 10
-65.85373266298927
 20
193.812070353866
 30
0.0
 10
-65.85373266298927
 20
192.1553228420622
 30
0.0
 10
-64.51048904716001
 20
190.812079226233
 30
0.0
 10
-62.85374153535623
 20
190.812079226233
 30
0.0
 10
-61.19682176866456
 20
190.812079226233
 30
0.0
 10
-59.85375040772319
 20
192.1553228420622
 30
0.0
 10
-59.85375040772319
 20
193.812070353866
 30
0.0
 10
-59.85375040772319
 20
195.4691623754456
 30
0.0
 10
-61.19682176866456
 20
196.812061481499
 30
0.0
 10
-62.85374153535623
 20
196.812061481499
 30
0.0
  0
SPLINE
  5
44
330
3F
100
AcDbEntity
  8
F_BASE
 62
     1
100
AcDbSpline
210
0.0
220
0.0
230
1.0
 70
    11
 71
     3
 72
    17
 73
    13
 74
     0
 42
0.0000000001
 43
0.0000000001
 40
0.0
 40
0.0
 40
0.0
 40
0.0
 40
1.0
 40
1.0
 40
1.0
 40
2.0
 40
2.0
 40
2.0
 40
3.0
 40
3.0
 40
3.0
 40
4.0
 40
4.0
 40
4.0
 40
4.0
 10
-58.37700925377291
 20
-14.07356885104929
 30
0.0
 10
-60.03392902046459
 20
-14.07356885104929
 30
0.0
 10
-61.37717263629385
 20
-15.41715697665435
 30
0.0
 10
-61.37717263629385
 20
-17.07355997868233
 30
0.0
 10
-61.37717263629385
 20
-18.73030749048611
 30
0.0
 10
-60.03392902046459
 20
-20.07389561609117
 30
0.0
 10
-58.37700925377291
 20
-20.07389561609117
 30
0.0
 10
-56.72008948708124
 20
-20.07389561609117
 30
0.0
 10
-55.37701812613987
 20
-18.73030749048611
 30
0.0
 10
-55.37701812613987
 20
-17.07355997868233
 30
0.0
 10
-55.37701812613987
 20
-15.41715697665435
 30
0.0
 10
-56.72008948708124
 20
-14.07356885104929
 30
0.0
 10
-58.37700925377291
 20
-14.07356885104929
 30
0.0
  0
SPLINE
  5
45
330
3F
100
AcDbEntity
  8
F_BASE
 62
     1
100
AcDbSpline
210
0.0
220
0.0
230
1.0
 70
    11
 71
     3
 72
    17
 73
    13
 74
     0
 42
0.0000000001
 43
0.0000000001
 40
0.0
 40
0.0
 40
0.0
 40
0.0
 40
1.0
 40
1.0
 40
1.0
 40
2.0
 40
2.0
 40
2.0
 40
3.0
 40
3.0
 40
3.0
 40
4.0
 40
4.0
 40
4.0
 40
4.0
 10
-155.3770094720543
 20
183.9263623373949
 30
0.0
 10
-157.0341014936339
 20
183.9263623373949
 30
0.0
 10
-158.3770005996874
 20
182.5831187215657
 30
0.0
 10
-158.3770005996874
 20
180.9263712097619
 30
0.0
 10
-158.3770005996874
 20
179.2696236979581
 30
0.0
 10
-157.0341014936339
 20
177.9263800821288
 30
0.0
 10
-155.3770094720543
 20
177.9263800821288
 30
0.0
 10
-153.7202619602506
 20
177.9263800821288
 30
0.0
 10
-152.3770183444213
 20
179.2696236979581
 30
0.0
 10
-152.3770183444213
 20
180.9263712097619
 30
0.0
 10
-152.3770183444213
 20
182.5831187215657
 30
0.0
 10
-153.7202619602506
 20
183.9263623373949
 30
0.0
 10
-155.3770094720543
 20
183.9263623373949
 30
0.0
  0
SPLINE
  5
46
330
3F
100
AcDbEntity
  8
F_BASE
 62
     1
100
AcDbSpline
210
0.0
220
0.0
230
1.0
 70
    11
 71
     3
 72
    17
 73
    13
 74
     0
 42
0.0000000001
 43
0.0000000001
 40
0.0
 40
0.0
 40
0.0
 40
0.0
 40
1.0
 40
1.0
 40
1.0
 40
2.0
 40
2.0
 40
2.0
 40
3.0
 40
3.0
 40
3.0
 40
4.0
 40
4.0
 40
4.0
 40
4.0
 10
-160.2581962304223
 20
257.3317492858362
 30
0.0
 10
-161.6389914118134
 20
257.3317492858362
 30
0.0
 10
-162.7583036733751
 20
256.2124370242745
 30
0.0
 10
-162.7583036733751
 20
254.8316418428834
 30
0.0
 10
-162.7583036733751
 20
253.4508466614924
 30
0.0
 10
-161.6389914118134
 20
252.3318789097064
 30
0.0
 10
-160.2581962304223
 20
252.3318789097064
 30
0.0
 10
-158.8777455588071
 20
252.3318789097064
 30
0.0
 10
-157.7582610423574
 20
253.4508466614924
 30
0.0
 10
-157.7582610423574
 20
254.8316418428834
 30
0.0
 10
-157.7582610423574
 20
256.2124370242745
 30
0.0
 10
-158.8777455588071
 20
257.3317492858362
 30
0.0
 10
-160.2581962304223
 20
257.3317492858362
 30
0.0
  0
SPLINE
  5
47
330
3F
100
AcDbEntity
  8
F_BASE
 62
     1
100
AcDbSpline
210
0.0
220
0.0
230
1.0
 70
    11
 71
     3
 72
    17
 73
    13
 74
     0
 42
0.0000000001
 43
0.0000000001
 40
0.0
 40
0.0
 40
0.0
 40
0.0
 40
1.0
 40
1.0
 40
1.0
 40
2.0
 40
2.0
 40
2.0
 40
3.0
 40
3.0
 40
3.0
 40
4.0
 40
4.0
 40
4.0
 40
4.0
 10
-152.8538198741232
 20
196.812061481499
 30
0.0
 10
-154.5107396408148
 20
196.812061481499
 30
0.0
 10
-155.8538110017562
 20
195.4691623754456
 30
0.0
 10
-155.8538110017562
 20
193.812070353866
 30
0.0
 10
-155.8538110017562
 20
192.1553228420622
 30
0.0
 10
-154.5107396408148
 20
190.812079226233
 30
0.0
 10
-152.8538198741232
 20
190.812079226233
 30
0.0
 10
-151.1970723623194
 20
190.812079226233
 30
0.0
 10
-149.8538287464901
 20
192.1553228420622
 30
0.0
 10
-149.8538287464901
 20
193.812070353866
 30
0.0
 10
-149.8538287464901
 20
195.4691623754456
 30
0.0
 10
-151.1970723623194
 20
196.812061481499
 30
0.0
 10
-152.8538198741232
 20
196.812061481499
 30
0.0
  0
POLYLINE
  5
48
330
3F
100
AcDbEntity
  8
F_BASE
 62
     1
100
AcDb2dPolyline
 66
     1
 10
0.0
 20
0.0
 30
0.0
  0
VERTEX
  5
49
330
48
100
AcDbEntity
  8
F_BASE
 62
     1
100
AcDbVertex
100
AcDb2dVertex
 10
46.51037002647388
 20
229.8574391758675
 30
0.0
  0
VERTEX
  5
4A
330
48
100
AcDbEntity
  8
F_BASE
 62
     1
100
AcDbVertex
100
AcDb2dVertex
 10
46.51037002647388
 20
-0.1422825374038177
 30
0.0
  0
SEQEND
  5
4B
330
48
100
AcDbEntity
  8
F_BASE
  0
POLYLINE
  5
4C
330
3F
100
AcDbEntity
  8
F_BASE
 62
     1
100
AcDb2dPolyline
 66
     1
 10
0.0
 20
0.0
 30
0.0
  0
VERTEX
  5
4D
330
4C
100
AcDbEntity
  8
F_BASE
 62
     1
100
AcDbVertex
100
AcDb2dVertex
 10
258.5104894837228
 20
-0.1422825374038177
 30
0.0
  0
VERTEX
  5
4E
330
4C
100
AcDbEntity
  8
F_BASE
 62
     1
100
AcDbVertex
100
AcDb2dVertex
 10
258.5104894837228
 20
229.8574391758675
 30
0.0
  0
SEQEND
  5
4F
330
4C
100
AcDbEntity
  8
F_BASE
  0
POLYLINE
  5
50
330
3F
100
AcDbEntity
  8
F_BASE
 62
     1
100
AcDb2dPolyline
 66
     1
 10
0.0
 20
0.0
 30
0.0
  0
VERTEX
  5
51
330
50
100
AcDbEntity
  8
F_BASE
 62
     1
100
AcDbVertex
100
AcDb2dVertex
 10
126.4871086933392
 20
338.857576159569
 30
0.0
  0
VERTEX
  5
52
330
50
100
AcDbEntity
  8
F_BASE
 62
     1
100
AcDbVertex
100
AcDb2dVertex
 10
126.5108798678691
 20
277.0936912999439
 30
0.0
  0
SEQEND
  5
53
330
50
100
AcDbEntity
  8
F_BASE
  0
POLYLINE
  5
54
330
3F
100
AcDbEntity
  8
F_BASE
 62
     1
100
AcDb2dPolyline
 66
     1
 10
0.0
 20
0.0
 30
0.0
  0
VERTEX
  5
55
330
54
100
AcDbEntity
  8
F_BASE
 62
     1
100
AcDbVertex
100
AcDb2dVertex
 10
126.5108798678691
 20
277.117290219586
 30
0.0
  0
VERTEX
  5
56
330
54
100
AcDbEntity
  8
F_BASE
 62
     1
100
AcDbVertex
100
AcDb2dVertex
 10
46.51105904602547
 20
277.0936912999439
 30
0.0
  0
SEQEND
  5
57
330
54
100
AcDbEntity
  8
F_BASE
  0
POLYLINE
  5
58
330
3F
100
AcDbEntity
  8
F_BASE
 62
     1
100
AcDb2dPolyline
 66
     1
 10
0.0
 20
0.0
 30
0.0
  0
VERTEX
  5
59
330
58
100
AcDbEntity
  8
F_BASE
 62
     1
100
AcDbVertex
100
AcDb2dVertex
 10
46.51105904602547
 20
277.0936912999439
 30
0.0
  0
VERTEX
  5
5A
330
58
100
AcDbEntity
  8
F_BASE
 62
     1
100
AcDbVertex
100
AcDb2dVertex
 10
46.51105904602547
 20
338.857576159569
 30
0.0
  0
SEQEND
  5
5B
330
58
100
AcDbEntity
  8
F_BASE
  0
POLYLINE
  5
5C
330
3F
100
AcDbEntity
  8
F_BASE
 62
     1
100
AcDb2dPolyline
 66
     1
 10
0.0
 20
0.0
 30
0.0
  0
VERTEX
  5
5D
330
5C
100
AcDbEntity
  8
F_BASE
 62
     1
100
AcDbVertex
100
AcDb2dVertex
 10
126.3151983152169
 20
-27.38129247050371
 30
0.0
  0
VERTEX
  5
5E
330
5C
100
AcDbEntity
  8
F_BASE
 62
     1
100
AcDbVertex
100
AcDb2dVertex
 10
46.29367337749809
 20
-27.38129247050371
 30
0.0
  0
SEQEND
  5
5F
330
5C
100
AcDbEntity
  8
F_BASE
  0
SPLINE
  5
60
330
3F
100
AcDbEntity
  8
F_BASE
 62
     1
100
AcDbSpline
210
0.0
220
0.0
230
1.0
 70
    11
 71
     3
 72
    17
 73
    13
 74
     0
 42
0.0000000001
 43
0.0000000001
 40
0.0
 40
0.0
 40
0.0
 40
0.0
 40
1.0
 40
1.0
 40
1.0
 40
2.0
 40
2.0
 40
2.0
 40
3.0
 40
3.0
 40
3.0
 40
4.0
 40
4.0
 40
4.0
 40
4.0
 10
-112.7704519700147
 20
209.3291351655012
 30
0.0
 10
-114.1514194062937
 20
209.3291351655012
 30
0.0
 10
-115.2705594129675
 20
208.2098229039395
 30
0.0
 10
-115.2705594129675
 20
206.8290277225484
 30
0.0
 10
-115.2705594129675
 20
205.4482325411574
 30
0.0
 10
-114.1514194062937
 20
204.3289202795956
 30
0.0
 10
-112.7704519700147
 20
204.3289202795956
 30
0.0
 10
-111.3900012983995
 20
204.3289202795956
 30
0.0
 10
-110.2708612917256
 20
205.4482325411574
 30
0.0
 10
-110.2708612917256
 20
206.8290277225484
 30
0.0
 10
-110.2708612917256
 20
208.2098229039395
 30
0.0
 10
-111.3900012983995
 20
209.3291351655012
 30
0.0
 10
-112.7704519700147
 20
209.3291351655012
 30
0.0
  0
SPLINE
  5
61
330
3F
100
AcDbEntity
  8
F_BASE
 62
     1
100
AcDbSpline
210
0.0
220
0.0
230
1.0
 70
    11
 71
     3
 72
    17
 73
    13
 74
     0
 42
0.0000000001
 43
0.0000000001
 40
0.0
 40
0.0
 40
0.0
 40
0.0
 40
1.0
 40
1.0
 40
1.0
 40
2.0
 40
2.0
 40
2.0
 40
3.0
 40
3.0
 40
3.0
 40
4.0
 40
4.0
 40
4.0
 40
4.0
 10
-160.2581962304223
 20
209.3263790872949
 30
0.0
 10
-161.6389914118134
 20
209.3263790872949
 30
0.0
 10
-162.7583036733751
 20
208.2070668257331
 30
0.0
 10
-162.7583036733751
 20
206.8262716443421
 30
0.0
 10
-162.7583036733751
 20
205.4458209727268
 30
0.0
 10
-161.6389914118134
 20
204.3265087111651
 30
0.0
 10
-160.2581962304223
 20
204.3265087111651
 30
0.0
 10
-158.8777455588071
 20
204.3265087111651
 30
0.0
 10
-157.7582610423574
 20
205.4458209727268
 30
0.0
 10
-157.7582610423574
 20
206.8262716443421
 30
0.0
 10
-157.7582610423574
 20
208.2070668257331
 30
0.0
 10
-158.8777455588071
 20
209.3263790872949
 30
0.0
 10
-160.2581962304223
 20
209.3263790872949
 30
0.0
  0
SPLINE
  5
62
330
3F
100
AcDbEntity
  8
F_BASE
 62
     1
100
AcDbSpline
210
0.0
220
0.0
230
1.0
 70
    11
 71
     3
 72
    17
 73
    13
 74
     0
 42
0.0000000001
 43
0.0000000001
 40
0.0
 40
0.0
 40
0.0
 40
0.0
 40
1.0
 40
1.0
 40
1.0
 40
2.0
 40
2.0
 40
2.0
 40
3.0
 40
3.0
 40
3.0
 40
4.0
 40
4.0
 40
4.0
 40
4.0
 10
-155.3770094720543
 20
105.926420764048
 30
0.0
 10
-157.0341014936339
 20
105.926420764048
 30
0.0
 10
-158.3770005996874
 20
104.5831771482188
 30
0.0
 10
-158.3770005996874
 20
102.926429636415
 30
0.0
 10
-158.3770005996874
 20
101.2696821246112
 30
0.0
 10
-157.0341014936339
 20
99.92643850878196
 30
0.0
 10
-155.3770094720543
 20
99.92643850878196
 30
0.0
 10
-153.7202619602506
 20
99.92643850878196
 30
0.0
 10
-152.3770183444213
 20
101.2696821246112
 30
0.0
 10
-152.3770183444213
 20
102.926429636415
 30
0.0
 10
-152.3770183444213
 20
104.5831771482188
 30
0.0
 10
-153.7202619602506
 20
105.926420764048
 30
0.0
 10
-155.3770094720543
 20
105.926420764048
 30
0.0
  0
SPLINE
  5
63
330
3F
100
AcDbEntity
  8
F_BASE
 62
     1
100
AcDbSpline
210
0.0
220
0.0
230
1.0
 70
    11
 71
     3
 72
    17
 73
    13
 74
     0
 42
0.0000000001
 43
0.0000000001
 40
0.0
 40
0.0
 40
0.0
 40
0.0
 40
1.0
 40
1.0
 40
1.0
 40
2.0
 40
2.0
 40
2.0
 40
3.0
 40
3.0
 40
3.0
 40
4.0
 40
4.0
 40
4.0
 40
4.0
 10
-61.37717263629385
 20
105.926420764048
 30
0.0
 10
-63.03409240298552
 20
105.926420764048
 30
0.0
 10
-64.37716376392689
 20
104.5831771482188
 30
0.0
 10
-64.37716376392689
 20
102.926429636415
 30
0.0
 10
-64.37716376392689
 20
101.2696821246112
 30
0.0
 10
-63.03409240298552
 20
99.92643850878196
 30
0.0
 10
-61.37717263629385
 20
99.92643850878196
 30
0.0
 10
-59.72008061471428
 20
99.92643850878196
 30
0.0
 10
-58.37700925377291
 20
101.2696821246112
 30
0.0
 10
-58.37700925377291
 20
102.926429636415
 30
0.0
 10
-58.37700925377291
 20
104.5831771482188
 30
0.0
 10
-59.72008061471428
 20
105.926420764048
 30
0.0
 10
-61.37717263629385
 20
105.926420764048
 30
0.0
  0
SPLINE
  5
64
330
3F
100
AcDbEntity
  8
F_BASE
 62
     1
100
AcDbSpline
210
0.0
220
0.0
230
1.0
 70
    11
 71
     3
 72
    17
 73
    13
 74
     0
 42
0.0000000001
 43
0.0000000001
 40
0.0
 40
0.0
 40
0.0
 40
0.0
 40
1.0
 40
1.0
 40
1.0
 40
2.0
 40
2.0
 40
2.0
 40
3.0
 40
3.0
 40
3.0
 40
4.0
 40
4.0
 40
4.0
 40
4.0
 10
-61.37717263629385
 20
183.9263623373949
 30
0.0
 10
-63.03409240298552
 20
183.9263623373949
 30
0.0
 10
-64.37716376392689
 20
182.5831187215657
 30
0.0
 10
-64.37716376392689
 20
180.9263712097619
 30
0.0
 10
-64.37716376392689
 20
179.2696236979581
 30
0.0
 10
-63.03409240298552
 20
177.9263800821288
 30
0.0
 10
-61.37717263629385
 20
177.9263800821288
 30
0.0
 10
-59.72008061471428
 20
177.9263800821288
 30
0.0
 10
-58.37700925377291
 20
179.2696236979581
 30
0.0
 10
-58.37700925377291
 20
180.9263712097619
 30
0.0
 10
-58.37700925377291
 20
182.5831187215657
 30
0.0
 10
-59.72008061471428
 20
183.9263623373949
 30
0.0
 10
-61.37717263629385
 20
183.9263623373949
 30
0.0
  0
POLYLINE
  5
65
330
3F
100
AcDbEntity
  8
F_BASE
 62
     1
100
AcDb2dPolyline
 66
     1
 10
0.0
 20
0.0
 30
0.0
  0
VERTEX
  5
66
330
65
100
AcDbEntity
  8
F_BASE
 62
     1
100
AcDbVertex
100
AcDb2dVertex
 10
46.44491316907261
 20
-27.38129247050371
 30
0.0
  0
VERTEX
  5
67
330
65
100
AcDbEntity
  8
F_BASE
 62
     1
100
AcDbVertex
100
AcDb2dVertex
 10
46.44508542396051
 20
-58.14257035134362
 30
0.0
  0
SEQEND
  5
68
330
65
100
AcDbEntity
  8
F_BASE
  0
POLYLINE
  5
69
330
3F
100
AcDbEntity
  8
F_BASE
 62
     1
100
AcDb2dPolyline
 66
     1
 10
0.0
 20
0.0
 30
0.0
  0
VERTEX
  5
6A
330
69
100
AcDbEntity
  8
F_BASE
 62
     1
100
AcDbVertex
100
AcDb2dVertex
 10
356.6961200954067
 20
355.039200328715
 30
0.0
  0
VERTEX
  5
6B
330
69
100
AcDbEntity
  8
F_BASE
 62
     1
100
AcDbVertex
100
AcDb2dVertex
 10
356.6961200954067
 20
-83.9608219690601
 30
0.0
  0
SEQEND
  5
6C
330
69
100
AcDbEntity
  8
F_BASE
  0
POLYLINE
  5
6D
330
3F
100
AcDbEntity
  8
F_BASE
 62
     1
100
AcDb2dPolyline
 66
     1
 10
0.0
 20
0.0
 30
0.0
  0
VERTEX
  5
6E
330
6D
100
AcDbEntity
  8
F_BASE
 62
     1
100
AcDbVertex
100
AcDb2dVertex
 10
356.6961200954067
 20
-83.9608219690601
 30
0.0
  0
VERTEX
  5
6F
330
6D
100
AcDbEntity
  8
F_BASE
 62
     1
100
AcDbVertex
100
AcDb2dVertex
 10
-169.3358565677635
 20
-83.9608219690601
 30
0.0
  0
SEQEND
  5
70
330
6D
100
AcDbEntity
  8
F_BASE
  0
POLYLINE
  5
71
330
3F
100
AcDbEntity
  8
F_BASE
 62
     1
100
AcDb2dPolyline
 66
     1
 10
0.0
 20
0.0
 30
0.0
  0
VERTEX
  5
72
330
71
100
AcDbEntity
  8
F_BASE
 62
     1
100
AcDbVertex
100
AcDb2dVertex
 10
-169.3358565677635
 20
355.039200328715
 30
0.0
  0
VERTEX
  5
73
330
71
100
AcDbEntity
  8
F_BASE
 62
     1
100
AcDbVertex
100
AcDb2dVertex
 10
356.6961200954067
 20
355.039200328715
 30
0.0
  0
SEQEND
  5
74
330
71
100
AcDbEntity
  8
F_BASE
  0
SPLINE
  5
75
330
3F
100
AcDbEntity
  8
F_BASE
 62
     1
100
AcDbSpline
210
0.0
220
0.0
230
1.0
 70
    11
 71
     3
 72
    17
 73
    13
 74
     0
 42
0.0000000001
 43
0.0000000001
 40
0.0
 40
0.0
 40
0.0
 40
0.0
 40
1.0
 40
1.0
 40
1.0
 40
2.0
 40
2.0
 40
2.0
 40
3.0
 40
3.0
 40
3.0
 40
4.0
 40
4.0
 40
4.0
 40
4.0
 10
330.5102765469157
 20
41.03903802216702
 30
0.0
 10
328.8538735448877
 20
41.03903802216702
 30
0.0
 10
327.5102854192827
 20
39.69579440633776
 30
0.0
 10
327.5102854192827
 20
38.03904689453398
 30
0.0
 10
327.5102854192827
 20
36.38229938273021
 30
0.0
 10
328.8538735448877
 20
35.03905576690094
 30
0.0
 10
330.5102765469157
 20
35.03905576690094
 30
0.0
 10
332.1673685684953
 20
35.03905576690094
 30
0.0
 10
333.5102676745487
 20
36.38229938273021
 30
0.0
 10
333.5102676745487
 20
38.03904689453398
 30
0.0
 10
333.5102676745487
 20
39.69579440633776
 30
0.0
 10
332.1673685684953
 20
41.03903802216702
 30
0.0
 10
330.5102765469157
 20
41.03903802216702
 30
0.0
  0
SPLINE
  5
76
330
3F
100
AcDbEntity
  8
F_BASE
 62
     1
100
AcDbSpline
210
0.0
220
0.0
230
1.0
 70
    11
 71
     3
 72
    17
 73
    13
 74
     0
 42
0.0000000001
 43
0.0000000001
 40
0.0
 40
0.0
 40
0.0
 40
0.0
 40
1.0
 40
1.0
 40
1.0
 40
2.0
 40
2.0
 40
2.0
 40
3.0
 40
3.0
 40
3.0
 40
4.0
 40
4.0
 40
4.0
 40
4.0
 10
-56.25810187773858
 20
209.3315467339318
 30
0.0
 10
-57.63906931401752
 20
209.3315467339318
 30
0.0
 10
-58.75820932069137
 20
208.2122344723701
 30
0.0
 10
-58.75820932069137
 20
206.8317838007548
 30
0.0
 10
-58.75820932069137
 20
205.4509886193638
 30
0.0
 10
-57.63906931401752
 20
204.331676357802
 30
0.0
 10
-56.25810187773858
 20
204.331676357802
 30
0.0
 10
-54.87747895123543
 20
204.331676357802
 30
0.0
 10
-53.75833894456157
 20
205.4509886193638
 30
0.0
 10
-53.75833894456157
 20
206.8317838007548
 30
0.0
 10
-53.75833894456157
 20
208.2122344723701
 30
0.0
 10
-54.87747895123543
 20
209.3315467339318
 30
0.0
 10
-56.25810187773858
 20
209.3315467339318
 30
0.0
  0
SPLINE
  5
77
330
3F
100
AcDbEntity
  8
F_BASE
 62
     1
100
AcDbSpline
210
0.0
220
0.0
230
1.0
 70
    11
 71
     3
 72
    17
 73
    13
 74
     0
 42
0.0000000001
 43
0.0000000001
 40
0.0
 40
0.0
 40
0.0
 40
0.0
 40
1.0
 40
1.0
 40
1.0
 40
2.0
 40
2.0
 40
2.0
 40
3.0
 40
3.0
 40
3.0
 40
4.0
 40
4.0
 40
4.0
 40
4.0
 10
-112.7704519700147
 20
257.3289932076298
 30
0.0
 10
-114.1514194062937
 20
257.3289932076298
 30
0.0
 10
-115.2705594129675
 20
256.2096809460681
 30
0.0
 10
-115.2705594129675
 20
254.8292302744528
 30
0.0
 10
-115.2705594129675
 20
253.4484350930618
 30
0.0
 10
-114.1514194062937
 20
252.3291228315001
 30
0.0
 10
-112.7704519700147
 20
252.3291228315001
 30
0.0
 10
-111.3900012983995
 20
252.3291228315001
 30
0.0
 10
-110.2708612917256
 20
253.4484350930618
 30
0.0
 10
-110.2708612917256
 20
254.8292302744528
 30
0.0
 10
-110.2708612917256
 20
256.2096809460681
 30
0.0
 10
-111.3900012983995
 20
257.3289932076298
 30
0.0
 10
-112.7704519700147
 20
257.3289932076298
 30
0.0
  0
SPLINE
  5
78
330
3F
100
AcDbEntity
  8
F_BASE
 62
     1
100
AcDbSpline
210
0.0
220
0.0
230
1.0
 70
    11
 71
     3
 72
    17
 73
    13
 74
     0
 42
0.0000000001
 43
0.0000000001
 40
0.0
 40
0.0
 40
0.0
 40
0.0
 40
1.0
 40
1.0
 40
1.0
 40
2.0
 40
2.0
 40
2.0
 40
3.0
 40
3.0
 40
3.0
 40
4.0
 40
4.0
 40
4.0
 40
4.0
 10
-104.7705904662519
 20
257.3289932076298
 30
0.0
 10
-106.1513856476429
 20
257.3289932076298
 30
0.0
 10
-107.2708701640926
 20
256.2096809460681
 30
0.0
 10
-107.2708701640926
 20
254.8292302744528
 30
0.0
 10
-107.2708701640926
 20
253.4484350930618
 30
0.0
 10
-106.1513856476429
 20
252.3291228315001
 30
0.0
 10
-104.7705904662519
 20
252.3291228315001
 30
0.0
 10
-103.3897952848608
 20
252.3291228315001
 30
0.0
 10
-102.2704830232991
 20
253.4484350930618
 30
0.0
 10
-102.2704830232991
 20
254.8292302744528
 30
0.0
 10
-102.2704830232991
 20
256.2096809460681
 30
0.0
 10
-103.3897952848608
 20
257.3289932076298
 30
0.0
 10
-104.7705904662519
 20
257.3289932076298
 30
0.0
  0
SPLINE
  5
79
330
3F
100
AcDbEntity
  8
F_BASE
 62
     1
100
AcDbSpline
210
0.0
220
0.0
230
1.0
 70
    11
 71
     3
 72
    17
 73
    13
 74
     0
 42
0.0000000001
 43
0.0000000001
 40
0.0
 40
0.0
 40
0.0
 40
0.0
 40
1.0
 40
1.0
 40
1.0
 40
2.0
 40
2.0
 40
2.0
 40
3.0
 40
3.0
 40
3.0
 40
4.0
 40
4.0
 40
4.0
 40
4.0
 10
-56.25810187773858
 20
257.3265816391993
 30
0.0
 10
-57.63906931401752
 20
257.3265816391993
 30
0.0
 10
-58.75820932069137
 20
256.2072693776375
 30
0.0
 10
-58.75820932069137
 20
254.8264741962465
 30
0.0
 10
-58.75820932069137
 20
253.4456790148554
 30
0.0
 10
-57.63906931401752
 20
252.3263667532937
 30
0.0
 10
-56.25810187773858
 20
252.3263667532937
 30
0.0
 10
-54.87747895123543
 20
252.3263667532937
 30
0.0
 10
-53.75833894456157
 20
253.4456790148554
 30
0.0
 10
-53.75833894456157
 20
254.8264741962465
 30
0.0
 10
-53.75833894456157
 20
256.2072693776375
 30
0.0
 10
-54.87747895123543
 20
257.3265816391993
 30
0.0
 10
-56.25810187773858
 20
257.3265816391993
 30
0.0
  0
SPLINE
  5
7A
330
3F
100
AcDbEntity
  8
F_BASE
 62
     1
100
AcDbSpline
210
0.0
220
0.0
230
1.0
 70
    11
 71
     3
 72
    17
 73
    13
 74
     0
 42
0.0000000001
 43
0.0000000001
 40
0.0
 40
0.0
 40
0.0
 40
0.0
 40
1.0
 40
1.0
 40
1.0
 40
2.0
 40
2.0
 40
2.0
 40
3.0
 40
3.0
 40
3.0
 40
4.0
 40
4.0
 40
4.0
 40
4.0
 10
-104.7705904662519
 20
209.3291351655012
 30
0.0
 10
-106.1513856476429
 20
209.3291351655012
 30
0.0
 10
-107.2708701640926
 20
208.2098229039395
 30
0.0
 10
-107.2708701640926
 20
206.8290277225484
 30
0.0
 10
-107.2708701640926
 20
205.4482325411574
 30
0.0
 10
-106.1513856476429
 20
204.3289202795956
 30
0.0
 10
-104.7705904662519
 20
204.3289202795956
 30
0.0
 10
-103.3897952848608
 20
204.3289202795956
 30
0.0
 10
-102.2704830232991
 20
205.4482325411574
 30
0.0
 10
-102.2704830232991
 20
206.8290277225484
 30
0.0
 10
-102.2704830232991
 20
208.2098229039395
 30
0.0
 10
-103.3897952848608
 20
209.3291351655012
 30
0.0
 10
-104.7705904662519
 20
209.3291351655012
 30
0.0
  0
POLYLINE
  5
7B
330
3F
100
AcDbEntity
  8
F_BASE
 62
     1
100
AcDb2dPolyline
 66
     1
 10
0.0
 20
0.0
 30
0.0
  0
VERTEX
  5
7C
330
7B
100
AcDbEntity
  8
F_BASE
 62
     1
100
AcDbVertex
100
AcDb2dVertex
 10
258.5104894837228
 20
229.8574391758675
 30
0.0
  0
VERTEX
  5
7D
330
7B
100
AcDbEntity
  8
F_BASE
 62
     1
100
AcDbVertex
100
AcDb2dVertex
 10
46.51037002647388
 20
229.8574391758675
 30
0.0
  0
SEQEND
  5
7E
330
7B
100
AcDbEntity
  8
F_BASE
  0
POLYLINE
  5
7F
330
3F
100
AcDbEntity
  8
F_BASE
 62
     1
100
AcDb2dPolyline
 66
     1
 10
0.0
 20
0.0
 30
0.0
  0
VERTEX
  5
80
330
7F
100
AcDbEntity
  8
F_BASE
 62
     1
100
AcDbVertex
100
AcDb2dVertex
 10
46.51037002647388
 20
-0.1422825374038177
 30
0.0
  0
VERTEX
  5
81
330
7F
100
AcDbEntity
  8
F_BASE
 62
     1
100
AcDbVertex
100
AcDb2dVertex
 10
258.5104894837228
 20
-0.1422825374038177
 30
0.0
  0
SEQEND
  5
82
330
7F
100
AcDbEntity
  8
F_BASE
  0
SPLINE
  5
83
330
3F
100
AcDbEntity
  8
F_BASE
 62
     1
100
AcDbSpline
210
0.0
220
0.0
230
1.0
 70
    11
 71
     3
 72
    17
 73
    13
 74
     0
 42
0.0000000001
 43
0.0000000001
 40
0.0
 40
0.0
 40
0.0
 40
0.0
 40
1.0
 40
1.0
 40
1.0
 40
2.0
 40
2.0
 40
2.0
 40
3.0
 40
3.0
 40
3.0
 40
4.0
 40
4.0
 40
4.0
 40
4.0
 10
330.5102765469157
 20
226.0392373307186
 30
0.0
 10
328.8538735448877
 20
226.0392373307186
 30
0.0
 10
327.5102854192827
 20
224.6959937148893
 30
0.0
 10
327.5102854192827
 20
223.0392462030856
 30
0.0
 10
327.5102854192827
 20
221.3823264363939
 30
0.0
 10
328.8538735448877
 20
220.0392550754525
 30
0.0
 10
330.5102765469157
 20
220.0392550754525
 30
0.0
 10
332.1673685684953
 20
220.0392550754525
 30
0.0
 10
333.5102676745487
 20
221.3823264363939
 30
0.0
 10
333.5102676745487
 20
223.0392462030856
 30
0.0
 10
333.5102676745487
 20
224.6959937148893
 30
0.0
 10
332.1673685684953
 20
226.0392373307186
 30
0.0
 10
330.5102765469157
 20
226.0392373307186
 30
0.0
  0
POLYLINE
  5
84
330
3F
100
AcDbEntity
  8
F_BASE
 62
     1
100
AcDb2dPolyline
 66
     1
 10
0.0
 20
0.0
 30
0.0
  0
VERTEX
  5
85
330
84
100
AcDbEntity
  8
F_BASE
 62
     1
100
AcDbVertex
100
AcDb2dVertex
 10
-169.3358565677635
 20
-83.9608219690601
 30
0.0
  0
VERTEX
  5
86
330
84
100
AcDbEntity
  8
F_BASE
 62
     1
100
AcDbVertex
100
AcDb2dVertex
 10
-169.3358565677635
 20
355.039200328715
 30
0.0
  0
SEQEND
  5
87
330
84
100
AcDbEntity
  8
F_BASE
  0
POLYLINE
  5
88
330
3F
100
AcDbEntity
  8
F_BASE
 62
     1
100
AcDb2dPolyline
 66
     1
 10
0.0
 20
0.0
 30
0.0
  0
VERTEX
  5
89
330
88
100
AcDbEntity
  8
F_BASE
 62
     1
100
AcDbVertex
100
AcDb2dVertex
 10
126.446801049571
 20
-58.14257035134362
 30
0.0
  0
VERTEX
  5
8A
330
88
100
AcDbEntity
  8
F_BASE
 62
     1
100
AcDbVertex
100
AcDb2dVertex
 10
126.3151983152169
 20
-27.38129247050371
 30
0.0
  0
SEQEND
  5
8B
330
88
100
AcDbEntity
  8
F_BASE
  0
POLYLINE
  5
8C
330
3F
100
AcDbEntity
  8
F_BASE
 62
     1
100
AcDb2dPolyline
 66
     1
 10
0.0
 20
0.0
 30
0.0
  0
VERTEX
  5
8D
330
8C
100
AcDbEntity
  8
F_BASE
 62
     1
100
AcDbVertex
100
AcDb2dVertex
 10
46.51105904602547
 20
338.857576159569
 30
0.0
  0
VERTEX
  5
8E
330
8C
100
AcDbEntity
  8
F_BASE
 62
     1
100
AcDbVertex
100
AcDb2dVertex
 10
126.4871086933392
 20
338.857576159569
 30
0.0
  0
SEQEND
  5
8F
330
8C
100
AcDbEntity
  8
F_BASE
  0
POLYLINE
  5
90
330
3F
100
AcDbEntity
  8
F_BASE
 62
     1
100
AcDb2dPolyline
 66
     1
 10
0.0
 20
0.0
 30
0.0
  0
VERTEX
  5
91
330
90
100
AcDbEntity
  8
F_BASE
 62
     1
100
AcDbVertex
100
AcDb2dVertex
 10
46.44508542396051
 20
-58.14257035134362
 30
0.0
  0
VERTEX
  5
92
330
90
100
AcDbEntity
  8
F_BASE
 62
     1
100
AcDbVertex
100
AcDb2dVertex
 10
126.446801049571
 20
-58.14257035134362
 30
0.0
  0
SEQEND
  5
93
330
90
100
AcDbEntity
  8
F_BASE
  0
SPLINE
  5
94
330
3F
100
AcDbEntity
  8
F_BASE
 62
     1
100
AcDbSpline
210
0.0
220
0.0
230
1.0
 70
    11
 71
     3
 72
    17
 73
    13
 74
     0
 42
0.0000000001
 43
0.0000000001
 40
0.0
 40
0.0
 40
0.0
 40
0.0
 40
1.0
 40
1.0
 40
1.0
 40
2.0
 40
2.0
 40
2.0
 40
3.0
 40
3.0
 40
3.0
 40
4.0
 40
4.0
 40
4.0
 40
4.0
 10
-95.34135790271075
 20
312.8432984794245
 30
0.0
 10
-96.99810541451453
 20
312.8432984794245
 30
0.0
 10
-98.34134903034379
 20
311.500399373371
 30
0.0
 10
-98.34134903034379
 20
309.8433073517915
 30
0.0
 10
-98.34134903034379
 20
308.1865598399877
 30
0.0
 10
-96.99810541451453
 20
306.8433162241584
 30
0.0
 10
-95.34135790271075
 20
306.8433162241584
 30
0.0
 10
-93.68461039090697
 20
306.8433162241584
 30
0.0
 10
-92.3413667750777
 20
308.1865598399877
 30
0.0
 10
-92.3413667750777
 20
309.8433073517915
 30
0.0
 10
-92.3413667750777
 20
311.500399373371
 30
0.0
 10
-93.68461039090697
 20
312.8432984794245
 30
0.0
 10
-95.34135790271075
 20
312.8432984794245
 30
0.0
  0
SPLINE
  5
95
330
3F
100
AcDbEntity
  8
F_BASE
 62
     1
100
AcDbSpline
210
0.0
220
0.0
230
1.0
 70
    11
 71
     3
 72
    17
 73
    13
 74
     0
 42
0.0000000001
 43
0.0000000001
 40
0.0
 40
0.0
 40
0.0
 40
0.0
 40
1.0
 40
1.0
 40
1.0
 40
2.0
 40
2.0
 40
2.0
 40
3.0
 40
3.0
 40
3.0
 40
4.0
 40
4.0
 40
4.0
 40
4.0
 10
330.5102765469157
 20
-28.96086979252914
 30
0.0
 10
328.8538735448877
 20
-28.96086979252914
 30
0.0
 10
327.5102854192827
 20
-30.3044579181342
 30
0.0
 10
327.5102854192827
 20
-31.96086092016218
 30
0.0
 10
327.5102854192827
 20
-33.61760843196596
 30
0.0
 10
328.8538735448877
 20
-34.96119655757101
 30
0.0
 10
330.5102765469157
 20
-34.96119655757101
 30
0.0
 10
332.1673685684953
 20
-34.96119655757101
 30
0.0
 10
333.5102676745487
 20
-33.61760843196596
 30
0.0
 10
333.5102676745487
 20
-31.96086092016218
 30
0.0
 10
333.5102676745487
 20
-30.3044579181342
 30
0.0
 10
332.1673685684953
 20
-28.96086979252914
 30
0.0
 10
330.5102765469157
 20
-28.96086979252914
 30
0.0
  0
POLYLINE
  5
96
330
3F
100
AcDbEntity
  8
F_BASE
 62
     3
100
AcDb2dPolyline
 66
     1
 10
0.0
 20
0.0
 30
0.0
  0
VERTEX
  5
97
330
96
100
AcDbEntity
  8
F_BASE
 62
     3
100
AcDbVertex
100
AcDb2dVertex
 10
146.5103613723883
 20
0.0392741144407633
 30
0.0
  0
VERTEX
  5
98
330
96
100
AcDbEntity
  8
F_BASE
 62
     3
100
AcDbVertex
100
AcDb2dVertex
 10
146.5103613723883
 20
-83.9608219690601
 30
0.0
  0
SEQEND
  5
99
330
96
100
AcDbEntity
  8
F_BASE
  0
POLYLINE
  5
9A
330
3F
100
AcDbEntity
  8
F_BASE
 62
     3
100
AcDb2dPolyline
 66
     1
 10
0.0
 20
0.0
 30
0.0
  0
VERTEX
  5
9B
330
9A
100
AcDbEntity
  8
F_BASE
 62
     3
100
AcDbVertex
100
AcDb2dVertex
 10
300.6957115299637
 20
-83.9608219690601
 30
0.0
  0
VERTEX
  5
9C
330
9A
100
AcDbEntity
  8
F_BASE
 62
     3
100
AcDbVertex
100
AcDb2dVertex
 10
300.6957115299637
 20
355.039200328715
 30
0.0
  0
SEQEND
  5
9D
330
9A
100
AcDbEntity
  8
F_BASE
  0
POLYLINE
  5
9E
330
3F
100
AcDbEntity
  8
F_BASE
 62
     3
100
AcDb2dPolyline
 66
     1
 10
0.0
 20
0.0
 30
0.0
  0
VERTEX
  5
9F
330
9E
100
AcDbEntity
  8
F_BASE
 62
     3
100
AcDbVertex
100
AcDb2dVertex
 10
146.5103613723883
 20
230.0391680826
 30
0.0
  0
VERTEX
  5
A0
330
9E
100
AcDbEntity
  8
F_BASE
 62
     3
100
AcDbVertex
100
AcDb2dVertex
 10
146.5103613723883
 20
355.039200328715
 30
0.0
  0
SEQEND
  5
A1
330
9E
100
AcDbEntity
  8
F_BASE
  0
POLYLINE
  5
A2
330
3F
100
AcDbEntity
  8
F_BASE
 62
     3
100
AcDb2dPolyline
 66
     1
 10
0.0
 20
0.0
 30
0.0
  0
VERTEX
  5
A3
330
A2
100
AcDbEntity
  8
F_BASE
 62
     3
100
AcDbVertex
100
AcDb2dVertex
 10
298.6961767912427
 20
-83.9608219690601
 30
0.0
  0
VERTEX
  5
A4
330
A2
100
AcDbEntity
  8
F_BASE
 62
     3
100
AcDbVertex
100
AcDb2dVertex
 10
298.6961767912427
 20
355.039200328715
 30
0.0
  0
SEQEND
  5
A5
330
A2
100
AcDbEntity
  8
F_BASE
  0
POLYLINE
  5
A6
330
3F
100
AcDbEntity
  8
F_BASE
 62
     3
100
AcDb2dPolyline
 66
     1
 10
0.0
 20
0.0
 30
0.0
  0
VERTEX
  5
A7
330
A6
100
AcDbEntity
  8
F_BASE
 62
     3
100
AcDbVertex
100
AcDb2dVertex
 10
-43.34001881470963
 20
-83.9608219690601
 30
0.0
  0
VERTEX
  5
A8
330
A6
100
AcDbEntity
  8
F_BASE
 62
     3
100
AcDbVertex
100
AcDb2dVertex
 10
-43.34001881470963
 20
355.039200328715
 30
0.0
  0
SEQEND
  5
A9
330
A6
100
AcDbEntity
  8
F_BASE
  0
POLYLINE
  5
AA
330
3F
100
AcDbEntity
  8
F_BASE
 62
     3
100
AcDb2dPolyline
 66
     1
 10
0.0
 20
0.0
 30
0.0
  0
VERTEX
  5
AB
330
AA
100
AcDbEntity
  8
F_BASE
 62
     3
100
AcDbVertex
100
AcDb2dVertex
 10
-41.34065633087657
 20
-83.9608219690601
 30
0.0
  0
VERTEX
  5
AC
330
AA
100
AcDbEntity
  8
F_BASE
 62
     3
100
AcDbVertex
100
AcDb2dVertex
 10
-41.34065633087657
 20
355.039200328715
 30
0.0
  0
SEQEND
  5
AD
330
AA
100
AcDbEntity
  8
F_BASE
  0
POLYLINE
  5
AE
330
3F
100
AcDbEntity
  8
F_BASE
 62
     3
100
AcDb2dPolyline
 66
     1
 10
0.0
 20
0.0
 30
0.0
  0
VERTEX
  5
AF
330
AE
100
AcDbEntity
  8
F_BASE
 62
     3
100
AcDbVertex
100
AcDb2dVertex
 10
258.5104894837228
 20
117.5391562865853
 30
0.0
  0
VERTEX
  5
B0
330
AE
100
AcDbEntity
  8
F_BASE
 62
     3
100
AcDbVertex
100
AcDb2dVertex
 10
298.6961767912427
 20
117.5391562865853
 30
0.0
  0
SEQEND
  5
B1
330
AE
100
AcDbEntity
  8
F_BASE
  0
POLYLINE
  5
B2
330
3F
100
AcDbEntity
  8
F_BASE
 62
     3
100
AcDb2dPolyline
 66
     1
 10
0.0
 20
0.0
 30
0.0
  0
VERTEX
  5
B3
330
B2
100
AcDbEntity
  8
F_BASE
 62
     3
100
AcDbVertex
100
AcDb2dVertex
 10
46.51037002647388
 20
117.5391562865853
 30
0.0
  0
VERTEX
  5
B4
330
B2
100
AcDbEntity
  8
F_BASE
 62
     3
100
AcDbVertex
100
AcDb2dVertex
 10
-41.34065633087657
 20
117.5391562865853
 30
0.0
  0
SEQEND
  5
B5
330
B2
100
AcDbEntity
  8
F_BASE
  0
POLYLINE
  5
B6
330
3F
100
AcDbEntity
  8
F_BASE
 62
     1
100
AcDb2dPolyline
 66
     1
 10
0.0
 20
0.0
 30
0.0
  0
VERTEX
  5
B7
330
B6
100
AcDbEntity
  8
F_BASE
 62
     1
100
AcDbVertex
100
AcDb2dVertex
 10
-100.1390010404482
 20
-47.17131203133883
 30
0.0
  0
VERTEX
  5
B8
330
B6
100
AcDbEntity
  8
F_BASE
 62
     1
100
AcDbVertex
100
AcDb2dVertex
 10
-100.1390010404482
 20
-44.17132090370579
 30
0.0
  0
VERTEX
  5
B9
330
B6
100
AcDbEntity
  8
F_BASE
 62
     1
100
AcDbVertex
100
AcDb2dVertex
 10
-110.1390863024836
 20
-44.17132090370579
 30
0.0
  0
VERTEX
  5
BA
330
B6
100
AcDbEntity
  8
F_BASE
 62
     1
100
AcDbVertex
100
AcDb2dVertex
 10
-110.1390863024836
 20
-47.17131203133883
 30
0.0
  0
VERTEX
  5
BB
330
B6
100
AcDbEntity
  8
F_BASE
 62
     1
100
AcDbVertex
100
AcDb2dVertex
 10
-100.1390010404482
 20
-47.17131203133883
 30
0.0
  0
SEQEND
  5
BC
330
B6
100
AcDbEntity
  8
F_BASE
  0
POLYLINE
  5
BD
330
3F
100
AcDbEntity
  8
F_BASE
 62
     1
100
AcDb2dPolyline
 66
     1
 10
0.0
 20
0.0
 30
0.0
  0
VERTEX
  5
BE
330
BD
100
AcDbEntity
  8
F_BASE
 62
     1
100
AcDbVertex
100
AcDb2dVertex
 10
-100.1390010404482
 20
84.82898660406646
 30
0.0
  0
VERTEX
  5
BF
330
BD
100
AcDbEntity
  8
F_BASE
 62
     1
100
AcDbVertex
100
AcDb2dVertex
 10
-100.1390010404482
 20
87.82932224147528
 30
0.0
  0
VERTEX
  5
C0
330
BD
100
AcDbEntity
  8
F_BASE
 62
     1
100
AcDbVertex
100
AcDb2dVertex
 10
-110.1390863024836
 20
87.82932224147528
 30
0.0
  0
VERTEX
  5
C1
330
BD
100
AcDbEntity
  8
F_BASE
 62
     1
100
AcDbVertex
100
AcDb2dVertex
 10
-110.1390863024836
 20
84.82898660406646
 30
0.0
  0
VERTEX
  5
C2
330
BD
100
AcDbEntity
  8
F_BASE
 62
     1
100
AcDbVertex
100
AcDb2dVertex
 10
-100.1390010404482
 20
84.82898660406646
 30
0.0
  0
SEQEND
  5
C3
330
BD
100
AcDbEntity
  8
F_BASE
  0
INSERT
  5
C5
330
3F
100
AcDbEntity
  8
F_BASE
100
AcDbBlockReference
  2
BLOCK_3
 10
0.0
 20
0.0
 30
0.0
  0
ENDBLK
  5
42
330
3F
100
AcDbEntity
  8
0
100
AcDbBlockEnd
  0
BLOCK
  5
C6
330
C4
100
AcDbEntity
  8
0
100
AcDbBlockBegin
  2
BLOCK_3
 70
     0
 71
     0
 10
0.0
 20
0.0
 30
0.0
  3
BLOCK_3
  1

  0
POLYLINE
  5
C8
330
C4
100
AcDbEntity
  8
F_BASE
100
AcDb2dPolyline
 66
     1
 10
0.0
 20
0.0
 30
0.0
  0
VERTEX
  5
C9
330
C8
100
AcDbEntity
  8
F_BASE
100
AcDbVertex
100
AcDb2dVertex
 10
-36.26430478452002
 20
260.1782613083521
 30
0.0
  0
VERTEX
  5
CA
330
C8
100
AcDbEntity
  8
F_BASE
100
AcDbVertex
100
AcDb2dVertex
 10
-34.7283079491328
 20
260.1782613083521
 30
0.0
  0
VERTEX
  5
CB
330
C8
100
AcDbEntity
  8
F_BASE
100
AcDbVertex
100
AcDb2dVertex
 10
-34.7283079491328
 20
259.8694082943508
 30
0.0
  0
VERTEX
  5
CC
330
C8
100
AcDbEntity
  8
F_BASE
100
AcDbVertex
100
AcDb2dVertex
 10
-35.89206197177226
 20
259.8694082943508
 30
0.0
  0
VERTEX
  5
CD
330
C8
100
AcDbEntity
  8
F_BASE
100
AcDbVertex
100
AcDb2dVertex
 10
-35.89206197177226
 20
258.9216619011356
 30
0.0
  0
VERTEX
  5
CE
330
C8
100
AcDbEntity
  8
F_BASE
100
AcDbVertex
100
AcDb2dVertex
 10
-34.81719147128821
 20
258.9216619011356
 30
0.0
  0
VERTEX
  5
CF
330
C8
100
AcDbEntity
  8
F_BASE
100
AcDbVertex
100
AcDb2dVertex
 10
-34.81719147128821
 20
258.6169430044438
 30
0.0
  0
VERTEX
  5
D0
330
C8
100
AcDbEntity
  8
F_BASE
100
AcDbVertex
100
AcDb2dVertex
 10
-35.89206197177226
 20
258.6169430044438
 30
0.0
  0
VERTEX
  5
D1
330
C8
100
AcDbEntity
  8
F_BASE
100
AcDbVertex
100
AcDb2dVertex
 10
-35.89206197177226
 20
257.3265816391993
 30
0.0
  0
VERTEX
  5
D2
330
C8
100
AcDbEntity
  8
F_BASE
100
AcDbVertex
100
AcDb2dVertex
 10
-36.26430478452002
 20
257.3265816391993
 30
0.0
  0
VERTEX
  5
D3
330
C8
100
AcDbEntity
  8
F_BASE
100
AcDbVertex
100
AcDb2dVertex
 10
-36.26430478452002
 20
260.1782613083521
 30
0.0
  0
SEQEND
  5
D4
330
C8
100
AcDbEntity
  8
F_BASE
  0
HATCH
  5
D5
330
C4
100
AcDbEntity
  8
F_BASE
 62
     7
100
AcDbHatch
 10
0.0
 20
0.0
 30
0.0
210
0.0
220
0.0
230
1.0
  2
SOLID
 70
     1
 71
     0
 91
        1
 92
        1
 93
       10
 72
     1
 10
-36.26430478452002
 20
260.1782613083521
 11
-34.7283079491328
 21
260.1782613083521
 72
     1
 10
-34.7283079491328
 20
260.1782613083521
 11
-34.7283079491328
 21
259.8694082943508
 72
     1
 10
-34.7283079491328
 20
259.8694082943508
 11
-35.89206197177226
 21
259.8694082943508
 72
     1
 10
-35.89206197177226
 20
259.8694082943508
 11
-35.89206197177226
 21
258.9216619011356
 72
     1
 10
-35.89206197177226
 20
258.9216619011356
 11
-34.81719147128821
 21
258.9216619011356
 72
     1
 10
-34.81719147128821
 20
258.9216619011356
 11
-34.81719147128821
 21
258.6169430044438
 72
     1
 10
-34.81719147128821
 20
258.6169430044438
 11
-35.89206197177226
 21
258.6169430044438
 72
     1
 10
-35.89206197177226
 20
258.6169430044438
 11
-35.89206197177226
 21
257.3265816391993
 72
     1
 10
-35.89206197177226
 20
257.3265816391993
 11
-36.26430478452002
 21
257.3265816391993
 72
     1
 10
-36.26430478452002
 20
257.3265816391993
 11
-36.26430478452002
 21
260.1782613083521
 97
        0
 75
     2
 76
     1
 98
        0
  0
POLYLINE
  5
D6
330
C4
100
AcDbEntity
  8
F_BASE
100
AcDb2dPolyline
 66
     1
 10
0.0
 20
0.0
 30
0.0
  0
VERTEX
  5
D7
330
D6
100
AcDbEntity
  8
F_BASE
100
AcDbVertex
100
AcDb2dVertex
 10
-32.45040931156854
 20
258.6043683976272
 30
0.0
  0
VERTEX
  5
D8
330
D6
100
AcDbEntity
  8
F_BASE
100
AcDbVertex
100
AcDb2dVertex
 10
-32.45040931156854
 20
258.3335837138515
 30
0.0
  0
VERTEX
  5
D9
330
D6
100
AcDbEntity
  8
F_BASE
100
AcDbVertex
100
AcDb2dVertex
 10
-33.49565197133411
 20
258.3335837138515
 30
0.0
  0
VERTEX
  5
DA
330
D6
100
AcDbEntity
  8
F_BASE
100
AcDbVertex
100
AcDb2dVertex
 10
-33.49565197133411
 20
258.6043683976272
 30
0.0
  0
VERTEX
  5
DB
330
D6
100
AcDbEntity
  8
F_BASE
100
AcDbVertex
100
AcDb2dVertex
 10
-32.45040931156854
 20
258.6043683976272
 30
0.0
  0
SEQEND
  5
DC
330
D6
100
AcDbEntity
  8
F_BASE
  0
HATCH
  5
DD
330
C4
100
AcDbEntity
  8
F_BASE
 62
     7
100
AcDbHatch
 10
0.0
 20
0.0
 30
0.0
210
0.0
220
0.0
230
1.0
  2
SOLID
 70
     1
 71
     0
 91
        1
 92
        1
 93
        4
 72
     1
 10
-32.45040931156854
 20
258.6043683976272
 11
-32.45040931156854
 21
258.3335837138515
 72
     1
 10
-32.45040931156854
 20
258.3335837138515
 11
-33.49565197133411
 21
258.3335837138515
 72
     1
 10
-33.49565197133411
 20
258.3335837138515
 11
-33.49565197133411
 21
258.6043683976272
 72
     1
 10
-33.49565197133411
 20
258.6043683976272
 11
-32.45040931156854
 21
258.6043683976272
 97
        0
 75
     2
 76
     1
 98
        0
  0
SPLINE
  5
DE
330
C4
100
AcDbEntity
  8
F_BASE
100
AcDbSpline
210
0.0
220
0.0
230
1.0
 70
    11
 71
     3
 72
    35
 73
    31
 74
     0
 42
0.0000000001
 43
0.0000000001
 40
0.0
 40
0.0
 40
0.0
 40
0.0
 40
1.0
 40
1.0
 40
1.0
 40
2.0
 40
2.0
 40
2.0
 40
3.0
 40
3.0
 40
3.0
 40
4.0
 40
4.0
 40
4.0
 40
5.0
 40
5.0
 40
5.0
 40
6.0
 40
6.0
 40
6.0
 40
7.0
 40
7.0
 40
7.0
 40
8.0
 40
8.0
 40
8.0
 40
9.0
 40
9.0
 40
9.0
 40
10.0
 40
10.0
 40
10.0
 40
10.0
 10
-29.6569517945253
 20
257.3984119274528
 30
0.0
 10
-29.75427580618771
 20
257.3519031077203
 30
0.0
 10
-29.96993892583612
 20
257.2800728194668
 30
0.0
 10
-30.24502998180936
 20
257.2800728194668
 30
0.0
 10
-30.86273600981189
 20
257.2800728194668
 30
0.0
 10
-31.26460666327812
 20
257.698824451947
 30
0.0
 10
-31.26460666327812
 20
258.3251432243445
 30
0.0
 10
-31.26460666327812
 20
258.9555961140514
 30
0.0
 10
-30.83310816909342
 20
259.4167224489547
 30
0.0
 10
-30.16458694916095
 20
259.4167224489547
 30
0.0
 10
-29.9446174573151
 20
259.4167224489547
 30
0.0
 10
-29.74996943399026
 20
259.3617731397151
 30
0.0
 10
-29.64851130501829
 20
259.3066515755878
 30
0.0
 10
-29.64851130501829
 20
259.3066515755878
 30
0.0
 10
-29.73308845497625
 20
259.0231200301075
 30
0.0
 10
-29.73308845497625
 20
259.0231200301075
 30
0.0
 10
-29.82197197713166
 20
259.0698011047279
 30
0.0
 10
-29.96167069121701
 20
259.1206162966578
 30
0.0
 10
-30.16458694916095
 20
259.1206162966578
 30
0.0
 10
-30.63432602845903
 20
259.1206162966578
 30
0.0
 10
-30.88805747833291
 20
258.7693885802336
 30
0.0
 10
-30.88805747833291
 20
258.3461583206681
 30
0.0
 10
-30.88805747833291
 20
257.8724573789483
 30
0.0
 10
-30.58351083652909
 20
257.5804853439611
 30
0.0
 10
-30.17733381086541
 20
257.5804853439611
 30
0.0
 10
-29.96580480852656
 20
257.5804853439611
 30
0.0
 10
-29.82627834932912
 20
257.631300535891
 30
0.0
 10
-29.72051384815969
 20
257.6778093556235
 30
0.0
 10
-29.72051384815969
 20
257.6778093556235
 30
0.0
 10
-29.6569517945253
 20
257.3984119274528
 30
0.0
 10
-29.6569517945253
 20
257.3984119274528
 30
0.0
  0
HATCH
  5
DF
330
C4
100
AcDbEntity
  8
F_BASE
 62
     7
100
AcDbHatch
 10
0.0
 20
0.0
 30
0.0
210
0.0
220
0.0
230
1.0
  2
SOLID
 70
     1
 71
     0
 91
        1
 92
        1
 93
        1
 72
     4
 94
        3
 73
     0
 74
     1
 95
       35
 96
       31
 40
0.0
 40
0.0
 40
0.0
 40
0.0
 40
1.0
 40
1.0
 40
1.0
 40
2.0
 40
2.0
 40
2.0
 40
3.0
 40
3.0
 40
3.0
 40
4.0
 40
4.0
 40
4.0
 40
5.0
 40
5.0
 40
5.0
 40
6.0
 40
6.0
 40
6.0
 40
7.0
 40
7.0
 40
7.0
 40
8.0
 40
8.0
 40
8.0
 40
9.0
 40
9.0
 40
9.0
 40
10.0
 40
10.0
 40
10.0
 40
10.0
 10
-29.6569517945253
 20
257.3984119274528
 10
-29.75427580618771
 20
257.3519031077203
 10
-29.96993892583612
 20
257.2800728194668
 10
-30.24502998180936
 20
257.2800728194668
 10
-30.86273600981189
 20
257.2800728194668
 10
-31.26460666327812
 20
257.698824451947
 10
-31.26460666327812
 20
258.3251432243445
 10
-31.26460666327812
 20
258.9555961140514
 10
-30.83310816909342
 20
259.4167224489547
 10
-30.16458694916095
 20
259.4167224489547
 10
-29.9446174573151
 20
259.4167224489547
 10
-29.74996943399026
 20
259.3617731397151
 10
-29.64851130501829
 20
259.3066515755878
 10
-29.64851130501829
 20
259.3066515755878
 10
-29.73308845497625
 20
259.0231200301075
 10
-29.73308845497625
 20
259.0231200301075
 10
-29.82197197713166
 20
259.0698011047279
 10
-29.96167069121701
 20
259.1206162966578
 10
-30.16458694916095
 20
259.1206162966578
 10
-30.63432602845903
 20
259.1206162966578
 10
-30.88805747833291
 20
258.7693885802336
 10
-30.88805747833291
 20
258.3461583206681
 10
-30.88805747833291
 20
257.8724573789483
 10
-30.58351083652909
 20
257.5804853439611
 10
-30.17733381086541
 20
257.5804853439611
 10
-29.96580480852656
 20
257.5804853439611
 10
-29.82627834932912
 20
257.631300535891
 10
-29.72051384815969
 20
257.6778093556235
 10
-29.72051384815969
 20
257.6778093556235
 10
-29.6569517945253
 20
257.3984119274528
 10
-29.6569517945253
 20
257.3984119274528
 97
        0
 75
     2
 76
     1
 98
        0
  0
SPLINE
  5
E0
330
C4
100
AcDbEntity
  8
F_BASE
100
AcDbSpline
210
0.0
220
0.0
230
1.0
 70
    11
 71
     3
 72
    47
 73
    43
 74
     0
 42
0.0000000001
 43
0.0000000001
 40
0.0
 40
0.0
 40
0.0
 40
0.0
 40
1.0
 40
1.0
 40
1.0
 40
2.0
 40
2.0
 40
2.0
 40
3.0
 40
3.0
 40
3.0
 40
4.0
 40
4.0
 40
4.0
 40
5.0
 40
5.0
 40
5.0
 40
6.0
 40
6.0
 40
6.0
 40
7.0
 40
7.0
 40
7.0
 40
8.0
 40
8.0
 40
8.0
 40
9.0
 40
9.0
 40
9.0
 40
10.0
 40
10.0
 40
10.0
 40
11.0
 40
11.0
 40
11.0
 40
12.0
 40
12.0
 40
12.0
 40
13.0
 40
13.0
 40
13.0
 40
14.0
 40
14.0
 40
14.0
 40
14.0
 10
-27.78161282997885
 20
257.8173358148209
 30
0.0
 10
-27.78161282997885
 20
257.6395687705101
 30
0.0
 10
-27.77300008558395
 20
257.4662803532846
 30
0.0
 10
-27.75198498926038
 20
257.3265816391993
 30
0.0
 10
-27.75198498926038
 20
257.3265816391993
 30
0.0
 10
-28.08615947178266
 20
257.3265816391993
 30
0.0
 10
-28.08615947178266
 20
257.3265816391993
 30
0.0
 10
-28.08615947178266
 20
257.3265816391993
 30
0.0
 10
-28.11578731250114
 20
257.5847917161585
 30
0.0
 10
-28.11578731250114
 20
257.5847917161585
 30
0.0
 10
-28.11578731250114
 20
257.5847917161585
 30
0.0
 10
-28.12853417420559
 20
257.5847917161585
 30
0.0
 10
-28.12853417420559
 20
257.5847917161585
 30
0.0
 10
-28.24273916488202
 20
257.4239056508617
 30
0.0
 10
-28.46270865672788
 20
257.2800728194668
 30
0.0
 10
-28.75468069171513
 20
257.2800728194668
 30
0.0
 10
-29.16929820688582
 20
257.2800728194668
 30
0.0
 10
-29.38082720922467
 20
257.572044854454
 30
0.0
 10
-29.38082720922467
 20
257.8681510067508
 30
0.0
 10
-29.38082720922467
 20
258.3632115545699
 30
0.0
 10
-28.94088822553296
 20
258.6339962383457
 30
0.0
 10
-28.14954927052916
 20
258.6296898661483
 30
0.0
 10
-28.14954927052916
 20
258.6296898661483
 30
0.0
 10
-28.14954927052916
 20
258.6720645685712
 30
0.0
 10
-28.14954927052916
 20
258.6720645685712
 30
0.0
 10
-28.14954927052916
 20
258.8370847511776
 30
0.0
 10
-28.19623034514954
 20
259.1459377651789
 30
0.0
 10
-28.61498197762979
 20
259.1416313929814
 30
0.0
 10
-28.80963000095462
 20
259.1416313929814
 30
0.0
 10
-29.00858439647691
 20
259.0866820837419
 30
0.0
 10
-29.15241722787181
 20
258.9893580720795
 30
0.0
 10
-29.15241722787181
 20
258.9893580720795
 30
0.0
 10
-29.23699437782977
 20
259.2389554046438
 30
0.0
 10
-29.23699437782977
 20
259.2389554046438
 30
0.0
 10
-29.06766782302595
 20
259.3448921607011
 30
0.0
 10
-28.81824274534953
 20
259.4167224489547
 30
0.0
 10
-28.5600326683903
 20
259.4167224489547
 30
0.0
 10
-27.93388615088076
 20
259.4167224489547
 30
0.0
 10
-27.78161282997885
 20
258.9893580720795
 30
0.0
 10
-27.78161282997885
 20
258.5831810464158
 30
0.0
 10
-27.78161282997885
 20
258.5831810464158
 30
0.0
 10
-27.78161282997885
 20
257.8173358148209
 30
0.0
 10
-27.78161282997885
 20
257.8173358148209
 30
0.0
  0
SPLINE
  5
E1
330
C4
100
AcDbEntity
  8
F_BASE
100
AcDbSpline
210
0.0
220
0.0
230
1.0
 70
    11
 71
     3
 72
    20
 73
    16
 74
     0
 42
0.0000000001
 43
0.0000000001
 40
0.0
 40
0.0
 40
0.0
 40
0.0
 40
1.0
 40
1.0
 40
1.0
 40
2.0
 40
2.0
 40
2.0
 40
3.0
 40
3.0
 40
3.0
 40
4.0
 40
4.0
 40
4.0
 40
5.0
 40
5.0
 40
5.0
 40
5.0
 10
-28.14128103591005
 20
258.3716520440769
 30
0.0
 10
-28.54745806157374
 20
258.3800925335839
 30
0.0
 10
-29.00858439647691
 20
258.3082622453305
 30
0.0
 10
-29.00858439647691
 20
257.9103534542859
 30
0.0
 10
-29.00858439647691
 20
257.665062493919
 30
0.0
 10
-28.84787058606799
 20
257.55516387544
 30
0.0
 10
-28.66149079736227
 20
257.55516387544
 30
0.0
 10
-28.39070611358648
 20
257.55516387544
 30
0.0
 10
-28.21741769636101
 20
257.724318175356
 30
0.0
 10
-28.15816201492406
 20
257.8977788474693
 30
0.0
 10
-28.14541515321961
 20
257.9399812950044
 30
0.0
 10
-28.14128103591005
 20
257.9823559974273
 30
0.0
 10
-28.14128103591005
 20
258.0161179554553
 30
0.0
 10
-28.14128103591005
 20
258.0161179554553
 30
0.0
 10
-28.14128103591005
 20
258.3716520440769
 30
0.0
 10
-28.14128103591005
 20
258.3716520440769
 30
0.0
  0
HATCH
  5
E2
330
C4
100
AcDbEntity
  8
F_BASE
 62
     7
100
AcDbHatch
 10
0.0
 20
0.0
 30
0.0
210
0.0
220
0.0
230
1.0
  2
SOLID
 70
     1
 71
     0
 91
        2
 92
        1
 93
        1
 72
     4
 94
        3
 73
     0
 74
     1
 95
       47
 96
       43
 40
0.0
 40
0.0
 40
0.0
 40
0.0
 40
1.0
 40
1.0
 40
1.0
 40
2.0
 40
2.0
 40
2.0
 40
3.0
 40
3.0
 40
3.0
 40
4.0
 40
4.0
 40
4.0
 40
5.0
 40
5.0
 40
5.0
 40
6.0
 40
6.0
 40
6.0
 40
7.0
 40
7.0
 40
7.0
 40
8.0
 40
8.0
 40
8.0
 40
9.0
 40
9.0
 40
9.0
 40
10.0
 40
10.0
 40
10.0
 40
11.0
 40
11.0
 40
11.0
 40
12.0
 40
12.0
 40
12.0
 40
13.0
 40
13.0
 40
13.0
 40
14.0
 40
14.0
 40
14.0
 40
14.0
 10
-27.78161282997885
 20
257.8173358148209
 10
-27.78161282997885
 20
257.6395687705101
 10
-27.77300008558395
 20
257.4662803532846
 10
-27.75198498926038
 20
257.3265816391993
 10
-27.75198498926038
 20
257.3265816391993
 10
-28.08615947178266
 20
257.3265816391993
 10
-28.08615947178266
 20
257.3265816391993
 10
-28.08615947178266
 20
257.3265816391993
 10
-28.11578731250114
 20
257.5847917161585
 10
-28.11578731250114
 20
257.5847917161585
 10
-28.11578731250114
 20
257.5847917161585
 10
-28.12853417420559
 20
257.5847917161585
 10
-28.12853417420559
 20
257.5847917161585
 10
-28.24273916488202
 20
257.4239056508617
 10
-28.46270865672788
 20
257.2800728194668
 10
-28.75468069171513
 20
257.2800728194668
 10
-29.16929820688582
 20
257.2800728194668
 10
-29.38082720922467
 20
257.572044854454
 10
-29.38082720922467
 20
257.8681510067508
 10
-29.38082720922467
 20
258.3632115545699
 10
-28.94088822553296
 20
258.6339962383457
 10
-28.14954927052916
 20
258.6296898661483
 10
-28.14954927052916
 20
258.6296898661483
 10
-28.14954927052916
 20
258.6720645685712
 10
-28.14954927052916
 20
258.6720645685712
 10
-28.14954927052916
 20
258.8370847511776
 10
-28.19623034514954
 20
259.1459377651789
 10
-28.61498197762979
 20
259.1416313929814
 10
-28.80963000095462
 20
259.1416313929814
 10
-29.00858439647691
 20
259.0866820837419
 10
-29.15241722787181
 20
258.9893580720795
 10
-29.15241722787181
 20
258.9893580720795
 10
-29.23699437782977
 20
259.2389554046438
 10
-29.23699437782977
 20
259.2389554046438
 10
-29.06766782302595
 20
259.3448921607011
 10
-28.81824274534953
 20
259.4167224489547
 10
-28.5600326683903
 20
259.4167224489547
 10
-27.93388615088076
 20
259.4167224489547
 10
-27.78161282997885
 20
258.9893580720795
 10
-27.78161282997885
 20
258.5831810464158
 10
-27.78161282997885
 20
258.5831810464158
 10
-27.78161282997885
 20
257.8173358148209
 10
-27.78161282997885
 20
257.8173358148209
 97
        0
 92
        1
 93
        1
 72
     4
 94
        3
 73
     0
 74
     1
 95
       20
 96
       16
 40
0.0
 40
0.0
 40
0.0
 40
0.0
 40
1.0
 40
1.0
 40
1.0
 40
2.0
 40
2.0
 40
2.0
 40
3.0
 40
3.0
 40
3.0
 40
4.0
 40
4.0
 40
4.0
 40
5.0
 40
5.0
 40
5.0
 40
5.0
 10
-28.14128103591005
 20
258.3716520440769
 10
-28.54745806157374
 20
258.3800925335839
 10
-29.00858439647691
 20
258.3082622453305
 10
-29.00858439647691
 20
257.9103534542859
 10
-29.00858439647691
 20
257.665062493919
 10
-28.84787058606799
 20
257.55516387544
 10
-28.66149079736227
 20
257.55516387544
 10
-28.39070611358648
 20
257.55516387544
 10
-28.21741769636101
 20
257.724318175356
 10
-28.15816201492406
 20
257.8977788474693
 10
-28.14541515321961
 20
257.9399812950044
 10
-28.14128103591005
 20
257.9823559974273
 10
-28.14128103591005
 20
258.0161179554553
 10
-28.14128103591005
 20
258.0161179554553
 10
-28.14128103591005
 20
258.3716520440769
 10
-28.14128103591005
 20
258.3716520440769
 97
        0
 75
     2
 76
     1
 98
        0
  0
SPLINE
  5
E3
330
C4
100
AcDbEntity
  8
F_BASE
100
AcDbSpline
210
0.0
220
0.0
230
1.0
 70
    11
 71
     3
 72
    41
 73
    37
 74
     0
 42
0.0000000001
 43
0.0000000001
 40
0.0
 40
0.0
 40
0.0
 40
0.0
 40
1.0
 40
1.0
 40
1.0
 40
2.0
 40
2.0
 40
2.0
 40
3.0
 40
3.0
 40
3.0
 40
4.0
 40
4.0
 40
4.0
 40
5.0
 40
5.0
 40
5.0
 40
6.0
 40
6.0
 40
6.0
 40
7.0
 40
7.0
 40
7.0
 40
8.0
 40
8.0
 40
8.0
 40
9.0
 40
9.0
 40
9.0
 40
10.0
 40
10.0
 40
10.0
 40
11.0
 40
11.0
 40
11.0
 40
12.0
 40
12.0
 40
12.0
 40
12.0
 10
-27.17975425166295
 20
258.7058265265993
 30
0.0
 10
-27.17975425166295
 20
258.968170720868
 30
0.0
 10
-27.18802248628205
 20
259.1798719780948
 30
0.0
 10
-27.19663523067696
 20
259.3743477465317
 30
0.0
 10
-27.19663523067696
 20
259.3743477465317
 30
0.0
 10
-26.86659486546423
 20
259.3743477465317
 30
0.0
 10
-26.86659486546423
 20
259.3743477465317
 30
0.0
 10
-26.86659486546423
 20
259.3743477465317
 30
0.0
 10
-26.84540751425276
 20
259.0231200301075
 30
0.0
 10
-26.84540751425276
 20
259.0231200301075
 30
0.0
 10
-26.84540751425276
 20
259.0231200301075
 30
0.0
 10
-26.83696702474576
 20
259.0231200301075
 30
0.0
 10
-26.83696702474576
 20
259.0231200301075
 30
0.0
 10
-26.6888278211534
 20
259.2728896175597
 30
0.0
 10
-26.44353686078653
 20
259.4167224489547
 30
0.0
 10
-26.10919012337635
 20
259.4167224489547
 30
0.0
 10
-25.6099954582477
 20
259.4167224489547
 30
0.0
 10
-25.23758039061204
 20
258.9977985615865
 30
0.0
 10
-25.23758039061204
 20
258.3800925335839
 30
0.0
 10
-25.23758039061204
 20
257.6438751427075
 30
0.0
 10
-25.69043849089611
 20
257.2800728194668
 30
0.0
 10
-26.17275217701074
 20
257.2800728194668
 30
0.0
 10
-26.44353686078653
 20
257.2800728194668
 30
0.0
 10
-26.6803873316464
 20
257.3984119274528
 30
0.0
 10
-26.80320506671773
 20
257.6016726951725
 30
0.0
 10
-26.80320506671773
 20
257.6016726951725
 30
0.0
 10
-26.81147330133684
 20
257.6016726951725
 30
0.0
 10
-26.81147330133684
 20
257.6016726951725
 30
0.0
 10
-26.81147330133684
 20
257.6016726951725
 30
0.0
 10
-26.81147330133684
 20
256.4889061193509
 30
0.0
 10
-26.81147330133684
 20
256.4889061193509
 30
0.0
 10
-26.81147330133684
 20
256.4889061193509
 30
0.0
 10
-27.17975425166295
 20
256.4889061193509
 30
0.0
 10
-27.17975425166295
 20
256.4889061193509
 30
0.0
 10
-27.17975425166295
 20
256.4889061193509
 30
0.0
 10
-27.17975425166295
 20
258.7058265265993
 30
0.0
 10
-27.17975425166295
 20
258.7058265265993
 30
0.0
  0
SPLINE
  5
E4
330
C4
100
AcDbEntity
  8
F_BASE
100
AcDbSpline
210
0.0
220
0.0
230
1.0
 70
    11
 71
     3
 72
    26
 73
    22
 74
     0
 42
0.0000000001
 43
0.0000000001
 40
0.0
 40
0.0
 40
0.0
 40
0.0
 40
1.0
 40
1.0
 40
1.0
 40
2.0
 40
2.0
 40
2.0
 40
3.0
 40
3.0
 40
3.0
 40
4.0
 40
4.0
 40
4.0
 40
5.0
 40
5.0
 40
5.0
 40
6.0
 40
6.0
 40
6.0
 40
7.0
 40
7.0
 40
7.0
 40
7.0
 10
-26.81147330133684
 20
258.1601230417381
 30
0.0
 10
-26.81147330133684
 20
258.1050014776107
 30
0.0
 10
-26.80733918402728
 20
258.0543585405687
 30
0.0
 10
-26.79459232232283
 20
258.0078497208362
 30
0.0
 10
-26.72689615137888
 20
257.7496396438769
 30
0.0
 10
-26.50279254222347
 20
257.572044854454
 30
0.0
 10
-26.23614197575724
 20
257.572044854454
 30
0.0
 10
-25.84271181179802
 20
257.572044854454
 30
0.0
 10
-25.61430183044515
 20
257.8934724752719
 30
0.0
 10
-25.61430183044515
 20
258.3632115545699
 30
0.0
 10
-25.61430183044515
 20
258.7693885802336
 30
0.0
 10
-25.82996495009355
 20
259.1206162966578
 30
0.0
 10
-26.22339511405278
 20
259.1206162966578
 30
0.0
 10
-26.47729881881456
 20
259.1206162966578
 30
0.0
 10
-26.71845566187188
 20
258.942849252347
 30
0.0
 10
-26.78615183281582
 20
258.6636240790642
 30
0.0
 10
-26.79889869452028
 20
258.6169430044438
 30
0.0
 10
-26.81147330133684
 20
258.5619936952044
 30
0.0
 10
-26.81147330133684
 20
258.5154848754718
 30
0.0
 10
-26.81147330133684
 20
258.5154848754718
 30
0.0
 10
-26.81147330133684
 20
258.1601230417381
 30
0.0
 10
-26.81147330133684
 20
258.1601230417381
 30
0.0
  0
HATCH
  5
E5
330
C4
100
AcDbEntity
  8
F_BASE
 62
     7
100
AcDbHatch
 10
0.0
 20
0.0
 30
0.0
210
0.0
220
0.0
230
1.0
  2
SOLID
 70
     1
 71
     0
 91
        2
 92
        1
 93
        1
 72
     4
 94
        3
 73
     0
 74
     1
 95
       41
 96
       37
 40
0.0
 40
0.0
 40
0.0
 40
0.0
 40
1.0
 40
1.0
 40
1.0
 40
2.0
 40
2.0
 40
2.0
 40
3.0
 40
3.0
 40
3.0
 40
4.0
 40
4.0
 40
4.0
 40
5.0
 40
5.0
 40
5.0
 40
6.0
 40
6.0
 40
6.0
 40
7.0
 40
7.0
 40
7.0
 40
8.0
 40
8.0
 40
8.0
 40
9.0
 40
9.0
 40
9.0
 40
10.0
 40
10.0
 40
10.0
 40
11.0
 40
11.0
 40
11.0
 40
12.0
 40
12.0
 40
12.0
 40
12.0
 10
-27.17975425166295
 20
258.7058265265993
 10
-27.17975425166295
 20
258.968170720868
 10
-27.18802248628205
 20
259.1798719780948
 10
-27.19663523067696
 20
259.3743477465317
 10
-27.19663523067696
 20
259.3743477465317
 10
-26.86659486546423
 20
259.3743477465317
 10
-26.86659486546423
 20
259.3743477465317
 10
-26.86659486546423
 20
259.3743477465317
 10
-26.84540751425276
 20
259.0231200301075
 10
-26.84540751425276
 20
259.0231200301075
 10
-26.84540751425276
 20
259.0231200301075
 10
-26.83696702474576
 20
259.0231200301075
 10
-26.83696702474576
 20
259.0231200301075
 10
-26.6888278211534
 20
259.2728896175597
 10
-26.44353686078653
 20
259.4167224489547
 10
-26.10919012337635
 20
259.4167224489547
 10
-25.6099954582477
 20
259.4167224489547
 10
-25.23758039061204
 20
258.9977985615865
 10
-25.23758039061204
 20
258.3800925335839
 10
-25.23758039061204
 20
257.6438751427075
 10
-25.69043849089611
 20
257.2800728194668
 10
-26.17275217701074
 20
257.2800728194668
 10
-26.44353686078653
 20
257.2800728194668
 10
-26.6803873316464
 20
257.3984119274528
 10
-26.80320506671773
 20
257.6016726951725
 10
-26.80320506671773
 20
257.6016726951725
 10
-26.81147330133684
 20
257.6016726951725
 10
-26.81147330133684
 20
257.6016726951725
 10
-26.81147330133684
 20
257.6016726951725
 10
-26.81147330133684
 20
256.4889061193509
 10
-26.81147330133684
 20
256.4889061193509
 10
-26.81147330133684
 20
256.4889061193509
 10
-27.17975425166295
 20
256.4889061193509
 10
-27.17975425166295
 20
256.4889061193509
 10
-27.17975425166295
 20
256.4889061193509
 10
-27.17975425166295
 20
258.7058265265993
 10
-27.17975425166295
 20
258.7058265265993
 97
        0
 92
        1
 93
        1
 72
     4
 94
        3
 73
     0
 74
     1
 95
       26
 96
       22
 40
0.0
 40
0.0
 40
0.0
 40
0.0
 40
1.0
 40
1.0
 40
1.0
 40
2.0
 40
2.0
 40
2.0
 40
3.0
 40
3.0
 40
3.0
 40
4.0
 40
4.0
 40
4.0
 40
5.0
 40
5.0
 40
5.0
 40
6.0
 40
6.0
 40
6.0
 40
7.0
 40
7.0
 40
7.0
 40
7.0
 10
-26.81147330133684
 20
258.1601230417381
 10
-26.81147330133684
 20
258.1050014776107
 10
-26.80733918402728
 20
258.0543585405687
 10
-26.79459232232283
 20
258.0078497208362
 10
-26.72689615137888
 20
257.7496396438769
 10
-26.50279254222347
 20
257.572044854454
 10
-26.23614197575724
 20
257.572044854454
 10
-25.84271181179802
 20
257.572044854454
 10
-25.61430183044515
 20
257.8934724752719
 10
-25.61430183044515
 20
258.3632115545699
 10
-25.61430183044515
 20
258.7693885802336
 10
-25.82996495009355
 20
259.1206162966578
 10
-26.22339511405278
 20
259.1206162966578
 10
-26.47729881881456
 20
259.1206162966578
 10
-26.71845566187188
 20
258.942849252347
 10
-26.78615183281582
 20
258.6636240790642
 10
-26.79889869452028
 20
258.6169430044438
 10
-26.81147330133684
 20
258.5619936952044
 10
-26.81147330133684
 20
258.5154848754718
 10
-26.81147330133684
 20
258.5154848754718
 10
-26.81147330133684
 20
258.1601230417381
 10
-26.81147330133684
 20
258.1601230417381
 97
        0
 75
     2
 76
     1
 98
        0
  0
SPLINE
  5
E6
330
C4
100
AcDbEntity
  8
F_BASE
100
AcDbSpline
210
0.0
220
0.0
230
1.0
 70
    11
 71
     3
 72
    17
 73
    13
 74
     0
 42
0.0000000001
 43
0.0000000001
 40
0.0
 40
0.0
 40
0.0
 40
0.0
 40
1.0
 40
1.0
 40
1.0
 40
2.0
 40
2.0
 40
2.0
 40
3.0
 40
3.0
 40
3.0
 40
4.0
 40
4.0
 40
4.0
 40
4.0
 10
-22.91782381528854
 20
258.3675179267674
 30
0.0
 10
-22.91782381528854
 20
257.6099409297916
 30
0.0
 10
-23.44664632113566
 20
257.2800728194668
 30
0.0
 10
-23.9374004967573
 20
257.2800728194668
 30
0.0
 10
-24.48741035381589
 20
257.2800728194668
 30
0.0
 10
-24.91908110288848
 20
257.6862498451305
 30
0.0
 10
-24.91908110288848
 20
258.3335837138515
 30
0.0
 10
-24.91908110288848
 20
259.0148517954884
 30
0.0
 10
-24.46639525749232
 20
259.4167224489547
 30
0.0
 10
-23.90346628384138
 20
259.4167224489547
 30
0.0
 10
-23.31538809655732
 20
259.4167224489547
 30
0.0
 10
-22.91782381528854
 20
258.9893580720795
 30
0.0
 10
-22.91782381528854
 20
258.3675179267674
 30
0.0
  0
SPLINE
  5
E7
330
C4
100
AcDbEntity
  8
F_BASE
100
AcDbSpline
210
0.0
220
0.0
230
1.0
 70
    11
 71
     3
 72
    17
 73
    13
 74
     0
 42
0.0000000001
 43
0.0000000001
 40
0.0
 40
0.0
 40
0.0
 40
0.0
 40
1.0
 40
1.0
 40
1.0
 40
2.0
 40
2.0
 40
2.0
 40
3.0
 40
3.0
 40
3.0
 40
4.0
 40
4.0
 40
4.0
 40
4.0
 10
-24.53822554574582
 20
258.3461583206681
 30
0.0
 10
-24.53822554574582
 20
257.8977788474693
 30
0.0
 10
-24.28432184098405
 20
257.5592979927496
 30
0.0
 10
-23.92051951774329
 20
257.5592979927496
 30
0.0
 10
-23.56515768400954
 20
257.5592979927496
 30
0.0
 10
-23.29850711754331
 20
257.8934724752719
 30
0.0
 10
-23.29850711754331
 20
258.3547710650629
 30
0.0
 10
-23.29850711754331
 20
258.7016924092897
 30
0.0
 10
-23.47196778965668
 20
259.1374972756718
 30
0.0
 10
-23.91207902823628
 20
259.1374972756718
 30
0.0
 10
-24.34788389461844
 20
259.1374972756718
 30
0.0
 10
-24.53822554574582
 20
258.7313202500081
 30
0.0
 10
-24.53822554574582
 20
258.3461583206681
 30
0.0
  0
HATCH
  5
E8
330
C4
100
AcDbEntity
  8
F_BASE
 62
     7
100
AcDbHatch
 10
0.0
 20
0.0
 30
0.0
210
0.0
220
0.0
230
1.0
  2
SOLID
 70
     1
 71
     0
 91
        2
 92
        1
 93
        1
 72
     4
 94
        3
 73
     0
 74
     1
 95
       17
 96
       13
 40
0.0
 40
0.0
 40
0.0
 40
0.0
 40
1.0
 40
1.0
 40
1.0
 40
2.0
 40
2.0
 40
2.0
 40
3.0
 40
3.0
 40
3.0
 40
4.0
 40
4.0
 40
4.0
 40
4.0
 10
-22.91782381528854
 20
258.3675179267674
 10
-22.91782381528854
 20
257.6099409297916
 10
-23.44664632113566
 20
257.2800728194668
 10
-23.9374004967573
 20
257.2800728194668
 10
-24.48741035381589
 20
257.2800728194668
 10
-24.91908110288848
 20
257.6862498451305
 10
-24.91908110288848
 20
258.3335837138515
 10
-24.91908110288848
 20
259.0148517954884
 10
-24.46639525749232
 20
259.4167224489547
 10
-23.90346628384138
 20
259.4167224489547
 10
-23.31538809655732
 20
259.4167224489547
 10
-22.91782381528854
 20
258.9893580720795
 10
-22.91782381528854
 20
258.3675179267674
 97
        0
 92
        1
 93
        1
 72
     4
 94
        3
 73
     0
 74
     1
 95
       17
 96
       13
 40
0.0
 40
0.0
 40
0.0
 40
0.0
 40
1.0
 40
1.0
 40
1.0
 40
2.0
 40
2.0
 40
2.0
 40
3.0
 40
3.0
 40
3.0
 40
4.0
 40
4.0
 40
4.0
 40
4.0
 10
-24.53822554574582
 20
258.3461583206681
 10
-24.53822554574582
 20
257.8977788474693
 10
-24.28432184098405
 20
257.5592979927496
 10
-23.92051951774329
 20
257.5592979927496
 10
-23.56515768400954
 20
257.5592979927496
 10
-23.29850711754331
 20
257.8934724752719
 10
-23.29850711754331
 20
258.3547710650629
 10
-23.29850711754331
 20
258.7016924092897
 10
-23.47196778965668
 20
259.1374972756718
 10
-23.91207902823628
 20
259.1374972756718
 10
-24.34788389461844
 20
259.1374972756718
 10
-24.53822554574582
 20
258.7313202500081
 10
-24.53822554574582
 20
258.3461583206681
 97
        0
 75
     2
 76
     1
 98
        0
  0
SPLINE
  5
E9
330
C4
100
AcDbEntity
  8
F_BASE
100
AcDbSpline
210
0.0
220
0.0
230
1.0
 70
    11
 71
     3
 72
    56
 73
    52
 74
     0
 42
0.0000000001
 43
0.0000000001
 40
0.0
 40
0.0
 40
0.0
 40
0.0
 40
1.0
 40
1.0
 40
1.0
 40
2.0
 40
2.0
 40
2.0
 40
3.0
 40
3.0
 40
3.0
 40
4.0
 40
4.0
 40
4.0
 40
5.0
 40
5.0
 40
5.0
 40
6.0
 40
6.0
 40
6.0
 40
7.0
 40
7.0
 40
7.0
 40
8.0
 40
8.0
 40
8.0
 40
9.0
 40
9.0
 40
9.0
 40
10.0
 40
10.0
 40
10.0
 40
11.0
 40
11.0
 40
11.0
 40
12.0
 40
12.0
 40
12.0
 40
13.0
 40
13.0
 40
13.0
 40
14.0
 40
14.0
 40
14.0
 40
15.0
 40
15.0
 40
15.0
 40
16.0
 40
16.0
 40
16.0
 40
17.0
 40
17.0
 40
17.0
 40
17.0
 10
-21.99832722368857
 20
259.8651019221534
 30
0.0
 10
-21.99832722368857
 20
259.8651019221534
 30
0.0
 10
-21.99832722368857
 20
259.3743477465317
 30
0.0
 10
-21.99832722368857
 20
259.3743477465317
 30
0.0
 10
-21.99832722368857
 20
259.3743477465317
 30
0.0
 10
-21.46537060053189
 20
259.3743477465317
 30
0.0
 10
-21.46537060053189
 20
259.3743477465317
 30
0.0
 10
-21.46537060053189
 20
259.3743477465317
 30
0.0
 10
-21.46537060053189
 20
259.0909884559393
 30
0.0
 10
-21.46537060053189
 20
259.0909884559393
 30
0.0
 10
-21.46537060053189
 20
259.0909884559393
 30
0.0
 10
-21.99832722368857
 20
259.0909884559393
 30
0.0
 10
-21.99832722368857
 20
259.0909884559393
 30
0.0
 10
-21.99832722368857
 20
259.0909884559393
 30
0.0
 10
-21.99832722368857
 20
257.9866623696248
 30
0.0
 10
-21.99832722368857
 20
257.9866623696248
 30
0.0
 10
-21.99832722368857
 20
257.732758664863
 30
0.0
 10
-21.92649693543506
 20
257.5889258334681
 30
0.0
 10
-21.71910205040577
 20
257.5889258334681
 30
0.0
 10
-21.6176439214338
 20
257.5889258334681
 30
0.0
 10
-21.55838823999686
 20
257.5973663229751
 30
0.0
 10
-21.50326667586947
 20
257.6142473019891
 30
0.0
 10
-21.50326667586947
 20
257.6142473019891
 30
0.0
 10
-21.48638569685546
 20
257.3308880113967
 30
0.0
 10
-21.48638569685546
 20
257.3308880113967
 30
0.0
 10
-21.55838823999686
 20
257.3053942879878
 30
0.0
 10
-21.67259323067329
 20
257.2800728194668
 30
0.0
 10
-21.81642606206819
 20
257.2800728194668
 30
0.0
 10
-21.98988673418156
 20
257.2800728194668
 30
0.0
 10
-22.1295854482669
 20
257.3391562460158
 30
0.0
 10
-22.21846897042232
 20
257.4366525125661
 30
0.0
 10
-22.31992709939429
 20
257.5508575032426
 30
0.0
 10
-22.36212954692932
 20
257.732758664863
 30
0.0
 10
-22.36212954692932
 20
257.9739155079203
 30
0.0
 10
-22.36212954692932
 20
257.9739155079203
 30
0.0
 10
-22.36212954692932
 20
259.0909884559393
 30
0.0
 10
-22.36212954692932
 20
259.0909884559393
 30
0.0
 10
-22.36212954692932
 20
259.0909884559393
 30
0.0
 10
-22.67959530532549
 20
259.0909884559393
 30
0.0
 10
-22.67959530532549
 20
259.0909884559393
 30
0.0
 10
-22.67959530532549
 20
259.0909884559393
 30
0.0
 10
-22.67959530532549
 20
259.3743477465317
 30
0.0
 10
-22.67959530532549
 20
259.3743477465317
 30
0.0
 10
-22.67959530532549
 20
259.3743477465317
 30
0.0
 10
-22.36212954692932
 20
259.3743477465317
 30
0.0
 10
-22.36212954692932
 20
259.3743477465317
 30
0.0
 10
-22.36212954692932
 20
259.3743477465317
 30
0.0
 10
-22.36212954692932
 20
259.7552033036744
 30
0.0
 10
-22.36212954692932
 20
259.7552033036744
 30
0.0
 10
-22.36212954692932
 20
259.7552033036744
 30
0.0
 10
-21.99832722368857
 20
259.8651019221534
 30
0.0
 10
-21.99832722368857
 20
259.8651019221534
 30
0.0
  0
HATCH
  5
EA
330
C4
100
AcDbEntity
  8
F_BASE
 62
     7
100
AcDbHatch
 10
0.0
 20
0.0
 30
0.0
210
0.0
220
0.0
230
1.0
  2
SOLID
 70
     1
 71
     0
 91
        1
 92
        1
 93
        1
 72
     4
 94
        3
 73
     0
 74
     1
 95
       56
 96
       52
 40
0.0
 40
0.0
 40
0.0
 40
0.0
 40
1.0
 40
1.0
 40
1.0
 40
2.0
 40
2.0
 40
2.0
 40
3.0
 40
3.0
 40
3.0
 40
4.0
 40
4.0
 40
4.0
 40
5.0
 40
5.0
 40
5.0
 40
6.0
 40
6.0
 40
6.0
 40
7.0
 40
7.0
 40
7.0
 40
8.0
 40
8.0
 40
8.0
 40
9.0
 40
9.0
 40
9.0
 40
10.0
 40
10.0
 40
10.0
 40
11.0
 40
11.0
 40
11.0
 40
12.0
 40
12.0
 40
12.0
 40
13.0
 40
13.0
 40
13.0
 40
14.0
 40
14.0
 40
14.0
 40
15.0
 40
15.0
 40
15.0
 40
16.0
 40
16.0
 40
16.0
 40
17.0
 40
17.0
 40
17.0
 40
17.0
 10
-21.99832722368857
 20
259.8651019221534
 10
-21.99832722368857
 20
259.8651019221534
 10
-21.99832722368857
 20
259.3743477465317
 10
-21.99832722368857
 20
259.3743477465317
 10
-21.99832722368857
 20
259.3743477465317
 10
-21.46537060053189
 20
259.3743477465317
 10
-21.46537060053189
 20
259.3743477465317
 10
-21.46537060053189
 20
259.3743477465317
 10
-21.46537060053189
 20
259.0909884559393
 10
-21.46537060053189
 20
259.0909884559393
 10
-21.46537060053189
 20
259.0909884559393
 10
-21.99832722368857
 20
259.0909884559393
 10
-21.99832722368857
 20
259.0909884559393
 10
-21.99832722368857
 20
259.0909884559393
 10
-21.99832722368857
 20
257.9866623696248
 10
-21.99832722368857
 20
257.9866623696248
 10
-21.99832722368857
 20
257.732758664863
 10
-21.92649693543506
 20
257.5889258334681
 10
-21.71910205040577
 20
257.5889258334681
 10
-21.6176439214338
 20
257.5889258334681
 10
-21.55838823999686
 20
257.5973663229751
 10
-21.50326667586947
 20
257.6142473019891
 10
-21.50326667586947
 20
257.6142473019891
 10
-21.48638569685546
 20
257.3308880113967
 10
-21.48638569685546
 20
257.3308880113967
 10
-21.55838823999686
 20
257.3053942879878
 10
-21.67259323067329
 20
257.2800728194668
 10
-21.81642606206819
 20
257.2800728194668
 10
-21.98988673418156
 20
257.2800728194668
 10
-22.1295854482669
 20
257.3391562460158
 10
-22.21846897042232
 20
257.4366525125661
 10
-22.31992709939429
 20
257.5508575032426
 10
-22.36212954692932
 20
257.732758664863
 10
-22.36212954692932
 20
257.9739155079203
 10
-22.36212954692932
 20
257.9739155079203
 10
-22.36212954692932
 20
259.0909884559393
 10
-22.36212954692932
 20
259.0909884559393
 10
-22.36212954692932
 20
259.0909884559393
 10
-22.67959530532549
 20
259.0909884559393
 10
-22.67959530532549
 20
259.0909884559393
 10
-22.67959530532549
 20
259.0909884559393
 10
-22.67959530532549
 20
259.3743477465317
 10
-22.67959530532549
 20
259.3743477465317
 10
-22.67959530532549
 20
259.3743477465317
 10
-22.36212954692932
 20
259.3743477465317
 10
-22.36212954692932
 20
259.3743477465317
 10
-22.36212954692932
 20
259.3743477465317
 10
-22.36212954692932
 20
259.7552033036744
 10
-22.36212954692932
 20
259.7552033036744
 10
-22.36212954692932
 20
259.7552033036744
 10
-21.99832722368857
 20
259.8651019221534
 10
-21.99832722368857
 20
259.8651019221534
 97
        0
 75
     2
 76
     1
 98
        0
  0
SPLINE
  5
EB
330
C4
100
AcDbEntity
  8
F_BASE
100
AcDbSpline
210
0.0
220
0.0
230
1.0
 70
    11
 71
     3
 72
    50
 73
    46
 74
     0
 42
0.0000000001
 43
0.0000000001
 40
0.0
 40
0.0
 40
0.0
 40
0.0
 40
1.0
 40
1.0
 40
1.0
 40
2.0
 40
2.0
 40
2.0
 40
3.0
 40
3.0
 40
3.0
 40
4.0
 40
4.0
 40
4.0
 40
5.0
 40
5.0
 40
5.0
 40
6.0
 40
6.0
 40
6.0
 40
7.0
 40
7.0
 40
7.0
 40
8.0
 40
8.0
 40
8.0
 40
9.0
 40
9.0
 40
9.0
 40
10.0
 40
10.0
 40
10.0
 40
11.0
 40
11.0
 40
11.0
 40
12.0
 40
12.0
 40
12.0
 40
13.0
 40
13.0
 40
13.0
 40
14.0
 40
14.0
 40
14.0
 40
15.0
 40
15.0
 40
15.0
 40
15.0
 10
-20.14830972766314
 20
260.330534629254
 30
0.0
 10
-20.14830972766314
 20
260.330534629254
 30
0.0
 10
-19.77589466002748
 20
260.330534629254
 30
0.0
 10
-19.77589466002748
 20
260.330534629254
 30
0.0
 10
-19.77589466002748
 20
260.330534629254
 30
0.0
 10
-19.77589466002748
 20
259.0486137535164
 30
0.0
 10
-19.77589466002748
 20
259.0486137535164
 30
0.0
 10
-19.77589466002748
 20
259.0486137535164
 30
0.0
 10
-19.76762642540837
 20
259.0486137535164
 30
0.0
 10
-19.76762642540837
 20
259.0486137535164
 30
0.0
 10
-19.70837074397143
 20
259.1543782546859
 30
0.0
 10
-19.61518084961857
 20
259.2517022663483
 30
0.0
 10
-19.50097585894214
 20
259.3152643199826
 30
0.0
 10
-19.39090498557526
 20
259.3786541187292
 30
0.0
 10
-19.25981901588482
 20
259.4167224489547
 30
0.0
 10
-19.12012030179947
 20
259.4167224489547
 30
0.0
 10
-18.84502924582623
 20
259.4167224489547
 30
0.0
 10
-18.40509026213453
 20
259.2473958941508
 30
0.0
 10
-18.40509026213453
 20
258.5451127161903
 30
0.0
 10
-18.40509026213453
 20
258.5451127161903
 30
0.0
 10
-18.40509026213453
 20
257.3265816391993
 30
0.0
 10
-18.40509026213453
 20
257.3265816391993
 30
0.0
 10
-18.40509026213453
 20
257.3265816391993
 30
0.0
 10
-18.77750532977018
 20
257.3265816391993
 30
0.0
 10
-18.77750532977018
 20
257.3265816391993
 30
0.0
 10
-18.77750532977018
 20
257.3265816391993
 30
0.0
 10
-18.77750532977018
 20
258.5029102686553
 30
0.0
 10
-18.77750532977018
 20
258.5029102686553
 30
0.0
 10
-18.77750532977018
 20
258.8327783789802
 30
0.0
 10
-18.90015080995362
 20
259.1078694349534
 30
0.0
 10
-19.25120627148992
 20
259.1078694349534
 30
0.0
 10
-19.49253536943513
 20
259.1078694349534
 30
0.0
 10
-19.67874290325296
 20
258.9387151350375
 30
0.0
 10
-19.75057319150646
 20
258.7397607395151
 30
0.0
 10
-19.77176054271793
 20
258.6848114302757
 30
0.0
 10
-19.77589466002748
 20
258.6296898661483
 30
0.0
 10
-19.77589466002748
 20
258.5619936952044
 30
0.0
 10
-19.77589466002748
 20
258.5619936952044
 30
0.0
 10
-19.77589466002748
 20
257.3265816391993
 30
0.0
 10
-19.77589466002748
 20
257.3265816391993
 30
0.0
 10
-19.77589466002748
 20
257.3265816391993
 30
0.0
 10
-20.14830972766314
 20
257.3265816391993
 30
0.0
 10
-20.14830972766314
 20
257.3265816391993
 30
0.0
 10
-20.14830972766314
 20
257.3265816391993
 30
0.0
 10
-20.14830972766314
 20
260.330534629254
 30
0.0
 10
-20.14830972766314
 20
260.330534629254
 30
0.0
  0
HATCH
  5
EC
330
C4
100
AcDbEntity
  8
F_BASE
 62
     7
100
AcDbHatch
 10
0.0
 20
0.0
 30
0.0
210
0.0
220
0.0
230
1.0
  2
SOLID
 70
     1
 71
     0
 91
        1
 92
        1
 93
        1
 72
     4
 94
        3
 73
     0
 74
     1
 95
       50
 96
       46
 40
0.0
 40
0.0
 40
0.0
 40
0.0
 40
1.0
 40
1.0
 40
1.0
 40
2.0
 40
2.0
 40
2.0
 40
3.0
 40
3.0
 40
3.0
 40
4.0
 40
4.0
 40
4.0
 40
5.0
 40
5.0
 40
5.0
 40
6.0
 40
6.0
 40
6.0
 40
7.0
 40
7.0
 40
7.0
 40
8.0
 40
8.0
 40
8.0
 40
9.0
 40
9.0
 40
9.0
 40
10.0
 40
10.0
 40
10.0
 40
11.0
 40
11.0
 40
11.0
 40
12.0
 40
12.0
 40
12.0
 40
13.0
 40
13.0
 40
13.0
 40
14.0
 40
14.0
 40
14.0
 40
15.0
 40
15.0
 40
15.0
 40
15.0
 10
-20.14830972766314
 20
260.330534629254
 10
-20.14830972766314
 20
260.330534629254
 10
-19.77589466002748
 20
260.330534629254
 10
-19.77589466002748
 20
260.330534629254
 10
-19.77589466002748
 20
260.330534629254
 10
-19.77589466002748
 20
259.0486137535164
 10
-19.77589466002748
 20
259.0486137535164
 10
-19.77589466002748
 20
259.0486137535164
 10
-19.76762642540837
 20
259.0486137535164
 10
-19.76762642540837
 20
259.0486137535164
 10
-19.70837074397143
 20
259.1543782546859
 10
-19.61518084961857
 20
259.2517022663483
 10
-19.50097585894214
 20
259.3152643199826
 10
-19.39090498557526
 20
259.3786541187292
 10
-19.25981901588482
 20
259.4167224489547
 10
-19.12012030179947
 20
259.4167224489547
 10
-18.84502924582623
 20
259.4167224489547
 10
-18.40509026213453
 20
259.2473958941508
 10
-18.40509026213453
 20
258.5451127161903
 10
-18.40509026213453
 20
258.5451127161903
 10
-18.40509026213453
 20
257.3265816391993
 10
-18.40509026213453
 20
257.3265816391993
 10
-18.40509026213453
 20
257.3265816391993
 10
-18.77750532977018
 20
257.3265816391993
 10
-18.77750532977018
 20
257.3265816391993
 10
-18.77750532977018
 20
257.3265816391993
 10
-18.77750532977018
 20
258.5029102686553
 10
-18.77750532977018
 20
258.5029102686553
 10
-18.77750532977018
 20
258.8327783789802
 10
-18.90015080995362
 20
259.1078694349534
 10
-19.25120627148992
 20
259.1078694349534
 10
-19.49253536943513
 20
259.1078694349534
 10
-19.67874290325296
 20
258.9387151350375
 10
-19.75057319150646
 20
258.7397607395151
 10
-19.77176054271793
 20
258.6848114302757
 10
-19.77589466002748
 20
258.6296898661483
 10
-19.77589466002748
 20
258.5619936952044
 10
-19.77589466002748
 20
258.5619936952044
 10
-19.77589466002748
 20
257.3265816391993
 10
-19.77589466002748
 20
257.3265816391993
 10
-19.77589466002748
 20
257.3265816391993
 10
-20.14830972766314
 20
257.3265816391993
 10
-20.14830972766314
 20
257.3265816391993
 10
-20.14830972766314
 20
257.3265816391993
 10
-20.14830972766314
 20
260.330534629254
 10
-20.14830972766314
 20
260.330534629254
 97
        0
 75
     2
 76
     1
 98
        0
  0
SPLINE
  5
ED
330
C4
100
AcDbEntity
  8
F_BASE
100
AcDbSpline
210
0.0
220
0.0
230
1.0
 70
    11
 71
     3
 72
    47
 73
    43
 74
     0
 42
0.0000000001
 43
0.0000000001
 40
0.0
 40
0.0
 40
0.0
 40
0.0
 40
1.0
 40
1.0
 40
1.0
 40
2.0
 40
2.0
 40
2.0
 40
3.0
 40
3.0
 40
3.0
 40
4.0
 40
4.0
 40
4.0
 40
5.0
 40
5.0
 40
5.0
 40
6.0
 40
6.0
 40
6.0
 40
7.0
 40
7.0
 40
7.0
 40
8.0
 40
8.0
 40
8.0
 40
9.0
 40
9.0
 40
9.0
 40
10.0
 40
10.0
 40
10.0
 40
11.0
 40
11.0
 40
11.0
 40
12.0
 40
12.0
 40
12.0
 40
13.0
 40
13.0
 40
13.0
 40
14.0
 40
14.0
 40
14.0
 40
14.0
 10
-16.36025248789636
 20
257.8173358148209
 30
0.0
 10
-16.36025248789636
 20
257.6395687705101
 30
0.0
 10
-16.35181199838936
 20
257.4662803532846
 30
0.0
 10
-16.3306246471779
 20
257.3265816391993
 30
0.0
 10
-16.3306246471779
 20
257.3265816391993
 30
0.0
 10
-16.66479912970018
 20
257.3265816391993
 30
0.0
 10
-16.66479912970018
 20
257.3265816391993
 30
0.0
 10
-16.66479912970018
 20
257.3265816391993
 30
0.0
 10
-16.69442697041865
 20
257.5847917161585
 30
0.0
 10
-16.69442697041865
 20
257.5847917161585
 30
0.0
 10
-16.69442697041865
 20
257.5847917161585
 30
0.0
 10
-16.70717383212311
 20
257.5847917161585
 30
0.0
 10
-16.70717383212311
 20
257.5847917161585
 30
0.0
 10
-16.82137882279954
 20
257.4239056508617
 30
0.0
 10
-17.04134831464539
 20
257.2800728194668
 30
0.0
 10
-17.33332034963264
 20
257.2800728194668
 30
0.0
 10
-17.74793786480333
 20
257.2800728194668
 30
0.0
 10
-17.95963912203008
 20
257.572044854454
 30
0.0
 10
-17.95963912203008
 20
257.8681510067508
 30
0.0
 10
-17.95963912203008
 20
258.3632115545699
 30
0.0
 10
-17.51952788345047
 20
258.6339962383457
 30
0.0
 10
-16.72836118333457
 20
258.6296898661483
 30
0.0
 10
-16.72836118333457
 20
258.6296898661483
 30
0.0
 10
-16.72836118333457
 20
258.6720645685712
 30
0.0
 10
-16.72836118333457
 20
258.6720645685712
 30
0.0
 10
-16.72836118333457
 20
258.8370847511776
 30
0.0
 10
-16.77487000306705
 20
259.1459377651789
 30
0.0
 10
-17.1937938904352
 20
259.1416313929814
 30
0.0
 10
-17.38844191376003
 20
259.1416313929814
 30
0.0
 10
-17.58722405439442
 20
259.0866820837419
 30
0.0
 10
-17.73105688578932
 20
258.9893580720795
 30
0.0
 10
-17.73105688578932
 20
258.9893580720795
 30
0.0
 10
-17.81563403574728
 20
259.2389554046438
 30
0.0
 10
-17.81563403574728
 20
259.2389554046438
 30
0.0
 10
-17.64647973583136
 20
259.3448921607011
 30
0.0
 10
-17.39671014837914
 20
259.4167224489547
 30
0.0
 10
-17.13867232630781
 20
259.4167224489547
 30
0.0
 10
-16.51252580879827
 20
259.4167224489547
 30
0.0
 10
-16.36025248789636
 20
258.9893580720795
 30
0.0
 10
-16.36025248789636
 20
258.5831810464158
 30
0.0
 10
-16.36025248789636
 20
258.5831810464158
 30
0.0
 10
-16.36025248789636
 20
257.8173358148209
 30
0.0
 10
-16.36025248789636
 20
257.8173358148209
 30
0.0
  0
SPLINE
  5
EE
330
C4
100
AcDbEntity
  8
F_BASE
100
AcDbSpline
210
0.0
220
0.0
230
1.0
 70
    11
 71
     3
 72
    20
 73
    16
 74
     0
 42
0.0000000001
 43
0.0000000001
 40
0.0
 40
0.0
 40
0.0
 40
0.0
 40
1.0
 40
1.0
 40
1.0
 40
2.0
 40
2.0
 40
2.0
 40
3.0
 40
3.0
 40
3.0
 40
4.0
 40
4.0
 40
4.0
 40
5.0
 40
5.0
 40
5.0
 40
5.0
 10
-16.71974843893967
 20
258.3716520440769
 30
0.0
 10
-17.12592546460335
 20
258.3800925335839
 30
0.0
 10
-17.58722405439442
 20
258.3082622453305
 30
0.0
 10
-17.58722405439442
 20
257.9103534542859
 30
0.0
 10
-17.58722405439442
 20
257.665062493919
 30
0.0
 10
-17.42633798909761
 20
257.55516387544
 30
0.0
 10
-17.24030271016768
 20
257.55516387544
 30
0.0
 10
-16.96951802639189
 20
257.55516387544
 30
0.0
 10
-16.79588509939062
 20
257.724318175356
 30
0.0
 10
-16.73680167284158
 20
257.8977788474693
 30
0.0
 10
-16.72405481113712
 20
257.9399812950044
 30
0.0
 10
-16.71974843893967
 20
257.9823559974273
 30
0.0
 10
-16.71974843893967
 20
258.0161179554553
 30
0.0
 10
-16.71974843893967
 20
258.0161179554553
 30
0.0
 10
-16.71974843893967
 20
258.3716520440769
 30
0.0
 10
-16.71974843893967
 20
258.3716520440769
 30
0.0
  0
HATCH
  5
EF
330
C4
100
AcDbEntity
  8
F_BASE
 62
     7
100
AcDbHatch
 10
0.0
 20
0.0
 30
0.0
210
0.0
220
0.0
230
1.0
  2
SOLID
 70
     1
 71
     0
 91
        2
 92
        1
 93
        1
 72
     4
 94
        3
 73
     0
 74
     1
 95
       47
 96
       43
 40
0.0
 40
0.0
 40
0.0
 40
0.0
 40
1.0
 40
1.0
 40
1.0
 40
2.0
 40
2.0
 40
2.0
 40
3.0
 40
3.0
 40
3.0
 40
4.0
 40
4.0
 40
4.0
 40
5.0
 40
5.0
 40
5.0
 40
6.0
 40
6.0
 40
6.0
 40
7.0
 40
7.0
 40
7.0
 40
8.0
 40
8.0
 40
8.0
 40
9.0
 40
9.0
 40
9.0
 40
10.0
 40
10.0
 40
10.0
 40
11.0
 40
11.0
 40
11.0
 40
12.0
 40
12.0
 40
12.0
 40
13.0
 40
13.0
 40
13.0
 40
14.0
 40
14.0
 40
14.0
 40
14.0
 10
-16.36025248789636
 20
257.8173358148209
 10
-16.36025248789636
 20
257.6395687705101
 10
-16.35181199838936
 20
257.4662803532846
 10
-16.3306246471779
 20
257.3265816391993
 10
-16.3306246471779
 20
257.3265816391993
 10
-16.66479912970018
 20
257.3265816391993
 10
-16.66479912970018
 20
257.3265816391993
 10
-16.66479912970018
 20
257.3265816391993
 10
-16.69442697041865
 20
257.5847917161585
 10
-16.69442697041865
 20
257.5847917161585
 10
-16.69442697041865
 20
257.5847917161585
 10
-16.70717383212311
 20
257.5847917161585
 10
-16.70717383212311
 20
257.5847917161585
 10
-16.82137882279954
 20
257.4239056508617
 10
-17.04134831464539
 20
257.2800728194668
 10
-17.33332034963264
 20
257.2800728194668
 10
-17.74793786480333
 20
257.2800728194668
 10
-17.95963912203008
 20
257.572044854454
 10
-17.95963912203008
 20
257.8681510067508
 10
-17.95963912203008
 20
258.3632115545699
 10
-17.51952788345047
 20
258.6339962383457
 10
-16.72836118333457
 20
258.6296898661483
 10
-16.72836118333457
 20
258.6296898661483
 10
-16.72836118333457
 20
258.6720645685712
 10
-16.72836118333457
 20
258.6720645685712
 10
-16.72836118333457
 20
258.8370847511776
 10
-16.77487000306705
 20
259.1459377651789
 10
-17.1937938904352
 20
259.1416313929814
 10
-17.38844191376003
 20
259.1416313929814
 10
-17.58722405439442
 20
259.0866820837419
 10
-17.73105688578932
 20
258.9893580720795
 10
-17.73105688578932
 20
258.9893580720795
 10
-17.81563403574728
 20
259.2389554046438
 10
-17.81563403574728
 20
259.2389554046438
 10
-17.64647973583136
 20
259.3448921607011
 10
-17.39671014837914
 20
259.4167224489547
 10
-17.13867232630781
 20
259.4167224489547
 10
-16.51252580879827
 20
259.4167224489547
 10
-16.36025248789636
 20
258.9893580720795
 10
-16.36025248789636
 20
258.5831810464158
 10
-16.36025248789636
 20
258.5831810464158
 10
-16.36025248789636
 20
257.8173358148209
 10
-16.36025248789636
 20
257.8173358148209
 97
        0
 92
        1
 93
        1
 72
     4
 94
        3
 73
     0
 74
     1
 95
       20
 96
       16
 40
0.0
 40
0.0
 40
0.0
 40
0.0
 40
1.0
 40
1.0
 40
1.0
 40
2.0
 40
2.0
 40
2.0
 40
3.0
 40
3.0
 40
3.0
 40
4.0
 40
4.0
 40
4.0
 40
5.0
 40
5.0
 40
5.0
 40
5.0
 10
-16.71974843893967
 20
258.3716520440769
 10
-17.12592546460335
 20
258.3800925335839
 10
-17.58722405439442
 20
258.3082622453305
 10
-17.58722405439442
 20
257.9103534542859
 10
-17.58722405439442
 20
257.665062493919
 10
-17.42633798909761
 20
257.55516387544
 10
-17.24030271016768
 20
257.55516387544
 10
-16.96951802639189
 20
257.55516387544
 10
-16.79588509939062
 20
257.724318175356
 10
-16.73680167284158
 20
257.8977788474693
 10
-16.72405481113712
 20
257.9399812950044
 10
-16.71974843893967
 20
257.9823559974273
 10
-16.71974843893967
 20
258.0161179554553
 10
-16.71974843893967
 20
258.0161179554553
 10
-16.71974843893967
 20
258.3716520440769
 10
-16.71974843893967
 20
258.3716520440769
 97
        0
 75
     2
 76
     1
 98
        0
  0
SPLINE
  5
F0
330
C4
100
AcDbEntity
  8
F_BASE
100
AcDbSpline
210
0.0
220
0.0
230
1.0
 70
    11
 71
     3
 72
    50
 73
    46
 74
     0
 42
0.0000000001
 43
0.0000000001
 40
0.0
 40
0.0
 40
0.0
 40
0.0
 40
1.0
 40
1.0
 40
1.0
 40
2.0
 40
2.0
 40
2.0
 40
3.0
 40
3.0
 40
3.0
 40
4.0
 40
4.0
 40
4.0
 40
5.0
 40
5.0
 40
5.0
 40
6.0
 40
6.0
 40
6.0
 40
7.0
 40
7.0
 40
7.0
 40
8.0
 40
8.0
 40
8.0
 40
9.0
 40
9.0
 40
9.0
 40
10.0
 40
10.0
 40
10.0
 40
11.0
 40
11.0
 40
11.0
 40
12.0
 40
12.0
 40
12.0
 40
13.0
 40
13.0
 40
13.0
 40
14.0
 40
14.0
 40
14.0
 40
15.0
 40
15.0
 40
15.0
 40
15.0
 10
-14.04480228477031
 20
257.8893383579623
 30
0.0
 10
-14.04480228477031
 20
257.673502983426
 30
0.0
 10
-14.04066816746076
 20
257.4872954496082
 30
0.0
 10
-14.0279213057563
 20
257.3265816391993
 30
0.0
 10
-14.0279213057563
 20
257.3265816391993
 30
0.0
 10
-14.35796167096903
 20
257.3265816391993
 30
0.0
 10
-14.35796167096903
 20
257.3265816391993
 30
0.0
 10
-14.35796167096903
 20
257.3265816391993
 30
0.0
 10
-14.3791490221805
 20
257.6609283766094
 30
0.0
 10
-14.3791490221805
 20
257.6609283766094
 30
0.0
 10
-14.3791490221805
 20
257.6609283766094
 30
0.0
 10
-14.3875895116875
 20
257.6609283766094
 30
0.0
 10
-14.3875895116875
 20
257.6609283766094
 30
0.0
 10
-14.48060715115247
 20
257.4959081940031
 30
0.0
 10
-14.70057664299832
 20
257.2800728194668
 30
0.0
 10
-15.06455122112697
 20
257.2800728194668
 30
0.0
 10
-15.3859788419448
 20
257.2800728194668
 30
0.0
 10
-15.77114077128492
 20
257.4619739810872
 30
0.0
 10
-15.77114077128492
 20
258.1770040207521
 30
0.0
 10
-15.77114077128492
 20
258.1770040207521
 30
0.0
 10
-15.77114077128492
 20
259.3743477465317
 30
0.0
 10
-15.77114077128492
 20
259.3743477465317
 30
0.0
 10
-15.77114077128492
 20
259.3743477465317
 30
0.0
 10
-15.39872570364926
 20
259.3743477465317
 30
0.0
 10
-15.39872570364926
 20
259.3743477465317
 30
0.0
 10
-15.39872570364926
 20
259.3743477465317
 30
0.0
 10
-15.39872570364926
 20
258.244700191696
 30
0.0
 10
-15.39872570364926
 20
258.244700191696
 30
0.0
 10
-15.39872570364926
 20
257.8555763999343
 30
0.0
 10
-15.27608022346582
 20
257.5889258334681
 30
0.0
 10
-14.94173348605564
 20
257.5889258334681
 30
0.0
 10
-14.69213615349132
 20
257.5889258334681
 30
0.0
 10
-14.51867548137794
 20
257.7623865055814
 30
0.0
 10
-14.450979310434
 20
257.9317130603852
 30
0.0
 10
-14.42979195922253
 20
257.9823559974273
 30
0.0
 10
-14.41721735240597
 20
258.0500521683712
 30
0.0
 10
-14.41721735240597
 20
258.1220547115126
 30
0.0
 10
-14.41721735240597
 20
258.1220547115126
 30
0.0
 10
-14.41721735240597
 20
259.3743477465317
 30
0.0
 10
-14.41721735240597
 20
259.3743477465317
 30
0.0
 10
-14.41721735240597
 20
259.3743477465317
 30
0.0
 10
-14.04480228477031
 20
259.3743477465317
 30
0.0
 10
-14.04480228477031
 20
259.3743477465317
 30
0.0
 10
-14.04480228477031
 20
259.3743477465317
 30
0.0
 10
-14.04480228477031
 20
257.8893383579623
 30
0.0
 10
-14.04480228477031
 20
257.8893383579623
 30
0.0
  0
HATCH
  5
F1
330
C4
100
AcDbEntity
  8
F_BASE
 62
     7
100
AcDbHatch
 10
0.0
 20
0.0
 30
0.0
210
0.0
220
0.0
230
1.0
  2
SOLID
 70
     1
 71
     0
 91
        1
 92
        1
 93
        1
 72
     4
 94
        3
 73
     0
 74
     1
 95
       50
 96
       46
 40
0.0
 40
0.0
 40
0.0
 40
0.0
 40
1.0
 40
1.0
 40
1.0
 40
2.0
 40
2.0
 40
2.0
 40
3.0
 40
3.0
 40
3.0
 40
4.0
 40
4.0
 40
4.0
 40
5.0
 40
5.0
 40
5.0
 40
6.0
 40
6.0
 40
6.0
 40
7.0
 40
7.0
 40
7.0
 40
8.0
 40
8.0
 40
8.0
 40
9.0
 40
9.0
 40
9.0
 40
10.0
 40
10.0
 40
10.0
 40
11.0
 40
11.0
 40
11.0
 40
12.0
 40
12.0
 40
12.0
 40
13.0
 40
13.0
 40
13.0
 40
14.0
 40
14.0
 40
14.0
 40
15.0
 40
15.0
 40
15.0
 40
15.0
 10
-14.04480228477031
 20
257.8893383579623
 10
-14.04480228477031
 20
257.673502983426
 10
-14.04066816746076
 20
257.4872954496082
 10
-14.0279213057563
 20
257.3265816391993
 10
-14.0279213057563
 20
257.3265816391993
 10
-14.35796167096903
 20
257.3265816391993
 10
-14.35796167096903
 20
257.3265816391993
 10
-14.35796167096903
 20
257.3265816391993
 10
-14.3791490221805
 20
257.6609283766094
 10
-14.3791490221805
 20
257.6609283766094
 10
-14.3791490221805
 20
257.6609283766094
 10
-14.3875895116875
 20
257.6609283766094
 10
-14.3875895116875
 20
257.6609283766094
 10
-14.48060715115247
 20
257.4959081940031
 10
-14.70057664299832
 20
257.2800728194668
 10
-15.06455122112697
 20
257.2800728194668
 10
-15.3859788419448
 20
257.2800728194668
 10
-15.77114077128492
 20
257.4619739810872
 10
-15.77114077128492
 20
258.1770040207521
 10
-15.77114077128492
 20
258.1770040207521
 10
-15.77114077128492
 20
259.3743477465317
 10
-15.77114077128492
 20
259.3743477465317
 10
-15.77114077128492
 20
259.3743477465317
 10
-15.39872570364926
 20
259.3743477465317
 10
-15.39872570364926
 20
259.3743477465317
 10
-15.39872570364926
 20
259.3743477465317
 10
-15.39872570364926
 20
258.244700191696
 10
-15.39872570364926
 20
258.244700191696
 10
-15.39872570364926
 20
257.8555763999343
 10
-15.27608022346582
 20
257.5889258334681
 10
-14.94173348605564
 20
257.5889258334681
 10
-14.69213615349132
 20
257.5889258334681
 10
-14.51867548137794
 20
257.7623865055814
 10
-14.450979310434
 20
257.9317130603852
 10
-14.42979195922253
 20
257.9823559974273
 10
-14.41721735240597
 20
258.0500521683712
 10
-14.41721735240597
 20
258.1220547115126
 10
-14.41721735240597
 20
258.1220547115126
 10
-14.41721735240597
 20
259.3743477465317
 10
-14.41721735240597
 20
259.3743477465317
 10
-14.41721735240597
 20
259.3743477465317
 10
-14.04480228477031
 20
259.3743477465317
 10
-14.04480228477031
 20
259.3743477465317
 10
-14.04480228477031
 20
259.3743477465317
 10
-14.04480228477031
 20
257.8893383579623
 10
-14.04480228477031
 20
257.8893383579623
 97
        0
 75
     2
 76
     1
 98
        0
  0
SPLINE
  5
F2
330
C4
100
AcDbEntity
  8
F_BASE
100
AcDbSpline
210
0.0
220
0.0
230
1.0
 70
    11
 71
     3
 72
    56
 73
    52
 74
     0
 42
0.0000000001
 43
0.0000000001
 40
0.0
 40
0.0
 40
0.0
 40
0.0
 40
1.0
 40
1.0
 40
1.0
 40
2.0
 40
2.0
 40
2.0
 40
3.0
 40
3.0
 40
3.0
 40
4.0
 40
4.0
 40
4.0
 40
5.0
 40
5.0
 40
5.0
 40
6.0
 40
6.0
 40
6.0
 40
7.0
 40
7.0
 40
7.0
 40
8.0
 40
8.0
 40
8.0
 40
9.0
 40
9.0
 40
9.0
 40
10.0
 40
10.0
 40
10.0
 40
11.0
 40
11.0
 40
11.0
 40
12.0
 40
12.0
 40
12.0
 40
13.0
 40
13.0
 40
13.0
 40
14.0
 40
14.0
 40
14.0
 40
15.0
 40
15.0
 40
15.0
 40
16.0
 40
16.0
 40
16.0
 40
17.0
 40
17.0
 40
17.0
 40
17.0
 10
-12.97716648957799
 20
259.8651019221534
 30
0.0
 10
-12.97716648957799
 20
259.8651019221534
 30
0.0
 10
-12.97716648957799
 20
259.3743477465317
 30
0.0
 10
-12.97716648957799
 20
259.3743477465317
 30
0.0
 10
-12.97716648957799
 20
259.3743477465317
 30
0.0
 10
-12.44403761153342
 20
259.3743477465317
 30
0.0
 10
-12.44403761153342
 20
259.3743477465317
 30
0.0
 10
-12.44403761153342
 20
259.3743477465317
 30
0.0
 10
-12.44403761153342
 20
259.0909884559393
 30
0.0
 10
-12.44403761153342
 20
259.0909884559393
 30
0.0
 10
-12.44403761153342
 20
259.0909884559393
 30
0.0
 10
-12.97716648957799
 20
259.0909884559393
 30
0.0
 10
-12.97716648957799
 20
259.0909884559393
 30
0.0
 10
-12.97716648957799
 20
259.0909884559393
 30
0.0
 10
-12.97716648957799
 20
257.9866623696248
 30
0.0
 10
-12.97716648957799
 20
257.9866623696248
 30
0.0
 10
-12.97716648957799
 20
257.732758664863
 30
0.0
 10
-12.90533620132448
 20
257.5889258334681
 30
0.0
 10
-12.69794131629519
 20
257.5889258334681
 30
0.0
 10
-12.59648318732322
 20
257.5889258334681
 30
0.0
 10
-12.53722750588628
 20
257.5973663229751
 30
0.0
 10
-12.48227819664679
 20
257.6142473019891
 30
0.0
 10
-12.48227819664679
 20
257.6142473019891
 30
0.0
 10
-12.46522496274488
 20
257.3308880113967
 30
0.0
 10
-12.46522496274488
 20
257.3308880113967
 30
0.0
 10
-12.53722750588628
 20
257.3053942879878
 30
0.0
 10
-12.65143249656271
 20
257.2800728194668
 30
0.0
 10
-12.79526532795761
 20
257.2800728194668
 30
0.0
 10
-12.96872600007098
 20
257.2800728194668
 30
0.0
 10
-13.10842471415633
 20
257.3391562460158
 30
0.0
 10
-13.19730823631174
 20
257.4366525125661
 30
0.0
 10
-13.29876636528371
 20
257.5508575032426
 30
0.0
 10
-13.34114106770664
 20
257.732758664863
 30
0.0
 10
-13.34114106770664
 20
257.9739155079203
 30
0.0
 10
-13.34114106770664
 20
257.9739155079203
 30
0.0
 10
-13.34114106770664
 20
259.0909884559393
 30
0.0
 10
-13.34114106770664
 20
259.0909884559393
 30
0.0
 10
-13.34114106770664
 20
259.0909884559393
 30
0.0
 10
-13.65843457121491
 20
259.0909884559393
 30
0.0
 10
-13.65843457121491
 20
259.0909884559393
 30
0.0
 10
-13.65843457121491
 20
259.0909884559393
 30
0.0
 10
-13.65843457121491
 20
259.3743477465317
 30
0.0
 10
-13.65843457121491
 20
259.3743477465317
 30
0.0
 10
-13.65843457121491
 20
259.3743477465317
 30
0.0
 10
-13.34114106770664
 20
259.3743477465317
 30
0.0
 10
-13.34114106770664
 20
259.3743477465317
 30
0.0
 10
-13.34114106770664
 20
259.3743477465317
 30
0.0
 10
-13.34114106770664
 20
259.7552033036744
 30
0.0
 10
-13.34114106770664
 20
259.7552033036744
 30
0.0
 10
-13.34114106770664
 20
259.7552033036744
 30
0.0
 10
-12.97716648957799
 20
259.8651019221534
 30
0.0
 10
-12.97716648957799
 20
259.8651019221534
 30
0.0
  0
HATCH
  5
F3
330
C4
100
AcDbEntity
  8
F_BASE
 62
     7
100
AcDbHatch
 10
0.0
 20
0.0
 30
0.0
210
0.0
220
0.0
230
1.0
  2
SOLID
 70
     1
 71
     0
 91
        1
 92
        1
 93
        1
 72
     4
 94
        3
 73
     0
 74
     1
 95
       56
 96
       52
 40
0.0
 40
0.0
 40
0.0
 40
0.0
 40
1.0
 40
1.0
 40
1.0
 40
2.0
 40
2.0
 40
2.0
 40
3.0
 40
3.0
 40
3.0
 40
4.0
 40
4.0
 40
4.0
 40
5.0
 40
5.0
 40
5.0
 40
6.0
 40
6.0
 40
6.0
 40
7.0
 40
7.0
 40
7.0
 40
8.0
 40
8.0
 40
8.0
 40
9.0
 40
9.0
 40
9.0
 40
10.0
 40
10.0
 40
10.0
 40
11.0
 40
11.0
 40
11.0
 40
12.0
 40
12.0
 40
12.0
 40
13.0
 40
13.0
 40
13.0
 40
14.0
 40
14.0
 40
14.0
 40
15.0
 40
15.0
 40
15.0
 40
16.0
 40
16.0
 40
16.0
 40
17.0
 40
17.0
 40
17.0
 40
17.0
 10
-12.97716648957799
 20
259.8651019221534
 10
-12.97716648957799
 20
259.8651019221534
 10
-12.97716648957799
 20
259.3743477465317
 10
-12.97716648957799
 20
259.3743477465317
 10
-12.97716648957799
 20
259.3743477465317
 10
-12.44403761153342
 20
259.3743477465317
 10
-12.44403761153342
 20
259.3743477465317
 10
-12.44403761153342
 20
259.3743477465317
 10
-12.44403761153342
 20
259.0909884559393
 10
-12.44403761153342
 20
259.0909884559393
 10
-12.44403761153342
 20
259.0909884559393
 10
-12.97716648957799
 20
259.0909884559393
 10
-12.97716648957799
 20
259.0909884559393
 10
-12.97716648957799
 20
259.0909884559393
 10
-12.97716648957799
 20
257.9866623696248
 10
-12.97716648957799
 20
257.9866623696248
 10
-12.97716648957799
 20
257.732758664863
 10
-12.90533620132448
 20
257.5889258334681
 10
-12.69794131629519
 20
257.5889258334681
 10
-12.59648318732322
 20
257.5889258334681
 10
-12.53722750588628
 20
257.5973663229751
 10
-12.48227819664679
 20
257.6142473019891
 10
-12.48227819664679
 20
257.6142473019891
 10
-12.46522496274488
 20
257.3308880113967
 10
-12.46522496274488
 20
257.3308880113967
 10
-12.53722750588628
 20
257.3053942879878
 10
-12.65143249656271
 20
257.2800728194668
 10
-12.79526532795761
 20
257.2800728194668
 10
-12.96872600007098
 20
257.2800728194668
 10
-13.10842471415633
 20
257.3391562460158
 10
-13.19730823631174
 20
257.4366525125661
 10
-13.29876636528371
 20
257.5508575032426
 10
-13.34114106770664
 20
257.732758664863
 10
-13.34114106770664
 20
257.9739155079203
 10
-13.34114106770664
 20
257.9739155079203
 10
-13.34114106770664
 20
259.0909884559393
 10
-13.34114106770664
 20
259.0909884559393
 10
-13.34114106770664
 20
259.0909884559393
 10
-13.65843457121491
 20
259.0909884559393
 10
-13.65843457121491
 20
259.0909884559393
 10
-13.65843457121491
 20
259.0909884559393
 10
-13.65843457121491
 20
259.3743477465317
 10
-13.65843457121491
 20
259.3743477465317
 10
-13.65843457121491
 20
259.3743477465317
 10
-13.34114106770664
 20
259.3743477465317
 10
-13.34114106770664
 20
259.3743477465317
 10
-13.34114106770664
 20
259.3743477465317
 10
-13.34114106770664
 20
259.7552033036744
 10
-13.34114106770664
 20
259.7552033036744
 10
-13.34114106770664
 20
259.7552033036744
 10
-12.97716648957799
 20
259.8651019221534
 10
-12.97716648957799
 20
259.8651019221534
 97
        0
 75
     2
 76
     1
 98
        0
  0
ENDBLK
  5
C7
330
C4
100
AcDbEntity
  8
0
100
AcDbBlockEnd
  0
BLOCK
  5
F6
330
F4
100
AcDbEntity
  8
0
100
AcDbBlockBegin
  2
BLOCK_4
 70
     0
 71
     0
 10
0.0
 20
0.0
 30
0.0
  3
BLOCK_4
  1

  0
INSERT
  5
F9
330
F4
100
AcDbEntity
  8
F_BASE
100
AcDbBlockReference
  2
BLOCK_5
 10
0.0
 20
0.0
 30
0.0
  0
ENDBLK
  5
F7
330
F4
100
AcDbEntity
  8
0
100
AcDbBlockEnd
  0
BLOCK
  5
FA
330
F8
100
AcDbEntity
  8
0
100
AcDbBlockBegin
  2
BLOCK_5
 70
     0
 71
     0
 10
0.0
 20
0.0
 30
0.0
  3
BLOCK_5
  1

  0
INSERT
  5
FD
330
F8
100
AcDbEntity
  8
F_BASE
100
AcDbBlockReference
  2
BLOCK_6
 10
0.0
 20
0.0
 30
0.0
  0
ENDBLK
  5
FB
330
F8
100
AcDbEntity
  8
0
100
AcDbBlockEnd
  0
BLOCK
  5
FE
330
FC
100
AcDbEntity
  8
0
100
AcDbBlockBegin
  2
BLOCK_6
 70
     0
 71
     0
 10
0.0
 20
0.0
 30
0.0
  3
BLOCK_6
  1

  0
POLYLINE
  5
100
330
FC
100
AcDbEntity
  8
F_BASE
100
AcDb2dPolyline
 66
     1
 10
0.0
 20
0.0
 30
0.0
  0
VERTEX
  5
101
330
100
100
AcDbEntity
  8
F_BASE
100
AcDbVertex
100
AcDb2dVertex
 10
-193.6914919323373
 20
399.2541017190591
 30
0.0
  0
VERTEX
  5
102
330
100
100
AcDbEntity
  8
F_BASE
100
AcDbVertex
100
AcDb2dVertex
 10
-193.6914919323373
 20
442.2087863495407
 30
0.0
  0
VERTEX
  5
103
330
100
100
AcDbEntity
  8
F_BASE
100
AcDbVertex
100
AcDb2dVertex
 10
-164.7132243961305
 20
442.2087863495407
 30
0.0
  0
VERTEX
  5
104
330
100
100
AcDbEntity
  8
F_BASE
100
AcDbVertex
100
AcDb2dVertex
 10
-164.7132243961305
 20
437.1396695084758
 30
0.0
  0
VERTEX
  5
105
330
100
100
AcDbEntity
  8
F_BASE
100
AcDbVertex
100
AcDb2dVertex
 10
-188.0072528865884
 20
437.1396695084758
 30
0.0
  0
VERTEX
  5
106
330
100
100
AcDbEntity
  8
F_BASE
100
AcDbVertex
100
AcDb2dVertex
 10
-188.0072528865884
 20
423.8372857905463
 30
0.0
  0
VERTEX
  5
107
330
100
100
AcDbEntity
  8
F_BASE
100
AcDbVertex
100
AcDb2dVertex
 10
-167.8484356107635
 20
423.8372857905463
 30
0.0
  0
VERTEX
  5
108
330
100
100
AcDbEntity
  8
F_BASE
100
AcDbVertex
100
AcDb2dVertex
 10
-167.8484356107635
 20
418.7683412043693
 30
0.0
  0
VERTEX
  5
109
330
100
100
AcDbEntity
  8
F_BASE
100
AcDbVertex
100
AcDb2dVertex
 10
-188.0072528865884
 20
418.7683412043693
 30
0.0
  0
VERTEX
  5
10A
330
100
100
AcDbEntity
  8
F_BASE
100
AcDbVertex
100
AcDb2dVertex
 10
-188.0072528865884
 20
399.2541017190591
 30
0.0
  0
VERTEX
  5
10B
330
100
100
AcDbEntity
  8
F_BASE
100
AcDbVertex
100
AcDb2dVertex
 10
-193.6914919323373
 20
399.2541017190591
 30
0.0
  0
SEQEND
  5
10C
330
100
100
AcDbEntity
  8
F_BASE
  0
HATCH
  5
10D
330
FC
100
AcDbEntity
  8
F_BASE
 62
     7
100
AcDbHatch
 10
0.0
 20
0.0
 30
0.0
210
0.0
220
0.0
230
1.0
  2
SOLID
 70
     1
 71
     0
 91
        1
 92
        1
 93
       10
 72
     1
 10
-193.6914919323373
 20
399.2541017190591
 11
-193.6914919323373
 21
442.2087863495407
 72
     1
 10
-193.6914919323373
 20
442.2087863495407
 11
-164.7132243961305
 21
442.2087863495407
 72
     1
 10
-164.7132243961305
 20
442.2087863495407
 11
-164.7132243961305
 21
437.1396695084758
 72
     1
 10
-164.7132243961305
 20
437.1396695084758
 11
-188.0072528865884
 21
437.1396695084758
 72
     1
 10
-188.0072528865884
 20
437.1396695084758
 11
-188.0072528865884
 21
423.8372857905463
 72
     1
 10
-188.0072528865884
 20
423.8372857905463
 11
-167.8484356107635
 21
423.8372857905463
 72
     1
 10
-167.8484356107635
 20
423.8372857905463
 11
-167.8484356107635
 21
418.7683412043693
 72
     1
 10
-167.8484356107635
 20
418.7683412043693
 11
-188.0072528865884
 21
418.7683412043693
 72
     1
 10
-188.0072528865884
 20
418.7683412043693
 11
-188.0072528865884
 21
399.2541017190591
 72
     1
 10
-188.0072528865884
 20
399.2541017190591
 11
-193.6914919323373
 21
399.2541017190591
 97
        0
 75
     2
 76
     1
 98
        0
  0
POLYLINE
  5
10E
330
FC
100
AcDbEntity
  8
F_BASE
100
AcDb2dPolyline
 66
     1
 10
0.0
 20
0.0
 30
0.0
  0
VERTEX
  5
10F
330
10E
100
AcDbEntity
  8
F_BASE
100
AcDbVertex
100
AcDb2dVertex
 10
-156.5383519262632
 20
424.3647302572902
 30
0.0
  0
VERTEX
  5
110
330
10E
100
AcDbEntity
  8
F_BASE
100
AcDbVertex
100
AcDb2dVertex
 10
-156.5383519262632
 20
430.3712581982964
 30
0.0
  0
VERTEX
  5
111
330
10E
100
AcDbEntity
  8
F_BASE
100
AcDbVertex
100
AcDb2dVertex
 10
-150.531823985257
 20
430.3712581982964
 30
0.0
  0
VERTEX
  5
112
330
10E
100
AcDbEntity
  8
F_BASE
100
AcDbVertex
100
AcDb2dVertex
 10
-150.531823985257
 20
424.3647302572902
 30
0.0
  0
VERTEX
  5
113
330
10E
100
AcDbEntity
  8
F_BASE
100
AcDbVertex
100
AcDb2dVertex
 10
-156.5383519262632
 20
424.3647302572902
 30
0.0
  0
SEQEND
  5
114
330
10E
100
AcDbEntity
  8
F_BASE
  0
POLYLINE
  5
115
330
FC
100
AcDbEntity
  8
F_BASE
100
AcDb2dPolyline
 66
     1
 10
0.0
 20
0.0
 30
0.0
  0
VERTEX
  5
116
330
115
100
AcDbEntity
  8
F_BASE
100
AcDbVertex
100
AcDb2dVertex
 10
-156.5383519262632
 20
399.2541017190591
 30
0.0
  0
VERTEX
  5
117
330
115
100
AcDbEntity
  8
F_BASE
100
AcDbVertex
100
AcDb2dVertex
 10
-156.5383519262632
 20
405.2606296600653
 30
0.0
  0
VERTEX
  5
118
330
115
100
AcDbEntity
  8
F_BASE
100
AcDbVertex
100
AcDb2dVertex
 10
-150.531823985257
 20
405.2606296600653
 30
0.0
  0
VERTEX
  5
119
330
115
100
AcDbEntity
  8
F_BASE
100
AcDbVertex
100
AcDb2dVertex
 10
-150.531823985257
 20
399.2541017190591
 30
0.0
  0
VERTEX
  5
11A
330
115
100
AcDbEntity
  8
F_BASE
100
AcDbVertex
100
AcDb2dVertex
 10
-156.5383519262632
 20
399.2541017190591
 30
0.0
  0
SEQEND
  5
11B
330
115
100
AcDbEntity
  8
F_BASE
  0
HATCH
  5
11C
330
FC
100
AcDbEntity
  8
F_BASE
 62
     7
100
AcDbHatch
 10
0.0
 20
0.0
 30
0.0
210
0.0
220
0.0
230
1.0
  2
SOLID
 70
     1
 71
     0
 91
        2
 92
        1
 93
        4
 72
     1
 10
-156.5383519262632
 20
424.3647302572902
 11
-156.5383519262632
 21
430.3712581982964
 72
     1
 10
-156.5383519262632
 20
430.3712581982964
 11
-150.531823985257
 21
430.3712581982964
 72
     1
 10
-150.531823985257
 20
430.3712581982964
 11
-150.531823985257
 21
424.3647302572902
 72
     1
 10
-150.531823985257
 20
424.3647302572902
 11
-156.5383519262632
 21
424.3647302572902
 97
        0
 92
        1
 93
        4
 72
     1
 10
-156.5383519262632
 20
399.2541017190591
 11
-156.5383519262632
 21
405.2606296600653
 72
     1
 10
-156.5383519262632
 20
405.2606296600653
 11
-150.531823985257
 21
405.2606296600653
 72
     1
 10
-150.531823985257
 20
405.2606296600653
 11
-150.531823985257
 21
399.2541017190591
 72
     1
 10
-150.531823985257
 20
399.2541017190591
 11
-156.5383519262632
 21
399.2541017190591
 97
        0
 75
     2
 76
     1
 98
        0
  0
SPLINE
  5
11D
330
FC
100
AcDbEntity
  8
F_BASE
100
AcDbSpline
210
0.0
220
0.0
230
1.0
 70
    11
 71
     3
 72
    47
 73
    43
 74
     0
 42
0.0000000001
 43
0.0000000001
 40
0.0
 40
0.0
 40
0.0
 40
0.0
 40
1.0
 40
1.0
 40
1.0
 40
2.0
 40
2.0
 40
2.0
 40
3.0
 40
3.0
 40
3.0
 40
4.0
 40
4.0
 40
4.0
 40
5.0
 40
5.0
 40
5.0
 40
6.0
 40
6.0
 40
6.0
 40
7.0
 40
7.0
 40
7.0
 40
8.0
 40
8.0
 40
8.0
 40
9.0
 40
9.0
 40
9.0
 40
10.0
 40
10.0
 40
10.0
 40
11.0
 40
11.0
 40
11.0
 40
12.0
 40
12.0
 40
12.0
 40
13.0
 40
13.0
 40
13.0
 40
14.0
 40
14.0
 40
14.0
 40
14.0
 10
-124.2198898588246
 20
399.2541017190591
 30
0.0
 10
-124.2198898588246
 20
399.2541017190591
 30
0.0
 10
-124.2198898588246
 20
442.2087863495407
 30
0.0
 10
-124.2198898588246
 20
442.2087863495407
 30
0.0
 10
-124.2198898588246
 20
442.2087863495407
 30
0.0
 10
-108.1045838215193
 20
442.2087863495407
 30
0.0
 10
-108.1045838215193
 20
442.2087863495407
 30
0.0
 10
-104.8229559521729
 20
442.2087863495407
 30
0.0
 10
-102.1909012650902
 20
441.773842757598
 30
0.0
 10
-100.2080752504953
 20
440.9048168481522
 30
0.0
 10
-98.22576600056418
 20
440.0354464289305
 30
0.0
 10
-96.67288818616294
 20
438.6971982048503
 30
0.0
 10
-95.54926955240373
 20
436.8905889405752
 30
0.0
 10
-94.42633993819612
 20
435.0836351665243
 30
0.0
 10
-93.86461674876047
 20
433.1938267913944
 30
0.0
 10
-93.86461674876047
 20
431.2209915602976
 30
0.0
 10
-93.86461674876047
 20
429.3847544553041
 30
0.0
 10
-94.36260562967384
 20
427.6560044003589
 30
0.0
 10
-95.35892790127635
 20
426.0347413954622
 30
0.0
 10
-96.35507791799097
 20
424.4131338807896
 30
0.0
 10
-97.85955210889284
 20
423.1046857523157
 30
0.0
 10
-99.87114468976668
 20
422.1085357356011
 30
0.0
 10
-97.27354098026356
 20
421.3466523664279
 30
0.0
 10
-95.27607330019737
 20
420.0475060019005
 30
0.0
 10
-93.87925841423181
 20
418.2116134066827
 30
0.0
 10
-92.48278803804203
 20
416.3752040468013
 30
0.0
 10
-91.78412221272741
 20
414.2070317728281
 30
0.0
 10
-91.78412221272741
 20
411.7067520749874
 30
0.0
 10
-91.78412221272741
 20
409.6946427294499
 30
0.0
 10
-92.20907502117198
 20
407.8244714115403
 30
0.0
 10
-93.05880838317323
 20
406.0957213565952
 30
0.0
 10
-93.90854174517447
 20
404.36697130165
 30
0.0
 10
-94.9587797966891
 20
403.0338907242067
 30
0.0
 10
-96.2086612632776
 20
402.0963073693774
 30
0.0
 10
-97.4588872396419
 20
401.1585517596603
 30
0.0
 10
-99.02640671951447
 20
400.4504119155113
 30
0.0
 10
-100.9113919577832
 20
399.9718878369304
 30
0.0
 10
-102.7965494509398
 20
399.4930192485737
 30
0.0
 10
-105.1063152427653
 20
399.2541017190591
 30
0.0
 10
-107.8408615881473
 20
399.2541017190591
 30
0.0
 10
-107.8408615881473
 20
399.2541017190591
 30
0.0
 10
-124.2198898588246
 20
399.2541017190591
 30
0.0
 10
-124.2198898588246
 20
399.2541017190591
 30
0.0
  0
SPLINE
  5
11E
330
FC
100
AcDbEntity
  8
F_BASE
100
AcDbSpline
210
0.0
220
0.0
230
1.0
 70
    11
 71
     3
 72
    32
 73
    28
 74
     0
 42
0.0000000001
 43
0.0000000001
 40
0.0
 40
0.0
 40
0.0
 40
0.0
 40
1.0
 40
1.0
 40
1.0
 40
2.0
 40
2.0
 40
2.0
 40
3.0
 40
3.0
 40
3.0
 40
4.0
 40
4.0
 40
4.0
 40
5.0
 40
5.0
 40
5.0
 40
6.0
 40
6.0
 40
6.0
 40
7.0
 40
7.0
 40
7.0
 40
8.0
 40
8.0
 40
8.0
 40
9.0
 40
9.0
 40
9.0
 40
9.0
 10
-118.5356508130757
 20
424.1595746858036
 30
0.0
 10
-118.5356508130757
 20
424.1595746858036
 30
0.0
 10
-109.2473227478352
 20
424.1595746858036
 30
0.0
 10
-109.2473227478352
 20
424.1595746858036
 30
0.0
 10
-106.7274059927741
 20
424.1595746858036
 30
0.0
 10
-104.9209689833869
 20
424.3252838879616
 30
0.0
 10
-103.8268059354583
 20
424.6577358216048
 30
0.0
 10
-102.3814151711055
 20
425.0871672571348
 30
0.0
 10
-101.2922475149259
 20
425.8004747479208
 30
0.0
 10
-100.5596474766953
 20
426.7966247646354
 30
0.0
 10
-99.82721969335266
 20
427.79277478135
 30
0.0
 10
-99.46100580168134
 20
429.0426562479385
 30
0.0
 10
-99.46100580168134
 20
430.5471304388404
 30
0.0
 10
-99.46100580168134
 20
431.9727118910849
 30
0.0
 10
-99.80293175415903
 20
433.2281055140862
 30
0.0
 10
-100.4864391493386
 20
434.3122777785167
 30
0.0
 10
-101.1704633091819
 20
435.3962777880593
 30
0.0
 10
-102.1469762686762
 20
436.1385241000122
 30
0.0
 10
-103.4164947924851
 20
436.5390167143752
 30
0.0
 10
-104.6865300809576
 20
436.9391648189625
 30
0.0
 10
-106.8643486286531
 20
437.1396695084758
 30
0.0
 10
-109.9504672002352
 20
437.1396695084758
 30
0.0
 10
-109.9504672002352
 20
437.1396695084758
 30
0.0
 10
-118.5356508130757
 20
437.1396695084758
 30
0.0
 10
-118.5356508130757
 20
437.1396695084758
 30
0.0
 10
-118.5356508130757
 20
437.1396695084758
 30
0.0
 10
-118.5356508130757
 20
424.1595746858036
 30
0.0
 10
-118.5356508130757
 20
424.1595746858036
 30
0.0
  0
SPLINE
  5
11F
330
FC
100
AcDbEntity
  8
F_BASE
100
AcDbSpline
210
0.0
220
0.0
230
1.0
 70
    11
 71
     3
 72
    35
 73
    31
 74
     0
 42
0.0000000001
 43
0.0000000001
 40
0.0
 40
0.0
 40
0.0
 40
0.0
 40
1.0
 40
1.0
 40
1.0
 40
2.0
 40
2.0
 40
2.0
 40
3.0
 40
3.0
 40
3.0
 40
4.0
 40
4.0
 40
4.0
 40
5.0
 40
5.0
 40
5.0
 40
6.0
 40
6.0
 40
6.0
 40
7.0
 40
7.0
 40
7.0
 40
8.0
 40
8.0
 40
8.0
 40
9.0
 40
9.0
 40
9.0
 40
10.0
 40
10.0
 40
10.0
 40
10.0
 10
-118.5356508130757
 20
404.323046305236
 30
0.0
 10
-118.5356508130757
 20
404.323046305236
 30
0.0
 10
-107.8408615881473
 20
404.323046305236
 30
0.0
 10
-107.8408615881473
 20
404.323046305236
 30
0.0
 10
-106.0049689929296
 20
404.323046305236
 30
0.0
 10
-104.7158134119003
 20
404.3912592408436
 30
0.0
 10
-103.9732225901717
 20
404.5282018767226
 30
0.0
 10
-102.6647744616978
 20
404.7626407791519
 30
0.0
 10
-101.5706114137692
 20
405.1531426100169
 30
0.0
 10
-100.6915947208253
 20
405.7002241339812
 30
0.0
 10
-99.81257802788133
 20
406.2467888932818
 30
0.0
 10
-99.09014102803675
 20
407.0429509851467
 30
0.0
 10
-98.52325019196417
 20
408.0881936449123
 30
0.0
 10
-97.95704837544316
 20
409.1329195400142
 30
0.0
 10
-97.6736890848508
 20
410.3393927748524
 30
0.0
 10
-97.6736890848508
 20
411.7067520749874
 30
0.0
 10
-97.6736890848508
 20
413.3083780226638
 30
0.0
 10
-98.08382797293615
 20
414.7000252619924
 30
0.0
 10
-98.90427800399472
 20
415.8822105576369
 30
0.0
 10
-99.7247280350533
 20
417.0638790886178
 30
0.0
 10
-100.8628160793959
 20
417.8938031385107
 30
0.0
 10
-102.3176808625832
 20
418.3726717268675
 30
0.0
 10
-103.773234665322
 20
418.8511958054483
 30
0.0
 10
-105.8681986119385
 20
419.0906300996267
 30
0.0
 10
-108.6027449573206
 20
419.0906300996267
 30
0.0
 10
-108.6027449573206
 20
419.0906300996267
 30
0.0
 10
-118.5356508130757
 20
419.0906300996267
 30
0.0
 10
-118.5356508130757
 20
419.0906300996267
 30
0.0
 10
-118.5356508130757
 20
419.0906300996267
 30
0.0
 10
-118.5356508130757
 20
404.323046305236
 30
0.0
 10
-118.5356508130757
 20
404.323046305236
 30
0.0
  0
HATCH
  5
120
330
FC
100
AcDbEntity
  8
F_BASE
 62
     7
100
AcDbHatch
 10
0.0
 20
0.0
 30
0.0
210
0.0
220
0.0
230
1.0
  2
SOLID
 70
     1
 71
     0
 91
        3
 92
        1
 93
        1
 72
     4
 94
        3
 73
     0
 74
     1
 95
       47
 96
       43
 40
0.0
 40
0.0
 40
0.0
 40
0.0
 40
1.0
 40
1.0
 40
1.0
 40
2.0
 40
2.0
 40
2.0
 40
3.0
 40
3.0
 40
3.0
 40
4.0
 40
4.0
 40
4.0
 40
5.0
 40
5.0
 40
5.0
 40
6.0
 40
6.0
 40
6.0
 40
7.0
 40
7.0
 40
7.0
 40
8.0
 40
8.0
 40
8.0
 40
9.0
 40
9.0
 40
9.0
 40
10.0
 40
10.0
 40
10.0
 40
11.0
 40
11.0
 40
11.0
 40
12.0
 40
12.0
 40
12.0
 40
13.0
 40
13.0
 40
13.0
 40
14.0
 40
14.0
 40
14.0
 40
14.0
 10
-124.2198898588246
 20
399.2541017190591
 10
-124.2198898588246
 20
399.2541017190591
 10
-124.2198898588246
 20
442.2087863495407
 10
-124.2198898588246
 20
442.2087863495407
 10
-124.2198898588246
 20
442.2087863495407
 10
-108.1045838215193
 20
442.2087863495407
 10
-108.1045838215193
 20
442.2087863495407
 10
-104.8229559521729
 20
442.2087863495407
 10
-102.1909012650902
 20
441.773842757598
 10
-100.2080752504953
 20
440.9048168481522
 10
-98.22576600056418
 20
440.0354464289305
 10
-96.67288818616294
 20
438.6971982048503
 10
-95.54926955240373
 20
436.8905889405752
 10
-94.42633993819612
 20
435.0836351665243
 10
-93.86461674876047
 20
433.1938267913944
 10
-93.86461674876047
 20
431.2209915602976
 10
-93.86461674876047
 20
429.3847544553041
 10
-94.36260562967384
 20
427.6560044003589
 10
-95.35892790127635
 20
426.0347413954622
 10
-96.35507791799097
 20
424.4131338807896
 10
-97.85955210889284
 20
423.1046857523157
 10
-99.87114468976668
 20
422.1085357356011
 10
-97.27354098026356
 20
421.3466523664279
 10
-95.27607330019737
 20
420.0475060019005
 10
-93.87925841423181
 20
418.2116134066827
 10
-92.48278803804203
 20
416.3752040468013
 10
-91.78412221272741
 20
414.2070317728281
 10
-91.78412221272741
 20
411.7067520749874
 10
-91.78412221272741
 20
409.6946427294499
 10
-92.20907502117198
 20
407.8244714115403
 10
-93.05880838317323
 20
406.0957213565952
 10
-93.90854174517447
 20
404.36697130165
 10
-94.9587797966891
 20
403.0338907242067
 10
-96.2086612632776
 20
402.0963073693774
 10
-97.4588872396419
 20
401.1585517596603
 10
-99.02640671951447
 20
400.4504119155113
 10
-100.9113919577832
 20
399.9718878369304
 10
-102.7965494509398
 20
399.4930192485737
 10
-105.1063152427653
 20
399.2541017190591
 10
-107.8408615881473
 20
399.2541017190591
 10
-107.8408615881473
 20
399.2541017190591
 10
-124.2198898588246
 20
399.2541017190591
 10
-124.2198898588246
 20
399.2541017190591
 97
        0
 92
        1
 93
        1
 72
     4
 94
        3
 73
     0
 74
     1
 95
       32
 96
       28
 40
0.0
 40
0.0
 40
0.0
 40
0.0
 40
1.0
 40
1.0
 40
1.0
 40
2.0
 40
2.0
 40
2.0
 40
3.0
 40
3.0
 40
3.0
 40
4.0
 40
4.0
 40
4.0
 40
5.0
 40
5.0
 40
5.0
 40
6.0
 40
6.0
 40
6.0
 40
7.0
 40
7.0
 40
7.0
 40
8.0
 40
8.0
 40
8.0
 40
9.0
 40
9.0
 40
9.0
 40
9.0
 10
-118.5356508130757
 20
424.1595746858036
 10
-118.5356508130757
 20
424.1595746858036
 10
-109.2473227478352
 20
424.1595746858036
 10
-109.2473227478352
 20
424.1595746858036
 10
-106.7274059927741
 20
424.1595746858036
 10
-104.9209689833869
 20
424.3252838879616
 10
-103.8268059354583
 20
424.6577358216048
 10
-102.3814151711055
 20
425.0871672571348
 10
-101.2922475149259
 20
425.8004747479208
 10
-100.5596474766953
 20
426.7966247646354
 10
-99.82721969335266
 20
427.79277478135
 10
-99.46100580168134
 20
429.0426562479385
 10
-99.46100580168134
 20
430.5471304388404
 10
-99.46100580168134
 20
431.9727118910849
 10
-99.80293175415903
 20
433.2281055140862
 10
-100.4864391493386
 20
434.3122777785167
 10
-101.1704633091819
 20
435.3962777880593
 10
-102.1469762686762
 20
436.1385241000122
 10
-103.4164947924851
 20
436.5390167143752
 10
-104.6865300809576
 20
436.9391648189625
 10
-106.8643486286531
 20
437.1396695084758
 10
-109.9504672002352
 20
437.1396695084758
 10
-109.9504672002352
 20
437.1396695084758
 10
-118.5356508130757
 20
437.1396695084758
 10
-118.5356508130757
 20
437.1396695084758
 10
-118.5356508130757
 20
437.1396695084758
 10
-118.5356508130757
 20
424.1595746858036
 10
-118.5356508130757
 20
424.1595746858036
 97
        0
 92
        1
 93
        1
 72
     4
 94
        3
 73
     0
 74
     1
 95
       35
 96
       31
 40
0.0
 40
0.0
 40
0.0
 40
0.0
 40
1.0
 40
1.0
 40
1.0
 40
2.0
 40
2.0
 40
2.0
 40
3.0
 40
3.0
 40
3.0
 40
4.0
 40
4.0
 40
4.0
 40
5.0
 40
5.0
 40
5.0
 40
6.0
 40
6.0
 40
6.0
 40
7.0
 40
7.0
 40
7.0
 40
8.0
 40
8.0
 40
8.0
 40
9.0
 40
9.0
 40
9.0
 40
10.0
 40
10.0
 40
10.0
 40
10.0
 10
-118.5356508130757
 20
404.323046305236
 10
-118.5356508130757
 20
404.323046305236
 10
-107.8408615881473
 20
404.323046305236
 10
-107.8408615881473
 20
404.323046305236
 10
-106.0049689929296
 20
404.323046305236
 10
-104.7158134119003
 20
404.3912592408436
 10
-103.9732225901717
 20
404.5282018767226
 10
-102.6647744616978
 20
404.7626407791519
 10
-101.5706114137692
 20
405.1531426100169
 10
-100.6915947208253
 20
405.7002241339812
 10
-99.81257802788133
 20
406.2467888932818
 10
-99.09014102803675
 20
407.0429509851467
 10
-98.52325019196417
 20
408.0881936449123
 10
-97.95704837544316
 20
409.1329195400142
 10
-97.6736890848508
 20
410.3393927748524
 10
-97.6736890848508
 20
411.7067520749874
 10
-97.6736890848508
 20
413.3083780226638
 10
-98.08382797293615
 20
414.7000252619924
 10
-98.90427800399472
 20
415.8822105576369
 10
-99.7247280350533
 20
417.0638790886178
 10
-100.8628160793959
 20
417.8938031385107
 10
-102.3176808625832
 20
418.3726717268675
 10
-103.773234665322
 20
418.8511958054483
 10
-105.8681986119385
 20
419.0906300996267
 10
-108.6027449573206
 20
419.0906300996267
 10
-108.6027449573206
 20
419.0906300996267
 10
-118.5356508130757
 20
419.0906300996267
 10
-118.5356508130757
 20
419.0906300996267
 10
-118.5356508130757
 20
419.0906300996267
 10
-118.5356508130757
 20
404.323046305236
 10
-118.5356508130757
 20
404.323046305236
 97
        0
 75
     2
 76
     1
 98
        0
  0
POLYLINE
  5
121
330
FC
100
AcDbEntity
  8
F_BASE
100
AcDb2dPolyline
 66
     1
 10
0.0
 20
0.0
 30
0.0
  0
VERTEX
  5
122
330
121
100
AcDbEntity
  8
F_BASE
100
AcDbVertex
100
AcDb2dVertex
 10
-88.67836658392494
 20
399.2541017190591
 30
0.0
  0
VERTEX
  5
123
330
121
100
AcDbEntity
  8
F_BASE
100
AcDbVertex
100
AcDb2dVertex
 10
-72.18220498947699
 20
442.2087863495407
 30
0.0
  0
VERTEX
  5
124
330
121
100
AcDbEntity
  8
F_BASE
100
AcDbVertex
100
AcDb2dVertex
 10
-66.05837146981219
 20
442.2087863495407
 30
0.0
  0
VERTEX
  5
125
330
121
100
AcDbEntity
  8
F_BASE
100
AcDbVertex
100
AcDb2dVertex
 10
-48.4780376109337
 20
399.2541017190591
 30
0.0
  0
VERTEX
  5
126
330
121
100
AcDbEntity
  8
F_BASE
100
AcDbVertex
100
AcDb2dVertex
 10
-54.95344335679849
 20
399.2541017190591
 30
0.0
  0
VERTEX
  5
127
330
121
100
AcDbEntity
  8
F_BASE
100
AcDbVertex
100
AcDb2dVertex
 10
-59.96382128109007
 20
412.263479872674
 30
0.0
  0
VERTEX
  5
128
330
121
100
AcDbEntity
  8
F_BASE
100
AcDbVertex
100
AcDb2dVertex
 10
-77.92501069711123
 20
412.263479872674
 30
0.0
  0
VERTEX
  5
129
330
121
100
AcDbEntity
  8
F_BASE
100
AcDbVertex
100
AcDb2dVertex
 10
-82.64238305708817
 20
399.2541017190591
 30
0.0
  0
VERTEX
  5
12A
330
121
100
AcDbEntity
  8
F_BASE
100
AcDbVertex
100
AcDb2dVertex
 10
-88.67836658392494
 20
399.2541017190591
 30
0.0
  0
SEQEND
  5
12B
330
121
100
AcDbEntity
  8
F_BASE
  0
SPLINE
  5
12C
330
FC
100
AcDbEntity
  8
F_BASE
100
AcDbSpline
210
0.0
220
0.0
230
1.0
 70
    11
 71
     3
 72
    20
 73
    16
 74
     0
 42
0.0000000001
 43
0.0000000001
 40
0.0
 40
0.0
 40
0.0
 40
0.0
 40
1.0
 40
1.0
 40
1.0
 40
2.0
 40
2.0
 40
2.0
 40
3.0
 40
3.0
 40
3.0
 40
4.0
 40
4.0
 40
4.0
 40
5.0
 40
5.0
 40
5.0
 40
5.0
 10
-76.28428288988198
 20
416.8930022398229
 30
0.0
 10
-76.28428288988198
 20
416.8930022398229
 30
0.0
 10
-61.72185466697792
 20
416.8930022398229
 30
0.0
 10
-61.72185466697792
 20
416.8930022398229
 30
0.0
 10
-61.72185466697792
 20
416.8930022398229
 30
0.0
 10
-66.20478812452556
 20
428.7890970529525
 30
0.0
 10
-66.20478812452556
 20
428.7890970529525
 30
0.0
 10
-67.57231967954846
 20
432.4026600912785
 30
0.0
 10
-68.58827900837136
 20
435.3716453390899
 30
0.0
 10
-69.25214934633057
 20
437.6963973061625
 30
0.0
 10
-69.79923087029489
 20
434.94221390356
 30
0.0
 10
-70.57058825830251
 20
432.2071507935142
 30
0.0
 10
-71.56673827501713
 20
429.4922415053525
 30
0.0
 10
-71.56673827501713
 20
429.4922415053525
 30
0.0
 10
-76.28428288988198
 20
416.8930022398229
 30
0.0
 10
-76.28428288988198
 20
416.8930022398229
 30
0.0
  0
HATCH
  5
12D
330
FC
100
AcDbEntity
  8
F_BASE
 62
     7
100
AcDbHatch
 10
0.0
 20
0.0
 30
0.0
210
0.0
220
0.0
230
1.0
  2
SOLID
 70
     1
 71
     0
 91
        2
 92
        1
 93
        8
 72
     1
 10
-88.67836658392494
 20
399.2541017190591
 11
-72.18220498947699
 21
442.2087863495407
 72
     1
 10
-72.18220498947699
 20
442.2087863495407
 11
-66.05837146981219
 21
442.2087863495407
 72
     1
 10
-66.05837146981219
 20
442.2087863495407
 11
-48.4780376109337
 21
399.2541017190591
 72
     1
 10
-48.4780376109337
 20
399.2541017190591
 11
-54.95344335679849
 21
399.2541017190591
 72
     1
 10
-54.95344335679849
 20
399.2541017190591
 11
-59.96382128109007
 21
412.263479872674
 72
     1
 10
-59.96382128109007
 20
412.263479872674
 11
-77.92501069711123
 21
412.263479872674
 72
     1
 10
-77.92501069711123
 20
412.263479872674
 11
-82.64238305708817
 21
399.2541017190591
 72
     1
 10
-82.64238305708817
 20
399.2541017190591
 11
-88.67836658392494
 21
399.2541017190591
 97
        0
 92
        1
 93
        1
 72
     4
 94
        3
 73
     0
 74
     1
 95
       20
 96
       16
 40
0.0
 40
0.0
 40
0.0
 40
0.0
 40
1.0
 40
1.0
 40
1.0
 40
2.0
 40
2.0
 40
2.0
 40
3.0
 40
3.0
 40
3.0
 40
4.0
 40
4.0
 40
4.0
 40
5.0
 40
5.0
 40
5.0
 40
5.0
 10
-76.28428288988198
 20
416.8930022398229
 10
-76.28428288988198
 20
416.8930022398229
 10
-61.72185466697792
 20
416.8930022398229
 10
-61.72185466697792
 20
416.8930022398229
 10
-61.72185466697792
 20
416.8930022398229
 10
-66.20478812452556
 20
428.7890970529525
 10
-66.20478812452556
 20
428.7890970529525
 10
-67.57231967954846
 20
432.4026600912785
 10
-68.58827900837136
 20
435.3716453390899
 10
-69.25214934633057
 20
437.6963973061625
 10
-69.79923087029489
 20
434.94221390356
 10
-70.57058825830251
 20
432.2071507935142
 10
-71.56673827501713
 20
429.4922415053525
 10
-71.56673827501713
 20
429.4922415053525
 10
-76.28428288988198
 20
416.8930022398229
 10
-76.28428288988198
 20
416.8930022398229
 97
        0
 75
     2
 76
     1
 98
        0
  0
SPLINE
  5
12E
330
FC
100
AcDbEntity
  8
F_BASE
100
AcDbSpline
210
0.0
220
0.0
230
1.0
 70
    11
 71
     3
 72
   110
 73
   106
 74
     0
 42
0.0000000001
 43
0.0000000001
 40
0.0
 40
0.0
 40
0.0
 40
0.0
 40
1.0
 40
1.0
 40
1.0
 40
2.0
 40
2.0
 40
2.0
 40
3.0
 40
3.0
 40
3.0
 40
4.0
 40
4.0
 40
4.0
 40
5.0
 40
5.0
 40
5.0
 40
6.0
 40
6.0
 40
6.0
 40
7.0
 40
7.0
 40
7.0
 40
8.0
 40
8.0
 40
8.0
 40
9.0
 40
9.0
 40
9.0
 40
10.0
 40
10.0
 40
10.0
 40
11.0
 40
11.0
 40
11.0
 40
12.0
 40
12.0
 40
12.0
 40
13.0
 40
13.0
 40
13.0
 40
14.0
 40
14.0
 40
14.0
 40
15.0
 40
15.0
 40
15.0
 40
16.0
 40
16.0
 40
16.0
 40
17.0
 40
17.0
 40
17.0
 40
18.0
 40
18.0
 40
18.0
 40
19.0
 40
19.0
 40
19.0
 40
20.0
 40
20.0
 40
20.0
 40
21.0
 40
21.0
 40
21.0
 40
22.0
 40
22.0
 40
22.0
 40
23.0
 40
23.0
 40
23.0
 40
24.0
 40
24.0
 40
24.0
 40
25.0
 40
25.0
 40
25.0
 40
26.0
 40
26.0
 40
26.0
 40
27.0
 40
27.0
 40
27.0
 40
28.0
 40
28.0
 40
28.0
 40
29.0
 40
29.0
 40
29.0
 40
30.0
 40
30.0
 40
30.0
 40
31.0
 40
31.0
 40
31.0
 40
32.0
 40
32.0
 40
32.0
 40
33.0
 40
33.0
 40
33.0
 40
34.0
 40
34.0
 40
34.0
 40
35.0
 40
35.0
 40
35.0
 40
35.0
 10
-45.8702708630446
 20
413.0546465727899
 30
0.0
 10
-45.8702708630446
 20
413.0546465727899
 30
0.0
 10
-40.50814845766512
 20
413.5235243776485
 30
0.0
 10
-40.50814845766512
 20
413.5235243776485
 30
0.0
 10
-40.25458926267915
 20
411.374472396232
 30
0.0
 10
-39.66358274230082
 20
409.6117881283708
 30
0.0
 10
-38.73547340630594
 20
408.2347825545136
 30
0.0
 10
-37.80805308986265
 20
406.8576047257684
 30
0.0
 10
-36.36731320748307
 20
405.7441491303952
 30
0.0
 10
-34.4137705238309
 20
404.8944157683939
 30
0.0
 10
-32.46074460484242
 20
404.0446824063927
 30
0.0
 10
-30.26311674503865
 20
403.619901852836
 30
0.0
 10
-27.82105919930751
 20
403.619901852836
 30
0.0
 10
-25.65288692533433
 20
403.619901852836
 30
0.0
 10
-23.73879061101081
 20
403.9421907480933
 30
0.0
 10
-22.07825349167328
 20
404.5867685386079
 30
0.0
 10
-20.41806088211154
 20
405.2313463291226
 30
0.0
 10
-19.18247657121858
 20
406.1150139040398
 30
0.0
 10
-18.3716728138823
 20
407.2384602829111
 30
0.0
 10
-17.56138582120971
 20
408.3615621520066
 30
0.0
 10
-17.15572556020972
 20
409.5871556794015
 30
0.0
 10
-17.15572556020972
 20
410.9157576297594
 30
0.0
 10
-17.15572556020972
 20
412.263479872674
 30
0.0
 10
-17.54657190085047
 20
413.4401530119058
 30
0.0
 10
-18.32774781746829
 20
414.4464660670064
 30
0.0
 10
-19.10926824386189
 20
415.4522623574433
 30
0.0
 10
-20.39842382489116
 20
416.2970003276955
 30
0.0
 10
-22.19538681544397
 20
416.9808522326509
 30
0.0
 10
-23.34811652525795
 20
417.4300929802891
 30
0.0
 10
-25.89731661126171
 20
418.1282420409401
 30
0.0
 10
-29.84281481856733
 20
419.0759884341553
 30
0.0
 10
-33.78882979053665
 20
420.0232180627069
 30
0.0
 10
-36.55265946686141
 20
420.9168764211221
 30
0.0
 10
-38.13482061220532
 20
421.7569635094011
 30
0.0
 10
-40.18585956240781
 20
422.8309727354456
 30
0.0
 10
-41.71462169250331
 20
424.1642255677768
 30
0.0
 10
-42.72041798294023
 20
425.7563774966188
 30
0.0
 10
-43.72673103804083
 20
427.3483571705729
 30
0.0
 10
-44.22937080092744
 20
429.1306784956544
 30
0.0
 10
-44.22937080092744
 20
431.1038582365269
 30
0.0
 10
-44.22937080092744
 20
433.2720305105001
 30
0.0
 10
-43.61407634135549
 20
435.2984370117332
 30
0.0
 10
-42.38348742221157
 20
437.1835945048899
 30
0.0
 10
-41.15289850306765
 20
439.0685797431586
 30
0.0
 10
-39.35593551251484
 20
440.4991565871522
 30
0.0
 10
-36.99208168588942
 20
441.4761863113101
 30
0.0
 10
-34.62891687881561
 20
442.4526992708044
 30
0.0
 10
-32.00151307370612
 20
442.9412141328833
 30
0.0
 10
-29.11038703522468
 20
442.9412141328833
 30
0.0
 10
-25.92659994220438
 20
442.9412141328833
 30
0.0
 10
-23.11832850480191
 20
442.4284113316107
 30
0.0
 10
-20.68643399745675
 20
441.4029779839535
 30
0.0
 10
-18.2545394901116
 20
440.3773723814082
 30
0.0
 10
-16.3841959173142
 20
438.868419563421
 30
0.0
 10
-15.07540327906455
 20
436.8759472751039
 30
0.0
 10
-13.7669551505907
 20
434.8836472416746
 30
0.0
 10
-13.06363844330282
 20
432.6274527199855
 30
0.0
 10
-12.96562541208881
 20
430.1075359649245
 30
0.0
 10
-12.96562541208881
 20
430.1075359649245
 30
0.0
 10
-18.41559781029631
 20
429.6973970768391
 30
0.0
 10
-18.41559781029631
 20
429.6973970768391
 30
0.0
 10
-18.70860337461095
 20
432.4123063650008
 30
0.0
 10
-19.70027476424022
 20
434.4633453152033
 30
0.0
 10
-21.38957844985674
 20
435.8505139274466
 30
0.0
 10
-23.07939890013694
 20
437.2371657750261
 30
0.0
 10
-25.57502771600439
 20
437.9308362085918
 30
0.0
 10
-28.87594813279538
 20
437.9308362085918
 30
0.0
 10
-32.31415569524115
 20
437.9308362085918
 30
0.0
 10
-34.81925852994299
 20
437.3009000835485
 30
0.0
 10
-36.39142889178881
 20
436.0410278334618
 30
0.0
 10
-37.96411601829832
 20
434.7809833284874
 30
0.0
 10
-38.75011507177727
 20
433.262039727002
 30
0.0
 10
-38.75011507177727
 20
431.4847137936696
 30
0.0
 10
-38.75011507177727
 20
429.9414822529907
 30
0.0
 10
-38.19355952897857
 20
428.6717914742939
 30
0.0
 10
-37.08010393360535
 20
427.6756414575793
 30
0.0
 10
-35.98628539545251
 20
426.6794914408647
 30
0.0
 10
-33.12943807966278
 20
425.6585367202927
 30
0.0
 10
-28.50973424112405
 20
424.6138108251909
 30
0.0
 10
-23.89020265747323
 20
423.5685681654253
 30
0.0
 10
-20.72071272014847
 20
422.6551004949017
 30
0.0
 10
-19.00160893892559
 20
421.8740968331718
 30
0.0
 10
-16.50150149597279
 20
420.7213671233578
 30
0.0
 10
-14.65544586236902
 20
419.2613346935337
 30
0.0
 10
-13.46378654789008
 20
417.4936550339235
 30
0.0
 10
-12.27247174318692
 20
415.7256308645376
 30
0.0
 10
-11.67646983105955
 20
413.6892335798065
 30
0.0
 10
-11.67646983105955
 20
411.3844631797301
 30
0.0
 10
-11.67646983105955
 20
409.0991575819862
 30
0.0
 10
-12.33121065996017
 20
406.9454547185964
 30
0.0
 10
-13.63965878843402
 20
404.9236990993366
 30
0.0
 10
-14.94862368157156
 20
402.9019434800768
 30
0.0
 10
-16.82878578297915
 20
401.3294286084552
 30
0.0
 10
-19.2799728377689
 20
400.2063267393597
 30
0.0
 10
-21.73167665722233
 20
399.083397125152
 30
0.0
 10
-24.49085545157385
 20
398.5216739357164
 30
0.0
 10
-27.55733696593555
 20
398.5216739357164
 30
0.0
 10
-31.44478527601952
 20
398.5216739357164
 30
0.0
 10
-34.70212520617229
 20
399.0883925169011
 30
0.0
 10
-37.32918450150598
 20
400.220968404831
 30
0.0
 10
-39.95658830661546
 20
401.3537165476488
 30
0.0
 10
-42.01727353054024
 20
403.0581786634003
 30
0.0
 10
-43.51158468305613
 20
405.3340102423098
 30
0.0
 10
-45.00589583557201
 20
407.6093250565556
 30
0.0
 10
-45.79241165371466
 20
410.1831575915288
 30
0.0
 10
-45.8702708630446
 20
413.0546465727899
 30
0.0
  0
HATCH
  5
12F
330
FC
100
AcDbEntity
  8
F_BASE
 62
     7
100
AcDbHatch
 10
0.0
 20
0.0
 30
0.0
210
0.0
220
0.0
230
1.0
  2
SOLID
 70
     1
 71
     0
 91
        1
 92
        1
 93
        1
 72
     4
 94
        3
 73
     0
 74
     1
 95
      110
 96
      106
 40
0.0
 40
0.0
 40
0.0
 40
0.0
 40
1.0
 40
1.0
 40
1.0
 40
2.0
 40
2.0
 40
2.0
 40
3.0
 40
3.0
 40
3.0
 40
4.0
 40
4.0
 40
4.0
 40
5.0
 40
5.0
 40
5.0
 40
6.0
 40
6.0
 40
6.0
 40
7.0
 40
7.0
 40
7.0
 40
8.0
 40
8.0
 40
8.0
 40
9.0
 40
9.0
 40
9.0
 40
10.0
 40
10.0
 40
10.0
 40
11.0
 40
11.0
 40
11.0
 40
12.0
 40
12.0
 40
12.0
 40
13.0
 40
13.0
 40
13.0
 40
14.0
 40
14.0
 40
14.0
 40
15.0
 40
15.0
 40
15.0
 40
16.0
 40
16.0
 40
16.0
 40
17.0
 40
17.0
 40
17.0
 40
18.0
 40
18.0
 40
18.0
 40
19.0
 40
19.0
 40
19.0
 40
20.0
 40
20.0
 40
20.0
 40
21.0
 40
21.0
 40
21.0
 40
22.0
 40
22.0
 40
22.0
 40
23.0
 40
23.0
 40
23.0
 40
24.0
 40
24.0
 40
24.0
 40
25.0
 40
25.0
 40
25.0
 40
26.0
 40
26.0
 40
26.0
 40
27.0
 40
27.0
 40
27.0
 40
28.0
 40
28.0
 40
28.0
 40
29.0
 40
29.0
 40
29.0
 40
30.0
 40
30.0
 40
30.0
 40
31.0
 40
31.0
 40
31.0
 40
32.0
 40
32.0
 40
32.0
 40
33.0
 40
33.0
 40
33.0
 40
34.0
 40
34.0
 40
34.0
 40
35.0
 40
35.0
 40
35.0
 40
35.0
 10
-45.8702708630446
 20
413.0546465727899
 10
-45.8702708630446
 20
413.0546465727899
 10
-40.50814845766512
 20
413.5235243776485
 10
-40.50814845766512
 20
413.5235243776485
 10
-40.25458926267915
 20
411.374472396232
 10
-39.66358274230082
 20
409.6117881283708
 10
-38.73547340630594
 20
408.2347825545136
 10
-37.80805308986265
 20
406.8576047257684
 10
-36.36731320748307
 20
405.7441491303952
 10
-34.4137705238309
 20
404.8944157683939
 10
-32.46074460484242
 20
404.0446824063927
 10
-30.26311674503865
 20
403.619901852836
 10
-27.82105919930751
 20
403.619901852836
 10
-25.65288692533433
 20
403.619901852836
 10
-23.73879061101081
 20
403.9421907480933
 10
-22.07825349167328
 20
404.5867685386079
 10
-20.41806088211154
 20
405.2313463291226
 10
-19.18247657121858
 20
406.1150139040398
 10
-18.3716728138823
 20
407.2384602829111
 10
-17.56138582120971
 20
408.3615621520066
 10
-17.15572556020972
 20
409.5871556794015
 10
-17.15572556020972
 20
410.9157576297594
 10
-17.15572556020972
 20
412.263479872674
 10
-17.54657190085047
 20
413.4401530119058
 10
-18.32774781746829
 20
414.4464660670064
 10
-19.10926824386189
 20
415.4522623574433
 10
-20.39842382489116
 20
416.2970003276955
 10
-22.19538681544397
 20
416.9808522326509
 10
-23.34811652525795
 20
417.4300929802891
 10
-25.89731661126171
 20
418.1282420409401
 10
-29.84281481856733
 20
419.0759884341553
 10
-33.78882979053665
 20
420.0232180627069
 10
-36.55265946686141
 20
420.9168764211221
 10
-38.13482061220532
 20
421.7569635094011
 10
-40.18585956240781
 20
422.8309727354456
 10
-41.71462169250331
 20
424.1642255677768
 10
-42.72041798294023
 20
425.7563774966188
 10
-43.72673103804083
 20
427.3483571705729
 10
-44.22937080092744
 20
429.1306784956544
 10
-44.22937080092744
 20
431.1038582365269
 10
-44.22937080092744
 20
433.2720305105001
 10
-43.61407634135549
 20
435.2984370117332
 10
-42.38348742221157
 20
437.1835945048899
 10
-41.15289850306765
 20
439.0685797431586
 10
-39.35593551251484
 20
440.4991565871522
 10
-36.99208168588942
 20
441.4761863113101
 10
-34.62891687881561
 20
442.4526992708044
 10
-32.00151307370612
 20
442.9412141328833
 10
-29.11038703522468
 20
442.9412141328833
 10
-25.92659994220438
 20
442.9412141328833
 10
-23.11832850480191
 20
442.4284113316107
 10
-20.68643399745675
 20
441.4029779839535
 10
-18.2545394901116
 20
440.3773723814082
 10
-16.3841959173142
 20
438.868419563421
 10
-15.07540327906455
 20
436.8759472751039
 10
-13.7669551505907
 20
434.8836472416746
 10
-13.06363844330282
 20
432.6274527199855
 10
-12.96562541208881
 20
430.1075359649245
 10
-12.96562541208881
 20
430.1075359649245
 10
-18.41559781029631
 20
429.6973970768391
 10
-18.41559781029631
 20
429.6973970768391
 10
-18.70860337461095
 20
432.4123063650008
 10
-19.70027476424022
 20
434.4633453152033
 10
-21.38957844985674
 20
435.8505139274466
 10
-23.07939890013694
 20
437.2371657750261
 10
-25.57502771600439
 20
437.9308362085918
 10
-28.87594813279538
 20
437.9308362085918
 10
-32.31415569524115
 20
437.9308362085918
 10
-34.81925852994299
 20
437.3009000835485
 10
-36.39142889178881
 20
436.0410278334618
 10
-37.96411601829832
 20
434.7809833284874
 10
-38.75011507177727
 20
433.262039727002
 10
-38.75011507177727
 20
431.4847137936696
 10
-38.75011507177727
 20
429.9414822529907
 10
-38.19355952897857
 20
428.6717914742939
 10
-37.08010393360535
 20
427.6756414575793
 10
-35.98628539545251
 20
426.6794914408647
 10
-33.12943807966278
 20
425.6585367202927
 10
-28.50973424112405
 20
424.6138108251909
 10
-23.89020265747323
 20
423.5685681654253
 10
-20.72071272014847
 20
422.6551004949017
 10
-19.00160893892559
 20
421.8740968331718
 10
-16.50150149597279
 20
420.7213671233578
 10
-14.65544586236902
 20
419.2613346935337
 10
-13.46378654789008
 20
417.4936550339235
 10
-12.27247174318692
 20
415.7256308645376
 10
-11.67646983105955
 20
413.6892335798065
 10
-11.67646983105955
 20
411.3844631797301
 10
-11.67646983105955
 20
409.0991575819862
 10
-12.33121065996017
 20
406.9454547185964
 10
-13.63965878843402
 20
404.9236990993366
 10
-14.94862368157156
 20
402.9019434800768
 10
-16.82878578297915
 20
401.3294286084552
 10
-19.2799728377689
 20
400.2063267393597
 10
-21.73167665722233
 20
399.083397125152
 10
-24.49085545157385
 20
398.5216739357164
 10
-27.55733696593555
 20
398.5216739357164
 10
-31.44478527601952
 20
398.5216739357164
 10
-34.70212520617229
 20
399.0883925169011
 10
-37.32918450150598
 20
400.220968404831
 10
-39.95658830661546
 20
401.3537165476488
 10
-42.01727353054024
 20
403.0581786634003
 10
-43.51158468305613
 20
405.3340102423098
 10
-45.00589583557201
 20
407.6093250565556
 10
-45.79241165371466
 20
410.1831575915288
 10
-45.8702708630446
 20
413.0546465727899
 97
        0
 75
     2
 76
     1
 98
        0
  0
POLYLINE
  5
130
330
FC
100
AcDbEntity
  8
F_BASE
100
AcDb2dPolyline
 66
     1
 10
0.0
 20
0.0
 30
0.0
  0
VERTEX
  5
131
330
130
100
AcDbEntity
  8
F_BASE
100
AcDbVertex
100
AcDb2dVertex
 10
-3.794602925506902
 20
399.2541017190591
 30
0.0
  0
VERTEX
  5
132
330
130
100
AcDbEntity
  8
F_BASE
100
AcDbVertex
100
AcDb2dVertex
 10
-3.794602925506902
 20
442.2087863495407
 30
0.0
  0
VERTEX
  5
133
330
130
100
AcDbEntity
  8
F_BASE
100
AcDbVertex
100
AcDb2dVertex
 10
27.26398689184511
 20
442.2087863495407
 30
0.0
  0
VERTEX
  5
134
330
130
100
AcDbEntity
  8
F_BASE
100
AcDbVertex
100
AcDb2dVertex
 10
27.26398689184511
 20
437.1396695084758
 30
0.0
  0
VERTEX
  5
135
330
130
100
AcDbEntity
  8
F_BASE
100
AcDbVertex
100
AcDb2dVertex
 10
1.889636120241986
 20
437.1396695084758
 30
0.0
  0
VERTEX
  5
136
330
130
100
AcDbEntity
  8
F_BASE
100
AcDbVertex
100
AcDb2dVertex
 10
1.889636120241986
 20
423.9837024452597
 30
0.0
  0
VERTEX
  5
137
330
130
100
AcDbEntity
  8
F_BASE
100
AcDbVertex
100
AcDb2dVertex
 10
25.65237016067063
 20
423.9837024452597
 30
0.0
  0
VERTEX
  5
138
330
130
100
AcDbEntity
  8
F_BASE
100
AcDbVertex
100
AcDb2dVertex
 10
25.65237016067063
 20
418.9440411900254
 30
0.0
  0
VERTEX
  5
139
330
130
100
AcDbEntity
  8
F_BASE
100
AcDbVertex
100
AcDb2dVertex
 10
1.889636120241986
 20
418.9440411900254
 30
0.0
  0
VERTEX
  5
13A
330
130
100
AcDbEntity
  8
F_BASE
100
AcDbVertex
100
AcDb2dVertex
 10
1.889636120241986
 20
404.323046305236
 30
0.0
  0
VERTEX
  5
13B
330
130
100
AcDbEntity
  8
F_BASE
100
AcDbVertex
100
AcDb2dVertex
 10
28.26013690855973
 20
404.323046305236
 30
0.0
  0
VERTEX
  5
13C
330
130
100
AcDbEntity
  8
F_BASE
100
AcDbVertex
100
AcDb2dVertex
 10
28.26013690855973
 20
399.2541017190591
 30
0.0
  0
VERTEX
  5
13D
330
130
100
AcDbEntity
  8
F_BASE
100
AcDbVertex
100
AcDb2dVertex
 10
-3.794602925506902
 20
399.2541017190591
 30
0.0
  0
SEQEND
  5
13E
330
130
100
AcDbEntity
  8
F_BASE
  0
HATCH
  5
13F
330
FC
100
AcDbEntity
  8
F_BASE
 62
     7
100
AcDbHatch
 10
0.0
 20
0.0
 30
0.0
210
0.0
220
0.0
230
1.0
  2
SOLID
 70
     1
 71
     0
 91
        1
 92
        1
 93
       12
 72
     1
 10
-3.794602925506902
 20
399.2541017190591
 11
-3.794602925506902
 21
442.2087863495407
 72
     1
 10
-3.794602925506902
 20
442.2087863495407
 11
27.26398689184511
 21
442.2087863495407
 72
     1
 10
27.26398689184511
 20
442.2087863495407
 11
27.26398689184511
 21
437.1396695084758
 72
     1
 10
27.26398689184511
 20
437.1396695084758
 11
1.889636120241985
 21
437.1396695084758
 72
     1
 10
1.889636120241986
 20
437.1396695084758
 11
1.889636120241986
 21
423.9837024452597
 72
     1
 10
1.889636120241986
 20
423.9837024452597
 11
25.65237016067063
 21
423.9837024452597
 72
     1
 10
25.65237016067063
 20
423.9837024452597
 11
25.65237016067063
 21
418.9440411900254
 72
     1
 10
25.65237016067063
 20
418.9440411900254
 11
1.889636120241985
 21
418.9440411900254
 72
     1
 10
1.889636120241986
 20
418.9440411900254
 11
1.889636120241986
 21
404.323046305236
 72
     1
 10
1.889636120241986
 20
404.323046305236
 11
28.26013690855973
 21
404.323046305236
 72
     1
 10
28.26013690855973
 20
404.323046305236
 11
28.26013690855973
 21
399.2541017190591
 72
     1
 10
28.26013690855973
 20
399.2541017190591
 11
-3.794602925506901
 21
399.2541017190591
 97
        0
 75
     2
 76
     1
 98
        0
  0
SPLINE
  5
140
330
FC
100
AcDbEntity
  8
F_BASE
100
AcDbSpline
210
0.0
220
0.0
230
1.0
 70
    11
 71
     3
 72
    38
 73
    34
 74
     0
 42
0.0000000001
 43
0.0000000001
 40
0.0
 40
0.0
 40
0.0
 40
0.0
 40
1.0
 40
1.0
 40
1.0
 40
2.0
 40
2.0
 40
2.0
 40
3.0
 40
3.0
 40
3.0
 40
4.0
 40
4.0
 40
4.0
 40
5.0
 40
5.0
 40
5.0
 40
6.0
 40
6.0
 40
6.0
 40
7.0
 40
7.0
 40
7.0
 40
8.0
 40
8.0
 40
8.0
 40
9.0
 40
9.0
 40
9.0
 40
10.0
 40
10.0
 40
10.0
 40
11.0
 40
11.0
 40
11.0
 40
11.0
 10
52.7847543181616
 20
399.2541017190591
 30
0.0
 10
52.7847543181616
 20
399.2541017190591
 30
0.0
 10
52.7847543181616
 20
442.2087863495407
 30
0.0
 10
52.7847543181616
 20
442.2087863495407
 30
0.0
 10
52.7847543181616
 20
442.2087863495407
 30
0.0
 10
68.98791034829492
 20
442.2087863495407
 30
0.0
 10
68.98791034829492
 20
442.2087863495407
 30
0.0
 10
71.8397622723356
 20
442.2087863495407
 30
0.0
 10
74.01758082003109
 20
442.0718437136617
 30
0.0
 10
75.52205501093295
 20
441.7984752065674
 30
0.0
 10
77.63166062302079
 20
441.4469029803674
 30
0.0
 10
79.39916802774303
 20
440.7775204859955
 30
0.0
 10
80.82543849953917
 20
439.791361252779
 30
0.0
 10
82.25101995178372
 20
438.8048575097866
 30
0.0
 10
83.39875426984865
 20
437.4226842892924
 30
0.0
 10
84.26812468907029
 20
435.64535835596
 30
0.0
 10
85.13715059851613
 20
433.8676879128517
 30
0.0
 10
85.57209419045878
 20
431.9141452291996
 30
0.0
 10
85.57209419045878
 20
429.7852470696672
 30
0.0
 10
85.57209419045878
 20
426.1324099169004
 30
0.0
 10
84.40971820692252
 20
423.0411236986813
 30
0.0
 10
82.08531074962576
 20
420.5117329247859
 30
0.0
 10
79.76055878255322
 20
417.9816531313388
 30
0.0
 10
75.56098461559792
 20
416.7173022541668
 30
0.0
 10
69.48607148409617
 20
416.7173022541668
 30
0.0
 10
69.48607148409617
 20
416.7173022541668
 30
0.0
 10
58.46899336391049
 20
416.7173022541668
 30
0.0
 10
58.46899336391049
 20
416.7173022541668
 30
0.0
 10
58.46899336391049
 20
416.7173022541668
 30
0.0
 10
58.46899336391049
 20
399.2541017190591
 30
0.0
 10
58.46899336391049
 20
399.2541017190591
 30
0.0
 10
58.46899336391049
 20
399.2541017190591
 30
0.0
 10
52.7847543181616
 20
399.2541017190591
 30
0.0
 10
52.7847543181616
 20
399.2541017190591
 30
0.0
  0
SPLINE
  5
141
330
FC
100
AcDbEntity
  8
F_BASE
100
AcDbSpline
210
0.0
220
0.0
230
1.0
 70
    11
 71
     3
 72
    29
 73
    25
 74
     0
 42
0.0000000001
 43
0.0000000001
 40
0.0
 40
0.0
 40
0.0
 40
0.0
 40
1.0
 40
1.0
 40
1.0
 40
2.0
 40
2.0
 40
2.0
 40
3.0
 40
3.0
 40
3.0
 40
4.0
 40
4.0
 40
4.0
 40
5.0
 40
5.0
 40
5.0
 40
6.0
 40
6.0
 40
6.0
 40
7.0
 40
7.0
 40
7.0
 40
8.0
 40
8.0
 40
8.0
 40
8.0
 10
58.46899336391049
 20
421.7862468403438
 30
0.0
 10
58.46899336391049
 20
421.7862468403438
 30
0.0
 10
69.5739214769242
 20
421.7862468403438
 30
0.0
 10
69.5739214769242
 20
421.7862468403438
 30
0.0
 10
73.24622343202346
 20
421.7862468403438
 30
0.0
 10
75.85381792502466
 20
422.4697542355234
 30
0.0
 10
77.3972217205915
 20
423.8372857905463
 30
0.0
 10
78.94010875149463
 20
425.2043005809055
 30
0.0
 10
79.71198290416595
 20
427.128559933615
 30
0.0
 10
79.71198290416595
 20
429.6095470840111
 30
0.0
 10
79.71198290416595
 20
431.4065100745639
 30
0.0
 10
79.2577467647787
 20
432.9447462234938
 30
0.0
 10
78.3494467408921
 20
434.2242555308007
 30
0.0
 10
77.44114671700551
 20
435.503420328332
 30
0.0
 10
76.24449201077752
 20
436.3486750632479
 30
0.0
 10
74.76017164175973
 20
436.7588139513332
 30
0.0
 10
73.80295122971006
 20
437.0123731463191
 30
0.0
 10
72.03527157009992
 20
437.1396695084758
 30
0.0
 10
69.4567881531535
 20
437.1396695084758
 30
0.0
 10
69.4567881531535
 20
437.1396695084758
 30
0.0
 10
58.46899336391049
 20
437.1396695084758
 30
0.0
 10
58.46899336391049
 20
437.1396695084758
 30
0.0
 10
58.46899336391049
 20
437.1396695084758
 30
0.0
 10
58.46899336391049
 20
421.7862468403438
 30
0.0
 10
58.46899336391049
 20
421.7862468403438
 30
0.0
  0
HATCH
  5
142
330
FC
100
AcDbEntity
  8
F_BASE
 62
     7
100
AcDbHatch
 10
0.0
 20
0.0
 30
0.0
210
0.0
220
0.0
230
1.0
  2
SOLID
 70
     1
 71
     0
 91
        2
 92
        1
 93
        1
 72
     4
 94
        3
 73
     0
 74
     1
 95
       38
 96
       34
 40
0.0
 40
0.0
 40
0.0
 40
0.0
 40
1.0
 40
1.0
 40
1.0
 40
2.0
 40
2.0
 40
2.0
 40
3.0
 40
3.0
 40
3.0
 40
4.0
 40
4.0
 40
4.0
 40
5.0
 40
5.0
 40
5.0
 40
6.0
 40
6.0
 40
6.0
 40
7.0
 40
7.0
 40
7.0
 40
8.0
 40
8.0
 40
8.0
 40
9.0
 40
9.0
 40
9.0
 40
10.0
 40
10.0
 40
10.0
 40
11.0
 40
11.0
 40
11.0
 40
11.0
 10
52.7847543181616
 20
399.2541017190591
 10
52.7847543181616
 20
399.2541017190591
 10
52.7847543181616
 20
442.2087863495407
 10
52.7847543181616
 20
442.2087863495407
 10
52.7847543181616
 20
442.2087863495407
 10
68.98791034829492
 20
442.2087863495407
 10
68.98791034829492
 20
442.2087863495407
 10
71.8397622723356
 20
442.2087863495407
 10
74.01758082003109
 20
442.0718437136617
 10
75.52205501093295
 20
441.7984752065674
 10
77.63166062302079
 20
441.4469029803674
 10
79.39916802774303
 20
440.7775204859955
 10
80.82543849953917
 20
439.791361252779
 10
82.25101995178372
 20
438.8048575097866
 10
83.39875426984865
 20
437.4226842892924
 10
84.26812468907029
 20
435.64535835596
 10
85.13715059851613
 20
433.8676879128517
 10
85.57209419045878
 20
431.9141452291996
 10
85.57209419045878
 20
429.7852470696672
 10
85.57209419045878
 20
426.1324099169004
 10
84.40971820692252
 20
423.0411236986813
 10
82.08531074962576
 20
420.5117329247859
 10
79.76055878255322
 20
417.9816531313388
 10
75.56098461559792
 20
416.7173022541668
 10
69.48607148409617
 20
416.7173022541668
 10
69.48607148409617
 20
416.7173022541668
 10
58.46899336391049
 20
416.7173022541668
 10
58.46899336391049
 20
416.7173022541668
 10
58.46899336391049
 20
416.7173022541668
 10
58.46899336391049
 20
399.2541017190591
 10
58.46899336391049
 20
399.2541017190591
 10
58.46899336391049
 20
399.2541017190591
 10
52.7847543181616
 20
399.2541017190591
 10
52.7847543181616
 20
399.2541017190591
 97
        0
 92
        1
 93
        1
 72
     4
 94
        3
 73
     0
 74
     1
 95
       29
 96
       25
 40
0.0
 40
0.0
 40
0.0
 40
0.0
 40
1.0
 40
1.0
 40
1.0
 40
2.0
 40
2.0
 40
2.0
 40
3.0
 40
3.0
 40
3.0
 40
4.0
 40
4.0
 40
4.0
 40
5.0
 40
5.0
 40
5.0
 40
6.0
 40
6.0
 40
6.0
 40
7.0
 40
7.0
 40
7.0
 40
8.0
 40
8.0
 40
8.0
 40
8.0
 10
58.46899336391049
 20
421.7862468403438
 10
58.46899336391049
 20
421.7862468403438
 10
69.5739214769242
 20
421.7862468403438
 10
69.5739214769242
 20
421.7862468403438
 10
73.24622343202346
 20
421.7862468403438
 10
75.85381792502466
 20
422.4697542355234
 10
77.3972217205915
 20
423.8372857905463
 10
78.94010875149463
 20
425.2043005809055
 10
79.71198290416595
 20
427.128559933615
 10
79.71198290416595
 20
429.6095470840111
 10
79.71198290416595
 20
431.4065100745639
 10
79.2577467647787
 20
432.9447462234938
 10
78.3494467408921
 20
434.2242555308007
 10
77.44114671700551
 20
435.503420328332
 10
76.24449201077752
 20
436.3486750632479
 10
74.76017164175973
 20
436.7588139513332
 10
73.80295122971006
 20
437.0123731463191
 10
72.03527157009992
 20
437.1396695084758
 10
69.4567881531535
 20
437.1396695084758
 10
69.4567881531535
 20
437.1396695084758
 10
58.46899336391049
 20
437.1396695084758
 10
58.46899336391049
 20
437.1396695084758
 10
58.46899336391049
 20
437.1396695084758
 10
58.46899336391049
 20
421.7862468403438
 10
58.46899336391049
 20
421.7862468403438
 97
        0
 75
     2
 76
     1
 98
        0
  0
POLYLINE
  5
143
330
FC
100
AcDbEntity
  8
F_BASE
100
AcDb2dPolyline
 66
     1
 10
0.0
 20
0.0
 30
0.0
  0
VERTEX
  5
144
330
143
100
AcDbEntity
  8
F_BASE
100
AcDbVertex
100
AcDb2dVertex
 10
92.5749444030675
 20
399.2541017190591
 30
0.0
  0
VERTEX
  5
145
330
143
100
AcDbEntity
  8
F_BASE
100
AcDbVertex
100
AcDb2dVertex
 10
92.5749444030675
 20
442.2087863495407
 30
0.0
  0
VERTEX
  5
146
330
143
100
AcDbEntity
  8
F_BASE
100
AcDbVertex
100
AcDb2dVertex
 10
98.2591834488164
 20
442.2087863495407
 30
0.0
  0
VERTEX
  5
147
330
143
100
AcDbEntity
  8
F_BASE
100
AcDbVertex
100
AcDb2dVertex
 10
98.2591834488164
 20
404.323046305236
 30
0.0
  0
VERTEX
  5
148
330
143
100
AcDbEntity
  8
F_BASE
100
AcDbVertex
100
AcDb2dVertex
 10
119.4143229962438
 20
404.323046305236
 30
0.0
  0
VERTEX
  5
149
330
143
100
AcDbEntity
  8
F_BASE
100
AcDbVertex
100
AcDb2dVertex
 10
119.4143229962438
 20
399.2541017190591
 30
0.0
  0
VERTEX
  5
14A
330
143
100
AcDbEntity
  8
F_BASE
100
AcDbVertex
100
AcDb2dVertex
 10
92.5749444030675
 20
399.2541017190591
 30
0.0
  0
SEQEND
  5
14B
330
143
100
AcDbEntity
  8
F_BASE
  0
HATCH
  5
14C
330
FC
100
AcDbEntity
  8
F_BASE
 62
     7
100
AcDbHatch
 10
0.0
 20
0.0
 30
0.0
210
0.0
220
0.0
230
1.0
  2
SOLID
 70
     1
 71
     0
 91
        1
 92
        1
 93
        6
 72
     1
 10
92.5749444030675
 20
399.2541017190591
 11
92.5749444030675
 21
442.2087863495407
 72
     1
 10
92.5749444030675
 20
442.2087863495407
 11
98.2591834488164
 21
442.2087863495407
 72
     1
 10
98.2591834488164
 20
442.2087863495407
 11
98.2591834488164
 21
404.323046305236
 72
     1
 10
98.2591834488164
 20
404.323046305236
 11
119.4143229962438
 21
404.323046305236
 72
     1
 10
119.4143229962438
 20
404.323046305236
 11
119.4143229962438
 21
399.2541017190591
 72
     1
 10
119.4143229962438
 20
399.2541017190591
 11
92.5749444030675
 21
399.2541017190591
 97
        0
 75
     2
 76
     1
 98
        0
  0
POLYLINE
  5
14D
330
FC
100
AcDbEntity
  8
F_BASE
100
AcDb2dPolyline
 66
     1
 10
0.0
 20
0.0
 30
0.0
  0
VERTEX
  5
14E
330
14D
100
AcDbEntity
  8
F_BASE
100
AcDbVertex
100
AcDb2dVertex
 10
121.4651896915584
 20
399.2541017190591
 30
0.0
  0
VERTEX
  5
14F
330
14D
100
AcDbEntity
  8
F_BASE
100
AcDbVertex
100
AcDb2dVertex
 10
137.9613512860064
 20
442.2087863495407
 30
0.0
  0
VERTEX
  5
150
330
14D
100
AcDbEntity
  8
F_BASE
100
AcDbVertex
100
AcDb2dVertex
 10
144.0853570605591
 20
442.2087863495407
 30
0.0
  0
VERTEX
  5
151
330
14D
100
AcDbEntity
  8
F_BASE
100
AcDbVertex
100
AcDb2dVertex
 10
161.6656909194376
 20
399.2541017190591
 30
0.0
  0
VERTEX
  5
152
330
14D
100
AcDbEntity
  8
F_BASE
100
AcDbVertex
100
AcDb2dVertex
 10
155.1902851735728
 20
399.2541017190591
 30
0.0
  0
VERTEX
  5
153
330
14D
100
AcDbEntity
  8
F_BASE
100
AcDbVertex
100
AcDb2dVertex
 10
150.1797349943933
 20
412.263479872674
 30
0.0
  0
VERTEX
  5
154
330
14D
100
AcDbEntity
  8
F_BASE
100
AcDbVertex
100
AcDb2dVertex
 10
132.2187178332601
 20
412.263479872674
 30
0.0
  0
VERTEX
  5
155
330
14D
100
AcDbEntity
  8
F_BASE
100
AcDbVertex
100
AcDb2dVertex
 10
127.5010009635073
 20
399.2541017190591
 30
0.0
  0
VERTEX
  5
156
330
14D
100
AcDbEntity
  8
F_BASE
100
AcDbVertex
100
AcDb2dVertex
 10
121.4651896915584
 20
399.2541017190591
 30
0.0
  0
SEQEND
  5
157
330
14D
100
AcDbEntity
  8
F_BASE
  0
SPLINE
  5
158
330
FC
100
AcDbEntity
  8
F_BASE
100
AcDbSpline
210
0.0
220
0.0
230
1.0
 70
    11
 71
     3
 72
    20
 73
    16
 74
     0
 42
0.0000000001
 43
0.0000000001
 40
0.0
 40
0.0
 40
0.0
 40
0.0
 40
1.0
 40
1.0
 40
1.0
 40
2.0
 40
2.0
 40
2.0
 40
3.0
 40
3.0
 40
3.0
 40
4.0
 40
4.0
 40
4.0
 40
5.0
 40
5.0
 40
5.0
 40
5.0
 10
133.8592733856014
 20
416.8930022398229
 30
0.0
 10
133.8592733856014
 20
416.8930022398229
 30
0.0
 10
148.4217016085055
 20
416.8930022398229
 30
0.0
 10
148.4217016085055
 20
416.8930022398229
 30
0.0
 10
148.4217016085055
 20
416.8930022398229
 30
0.0
 10
143.9389404058457
 20
428.7890970529525
 30
0.0
 10
143.9389404058457
 20
428.7890970529525
 30
0.0
 10
142.5712365959349
 20
432.4026600912785
 30
0.0
 10
141.555277267112
 20
435.3716453390899
 30
0.0
 10
140.8914069291528
 20
437.6963973061625
 30
0.0
 10
140.3443254051885
 20
434.94221390356
 30
0.0
 10
139.5729680171809
 20
432.2071507935142
 30
0.0
 10
138.5766457455783
 20
429.4922415053525
 30
0.0
 10
138.5766457455783
 20
429.4922415053525
 30
0.0
 10
133.8592733856014
 20
416.8930022398229
 30
0.0
 10
133.8592733856014
 20
416.8930022398229
 30
0.0
  0
HATCH
  5
159
330
FC
100
AcDbEntity
  8
F_BASE
 62
     7
100
AcDbHatch
 10
0.0
 20
0.0
 30
0.0
210
0.0
220
0.0
230
1.0
  2
SOLID
 70
     1
 71
     0
 91
        2
 92
        1
 93
        8
 72
     1
 10
121.4651896915584
 20
399.2541017190591
 11
137.9613512860064
 21
442.2087863495407
 72
     1
 10
137.9613512860064
 20
442.2087863495407
 11
144.0853570605591
 21
442.2087863495407
 72
     1
 10
144.0853570605591
 20
442.2087863495407
 11
161.6656909194376
 21
399.2541017190591
 72
     1
 10
161.6656909194376
 20
399.2541017190591
 11
155.1902851735728
 21
399.2541017190591
 72
     1
 10
155.1902851735728
 20
399.2541017190591
 11
150.1797349943933
 21
412.263479872674
 72
     1
 10
150.1797349943933
 20
412.263479872674
 11
132.2187178332601
 21
412.263479872674
 72
     1
 10
132.2187178332601
 20
412.263479872674
 11
127.5010009635073
 21
399.2541017190591
 72
     1
 10
127.5010009635073
 20
399.2541017190591
 11
121.4651896915584
 21
399.2541017190591
 97
        0
 92
        1
 93
        1
 72
     4
 94
        3
 73
     0
 74
     1
 95
       20
 96
       16
 40
0.0
 40
0.0
 40
0.0
 40
0.0
 40
1.0
 40
1.0
 40
1.0
 40
2.0
 40
2.0
 40
2.0
 40
3.0
 40
3.0
 40
3.0
 40
4.0
 40
4.0
 40
4.0
 40
5.0
 40
5.0
 40
5.0
 40
5.0
 10
133.8592733856014
 20
416.8930022398229
 10
133.8592733856014
 20
416.8930022398229
 10
148.4217016085055
 20
416.8930022398229
 10
148.4217016085055
 20
416.8930022398229
 10
148.4217016085055
 20
416.8930022398229
 10
143.9389404058457
 20
428.7890970529525
 10
143.9389404058457
 20
428.7890970529525
 10
142.5712365959349
 20
432.4026600912785
 10
141.555277267112
 20
435.3716453390899
 10
140.8914069291528
 20
437.6963973061625
 10
140.3443254051885
 20
434.94221390356
 10
139.5729680171809
 20
432.2071507935142
 10
138.5766457455783
 20
429.4922415053525
 10
138.5766457455783
 20
429.4922415053525
 10
133.8592733856014
 20
416.8930022398229
 10
133.8592733856014
 20
416.8930022398229
 97
        0
 75
     2
 76
     1
 98
        0
  0
POLYLINE
  5
15A
330
FC
100
AcDbEntity
  8
F_BASE
100
AcDb2dPolyline
 66
     1
 10
0.0
 20
0.0
 30
0.0
  0
VERTEX
  5
15B
330
15A
100
AcDbEntity
  8
F_BASE
100
AcDbVertex
100
AcDb2dVertex
 10
172.6827690396233
 20
399.2541017190591
 30
0.0
  0
VERTEX
  5
15C
330
15A
100
AcDbEntity
  8
F_BASE
100
AcDbVertex
100
AcDb2dVertex
 10
172.6827690396233
 20
437.1396695084758
 30
0.0
  0
VERTEX
  5
15D
330
15A
100
AcDbEntity
  8
F_BASE
100
AcDbVertex
100
AcDb2dVertex
 10
158.5303074499166
 20
437.1396695084758
 30
0.0
  0
VERTEX
  5
15E
330
15A
100
AcDbEntity
  8
F_BASE
100
AcDbVertex
100
AcDb2dVertex
 10
158.5303074499166
 20
442.2087863495407
 30
0.0
  0
VERTEX
  5
15F
330
15A
100
AcDbEntity
  8
F_BASE
100
AcDbVertex
100
AcDb2dVertex
 10
192.5775195723004
 20
442.2087863495407
 30
0.0
  0
VERTEX
  5
160
330
15A
100
AcDbEntity
  8
F_BASE
100
AcDbVertex
100
AcDb2dVertex
 10
192.5775195723004
 20
437.1396695084758
 30
0.0
  0
VERTEX
  5
161
330
15A
100
AcDbEntity
  8
F_BASE
100
AcDbVertex
100
AcDb2dVertex
 10
178.3668358304843
 20
437.1396695084758
 30
0.0
  0
VERTEX
  5
162
330
15A
100
AcDbEntity
  8
F_BASE
100
AcDbVertex
100
AcDb2dVertex
 10
178.3668358304843
 20
399.2541017190591
 30
0.0
  0
VERTEX
  5
163
330
15A
100
AcDbEntity
  8
F_BASE
100
AcDbVertex
100
AcDb2dVertex
 10
172.6827690396233
 20
399.2541017190591
 30
0.0
  0
SEQEND
  5
164
330
15A
100
AcDbEntity
  8
F_BASE
  0
HATCH
  5
165
330
FC
100
AcDbEntity
  8
F_BASE
 62
     7
100
AcDbHatch
 10
0.0
 20
0.0
 30
0.0
210
0.0
220
0.0
230
1.0
  2
SOLID
 70
     1
 71
     0
 91
        1
 92
        1
 93
        8
 72
     1
 10
172.6827690396233
 20
399.2541017190591
 11
172.6827690396233
 21
437.1396695084758
 72
     1
 10
172.6827690396233
 20
437.1396695084758
 11
158.5303074499166
 21
437.1396695084758
 72
     1
 10
158.5303074499166
 20
437.1396695084758
 11
158.5303074499166
 21
442.2087863495407
 72
     1
 10
158.5303074499166
 20
442.2087863495407
 11
192.5775195723004
 21
442.2087863495407
 72
     1
 10
192.5775195723004
 20
442.2087863495407
 11
192.5775195723004
 21
437.1396695084758
 72
     1
 10
192.5775195723004
 20
437.1396695084758
 11
178.3668358304843
 21
437.1396695084758
 72
     1
 10
178.3668358304843
 20
437.1396695084758
 11
178.3668358304843
 21
399.2541017190591
 72
     1
 10
178.3668358304843
 20
399.2541017190591
 11
172.6827690396233
 21
399.2541017190591
 97
        0
 75
     2
 76
     1
 98
        0
  0
POLYLINE
  5
166
330
FC
100
AcDbEntity
  8
F_BASE
100
AcDb2dPolyline
 66
     1
 10
0.0
 20
0.0
 30
0.0
  0
VERTEX
  5
167
330
166
100
AcDbEntity
  8
F_BASE
100
AcDbVertex
100
AcDb2dVertex
 10
198.5258253611971
 20
399.2541017190591
 30
0.0
  0
VERTEX
  5
168
330
166
100
AcDbEntity
  8
F_BASE
100
AcDbVertex
100
AcDb2dVertex
 10
198.5258253611971
 20
442.2087863495407
 30
0.0
  0
VERTEX
  5
169
330
166
100
AcDbEntity
  8
F_BASE
100
AcDbVertex
100
AcDb2dVertex
 10
229.5844151785491
 20
442.2087863495407
 30
0.0
  0
VERTEX
  5
16A
330
166
100
AcDbEntity
  8
F_BASE
100
AcDbVertex
100
AcDb2dVertex
 10
229.5844151785491
 20
437.1396695084758
 30
0.0
  0
VERTEX
  5
16B
330
166
100
AcDbEntity
  8
F_BASE
100
AcDbVertex
100
AcDb2dVertex
 10
204.2098921520581
 20
437.1396695084758
 30
0.0
  0
VERTEX
  5
16C
330
166
100
AcDbEntity
  8
F_BASE
100
AcDbVertex
100
AcDb2dVertex
 10
204.2098921520581
 20
423.9837024452597
 30
0.0
  0
VERTEX
  5
16D
330
166
100
AcDbEntity
  8
F_BASE
100
AcDbVertex
100
AcDb2dVertex
 10
227.9727984473746
 20
423.9837024452597
 30
0.0
  0
VERTEX
  5
16E
330
166
100
AcDbEntity
  8
F_BASE
100
AcDbVertex
100
AcDb2dVertex
 10
227.9727984473746
 20
418.9440411900254
 30
0.0
  0
VERTEX
  5
16F
330
166
100
AcDbEntity
  8
F_BASE
100
AcDbVertex
100
AcDb2dVertex
 10
204.2098921520581
 20
418.9440411900254
 30
0.0
  0
VERTEX
  5
170
330
166
100
AcDbEntity
  8
F_BASE
100
AcDbVertex
100
AcDb2dVertex
 10
204.2098921520581
 20
404.323046305236
 30
0.0
  0
VERTEX
  5
171
330
166
100
AcDbEntity
  8
F_BASE
100
AcDbVertex
100
AcDb2dVertex
 10
230.5803929403758
 20
404.323046305236
 30
0.0
  0
VERTEX
  5
172
330
166
100
AcDbEntity
  8
F_BASE
100
AcDbVertex
100
AcDb2dVertex
 10
230.5803929403758
 20
399.2541017190591
 30
0.0
  0
VERTEX
  5
173
330
166
100
AcDbEntity
  8
F_BASE
100
AcDbVertex
100
AcDb2dVertex
 10
198.5258253611971
 20
399.2541017190591
 30
0.0
  0
SEQEND
  5
174
330
166
100
AcDbEntity
  8
F_BASE
  0
HATCH
  5
175
330
FC
100
AcDbEntity
  8
F_BASE
 62
     7
100
AcDbHatch
 10
0.0
 20
0.0
 30
0.0
210
0.0
220
0.0
230
1.0
  2
SOLID
 70
     1
 71
     0
 91
        1
 92
        1
 93
       12
 72
     1
 10
198.5258253611971
 20
399.2541017190591
 11
198.5258253611971
 21
442.2087863495407
 72
     1
 10
198.5258253611971
 20
442.2087863495407
 11
229.5844151785491
 21
442.2087863495407
 72
     1
 10
229.5844151785491
 20
442.2087863495407
 11
229.5844151785491
 21
437.1396695084758
 72
     1
 10
229.5844151785491
 20
437.1396695084758
 11
204.2098921520581
 21
437.1396695084758
 72
     1
 10
204.2098921520581
 20
437.1396695084758
 11
204.2098921520581
 21
423.9837024452597
 72
     1
 10
204.2098921520581
 20
423.9837024452597
 11
227.9727984473746
 21
423.9837024452597
 72
     1
 10
227.9727984473746
 20
423.9837024452597
 11
227.9727984473746
 21
418.9440411900254
 72
     1
 10
227.9727984473746
 20
418.9440411900254
 11
204.2098921520581
 21
418.9440411900254
 72
     1
 10
204.2098921520581
 20
418.9440411900254
 11
204.2098921520581
 21
404.323046305236
 72
     1
 10
204.2098921520581
 20
404.323046305236
 11
230.5803929403758
 21
404.323046305236
 72
     1
 10
230.5803929403758
 20
404.323046305236
 11
230.5803929403758
 21
399.2541017190591
 72
     1
 10
230.5803929403758
 20
399.2541017190591
 11
198.5258253611971
 21
399.2541017190591
 97
        0
 75
     2
 76
     1
 98
        0
  0
ENDBLK
  5
FF
330
FC
100
AcDbEntity
  8
0
100
AcDbBlockEnd
  0
ENDSEC
  0
SECTION
  2
ENTITIES
  0
INSERT
  5
40
330
1F
100
AcDbEntity
  8
F_BASE
100
AcDbBlockReference
  2
BLOCK_2
 10
0.0
 20
0.0
 30
0.0
  0
INSERT
  5
F5
330
1F
100
AcDbEntity
  8
F_BASE
100
AcDbBlockReference
  2
BLOCK_4
 10
0.0
 20
0.0
 30
0.0
  0
ENDSEC
  0
SECTION
  2
OBJECTS
  0
DICTIONARY
  5
C
330
0
100
AcDbDictionary
  3
ACAD_GROUP
350
D
  3
ACAD_LAYOUT
350
1A
  3
ACAD_MLINESTYLE
350
17
  3
ACAD_PLOTSETTINGS
350
19
  3
ACAD_TABLESTYLE
350
19B
  3
ACAD_VISUALSTYLE
350
2A
  3
ACDBHEADERROUNDTRIPXREC
350
17B
  0
DICTIONARY
  5
D
102
{ACAD_REACTORS
330
C
102
}
330
C
100
AcDbDictionary
  0
DICTIONARY
  5
1A
102
{ACAD_REACTORS
330
C
102
}
330
C
100
AcDbDictionary
  0
DICTIONARY
  5
17
102
{ACAD_REACTORS
330
C
102
}
330
C
100
AcDbDictionary
  3
STANDARD
350
18
  0
DICTIONARY
  5
19
102
{ACAD_REACTORS
330
C
102
}
330
C
100
AcDbDictionary
  0
DICTIONARY
  5
19B
102
{ACAD_REACTORS
330
C
102
}
330
C
100
AcDbDictionary
  0
DICTIONARY
  5
2A
102
{ACAD_REACTORS
330
C
102
}
330
C
100
AcDbDictionary
  3
2DWIREFRAME
350
2F
  3
3D_HIDDEN
350
31
  3
3DWIREFRAME
350
30
  3
BASIC
350
32
  3
BRIGHTEN
350
36
  3
COLORCHANGE
350
3A
  3
CONCEPTUAL
350
34
  3
DIM
350
35
  3
FACEPATTERN
350
39
  3
FLAT
350
2B
  3
FLATWITHEDGES
350
2C
  3
GOURAUD
350
2D
  3
GOURAUDWITHEDGES
350
2E
  3
LINEPATTERN
350
38
  3
REALISTIC
350
33
  3
THICKEN
350
37
  0
DICTIONARY
  5
17B
102
{ACAD_REACTORS
330
C
102
}
330
C
100
AcDbDictionary
  3
CEPSNTYPE
350
184
  3
DIMSTYLEDATA
350
19A
  3
FINGERPRINTGUID
350
185
  3
HYPERLINKBASE
350
17E
  3
INSUNITS
350
183
  3
LAYOUTDICT
350
180
  3
LWETCUNION
350
182
  3
PLOTSETDICT
350
181
  3
PSVPSCALE
350
187
  3
PUCSBASE
350
18A
  3
PUCSORGBACK
350
190
  3
PUCSORGBOTTOM
350
18C
  3
PUCSORGFRONT
350
18F
  3
PUCSORGLEFT
350
18D
  3
PUCSORGRIGHT
350
18E
  3
PUCSORGTOP
350
18B
  3
PUCSORTHOREF
350
188
  3
PUCSORTHOVIEW
350
189
  3
STYLESHEET
350
17F
  3
TSTACKALIGN
350
17C
  3
TSTACKSIZE
350
17D
  3
UCSBASE
350
193
  3
UCSORGBACK
350
199
  3
UCSORGBOTTOM
350
195
  3
UCSORGFRONT
350
198
  3
UCSORGLEFT
350
196
  3
UCSORGRIGHT
350
197
  3
UCSORGTOP
350
194
  3
UCSORTHOREF
350
191
  3
UCSORTHOVIEW
350
192
  3
VERSIONGUID
350
186
  0
MLINESTYLE
  5
18
102
{ACAD_REACTORS
330
17
102
}
330
17
100
AcDbMlineStyle
  2
Standard
 70
     0
  3

 62
   256
 51
90.0
 52
90.0
 71
     2
 49
0.5
 62
   256
  6
BYLAYER
 49
-0.5
 62
   256
  6
BYLAYER
  0
VISUALSTYLE
  5
2F
102
{ACAD_REACTORS
330
2A
102
}
330
2A
100
AcDbVisualStyle
  2
2dWireframe
 70
     4
 71
     0
 72
     2
 73
     0
 90
        0
 40
-0.6
 41
-30.0
 62
     5
 63
     7
 74
     1
 91
        4
 64
     7
 65
   257
 75
     1
175
     1
 42
1.0
 92
        0
 66
   257
 43
1.0
 76
     1
 77
     6
 78
     2
 67
     7
 79
     5
170
     0
171
     0
290
     0
174
     0
 93
        1
 44
0.0
173
     0
291
     0
 45
0.0
1001
ACAD
1000
AcDbSavedByObjectVersion
1070
     0
  0
VISUALSTYLE
  5
31
102
{ACAD_REACTORS
330
2A
102
}
330
2A
100
AcDbVisualStyle
  2
3D Hidden
 70
     6
 71
     1
 72
     2
 73
     2
 90
        0
 40
-0.6
 41
-30.0
 62
     5
 63
     7
 74
     2
 91
        2
 64
     7
 65
   257
 75
     2
175
     1
 42
40.0
 92
        0
 66
   257
 43
1.0
 76
     1
 77
     6
 78
     2
 67
     7
 79
     3
170
     0
171
     0
290
     0
174
     0
 93
        1
 44
0.0
173
     0
291
     0
 45
0.0
1001
ACAD
1000
AcDbSavedByObjectVersion
1070
     0
  0
VISUALSTYLE
  5
30
102
{ACAD_REACTORS
330
2A
102
}
330
2A
100
AcDbVisualStyle
  2
3dWireframe
 70
     5
 71
     0
 72
     2
 73
     0
 90
        0
 40
-0.6
 41
-30.0
 62
     5
 63
     7
 74
     1
 91
        4
 64
     7
 65
   257
 75
     1
175
     1
 42
1.0
 92
        0
 66
   257
 43
1.0
 76
     1
 77
     6
 78
     2
 67
     7
 79
     5
170
     0
171
     0
290
     0
174
     0
 93
        1
 44
0.0
173
     0
291
     0
 45
0.0
1001
ACAD
1000
AcDbSavedByObjectVersion
1070
     0
  0
VISUALSTYLE
  5
32
102
{ACAD_REACTORS
330
2A
102
}
330
2A
100
AcDbVisualStyle
  2
Basic
 70
     7
 71
     1
 72
     0
 73
     1
 90
        0
 40
-0.6
 41
-30.0
 62
     5
 63
     7
 74
     0
 91
        4
 64
     7
 65
   257
 75
     1
175
     1
 42
1.0
 92
        8
 66
     7
 43
1.0
 76
     1
 77
     6
 78
     2
 67
     7
 79
     5
170
     0
171
     0
290
     0
174
     0
 93
        1
 44
0.0
173
     0
291
     1
 45
0.0
1001
ACAD
1000
AcDbSavedByObjectVersion
1070
     0
  0
VISUALSTYLE
  5
36
102
{ACAD_REACTORS
330
2A
102
}
330
2A
100
AcDbVisualStyle
  2
Brighten
 70
    12
 71
     2
 72
     2
 73
     0
 90
        0
 40
-0.6
 41
-30.0
 62
     5
 63
     7
 74
     1
 91
        4
 64
     7
 65
   257
 75
     1
175
     1
 42
1.0
 92
        8
 66
     7
 43
1.0
 76
     1
 77
     6
 78
     2
 67
     7
 79
     5
170
     0
171
     0
290
     0
174
     0
 93
        1
 44
50.0
173
     0
291
     1
 45
0.0
1001
ACAD
1000
AcDbSavedByObjectVersion
1070
     0
  0
VISUALSTYLE
  5
3A
102
{ACAD_REACTORS
330
2A
102
}
330
2A
100
AcDbVisualStyle
  2
ColorChange
 70
    16
 71
     2
 72
     2
 73
     3
 90
        0
 40
-0.6
 41
-30.0
 62
     5
 63
     8
 74
     1
 91
        4
 64
     7
 65
   257
 75
     1
175
     1
 42
1.0
 92
        8
 66
     8
 43
1.0
 76
     1
 77
     6
 78
     2
 67
     7
 79
     5
170
     0
171
     0
290
     0
174
     0
 93
        1
 44
0.0
173
     0
291
     1
 45
0.0
1001
ACAD
1000
AcDbSavedByObjectVersion
1070
     0
  0
VISUALSTYLE
  5
34
102
{ACAD_REACTORS
330
2A
102
}
330
2A
100
AcDbVisualStyle
  2
Conceptual
 70
     9
 71
     3
 72
     2
 73
     0
 90
        0
 40
-0.6
 41
-30.0
 62
     5
 63
     7
 74
     2
 91
        2
 64
     7
 65
   257
 75
     1
175
     1
 42
40.0
 92
        8
 66
     7
 43
1.0
 76
     1
 77
     6
 78
     2
 67
     7
 79
     3
170
     0
171
     0
290
     0
174
     0
 93
        1
 44
0.0
173
     0
291
     0
 45
0.0
1001
ACAD
1000
AcDbSavedByObjectVersion
1070
     0
  0
VISUALSTYLE
  5
35
102
{ACAD_REACTORS
330
2A
102
}
330
2A
100
AcDbVisualStyle
  2
Dim
 70
    11
 71
     2
 72
     2
 73
     0
 90
        0
 40
-0.6
 41
-30.0
 62
     5
 63
     7
 74
     1
 91
        4
 64
     7
 65
   257
 75
     1
175
     1
 42
1.0
 92
        8
 66
     7
 43
1.0
 76
     1
 77
     6
 78
     2
 67
     7
 79
     5
170
     0
171
     0
290
     0
174
     0
 93
        1
 44
-50.0
173
     0
291
     1
 45
0.0
1001
ACAD
1000
AcDbSavedByObjectVersion
1070
     0
  0
VISUALSTYLE
  5
39
102
{ACAD_REACTORS
330
2A
102
}
330
2A
100
AcDbVisualStyle
  2
Facepattern
 70
    15
 71
     2
 72
     2
 73
     0
 90
        0
 40
-0.6
 41
-30.0
 62
     5
 63
     7
 74
     1
 91
        4
 64
     7
 65
   257
 75
     1
175
     1
 42
1.0
 92
        8
 66
     7
 43
1.0
 76
     1
 77
     6
 78
     2
 67
     7
 79
     5
170
     0
171
     0
290
     0
174
     0
 93
        1
 44
0.0
173
     0
291
     1
 45
0.0
1001
ACAD
1000
AcDbSavedByObjectVersion
1070
     0
  0
VISUALSTYLE
  5
2B
102
{ACAD_REACTORS
330
2A
102
}
330
2A
100
AcDbVisualStyle
  2
Flat
 70
     0
 71
     2
 72
     1
 73
     1
 90
        2
 40
-0.6
 41
30.0
 62
     5
 63
     7
 74
     0
 91
        4
 64
     7
 65
   257
 75
     1
175
     1
 42
1.0
 92
        8
 66
     7
 43
1.0
 76
     1
 77
     6
 78
     2
 67
     7
 79
     5
170
     0
171
     0
290
     0
174
     0
 93
       13
 44
0.0
173
     0
291
     1
 45
0.0
1001
ACAD
1000
AcDbSavedByObjectVersion
1070
     0
  0
VISUALSTYLE
  5
2C
102
{ACAD_REACTORS
330
2A
102
}
330
2A
100
AcDbVisualStyle
  2
FlatWithEdges
 70
     1
 71
     2
 72
     1
 73
     1
 90
        2
 40
-0.6
 41
30.0
 62
     5
 63
     7
 74
     1
 91
        4
 64
     7
 65
   257
 75
     1
175
     1
 42
1.0
 92
        0
 66
   257
 43
1.0
 76
     1
 77
     6
 78
     2
 67
     7
 79
     5
170
     0
171
     0
290
     0
174
     0
 93
       13
 44
0.0
173
     0
291
     1
 45
0.0
1001
ACAD
1000
AcDbSavedByObjectVersion
1070
     0
  0
VISUALSTYLE
  5
2D
102
{ACAD_REACTORS
330
2A
102
}
330
2A
100
AcDbVisualStyle
  2
Gouraud
 70
     2
 71
     2
 72
     2
 73
     1
 90
        2
 40
-0.6
 41
30.0
 62
     5
 63
     7
 74
     0
 91
        4
 64
     7
 65
   257
 75
     1
175
     1
 42
1.0
 92
        0
 66
     7
 43
1.0
 76
     1
 77
     6
 78
     2
 67
     7
 79
     5
170
     0
171
     0
290
     0
174
     0
 93
       13
 44
0.0
173
     0
291
     1
 45
0.0
1001
ACAD
1000
AcDbSavedByObjectVersion
1070
     0
  0
VISUALSTYLE
  5
2E
102
{ACAD_REACTORS
330
2A
102
}
330
2A
100
AcDbVisualStyle
  2
GouraudWithEdges
 70
     3
 71
     2
 72
     2
 73
     1
 90
        2
 40
-0.6
 41
30.0
 62
     5
 63
     7
 74
     1
 91
        4
 64
     7
 65
   257
 75
     1
175
     1
 42
1.0
 92
        0
 66
   257
 43
1.0
 76
     1
 77
     6
 78
     2
 67
     7
 79
     5
170
     0
171
     0
290
     0
174
     0
 93
       13
 44
0.0
173
     0
291
     1
 45
0.0
1001
ACAD
1000
AcDbSavedByObjectVersion
1070
     0
  0
VISUALSTYLE
  5
38
102
{ACAD_REACTORS
330
2A
102
}
330
2A
100
AcDbVisualStyle
  2
Linepattern
 70
    14
 71
     2
 72
     2
 73
     0
 90
        0
 40
-0.6
 41
-30.0
 62
     5
 63
     7
 74
     1
 91
        4
 64
     7
 65
   257
 75
     7
175
     7
 42
1.0
 92
        8
 66
     7
 43
1.0
 76
     1
 77
     6
 78
     2
 67
     7
 79
     5
170
     0
171
     0
290
     0
174
     0
 93
        1
 44
0.0
173
     0
291
     1
 45
0.0
1001
ACAD
1000
AcDbSavedByObjectVersion
1070
     0
  0
VISUALSTYLE
  5
33
102
{ACAD_REACTORS
330
2A
102
}
330
2A
100
AcDbVisualStyle
  2
Realistic
 70
     8
 71
     2
 72
     2
 73
     0
 90
        0
 40
-0.6
 41
-30.0
 62
     5
 63
     7
 74
     1
 91
        0
 64
     7
 65
   257
 75
     1
175
     1
 42
1.0
 92
        8
 66
     8
 43
1.0
 76
     1
 77
     6
 78
     2
 67
     7
 79
     5
170
     0
171
     0
290
     0
174
     0
 93
       13
 44
0.0
173
     0
291
     0
 45
0.0
1001
ACAD
1000
AcDbSavedByObjectVersion
1070
     0
  0
VISUALSTYLE
  5
37
102
{ACAD_REACTORS
330
2A
102
}
330
2A
100
AcDbVisualStyle
  2
Thicken
 70
    13
 71
     2
 72
     2
 73
     0
 90
        0
 40
-0.6
 41
-30.0
 62
     5
 63
     7
 74
     1
 91
        4
 64
     7
 65
   257
 75
     1
175
     1
 42
1.0
 92
       12
 66
     7
 43
1.0
 76
     1
 77
     6
 78
     2
 67
     7
 79
     5
170
     0
171
     0
290
     0
174
     0
 93
        1
 44
0.0
173
     0
291
     1
 45
0.0
1001
ACAD
1000
AcDbSavedByObjectVersion
1070
     0
  0
XRECORD
  5
184
102
{ACAD_REACTORS
330
17B
102
}
330
17B
100
AcDbXrecord
 90
        0
  0
XRECORD
  5
19A
102
{ACAD_REACTORS
330
17B
102
}
330
17B
100
AcDbXrecord
1000
DSTYLE
1002
{
1070
   340
340
11
1002
}
  0
XRECORD
  5
185
102
{ACAD_REACTORS
330
17B
102
}
330
17B
100
AcDbXrecord
  1
{0C01012D-89CF-43F9-A3C8-BDAA24D4396F}
  0
XRECORD
  5
17E
102
{ACAD_REACTORS
330
17B
102
}
330
17B
100
AcDbXrecord
  1

  0
XRECORD
  5
183
102
{ACAD_REACTORS
330
17B
102
}
330
17B
100
AcDbXrecord
 90
        1
  0
XRECORD
  5
180
102
{ACAD_REACTORS
330
17B
102
}
330
17B
100
AcDbXrecord
340
1A
  0
XRECORD
  5
182
102
{ACAD_REACTORS
330
17B
102
}
330
17B
100
AcDbXrecord
 90
    10269
  0
XRECORD
  5
181
102
{ACAD_REACTORS
330
17B
102
}
330
17B
100
AcDbXrecord
340
19
  0
XRECORD
  5
187
102
{ACAD_REACTORS
330
17B
102
}
330
17B
100
AcDbXrecord
 40
0.0
  0
XRECORD
  5
18A
102
{ACAD_REACTORS
330
17B
102
}
330
17B
100
AcDbXrecord
340
0
  0
XRECORD
  5
190
102
{ACAD_REACTORS
330
17B
102
}
330
17B
100
AcDbXrecord
 10
0.0
 20
0.0
 30
0.0
  0
XRECORD
  5
18C
102
{ACAD_REACTORS
330
17B
102
}
330
17B
100
AcDbXrecord
 10
0.0
 20
0.0
 30
0.0
  0
XRECORD
  5
18F
102
{ACAD_REACTORS
330
17B
102
}
330
17B
100
AcDbXrecord
 10
0.0
 20
0.0
 30
0.0
  0
XRECORD
  5
18D
102
{ACAD_REACTORS
330
17B
102
}
330
17B
100
AcDbXrecord
 10
0.0
 20
0.0
 30
0.0
  0
XRECORD
  5
18E
102
{ACAD_REACTORS
330
17B
102
}
330
17B
100
AcDbXrecord
 10
0.0
 20
0.0
 30
0.0
  0
XRECORD
  5
18B
102
{ACAD_REACTORS
330
17B
102
}
330
17B
100
AcDbXrecord
 10
0.0
 20
0.0
 30
0.0
  0
XRECORD
  5
188
102
{ACAD_REACTORS
330
17B
102
}
330
17B
100
AcDbXrecord
340
0
  0
XRECORD
  5
189
102
{ACAD_REACTORS
330
17B
102
}
330
17B
100
AcDbXrecord
 70
     0
  0
XRECORD
  5
17F
102
{ACAD_REACTORS
330
17B
102
}
330
17B
100
AcDbXrecord
  1

  0
XRECORD
  5
17C
102
{ACAD_REACTORS
330
17B
102
}
330
17B
100
AcDbXrecord
 90
        1
  0
XRECORD
  5
17D
102
{ACAD_REACTORS
330
17B
102
}
330
17B
100
AcDbXrecord
 90
       70
  0
XRECORD
  5
193
102
{ACAD_REACTORS
330
17B
102
}
330
17B
100
AcDbXrecord
340
0
  0
XRECORD
  5
199
102
{ACAD_REACTORS
330
17B
102
}
330
17B
100
AcDbXrecord
 10
0.0
 20
0.0
 30
0.0
  0
XRECORD
  5
195
102
{ACAD_REACTORS
330
17B
102
}
330
17B
100
AcDbXrecord
 10
0.0
 20
0.0
 30
0.0
  0
XRECORD
  5
198
102
{ACAD_REACTORS
330
17B
102
}
330
17B
100
AcDbXrecord
 10
0.0
 20
0.0
 30
0.0
  0
XRECORD
  5
196
102
{ACAD_REACTORS
330
17B
102
}
330
17B
100
AcDbXrecord
 10
0.0
 20
0.0
 30
0.0
  0
XRECORD
  5
197
102
{ACAD_REACTORS
330
17B
102
}
330
17B
100
AcDbXrecord
 10
0.0
 20
0.0
 30
0.0
  0
XRECORD
  5
194
102
{ACAD_REACTORS
330
17B
102
}
330
17B
100
AcDbXrecord
 10
0.0
 20
0.0
 30
0.0
  0
XRECORD
  5
191
102
{ACAD_REACTORS
330
17B
102
}
330
17B
100
AcDbXrecord
340
0
  0
XRECORD
  5
192
102
{ACAD_REACTORS
330
17B
102
}
330
17B
100
AcDbXrecord
 70
     0
  0
XRECORD
  5
186
102
{ACAD_REACTORS
330
17B
102
}
330
17B
100
AcDbXrecord
  1
{FAEB1C32-E019-11D5-929B-00C0DF256EC4}
  0
ENDSEC
  0
EOF
